<svg width="40" height="40" viewBox="0 0 40 40" fill="none" xmlns="http://www.w3.org/2000/svg">
<g clip-path="url(#clip0_3546_141727)">
<path d="M20.0002 40.0002C31.0459 40.0002 40.0003 31.0459 40.0003 20.0002C40.0003 8.95455 31.0459 0.000244141 20.0002 0.000244141C8.95455 0.000244141 0.000244141 8.95455 0.000244141 20.0002C0.000244141 31.0459 8.95455 40.0002 20.0002 40.0002Z" fill="#F3F6F9"></path>
<path d="M11.3047 26.9565L13.0438 38.7562C15.2104 39.5602 17.5539 40.0001 20.0003 40.0001C28.5995 40.0001 35.9305 34.5726 38.7562 26.9565H11.3047Z" fill="black"></path>
<path d="M11.3047 13.0435L13.0438 1.24383C15.2104 0.439844 17.5539 0 20.0003 0C28.5995 0 35.9305 5.4275 38.7562 13.0435H11.3047Z" fill="#75BB42"></path>
<path d="M0 20.0002C0 28.5995 5.42758 35.9303 13.0435 38.7562V1.24414C5.42758 4.07 0 11.4009 0 20.0002Z" fill="#A2001D"></path>
</g>
<defs>
<clipPath id="clip0_3546_141727">
<rect width="40" height="40" fill="white"></rect>
</clipPath>
</defs>
</svg>