<svg width="40" height="40" viewBox="0 0 40 40" fill="none" xmlns="http://www.w3.org/2000/svg">
<g clip-path="url(#clip0_1_4040)">
<path d="M0 20C0 21.3699 0.138125 22.7076 0.400547 24L20 25.2174L39.5995 24C39.862 22.7076 40 21.3699 40 20C40 18.6301 39.8619 17.2924 39.5995 16L20 14.7826L0.400547 16C0.138125 17.2924 0 18.6301 0 20H0Z" fill="#0052B4"></path>
<path d="M39.5996 24H0.400635C2.25368 33.1289 10.3244 40 20.0001 40C29.6758 40 37.7465 33.1289 39.5996 24Z" fill="#F3F6F9"></path>
<path d="M0.400635 16H39.5997C37.7465 6.87109 29.6759 0 20.0001 0C10.3242 0 2.25368 6.87109 0.400635 16Z" fill="black"></path>
<path d="M28.6957 16H11.3044L14.8576 14.3286L12.9655 10.8876L16.8237 11.6255L17.3127 7.72791L20.0001 10.5946L22.6876 7.72791L23.1763 11.6255L27.0347 10.8876L25.1427 14.3288L28.6957 16Z" fill="#FFDA44"></path>
<path d="M0 20C0 31.0456 8.95437 40 20 40L3.99969 7.99927C1.48844 11.3422 0 15.4971 0 20Z" fill="#A2001D"></path>
<path d="M20 40C31.0456 40 40 31.0456 40 20C40 15.4971 38.5116 11.3422 36.0003 7.99927L20 40Z" fill="#A2001D"></path>
</g>
<defs>
<clipPath id="clip0_1_4040">
<rect width="40" height="40" fill="white"></rect>
</clipPath>
</defs>
</svg>