<svg width="40" height="40" viewBox="0 0 40 40" fill="none" xmlns="http://www.w3.org/2000/svg">
<g clip-path="url(#clip0_1_4146)">
<path d="M40 20C40 31.0456 31.0456 40 20 40C8.95437 40 0 31.0456 0 20C0 20.0048 20 0.0021875 20 0C31.0456 0 40 8.95437 40 20Z" fill="#0052B4"></path>
<path d="M19.9463 20H19.9998C19.9998 19.9821 19.9998 19.9646 19.9998 19.9465C19.982 19.9644 19.9642 19.9822 19.9463 20Z" fill="#F0F0F0"></path>
<path d="M20 10.4348C20 6.91563 20 4.60977 20 0H19.9966C8.95242 0.001875 0 8.95539 0 20H10.4348V14.1241L16.3106 20H19.9466C19.9644 19.9822 19.9822 19.9644 20.0001 19.9465C20.0001 18.5991 20.0001 17.3968 20.0001 16.3108L14.1241 10.4348H20Z" fill="#F3F6F9"></path>
<path d="M10.1186 2.60864C6.99053 4.38981 4.38998 6.99028 2.60889 10.1183V20H7.82631V7.82622V7.82607H20.0002C20.0002 6.18052 20.0002 4.61286 20.0002 2.60864H10.1186Z" fill="#D80027"></path>
<path d="M20.0003 17.5405L12.8944 10.4348H10.4351V10.435L20.0001 20H20.0003C20.0003 20 20.0003 18.3041 20.0003 17.5405Z" fill="#D80027"></path>
<path d="M33.8236 22.9275C34.3987 22.1363 34.7828 21.17 34.7828 19.9999V11.3043C34.0561 11.8502 33.1529 12.1738 32.1741 12.1738C30.7518 12.1738 29.489 11.4908 28.6958 10.4348C27.9026 11.4908 26.6398 12.1738 25.2176 12.1738C24.2387 12.1738 23.3355 11.8501 22.6089 11.3044V19.9999C22.6089 21.17 22.993 22.1363 23.5681 22.9275H33.8236Z" fill="#F3F6F9"></path>
<path d="M32.0145 18.3869C32.2913 17.7114 32.5067 16.7242 32.5067 16.2328C32.5067 15.4434 31.4774 14.8035 31.4774 14.8035C31.4774 14.8035 30.4482 15.4434 30.4482 16.2328C30.4482 16.7242 30.6636 17.7115 30.9403 18.3869L30.3462 19.7284C30.6954 19.8704 31.0771 19.9493 31.4775 19.9493C31.8779 19.9493 32.2596 19.8703 32.6088 19.7284L32.0145 18.3869Z" fill="#FF9811"></path>
<path d="M27.9919 14.0431C27.2688 14.1411 26.3061 14.4485 25.8806 14.6942C25.1969 15.0889 25.1572 16.3001 25.1572 16.3001C25.1572 16.3001 26.2261 16.8714 26.9097 16.4767C27.3353 16.231 28.0825 15.551 28.5289 14.9735L29.9879 14.8173C29.9363 14.444 29.8135 14.0739 29.6136 13.7273C29.4132 13.3806 29.1543 13.0894 28.8566 12.8579L27.9919 14.0431Z" fill="#FF9811"></path>
<path d="M26.2417 19.699C26.688 20.2761 27.4354 20.9561 27.8611 21.2018C28.5447 21.5965 29.6136 21.0254 29.6136 21.0254C29.6136 21.0254 29.5737 19.814 28.8902 19.4193C28.4645 19.1736 27.5019 18.8665 26.7787 18.7686L25.914 17.5833C25.6165 17.8147 25.3574 18.1061 25.1572 18.4524C24.9571 18.7992 24.8346 19.1691 24.7827 19.5426L26.2417 19.699Z" fill="#FF9811"></path>
<path d="M23.353 22.6089C24.9771 25.2147 28.6959 26.087 28.6959 26.087C28.6959 26.087 32.4147 25.2147 34.0388 22.6089H23.353Z" fill="#338AF3"></path>
</g>
<defs>
<clipPath id="clip0_1_4146">
<rect width="40" height="40" fill="white"></rect>
</clipPath>
</defs>
</svg>