<svg width="40" height="40" viewBox="0 0 40 40" fill="none" xmlns="http://www.w3.org/2000/svg">
<g clip-path="url(#clip0_1_4012)">
<path d="M20 40.0001C31.0457 40.0001 40 31.0458 40 20.0001C40 8.9544 31.0457 9.15527e-05 20 9.15527e-05C8.9543 9.15527e-05 0 8.9544 0 20.0001C0 31.0458 8.9543 40.0001 20 40.0001Z" fill="#FB2727"></path>
<path d="M31.3042 14.8445H24.06C24.5072 14.3762 24.7824 13.7422 24.7824 13.0435C24.7824 11.6028 23.6145 10.4348 22.1738 10.4348C21.2661 10.4348 20.4671 10.8986 19.9999 11.6018C19.5326 10.8986 18.7335 10.4348 17.8259 10.4348C16.3852 10.4348 15.2173 11.6028 15.2173 13.0435C15.2173 13.7422 15.4925 14.3763 15.9397 14.8445H8.69556C8.69556 16.7655 10.3688 18.3227 12.2896 18.3227H12.1737C12.1737 20.2438 13.7309 21.801 15.652 21.801C15.652 22.4232 15.816 23.0065 16.1023 23.5115L13.2171 26.3967L15.4307 28.6102L18.5707 25.4702C18.6937 25.5153 18.8209 25.5515 18.9524 25.5761L17.0549 29.8601L19.9999 33.0435L22.9448 29.8599L21.0474 25.5759C21.1788 25.5513 21.306 25.5152 21.429 25.4701L24.569 28.61L26.7826 26.3965L23.8974 23.5113C24.1837 23.0063 24.3477 22.423 24.3477 21.8008C26.2687 21.8008 27.826 20.2436 27.826 18.3224H27.7101C29.631 18.3226 31.3042 16.7655 31.3042 14.8445Z" fill="black"></path>
</g>
<defs>
<clipPath id="clip0_1_4012">
<rect width="40" height="40" fill="white"></rect>
</clipPath>
</defs>
</svg>