<svg width="40" height="40" viewBox="0 0 40 40" fill="none" xmlns="http://www.w3.org/2000/svg">
<g clip-path="url(#clip0_1_4056)">
<path d="M40 20C40 17.5536 39.56 15.2101 38.756 13.0435L20 12.1739L1.24398 13.0434C0.440078 15.2101 0 17.5536 0 20C0 22.4464 0.440078 24.7899 1.24398 26.9565L20 27.8261L38.756 26.9565C39.56 24.7899 40 22.4464 40 20Z" fill="#0073FD"></path>
<path d="M19.9999 40C28.5992 40 35.9301 34.5725 38.7559 26.9565H1.2439C4.06976 34.5725 11.4006 40 19.9999 40Z" fill="#FF9811"></path>
<path d="M1.2439 13.0435H38.756C35.9301 5.4275 28.5992 0 19.9999 0C11.4006 0 4.06976 5.4275 1.2439 13.0435Z" fill="#FB2727"></path>
</g>
<defs>
<clipPath id="clip0_1_4056">
<rect width="40" height="40" fill="white"></rect>
</clipPath>
</defs>
</svg>