<svg width="40" height="40" viewBox="0 0 40 40" fill="none" xmlns="http://www.w3.org/2000/svg">
<g clip-path="url(#clip0_1_4661)">
<path d="M40 0H0V40H40V0Z" fill="#3A7DCE"></path>
<path d="M8.60774 19.6247C8.37503 19.1703 8.37503 19.1703 8.37503 18.716C8.25864 18.716 8.23682 18.7374 8.16953 18.7195C8.10224 18.7018 8.0768 19.1385 7.85855 19.0532C7.82221 19.0106 8.01496 18.6948 7.80584 18.5635C7.73855 18.5208 7.82221 18.2617 7.7931 18.1481C7.7931 18.1481 7.52765 18.2829 7.32761 17.8074C7.22937 17.6831 7.09484 17.9209 7.09484 17.9209C7.09484 17.9209 7.153 18.0665 7.04758 18.102C6.89847 17.9955 6.78932 18.0513 6.60024 17.905C6.4111 17.7585 6.64026 17.5909 6.28019 17.4666C6.51296 16.8987 6.51296 17.0123 7.09484 16.7851C6.74568 16.558 6.74568 16.558 6.51296 16.2172C6.1638 16.1036 6.04742 15.9901 5.69826 15.7629C5.23277 15.195 5 14.0592 5 13.2641C5.29461 12.9979 5.69826 14.1728 6.28019 14.5135L7.09484 14.8543C7.56033 15.0814 7.67671 15.3086 8.02587 15.5357L9.07329 15.8765C9.53878 16.2172 9.77155 16.6716 10.1207 16.7851C10.4989 16.7851 10.5718 16.5725 10.6931 16.5593C11.3772 16.5251 11.7264 16.4391 11.8628 16.2385C12.0009 16.0788 12.3319 16.3308 13.2629 15.9901L13.1466 15.5357C13.1466 15.5357 13.3939 15.337 13.7285 15.4221C13.7194 15.2145 13.6975 14.6608 14.0271 14.411C13.8269 14.2061 13.9612 14.0592 13.9612 14.0592C13.9612 14.0592 14.1467 13.8852 14.1685 13.793C14.0704 13.2925 14.2537 13.2847 14.2948 13.1375C14.3358 12.9903 14.1365 13.0407 14.1927 12.8377C14.2488 12.6347 14.5859 12.5865 14.6311 12.4193C14.6764 12.2521 14.5349 12.1682 14.5431 12.1283C14.6158 11.9686 14.5541 11.5923 14.5431 11.4468C15.1687 11.2835 15.3723 10.7866 15.5905 10.9925C15.7069 10.311 15.8233 10.0838 16.5215 10.0838C16.6198 9.87439 16.2669 9.69691 16.4052 9.62947C16.6379 9.60108 16.8161 9.61528 17.089 9.95958C17.1751 10.0687 17.1908 9.79985 17.278 9.77145C17.3653 9.74305 17.5742 9.74261 17.6053 9.60818C17.6381 9.46974 17.6854 9.28873 17.8017 9.06157C17.8999 8.87699 17.9763 9.13255 18.0636 9.49459C18.5546 9.51233 19.6638 9.61883 20.1293 9.74305C20.4785 9.83179 20.7112 9.65431 21.0458 9.61882C21.2931 9.86018 21.5259 9.67916 21.6568 10.1938C21.8416 10.4715 22.1441 10.2187 22.2096 10.3003C22.5988 11.3474 23.9371 10.6411 24.0389 10.6588C24.2098 10.6588 24.4186 11.127 24.5531 11.1153C24.7718 11.0794 24.7099 10.9339 24.9008 10.9925C24.8499 11.3864 25.2755 11.8408 25.2755 12.1353C25.2755 12.1353 25.3791 12.1851 25.4751 12.0976C25.571 12.0103 25.6592 11.7858 25.7446 11.7911C25.9483 11.8195 26.0308 11.845 26.2655 11.885C26.8965 12.0955 27.2179 12.1429 27.4631 12.2507C27.5771 12.4544 27.6876 12.5587 27.9187 12.5206C28.1096 12.6458 27.9704 12.8098 28.0831 12.8204C28.3159 12.7068 28.3923 12.5826 28.625 12.6962C28.8577 12.8098 29.0905 13.0369 29.2069 13.2641C29.2069 13.3777 29.0905 13.832 29.2069 14.5135C29.2651 14.7407 29.2933 14.9208 29.5433 15.3103C29.4769 15.7106 29.8579 16.384 29.8579 16.5544C29.8579 16.7816 29.6724 16.8987 29.556 17.1259C30.0215 17.4666 29.556 18.0345 29.3233 18.3753C31.069 18.716 30.2543 19.3975 31.6508 19.0568C31.3017 19.8518 31.4253 19.788 31.7745 20.5831C31.0761 21.0374 31.76 21.1758 31.2945 21.7437C31.2654 21.7792 31.5708 22.2371 32 22.2371C31.8836 23.1457 31.5345 22.805 31.6508 24.168C30.7343 24.1503 31.1053 25.1867 30.487 25.0766C30.5234 25.7262 30.8398 25.783 30.7198 26.4396C30.2543 26.5532 30.2543 26.5532 30.0215 26.8939L29.6724 26.7803C29.556 27.3482 29.3233 27.4618 29.6724 28.0298C29.6724 28.0298 29.2214 28.0439 29.0905 28.0298C29.0795 28.225 29.2906 28.2782 29.3233 28.4841C29.3051 28.5657 28.6613 28.9242 28.1595 28.9384C28.0286 29.2188 28.5086 29.517 28.4795 29.659C27.9339 29.7618 27.6939 30.415 27.6939 30.415C27.6939 30.415 27.974 30.525 27.9267 30.6421C27.7777 30.5356 27.6939 30.5286 27.4612 30.5286C27.3448 30.557 27.0612 30.5216 26.7892 30.9696C26.4907 31.0657 26.3498 31.0309 26.1233 31.3232C26.0231 31.0448 25.8789 31.3258 25.7026 31.4338C25.5264 31.5419 25.2891 31.8108 25.2572 31.7993C25.2645 31.7211 25.3664 31.4372 25.3664 31.4372L24.7845 31.5508C24.7845 31.5508 24.7585 31.5533 24.7128 31.5578C24.667 31.5622 24.6793 31.2263 24.569 31.2384C24.4587 31.2507 24.1432 31.661 24.0357 31.6738C23.9283 31.6866 23.8943 31.5433 23.8017 31.5558C23.7092 31.5683 23.5288 31.9885 23.4633 31.9997C23.3978 32.0108 23.1379 31.7442 22.9152 31.7814C21.7696 32.1755 21.5877 31.0042 21.4095 31.6644C21.1695 31.5401 21.211 31.6122 20.9671 31.6746C20.8115 31.7138 20.7974 31.4738 20.659 31.4775C20.3821 31.4851 20.3966 31.7407 20.2457 31.6644C20.1221 31.1319 19.3764 31.2277 19.3037 31.0006C19.2446 30.7637 19.6268 30.7648 19.7504 30.6043C19.8449 30.3727 19.6517 30.2848 20.0352 30.0614C20.535 29.7314 20.2477 29.607 20.3353 29.359C20.4921 29.001 20.493 28.9135 20.3621 28.5977C20.3621 28.5977 19.9729 27.5754 19.8965 27.5754C19.6638 27.5116 19.6638 27.9516 19.3219 28.0724C18.6236 28.2995 17.3908 27.4973 17.1762 27.4973C16.9799 27.5009 16.0704 27.7075 16.1047 27.2649C15.9687 27.6952 15.4687 27.366 15.4378 27.366C14.9723 27.366 15.1505 27.7174 14.8377 27.7032C14.6958 27.6571 13.2629 27.5754 13.2629 27.5754V27.8026L12.3319 27.3482L11.5172 27.1211C10.819 26.8939 11.1681 26.326 10.0043 26.6668V25.9853H9.42245C9.65516 24.6223 9.42245 25.3038 9.30606 24.0544L8.84052 24.168C8.37503 23.5539 9.48785 23.671 8.49142 23.2593C8.49142 23.2593 8.50956 22.5813 8.25864 22.805C8.20771 22.8334 8.37503 23.1457 8.37503 23.1457C7.444 23.0321 7.21122 22.805 7.21122 21.8963C7.21122 21.8963 7.97862 22.0028 7.90948 21.8963C7.80039 21.726 7.65857 20.6185 7.684 20.544C7.67309 20.3949 8.39685 20.0187 8.25681 19.6601C8.34592 19.6282 8.60774 19.6247 8.60774 19.6247Z" fill="white"></path>
<g clip-path="url(#clip1_1_4661)">
<path d="M54 0H-14V20H54V0Z" fill="#1B2F4C"></path>
<path d="M54 20H-14V40H54V20Z" fill="white"></path>
<path d="M8.55225 20L20.0001 24.4669L31.4479 20L20.0001 38.1369L8.55225 20Z" fill="#1B2F4C"></path>
<path d="M20.0001 1.86304L31.4479 20L20.0001 24.4893L8.55225 20L20.0001 1.86304Z" fill="white"></path>
</g>
</g>
<defs>
<clipPath id="clip0_1_4661">
<rect width="40" height="40" rx="20" fill="white"></rect>
</clipPath>
<clipPath id="clip1_1_4661">
<rect width="68" height="40" fill="white" transform="translate(-14)"></rect>
</clipPath>
</defs>
</svg>