<svg width="40" height="40" viewBox="0 0 40 40" fill="none" xmlns="http://www.w3.org/2000/svg">
<g clip-path="url(#clip0_1_4094)">
<path d="M20 40C31.0457 40 40 31.0457 40 20C40 8.9543 31.0457 0 20 0C8.9543 0 0 8.9543 0 20C0 31.0457 8.9543 40 20 40Z" fill="#F3F6F9"></path>
<path d="M29.7028 2.50875C26.8291 0.91125 23.5211 0 20 0C8.95516 0 0.00140625 8.95297 0 19.9977L13.913 13.0435L29.7028 2.50875Z" fill="#0052B4"></path>
<path d="M0 20.0024C0.00140625 31.0471 8.95516 40.0001 20 40.0001C23.5211 40.0001 26.8291 39.089 29.7028 37.4913L13.913 26.9566L0 20.0024Z" fill="#0052B4"></path>
<path d="M31.3695 3.54544C30.8323 3.17364 30.2757 2.82786 29.7021 2.50903L0 19.9976V20C0 20 0 20.0016 0 20.0023L29.7022 37.4908C30.2758 37.1719 30.8323 36.8262 31.3696 36.4544L3.42359 20L31.3695 3.54544Z" fill="#D80027"></path>
<path d="M34.7827 19.2543H32.4003C33.0198 18.5105 32.9816 17.404 32.2837 16.7063C33.0229 15.9671 33.0229 14.7686 32.2837 14.0293L32.2391 14.074C32.9783 13.3349 33.0229 12.0917 32.2837 11.3525L21.5762 22.06C22.3154 22.7993 23.4929 22.7905 24.232 22.0513L24.4381 21.8629L29.5653 21.3968V23.602H31.3045V21.2387L33.9131 21.0016L34.7827 19.2543Z" fill="#A2001D"></path>
<path d="M21.7398 24.3478L20 23.4783L21.7398 22.6086H33.0441V24.3478H21.7398Z" fill="#FFDA44"></path>
</g>
<defs>
<clipPath id="clip0_1_4094">
<rect width="40" height="40" fill="white"></rect>
</clipPath>
</defs>
</svg>