<svg width="40" height="40" viewBox="0 0 40 40" fill="none" xmlns="http://www.w3.org/2000/svg">
<g clip-path="url(#clip0_3546_142928)">
<path d="M39.9997 20C39.9997 31.0456 31.0453 40 19.9997 40C8.95409 40 -0.000289917 31.0456 -0.000289917 20C-0.000289917 20.0047 19.9997 0.00226562 19.9997 0C31.0453 0 39.9997 8.95437 39.9997 20Z" fill="#0073FD"></path>
<path d="M19.9464 19.9998H20C20 19.9817 20 19.9643 20 19.9463C19.9821 19.9642 19.9643 19.982 19.9464 19.9998Z" fill="#F3F6F9"></path>
<path d="M20 10.4348C20 6.91562 20 4.60961 20 0H19.9966C8.95247 0.00179687 -3.05176e-05 8.95531 -3.05176e-05 19.9999H10.4347V14.124L16.3107 19.9999H19.9465C19.9644 19.9821 19.9822 19.9643 20.0001 19.9464C20.0001 18.599 20.0001 17.3967 20.0001 16.3108L14.124 10.4348H20Z" fill="#F3F6F9"></path>
<path d="M10.1183 2.60889C6.99027 4.39006 4.3898 6.99053 2.60863 10.1186V20.0002H7.82605V7.82639V7.82631H20C20 6.18076 20 4.61311 20 2.60889H10.1183Z" fill="#FB2727"></path>
<path d="M19.9999 17.5407L12.8942 10.4351H10.4348C10.4348 10.435 10.4348 10.4351 10.4348 10.4351L19.9999 20.0002H19.9999C19.9999 20.0002 19.9999 18.3045 19.9999 17.5407Z" fill="#FB2727"></path>
<path d="M12.0622 23.4785L13.1598 25.7737L15.6385 25.2008L14.5285 27.49L16.5218 29.0707L14.04 29.6301L14.0469 32.1741L12.0622 30.5825L10.0775 32.1741L10.0844 29.6301L7.60255 29.0707L9.59591 27.49L8.48576 25.2008L10.9646 25.7737L12.0622 23.4785Z" fill="#F3F6F9"></path>
<path d="M29.9441 27.8262L30.4929 28.9738L31.7323 28.6873L31.1772 29.8319L32.1739 30.6223L30.933 30.902L30.9364 32.174L29.9441 31.3781L28.9517 32.174L28.9552 30.902L27.7143 30.6223L28.711 29.8319L28.156 28.6873L29.3953 28.9738L29.9441 27.8262Z" fill="#F3F6F9"></path>
<path d="M24.8386 15.6523L25.3874 16.8L26.6267 16.5134L26.0717 17.658L27.0684 18.4484L25.8275 18.7281L25.8309 20.0002L24.8386 19.2043L23.8463 20.0002L23.8496 18.7281L22.6088 18.4484L23.6054 17.658L23.0504 16.5134L24.2898 16.8L24.8386 15.6523Z" fill="#F3F6F9"></path>
<path d="M29.9441 8.6958L30.4929 9.84346L31.7323 9.55697L31.1773 10.7016L32.1739 11.4919L30.933 11.7717L30.9364 13.0437L29.9441 12.2478L28.9517 13.0437L28.9552 11.7717L27.7143 11.4919L28.7109 10.7016L28.156 9.55697L29.3953 9.84346L29.9441 8.6958Z" fill="#F3F6F9"></path>
<path d="M34.4037 13.9131L34.9525 15.0607L36.1919 14.7742L35.6369 15.9188L36.6335 16.7092L35.3926 16.9889L35.396 18.2609L34.4037 17.4651L33.4114 18.2609L33.4148 16.9889L32.1739 16.7092L33.1705 15.9188L32.6155 14.7742L33.8548 15.0607L34.4037 13.9131Z" fill="#F3F6F9"></path>
<path d="M31.2149 20L31.6465 21.3286H33.0435L31.9133 22.1498L32.3451 23.4783L31.2149 22.6572L30.0847 23.4783L30.5163 22.1498L29.3862 21.3286H30.7831L31.2149 20Z" fill="#F3F6F9"></path>
</g>
<defs>
<clipPath id="clip0_3546_142928">
<rect width="40" height="40" fill="white"></rect>
</clipPath>
</defs>
</svg>