<svg width="40" height="40" viewBox="0 0 40 40" fill="none" xmlns="http://www.w3.org/2000/svg">
<g clip-path="url(#clip0_1_4427)">
<path d="M20 40C31.0457 40 40 31.0457 40 20C40 8.9543 31.0457 0 20 0C8.9543 0 0 8.9543 0 20C0 31.0457 8.9543 40 20 40Z" fill="#FFDA44"></path>
<path d="M19.9999 39.9999C26.0617 39.9999 31.4932 37.3028 35.1609 33.0435H4.83887C8.5066 37.3028 13.9381 39.9999 19.9999 39.9999Z" fill="#338AF3"></path>
<path d="M40 20C40 8.95437 31.0456 0 20 0C8.95437 0 0 8.95437 0 20C0 21.8052 0.240625 23.5538 0.688984 25.2174H39.3111C39.7594 23.5538 40 21.8052 40 20Z" fill="#338AF3"></path>
<path d="M1.58984 27.8262C1.97539 28.7321 2.42609 29.6034 2.93555 30.4348H37.0646C37.5741 29.6033 38.0248 28.732 38.4105 27.8262H1.58984Z" fill="#338AF3"></path>
<path d="M9.16531 12.6143L5.25781 10.8898L9.16531 9.16523L10.8898 5.25781L12.6142 9.16523L16.5216 10.8898L12.6142 12.6143L10.8898 16.5217L9.16531 12.6143Z" fill="#F0F0F0"></path>
<path d="M10.8899 7.41138L11.9548 9.82458L14.3681 10.8897L11.9548 11.9547L10.8899 14.3679L9.82482 11.9547L7.41162 10.8897L9.82482 9.82458L10.8899 7.41138Z" fill="#D80027"></path>
</g>
<defs>
<clipPath id="clip0_1_4427">
<rect width="40" height="40" fill="white"></rect>
</clipPath>
</defs>
</svg>