<svg width="40" height="40" viewBox="0 0 40 40" fill="none" xmlns="http://www.w3.org/2000/svg">
<g clip-path="url(#clip0_1_4582)">
<path d="M39.311 25.2175C39.7594 23.5539 40 21.8053 40 20.0001C40 18.1948 39.7594 16.4462 39.311 14.7827L18.2609 0.0761719C14.353 0.412891 10.7668 1.87305 7.82609 4.1325L0.688984 14.7827C0.240625 16.4462 0 18.1948 0 20.0001C0 21.7948 0.237734 23.5338 0.681094 25.1886L7.82602 35.8677C10.7667 38.1271 14.3529 39.5873 18.2608 39.924L39.311 25.2175Z" fill="#FFDA44"></path>
<path d="M0.688965 25.2175C1.84615 29.5112 4.39654 33.2326 7.82607 35.8677V25.2175H0.688965Z" fill="#0052B4"></path>
<path d="M18.2607 39.924C18.834 39.9734 19.4138 40.0001 19.9999 40.0001C29.2404 40.0001 37.0159 33.7328 39.3109 25.2175H18.2607V39.924Z" fill="#0052B4"></path>
<path d="M39.3109 14.7826C37.0159 6.26727 29.2404 0 19.9999 0C19.4138 0 18.834 0.0267187 18.2607 0.0760937V14.7826H39.3109Z" fill="#0052B4"></path>
<path d="M7.82607 4.13232C4.39654 6.76748 1.84615 10.4888 0.688965 14.7825H7.82607V4.13232Z" fill="#0052B4"></path>
<path d="M39.8307 17.3913H15.6523H15.6522V0.475342C13.8039 0.885186 12.0516 1.54948 10.4348 2.43175V17.3912H0.169297C0.0579688 18.2452 0 19.1158 0 20C0 20.8841 0.0579688 21.7547 0.169297 22.6086H10.4347H10.4348V37.5681C12.0516 38.4503 13.8039 39.1147 15.6522 39.5245V22.6089V22.6087H39.8307C39.9419 21.7547 40 20.8841 40 20C40 19.1158 39.9419 18.2452 39.8307 17.3913Z" fill="#D80027"></path>
</g>
<defs>
<clipPath id="clip0_1_4582">
<rect width="40" height="40" fill="white"></rect>
</clipPath>
</defs>
</svg>