<svg width="40" height="40" viewBox="0 0 40 40" fill="none" xmlns="http://www.w3.org/2000/svg">
<g clip-path="url(#clip0_1_3884)">
<path d="M19.9998 40.0001C31.0454 40.0001 39.9998 31.0458 39.9998 20.0001C39.9998 8.9544 31.0454 9.15527e-05 19.9998 9.15527e-05C8.95406 9.15527e-05 -0.000244141 8.9544 -0.000244141 20.0001C-0.000244141 31.0458 8.95406 40.0001 19.9998 40.0001Z" fill="#F3F6F9"></path>
<path d="M19.9998 3.05176e-05C15.9861 3.05176e-05 12.2492 1.18323 9.11702 3.21862L14.2607 6.6662L7.82593 9.99948L14.2607 13.3328L7.82593 16.666L14.2607 19.9989L7.82593 23.3321L14.2607 26.6653L7.82593 29.9989L14.2607 33.3322L9.1164 36.7809C12.2487 38.8167 15.9859 40 19.9998 40C31.0455 40 39.9998 31.0457 39.9998 20C39.9998 8.9544 31.0455 3.05176e-05 19.9998 3.05176e-05V3.05176e-05Z" fill="#FB2727"></path>
</g>
<defs>
<clipPath id="clip0_1_3884">
<rect width="40" height="40" fill="white"></rect>
</clipPath>
</defs>
</svg>