<svg width="40" height="40" viewBox="0 0 40 40" fill="none" xmlns="http://www.w3.org/2000/svg">
<g clip-path="url(#clip0_1_3989)">
<path d="M20 39.9999C31.0457 39.9999 40 31.0456 40 19.9999C40 8.95418 31.0457 -0.00012207 20 -0.00012207C8.9543 -0.00012207 0 8.95418 0 19.9999C0 31.0456 8.9543 39.9999 20 39.9999Z" fill="#F3F6F9"></path>
<path d="M32.1779 4.133C25.0176 -1.37684 14.9826 -1.37684 7.82227 4.13292L20.0001 16.3107L32.1779 4.133Z" fill="#FB2727"></path>
<path d="M19.9999 23.6894L7.82227 35.867C14.9826 41.3769 25.0176 41.3769 32.1779 35.867L20.0001 23.6892L19.9999 23.6894Z" fill="#FB2727"></path>
<path d="M16.3106 20L4.13287 7.82214C-1.37697 14.9825 -1.37697 25.0175 4.13287 32.1778L16.3106 20Z" fill="#75BB42"></path>
<path d="M23.6892 20L35.8669 32.1778C41.3767 25.0175 41.3767 14.9825 35.8669 7.82214L23.6892 20Z" fill="#75BB42"></path>
<path d="M20.0001 28.6956C24.8025 28.6956 28.6957 24.8024 28.6957 19.9999C28.6957 15.1975 24.8025 11.3043 20.0001 11.3043C15.1976 11.3043 11.3044 15.1975 11.3044 19.9999C11.3044 24.8024 15.1976 28.6956 20.0001 28.6956Z" fill="#F3F6F9"></path>
<path d="M20.0001 13.9131L20.7532 15.2175H22.2593L21.5062 16.5218L22.2593 17.8261H20.7532L20.0001 19.1305L19.2471 17.8261H17.741L18.494 16.5218L17.741 15.2175H19.2471L20.0001 13.9131Z" fill="#FB2727"></path>
<path d="M16.1723 20.0001L16.9254 21.3045H18.4314L17.6784 22.6088L18.4314 23.9132H16.9254L16.1723 25.2175L15.4192 23.9132H13.9131L14.6661 22.6088L13.9131 21.3045H15.4192L16.1723 20.0001Z" fill="#FB2727"></path>
<path d="M23.8278 20.0001L24.5809 21.3045H26.087L25.3339 22.6088L26.087 23.9132H24.5809L23.8278 25.2175L23.0747 23.9132H21.5686L22.3217 22.6088L21.5686 21.3045H23.0747L23.8278 20.0001Z" fill="#FB2727"></path>
</g>
<defs>
<clipPath id="clip0_1_3989">
<rect width="40" height="40" fill="white"></rect>
</clipPath>
</defs>
</svg>