<svg width="40" height="40" viewBox="0 0 40 40" fill="none" xmlns="http://www.w3.org/2000/svg">
<g clip-path="url(#clip0_1_4562)">
<rect x="-14" y="-18" width="95" height="85" fill="white"></rect>
<path d="M12.2461 11.7971V22.8797C12.2461 28.7528 20.01 30.5522 20.01 30.5522C20.01 30.5522 27.7739 28.7528 27.7739 22.8797V11.7971H12.2461Z" fill="#1353B4"></path>
<rect x="12.2461" y="17.3386" width="15.5278" height="5.3586" fill="#CE0F25"></rect>
<path d="M7.77759 28.4126H11.4583C13.6649 30.5786 16.6852 31.9155 20.0188 31.9155C23.3524 31.9155 26.3727 30.5786 28.5793 28.4126H32.26V31.4966H28.5793C26.3727 33.6626 23.3524 34.9995 20.0188 34.9995C16.6852 34.9995 13.6649 33.6626 11.4583 31.4966H7.77759V28.4126Z" fill="#FFDA44"></path>
<path d="M22.1719 6.69922H23.4482V5.62891H27.7734V11.792H24.5186V11.7969H13.9453V11.792H12.2461V5.62891H16.5703V6.69922H17.8477V5H22.1719V6.69922Z" fill="#FFDA44"></path>
<path d="M18.7254 14.489L20.0011 16.5805L21.2768 14.489L20.0011 12.3975L18.7254 14.489Z" fill="#FFDA44"></path>
<path d="M23.8279 14.489L25.1035 16.5805L26.3792 14.489L25.1035 12.3975L23.8279 14.489Z" fill="#FFDA44"></path>
<path d="M14.8985 16.5805L13.6228 14.489L14.8985 12.3975L16.1741 14.489L14.8985 16.5805Z" fill="#FFDA44"></path>
<path d="M16.588 23.5032L17.9676 24.0746L18.539 25.4542L17.9676 26.8338L16.588 27.4052L15.2084 26.8338L14.637 25.4542L15.2084 24.0746L16.588 23.5032Z" fill="#FFDA44"></path>
<path d="M19.9874 25.4543L21.367 26.0258L21.9384 27.4054L21.367 28.785L19.9874 29.3564L18.6078 28.785L18.0364 27.4054L18.6078 26.0258L19.9874 25.4543Z" fill="#FFDA44"></path>
<path d="M23.3858 23.5032L24.7654 24.0746L25.3369 25.4542L24.7654 26.8338L23.3858 27.4052L22.0063 26.8338L21.4348 25.4542L22.0063 24.0746L23.3858 23.5032Z" fill="#FFDA44"></path>
<rect x="19.9785" y="18.3425" width="2.39159" height="2.39159" transform="rotate(45 19.9785 18.3425)" fill="white"></rect>
<path d="M28.9726 26.5021C30.1725 24.3962 30.8747 21.846 30.8747 19.098C30.8747 16.6639 30.3238 14.3849 29.3641 12.4326L33.0002 6.13462C34.5671 7.03928 35.0493 9.13726 34.1447 10.7041L34.1993 10.6096C35.7662 11.5143 36.303 13.5177 35.3983 15.0846C36.9653 15.9893 37.5021 17.9927 36.5974 19.5596L33.3215 25.2337C32.4409 26.7589 30.5194 27.3081 28.9726 26.5021Z" fill="#F0F0F0"></path>
<path d="M11.0638 26.5022C9.51712 27.3079 7.59589 26.7587 6.71541 25.2336L3.43948 19.5596C2.53481 17.9926 3.07162 15.9892 4.63855 15.0845C3.73388 13.5176 4.2707 11.5142 5.83763 10.6095L5.89222 10.7041C4.98763 9.13729 5.46977 7.03919 7.0367 6.13452L10.6726 12.432C9.71268 14.3845 9.16162 16.6636 9.16162 19.098C9.16162 21.8461 9.86388 24.3964 11.0638 26.5022Z" fill="#F0F0F0"></path>
</g>
<defs>
<clipPath id="clip0_1_4562">
<rect width="40" height="40" rx="20" fill="white"></rect>
</clipPath>
</defs>
</svg>