<svg width="40" height="40" viewBox="0 0 40 40" fill="none" xmlns="http://www.w3.org/2000/svg">
<g clip-path="url(#clip0_1_4199)">
<path d="M40 20C40 31.0456 31.0456 40 20 40C8.95437 40 0 31.0456 0 20C0 20.0048 20 0.0021875 20 0C31.0456 0 40 8.95437 40 20Z" fill="#D80027"></path>
<path d="M20.0004 9.56519V16.3107L13.0439 9.56519H20.0004Z" fill="#0052B4"></path>
<path d="M10.435 19.9999H16.3108L10.435 12.1738L9.56543 18.2608L10.435 19.9999Z" fill="#0052B4"></path>
<path d="M19.9463 20H19.9998C19.9998 19.9821 19.9998 19.9646 19.9998 19.9465C19.982 19.9644 19.9642 19.9822 19.9463 20Z" fill="#F0F0F0"></path>
<path d="M20 10.4348C20 6.91563 20 4.60977 20 0H19.9966C8.95242 0.001875 0 8.95539 0 20H10.4348V14.1241L16.3106 20H19.9466C19.9644 19.9822 19.9822 19.9644 20.0001 19.9465C20.0001 18.5991 20.0001 17.3968 20.0001 16.3108L14.1241 10.4348H20Z" fill="#F3F6F9"></path>
<path d="M10.1186 2.60864C6.99053 4.38981 4.38998 6.99028 2.60889 10.1183V20.8695H7.82631V7.82622V7.82607H20.8697C20.8697 6.18052 20.8697 4.61286 20.8697 2.60864H10.1186Z" fill="#D80027"></path>
<path d="M20.7954 18.3355L12.8944 10.4348H10.4351V10.435L20.7951 20.795H20.7953C20.7954 20.7951 20.7954 19.0993 20.7954 18.3355Z" fill="#D80027"></path>
<path d="M22.6089 10.4348V20C22.6089 24.6593 34.7828 24.6593 34.7828 20V10.4348H22.6089Z" fill="#F3F6F9"></path>
<path d="M22.6089 20.0001V20C22.6089 24.6594 28.6958 26.087 28.6958 26.087C28.6958 26.087 34.7828 24.6594 34.7828 20V20.0001H22.6089Z" fill="#6DA544"></path>
<path d="M28.6957 16.1738L25.8696 17.3912V19.9999L28.6957 21.7391L31.5218 19.9999V17.3912L28.6957 16.1738Z" fill="#A2001D"></path>
<path d="M25.8696 14.7825H31.5218V17.3911H25.8696V14.7825Z" fill="#338AF3"></path>
</g>
<defs>
<clipPath id="clip0_1_4199">
<rect width="40" height="40" fill="white"></rect>
</clipPath>
</defs>
</svg>