<svg width="40" height="40" viewBox="0 0 40 40" fill="none" xmlns="http://www.w3.org/2000/svg">
<g clip-path="url(#clip0_1_4456)">
<path d="M20 40C31.0457 40 40 31.0457 40 20C40 8.9543 31.0457 0 20 0C8.9543 0 0 8.9543 0 20C0 31.0457 8.9543 40 20 40Z" fill="#F3F6F9"></path>
<path d="M5.85775 5.85769C1.57142 10.144 -0.361936 15.892 0.0562674 21.4971L21.4971 0.0562864C15.892 -0.361995 10.1441 1.57136 5.85775 5.85769Z" fill="#FFDA44"></path>
<path d="M7.1416 35.318C14.9995 41.9291 26.7463 41.5381 34.1424 34.1421C41.5385 26.746 41.9295 14.9992 35.3183 7.14136L7.1416 35.318Z" fill="#0052B4"></path>
<path d="M19.9288 19.1945L21.6523 18.2609L19.9288 17.3274C19.5263 14.7132 17.4609 12.6477 14.8467 12.2453L13.913 10.5217L12.9795 12.2452C10.3654 12.6476 8.29992 14.7131 7.89742 17.3273L6.17383 18.2609L7.89734 19.1945C8.29977 21.8087 10.3652 23.8742 12.9794 24.2766L13.913 26.0002L14.8466 24.2766C17.4609 23.8742 19.5263 21.8087 19.9288 19.1945ZM13.9131 21.7392C11.9921 21.7392 10.4348 20.182 10.4348 18.2609C10.4348 16.3399 11.992 14.7827 13.9131 14.7827C15.8342 14.7827 17.3914 16.3399 17.3914 18.2609C17.3914 20.182 15.8341 21.7392 13.9131 21.7392Z" fill="black"></path>
<path d="M13.913 15.6521L14.666 16.9564H16.1722L15.419 18.2608L16.1722 19.5651H14.666L13.913 20.8694L13.1599 19.5651H11.6538L12.4069 18.2608L11.6538 16.9564H13.1599L13.913 15.6521Z" fill="#D80027"></path>
</g>
<defs>
<clipPath id="clip0_1_4456">
<rect width="40" height="40" fill="white"></rect>
</clipPath>
</defs>
</svg>