<svg width="40" height="40" viewBox="0 0 40 40" fill="none" xmlns="http://www.w3.org/2000/svg">
<g clip-path="url(#clip0_3546_142850)">
<path d="M19.9997 40C31.0454 40 39.9997 31.0457 39.9997 20C39.9997 8.9543 31.0454 0 19.9997 0C8.95402 0 -0.000289917 8.9543 -0.000289917 20C-0.000289917 31.0457 8.95402 40 19.9997 40Z" fill="#75BB42"></path>
<path d="M19.9999 7.82617L36.5216 20.0001L19.9999 32.174L3.47817 20.0001L19.9999 7.82617Z" fill="#FFDA44"></path>
<path d="M19.9999 26.9564C23.8419 26.9564 26.9564 23.8419 26.9564 19.9999C26.9564 16.158 23.8419 13.0435 19.9999 13.0435C16.158 13.0435 13.0434 16.158 13.0434 19.9999C13.0434 23.8419 16.158 26.9564 19.9999 26.9564Z" fill="#F3F6F9"></path>
<path d="M16.5216 19.5654C15.3119 19.5654 14.1445 19.7494 13.0456 20.0908C13.0943 23.8908 16.1883 26.9568 19.9999 26.9568C22.3568 26.9568 24.4383 25.7836 25.6967 23.9905C23.5438 21.2954 20.2312 19.5654 16.5216 19.5654Z" fill="#0073FD"></path>
<path d="M26.8275 21.3328C26.9112 20.9012 26.9565 20.456 26.9565 19.9999C26.9565 16.1579 23.8419 13.0435 20 13.0435C17.1333 13.0435 14.6723 14.7779 13.6073 17.2543C14.5487 17.0592 15.5234 16.9565 16.5218 16.9565C20.5622 16.9564 24.2173 18.636 26.8275 21.3328Z" fill="#0073FD"></path>
</g>
<defs>
<clipPath id="clip0_3546_142850">
<rect width="40" height="40" fill="white"></rect>
</clipPath>
</defs>
</svg>