<svg width="40" height="40" viewBox="0 0 40 40" fill="none" xmlns="http://www.w3.org/2000/svg">
<g clip-path="url(#clip0_3546_142799)">
<path d="M19.9997 40C31.0454 40 39.9997 31.0457 39.9997 20C39.9997 8.95431 31.0454 0 19.9997 0C8.95402 0 -0.000289917 8.95431 -0.000289917 20C-0.000289917 31.0457 8.95402 40 19.9997 40Z" fill="#F3F6F9"></path>
<path d="M39.9999 19.9998C39.9999 12.0706 35.3854 5.21937 28.6955 1.98438V38.0152C35.3854 34.7803 39.9999 27.9291 39.9999 19.9998Z" fill="#FB2727"></path>
<path d="M-3.05176e-05 19.9998C-3.05176e-05 27.9291 4.61442 34.7803 11.3043 38.0153V1.98438C4.61442 5.21937 -3.05176e-05 12.0706 -3.05176e-05 19.9998Z" fill="#FB2727"></path>
<path d="M23.4782 22.6087L26.9564 20.8696L25.2173 20V18.2609L21.739 20L23.4782 16.5218H21.739L19.9999 13.9131L18.2607 16.5218H16.5216L18.2607 20L14.7825 18.2609V20L13.0434 20.8696L16.5216 22.6087L15.6521 24.3478H19.1303V26.9565H20.8694V24.3478H24.3477L23.4782 22.6087Z" fill="#FB2727"></path>
</g>
<defs>
<clipPath id="clip0_3546_142799">
<rect width="40" height="40" fill="white"></rect>
</clipPath>
</defs>
</svg>