<svg width="40" height="40" viewBox="0 0 40 40" fill="none" xmlns="http://www.w3.org/2000/svg">
<g clip-path="url(#clip0_1_4640)">
<path d="M20 40C31.0457 40 40 31.0457 40 20C40 8.9543 31.0457 0 20 0C8.9543 0 0 8.9543 0 20C0 31.0457 8.9543 40 20 40Z" fill="#6DA544"></path>
<path d="M30.7017 28.6956L31.2505 29.8431L32.4899 29.5567L31.9349 30.7013L32.9315 31.4917L31.6906 31.7713L31.6941 33.0434L30.7017 32.2476L29.7093 33.0434L29.7128 31.7713L28.4719 31.4917L29.4686 30.7013L28.9136 29.5567L30.1529 29.8431L30.7017 28.6956Z" fill="#FFDA44"></path>
<path d="M25.5962 16.5217L26.1451 17.6693L27.3845 17.3828L26.8294 18.5275L27.8261 19.3178L26.5852 19.5975L26.5886 20.8695L25.5962 20.0738L24.6039 20.8695L24.6072 19.5975L23.3665 19.3178L24.3631 18.5275L23.808 17.3828L25.0475 17.6693L25.5962 16.5217Z" fill="#FFDA44"></path>
<path d="M30.7019 9.56519L31.2507 10.7128L32.4901 10.4262L31.9351 11.5709L32.9317 12.3613L31.6908 12.6409L31.6941 13.913L30.7019 13.1171L29.7095 13.913L29.7129 12.6409L28.4722 12.3613L29.4687 11.5709L28.9137 10.4262L30.153 10.7128L30.7019 9.56519Z" fill="#FFDA44"></path>
<path d="M35.1614 14.7825L35.7102 15.93L36.9497 15.6436L36.3946 16.7883L37.3913 17.5786L36.1504 17.8583L36.1538 19.1304L35.1614 18.3345L34.1691 19.1304L34.1724 17.8583L32.9316 17.5786L33.9283 16.7883L33.3732 15.6436L34.6126 15.93L35.1614 14.7825Z" fill="#FFDA44"></path>
<path d="M31.9724 20.8694L32.4042 22.1981H33.8011L32.6709 23.0192L33.1027 24.3477L31.9724 23.5267L30.8423 24.3477L31.274 23.0192L30.1438 22.1981H31.5408L31.9724 20.8694Z" fill="#FFDA44"></path>
<path d="M22.1737 25.6522C19.052 25.6522 16.5214 23.1216 16.5214 20C16.5214 16.8785 19.052 14.3478 22.1737 14.3478C23.147 14.3478 24.0628 14.594 24.8624 15.0272C23.6081 13.8005 21.8928 13.0435 19.9996 13.0435C16.1577 13.0435 13.0432 16.158 13.0432 19.9999C13.0432 23.8419 16.1577 26.9564 19.9996 26.9564C21.8927 26.9564 23.6081 26.1994 24.8623 24.9727C24.0628 25.406 23.147 25.6522 22.1737 25.6522Z" fill="#FFDA44"></path>
<path d="M12.5768 7.82605C11.9753 6.78668 10.8522 6.08691 9.56502 6.08691C8.27783 6.08691 7.15479 6.78668 6.55322 7.82605H12.5768Z" fill="#FFDA44"></path>
<path d="M12.5885 7.84619L9.56512 10.8696L6.54176 7.84619C6.25277 8.3533 6.08691 8.93979 6.08691 9.56525C6.08691 11.4863 7.64418 13.0435 9.5652 13.0435C11.4862 13.0435 13.0435 11.4863 13.0435 9.56525C13.0434 8.93979 12.8775 8.3533 12.5885 7.84619Z" fill="#FFDA44"></path>
<path d="M8.69556 10V12.9339C8.97345 13.0054 9.26485 13.0434 9.56509 13.0434C9.86532 13.0434 10.1567 13.0053 10.4346 12.9339V10H8.69556Z" fill="#A2001D"></path>
</g>
<defs>
<clipPath id="clip0_1_4640">
<rect width="40" height="40" fill="white"></rect>
</clipPath>
</defs>
</svg>