<svg width="40" height="40" viewBox="0 0 40 40" fill="none" xmlns="http://www.w3.org/2000/svg">
<g clip-path="url(#clip0_1_3755)">
<path d="M20 40C31.0457 40 40 31.0457 40 20C40 8.9543 31.0457 0 20 0C8.9543 0 0 8.9543 0 20C0 31.0457 8.9543 40 20 40Z" fill="#F3F6F9"></path>
<path d="M37.5682 10.4347C34.9838 5.6981 30.5399 2.1224 25.2174 0.687866L24.3479 10.4347H37.5682Z" fill="#0052B4"></path>
<path d="M2.43188 10.4347H15.6522L14.7827 0.687866C9.46024 2.1224 5.01634 5.69818 2.43188 10.4347Z" fill="#0052B4"></path>
<path d="M24.3479 20V29.5652H37.5682C39.1186 26.7238 40.0001 23.4648 40.0001 20H24.3479Z" fill="#6DA544"></path>
<path d="M15.6522 20H0C0 23.4648 0.881484 26.7238 2.4318 29.5652H15.6521V20H15.6522Z" fill="#6DA544"></path>
<path d="M2.43188 29.5652C5.01634 34.3019 9.46024 37.8776 14.7827 39.3121L15.6522 30.788L2.43188 29.5652Z" fill="#FFDA44"></path>
<path d="M25.2174 39.3121C30.5399 37.8776 34.9838 34.3019 37.5682 29.5652L24.3479 30.7878L25.2174 39.3121Z" fill="#FFDA44"></path>
<path d="M24.3479 30.7878L37.5683 29.5652H24.3479V30.7878Z" fill="#FFDA44"></path>
<path d="M15.6523 29.5652H2.43188L15.6523 30.7878V29.5652Z" fill="#FFDA44"></path>
<path d="M19.9999 0C18.1947 0 16.4461 0.240625 14.7825 0.688984V39.3111C16.4461 39.7594 18.1947 40 19.9999 40C21.8051 40 23.5537 39.7594 25.2173 39.311V0.688984C23.5537 0.240625 21.8051 0 19.9999 0V0Z" fill="#D80027"></path>
<path d="M10.7575 4.34784L11.2971 6.00854H13.0434L11.6308 7.03495L12.1704 8.69565L10.7575 7.66932L9.34481 8.69565L9.88458 7.03495L8.47192 6.00854H10.2181L10.7575 4.34784Z" fill="#FFDA44"></path>
</g>
<defs>
<clipPath id="clip0_1_3755">
<rect width="40" height="40" fill="white"></rect>
</clipPath>
</defs>
</svg>