<svg width="40" height="40" viewBox="0 0 40 40" fill="none" xmlns="http://www.w3.org/2000/svg">
<g clip-path="url(#clip0_1_4380)">
<path d="M40 20C40 31.0456 31.0456 40 20 40C8.95437 40 0 31.0456 0 20C0 20.0048 20 0.0021875 20 0C31.0456 0 40 8.95437 40 20Z" fill="#0052B4"></path>
<path d="M19.9463 20H19.9998C19.9998 19.9821 19.9998 19.9646 19.9998 19.9465C19.982 19.9644 19.9642 19.9822 19.9463 20Z" fill="#F3F6F9"></path>
<path d="M20 10.4348C20 6.91563 20 4.60977 20 0H19.9966C8.95242 0.001875 0 8.95539 0 20H10.4348V14.1241L16.3106 20H19.9466C19.9644 19.9822 19.9822 19.9644 20.0001 19.9465C20.0001 18.5991 20.0001 17.3968 20.0001 16.3108L14.1241 10.4348H20Z" fill="#F3F6F9"></path>
<path d="M10.1186 2.60864C6.99053 4.38981 4.38998 6.99028 2.60889 10.1183V20H7.82631V7.82622V7.82607H20.0002C20.0002 6.18052 20.0002 4.61286 20.0002 2.60864H10.1186Z" fill="#D80027"></path>
<path d="M20.0003 17.5405L12.8944 10.4348H10.4351V10.435L20.0001 20H20.0003C20.0003 20 20.0003 18.3041 20.0003 17.5405Z" fill="#D80027"></path>
<path d="M26.9564 20L27.3266 21.1387H28.5238L27.5553 21.8425L27.9253 22.9813L26.9564 22.2775L25.9878 22.9813L26.3578 21.8425L25.3892 21.1387H26.5864L26.9564 20Z" fill="#F3F6F9"></path>
<path d="M22.0375 22.0375L23.1043 22.581L23.951 21.7344L23.7637 22.917L24.8305 23.4606L23.6479 23.6478L23.4606 24.8306L22.917 23.7637L21.7344 23.951L22.5812 23.1044L22.0375 22.0375Z" fill="#F3F6F9"></path>
<path d="M20 26.9566L21.1387 26.5866L21.1389 25.3894L21.8425 26.3579L22.9813 25.9878L22.2775 26.9566L22.9813 27.9254L21.8425 27.5554L21.1389 28.524V27.3267L20 26.9566Z" fill="#F3F6F9"></path>
<path d="M22.0375 31.8756L22.581 30.8087L21.7344 29.9621L22.917 30.1494L23.4606 29.0825L23.6479 30.2652L24.8305 30.4524L23.7637 30.996L23.951 32.1788L23.1043 31.3319L22.0375 31.8756Z" fill="#F3F6F9"></path>
<path d="M26.9565 33.913L26.5865 32.7741H25.3892L26.3578 32.0704L25.9878 30.9316L26.9565 31.6354L27.9253 30.9316L27.5553 32.0704L28.5239 32.7741H27.3267L26.9565 33.913Z" fill="#F3F6F9"></path>
<path d="M31.8756 31.8756L30.8087 31.3321L29.9621 32.1788L30.1494 30.996L29.0825 30.4525L30.2652 30.2652L30.4525 29.0825L30.996 30.1494L32.1787 29.9621L31.3319 30.8088L31.8756 31.8756Z" fill="#F3F6F9"></path>
<path d="M33.913 26.9566L32.7741 27.3267V28.524L32.0704 27.5553L30.9316 27.9254L31.6355 26.9566L30.9316 25.9878L32.0704 26.3579L32.7741 25.3894V26.5866L33.913 26.9566Z" fill="#F3F6F9"></path>
<path d="M31.8756 22.0377L31.3321 23.1045L32.1787 23.9512L30.996 23.7638L30.4525 24.8308L30.2652 23.648L29.0825 23.4607L30.1494 22.9172L29.9621 21.7346L30.8088 22.5812L31.8756 22.0377Z" fill="#F3F6F9"></path>
</g>
<defs>
<clipPath id="clip0_1_4380">
<rect width="40" height="40" fill="white"></rect>
</clipPath>
</defs>
</svg>