<svg width="40" height="40" viewBox="0 0 40 40" fill="none" xmlns="http://www.w3.org/2000/svg">
<g clip-path="url(#clip0_3546_142773)">
<path d="M20 40C31.0457 40 40 31.0457 40 20C40 8.95431 31.0457 0 20 0C8.9543 0 0 8.95431 0 20C0 31.0457 8.9543 40 20 40Z" fill="#F3F6F9"></path>
<path d="M40 20C40 31.0456 31.0456 40 20 40C8.95437 40 0 31.0456 0 20C0 8.95436 20 20 20 20C20 20 35.1376 20 40 20Z" fill="#FB2727"></path>
<path d="M0 20C0 8.95437 8.95437 0 20 0V20C20 20 6.95648 20 0 20Z" fill="#0073FD"></path>
<path d="M11.9054 6.95654L13.2004 10.9423H17.3913L14.0008 13.4056L15.2958 17.3914L11.9054 14.928L8.51489 17.3914L9.80989 13.4056L6.41942 10.9423H10.6103L11.9054 6.95654Z" fill="#F3F6F9"></path>
</g>
<defs>
<clipPath id="clip0_3546_142773">
<rect width="40" height="40" fill="white"></rect>
</clipPath>
</defs>
</svg>