<svg width="40" height="40" viewBox="0 0 40 40" fill="none" xmlns="http://www.w3.org/2000/svg">
<g clip-path="url(#clip0_3546_142978)">
<path d="M19.9998 40C31.0455 40 39.9998 31.0457 39.9998 20C39.9998 8.9543 31.0455 0 19.9998 0C8.95407 0 -0.000236511 8.9543 -0.000236511 20C-0.000236511 31.0457 8.95407 40 19.9998 40Z" fill="#FB2727"></path>
<path d="M10.9453 12.1719L12.6719 17.4844H18.2578L13.7422 20.7734L15.4688 26.0859L10.9453 22.8047L6.42191 26.0859L8.15628 20.7734L3.63284 17.4844H9.21878L10.9453 12.1719Z" fill="#FFDA44"></path>
<path d="M23.711 30.9766L22.3907 29.3516L20.4376 30.1094L21.5704 28.3516L20.2501 26.7188L22.2735 27.2578L23.4141 25.5L23.5235 27.5938L25.5547 28.1328L23.5938 28.8828L23.711 30.9766Z" fill="#FFDA44"></path>
<path d="M26.336 26.2109L26.961 24.2109L25.25 23L27.3438 22.9688L27.961 20.9688L28.6407 22.9531L30.7344 22.9297L29.0547 24.1797L29.7266 26.1641L28.0157 24.9531L26.336 26.2109Z" fill="#FFDA44"></path>
<path d="M29.8751 14.6797L28.9532 16.5625L30.4532 18.0234L28.3829 17.7266L27.461 19.6016L27.1017 17.5391L25.0235 17.2422L26.8829 16.2656L26.5235 14.1953L28.0235 15.6562L29.8751 14.6797Z" fill="#FFDA44"></path>
<path d="M23.7657 8.97656L23.6094 11.0625L25.5548 11.8516L23.5157 12.3516L23.3673 14.4453L22.2657 12.6641L20.2266 13.1641L21.5782 11.5625L20.4688 9.78906L22.4141 10.5781L23.7657 8.97656Z" fill="#FFDA44"></path>
</g>
<defs>
<clipPath id="clip0_3546_142978">
<rect width="40" height="40" fill="white"></rect>
</clipPath>
</defs>
</svg>