<svg width="40" height="40" viewBox="0 0 40 40" fill="none" xmlns="http://www.w3.org/2000/svg">
<g clip-path="url(#clip0_1_4436)">
<path d="M20 40C31.0457 40 40 31.0457 40 20C40 8.9543 31.0457 0 20 0C8.9543 0 0 8.9543 0 20C0 31.0457 8.9543 40 20 40Z" fill="#FFDA44"></path>
<path d="M19.9998 39.9999C26.5623 39.9999 32.3865 36.8391 36.0333 31.957H3.96631C7.61318 36.8391 13.4373 39.9999 19.9998 39.9999Z" fill="#0052B4"></path>
<path d="M40 20C40 8.95437 31.0456 0 20 0C8.95437 0 0 8.95437 0 20C0 22.3651 0.411641 24.6338 1.16531 26.7398H38.8346C39.5884 24.6338 40 22.3651 40 20Z" fill="#0052B4"></path>
<path d="M13.6892 12.8267L14.7683 16.1479H18.2608L15.4354 18.2009L16.5146 21.5223L13.6892 19.4695L10.8638 21.5223L11.9431 18.2009L9.11768 16.1479H12.61L13.6892 12.8267Z" fill="#F3F6F9"></path>
<path d="M7.69154 9.34839L8.33904 11.3412H10.4346L8.73936 12.5729L9.38686 14.5658L7.69154 13.3341L5.99631 14.5658L6.64389 12.5729L4.94873 11.3412H7.0442L7.69154 9.34839Z" fill="#F3F6F9"></path>
</g>
<defs>
<clipPath id="clip0_1_4436">
<rect width="40" height="40" fill="white"></rect>
</clipPath>
</defs>
</svg>