<svg width="40" height="40" viewBox="0 0 40 40" fill="none" xmlns="http://www.w3.org/2000/svg">
<g clip-path="url(#clip0_1_4627)">
<path d="M34.1422 34.1422C26.3317 41.9527 13.6684 41.9527 5.85787 34.1422C-1.95266 26.3318 -1.95258 13.6684 5.85787 5.85791C6.47271 6.47267 21.8446 18.1554 21.8446 18.1554L34.1422 34.1422Z" fill="#0052B4"></path>
<path d="M5.85791 5.85784C13.6684 -1.95261 26.3317 -1.95261 34.1422 5.85784C41.9528 13.6683 41.9527 26.3316 34.1422 34.1422" fill="#6DA544"></path>
<path d="M19.9999 25.2173C22.8814 25.2173 25.2173 22.8814 25.2173 19.9999C25.2173 17.1184 22.8814 14.7825 19.9999 14.7825C17.1184 14.7825 14.7825 17.1184 14.7825 19.9999C14.7825 22.8814 17.1184 25.2173 19.9999 25.2173Z" fill="#FFDA44"></path>
<path d="M7.44737 28.6958L7.9962 29.8434L9.23549 29.5569L8.68049 30.7015L9.67721 31.4919L8.43627 31.7715L8.43971 33.0436L7.44737 32.2477L6.45503 33.0436L6.45846 31.7715L5.21753 31.4919L6.21425 30.7015L5.65917 29.5569L6.89854 29.8434L7.44737 28.6958Z" fill="#F3F6F9"></path>
<path d="M3.8572 19.1306L4.40603 20.2782L5.64532 19.9916L5.0904 21.1363L6.08696 21.9267L4.84611 22.2063L4.84955 23.4784L3.8572 22.6826L2.86494 23.4784L2.8683 22.2063L1.62744 21.9267L2.62408 21.1363L2.06908 19.9916L3.30838 20.2782L3.8572 19.1306Z" fill="#F3F6F9"></path>
<path d="M7.44729 11.3044L7.99612 12.452L9.23541 12.1655L8.68049 13.3101L9.67713 14.1005L8.4362 14.3801L8.43963 15.6522L7.44729 14.8565L6.45495 15.6522L6.45839 14.3801L5.21753 14.1005L6.21409 13.3101L5.65909 12.1655L6.89846 12.452L7.44729 11.3044Z" fill="#F3F6F9"></path>
<path d="M11.9068 17.3914L12.4556 18.5389L13.695 18.2524L13.1399 19.3971L14.1365 20.1874L12.8957 20.4671L12.899 21.7392L11.9068 20.9434L10.9144 21.7392L10.9179 20.4671L9.677 20.1874L10.6736 19.3971L10.1186 18.2524L11.3579 18.5389L11.9068 17.3914Z" fill="#F3F6F9"></path>
<path d="M8.71799 22.6089L9.14971 23.9375H10.5466L9.41643 24.7586L9.84815 26.0871L8.71799 25.2661L7.58784 26.0871L8.01956 24.7586L6.8894 23.9375H8.28628L8.71799 22.6089Z" fill="#F3F6F9"></path>
<path d="M19.9998 23.4783H21.739C21.739 23.4783 22.4926 22.1451 21.739 20.8696L23.4781 19.1305L22.6086 17.3914H21.7391C21.7391 17.3914 21.3043 18.6957 19.5652 18.6957C17.826 18.6957 17.3913 17.3914 17.3913 17.3914H16.5217L17.3913 19.1305L16.5217 20.8696L17.3913 21.7392C17.3913 21.7392 18.2608 20 19.9999 20.8696C19.9999 20.8696 20.739 21.9566 19.9998 23.4783Z" fill="#6DA544"></path>
<path d="M32.9806 10.9549C33.0216 10.7412 33.0434 10.5208 33.0434 10.2952C33.0434 8.74835 32.0334 7.43811 30.6371 6.98608C31.0638 7.85327 31.3042 8.82858 31.3042 9.86045C31.3042 10.2084 31.2763 10.5498 31.2237 10.883C31.0135 10.5445 30.7436 10.2352 30.4138 9.9728C29.1716 8.98436 27.474 8.95819 26.2189 9.79061C27.1879 10.0022 28.1248 10.4322 28.9534 11.0915C29.6022 11.6078 30.1264 12.3061 30.5278 12.9801L25.2173 14.643C30.4347 15.5126 34.7825 12.0344 34.7825 12.0344C34.3007 11.0709 33.5526 10.9084 32.9806 10.9549Z" fill="#FFDA44"></path>
</g>
<defs>
<clipPath id="clip0_1_4627">
<rect width="40" height="40" fill="white"></rect>
</clipPath>
</defs>
</svg>