<svg width="40" height="40" viewBox="0 0 40 40" fill="none" xmlns="http://www.w3.org/2000/svg">
<g clip-path="url(#clip0_3546_142571)">
<path d="M1.24402 26.9563C4.06988 34.5723 11.4007 39.9999 20 39.9999C28.5993 39.9999 35.9302 34.5723 38.756 26.9563L20 25.2173L1.24402 26.9563Z" fill="#FFDA44"></path>
<path d="M20 0C11.4007 0 4.06988 5.4275 1.24402 13.0435L20 14.7826L38.756 13.0434C35.9302 5.4275 28.5993 0 20 0Z" fill="black"></path>
<path d="M1.24398 13.0435C0.440078 15.2101 0 17.5535 0 19.9999C0 22.4463 0.440078 24.7898 1.24398 26.9564H38.7561C39.56 24.7898 40 22.4463 40 19.9999C40 17.5535 39.56 15.2101 38.756 13.0435H1.24398Z" fill="#FB2727"></path>
</g>
<defs>
<clipPath id="clip0_3546_142571">
<rect width="40" height="40" fill="white"></rect>
</clipPath>
</defs>
</svg>