<svg width="40" height="40" viewBox="0 0 40 40" fill="none" xmlns="http://www.w3.org/2000/svg">
<g clip-path="url(#clip0_1_3702)">
<path d="M18.2607 21.7392C18.2607 21.7392 5.86938 5.85511 5.85767 5.85792C9.47689 2.23862 14.477 3.05176e-05 19.9999 3.05176e-05C31.0455 3.05176e-05 39.9999 8.9544 39.9999 20L18.2607 21.7392Z" fill="#338AF3"></path>
<path d="M18.2607 20C18.2607 20 5.86938 34.1449 5.85767 34.1421C9.47689 37.7614 14.477 40 19.9999 40C31.0455 40 39.9999 31.0456 39.9999 20H18.2607Z" fill="#75BB42"></path>
<path d="M5.85785 5.85785C-1.95262 13.6683 -1.95262 26.3317 5.85785 34.1422C9.08543 30.9146 12.1896 27.8105 20 20L5.85785 5.85785Z" fill="#F3F6F9"></path>
<path d="M8.0945 14.7826L9.38942 18.7682H13.5805L10.19 21.2317L11.4849 25.2174L8.0945 22.7541L4.70395 25.2174L5.99911 21.2317L2.60864 18.7682H6.79942L8.0945 14.7826Z" fill="#FB2727"></path>
</g>
<defs>
<clipPath id="clip0_1_3702">
<rect width="40" height="40" fill="white"></rect>
</clipPath>
</defs>
</svg>