<svg width="40" height="40" viewBox="0 0 40 40" fill="none" xmlns="http://www.w3.org/2000/svg">
<g clip-path="url(#clip0_3546_142702)">
<path d="M20 40C31.0457 40 40 31.0457 40 20C40 8.9543 31.0457 0 20 0C8.9543 0 0 8.9543 0 20C0 31.0457 8.9543 40 20 40Z" fill="#F3F6F9"></path>
<path d="M15.6523 17.3913H39.8307C38.5524 7.57828 30.1615 0 20 0C18.5067 0 17.0522 0.165078 15.6522 0.475391V17.3913H15.6523Z" fill="#FB2727"></path>
<path d="M10.4348 17.3913V2.43188C4.94314 5.42829 1.01173 10.9245 0.169312 17.3914H10.4348V17.3913Z" fill="#FB2727"></path>
<path d="M10.4347 22.6086H0.169312C1.01173 29.0756 4.94314 34.5718 10.4348 37.5681L10.4347 22.6086Z" fill="#FB2727"></path>
<path d="M15.6522 22.6087V39.5246C17.0522 39.8349 18.5067 40 20 40C30.1615 40 38.5524 32.4217 39.8307 22.6086H15.6522V22.6087Z" fill="#FB2727"></path>
</g>
<defs>
<clipPath id="clip0_3546_142702">
<rect width="40" height="40" fill="white"></rect>
</clipPath>
</defs>
</svg>