<svg width="40" height="40" viewBox="0 0 40 40" fill="none" xmlns="http://www.w3.org/2000/svg">
<g clip-path="url(#clip0_1_2435)">
<path d="M1.98453 11.3044C0.713125 13.9338 0 16.8835 0 20C0 23.1165 0.713125 26.0663 1.98453 28.6956L20 30.4348L38.0155 28.6956C39.2869 26.0663 40 23.1165 40 20C40 16.8835 39.2869 13.9338 38.0155 11.3044L20 9.56525L1.98453 11.3044Z" fill="#F3F6F9"></path>
<path d="M1.98535 28.6956C5.2202 35.3855 12.071 40 20.0001 40C27.9293 40 34.78 35.3855 38.0149 28.6956H1.98535Z" fill="#75BB42"></path>
<path d="M1.98535 11.3044H38.0149C34.78 4.61445 27.9293 0 20.0001 0C12.0709 0 5.2202 4.61445 1.98535 11.3044Z" fill="black"></path>
<path d="M5.85785 5.85782C-1.95262 13.6683 -1.95262 26.3316 5.85785 34.1422C9.08543 30.9146 12.1896 27.8105 20 20L5.85785 5.85782Z" fill="#D80027"></path>
<path d="M25.2171 20C25.2171 17.0861 27.265 14.6518 29.9997 14.0546C29.5794 13.9628 29.1433 13.9131 28.6954 13.9131C25.3336 13.9131 22.6084 16.6382 22.6084 20C22.6084 23.3618 25.3336 26.087 28.6954 26.087C29.1432 26.087 29.5793 26.0372 29.9997 25.9454C27.265 25.3482 25.2171 22.9139 25.2171 20Z" fill="#D80027"></path>
<path d="M30.2558 16.0869L31.1193 18.7443H33.9132L31.6529 20.3863L32.5163 23.0435L30.2558 21.4013L27.9956 23.0435L28.8591 20.3863L26.5986 18.7443H29.3925L30.2558 16.0869Z" fill="#D80027"></path>
</g>
<defs>
<clipPath id="clip0_1_2435">
<rect width="40" height="40" fill="white"></rect>
</clipPath>
</defs>
</svg>