<svg width="40" height="40" viewBox="0 0 40 40" fill="none" xmlns="http://www.w3.org/2000/svg">
<g clip-path="url(#clip0_3546_141904)">
<path d="M0 19.9998C0 22.4462 0.440078 24.7897 1.24398 26.9563L20 28.6954L38.756 26.9563C39.5599 24.7897 40 22.4462 40 19.9998C40 17.5534 39.5599 15.21 38.756 13.0433L20 11.3042L1.24398 13.0433C0.440078 15.21 0 17.5534 0 19.9998H0Z" fill="#FFDA44"></path>
<path d="M38.7559 13.0435C35.9301 5.42758 28.5992 0 19.9999 0C11.4006 0 4.06976 5.42758 1.2439 13.0435H38.7559Z" fill="#FB2727"></path>
<path d="M1.2439 26.9565C4.06976 34.5725 11.4006 40.0001 19.9999 40.0001C28.5992 40.0001 35.9301 34.5725 38.7559 26.9565H1.2439Z" fill="#FB2727"></path>
</g>
<defs>
<clipPath id="clip0_3546_141904">
<rect width="40" height="40" fill="white"></rect>
</clipPath>
</defs>
</svg>