<svg width="36" height="36" viewBox="0 0 36 36" fill="none" xmlns="http://www.w3.org/2000/svg">
<g clip-path="url(#clip0_3546_142999)">
<path d="M18 36C27.9411 36 36 27.9411 36 18C36 8.05887 27.9411 0 18 0C8.05887 0 0 8.05887 0 18C0 27.9411 8.05887 36 18 36Z" fill="#0052B4"></path>
<path d="M17.9999 7.04346L18.5827 8.83706H20.4685L18.9428 9.94553L19.5256 11.7391L17.9999 10.6306L16.4741 11.7391L17.057 9.94553L15.5312 8.83706H17.4171L17.9999 7.04346Z" fill="#FFDA44"></path>
<path d="M10.2524 10.2527L11.9328 11.1088L13.2663 9.77539L12.9712 11.638L14.6516 12.4942L12.789 12.7892L12.4939 14.6519L11.6377 12.9715L9.77515 13.2666L11.1086 11.9331L10.2524 10.2527Z" fill="#FFDA44"></path>
<path d="M7.04346 17.9999L8.83706 17.4171V15.5312L9.94546 17.057L11.7391 16.4742L10.6305 17.9999L11.7391 19.5256L9.94546 18.9429L8.83706 20.4686V18.5827L7.04346 17.9999Z" fill="#FFDA44"></path>
<path d="M10.2524 25.7473L11.1086 24.0668L9.77515 22.7334L11.6378 23.0285L12.4938 21.3481L12.789 23.2108L14.6515 23.5058L12.9713 24.362L13.2663 26.2246L11.9328 24.8911L10.2524 25.7473Z" fill="#FFDA44"></path>
<path d="M17.9999 28.9563L17.417 27.1627H15.5312L17.057 26.0542L16.4741 24.2607L17.9999 25.3691L19.5256 24.2607L18.9428 26.0542L20.4685 27.1627H18.5827L17.9999 28.9563Z" fill="#FFDA44"></path>
<path d="M25.7475 25.7473L24.0671 24.8912L22.7335 26.2247L23.0286 24.3619L21.3484 23.5058L23.211 23.2108L23.506 21.3481L24.3621 23.0285L26.2247 22.7334L24.8912 24.067L25.7475 25.7473Z" fill="#FFDA44"></path>
<path d="M28.9565 17.9999L27.1629 18.5827V20.4686L26.0544 18.9428L24.261 19.5256L25.3695 17.9999L24.261 16.4742L26.0545 17.057L27.1629 15.5312V17.4172L28.9565 17.9999Z" fill="#FFDA44"></path>
<path d="M25.7475 10.2526L24.8913 11.9331L26.2248 13.2665L24.3621 12.9714L23.506 14.6518L23.211 12.7891L21.3484 12.494L23.0286 11.6379L22.7335 9.77539L24.0672 11.1088L25.7475 10.2526Z" fill="#FFDA44"></path>
</g>
<defs>
<clipPath id="clip0_3546_142999">
<rect width="36" height="36" fill="white"></rect>
</clipPath>
</defs>
</svg>