<svg width="40" height="40" viewBox="0 0 40 40" fill="none" xmlns="http://www.w3.org/2000/svg">
<g clip-path="url(#clip0_1_4259)">
<path d="M40 20C40 31.0456 31.0456 40 20 40C8.95437 40 0 31.0456 0 20C0 20.0048 20 0.0021875 20 0C31.0456 0 40 8.95437 40 20Z" fill="#0052B4"></path>
<path d="M19.9463 20H19.9998C19.9998 19.9821 19.9998 19.9646 19.9998 19.9465C19.982 19.9644 19.9642 19.9822 19.9463 20Z" fill="#F0F0F0"></path>
<path d="M20 10.4348C20 6.91563 20 4.60977 20 0H19.9966C8.9525 0.001875 0 8.95539 0 20H10.4348V14.1241L16.3107 20H19.9466L20.0001 19.9465C20.0001 18.5991 20.0001 17.3968 20.0001 16.3108L14.1241 10.4348H20Z" fill="#F3F6F9"></path>
<path d="M10.1186 2.60864C6.99053 4.38981 4.39006 6.99028 2.60889 10.1183V20H7.82631V7.82622V7.82607H20.0002C20.0002 6.18052 20.0002 4.61286 20.0002 2.60864H10.1186Z" fill="#D80027"></path>
<path d="M20.0002 17.5405L12.8945 10.4348H10.4351V10.435L20.0001 20H20.0002C20.0002 20 20.0002 18.3041 20.0002 17.5405Z" fill="#D80027"></path>
<path d="M32.1741 23.4783V24.3478H25.2176V23.4783H22.6089V26.9565H24.348V27.8261H33.0437V26.9565H34.7828V23.4783H32.1741Z" fill="#FFDA44"></path>
<path d="M22.6089 10.4348V20C22.6089 24.6593 28.6958 26.087 28.6958 26.087C28.6958 26.087 34.7828 24.6593 34.7828 20V10.4348H22.6089Z" fill="#338AF3"></path>
<path d="M28.6954 17.5693C27.1738 17.5693 27.1738 18.9607 25.6522 18.9607C24.1305 18.9607 24.1305 17.5693 22.6089 17.5693V20.0041C24.1305 20.0041 24.1305 21.3954 25.6522 21.3954C27.1738 21.3954 27.1738 20.0041 28.6954 20.0041C30.2172 20.0041 30.2172 21.3954 31.7391 21.3954C33.261 21.3954 33.2609 20.0041 34.7828 20.0041V17.5693C33.261 17.5693 33.261 18.9607 31.7391 18.9607C30.2172 18.9607 30.2172 17.5693 28.6954 17.5693Z" fill="#F3F6F9"></path>
<path d="M28.6954 12.6956C27.1738 12.6956 27.1738 14.0869 25.6522 14.0869C24.1305 14.0869 24.1305 12.6956 22.6089 12.6956V15.1303C24.1305 15.1303 24.1305 16.5217 25.6522 16.5217C27.1738 16.5217 27.1738 15.1303 28.6954 15.1303C30.2172 15.1303 30.2172 16.5217 31.7391 16.5217C33.261 16.5217 33.2609 15.1303 34.7828 15.1303V12.6956C33.261 12.6956 33.261 14.0869 31.7391 14.0869C30.2172 14.0869 30.2172 12.6956 28.6954 12.6956Z" fill="#F3F6F9"></path>
</g>
<defs>
<clipPath id="clip0_1_4259">
<rect width="40" height="40" fill="white"></rect>
</clipPath>
</defs>
</svg>