<svg width="40" height="40" viewBox="0 0 40 40" fill="none" xmlns="http://www.w3.org/2000/svg">
<g clip-path="url(#clip0_1_3185)">
<path d="M20.0005 40.0001C31.0462 40.0001 40.0005 31.0458 40.0005 20.0001C40.0005 8.95443 31.0462 0.00012207 20.0005 0.00012207C8.95479 0.00012207 0.000488281 8.95443 0.000488281 20.0001C0.000488281 31.0458 8.95479 40.0001 20.0005 40.0001Z" fill="#338AF3"></path>
<path d="M20 8.69568L20.8633 11.3529H23.6574L21.3971 12.9951L22.2603 15.6522L20 14.0101L17.7396 15.6522L18.6032 12.9951L16.3428 11.3529H19.1368L20 8.69568Z" fill="#F3F6F9"></path>
<path d="M8.6958 20.0003L11.353 19.1368V16.3428L12.9953 18.6032L15.6524 17.7399L14.0102 20.0003L15.6524 22.2604L12.9953 21.397L11.353 23.6574V20.8635L8.6958 20.0003Z" fill="#F3F6F9"></path>
<path d="M20.0002 31.3045L19.1368 28.6473H16.3428L18.6032 27.005L17.7399 24.3479L20.0002 25.9901L22.2604 24.3479L21.397 27.005L23.6574 28.6473H20.8635L20.0002 31.3045Z" fill="#F3F6F9"></path>
<path d="M31.3042 20L28.647 20.8634V23.6574L27.0048 21.397L24.3477 22.2604L25.9898 20L24.3477 17.7398L27.0048 18.6032L28.647 16.3428V19.1368L31.3042 20Z" fill="#F3F6F9"></path>
</g>
<defs>
<clipPath id="clip0_1_3185">
<rect width="40" height="40" fill="white"></rect>
</clipPath>
</defs>
</svg>