<svg width="40" height="40" viewBox="0 0 40 40" fill="none" xmlns="http://www.w3.org/2000/svg">
<g clip-path="url(#clip0_1_4592)">
<path d="M20 40C31.0457 40 40 31.0457 40 20C40 8.9543 31.0457 0 20 0C8.9543 0 0 8.9543 0 20C0 31.0457 8.9543 40 20 40Z" fill="#F3F6F9"></path>
<path d="M39.1305 20.0001L39.8305 17.3914C39.7142 16.5023 39.5398 15.6313 39.3112 14.7827H18.2609V0.0761719C17.3734 0.152578 16.5027 0.287656 15.6523 0.47625L12.174 2.60875L10.4348 2.4332C9.5196 2.93258 8.64765 3.50133 7.82616 4.1325V14.7827H0.689053C0.460381 15.6312 0.286006 16.5022 0.169756 17.3913L0.8696 20.0001L0.169678 22.6087C0.285928 23.4979 0.460303 24.3688 0.688975 25.2174H7.82608V35.8676C8.64757 36.4988 9.5196 37.0675 10.4348 37.5669L13.0434 37.3913L15.6521 39.5238C16.5026 39.7123 17.3733 39.8474 18.2608 39.9239V25.2175H39.3109C39.5396 24.3689 39.714 23.498 39.8302 22.6088L39.1305 20.0001Z" fill="#0052B4"></path>
<path d="M39.8307 17.3913H15.6523H15.6522V0.475342C13.8039 0.885186 12.0516 1.54948 10.4348 2.43175V17.3912H0.169297C0.058125 18.2452 0 19.1158 0 20C0 20.8841 0.058125 21.7547 0.169297 22.6086H10.4347H10.4348V37.5681C12.0516 38.4503 13.8039 39.1147 15.6522 39.5245V22.6089V22.6087H39.8307C39.9419 21.7547 40 20.8841 40 20C40 19.1158 39.9419 18.2452 39.8307 17.3913Z" fill="#D80027"></path>
</g>
<defs>
<clipPath id="clip0_1_4592">
<rect width="40" height="40" fill="white"></rect>
</clipPath>
</defs>
</svg>