<svg width="40" height="40" viewBox="0 0 40 40" fill="none" xmlns="http://www.w3.org/2000/svg">
<g clip-path="url(#clip0_3546_142592)">
<path d="M19.9997 40C31.0454 40 39.9997 31.0457 39.9997 20C39.9997 8.9543 31.0454 0 19.9997 0C8.954 0 -0.000305176 8.9543 -0.000305176 20C-0.000305176 31.0457 8.954 40 19.9997 40Z" fill="#F3F6F9"></path>
<path d="M39.9999 20.0002C39.9999 11.4009 34.5724 4.07 26.9564 1.24414V38.7562C34.5724 35.9303 39.9999 28.5995 39.9999 20.0002Z" fill="#FB2727"></path>
<path d="M-6.10352e-05 20.0002C-6.10352e-05 28.5995 5.42752 35.9303 13.0435 38.7562V1.24414C5.42752 4.07 -6.10352e-05 11.4009 -6.10352e-05 20.0002Z" fill="#0073FD"></path>
</g>
<defs>
<clipPath id="clip0_3546_142592">
<rect width="40" height="40" fill="white"></rect>
</clipPath>
</defs>
</svg>