<svg width="40" height="40" viewBox="0 0 40 40" fill="none" xmlns="http://www.w3.org/2000/svg">
<g clip-path="url(#clip0_1_3518)">
<path d="M20.0005 39.9999C31.0462 39.9999 40.0005 31.0456 40.0005 19.9999C40.0005 8.95418 31.0462 -0.00012207 20.0005 -0.00012207C8.95479 -0.00012207 0.000488281 8.95418 0.000488281 19.9999C0.000488281 31.0456 8.95479 39.9999 20.0005 39.9999Z" fill="#FFDA44"></path>
<path d="M8.72754 3.47822C11.9373 1.284 15.8184 -6.10352e-05 20 -6.10352e-05C24.1815 -6.10352e-05 28.0626 1.284 31.2724 3.47822L20 4.34775L8.72754 3.47822Z" fill="#A2001D"></path>
<path d="M20.0001 20L18.7237 18.7236L18.3848 19.3307L20.0001 20Z" fill="#0073FD"></path>
<path d="M5.85785 5.85785C-1.95262 13.6683 -1.95262 26.3317 5.85785 34.1422C9.08543 30.9146 12.1896 27.8105 20 20L5.85785 5.85785Z" fill="#496E2D"></path>
<path d="M34.1422 5.85785C41.9527 13.6683 41.9527 26.3317 34.1422 34.1422C30.9146 30.9146 27.8105 27.8105 20 20L34.1422 5.85785Z" fill="#496E2D"></path>
<path d="M19.9999 26.9564C23.8419 26.9564 26.9564 23.8419 26.9564 19.9999C26.9564 16.158 23.8419 13.0435 19.9999 13.0435C16.158 13.0435 13.0435 16.158 13.0435 19.9999C13.0435 23.8419 16.158 26.9564 19.9999 26.9564Z" fill="#A2001D"></path>
<path d="M19.9999 13.0434L21.5592 17.8425H26.6059L22.5233 20.8092L24.0826 25.6085L19.9999 22.6425L15.9171 25.6085L17.4767 20.8092L13.394 17.8425H18.4405L19.9999 13.0434Z" fill="#FFDA44"></path>
<path d="M19.9999 -6.10352e-05C19.9976 -6.10352e-05 19.9954 9.52149e-05 19.9932 9.52149e-05H20.0065C20.0043 9.52149e-05 20.0021 -6.10352e-05 19.9999 -6.10352e-05Z" fill="#FFDA44"></path>
<path d="M20.0067 -6.10352e-05H19.9933C14.4736 0.00173584 9.47662 2.23947 5.85889 5.85681H34.1412C30.5233 2.23947 25.5264 0.00173584 20.0067 -6.10352e-05Z" fill="#A2001D"></path>
<path d="M5.85889 34.1431C9.4781 37.7618 14.4776 39.9999 19.9999 39.9999C25.5222 39.9999 30.5217 37.7618 34.1409 34.1431H5.85889Z" fill="#A2001D"></path>
<path d="M19.9999 2.17395L20.3237 3.17036H21.3714L20.5238 3.78622L20.8476 4.78262L19.9999 4.16684L19.1523 4.78262L19.4762 3.78622L18.6284 3.17036H19.6761L19.9999 2.17395Z" fill="#FFDA44"></path>
<path d="M15.1498 2.17395L15.4736 3.17036H16.5213L15.6737 3.78622L15.9975 4.78262L15.1498 4.16684L14.3023 4.78262L14.6261 3.78622L13.7783 3.17036H14.826L15.1498 2.17395Z" fill="#FFDA44"></path>
<path d="M24.8495 2.17395L25.1733 3.17036H26.221L25.3734 3.78622L25.6972 4.78262L24.8495 4.16684L24.0019 4.78262L24.3258 3.78622L23.478 3.17036H24.5257L24.8495 2.17395Z" fill="#FFDA44"></path>
<path d="M19.9999 35.2175L20.3237 36.2139H21.3714L20.5238 36.8297L20.8476 37.8261L19.9999 37.2103L19.1523 37.8261L19.4762 36.8297L18.6284 36.2139H19.6761L19.9999 35.2175Z" fill="#FFDA44"></path>
<path d="M15.1498 35.2175L15.4736 36.2139H16.5213L15.6737 36.8297L15.9975 37.8261L15.1498 37.2103L14.3023 37.8261L14.6261 36.8297L13.7783 36.2139H14.826L15.1498 35.2175Z" fill="#FFDA44"></path>
<path d="M24.8495 35.2175L25.1733 36.2139H26.221L25.3734 36.8297L25.6972 37.8261L24.8495 37.2103L24.0019 37.8261L24.3258 36.8297L23.478 36.2139H24.5257L24.8495 35.2175Z" fill="#FFDA44"></path>
<path d="M6.09374 19.6696C6.60741 20.4813 6.36601 21.5556 5.55436 22.0693C4.7428 22.5831 3.66843 22.3417 3.15468 21.53C2.2246 20.0607 2.7639 17.6609 2.7639 17.6609C2.7639 17.6609 5.16358 18.2002 6.09374 19.6696Z" fill="#FFDA44"></path>
<path d="M5.08975 22.2042C5.56997 22.2042 5.95928 21.8149 5.95928 21.3347C5.95928 20.8545 5.56997 20.4651 5.08975 20.4651C4.60952 20.4651 4.22021 20.8545 4.22021 21.3347C4.22021 21.8149 4.60952 22.2042 5.08975 22.2042Z" fill="#A2001D"></path>
</g>
<defs>
<clipPath id="clip0_1_3518">
<rect width="40" height="40" fill="white"></rect>
</clipPath>
</defs>
</svg>