<svg width="40" height="40" viewBox="0 0 40 40" fill="none" xmlns="http://www.w3.org/2000/svg">
<g clip-path="url(#clip0_1_4274)">
<path d="M20 40C31.0457 40 40 31.0457 40 20C40 8.9543 31.0457 0 20 0C8.9543 0 0 8.9543 0 20C0 31.0457 8.9543 40 20 40Z" fill="#F3F6F9"></path>
<path d="M39.8307 17.3913H22.6088H22.6087V0.169297C21.7548 0.058125 20.8841 0 20 0C19.1159 0 18.2452 0.058125 17.3913 0.169297V17.3913H0.169297C0.058125 18.2452 0 19.1159 0 20C0 20.8841 0.058125 21.7548 0.169297 22.6087H17.3912H17.3913V39.8307C18.2452 39.9419 19.1159 40 20 40C20.8841 40 21.7548 39.942 22.6087 39.8307V22.6089V22.6087H39.8307C39.9419 21.7548 40 20.8841 40 20C40 19.1159 39.9419 18.2452 39.8307 17.3913Z" fill="#D80027"></path>
<path d="M25.6521 20.8695L26.9564 21.7391V18.2608L25.6521 19.1304H20.8695V14.3478L21.7391 13.0435H18.2608L19.1304 14.3478V19.1304H14.3478L13.0435 18.2608V21.7391L14.3478 20.8695H19.1304V25.6521L18.2608 26.9564H21.7391L20.8695 25.6521V20.8695H25.6521Z" fill="#FFDA44"></path>
</g>
<defs>
<clipPath id="clip0_1_4274">
<rect width="40" height="40" fill="white"></rect>
</clipPath>
</defs>
</svg>