<svg width="40" height="40" viewBox="0 0 40 40" fill="none" xmlns="http://www.w3.org/2000/svg">
<g clip-path="url(#clip0_1_4192)">
<path d="M20 40C31.0457 40 40 31.0457 40 20C40 8.9543 31.0457 0 20 0C8.9543 0 0 8.9543 0 20C0 31.0457 8.9543 40 20 40Z" fill="#F3F6F9"></path>
<path d="M20.0002 40.0001C28.5995 40.0001 35.9304 34.5726 38.7562 26.9565H1.24414C4.07008 34.5726 11.4009 40.0001 20.0002 40.0001Z" fill="#D80027"></path>
<path d="M27.8264 16.5217V13.913H28.6959V12.1738H26.9568V13.0435H25.2177V12.1738H23.4786V13.913H24.3481V16.5217H22.609V10.4349H23.4786V8.6958H21.7394V9.56518H20.8698V8.6958H19.1308V9.56518H18.2612V8.6958H16.522V10.4349H17.3916V16.5217H15.6525V13.913H16.522V12.1738H14.7829V13.0435H13.0438V12.1738H11.3047V13.913H12.1742V16.5217H10.4351V23.4782H29.5655V16.5217H27.8264Z" fill="#D80027"></path>
<path d="M20.0002 22.6086C18.5595 22.6086 17.3915 23.7766 17.3915 25.2173C17.3915 26.3529 18.1176 27.3189 19.1306 27.677V31.3043H16.522V34.7826H20.8698V27.6771C21.8828 27.319 22.6089 26.3531 22.6089 25.2174C22.6088 23.7767 21.4409 22.6086 20.0002 22.6086ZM20.0002 26.0869C19.5199 26.0869 19.1306 25.6975 19.1306 25.2174C19.1306 24.7372 19.5199 24.3479 20.0002 24.3479C20.4804 24.3479 20.8697 24.7372 20.8697 25.2174C20.8697 25.6975 20.4804 26.0869 20.0002 26.0869Z" fill="#FFDA44"></path>
</g>
<defs>
<clipPath id="clip0_1_4192">
<rect width="40" height="40" fill="white"></rect>
</clipPath>
</defs>
</svg>