<svg width="40" height="40" viewBox="0 0 40 40" fill="none" xmlns="http://www.w3.org/2000/svg">
<g clip-path="url(#clip0_1_4597)">
<path d="M0 20C0 8.95437 8.95437 0 20 0C31.0456 0 40 8.95437 40 20C39.1305 20 20 22.6087 20 22.6087L0 20Z" fill="#F3F6F9"></path>
<path d="M40 20C40 31.0456 31.0456 40 20 40C8.95437 40 0 31.0456 0 20" fill="#D80027"></path>
<path d="M13.9131 29.5653C19.1959 29.5653 23.4784 25.2828 23.4784 20C23.4784 14.7173 19.1959 10.4348 13.9131 10.4348C8.6304 10.4348 4.3479 14.7173 4.3479 20C4.3479 25.2828 8.6304 29.5653 13.9131 29.5653Z" fill="#F3F6F9"></path>
<path d="M4.3479 20C4.3479 14.7175 8.6304 10.4348 13.9131 10.4348C19.1959 10.4348 23.4784 14.7174 23.4784 20" fill="#D80027"></path>
</g>
<defs>
<clipPath id="clip0_1_4597">
<rect width="40" height="40" fill="white"></rect>
</clipPath>
</defs>
</svg>