<svg width="40" height="40" viewBox="0 0 40 40" fill="none" xmlns="http://www.w3.org/2000/svg">
<g clip-path="url(#clip0_1_3505)">
<path d="M26.957 1.244C24.7903 0.440017 22.4467 -6.10352e-05 20.0003 -6.10352e-05C17.5539 -6.10352e-05 15.2105 0.440017 13.0439 1.24385L12.1743 19.9999L13.0438 38.756C15.2105 39.5599 17.5539 39.9999 20.0003 39.9999C22.4468 39.9999 24.7903 39.5599 26.957 38.7559L27.8265 19.9999L26.957 1.244Z" fill="#FFDA44"></path>
<path d="M0 19.9999C0 28.5991 5.4275 35.93 13.0435 38.7558V1.24377C5.4275 4.06971 0 11.4005 0 19.9999Z" fill="#FB2727"></path>
<path d="M40.0001 19.9999C40.0001 11.4005 34.5726 4.06971 26.9565 1.24377V38.7559C34.5726 35.93 40.0001 28.5991 40.0001 19.9999Z" fill="#75BB42"></path>
</g>
<defs>
<clipPath id="clip0_1_3505">
<rect width="40" height="40" fill="white"></rect>
</clipPath>
</defs>
</svg>