<svg width="40" height="40" viewBox="0 0 40 40" fill="none" xmlns="http://www.w3.org/2000/svg">
<g clip-path="url(#clip0_1_4495)">
<path d="M20 40.0002C31.0457 40.0002 40 31.0459 40 20.0002C40 8.95455 31.0457 0.000244141 20 0.000244141C8.95431 0.000244141 0 8.95455 0 20.0002C0 31.0459 8.95431 40.0002 20 40.0002Z" fill="#F3F6F9"></path>
<path d="M39.9996 20.0002C39.9996 11.4009 34.5721 4.07 26.9561 1.24414V38.7562C34.5721 35.9303 39.9996 28.5995 39.9996 20.0002Z" fill="#FB2727"></path>
<path d="M0 20.0002C0 28.5995 5.42758 35.9303 13.0435 38.7562V1.24414C5.42758 4.07 0 11.4009 0 20.0002Z" fill="#0073FD"></path>
</g>
<defs>
<clipPath id="clip0_1_4495">
<rect width="40" height="40" rx="20" fill="white"></rect>
</clipPath>
</defs>
</svg>