<svg width="40" height="40" viewBox="0 0 40 40" fill="none" xmlns="http://www.w3.org/2000/svg">
<g clip-path="url(#clip0_1_4349)">
<path d="M40 20C40 31.0456 31.0456 40 20 40C8.95437 40 0 31.0456 0 20C0 20.0048 20 0.0021875 20 0C31.0456 0 40 8.95437 40 20Z" fill="#0052B4"></path>
<path d="M19.9463 20H19.9998C19.9998 19.9821 19.9998 19.9646 19.9998 19.9465C19.982 19.9644 19.9642 19.9822 19.9463 20Z" fill="#F0F0F0"></path>
<path d="M20 10.4348C20 6.91563 20 4.60977 20 0H19.9966C8.9525 0.001875 0 8.95539 0 20H10.4348V14.1241L16.3107 20H19.9466L20.0001 19.9465C20.0001 18.5991 20.0001 17.3968 20.0001 16.3108L14.1241 10.4348H20Z" fill="#F3F6F9"></path>
<path d="M10.1186 2.60864C6.99053 4.38981 4.39006 6.99028 2.60889 10.1183V20H7.82631V7.82622V7.82607H20.0002C20.0002 6.18052 20.0002 4.61286 20.0002 2.60864H10.1186Z" fill="#D80027"></path>
<path d="M20.0002 17.5405L12.8945 10.4348H10.4351V10.435L20.0001 20H20.0002C20.0002 20 20.0002 18.3041 20.0002 17.5405Z" fill="#D80027"></path>
<path fill-rule="evenodd" clip-rule="evenodd" d="M26.4806 9.21302C26.7646 8.92899 27.2251 8.92899 27.5091 9.21302L28.4495 10.1533L29.3898 9.21302C29.6738 8.92899 30.1343 8.92899 30.4183 9.21302C30.7023 9.49704 30.7023 9.95754 30.4183 10.2416L28.9637 11.6962C28.6797 11.9802 28.2192 11.9802 27.9352 11.6962L26.4806 10.2416C26.1966 9.95754 26.1966 9.49704 26.4806 9.21302Z" fill="#9B9B9A"></path>
<path fill-rule="evenodd" clip-rule="evenodd" d="M28.4502 11.9089C28.4502 11.5073 28.7758 11.1816 29.1775 11.1816H32.0863C32.488 11.1816 32.8136 11.5073 32.8136 11.9089V12.6361C32.8136 13.0377 32.488 13.3633 32.0863 13.3633H29.1775C28.7758 13.3633 28.4502 13.0377 28.4502 12.6361V11.9089Z" fill="#E27022"></path>
<path fill-rule="evenodd" clip-rule="evenodd" d="M27.9357 10.6676C28.2197 10.3836 28.6802 10.3836 28.9642 10.6676L29.6913 11.3947C29.9293 11.6327 29.9679 11.9946 29.807 12.2728C29.8689 12.3798 29.9044 12.504 29.9044 12.6365V14.8182C29.9044 15.2198 29.5787 15.5455 29.1771 15.5455C28.7754 15.5455 28.4498 15.2198 28.4498 14.8182V12.6365C28.4498 12.5131 28.4805 12.3969 28.5347 12.2952L27.9357 11.6962C27.6516 11.4121 27.6516 10.9516 27.9357 10.6676ZM32.0859 11.9092C32.4876 11.9092 32.8132 12.2348 32.8132 12.6365V14.8182C32.8132 15.2198 32.4876 15.5455 32.0859 15.5455C31.6842 15.5455 31.3586 15.2198 31.3586 14.8182V12.6365C31.3586 12.2348 31.6842 11.9092 32.0859 11.9092Z" fill="#E27022"></path>
<path fill-rule="evenodd" clip-rule="evenodd" d="M24.9215 28.1267C26.4246 26.5918 28.4822 25.7266 30.6305 25.7266C32.7787 25.7266 34.8367 26.5918 36.3395 28.1268C36.6205 28.4138 36.6156 28.8743 36.3286 29.1553C36.0416 29.4363 35.5811 29.4314 35.3001 29.1443C34.071 27.8889 32.3876 27.1811 30.6305 27.1811C28.8734 27.1811 27.1903 27.8888 25.9608 29.1444C25.6798 29.4314 25.2193 29.4362 24.9323 29.1552C24.6453 28.8742 24.6405 28.4137 24.9215 28.1267Z" fill="#F1B31C"></path>
<path d="M30.6367 21L33.6367 14H27.6367L30.6367 21Z" fill="#393939"></path>
<path fill-rule="evenodd" clip-rule="evenodd" d="M35.3582 15C35.7599 15 36.0855 15.3256 36.0855 15.7273V16.7925L37.3383 17.6274C37.3498 17.635 37.361 17.643 37.3721 17.6513C37.6337 17.848 37.8493 18.0995 38.0037 18.3882C38.1582 18.6769 38.2477 18.9959 38.2661 19.3227C38.2668 19.3363 38.2672 19.35 38.2672 19.3636V22.9995L38.2672 23.002C38.2659 23.3868 38.1125 23.7554 37.8403 24.0275C37.5681 24.2995 37.1994 24.4528 36.8146 24.4539L36.8125 24.4539H36.0853L36.0829 24.4539C35.6982 24.4527 35.3297 24.2993 35.0576 24.0272C34.7856 23.7552 34.6322 23.3867 34.6309 23.002L34.6309 22.9995V17.1918C34.6308 17.1848 34.6308 17.1777 34.6309 17.1706V15.7273C34.6309 15.3256 34.9566 15 35.3582 15Z" fill="black"></path>
<path fill-rule="evenodd" clip-rule="evenodd" d="M25.909 15C26.3107 15 26.6363 15.3256 26.6363 15.7273V17.1706C26.6364 17.1777 26.6364 17.1848 26.6363 17.1918V22.9995L26.6363 23.002C26.635 23.3867 26.4816 23.7552 26.2096 24.0272C25.9376 24.2993 25.569 24.4526 25.1843 24.4539L25.1819 24.4539H24.4548L24.4527 24.4539C24.0679 24.4528 23.6991 24.2995 23.4269 24.0275C23.1548 23.7554 23.0013 23.3868 23 23.002L23 22.9995V19.3636C23 19.35 23.0004 19.3363 23.0011 19.3227C23.0195 18.9959 23.1091 18.6769 23.2635 18.3882C23.4179 18.0995 23.6335 17.848 23.8952 17.6513C23.9062 17.643 23.9175 17.635 23.9289 17.6274L25.1817 16.7925V15.7273C25.1817 15.3256 25.5073 15 25.909 15Z" fill="#9B9B9A"></path>
<path d="M27.6367 17V21.8889C27.6367 24.2703 30.6367 25 30.6367 25C30.6367 25 33.6367 24.2703 33.6367 21.8889V17H27.6367Z" fill="white"></path>
<path d="M30.6309 24L33.6309 17H27.6309L30.6309 24Z" fill="#5C9E31"></path>
</g>
<defs>
<clipPath id="clip0_1_4349">
<rect width="40" height="40" fill="white"></rect>
</clipPath>
</defs>
</svg>