<svg width="40" height="40" viewBox="0 0 40 40" fill="none" xmlns="http://www.w3.org/2000/svg">
<g clip-path="url(#clip0_1_4103)">
<path d="M8.72754 36.5216C11.9372 38.7158 15.8185 39.9999 20 39.9999C24.1814 39.9999 28.0626 38.7158 31.2724 36.5216L20 34.7825L8.72754 36.5216Z" fill="#D80027"></path>
<path d="M31.2724 3.47828C28.0626 1.28414 24.1814 0 20 0C15.8185 0 11.9372 1.28414 8.72754 3.47828L20 5.21742L31.2724 3.47828Z" fill="#D80027"></path>
<path d="M40 20C40 13.382 36.0378 6.73593 31.2724 3.47827H8.72758C3.45859 7.08015 0 13.1359 0 20C0 26.8643 3.45859 32.9198 8.72758 36.5217H31.2724C36.5415 32.9198 40 26.8643 40 20Z" fill="#0052B4"></path>
<path d="M18.8681 32.6247C18.5948 32.3903 12.1738 26.8085 12.1738 20C12.1738 13.1914 18.5948 7.60948 18.8681 7.37519L19.9999 6.40503L21.1317 7.37511C21.405 7.60948 27.826 13.1914 27.826 20C27.826 26.8085 21.4051 32.3905 21.1317 32.6247L19.9999 33.5949L18.8681 32.6247Z" fill="#D80027"></path>
<path d="M26.087 19.9999C26.087 13.913 20 8.69556 20 8.69556C20 8.69556 13.9131 13.9131 13.9131 19.9999C13.9131 21.862 14.4832 23.6424 15.2739 25.2174H24.7261C25.5169 23.6424 26.087 21.862 26.087 19.9999Z" fill="#338AF3"></path>
<path d="M26.087 20C26.087 21.8621 25.5169 23.6425 24.7261 25.2174L20 26.087L15.2739 25.2174C14.4832 23.6426 13.9131 21.8621 13.9131 20H26.087Z" fill="#0052B4"></path>
<path d="M20 31.3045C20 31.3045 22.9319 28.7907 24.7261 25.2175H15.2739C17.0681 28.7907 20 31.3045 20 31.3045Z" fill="#FFDA44"></path>
<path d="M16.0869 16.5217H23.913L20 20.4348L16.0869 16.5217Z" fill="#6DA544"></path>
<path d="M18.6958 19.1304H21.3045V26.9565H18.6958V19.1304Z" fill="#A2001D"></path>
</g>
<defs>
<clipPath id="clip0_1_4103">
<rect width="40" height="40" fill="white"></rect>
</clipPath>
</defs>
</svg>