<svg width="40" height="40" viewBox="0 0 40 40" fill="none" xmlns="http://www.w3.org/2000/svg">
<g clip-path="url(#clip0_1_4617)">
<path d="M20 40C31.0457 40 40 31.0457 40 20C40 8.9543 31.0457 0 20 0C8.9543 0 0 8.9543 0 20C0 31.0457 8.9543 40 20 40Z" fill="#D80027"></path>
<path d="M22.0647 15.1302C21.6102 17.0208 20.8026 16.6602 20.4063 18.309C18.0717 17.7476 16.6339 15.4 17.1952 13.0652C17.7563 10.7306 20.1042 9.29279 22.4389 9.85412C21.6461 13.1515 22.4714 13.4394 22.0647 15.1302Z" fill="#F3F6F9"></path>
<path d="M16.0068 16.5313C17.6643 17.5477 17.0718 18.2045 18.5173 19.0909C17.262 21.1379 14.585 21.7797 12.538 20.5245C10.491 19.2692 9.8491 16.5921 11.1044 14.5452C13.9955 16.318 14.524 15.6221 16.0068 16.5313Z" fill="#F3F6F9"></path>
<path d="M15.4671 22.7259C16.9461 21.4635 17.3874 22.2299 18.6771 21.1292C20.2361 22.9555 20.0193 25.6999 18.193 27.2588C16.3666 28.8178 13.6222 28.6007 12.0635 26.7745C14.6427 24.5727 14.1442 23.8549 15.4671 22.7259Z" fill="#F3F6F9"></path>
<path d="M21.1916 25.1534C20.4478 23.3567 21.3132 23.1736 20.6648 21.607C22.8835 20.6888 25.4266 21.743 26.3449 23.9617C27.2631 26.1803 26.2087 28.7234 23.99 29.6417C22.6934 26.5081 21.8567 26.7604 21.1916 25.1534Z" fill="#F3F6F9"></path>
<path d="M25.2694 20.459C23.3309 20.6112 23.424 19.7315 21.7337 19.8641C21.546 17.4704 23.3346 15.3774 25.7284 15.1895C28.1222 15.0021 30.2151 16.7905 30.4028 19.1844C27.0218 19.4495 27.0031 20.3232 25.2694 20.459Z" fill="#F3F6F9"></path>
</g>
<defs>
<clipPath id="clip0_1_4617">
<rect width="40" height="40" fill="white"></rect>
</clipPath>
</defs>
</svg>