<svg width="40" height="40" viewBox="0 0 40 40" fill="none" xmlns="http://www.w3.org/2000/svg">
<g clip-path="url(#clip0_1_3467)">
<path d="M20 39.9999C31.0457 39.9999 40 31.0456 40 19.9999C40 8.95421 31.0457 -9.15527e-05 20 -9.15527e-05C8.95431 -9.15527e-05 0 8.95421 0 19.9999C0 31.0456 8.95431 39.9999 20 39.9999Z" fill="#F3F6F9"></path>
<path d="M19.9998 39.9999C27.929 39.9999 34.7803 35.3854 38.0153 28.6955H1.98438C5.21937 35.3854 12.0706 39.9999 19.9998 39.9999Z" fill="#338AF3"></path>
<path d="M19.9998 -0.000152588C12.0706 -0.000152588 5.21937 4.6143 1.98438 11.3042H38.0152C34.7803 4.6143 27.929 -0.000152588 19.9998 -0.000152588Z" fill="#338AF3"></path>
<path d="M12.3079 13.0433L12.9554 15.0362H15.0508L13.3556 16.2678L14.0032 18.2607L12.3079 17.029L10.6126 18.2607L11.2602 16.2678L9.56494 15.0362H11.6603L12.3079 13.0433Z" fill="#338AF3"></path>
<path d="M12.3079 21.739L12.9554 23.732H15.0508L13.3556 24.9635L14.0032 26.9563L12.3079 25.7247L10.6126 26.9563L11.2602 24.9635L9.56494 23.732H11.6603L12.3079 21.739Z" fill="#338AF3"></path>
<path d="M27.6917 13.0433L28.3393 15.0362H30.4347L28.7394 16.2678L29.387 18.2607L27.6917 17.029L25.9964 18.2607L26.644 16.2678L24.9487 15.0362H27.0442L27.6917 13.0433Z" fill="#338AF3"></path>
<path d="M27.6917 21.739L28.3393 23.732H30.4347L28.7394 24.9635L29.387 26.9563L27.6917 25.7247L25.9964 26.9563L26.644 24.9635L24.9487 23.732H27.0442L27.6917 21.739Z" fill="#338AF3"></path>
<path d="M19.9998 17.3911L20.6474 19.3841H22.7428L21.0475 20.6157L21.6951 22.6085L19.9998 21.3768L18.3045 22.6085L18.9521 20.6157L17.2568 19.3841H19.3522L19.9998 17.3911Z" fill="#338AF3"></path>
</g>
<defs>
<clipPath id="clip0_1_3467">
<rect width="40" height="40" fill="white"></rect>
</clipPath>
</defs>
</svg>