<svg width="40" height="40" viewBox="0 0 40 40" fill="none" xmlns="http://www.w3.org/2000/svg">
<g clip-path="url(#clip0_3546_142452)">
<path d="M19.9998 40C31.0454 40 39.9998 31.0457 39.9998 20C39.9998 8.9543 31.0454 0 19.9998 0C8.95406 0 -0.000244141 8.9543 -0.000244141 20C-0.000244141 31.0457 8.95406 40 19.9998 40Z" fill="#F3F6F9"></path>
<path d="M39.9999 20.0001C39.9999 11.4009 34.5724 4.06992 26.9564 1.24414V38.7562C34.5724 35.9302 39.9999 28.5995 39.9999 20.0001Z" fill="#FF9811"></path>
<path d="M-6.10352e-05 20.0001C-6.10352e-05 28.5995 5.42744 35.9302 13.0435 38.7562V1.24414C5.42744 4.06992 -6.10352e-05 11.4009 -6.10352e-05 20.0001Z" fill="#75BB42"></path>
</g>
<defs>
<clipPath id="clip0_3546_142452">
<rect width="40" height="40" fill="white"></rect>
</clipPath>
</defs>
</svg>