<svg width="40" height="40" viewBox="0 0 40 40" fill="none" xmlns="http://www.w3.org/2000/svg">
<g clip-path="url(#clip0_1_4285)">
<path d="M20 40C31.0457 40 40 31.0457 40 20C40 8.9543 31.0457 0 20 0C8.9543 0 0 8.9543 0 20C0 31.0457 8.9543 40 20 40Z" fill="#D80027"></path>
<path d="M27.4053 13.4071L25.9917 18.4517L21.7503 17.6685L19.0202 12.0408L11.6446 14.658L11.063 13.019L9.1333 12.7812L10.5873 16.8788L15.663 15.5808L17.1054 19.6455L13.5967 24.8238L19.5511 29.9024L18.4225 31.2256L19.1814 33.0158L22.0031 29.7076L18.3411 25.961L21.1401 22.6795L27.379 23.1291L28.8 15.433L30.5103 15.7488L31.6813 14.1965L27.4053 13.4071Z" fill="#F3F6F9"></path>
</g>
<defs>
<clipPath id="clip0_1_4285">
<rect width="40" height="40" fill="white"></rect>
</clipPath>
</defs>
</svg>