<svg width="40" height="40" viewBox="0 0 40 40" fill="none" xmlns="http://www.w3.org/2000/svg">
<g clip-path="url(#clip0_3546_142472)">
<path d="M20.0001 40C31.0458 40 40.0001 31.0457 40.0001 20C40.0001 8.9543 31.0458 0 20.0001 0C8.95437 0 6.10352e-05 8.9543 6.10352e-05 20C6.10352e-05 31.0457 8.95437 40 20.0001 40Z" fill="#F3F6F9"></path>
<path d="M20.0001 0C12.0709 0 5.21962 4.61445 1.98462 11.3044H38.0155C34.7806 4.61445 27.9292 0 20.0001 0Z" fill="#FF9811"></path>
<path d="M20.0001 40.0002C27.9292 40.0002 34.7806 35.3857 38.0156 28.6958H1.98462C5.21962 35.3857 12.0709 40.0002 20.0001 40.0002Z" fill="#75BB42"></path>
<path d="M20 26.9564C23.842 26.9564 26.9565 23.8419 26.9565 19.9999C26.9565 16.158 23.842 13.0435 20 13.0435C16.158 13.0435 13.0435 16.158 13.0435 19.9999C13.0435 23.8419 16.158 26.9564 20 26.9564Z" fill="#0073FD"></path>
<path d="M20 24.348C22.4013 24.348 24.3478 22.4014 24.3478 20.0002C24.3478 17.5989 22.4013 15.6523 20 15.6523C17.5988 15.6523 15.6522 17.5989 15.6522 20.0002C15.6522 22.4014 17.5988 24.348 20 24.348Z" fill="#F3F6F9"></path>
<path d="M20 14.6348L21.3413 17.6768L24.6463 17.3173L22.6825 19.9999L24.6463 22.6825L21.3413 22.323L20 25.3651L18.6586 22.323L15.3536 22.6824L17.3174 19.9999L15.3536 17.3173L18.6586 17.6768L20 14.6348Z" fill="#0073FD"></path>
</g>
<defs>
<clipPath id="clip0_3546_142472">
<rect width="40" height="40" fill="white"></rect>
</clipPath>
</defs>
</svg>