<svg width="40" height="40" viewBox="0 0 40 40" fill="none" xmlns="http://www.w3.org/2000/svg">
<g clip-path="url(#clip0_1_4162)">
<path d="M20 40C31.0457 40 40 31.0457 40 20C40 8.9543 31.0457 0 20 0C8.9543 0 0 8.9543 0 20C0 31.0457 8.9543 40 20 40Z" fill="#F3F6F9"></path>
<path d="M36.6663 22.3935C34.9996 22.3935 34.9996 20.8696 33.3329 20.8696C31.6663 20.8696 31.6663 22.3935 29.9997 22.3935C28.3331 22.3935 28.3331 20.8696 26.6665 20.8696C24.9999 20.8696 24.9999 22.3935 23.3331 22.3935C21.6664 22.3935 21.6663 20.8696 19.9996 20.8696C18.3329 20.8696 18.3329 22.3935 16.6663 22.3935C14.9999 22.3935 14.9999 20.8696 13.3333 20.8696C11.6665 20.8696 11.6665 22.3935 9.99971 22.3935C8.33291 22.3935 8.33291 20.8696 6.66611 20.8696C4.99971 20.8696 4.99971 22.3935 3.33307 22.3935C1.67541 22.3935 1.6658 20.8864 0.0258789 20.8703C0.0720508 21.7851 0.181269 22.6833 0.346426 23.5617C1.67486 23.7567 1.79119 25.0601 3.33322 25.0601C4.99986 25.0601 4.99986 23.5363 6.66627 23.5363C8.33307 23.5363 8.33307 25.0601 9.99986 25.0601C11.6667 25.0601 11.6667 23.5363 13.3335 23.5363C15.0001 23.5363 15.0001 25.0601 16.6665 25.0601C18.3331 25.0601 18.3331 23.5363 19.9997 23.5363C21.6665 23.5363 21.6665 25.0601 23.3333 25.0601C25.0001 25.0601 25.0001 23.5363 26.6667 23.5363C28.3333 23.5363 28.3333 25.0601 29.9999 25.0601C31.6665 25.0601 31.6665 23.5363 33.3331 23.5363C34.9999 23.5363 34.9999 25.0601 36.6664 25.0601C38.2085 25.0601 38.3249 23.7568 39.6534 23.5617C39.8186 22.6832 39.9277 21.7852 39.9741 20.8703C38.3338 20.8865 38.324 22.3935 36.6663 22.3935Z" fill="#0052B4"></path>
<path d="M33.3328 26.0869C31.6662 26.0869 31.6662 27.6108 29.9996 27.6108C28.333 27.6108 28.333 26.0869 26.6664 26.0869C24.9998 26.0869 24.9998 27.6108 23.333 27.6108C21.6663 27.6108 21.6663 26.0869 19.9995 26.0869C18.3328 26.0869 18.3328 27.6108 16.6663 27.6108C14.9998 27.6108 14.9998 26.0869 13.3332 26.0869C11.6664 26.0869 11.6664 27.6108 9.99961 27.6108C8.33281 27.6108 8.33281 26.0869 6.66602 26.0869C4.99961 26.0869 4.99961 27.6108 3.33297 27.6108C2.10523 27.6108 1.78109 26.7844 1.0293 26.3491C1.48461 27.71 2.08266 29.0052 2.80492 30.218C2.96133 30.2557 3.13523 30.2775 3.33289 30.2775C4.99953 30.2775 4.99953 28.7537 6.66594 28.7537C8.33274 28.7537 8.33274 30.2775 9.99953 30.2775C11.6663 30.2775 11.6663 28.7537 13.3331 28.7537C14.9998 28.7537 14.9998 30.2775 16.6662 30.2775C18.3328 30.2775 18.3328 28.7537 19.9994 28.7537C21.6662 28.7537 21.6662 30.2775 23.333 30.2775C24.9998 30.2775 24.9998 28.7537 26.6663 28.7537C28.333 28.7537 28.333 30.2775 29.9995 30.2775C31.6661 30.2775 31.6662 28.7537 33.3327 28.7537C34.9995 28.7537 34.9995 30.2775 36.6661 30.2775C36.8639 30.2775 37.038 30.2557 37.1945 30.2179C37.9168 29.0052 38.5148 27.71 38.97 26.3492C38.2182 26.7845 37.894 27.6109 36.6661 27.6109C34.9996 27.6108 34.9996 26.0869 33.3328 26.0869Z" fill="#0052B4"></path>
<path d="M39.5347 15.6984C38.3165 15.9513 38.1612 17.176 36.6665 17.176C34.9998 17.176 34.9998 15.6521 33.3331 15.6521C31.6665 15.6521 31.6665 17.176 29.9999 17.176C28.3333 17.176 28.3333 15.6521 26.6667 15.6521C25.0001 15.6521 25.0001 17.176 23.3333 17.176C21.6666 17.176 21.6665 15.6521 19.9997 15.6521C19.0992 15.6521 18.6851 16.0969 18.2319 16.506V19.1726C18.6851 18.7637 19.0991 18.3189 19.9997 18.3189C21.6665 18.3189 21.6665 19.8426 23.3333 19.8426C25.0001 19.8426 25.0001 18.3189 26.6667 18.3189C28.3333 18.3189 28.3333 19.8426 29.9999 19.8426C31.6665 19.8426 31.6665 18.3189 33.3331 18.3189C34.9999 18.3189 34.9999 19.8426 36.6665 19.8426C38.2086 19.8426 38.3249 18.5394 39.6534 18.3442C39.7386 18.3442 39.8337 18.3433 39.9312 18.3422C39.8573 17.4427 39.7237 16.5602 39.5347 15.6984Z" fill="#0052B4"></path>
<path d="M38.0737 11.4277C37.7283 11.7178 37.3291 11.9587 36.6665 11.9587C34.9998 11.9587 34.9998 10.4348 33.3331 10.4348C31.6665 10.4348 31.6665 11.9587 29.9999 11.9587C28.3333 11.9587 28.3333 10.4348 26.6667 10.4348C25.0001 10.4348 25.0001 11.9587 23.3333 11.9587C21.6666 11.9587 21.6665 10.4348 19.9997 10.4348C19.0992 10.4348 18.6851 10.8797 18.2319 11.2887V13.9554C18.6851 13.5464 19.0991 13.1016 19.9997 13.1016C21.6665 13.1016 21.6665 14.6254 23.3333 14.6254C25 14.6254 25 13.1016 26.6666 13.1016C28.3333 13.1016 28.3333 14.6254 29.9998 14.6254C31.6664 14.6254 31.6664 13.1016 33.333 13.1016C34.9998 13.1016 34.9998 14.6254 36.6664 14.6254C37.849 14.6254 38.1934 13.8593 38.8887 13.4139C38.6518 12.7344 38.3797 12.0715 38.0737 11.4277Z" fill="#0052B4"></path>
<path d="M33.475 5.22159C33.4288 5.21909 33.3817 5.21753 33.3327 5.21753C31.6661 5.21753 31.6661 6.74144 29.9995 6.74144C28.3329 6.74144 28.3329 5.21753 26.6663 5.21753C24.9996 5.21753 24.9996 6.74144 23.3329 6.74144C21.6661 6.74144 21.6661 5.21753 19.9993 5.21753C19.0987 5.21753 18.6846 5.66237 18.2314 6.07144V8.73808C18.6846 8.32909 19.0986 7.88433 19.9993 7.88433C21.6661 7.88433 21.6661 9.40808 23.3329 9.40808C24.9996 9.40808 24.9996 7.88433 26.6662 7.88433C28.3329 7.88433 28.3329 9.40808 29.9994 9.40808C31.666 9.40808 31.6661 7.88433 33.3326 7.88433C34.9994 7.88433 34.9994 9.40808 36.666 9.40808C36.7686 9.40808 36.8645 9.40198 36.9553 9.39112C35.9872 7.84706 34.815 6.44417 33.475 5.22159Z" fill="#0052B4"></path>
<path d="M25.1116 0.660557C24.6541 1.07212 24.2406 1.52415 23.3329 1.52415C21.6661 1.52415 21.6661 0.000400391 19.9994 0.000244141H19.9991C19.1372 0.000322266 18.7211 0.4079 18.2896 0.801572V3.46829C18.721 3.07462 19.1373 2.66696 19.9994 2.66696C21.6662 2.66696 21.6662 4.19071 23.333 4.19071C24.9997 4.19071 24.9997 2.66696 26.6663 2.66696C28.333 2.66696 28.333 4.19071 29.9995 4.19071C30.6988 4.19071 31.1045 3.92228 31.4632 3.61087C29.562 2.27845 27.4184 1.2686 25.1116 0.660557Z" fill="#0052B4"></path>
<path d="M23.3332 38.0457C21.6664 38.0457 21.6664 36.5218 19.9996 36.5218C18.3329 36.5218 18.3329 38.0457 16.6664 38.0457C15 38.0457 15 36.5218 13.3333 36.5218C12.0567 36.5218 11.7572 37.4151 10.9385 37.8337C13.1963 38.9832 15.7015 39.7159 18.3531 39.9321C18.7632 39.5574 19.1797 39.1885 19.9996 39.1885C20.8196 39.1885 21.2362 39.5574 21.6464 39.9322C24.298 39.7161 26.8034 38.9833 29.0613 37.8338C28.2424 37.4152 27.943 36.5217 26.6665 36.5217C25 36.5218 25 38.0457 23.3332 38.0457Z" fill="#0052B4"></path>
<path d="M29.9996 32.8283C28.333 32.8283 28.333 31.3044 26.6664 31.3044C24.9998 31.3044 24.9998 32.8283 23.3331 32.8283C21.6663 32.8283 21.6663 31.3044 19.9995 31.3044C18.3328 31.3044 18.3328 32.8283 16.6663 32.8283C14.9999 32.8283 14.9999 31.3044 13.3332 31.3044C11.6664 31.3044 11.6664 32.8283 9.99963 32.8283C8.33283 32.8283 8.33283 31.3044 6.66604 31.3044C5.46752 31.3044 5.13096 32.0927 4.4165 32.5353C4.86432 33.0914 5.34041 33.6237 5.84424 34.1284C6.06994 34.032 6.33479 33.9712 6.66596 33.9712C8.33275 33.9712 8.33275 35.4949 9.99955 35.4949C11.6663 35.4949 11.6663 33.9712 13.3331 33.9712C14.9998 33.9712 14.9998 35.4949 16.6662 35.4949C18.3328 35.4949 18.3328 33.9712 19.9994 33.9712C21.6662 33.9712 21.6662 35.4949 23.333 35.4949C24.9998 35.4949 24.9998 33.9712 26.6663 33.9712C28.3329 33.9712 28.333 35.4949 29.9996 35.4949C31.6661 35.4949 31.6662 33.9712 33.3328 33.9712C33.6643 33.9712 33.9292 34.032 34.155 34.1286C34.6589 33.6238 35.135 33.0915 35.5828 32.5354C34.8683 32.0929 34.5317 31.3045 33.3328 31.3045C31.6662 31.3044 31.6662 32.8283 29.9996 32.8283Z" fill="#0052B4"></path>
<path d="M19.9463 20H19.9998C19.9998 19.9821 19.9998 19.9646 19.9998 19.9465C19.982 19.9644 19.9642 19.9822 19.9463 20Z" fill="#F3F6F9"></path>
<path d="M20.0004 10.4347V16.3107L13.0439 9.56519L20.0004 10.4347Z" fill="#0052B4"></path>
<path d="M10.435 19.9999H16.3108L10.435 12.1738L9.56543 18.2608L10.435 19.9999Z" fill="#0052B4"></path>
<path d="M20 10.4348C20 6.91563 20 4.60977 20 0H19.9966C8.9525 0.001875 0 8.95539 0 20H10.4348V14.1241L16.3106 20H19.9466C19.9644 19.9822 19.9822 19.9644 20.0001 19.9465C20.0001 18.5991 20.0001 17.3968 20.0001 16.3108L14.1241 10.4348H20Z" fill="#F3F6F9"></path>
<path d="M10.1186 2.60864C6.99053 4.38981 4.39006 6.99028 2.60889 10.1183V20H7.82631V7.82622V7.82607H20.0002C20.0002 6.18052 20.0002 4.61286 20.0002 2.60864H10.1186Z" fill="#D80027"></path>
<path d="M20.0003 17.5405L12.8944 10.4348H10.4351V10.435L20.0001 20H20.0003C20.0003 20 20.0003 18.3041 20.0003 17.5405Z" fill="#D80027"></path>
<path d="M26.0869 10.4348H33.913L30 14.3479L26.0869 10.4348Z" fill="#6DA544"></path>
<path d="M29.1304 13.4783H30.8695V18.2608H29.1304V13.4783Z" fill="#A2001D"></path>
<path d="M29.1304 26.0869H30.8695V30.8695H29.1304V26.0869Z" fill="#A2001D"></path>
<path d="M35.2175 23.4783C35.2175 22.0376 34.0495 20.8696 32.6088 20.8696C31.9405 20.8696 31.3313 21.1212 30.8697 21.5344V20H31.7392V18.2609H30.8697V17.3914H29.1305V18.2609H28.261V20H29.1305V21.5344C28.6689 21.1212 28.0597 20.8696 27.3914 20.8696C25.9507 20.8696 24.7827 22.0376 24.7827 23.4783C24.7827 24.2507 25.1187 24.9445 25.6522 25.4222V26.9566H34.3479V25.4222C34.8815 24.9445 35.2175 24.2507 35.2175 23.4783Z" fill="#FFDA44"></path>
<path d="M32.6088 22.6086C32.3345 22.6086 32.1425 22.7291 32.0296 22.83L30.8697 23.8684H29.1306L27.9707 22.83C27.8578 22.7291 27.6658 22.6086 27.3915 22.6086C26.9121 22.6086 26.522 22.9987 26.522 23.4782C26.522 23.8159 26.7041 24.0293 26.8126 24.1265L27.3916 24.645V25.2173H32.609V24.645L33.188 24.1265C33.2965 24.0293 33.4786 23.8159 33.4786 23.4782C33.4785 22.9987 33.0884 22.6086 32.6088 22.6086Z" fill="#D80027"></path>
</g>
<defs>
<clipPath id="clip0_1_4162">
<rect width="40" height="40" fill="white"></rect>
</clipPath>
</defs>
</svg>