<svg width="40" height="40" viewBox="0 0 40 40" fill="none" xmlns="http://www.w3.org/2000/svg">
<g clip-path="url(#clip0_1_3434)">
<path d="M20 40.0001C31.0457 40.0001 40 31.0458 40 20.0001C40 8.95443 31.0457 0.00012207 20 0.00012207C8.9543 0.00012207 0 8.95443 0 20.0001C0 31.0458 8.9543 40.0001 20 40.0001Z" fill="#F3F6F9"></path>
<path d="M26.4958 14.7826H23.879C23.9007 15.0702 23.9129 15.3603 23.9129 15.6521C23.9129 17.5868 23.4293 19.4621 22.5863 20.7969C22.3262 21.2086 21.8892 21.79 21.3042 22.1822V14.7825H18.6955V22.1822C18.1106 21.79 17.6735 21.2087 17.4134 20.7969C16.5703 19.4621 16.0868 17.5868 16.0868 15.6521C16.0868 15.3603 16.0991 15.0701 16.1207 14.7826H13.504C13.4872 15.0688 13.478 15.3586 13.478 15.6521C13.478 21.0159 16.3427 25.2174 19.9997 25.2174C23.6568 25.2174 26.5215 21.0159 26.5215 15.6521C26.5216 15.3586 26.5125 15.0688 26.4958 14.7826Z" fill="#FB2727"></path>
<path d="M8.26119 9.5653H10.8699V11.3044H13.4785V9.5653H16.0872V11.3044H18.6959V9.5653H21.3046V11.3044H23.9132V9.5653H26.5219V11.3044H29.1306V9.5653H31.7392V11.3044H38.0156C34.7808 4.61451 27.9295 6.10352e-05 20.0003 6.10352e-05C12.0712 6.10352e-05 5.21986 4.61451 1.98486 11.3044H8.26119V9.5653Z" fill="#75BB42"></path>
<path d="M31.7395 28.6957V30.4349H29.1308V28.6957H26.5221V30.4349H23.9135V28.6957H21.3048V30.4349H18.6961V28.6957H16.0874V30.4349H13.4788V28.6957H10.8699V30.4349H8.26119V28.6957H1.98486C5.21986 35.3857 12.0711 40.0001 20.0003 40.0001C27.9296 40.0001 34.7808 35.3857 38.0158 28.6957H31.7395Z" fill="#FB2727"></path>
</g>
<defs>
<clipPath id="clip0_1_3434">
<rect width="40" height="40" fill="white"></rect>
</clipPath>
</defs>
</svg>