<svg width="40" height="40" viewBox="0 0 40 40" fill="none" xmlns="http://www.w3.org/2000/svg">
<g clip-path="url(#clip0_1_3452)">
<path d="M20 39.9999C31.0457 39.9999 40 31.0456 40 19.9999C40 8.95421 31.0457 -9.15527e-05 20 -9.15527e-05C8.95431 -9.15527e-05 0 8.95421 0 19.9999C0 31.0456 8.95431 39.9999 20 39.9999Z" fill="#F3F6F9"></path>
<path d="M0.688965 25.2173C1.84615 29.511 4.39654 33.2324 7.82607 35.8675V25.2173H0.688965Z" fill="#0073FD"></path>
<path d="M18.2607 39.9238C18.834 39.9732 19.4138 39.9999 19.9999 39.9999C29.2404 39.9999 37.0159 33.7326 39.3109 25.2173H18.2607V39.9238Z" fill="#0073FD"></path>
<path d="M39.3109 14.7824C37.0159 6.26711 29.2404 -0.000152588 19.9999 -0.000152588C19.4138 -0.000152588 18.834 0.0265662 18.2607 0.0759411V14.7824H39.3109Z" fill="#0073FD"></path>
<path d="M7.82607 4.13229C4.39654 6.76745 1.84615 10.4888 0.688965 14.7824H7.82607V4.13229Z" fill="#0073FD"></path>
<path d="M39.8307 17.3912H15.6523H15.6522V0.475281C13.8039 0.885125 12.0516 1.54942 10.4348 2.43169V17.3911H0.169297C0.0579688 18.2451 0 19.1157 0 19.9999C0 20.884 0.0579688 21.7547 0.169297 22.6086H10.4347H10.4348V37.568C12.0516 38.4502 13.8039 39.1147 15.6522 39.5244V22.6088V22.6086H39.8307C39.9419 21.7547 40 20.884 40 19.9999C40 19.1157 39.9419 18.2451 39.8307 17.3912Z" fill="#FB2727"></path>
</g>
<defs>
<clipPath id="clip0_1_3452">
<rect width="40" height="40" fill="white"></rect>
</clipPath>
</defs>
</svg>