<svg width="40" height="40" viewBox="0 0 40 40" fill="none" xmlns="http://www.w3.org/2000/svg">
<g clip-path="url(#clip0_3546_142442)">
<path d="M20.0004 40C31.0461 40 40.0004 31.0457 40.0004 20C40.0004 8.9543 31.0461 0 20.0004 0C8.95473 0 0.000427246 8.9543 0.000427246 20C0.000427246 31.0457 8.95473 40 20.0004 40Z" fill="#F3F6F9"></path>
<path d="M40 20.0002C40 11.4009 34.5725 4.07 26.9565 1.24414V38.7562C34.5725 35.9303 40 28.5994 40 20.0002Z" fill="#FB2727"></path>
<path d="M6.10352e-05 20.0002C6.10352e-05 28.5995 5.42756 35.9303 13.0436 38.7562V1.24414C5.42756 4.07 6.10352e-05 11.4009 6.10352e-05 20.0002Z" fill="#75BB42"></path>
</g>
<defs>
<clipPath id="clip0_3546_142442">
<rect width="40" height="40" fill="white"></rect>
</clipPath>
</defs>
</svg>