<svg width="40" height="40" viewBox="0 0 40 40" fill="none" xmlns="http://www.w3.org/2000/svg">
<g clip-path="url(#clip0_1_4279)">
<path d="M20 40C31.0457 40 40 31.0457 40 20C40 8.9543 31.0457 0 20 0C8.9543 0 0 8.9543 0 20C0 31.0457 8.9543 40 20 40Z" fill="#F3F6F9"></path>
<path d="M35.8669 32.1778L23.6891 20.0002H23.6891L35.8669 7.82228C35.3416 7.13978 34.7671 6.48313 34.142 5.8579C33.5168 5.23274 32.8602 4.65813 32.1777 4.13306L19.9999 16.3108L19.9998 16.3109L7.82211 4.13306C7.13969 4.65821 6.48297 5.23267 5.85773 5.8579C5.2325 6.48313 4.65797 7.13978 4.13289 7.82228L16.3106 19.9999L16.3107 20L4.13281 32.1779C4.65805 32.8604 5.23258 33.517 5.85766 34.1423C6.48289 34.7674 7.13945 35.342 7.82203 35.8671L19.9998 23.6894L19.9999 23.6893L32.1777 35.867C32.8601 35.3419 33.5168 34.7674 34.142 34.1422C34.7673 33.517 35.3417 32.8603 35.8669 32.1778Z" fill="#D80027"></path>
<path d="M16.5215 6.08707L19.9998 6.9566L23.478 6.08707V3.13059L22.0867 3.82621L19.9998 1.73926L17.9128 3.82621L16.5215 3.13059V6.08707Z" fill="#FFDA44"></path>
<path d="M16.5215 6.08691V8.26098C16.5215 10.9235 19.9998 11.7393 19.9998 11.7393C19.9998 11.7393 23.478 10.9234 23.478 8.26098V6.08691H16.5215Z" fill="#D80027"></path>
</g>
<defs>
<clipPath id="clip0_1_4279">
<rect width="40" height="40" fill="white"></rect>
</clipPath>
</defs>
</svg>