<svg width="40" height="40" viewBox="0 0 40 40" fill="none" xmlns="http://www.w3.org/2000/svg">
<g clip-path="url(#clip0_1_3400)">
<path d="M20 39.9999C31.0457 39.9999 40 31.0456 40 19.9999C40 8.95421 31.0457 -9.15527e-05 20 -9.15527e-05C8.9543 -9.15527e-05 0 8.95421 0 19.9999C0 31.0456 8.9543 39.9999 20 39.9999Z" fill="#FFDA44"></path>
<path d="M32.1763 4.13437C28.8039 1.54211 24.5824 0 20.0001 0C15.4177 0 11.1962 1.54219 7.82373 4.13437L20.0001 16.3106L32.1763 4.13437Z" fill="#75BB42"></path>
<path d="M4.1343 7.82382C1.54219 11.1962 0 15.4177 0 20.0001C0 24.5824 1.54219 28.804 4.13438 32.1765L16.3107 20.0001L4.1343 7.82382Z" fill="black"></path>
<path d="M7.82373 35.8657C11.1962 38.458 15.4177 40.0001 20.0001 40.0001C24.5824 40.0001 28.8039 38.4579 32.1764 35.8657L20.0001 23.6895L7.82373 35.8657Z" fill="#75BB42"></path>
<path d="M35.8657 32.1763C38.458 28.8039 40.0001 24.5824 40.0001 20.0001C40.0001 15.4177 38.458 11.1962 35.8657 7.82382L23.6895 20.0001L35.8657 32.1763Z" fill="black"></path>
</g>
<defs>
<clipPath id="clip0_1_3400">
<rect width="40" height="40" fill="white"></rect>
</clipPath>
</defs>
</svg>