<svg width="40" height="40" viewBox="0 0 40 40" fill="none" xmlns="http://www.w3.org/2000/svg">
<g clip-path="url(#clip0_1_3389)">
<path d="M20 39.9999C31.0457 39.9999 40 31.0456 40 19.9999C40 8.95418 31.0457 -0.00012207 20 -0.00012207C8.9543 -0.00012207 0 8.95418 0 19.9999C0 31.0456 8.9543 39.9999 20 39.9999Z" fill="#F3F6F9"></path>
<path d="M12.1738 13.0435H38.7558C35.93 5.42744 28.5991 -6.10352e-05 19.9999 -6.10352e-05C14.4769 -6.10352e-05 9.47746 2.23892 5.8584 5.85845L12.1738 13.0435Z" fill="black"></path>
<path d="M12.1738 26.9564H38.7558C35.93 34.5724 28.5991 39.9999 19.9999 39.9999C14.4769 39.9999 9.47746 37.761 5.8584 34.1414L12.1738 26.9564Z" fill="#75BB42"></path>
<path d="M5.85785 5.85779C-1.95262 13.6683 -1.95262 26.3316 5.85785 34.1422C9.08543 30.9146 12.1896 27.8104 20 20L5.85785 5.85779Z" fill="#FB2727"></path>
<path d="M7.93813 15.6522L9.03571 17.9474L11.5145 17.3745L10.4044 19.6636L12.3977 21.2444L9.91594 21.8037L9.92282 24.3478L7.93813 22.7561L5.95336 24.3478L5.96031 21.8037L3.47852 21.2444L5.4718 19.6636L4.3618 17.3745L6.84047 17.9474L7.93813 15.6522Z" fill="#F3F6F9"></path>
</g>
<defs>
<clipPath id="clip0_1_3389">
<rect width="40" height="40" fill="white"></rect>
</clipPath>
</defs>
</svg>