<svg width="40" height="40" viewBox="0 0 40 40" fill="none" xmlns="http://www.w3.org/2000/svg">
<g clip-path="url(#clip0_1_3368)">
<path d="M20 39.9999C31.0457 39.9999 40 31.0456 40 19.9999C40 8.95421 31.0457 -9.15527e-05 20 -9.15527e-05C8.9543 -9.15527e-05 0 8.95421 0 19.9999C0 31.0456 8.9543 39.9999 20 39.9999Z" fill="#F3F6F9"></path>
<path d="M19.9998 -9.15527e-05C12.0706 -9.15527e-05 5.21937 4.61436 1.98438 11.3043H38.0152C34.7803 4.61436 27.929 -9.15527e-05 19.9998 -9.15527e-05Z" fill="black"></path>
<path d="M19.9998 40C12.0706 40 5.21937 35.3855 1.98438 28.6956H38.0152C34.7803 35.3855 27.929 40 19.9998 40Z" fill="#496E2D"></path>
<path d="M39.0555 13.9129H0.944453C0.331797 15.8324 0 17.8773 0 19.9999C0 22.1224 0.331797 24.1674 0.944453 26.0868H39.0555C39.6682 24.1674 40 22.1224 40 19.9999C40 17.8773 39.6682 15.8324 39.0555 13.9129Z" fill="#A2001D"></path>
<path d="M26.2279 9.24216L23.8594 8.14896L20.0002 16.8873L16.141 8.14896L13.7725 9.24216L18.5637 19.9999L13.7725 30.7576L16.141 31.8508L20.0002 23.1125L23.8594 31.8508L26.2279 30.7576L21.4367 19.9999L26.2279 9.24216Z" fill="#F3F6F9"></path>
<path d="M21.6089 10.2724C20.6921 9.27112 20.0003 8.6955 20.0003 8.6955C20.0003 8.6955 19.3085 9.27104 18.3916 10.2724V29.7271C19.3085 30.7286 20.0003 31.3042 20.0003 31.3042C20.0003 31.3042 20.6921 30.7287 21.6089 29.7272V10.2724Z" fill="#F3F6F9"></path>
<path d="M15.6523 14.0031V25.9963C16.6213 27.7131 17.8071 29.1202 18.6959 30.0532V9.94626C17.8071 10.8791 16.6212 12.2864 15.6523 14.0031Z" fill="#A2001D"></path>
<path d="M24.3482 14.0031C23.3792 12.2863 22.1934 10.8791 21.3047 9.94626V30.0532C22.1934 29.1202 23.3792 27.7131 24.3482 25.9963V14.0031Z" fill="#A2001D"></path>
<path d="M24.3477 14.0033V25.9964C25.3285 24.2582 26.0868 22.2028 26.0868 19.9999C26.0868 17.797 25.3285 15.7416 24.3477 14.0033Z" fill="black"></path>
<path d="M15.6522 14.0033V25.9964C14.6714 24.2582 13.9131 22.2028 13.9131 19.9999C13.9131 17.797 14.6714 15.7416 15.6522 14.0033Z" fill="black"></path>
</g>
<defs>
<clipPath id="clip0_1_3368">
<rect width="40" height="40" fill="white"></rect>
</clipPath>
</defs>
</svg>