<svg width="40" height="40" viewBox="0 0 40 40" fill="none" xmlns="http://www.w3.org/2000/svg">
<g clip-path="url(#clip0_1_3340)">
<path d="M20 39.9999C31.0457 39.9999 40 31.0456 40 19.9999C40 8.95424 31.0457 -6.10352e-05 20 -6.10352e-05C8.95431 -6.10352e-05 0 8.95424 0 19.9999C0 31.0456 8.95431 39.9999 20 39.9999Z" fill="#FB2727"></path>
<path d="M29.7813 19.9998L25.7848 21.8797L27.913 25.7505L23.5729 24.9201L23.0232 29.3042L20.0002 26.08L16.9774 29.3042L16.4274 24.9201L12.0878 25.7504L14.2159 21.8795L10.2192 19.9998L14.2159 18.12L12.0878 14.2491L16.4273 15.0796L16.9775 10.6954L20.0002 13.9197L23.0234 10.6954L23.5729 15.0796L27.9131 14.2491L25.7849 18.1203L29.7813 19.9998Z" fill="#FFDA44"></path>
<path d="M20 26.0868C23.3618 26.0868 26.087 23.3616 26.087 19.9999C26.087 16.6381 23.3618 13.9129 20 13.9129C16.6383 13.9129 13.9131 16.6381 13.9131 19.9999C13.9131 23.3616 16.6383 26.0868 20 26.0868Z" fill="#FB2727"></path>
<path d="M16.9568 19.9999C16.8101 19.9999 16.6654 20.0074 16.5225 20.0216C16.5277 20.8646 16.8327 21.6363 17.3364 22.2357C17.6052 21.5125 18.0064 20.8531 18.5125 20.2887C18.0292 20.1028 17.5049 19.9999 16.9568 19.9999Z" fill="#FFDA44"></path>
<path d="M18.8306 23.2758C19.1962 23.4064 19.5899 23.4781 20.0005 23.4781C20.4111 23.4781 20.8048 23.4064 21.1704 23.2758C20.9711 22.4936 20.5596 21.7953 20.0005 21.2466C19.4413 21.7953 19.0299 22.4936 18.8306 23.2758Z" fill="#FFDA44"></path>
<path d="M23.0125 18.2612C22.4111 17.2217 21.2879 16.5215 20.0004 16.5215C18.7129 16.5215 17.5897 17.2216 16.9883 18.2612C18.0847 18.2668 19.1128 18.5649 20.0004 19.0797C20.888 18.5649 21.9159 18.2668 23.0125 18.2612Z" fill="#FFDA44"></path>
<path d="M21.4878 20.2887C21.9938 20.853 22.3951 21.5125 22.6638 22.2357C23.1676 21.6363 23.4726 20.8646 23.4778 20.0216C23.3348 20.0073 23.1901 19.9999 23.0435 19.9999C22.4955 19.9998 21.9712 20.1028 21.4878 20.2887Z" fill="#FFDA44"></path>
</g>
<defs>
<clipPath id="clip0_1_3340">
<rect width="40" height="40" fill="white"></rect>
</clipPath>
</defs>
</svg>