<svg width="40" height="40" viewBox="0 0 40 40" fill="none" xmlns="http://www.w3.org/2000/svg">
<g clip-path="url(#clip0_1_3052)">
<path d="M19.9995 40C31.0452 40 39.9995 31.0457 39.9995 20C39.9995 8.9543 31.0452 0 19.9995 0C8.95382 0 -0.000488281 8.9543 -0.000488281 20C-0.000488281 31.0457 8.95382 40 19.9995 40Z" fill="#F3F6F9"></path>
<path d="M19.9999 0C13.9381 0 8.5066 2.69719 4.83887 6.95648H35.1608C31.4932 2.69719 26.0617 0 19.9999 0Z" fill="#0073FD"></path>
<path d="M35.1609 33.0435H4.83887C8.5066 37.3028 13.9381 40 19.9999 40C26.0617 40 31.4932 37.3028 35.1609 33.0435Z" fill="#0073FD"></path>
<path d="M37.0645 9.56519H2.93547C1.07383 12.6031 0 16.176 0 20C0 23.8239 1.07383 27.3969 2.93547 30.4347H37.0645C38.9262 27.3969 40 23.8239 40 20C40 16.176 38.9262 12.6031 37.0645 9.56519Z" fill="#FB2727"></path>
<path d="M12.3045 27.6956C16.5547 27.6956 20.0001 24.2502 20.0001 20C20.0001 15.7498 16.5547 12.3044 12.3045 12.3044C8.05434 12.3044 4.60889 15.7498 4.60889 20C4.60889 24.2502 8.05434 27.6956 12.3045 27.6956Z" fill="#F3F6F9"></path>
<path d="M12.3042 12.3044L14.0308 17.6185H19.6275L15.0981 20.9031L16.8382 26.2331L12.3042 22.9329L7.77697 26.2269L9.51025 20.9031L4.98486 17.6185H10.5774L12.3042 12.3044Z" fill="#FB2727"></path>
</g>
<defs>
<clipPath id="clip0_1_3052">
<rect width="40" height="40" fill="white"></rect>
</clipPath>
</defs>
</svg>