<svg width="40" height="40" viewBox="0 0 40 40" fill="none" xmlns="http://www.w3.org/2000/svg">
<g clip-path="url(#clip0_3546_141916)">
<path d="M20 40C31.0457 40 40 31.0457 40 20C40 8.9543 31.0457 0 20 0C8.95431 0 0 8.9543 0 20C0 31.0457 8.95431 40 20 40Z" fill="#F3F6F9"></path>
<path d="M26.9567 19.9999C26.9567 21.7391 23.8421 26.0869 20.0002 26.0869C16.1582 26.0869 13.0437 21.7391 13.0437 19.9999C13.0437 16.1579 16.1582 13.0435 20.0002 13.0435C23.8421 13.0435 26.9567 16.1579 26.9567 19.9999Z" fill="#FB2727"></path>
<path d="M26.9567 20C26.9567 23.842 23.8421 26.9565 20.0002 26.9565C16.1582 26.9565 13.0437 23.842 13.0437 20" fill="#0073FD"></path>
<path d="M27.373 26.1489L29.2174 24.3046L30.4469 25.5342L28.6026 27.3785L27.373 26.1489Z" fill="black"></path>
<path d="M24.2983 29.2231L26.1427 27.3788L27.3722 28.6084L25.5279 30.4527L24.2983 29.2231Z" fill="black"></path>
<path d="M31.0623 29.8374L32.9066 27.9931L34.1362 29.2226L32.2918 31.067L31.0623 29.8374Z" fill="black"></path>
<path d="M27.9875 32.9121L29.8319 31.0678L31.0614 32.2974L29.2171 34.1417L27.9875 32.9121Z" fill="black"></path>
<path d="M29.2175 27.9932L31.0619 26.1488L32.2914 27.3784L30.4471 29.2227L29.2175 27.9932Z" fill="black"></path>
<path d="M26.1436 31.0674L27.9879 29.223L29.2175 30.4526L27.3731 32.297L26.1436 31.0674Z" fill="black"></path>
<path d="M31.0703 13.8545L26.1521 8.93626L27.3817 7.70669L32.2999 12.6249L31.0703 13.8545Z" fill="black"></path>
<path d="M26.1511 12.625L24.3068 10.7807L25.5363 9.55115L27.3806 11.3955L26.1511 12.625Z" fill="black"></path>
<path d="M29.2251 15.6997L27.3808 13.8554L28.6103 12.6259L30.4546 14.4702L29.2251 15.6997Z" fill="black"></path>
<path d="M29.8394 8.93604L27.995 7.0917L29.2246 5.86213L31.0689 7.70646L29.8394 8.93604Z" fill="black"></path>
<path d="M32.915 12.0107L31.0707 10.1664L32.3003 8.93684L34.1446 10.7812L32.915 12.0107Z" fill="black"></path>
<path d="M7.09033 27.9897L12.0086 32.908L10.779 34.1376L5.86076 29.2193L7.09033 27.9897Z" fill="black"></path>
<path d="M12.0083 29.2183L13.8526 31.0626L12.6231 32.2921L10.7788 30.4478L12.0083 29.2183Z" fill="black"></path>
<path d="M8.93408 26.145L10.7784 27.9894L9.54884 29.2189L7.70451 27.3746L8.93408 26.145Z" fill="black"></path>
<path d="M10.7786 24.3003L15.6968 29.2185L14.4672 30.4481L9.54899 25.5299L10.7786 24.3003Z" fill="black"></path>
<path d="M12.0081 7.08789L7.08982 12.0061L5.86025 10.7766L10.7785 5.85832L12.0081 7.08789Z" fill="black"></path>
<path d="M13.8523 8.93164L8.93406 13.8499L7.70449 12.6203L12.6227 7.70207L13.8523 8.93164Z" fill="black"></path>
<path d="M15.6985 10.7773L10.7803 15.6956L9.55074 14.4661L14.469 9.54783L15.6985 10.7773Z" fill="black"></path>
</g>
<defs>
<clipPath id="clip0_3546_141916">
<rect width="40" height="40" fill="white"></rect>
</clipPath>
</defs>
</svg>