<svg width="40" height="40" viewBox="0 0 40 40" fill="none" xmlns="http://www.w3.org/2000/svg">
<g clip-path="url(#clip0_1_3382)">
<path d="M20 39.9999C31.0457 39.9999 40 31.0456 40 19.9999C40 8.95421 31.0457 -9.15527e-05 20 -9.15527e-05C8.9543 -9.15527e-05 0 8.95421 0 19.9999C0 31.0456 8.9543 39.9999 20 39.9999Z" fill="#338AF3"></path>
<path d="M31.3046 20.2173H8.6958C8.6958 21.7781 10.0553 23.0434 11.616 23.0434H11.5219C11.5219 24.6042 12.7871 25.8695 14.348 25.8695C14.348 27.4303 15.6132 28.6956 17.1741 28.6956H22.8263C24.3871 28.6956 25.6524 27.4303 25.6524 25.8695C27.2132 25.8695 28.4785 24.6042 28.4785 23.0434H28.3844C29.9449 23.0434 31.3046 21.7781 31.3046 20.2173Z" fill="#FFDA44"></path>
<path d="M27.826 16.5216C27.826 20.8438 24.3221 24.3477 19.9999 24.3477C15.6777 24.3477 12.1738 20.8438 12.1738 16.5216" fill="#338AF3"></path>
<path d="M25.9779 16.5216L23.5354 17.6706L24.8361 20.0362L22.1837 19.5288L21.8476 22.2081L20.0002 20.2374L18.1527 22.2081L17.8167 19.5288L15.1643 20.036L16.465 17.6705L14.0225 16.5216L16.465 15.3727L15.1643 13.0071L17.8166 13.5145L18.1528 10.8351L20.0002 12.8058L21.8477 10.8351L22.1837 13.5145L24.8361 13.0071L23.5354 15.3727L25.9779 16.5216Z" fill="#FFDA44"></path>
</g>
<defs>
<clipPath id="clip0_1_3382">
<rect width="40" height="40" fill="white"></rect>
</clipPath>
</defs>
</svg>