<svg width="40" height="40" viewBox="0 0 40 40" fill="none" xmlns="http://www.w3.org/2000/svg">
<g clip-path="url(#clip0_1_3332)">
<path d="M38.0153 11.3042C34.7803 4.6143 27.9291 -0.000152588 19.9998 -0.000152588C12.0706 -0.000152588 5.21938 4.6143 1.98438 11.3042L19.9998 13.0434L38.0153 11.3042Z" fill="#FB2727"></path>
<path d="M1.98438 28.6954C5.21938 35.3854 12.0706 39.9998 19.9998 39.9998C27.9291 39.9998 34.7803 35.3854 38.0153 28.6954L19.9998 26.9563L1.98438 28.6954Z" fill="#FB2727"></path>
<path d="M38.0155 11.3043H1.98453C0.713125 13.9336 0 16.8834 0 19.9999C0 23.1164 0.713125 26.0662 1.98453 28.6955H38.0154C39.287 26.0662 40 23.1164 40 19.9999C40 16.8834 39.287 13.9336 38.0155 11.3043Z" fill="#0073FD"></path>
<path d="M19.9999 26.9564C23.8419 26.9564 26.9564 23.8418 26.9564 19.9999C26.9564 16.1579 23.8419 13.0434 19.9999 13.0434C16.158 13.0434 13.0435 16.1579 13.0435 19.9999C13.0435 23.8418 16.158 26.9564 19.9999 26.9564Z" fill="#F3F6F9"></path>
</g>
<defs>
<clipPath id="clip0_1_3332">
<rect width="40" height="40" fill="white"></rect>
</clipPath>
</defs>
</svg>