<svg width="40" height="40" viewBox="0 0 40 40" fill="none" xmlns="http://www.w3.org/2000/svg">
<g clip-path="url(#clip0_1_3319)">
<path d="M20 39.9999C31.0457 39.9999 40 31.0456 40 19.9999C40 8.95424 31.0457 -6.10352e-05 20 -6.10352e-05C8.9543 -6.10352e-05 0 8.95424 0 19.9999C0 31.0456 8.9543 39.9999 20 39.9999Z" fill="#F3F6F9"></path>
<path d="M19.9998 -0.000183105C12.0706 -0.000183105 5.21938 4.61427 1.98438 11.3042H38.0152C34.7803 4.61427 27.929 -0.000183105 19.9998 -0.000183105Z" fill="#FB2727"></path>
<path d="M19.9998 39.9999C27.929 39.9999 34.7803 35.3854 38.0153 28.6955H1.98438C5.21937 35.3854 12.0706 39.9999 19.9998 39.9999Z" fill="#FB2727"></path>
<path d="M25.2176 23.4781L20.0001 13.9129L14.7827 23.4781H18.6958V26.0868H21.3045V23.4781H25.2176Z" fill="#75BB42"></path>
</g>
<defs>
<clipPath id="clip0_1_3319">
<rect width="40" height="40" fill="white"></rect>
</clipPath>
</defs>
</svg>