<svg width="40" height="40" viewBox="0 0 40 40" fill="none" xmlns="http://www.w3.org/2000/svg">
<g clip-path="url(#clip0_1_3282)">
<path d="M40 20C40 31.0457 31.0456 40 20 40C8.95437 40 0 31.0457 0 20C0.869531 20 20 17.3914 20 17.3914L40 20Z" fill="#FB2727"></path>
<path d="M0.000488281 20C0.000488281 8.95438 8.95486 0 20.0005 0C31.0461 0 40.0005 8.95438 40.0005 20" fill="#0073FD"></path>
<path d="M14.7824 13.9131C14.7824 12.4724 13.6145 11.3044 12.1738 11.3044C11.5054 11.3044 10.8963 11.556 10.4346 11.9692V10.4348H11.3041V8.69564H10.4346V7.82611H8.69547V8.69564H7.82594V10.4348H8.69547V11.9692C8.23383 11.556 7.62469 11.3044 6.95633 11.3044C5.51562 11.3044 4.34766 12.4724 4.34766 13.9131C4.34766 14.6855 4.68367 15.3792 5.21719 15.857V17.3913H13.9128V15.857C14.4465 15.3792 14.7824 14.6855 14.7824 13.9131Z" fill="#FFDA44"></path>
</g>
<defs>
<clipPath id="clip0_1_3282">
<rect width="40" height="40" fill="white"></rect>
</clipPath>
</defs>
</svg>