<svg width="40" height="40" viewBox="0 0 40 40" fill="none" xmlns="http://www.w3.org/2000/svg">
<g clip-path="url(#clip0_1_2876)">
<path d="M20 39.9998C31.0456 39.9998 39.9999 31.0455 39.9999 19.9998C39.9999 8.95417 31.0456 -0.00012207 20 -0.00012207C8.95429 -0.00012207 0 8.95417 0 19.9998C0 31.0455 8.95429 39.9998 20 39.9998Z" fill="#FFDA44"></path>
<path d="M15.6522 3.47815H8.72754C8.42067 3.68792 8.12036 3.90628 7.82606 4.13229L6.08691 19.9998L7.82606 35.8674C8.12036 36.0934 8.42067 36.3118 8.72754 36.5215H15.6522V3.47815Z" fill="#FF9811"></path>
<path d="M0 20.0001C0 26.4645 3.06782 32.2116 7.82611 35.8676V4.13245C3.06782 7.78855 0 13.5356 0 20.0001Z" fill="#75BB42"></path>
<path d="M32.1738 12.1924V12.6928L32.1924 12.6956L32.1738 12.1924Z" fill="#FFDA44"></path>
<path d="M38.4057 25.2173H34.6375L33.0434 26.9564V30.4347H29.5651V28.6955H31.3042V25.2173H23.4781V27.3912H21.739V23.2481C21.2054 22.7705 20.8694 22.0766 20.8694 21.3042V9.99988C20.8694 8.55918 22.0374 7.3912 23.4781 7.3912V23.4782H26.9564L28.1498 22.4836C27.9414 21.9871 27.8259 21.4419 27.8259 20.8695V18.2608H25.2172V13.0435H30.4346C30.4346 12.1739 31.739 11.3043 31.739 11.3043C31.739 11.3043 33.0434 12.1739 33.0434 13.0435V14.3479V18.2609C34.0108 18.2724 35.5478 18.2473 37.2084 18.2609C36.7721 17.4984 36.5216 16.5936 36.5216 15.6522C36.5216 14.1178 37.1841 12.7382 38.2386 11.7836C36.7186 8.41519 34.2931 5.54315 31.2723 3.47815H18.2607V36.5217H31.2723C34.9457 34.0106 37.7386 30.3066 39.0936 25.9677L38.4057 25.2173Z" fill="#A2001D"></path>
</g>
<defs>
<clipPath id="clip0_1_2876">
<rect width="40" height="40" fill="white"></rect>
</clipPath>
</defs>
</svg>