<svg width="40" height="40" viewBox="0 0 40 40" fill="none" xmlns="http://www.w3.org/2000/svg">
<g clip-path="url(#clip0_1_3295)">
<path d="M20 40.0001C31.0457 40.0001 40 31.0458 40 20.0001C40 8.95437 31.0457 6.10352e-05 20 6.10352e-05C8.95431 6.10352e-05 0 8.95437 0 20.0001C0 31.0458 8.95431 40.0001 20 40.0001Z" fill="#F3F6F9"></path>
<path d="M4.57178 7.27286H35.4286C34.289 5.89279 32.9671 4.66896 31.5008 3.63654H8.49967C7.03334 4.6688 5.71154 5.89271 4.57178 7.27286Z" fill="#F3F6F9"></path>
<path d="M0 20.0001C0 20.6131 0.0291406 21.2192 0.083125 21.8183H39.9169C39.9709 21.2192 40 20.6131 40 20.0001C40 19.387 39.9709 18.7809 39.9169 18.1819H0.083125C0.0291406 18.7809 0 19.387 0 20.0001H0Z" fill="#F3F6F9"></path>
<path d="M2.18123 29.0909H37.8194C38.4083 27.9389 38.8886 26.7224 39.2472 25.4547H0.753418C1.11193 26.7224 1.5924 27.9389 2.18123 29.0909Z" fill="#F3F6F9"></path>
<path d="M8.49967 36.3637H31.5007C32.967 35.3313 34.2889 34.1074 35.4286 32.7274H4.57178C5.71154 34.1073 7.03334 35.3313 8.49967 36.3637Z" fill="#F3F6F9"></path>
<path d="M0.75293 14.5455H39.2468C38.8882 13.2777 38.4079 12.0611 37.819 10.9092H2.18082C1.59199 12.0611 1.11152 13.2777 0.75293 14.5455Z" fill="#F3F6F9"></path>
<path d="M9.56494 3.63633H31.5002C28.2471 1.34586 24.2807 0 19.9997 0C17.391 0 12.8181 1.34586 9.56494 3.63633Z" fill="#FB2727"></path>
<path d="M19.1304 10.9092H37.819C37.1539 9.60814 36.3506 8.38947 35.4283 7.27283H19.1304V10.9092Z" fill="#FB2727"></path>
<path d="M19.1304 18.1819H39.9168C39.8043 16.9333 39.5782 15.7174 39.2469 14.5456H19.1304V18.1819Z" fill="#FB2727"></path>
<path d="M0.753008 25.4547H39.2468C39.5782 24.283 39.8043 23.067 39.9168 21.8184H0.0830078C0.195508 23.067 0.421602 24.2829 0.753008 25.4547Z" fill="#FB2727"></path>
<path d="M4.57129 32.7272H35.4282C36.3504 31.6104 37.1537 30.3918 37.8188 29.0909H2.18066C2.84574 30.3919 3.64902 31.6106 4.57129 32.7272Z" fill="#FB2727"></path>
<path d="M20.0001 40C24.2811 40 28.2475 38.6542 31.5006 36.3637H8.49951C11.7526 38.6542 15.719 40 20.0001 40Z" fill="#FB2727"></path>
<path d="M0.75293 14.5455C0.421523 15.7173 0.195508 16.9332 0.0830078 18.1818H19.9999V0C10.8452 0 3.1273 6.15094 0.75293 14.5455Z" fill="#0073FD"></path>
<path d="M11.9053 5.21747L13.2002 9.20301H17.3913L14.0008 11.6665L15.2957 15.6522L11.9053 13.189L8.51475 15.6522L9.8099 11.6665L6.41943 9.20301H10.6103L11.9053 5.21747Z" fill="#F3F6F9"></path>
</g>
<defs>
<clipPath id="clip0_1_3295">
<rect width="40" height="40" fill="white"></rect>
</clipPath>
</defs>
</svg>