<svg width="40" height="40" viewBox="0 0 40 40" fill="none" xmlns="http://www.w3.org/2000/svg">
<g clip-path="url(#clip0_1_3313)">
<path d="M0 19.9999C0 23.1163 0.713047 26.0662 1.98453 28.6955L20 29.5652L38.0155 28.6956C39.2869 26.0662 40 23.1163 40 19.9999C40 16.8835 39.2869 13.9337 38.0155 11.3043L20 10.4347L1.98453 11.3042C0.713047 13.9337 0 16.8835 0 19.9999H0Z" fill="#F3F6F9"></path>
<path d="M20.0003 40C27.9295 40 34.7808 35.3855 38.0158 28.6956H1.98486C5.21986 35.3855 12.0711 40 20.0003 40Z" fill="#75BB42"></path>
<path d="M20.0003 -6.10352e-05C12.0711 -6.10352e-05 5.21986 4.61439 1.98486 11.3043H38.0157C34.7808 4.61439 27.9295 -6.10352e-05 20.0003 -6.10352e-05Z" fill="#0073FD"></path>
<path d="M21.3044 19.5651V14.7825H18.6957V19.5651L15.5449 22.716C16.4612 24.216 18.1137 25.2173 20.0001 25.2173C21.8865 25.2173 23.5388 24.216 24.4552 22.716L21.3044 19.5651Z" fill="black"></path>
</g>
<defs>
<clipPath id="clip0_1_3313">
<rect width="40" height="40" fill="white"></rect>
</clipPath>
</defs>
</svg>