<svg width="40" height="40" viewBox="0 0 40 40" fill="none" xmlns="http://www.w3.org/2000/svg">
<g clip-path="url(#clip0_1_3277)">
<path d="M38.756 26.9565C39.56 24.7899 40 22.4464 40 20C40 17.5536 39.56 15.2101 38.756 13.0435L20 11.3044L1.24398 13.0435C0.44 15.2101 0 17.5536 0 20C0 22.4464 0.44 24.7899 1.24398 26.9565L20 28.6956L38.756 26.9565Z" fill="#75BB42"></path>
<path d="M38.7557 13.0435C35.9298 5.4275 28.599 0 19.9997 0C11.4004 0 4.06951 5.4275 1.24365 13.0435H38.7557Z" fill="#FFDA44"></path>
<path d="M19.9997 40.0001C28.599 40.0001 35.9298 34.5726 38.7557 26.9565H1.24365C4.06951 34.5726 11.4004 40.0001 19.9997 40.0001Z" fill="#FB2727"></path>
</g>
<defs>
<clipPath id="clip0_1_3277">
<rect width="40" height="40" fill="white"></rect>
</clipPath>
</defs>
</svg>