<svg width="40" height="40" viewBox="0 0 40 40" fill="none" xmlns="http://www.w3.org/2000/svg">
<g clip-path="url(#clip0_1_3326)">
<path d="M20 40.0001C31.0457 40.0001 40 31.0458 40 20.0001C40 8.9544 31.0457 9.15527e-05 20 9.15527e-05C8.9543 9.15527e-05 0 8.9544 0 20.0001C0 31.0458 8.9543 40.0001 20 40.0001Z" fill="#F3F6F9"></path>
<path d="M20 0.00012207C10.7594 0.00012207 2.98397 6.26739 0.688965 14.7827H39.3111C37.016 6.26739 29.2405 0.00012207 20 0.00012207Z" fill="#A2001D"></path>
<path d="M20 40.0002C29.2405 40.0002 37.016 33.7329 39.311 25.2176H0.688965C2.98397 33.7328 10.7594 40.0002 20 40.0002Z" fill="#A2001D"></path>
</g>
<defs>
<clipPath id="clip0_1_3326">
<rect width="40" height="40" fill="white"></rect>
</clipPath>
</defs>
</svg>