<svg width="40" height="40" viewBox="0 0 40 40" fill="none" xmlns="http://www.w3.org/2000/svg">
<g clip-path="url(#clip0_1_3287)">
<path d="M1.98453 11.3044C0.713125 13.9338 0 16.8836 0 20.0001C0 23.1166 0.713125 26.0663 1.98453 28.6957L20 30.4348L38.0155 28.6957C39.2869 26.0663 40 23.1166 40 20.0001C40 16.8836 39.2869 13.9338 38.0155 11.3044L20 9.56531L1.98453 11.3044Z" fill="black"></path>
<path d="M1.98535 28.6957C5.2202 35.3856 12.0709 40.0001 20.0001 40.0001C27.9293 40.0001 34.78 35.3856 38.0149 28.6957H1.98535Z" fill="#496E2D"></path>
<path d="M1.98535 11.3044H38.0149C34.78 4.61445 27.9293 0 20.0001 0C12.0709 0 5.2202 4.61445 1.98535 11.3044Z" fill="#FB2727"></path>
<path d="M24.6551 16.3427L26.296 18.604L28.9536 17.7423L27.31 20.0016L28.9508 22.2629L26.2942 21.3979L24.6506 23.6573L24.6523 20.8634L21.9956 19.9984L24.6533 19.1367L24.6551 16.3427Z" fill="#F3F6F9"></path>
<path d="M20.1768 25.6522C17.0552 25.6522 14.5246 23.1216 14.5246 20C14.5246 16.8785 17.0552 14.3478 20.1768 14.3478C21.1501 14.3478 22.0659 14.5939 22.8654 15.0272C21.6111 13.8006 19.8958 13.0435 18.0029 13.0435C14.1608 13.0435 11.0464 16.158 11.0464 19.9999C11.0464 23.8419 14.1609 26.9564 18.0029 26.9564C19.8958 26.9564 21.6112 26.1993 22.8654 24.9727C22.0658 25.4061 21.1501 25.6522 20.1768 25.6522Z" fill="#F3F6F9"></path>
</g>
<defs>
<clipPath id="clip0_1_3287">
<rect width="40" height="40" fill="white"></rect>
</clipPath>
</defs>
</svg>