<svg width="40" height="40" viewBox="0 0 40 40" fill="none" xmlns="http://www.w3.org/2000/svg">
<g clip-path="url(#clip0_1_3177)">
<path d="M28.6958 1.98453C26.0664 0.713125 23.1166 0 20.0002 0C16.8838 0 13.9339 0.713125 11.3046 1.98453L9.56543 20L11.3046 38.0155C13.9339 39.2869 16.8838 40 20.0002 40C23.1166 40 26.0664 39.2869 28.6958 38.0155L30.435 20L28.6958 1.98453Z" fill="#FFDA44"></path>
<path d="M11.3044 1.98523C4.61453 5.22015 0 12.0709 0 20C0 27.9291 4.61453 34.7798 11.3044 38.0148V1.98523Z" fill="#0073FD"></path>
<path d="M28.6958 1.98523V38.0148C35.3856 34.7798 40.0002 27.9291 40.0002 20C40.0002 12.0709 35.3856 5.22015 28.6958 1.98523Z" fill="#FB2727"></path>
<path d="M26.9564 15.7358H22.1738C22.1738 14.5352 21.2006 13.5619 19.9999 13.5619C18.7993 13.5619 17.826 14.5352 17.826 15.7358H13.0435C13.0435 16.9179 14.0732 17.8761 15.2552 17.8761H15.1839C15.1839 19.0583 16.1422 20.0167 17.3244 20.0167C17.3244 21.0633 18.0761 21.933 19.0689 22.1189L17.3822 25.9269C18.1904 26.2554 19.0737 26.438 19.9999 26.438C20.9261 26.438 21.8095 26.2554 22.6176 25.9269L20.931 22.1189C21.9238 21.933 22.6755 21.0633 22.6755 20.0167C23.8577 20.0167 24.816 19.0583 24.816 17.8761H24.7446C25.9267 17.8761 26.9564 16.9178 26.9564 15.7358Z" fill="#FF9811"></path>
<path d="M19.9999 18.6956L17.1738 19.9999V22.6086L19.9999 24.3477L22.826 22.6086V19.9999L19.9999 18.6956Z" fill="#0073FD"></path>
<path d="M17.1738 17.3912H22.826V19.9999H17.1738V17.3912Z" fill="#FB2727"></path>
</g>
<defs>
<clipPath id="clip0_1_3177">
<rect width="40" height="40" fill="white"></rect>
</clipPath>
</defs>
</svg>