<svg width="40" height="40" viewBox="0 0 40 40" fill="none" xmlns="http://www.w3.org/2000/svg">
<g clip-path="url(#clip0_1_4557)">
<path d="M19.9998 40.0002C31.0455 40.0002 39.9998 31.0459 39.9998 20.0002C39.9998 8.95455 31.0455 0.000244141 19.9998 0.000244141C8.95406 0.000244141 -0.000244141 8.95455 -0.000244141 20.0002C-0.000244141 31.0459 8.95406 40.0002 19.9998 40.0002Z" fill="#F3F6F9"></path>
<path d="M39.9998 20.0002C39.9998 11.4009 34.5723 4.07 26.9563 1.24414V38.7562C34.5723 35.9303 39.9998 28.5995 39.9998 20.0002Z" fill="#FB2727"></path>
<path d="M0 20.0002C0 28.5995 5.42758 35.9303 13.0435 38.7562V1.24414C5.42758 4.07 0 11.4009 0 20.0002Z" fill="#0073FD"></path>
</g>
<defs>
<clipPath id="clip0_1_4557">
<rect width="40" height="40" fill="white"></rect>
</clipPath>
</defs>
</svg>