<svg width="40" height="40" viewBox="0 0 40 40" fill="none" xmlns="http://www.w3.org/2000/svg">
<g clip-path="url(#clip0_1_3246)">
<path d="M20 40.0001C31.0457 40.0001 40 31.0458 40 20.0001C40 8.9544 31.0457 9.15527e-05 20 9.15527e-05C8.95431 9.15527e-05 0 8.9544 0 20.0001C0 31.0458 8.95431 40.0001 20 40.0001Z" fill="#F3F6F9"></path>
<path d="M13.0435 20V38.756C15.21 39.56 17.5535 40 19.9999 40C31.0456 40 39.9999 31.0456 39.9999 20C39.9999 8.95436 13.0435 20 13.0435 20Z" fill="#75BB42"></path>
<path d="M19.9999 3.05176e-05C17.5535 3.05176e-05 15.21 0.440109 13.0435 1.24401V20H39.9999C39.9999 8.95441 31.0456 3.05176e-05 19.9999 3.05176e-05Z" fill="#FB2727"></path>
</g>
<defs>
<clipPath id="clip0_1_3246">
<rect width="40" height="40" fill="white"></rect>
</clipPath>
</defs>
</svg>