<svg width="40" height="40" viewBox="0 0 40 40" fill="none" xmlns="http://www.w3.org/2000/svg">
<g clip-path="url(#clip0_1_3265)">
<path d="M20 40.0001C31.0456 40.0001 40 31.0457 40 20.0001C40 16.6436 39.1719 13.4808 37.7108 10.7032L19.9765 20.0235L29.2969 2.28928C26.5192 0.828186 23.3565 6.10352e-05 20 6.10352e-05C8.95437 6.10352e-05 0 8.95444 0 20.0001C0 25.523 2.23859 30.523 5.85781 34.1422C9.47711 37.7615 14.4771 40.0001 20 40.0001Z" fill="#0052B4"></path>
<path d="M37.6897 10.7249C36.7742 8.98244 35.584 7.34642 34.1188 5.88127C32.6536 4.41611 31.0178 3.22588 29.2752 2.31049L5.83447 34.1656L37.6897 10.7249Z" fill="#F0F0F0"></path>
<path d="M5.83447 34.1656L37.6897 10.725C36.7742 8.98246 35.584 7.34644 34.1188 5.88129L5.83447 34.1656Z" fill="#FF9811"></path>
<path d="M17.3676 11.7283L14.9251 12.8772L16.2258 15.2428L13.5734 14.7354L13.2373 17.4148L11.3898 15.4441L9.54234 17.4148L9.20641 14.7354L6.55406 15.2427L7.85461 12.8771L5.41211 11.7283L7.85469 10.5793L6.55406 8.21386L9.20625 8.72112L9.54242 6.04175L11.3898 8.01245L13.2373 6.04175L13.5734 8.72112L16.2259 8.21386L14.9252 10.5794L17.3676 11.7283Z" fill="#F0F0F0"></path>
</g>
<defs>
<clipPath id="clip0_1_3265">
<rect width="40" height="40" fill="white"></rect>
</clipPath>
</defs>
</svg>