<svg width="40" height="40" viewBox="0 0 40 40" fill="none" xmlns="http://www.w3.org/2000/svg">
<g clip-path="url(#clip0_1_3251)">
<path d="M20 40.0001C31.0457 40.0001 40 31.0458 40 20.0001C40 8.95437 31.0457 6.10352e-05 20 6.10352e-05C8.95431 6.10352e-05 0 8.95437 0 20.0001C0 31.0458 8.95431 40.0001 20 40.0001Z" fill="#FFDA44"></path>
<path d="M23.0416 39.7701C26.2944 39.2738 29.2886 37.9929 31.8272 36.128L20 20L23.0416 39.7701Z" fill="#FB2727"></path>
<path d="M16.9586 0.229919C13.7058 0.726169 10.7116 2.00711 8.17285 3.87187L20.0002 20L16.9586 0.229919Z" fill="#FB2727"></path>
<path d="M8.17285 36.128C10.7114 37.9928 13.7057 39.2738 16.9584 39.7702L20.0002 20L8.17285 36.128Z" fill="#FB2727"></path>
<path d="M3.87193 8.17267C2.00709 10.7114 0.726309 13.7056 0.22998 16.9584L20.0001 20L3.87193 8.17267Z" fill="#FB2727"></path>
<path d="M0.22998 23.0416C0.72623 26.2944 2.00717 29.2886 3.87201 31.8272L20.0001 20L0.22998 23.0416Z" fill="#FB2727"></path>
<path d="M39.7701 16.9584C39.2738 13.7056 37.9929 10.7114 36.128 8.17273L20 20L39.7701 16.9584Z" fill="#FB2727"></path>
<path d="M31.8272 3.87179C29.2885 2.00703 26.2944 0.726169 23.0416 0.229919L20 20L31.8272 3.87179Z" fill="#FB2727"></path>
<path d="M36.1282 31.8273C37.993 29.2886 39.2738 26.2943 39.7702 23.0416L20 20L36.1282 31.8273Z" fill="#FB2727"></path>
<path d="M19.9999 26.9565C23.8419 26.9565 26.9564 23.8419 26.9564 20C26.9564 16.158 23.8419 13.0435 19.9999 13.0435C16.158 13.0435 13.0435 16.158 13.0435 20C13.0435 23.8419 16.158 26.9565 19.9999 26.9565Z" fill="#FB2727"></path>
<path d="M20.0001 25.2174C22.8816 25.2174 25.2176 22.8815 25.2176 20C25.2176 17.1185 22.8816 14.7826 20.0001 14.7826C17.1186 14.7826 14.7827 17.1185 14.7827 20C14.7827 22.8815 17.1186 25.2174 20.0001 25.2174Z" fill="#FFDA44"></path>
</g>
<defs>
<clipPath id="clip0_1_3251">
<rect width="40" height="40" fill="white"></rect>
</clipPath>
</defs>
</svg>