<svg width="40" height="40" viewBox="0 0 40 40" fill="none" xmlns="http://www.w3.org/2000/svg">
<g clip-path="url(#clip0_1_3218)">
<path d="M26.9568 1.24405C24.7902 0.440139 22.4467 6.10352e-05 20.0003 6.10352e-05C17.5539 6.10352e-05 15.2105 0.440139 13.0438 1.24405L11.3047 20.0001L13.0438 38.7561C15.2105 39.5601 17.5539 40.0001 20.0003 40.0001C22.4467 40.0001 24.7902 39.5601 26.9568 38.7561L28.6959 20.0001L26.9568 1.24405Z" fill="#FFDA44"></path>
<path d="M40.0001 20C40.0001 11.4008 34.5726 4.06986 26.9565 1.24408V38.7562C34.5726 35.9302 40.0001 28.5994 40.0001 20Z" fill="#FB2727"></path>
<path d="M0 20C0 28.5994 5.4275 35.9302 13.0435 38.7561V1.24408C5.4275 4.06986 0 11.4008 0 20Z" fill="#75BB42"></path>
</g>
<defs>
<clipPath id="clip0_1_3218">
<rect width="40" height="40" fill="white"></rect>
</clipPath>
</defs>
</svg>