<svg width="40" height="40" viewBox="0 0 40 40" fill="none" xmlns="http://www.w3.org/2000/svg">
<g clip-path="url(#clip0_1_4604)">
<path d="M20 40C31.0457 40 40 31.0457 40 20C40 8.9543 31.0457 0 20 0C8.9543 0 0 8.9543 0 20C0 31.0457 8.9543 40 20 40Z" fill="#496E2D"></path>
<path d="M23.4783 19.1661C22.9874 19.1661 22.5213 19.264 22.0884 19.4197C22.3256 18.8913 22.4845 18.3033 22.4845 17.6754C22.4845 15.191 20.0001 13.3276 20.0001 13.3276C20.0001 13.3276 17.5156 15.191 17.5156 17.6754C17.5156 18.3033 17.6746 18.8913 17.9117 19.4197C17.4788 19.2641 17.0127 19.1661 16.5219 19.1661C14.0374 19.1661 12.1741 21.6505 12.1741 21.6505C12.1741 21.6505 14.0374 24.1351 16.5219 24.1351C17.9785 24.1351 19.2209 23.2813 20.0002 22.5746C20.7795 23.2812 22.0218 24.1351 23.4784 24.1351C25.9629 24.1351 27.8263 21.6505 27.8263 21.6505C27.8263 21.6505 25.9627 19.1661 23.4783 19.1661Z" fill="#F3F6F9"></path>
<path d="M20.0001 7.82617L20.5133 9.40555H22.174L20.8306 10.3818L21.3434 11.9612L20.0001 10.9849L18.6567 11.9612L19.1695 10.3818L17.8262 9.40555H19.4869L20.0001 7.82617Z" fill="#FFDA44"></path>
<path d="M13.6848 10.5886L14.6722 11.4775L15.8227 10.8133L15.2824 12.027L16.2697 12.916L14.9484 12.7771L14.4081 13.9908L14.1317 12.6914L12.8105 12.5525L13.961 11.8881L13.6848 10.5886Z" fill="#FFDA44"></path>
<path d="M9.06201 15.2115L10.3615 15.4877L11.0258 14.3372L11.1647 15.6583L12.4641 15.9347L11.2505 16.4751L11.3894 17.7962L10.5003 16.8091L9.2867 17.3494L9.951 16.1988L9.06201 15.2115Z" fill="#FFDA44"></path>
<path d="M26.315 10.5886L25.3277 11.4775L24.1772 10.8133L24.7174 12.027L23.7302 12.916L25.0515 12.7771L25.5918 13.9908L25.8682 12.6914L27.1894 12.5525L26.0389 11.8881L26.315 10.5886Z" fill="#FFDA44"></path>
<path d="M30.938 15.2115L29.6385 15.4877L28.9742 14.3372L28.8353 15.6583L27.5359 15.9347L28.7495 16.4751L28.6106 17.7962L29.4997 16.8091L30.7133 17.3494L30.049 16.1988L30.938 15.2115Z" fill="#FFDA44"></path>
<path d="M20 31.0915C21.9735 31.0915 23.7926 30.4331 25.2518 29.3252H14.7483C16.2075 30.433 18.0265 31.0915 20 31.0915Z" fill="#F3F6F9"></path>
<path d="M12.0286 25.874C12.3046 26.5057 12.6546 27.0974 13.0657 27.6404H26.9343C27.3454 27.0975 27.6954 26.5057 27.9714 25.874H12.0286Z" fill="#F3F6F9"></path>
</g>
<defs>
<clipPath id="clip0_1_4604">
<rect width="40" height="40" fill="white"></rect>
</clipPath>
</defs>
</svg>