<svg width="40" height="40" viewBox="0 0 40 40" fill="none" xmlns="http://www.w3.org/2000/svg">
<g clip-path="url(#clip0_1_4129)">
<path d="M20 40C31.0457 40 40 31.0457 40 20C40 8.9543 31.0457 0 20 0C8.9543 0 0 8.9543 0 20C0 31.0457 8.9543 40 20 40Z" fill="#338AF3"></path>
<path d="M19.3698 32.593C18.8306 32.5669 18.3845 32.2165 18.2098 31.7408C17.9011 32.1434 17.3706 32.3461 16.848 32.2113C16.3245 32.0765 15.9585 31.6435 15.8828 31.1408C15.4984 31.4729 14.9384 31.5633 14.4541 31.3261C13.9689 31.0878 13.6977 30.5894 13.7255 30.0825C13.2829 30.3311 12.7159 30.3068 12.289 29.9764C11.8629 29.6459 11.6968 29.1042 11.8255 28.6129C11.342 28.7676 10.7924 28.6303 10.4402 28.2207C10.088 27.812 10.0341 27.2476 10.2585 26.7929C9.75414 26.8467 9.24289 26.6015 8.98023 26.1303C8.71672 25.659 8.77766 25.0947 9.08976 24.6936C8.58453 24.645 8.13234 24.3015 7.97062 23.7867C7.80805 23.2719 7.98195 22.7311 8.36891 22.4015C7.88367 22.2518 7.51148 21.824 7.45672 21.2876C7.40195 20.7511 7.68023 20.258 8.12453 20.0128C7.68015 19.7693 7.40016 19.2763 7.4532 18.7406H7.45406C7.50711 18.2032 7.8793 17.7746 8.36359 17.6232C7.97664 17.2945 7.80101 16.7545 7.96187 16.2397C8.12273 15.724 8.57398 15.3797 9.0793 15.3292C8.76711 14.9292 8.70453 14.3647 8.96625 13.8927C9.22797 13.4214 9.7393 13.1753 10.2445 13.2283C10.0184 12.7736 10.0715 12.2092 10.4228 11.7988C10.7733 11.3893 11.3228 11.251 11.8072 11.404C11.6767 10.9136 11.842 10.371 12.268 10.0397C12.6933 9.70833 13.2602 9.6831 13.7028 9.93005C13.6741 9.42318 13.9445 8.92482 14.4289 8.68568C14.9124 8.4474 15.4733 8.53615 15.8584 8.86825C15.9323 8.36575 16.2984 7.93099 16.821 7.79521C17.3427 7.65958 17.8732 7.86044 18.1827 8.26216C18.3575 7.78654 18.8027 7.43521 19.3419 7.40825C19.8802 7.38052 20.3584 7.68302 20.581 8.13794C20.8471 7.70661 21.3532 7.45099 21.8862 7.53185C22.4202 7.61185 22.8298 8.00482 22.9567 8.49622C23.3045 8.12568 23.8523 7.9788 24.3584 8.16482C24.8654 8.35177 25.1871 8.81958 25.2115 9.3274C25.6262 9.03529 26.1932 9.0013 26.6515 9.28654C27.1098 9.57091 27.3298 10.0935 27.2515 10.5952C27.7167 10.3926 28.2784 10.4735 28.6698 10.8439C29.0611 11.2152 29.1723 11.7708 28.995 12.2465C29.4915 12.1412 30.0255 12.3326 30.335 12.7751C30.6445 13.2168 30.642 13.7838 30.3733 14.2143C30.8802 14.2108 31.3646 14.5065 31.5794 15.0012C31.7933 15.4968 31.6759 16.0526 31.3255 16.4204C31.8237 16.5195 32.2385 16.9065 32.348 17.4351C32.4567 17.9638 32.2298 18.4829 31.8133 18.7726C32.2794 18.9701 32.608 19.4317 32.6089 19.9708V19.9883V19.9996C32.6089 20.5386 32.282 21.0013 31.8159 21.2004C32.2333 21.4883 32.462 22.0074 32.3533 22.5361C32.2455 23.0647 31.8316 23.4526 31.3333 23.5535C31.6846 23.9204 31.8037 24.4752 31.5907 24.9718C31.3777 25.4674 30.8933 25.764 30.3855 25.7613C30.655 26.1918 30.6594 26.7587 30.3507 27.2013C30.042 27.644 29.509 27.837 29.0124 27.7326C29.1907 28.2074 29.0802 28.764 28.6898 29.1361C28.2985 29.5076 27.7377 29.5892 27.2724 29.3883C27.3516 29.8892 27.1324 30.4127 26.675 30.6988C26.2176 30.9849 25.6506 30.9518 25.235 30.6605C25.2115 31.1683 24.8915 31.6371 24.3855 31.8249C23.8795 32.0127 24.3855 31.8249 24.3846 31.8249C23.8785 32.0118 23.3307 31.8658 22.982 31.4963C22.8568 31.9885 22.4481 32.3823 21.9142 32.4641C21.3812 32.545 20.8742 32.2911 20.6073 31.8597C20.3951 32.2972 19.9464 32.5945 19.4351 32.5945C19.4133 32.5948 19.3916 32.594 19.3698 32.593Z" fill="#F3F6F9"></path>
<path d="M19.9998 28.6957C24.8023 28.6957 28.6954 24.8025 28.6954 20.0001C28.6954 15.1976 24.8023 11.3044 19.9998 11.3044C15.1974 11.3044 11.3042 15.1976 11.3042 20.0001C11.3042 24.8025 15.1974 28.6957 19.9998 28.6957Z" fill="#338AF3"></path>
<path d="M21.9035 17.0483C22.3307 16.7314 22.6088 16.2249 22.6088 15.6521V14.7826C22.6088 13.8221 21.8303 13.0435 20.8697 13.0435H19.1306C18.1701 13.0435 17.3915 13.8221 17.3915 14.7826V15.6521C17.3915 16.2249 17.6696 16.7314 18.0968 17.0483L16.522 33.0434C16.522 33.0434 17.3915 33.9131 20.0003 33.9131C22.609 33.9131 23.4785 33.0434 23.4785 33.0434L21.9035 17.0483Z" fill="#BDBCC1"></path>
<path d="M19.9998 13.0435L21.5105 17.6933H26.4L22.4445 20.5674L23.9552 25.2174L19.9998 22.3435L16.0441 25.2174L17.5552 20.5674L13.5996 17.6933H18.4889L19.9998 13.0435Z" fill="#F3F6F9"></path>
</g>
<defs>
<clipPath id="clip0_1_4129">
<rect width="40" height="40" fill="white"></rect>
</clipPath>
</defs>
</svg>