<svg width="40" height="40" viewBox="0 0 40 40" fill="none" xmlns="http://www.w3.org/2000/svg">
<g clip-path="url(#clip0_1_4500)">
<path d="M19.9998 40C31.0455 40 39.9998 31.0457 39.9998 20C39.9998 8.9543 31.0455 0 19.9998 0C8.95406 0 -0.000244141 8.9543 -0.000244141 20C-0.000244141 31.0457 8.95406 40 19.9998 40Z" fill="#00A650"></path>
<path d="M18.2607 20C18.2607 20 5.86938 34.1449 5.85767 34.1421C9.47688 37.7614 14.477 40 19.9998 40C31.0455 40 39.9998 31.0456 39.9998 20H18.2607Z" fill="#231F1E"></path>
<path d="M5.85785 5.85791C-1.95262 13.6684 -1.95262 26.3317 5.85785 34.1423C9.08543 30.9147 12.1896 27.8106 20 20.0001L5.85785 5.85791Z" fill="#EF1923"></path>
</g>
<defs>
<clipPath id="clip0_1_4500">
<rect width="40" height="40" fill="white"></rect>
</clipPath>
</defs>
</svg>