<svg width="40" height="40" viewBox="0 0 40 40" fill="none" xmlns="http://www.w3.org/2000/svg">
<g clip-path="url(#clip0_1_3207)">
<path d="M20 40.0001C31.0457 40.0001 40 31.0458 40 20.0001C40 8.95437 31.0457 6.10352e-05 20 6.10352e-05C8.95431 6.10352e-05 0 8.95437 0 20.0001C0 31.0458 8.95431 40.0001 20 40.0001Z" fill="#496E2D"></path>
<path d="M19.9999 23.1055C16.6698 23.1055 13.8878 20.7651 13.2052 17.6397C13.1003 18.1201 13.0435 18.6183 13.0435 19.1304C13.0435 22.9725 16.1579 26.0868 19.9999 26.0868C23.842 26.0868 26.9564 22.9724 26.9564 19.1304C26.9564 18.6183 26.8995 18.1201 26.7947 17.6396C26.1121 20.7651 23.3301 23.1055 19.9999 23.1055Z" fill="#FFDA44"></path>
<path d="M19.9997 13.913L20.6472 15.9059H22.7428L21.0475 17.1376L21.695 19.1304L19.9997 17.8987L18.3045 19.1304L18.9521 17.1376L17.2568 15.9059H19.3522L19.9997 13.913Z" fill="#FFDA44"></path>
</g>
<defs>
<clipPath id="clip0_1_3207">
<rect width="40" height="40" fill="white"></rect>
</clipPath>
</defs>
</svg>