<svg width="40" height="40" viewBox="0 0 40 40" fill="none" xmlns="http://www.w3.org/2000/svg">
<g clip-path="url(#clip0_1_3213)">
<path d="M20 40.0001C31.0457 40.0001 40 31.0458 40 20.0001C40 8.95437 31.0457 6.10352e-05 20 6.10352e-05C8.9543 6.10352e-05 0 8.95437 0 20.0001C0 31.0458 8.9543 40.0001 20 40.0001Z" fill="#F3F6F9"></path>
<path d="M20 6.10352e-05C31.0456 6.10352e-05 40 8.95444 40 20.0001C40 31.0457 31.0456 40.0001 20 40.0001" fill="#FB2727"></path>
<path d="M13.9132 7.82614V5.21747H11.3046V7.82614H8.6958V10.4348H11.3046V13.0436H13.9132V10.4348H16.5219V7.82614H13.9132Z" fill="#ACABB1"></path>
</g>
<defs>
<clipPath id="clip0_1_3213">
<rect width="40" height="40" fill="white"></rect>
</clipPath>
</defs>
</svg>