<svg width="40" height="40" viewBox="0 0 40 40" fill="none" xmlns="http://www.w3.org/2000/svg">
<g clip-path="url(#clip0_1_3223)">
<path d="M20 40.0001C31.0457 40.0001 40 31.0458 40 20.0001C40 8.95437 31.0457 6.10352e-05 20 6.10352e-05C8.95431 6.10352e-05 0 8.95437 0 20.0001C0 31.0458 8.95431 40.0001 20 40.0001Z" fill="#FB2727"></path>
<path d="M6.95654 10.4348H33.0435V29.5653H6.95654V10.4348Z" fill="#75BB42"></path>
<path d="M23.2207 25.6522C20.0992 25.6522 17.5685 23.1216 17.5685 20C17.5685 16.8785 20.0992 14.3478 23.2207 14.3478C24.194 14.3478 25.1099 14.5939 25.9094 15.0272C24.6551 13.8006 22.9399 13.0435 21.0468 13.0435C17.2049 13.0435 14.0903 16.158 14.0903 19.9999C14.0903 23.8419 17.2049 26.9564 21.0468 26.9564C22.9399 26.9564 24.6552 26.1993 25.9094 24.9727C25.1099 25.4061 24.194 25.6522 23.2207 25.6522Z" fill="#F3F6F9"></path>
</g>
<defs>
<clipPath id="clip0_1_3223">
<rect width="40" height="40" fill="white"></rect>
</clipPath>
</defs>
</svg>