<svg width="40" height="40" viewBox="0 0 40 40" fill="none" xmlns="http://www.w3.org/2000/svg">
<g clip-path="url(#clip0_1_3240)">
<path d="M0 20C0 22.4464 0.440078 24.7899 1.24398 26.9565L20 27.8261L38.756 26.9566C39.56 24.7899 40 22.4464 40 20C40 17.5536 39.56 15.2102 38.756 13.0436L20 12.174L1.24398 13.0435C0.440078 15.2102 0 17.5536 0 20H0Z" fill="#FB2727"></path>
<path d="M19.9997 0C11.4004 0 4.06951 5.4275 1.24365 13.0435H38.7558C35.9298 5.4275 28.599 0 19.9997 0Z" fill="black"></path>
<path d="M38.7557 26.9565H1.24365C4.06951 34.5725 11.4004 40.0001 19.9997 40.0001C28.599 40.0001 35.9298 34.5725 38.7557 26.9565Z" fill="#496E2D"></path>
<path d="M25.9779 9.56529L23.5354 8.41638L24.8361 6.05083L22.1838 6.55825L21.8477 3.87872L20.0002 5.84943L18.1528 3.87872L17.8166 6.55825L15.1643 6.05083L16.465 8.41638L14.0225 9.56529H25.9779Z" fill="#FB2727"></path>
</g>
<defs>
<clipPath id="clip0_1_3240">
<rect width="40" height="40" fill="white"></rect>
</clipPath>
</defs>
</svg>