<svg width="40" height="40" viewBox="0 0 40 40" fill="none" xmlns="http://www.w3.org/2000/svg">
<g clip-path="url(#clip0_3546_142260)">
<path d="M20.0002 40C31.0459 40 40.0002 31.0457 40.0002 20C40.0002 8.9543 31.0459 0 20.0002 0C8.95455 0 0.000244141 8.9543 0.000244141 20C0.000244141 31.0457 8.95455 40 20.0002 40Z" fill="#F3F6F9"></path>
<path d="M39.9999 19.9998C39.9999 12.0706 35.3855 5.21937 28.6956 1.98438V38.0152C35.3855 34.7803 39.9999 27.9291 39.9999 19.9998Z" fill="#FB2727"></path>
<path d="M0 19.9998C0 27.9291 4.61445 34.7803 11.3044 38.0153V1.98438C4.61445 5.21937 0 12.0706 0 19.9998Z" fill="#75BB42"></path>
<path d="M14.7825 19.9999C14.7825 22.8814 17.1184 25.2173 19.9999 25.2173C22.8814 25.2173 25.2173 22.8814 25.2173 19.9999V18.2607H14.7825V19.9999Z" fill="#75BB42"></path>
<path d="M26.9563 16.5219H21.7389C21.7389 15.5614 20.9602 14.7827 19.9998 14.7827C19.0393 14.7827 18.2606 15.5614 18.2606 16.5219H13.0432C13.0432 17.4824 13.8799 18.261 14.8402 18.261H14.7824C14.7824 19.2215 15.5609 20.0001 16.5215 20.0001C16.5215 20.9607 17.3001 21.7393 18.2606 21.7393H21.7389C22.6995 21.7393 23.4781 20.9607 23.4781 20.0001C24.4386 20.0001 25.2172 19.2215 25.2172 18.261H25.1592C26.1198 18.261 26.9563 17.4824 26.9563 16.5219Z" fill="#FF9811"></path>
</g>
<defs>
<clipPath id="clip0_3546_142260">
<rect width="40" height="40" fill="white"></rect>
</clipPath>
</defs>
</svg>