<svg width="40" height="40" viewBox="0 0 40 40" fill="none" xmlns="http://www.w3.org/2000/svg">
<g clip-path="url(#clip0_3546_142289)">
<path d="M20.0002 40C31.0459 40 40.0002 31.0457 40.0002 20C40.0002 8.95431 31.0459 0 20.0002 0C8.95455 0 0.000244141 8.95431 0.000244141 20C0.000244141 31.0457 8.95455 40 20.0002 40Z" fill="#F3F6F9"></path>
<path d="M19.1305 19.9996H40C40 18.1944 39.7594 16.4458 39.311 14.7822H19.1305V19.9996Z" fill="#FB2727"></path>
<path d="M19.1305 9.56508H37.0646C35.8403 7.56727 34.275 5.80141 32.4498 4.34766H19.1305V9.56508Z" fill="#FB2727"></path>
<path d="M20.0002 39.9997C24.7071 39.9997 29.0335 38.3728 32.4499 35.6519H7.55042C10.9669 38.3728 15.2932 39.9997 20.0002 39.9997Z" fill="#FB2727"></path>
<path d="M2.93545 30.4347H37.0645C38.0474 28.831 38.8096 27.0778 39.311 25.2173H0.688965C1.19029 27.0778 1.95256 28.831 2.93545 30.4347Z" fill="#FB2727"></path>
<path d="M20.0002 20C20.0002 8.95438 20.0002 7.65219 20.0002 0C8.95462 0 0.000244141 8.95438 0.000244141 20H20.0002Z" fill="#0073FD"></path>
<path d="M13.2997 17.1194C10.5683 17.1194 8.35406 14.9051 8.35406 12.1738C8.35406 9.44246 10.5684 7.22816 13.2997 7.22816C14.1513 7.22816 14.9527 7.44355 15.6523 7.82262C14.5548 6.74941 13.0538 6.08691 11.3975 6.08691C8.03586 6.08691 5.31055 8.81215 5.31055 12.1739C5.31055 15.5356 8.03586 18.2608 11.3975 18.2608C13.0538 18.2608 14.5548 17.5983 15.6523 16.5251C14.9527 16.904 14.1514 17.1194 13.2997 17.1194Z" fill="#FFDA44"></path>
<path d="M14.6933 8.69531L15.5713 10.5314L17.5542 10.0733L16.6663 11.9045L18.261 13.1691L16.2755 13.6166L16.281 15.6519L14.6933 14.3786L13.1055 15.6519L13.111 13.6166L11.1255 13.1691L12.7202 11.9045L11.8321 10.0733L13.8152 10.5314L14.6933 8.69531Z" fill="#FFDA44"></path>
</g>
<defs>
<clipPath id="clip0_3546_142289">
<rect width="40" height="40" fill="white"></rect>
</clipPath>
</defs>
</svg>