<svg width="40" height="40" viewBox="0 0 40 40" fill="none" xmlns="http://www.w3.org/2000/svg">
<g clip-path="url(#clip0_1_3136)">
<path d="M20 39.9999C31.0457 39.9999 40 31.0456 40 19.9999C40 8.95418 31.0457 -0.00012207 20 -0.00012207C8.95431 -0.00012207 0 8.95418 0 19.9999C0 31.0456 8.95431 39.9999 20 39.9999Z" fill="#F3F6F9"></path>
<path d="M10.8101 27.826L5.8584 34.1414C9.47746 37.761 14.4769 40 19.9999 40C28.2678 40 35.3627 34.9821 38.4086 27.826H10.8101Z" fill="#FFDA44"></path>
<path d="M38.4397 12.2463C35.4108 5.05172 28.2958 0 19.9999 0C14.4769 0 9.47746 2.23898 5.8584 5.85852L10.867 12.2463H38.4397Z" fill="#496E2D"></path>
<path d="M4.34766 14.7101V25.2173H39.3109C39.7595 23.5539 39.9998 21.8052 39.9998 19.9999C39.9998 18.1685 39.7531 16.3951 39.2919 14.7101H4.34766Z" fill="black"></path>
<path d="M5.85785 5.85779C-1.95262 13.6683 -1.95262 26.3316 5.85785 34.1422C9.08543 30.9146 12.1896 27.8104 20 20L5.85785 5.85779Z" fill="#A2001D"></path>
<path d="M8.09426 14.7826L9.38918 18.7682H13.5803L10.1898 21.2317L11.4846 25.2174L8.09426 22.7541L4.70371 25.2174L5.99887 21.2317L2.6084 18.7682H6.79918L8.09426 14.7826Z" fill="#FFDA44"></path>
<path d="M4.30518 19.9999H11.8852V23.4782H4.30518V19.9999Z" fill="#F3F6F9"></path>
<path d="M13.3205 16.0124L12.0908 14.7826L8.09484 18.7785L4.09891 14.7826L2.86914 16.0124L6.86859 20.0048L2.86914 24.0043L4.09891 25.2174L8.09484 21.2287L12.0908 25.2174L13.3205 24.0043L9.32109 20.0048L13.3205 16.0124Z" fill="black"></path>
</g>
<defs>
<clipPath id="clip0_1_3136">
<rect width="40" height="40" fill="white"></rect>
</clipPath>
</defs>
</svg>