<svg width="40" height="40" viewBox="0 0 40 40" fill="none" xmlns="http://www.w3.org/2000/svg">
<g clip-path="url(#clip0_1_3122)">
<path d="M20.0005 39.9999C31.0462 39.9999 40.0005 31.0456 40.0005 19.9999C40.0005 8.95421 31.0462 -9.15527e-05 20.0005 -9.15527e-05C8.95479 -9.15527e-05 0.000488281 8.95421 0.000488281 19.9999C0.000488281 31.0456 8.95479 39.9999 20.0005 39.9999Z" fill="#F3F6F9"></path>
<path d="M5.85768 34.1422C6.69666 34.9812 7.59182 35.7294 8.5308 36.3881L36.3877 8.53108C35.7291 7.59209 34.9809 6.69694 34.1418 5.85795C33.3028 5.01897 32.4077 4.27084 31.4687 3.61209L3.61182 31.4691C4.27049 32.408 5.01869 33.3032 5.85768 34.1422Z" fill="#A2001D"></path>
<path d="M5.85811 5.85777C-0.451577 12.1675 -1.66283 21.6434 2.22178 29.1701L29.1704 2.2216C21.6437 -1.66301 12.1676 -0.451607 5.85811 5.85777Z" fill="#0073FD"></path>
<path d="M34.1419 34.1422C40.4514 27.8326 41.6626 18.3566 37.7782 10.8298L10.8296 37.7784C18.3562 41.663 27.8323 40.4518 34.1419 34.1422Z" fill="#496E2D"></path>
<path d="M16.5215 11.3043L14.2804 12.3585L15.4738 14.5289L13.0403 14.0635L12.7319 16.5217L11.0369 14.7136L9.34178 16.5217L9.0335 14.0635L6.5999 14.5289L7.79326 12.3584L5.55225 11.3043L7.79334 10.2501L6.5999 8.0798L9.03342 8.54527L9.34186 6.08691L11.0369 7.89504L12.7319 6.08691L13.0403 8.54527L15.4738 8.0798L14.2805 10.2502L16.5215 11.3043Z" fill="#FFDA44"></path>
</g>
<defs>
<clipPath id="clip0_1_3122">
<rect width="40" height="40" fill="white"></rect>
</clipPath>
</defs>
</svg>