<svg width="40" height="40" viewBox="0 0 40 40" fill="none" xmlns="http://www.w3.org/2000/svg">
<g clip-path="url(#clip0_1_4522)">
<path d="M20 40C28.7951 40 36.2474 34.605 39 27H1C3.75265 34.605 11.2049 40 20 40Z" fill="#83BF4F"></path>
<path d="M20 0C11.2049 0 3.75265 5.88 1 14H39C36.2474 5.88 28.7951 0 20 0Z" fill="#0052B4"></path>
<path d="M38.8667 27C39.6 24.985 40 22.775 40 20.5C40 18.225 39.6 16.015 38.8667 14H1.13333C0.4 16.015 0 18.225 0 20.5C0 22.775 0.4 24.985 1.13333 27H38.8667Z" fill="#D80027"></path>
<path d="M15 32C21.6274 32 27 26.6274 27 20C27 13.3726 21.6274 8 15 8C8.37258 8 3 13.3726 3 20C3 26.6274 8.37258 32 15 32Z" fill="#FFDA44"></path>
<path d="M15.0002 8C15.5524 8.00014 16.0002 8.4478 16.0002 9V10.4512C16.5975 10.7971 17.0002 11.4418 17.0002 12.1816V12.5459C17.0001 13.2855 16.5972 13.9295 16.0002 14.2754V15.7637C16.5879 16.0119 17.0001 16.5945 17.0002 17.2725C17.0002 17.9503 16.5877 18.5319 16.0002 18.7803V20.2695C16.5975 20.6155 17.0002 21.2601 17.0002 22V24.5459C17.0001 25.2855 16.5972 25.9295 16.0002 26.2754V27.8027C16.7988 28.0736 17.4697 28.6613 17.8333 29.4541L18.7278 31.4062C17.5541 31.7896 16.3019 32 15.0002 32C13.6983 32 12.4456 31.7897 11.2717 31.4062L12.1672 29.4541C12.5308 28.6613 13.2017 28.0735 14.0002 27.8027V26.2754C13.4032 25.9295 13.0004 25.2855 13.0002 24.5459V22C13.0002 21.2601 13.4029 20.6155 14.0002 20.2695V18.7803C13.4127 18.532 13.0002 17.9504 13.0002 17.2725C13.0004 16.5944 13.4125 16.0118 14.0002 15.7637V14.2754C13.4032 13.9295 13.0004 13.2855 13.0002 12.5459V12.1816C13.0003 11.4418 13.4029 10.7971 14.0002 10.4512V9C14.0002 8.44772 14.448 8 15.0002 8Z" fill="#3E4347"></path>
</g>
<defs>
<clipPath id="clip0_1_4522">
<rect width="40" height="40" fill="white"></rect>
</clipPath>
</defs>
</svg>