<svg width="40" height="40" viewBox="0 0 40 40" fill="none" xmlns="http://www.w3.org/2000/svg">
<g clip-path="url(#clip0_1_3067)">
<path d="M1.98453 11.3043C0.713125 13.9337 0 16.8835 0 20C0 23.1164 0.713125 26.0662 1.98453 28.6956L20 30.4347L38.0155 28.6956C39.2869 26.0662 40 23.1164 40 20C40 16.8835 39.2869 13.9337 38.0155 11.3043L20 9.56519L1.98453 11.3043Z" fill="#F3F6F9"></path>
<path d="M1.98535 28.6956C5.22019 35.3855 12.0709 40 20.0001 40C27.9293 40 34.78 35.3855 38.0149 28.6956H1.98535Z" fill="#75BB42"></path>
<path d="M1.98535 11.3044H38.0149C34.78 4.61445 27.9293 0 20.0001 0C12.071 0 5.2202 4.61445 1.98535 11.3044Z" fill="#FF9811"></path>
<path d="M19.9999 26.9565C23.8419 26.9565 26.9564 23.842 26.9564 20C26.9564 16.158 23.8419 13.0435 19.9999 13.0435C16.158 13.0435 13.0435 16.158 13.0435 20C13.0435 23.842 16.158 26.9565 19.9999 26.9565Z" fill="#FF9811"></path>
</g>
<defs>
<clipPath id="clip0_1_3067">
<rect width="40" height="40" fill="white"></rect>
</clipPath>
</defs>
</svg>