<svg width="40" height="40" viewBox="0 0 40 40" fill="none" xmlns="http://www.w3.org/2000/svg">
<g clip-path="url(#clip0_1_4653)">
<path d="M28.6956 1.98453C26.0662 0.713125 23.1164 0 20 0C16.8835 0 13.9337 0.713125 11.3043 1.98453L9.56519 20L11.3043 38.0155C13.9337 39.2869 16.8835 40 20 40C23.1164 40 26.0662 39.2869 28.6956 38.0155L30.4347 20L28.6956 1.98453Z" fill="#F3F6F9"></path>
<path d="M11.3044 1.98535C4.61445 5.2202 0 12.0709 0 20.0001C0 27.9293 4.61445 34.78 11.3044 38.0149V1.98535Z" fill="#6DA544"></path>
<path d="M28.6956 1.98535V38.0149C35.3855 34.78 39.9999 27.9293 39.9999 20.0001C39.9999 12.071 35.3855 5.2202 28.6956 1.98535Z" fill="#6DA544"></path>
<path d="M25.2173 26.0871L19.9999 9.56543L14.7825 26.0871H18.6955V30.435H21.3043V26.0871H25.2173Z" fill="#6DA544"></path>
</g>
<defs>
<clipPath id="clip0_1_4653">
<rect width="40" height="40" fill="white"></rect>
</clipPath>
</defs>
</svg>