<svg width="40" height="40" viewBox="0 0 40 40" fill="none" xmlns="http://www.w3.org/2000/svg">
<g clip-path="url(#clip0_1_3074)">
<path d="M20.0005 39.9999C31.0462 39.9999 40.0005 31.0456 40.0005 19.9999C40.0005 8.95424 31.0462 -6.10352e-05 20.0005 -6.10352e-05C8.95479 -6.10352e-05 0.000488281 8.95424 0.000488281 19.9999C0.000488281 31.0456 8.95479 39.9999 20.0005 39.9999Z" fill="#F3F6F9"></path>
<path d="M19.9998 0C12.0706 0 5.21938 4.61445 1.98438 11.3044H38.0152C34.7803 4.61445 27.929 0 19.9998 0Z" fill="#338AF3"></path>
<path d="M19.9998 40C27.929 40 34.7803 35.3855 38.0153 28.6956H1.98438C5.21937 35.3855 12.0706 40 19.9998 40Z" fill="#338AF3"></path>
<path d="M20 13.913C16.6383 13.913 13.9131 16.6383 13.9131 20C13.9131 23.3617 16.6383 26.0869 20 26.0869C23.3618 26.0869 26.087 23.3617 26.087 20C26.087 16.6383 23.3618 13.913 20 13.913ZM20 23.4783C18.0791 23.4783 16.5218 21.9211 16.5218 20C16.5218 18.0789 18.079 16.5217 20 16.5217C21.9211 16.5217 23.4783 18.0789 23.4783 20C23.4783 21.9211 21.921 23.4783 20 23.4783Z" fill="#FFDA44"></path>
<path d="M23.0126 20.8695L20.0003 20L16.9879 20.8695L15.9839 22.6087H24.0166L23.0126 20.8695Z" fill="#0073FD"></path>
<path d="M19.9999 15.6522L17.9917 19.1305L19.9999 20L22.0081 19.1305L19.9999 15.6522Z" fill="#338AF3"></path>
<path d="M16.9878 20.8696H23.0125L22.0083 19.1305H17.9919L16.9878 20.8696Z" fill="#75BB42"></path>
</g>
<defs>
<clipPath id="clip0_1_3074">
<rect width="40" height="40" fill="white"></rect>
</clipPath>
</defs>
</svg>