<svg width="40" height="40" viewBox="0 0 40 40" fill="none" xmlns="http://www.w3.org/2000/svg">
<g clip-path="url(#clip0_3546_142178)">
<path d="M19.9998 40C31.0455 40 39.9998 31.0457 39.9998 20C39.9998 8.9543 31.0455 0 19.9998 0C8.95406 0 -0.000244141 8.9543 -0.000244141 20C-0.000244141 31.0457 8.95406 40 19.9998 40Z" fill="#F3F6F9"></path>
<path d="M19.9999 0C11.4006 0 4.06975 5.4275 1.2439 13.0435H38.756C35.9301 5.4275 28.5992 0 19.9999 0Z" fill="#A2001D"></path>
<path d="M19.9999 40C28.5992 40 35.9301 34.5726 38.7559 26.9565H1.2439C4.06976 34.5726 11.4006 40 19.9999 40Z" fill="#0073FD"></path>
</g>
<defs>
<clipPath id="clip0_3546_142178">
<rect width="40" height="40" fill="white"></rect>
</clipPath>
</defs>
</svg>