<svg width="40" height="40" viewBox="0 0 40 40" fill="none" xmlns="http://www.w3.org/2000/svg">
<g clip-path="url(#clip0_3546_142129)">
<path d="M20.0002 40C31.0459 40 40.0002 31.0457 40.0002 20C40.0002 8.9543 31.0459 0 20.0002 0C8.95455 0 0.000244141 8.9543 0.000244141 20C0.000244141 31.0457 8.95455 40 20.0002 40Z" fill="#F3F6F9"></path>
<path d="M0.689209 25.2173C1.8464 29.511 4.39679 33.2324 7.82632 35.8674V25.2173H0.689209Z" fill="#FB2727"></path>
<path d="M18.261 39.9238C18.8343 39.9731 19.414 39.9999 20.0001 39.9999C29.2407 39.9999 37.0161 33.7326 39.3111 25.2173H18.261V39.9238Z" fill="#FB2727"></path>
<path d="M39.3111 14.7826C37.0161 6.26726 29.2407 0 20.0001 0C19.414 0 18.8343 0.0267187 18.261 0.0760937V14.7826H39.3111Z" fill="#FB2727"></path>
<path d="M7.82632 4.13232C4.39679 6.76748 1.8464 10.4888 0.689209 14.7825H7.82632V4.13232Z" fill="#FB2727"></path>
<path d="M39.8307 17.3915H15.6523H15.6522V0.475586C13.8039 0.88543 12.0516 1.54973 10.4348 2.43199V17.3914V17.3914H0.169297C0.0579688 18.2454 0 19.1161 0 20.0002C0 20.8843 0.0579688 21.755 0.169297 22.6089H10.4347H10.4348V37.5683C12.0516 38.4505 13.8039 39.115 15.6522 39.5247V22.6091V22.6089H39.8307C39.9419 21.755 40 20.8843 40 20.0002C40 19.1161 39.9419 18.2454 39.8307 17.3915Z" fill="#0073FD"></path>
</g>
<defs>
<clipPath id="clip0_3546_142129">
<rect width="40" height="40" fill="white"></rect>
</clipPath>
</defs>
</svg>