<svg width="40" height="40" viewBox="0 0 40 40" fill="none" xmlns="http://www.w3.org/2000/svg">
<g clip-path="url(#clip0_1_3103)">
<path d="M20 40C31.0457 40 40 31.0457 40 20C40 8.9543 31.0457 0 20 0C8.9543 0 0 8.9543 0 20C0 31.0457 8.9543 40 20 40Z" fill="#F3F6F9"></path>
<path d="M39.8822 22.1745L39.8819 22.1733L39.8818 22.1745H39.8822Z" fill="#0073FD"></path>
<path d="M39.882 22.1739C39.882 22.1738 39.8821 22.1736 39.8821 22.1733L17.9489 0.104004C16.9595 0.204863 15.9913 0.377832 15.0498 0.617598C6.39828 2.82033 0 20 0 20C0 20 27.9998 38.7371 31.1941 36.5753C31.8333 36.1428 32.4461 35.6743 33.0295 35.1728L20.0309 22.1739H39.882Z" fill="#0073FD"></path>
<path d="M34.7826 20L15.3316 0.549133C6.53813 2.65202 0 10.5619 0 20C0 31.0456 8.95438 40 20 40C24.1898 40 28.0779 38.7108 31.2913 36.5087L14.7826 20H34.7826Z" fill="#FB2727"></path>
<path d="M19.0215 29.5307L16.5789 28.3818L17.8796 26.0162L15.2272 26.5236L14.8912 23.8441L13.0437 25.8148L11.1963 23.8441L10.8601 26.5236L8.20787 26.0161L9.50857 28.3818L7.06592 29.5307L9.50857 30.6795L8.20787 33.0451L10.8603 32.5378L11.1962 35.2172L13.0437 33.2465L14.8912 35.2172L15.2272 32.5378L17.8795 33.0452L16.5788 30.6797L19.0215 29.5307Z" fill="#F3F6F9"></path>
<path d="M17.3915 11.0924L15.6149 10.2569L16.561 8.53633L14.6318 8.90539L14.3874 6.95648L13.0437 8.38984L11.7 6.95648L11.4555 8.90539L9.52635 8.53633L10.4724 10.2569L8.6958 11.0924L13.0437 11.9621L17.3915 11.0924Z" fill="#F3F6F9"></path>
<path d="M18.261 11.0923C18.261 13.9738 15.9251 16.3098 13.0436 16.3098C10.1621 16.3098 7.82617 13.9738 7.82617 11.0923" fill="#F3F6F9"></path>
</g>
<defs>
<clipPath id="clip0_1_3103">
<rect width="40" height="40" fill="white"></rect>
</clipPath>
</defs>
</svg>