<svg width="40" height="40" viewBox="0 0 40 40" fill="none" xmlns="http://www.w3.org/2000/svg">
<g clip-path="url(#clip0_1_3114)">
<path d="M20 39.9999C31.0457 39.9999 40 31.0456 40 19.9999C40 8.95424 31.0457 -6.10352e-05 20 -6.10352e-05C8.95431 -6.10352e-05 0 8.95424 0 19.9999C0 31.0456 8.95431 39.9999 20 39.9999Z" fill="#0073FD"></path>
<path d="M20 39.9999C31.0457 39.9999 40 31.0456 40 19.9999C40 8.95424 31.0457 -6.10352e-05 20 -6.10352e-05C8.95431 -6.10352e-05 0 8.95424 0 19.9999C0 31.0456 8.95431 39.9999 20 39.9999Z" fill="#FFDA44"></path>
<path d="M20 -3.05176e-05C9.54031 -3.05176e-05 0.957656 8.02974 0.0761719 18.2608H39.9239C39.0423 8.02974 30.4597 -3.05176e-05 20 -3.05176e-05Z" fill="#0073FD"></path>
<path d="M20 40C30.4597 40 39.0423 31.9702 39.9239 21.7391H0.0761719C0.957656 31.9702 9.54031 40 20 40Z" fill="#0073FD"></path>
<path d="M16.5215 26.9565L14.2804 28.0107L15.4738 30.1811L13.0403 29.7155L12.7319 32.1739L11.0369 30.3659L9.34185 32.1739L9.03349 29.7155L6.5999 30.181L7.79334 28.0106L5.55225 26.9565L7.79342 25.9023L6.5999 23.732L9.03342 24.1975L9.34193 21.7391L11.0369 23.5472L12.732 21.7391L13.0403 24.1975L15.4739 23.732L14.2805 25.9024L16.5215 26.9565Z" fill="#F3F6F9"></path>
</g>
<defs>
<clipPath id="clip0_1_3114">
<rect width="40" height="40" fill="white"></rect>
</clipPath>
</defs>
</svg>