<svg width="40" height="40" viewBox="0 0 40 40" fill="none" xmlns="http://www.w3.org/2000/svg">
<g clip-path="url(#clip0_1_4408)">
<path d="M40 20C40 31.0456 31.0456 40 20 40C8.95437 40 0 31.0456 0 20C0 20.0048 20 0.0021875 20 0C31.0456 0 40 8.95437 40 20Z" fill="#FFDA44"></path>
<path d="M20.0004 9.56519V16.3107L13.0439 9.56519H20.0004Z" fill="#0052B4"></path>
<path d="M10.435 19.9999H16.3108L10.435 12.1738L9.56543 18.2608L10.435 19.9999Z" fill="#0052B4"></path>
<path d="M19.9463 20H19.9998C19.9998 19.9821 19.9998 19.9646 19.9998 19.9465C19.982 19.9644 19.9642 19.9822 19.9463 20Z" fill="#F0F0F0"></path>
<path d="M20 10.4348C20 6.91563 20 4.60977 20 0H19.9966C8.95242 0.001875 0 8.95539 0 20H10.4348V14.1241L16.3106 20H19.9466C19.9644 19.9822 19.9822 19.9644 20.0001 19.9465C20.0001 18.5991 20.0001 17.3968 20.0001 16.3108L14.1241 10.4348H20Z" fill="#F3F6F9"></path>
<path d="M20.0003 17.5405L12.8944 10.4348H10.4351V10.435L20.0001 20H20.0003C20.0003 20 20.0003 18.3041 20.0003 17.5405Z" fill="#D80027"></path>
<path d="M10.1186 2.60864C9.34756 3.04771 8.60889 3.537 7.90639 4.07114H8.72701L6.55811 5.64724L7.38639 8.197L5.21748 6.62122L4.9867 6.78896C4.08615 7.81161 3.28771 8.9263 2.60889 10.1183V20H7.82631V7.82622V7.82607H20.0002C20.0002 6.18052 20.0002 4.61286 20.0002 2.60864H10.1186Z" fill="#D80027"></path>
<path d="M8.54367 3.60571C8.32797 3.75673 8.11531 3.91196 7.90586 4.07126L6.55781 5.64735L5.21719 6.62126L4.98445 6.79032C4.49336 7.34813 4.03281 7.93345 3.60547 8.54384C4.09258 8.78024 4.63937 8.91313 5.21719 8.91313C7.25828 8.91313 8.91281 7.2586 8.91281 5.21751C8.91297 4.63954 8.78016 4.0929 8.54367 3.60571Z" fill="#0052B4"></path>
<path d="M4.98438 6.79011L5.21711 6.62104L7.38602 8.1969L6.55766 5.64714L8.72641 4.07104H7.90562C6.84359 4.87878 5.86492 5.79003 4.98438 6.79011Z" fill="#FFDA44"></path>
<path d="M13.8234 3.47827L14.2551 4.80679H15.652L14.5219 5.62796L14.9534 6.95647L13.8234 6.13538L12.6933 6.95647L13.1247 5.62796L11.9946 4.80679H13.3916L13.8234 3.47827Z" fill="#FFDA44"></path>
<path d="M5.21734 12.1738L5.64906 13.5023H7.04594L5.91594 14.3236L6.34742 15.6521L5.21734 14.8309L4.08719 15.6521L4.51867 14.3236L3.38867 13.5023H4.78555L5.21734 12.1738Z" fill="#FFDA44"></path>
</g>
<defs>
<clipPath id="clip0_1_4408">
<rect width="40" height="40" fill="white"></rect>
</clipPath>
</defs>
</svg>