<svg width="40" height="40" viewBox="0 0 40 40" fill="none" xmlns="http://www.w3.org/2000/svg">
<g clip-path="url(#clip0_3546_142165)">
<path d="M40.0002 20C40.0002 31.0456 31.0459 40 20.0002 40C8.95462 40 0.000244141 31.0456 0.000244141 20C0.000244141 20.0048 20.0002 0.0021875 20.0002 0C31.0459 0 40.0002 8.95437 40.0002 20Z" fill="#0073FD"></path>
<path d="M19.9465 19.9998H20C20 19.9818 20 19.9643 20 19.9463C19.9822 19.9642 19.9644 19.982 19.9465 19.9998Z" fill="#F3F6F9"></path>
<path d="M20.0002 10.4348C20.0002 6.91563 20.0002 4.60977 20.0002 0H19.9969C8.95274 0.001875 0.000244141 8.95539 0.000244141 20H10.435V14.1241L16.3109 20H19.9468C19.9646 19.9822 19.9825 19.9644 20.0003 19.9465C20.0003 18.5991 20.0003 17.3968 20.0003 16.3108L14.1243 10.4348H20.0002Z" fill="#F3F6F9"></path>
<path d="M10.1183 2.60889C6.99028 4.39006 4.38981 6.99053 2.60864 10.1186V20.0002H7.82607V7.82646V7.82631H20C20 6.18076 20 4.61311 20 2.60889H10.1183Z" fill="#FB2727"></path>
<path d="M20 17.5408L12.8943 10.4351C12.8943 10.4351 10.4348 10.4352 10.4348 10.4351V10.4352L19.9999 20.0002H20C20 20.0002 20 18.3044 20 17.5408Z" fill="#FB2727"></path>
<path d="M34.6351 14.8408L35.0668 16.1694H36.4637L35.3336 16.9905L35.7653 18.319L34.6351 17.498L33.5049 18.319L33.9366 16.9905L32.8064 16.1694H34.2033L34.6351 14.8408Z" fill="#FB2727"></path>
<path d="M29.6414 24.4058L30.289 26.3987H32.3844L30.6891 27.6303L31.3367 29.6232L29.6414 28.3915L27.9461 29.6232L28.5938 27.6303L26.8984 26.3987H28.9938L29.6414 24.4058Z" fill="#FB2727"></path>
<path d="M29.8301 8.75391L30.3698 10.4148H32.116L30.7032 11.4409L31.2429 13.1017L29.8301 12.0752L28.4175 13.1017L28.9571 11.4409L27.5444 10.4148H29.2905L29.8301 8.75391Z" fill="#FB2727"></path>
<path d="M25.0252 14.7827L25.6727 16.7757H27.7682L26.0729 18.0072L26.7205 20.0001L25.0252 18.7685L23.3299 20.0001L23.9775 18.0072L22.2822 16.7757H24.3776L25.0252 14.7827Z" fill="#FB2727"></path>
</g>
<defs>
<clipPath id="clip0_3546_142165">
<rect width="40" height="40" fill="white"></rect>
</clipPath>
</defs>
</svg>