<svg width="40" height="40" viewBox="0 0 40 40" fill="none" xmlns="http://www.w3.org/2000/svg">
<g clip-path="url(#clip0_1_3033)">
<path d="M20 40C31.0457 40 40 31.0457 40 20C40 8.95428 31.0457 -3.05176e-05 20 -3.05176e-05C8.9543 -3.05176e-05 0 8.95428 0 20C0 31.0457 8.9543 40 20 40Z" fill="#F3F6F9"></path>
<path d="M0 20C0 27.5809 4.21797 34.1762 10.4348 37.5682V2.43182C4.21797 5.82385 0 12.4192 0 20Z" fill="#FB2727"></path>
<path d="M38.7561 26.9565C39.56 24.7899 40 22.4464 40 20C40 17.5536 39.56 15.2101 38.7561 13.0435H1.24406C0.440078 15.2101 0 17.5536 0 20C0 22.4464 0.440078 24.7899 1.24406 26.9565L20 28.6957L38.7561 26.9565Z" fill="#FB2727"></path>
<path d="M20.0001 40C28.5995 40 35.9302 34.5725 38.7562 26.9565H1.24414C4.06992 34.5725 11.4009 40 20.0001 40Z" fill="#75BB42"></path>
<path d="M0 20C0 29.2405 6.26727 37.016 14.7826 39.311V0.688965C6.26727 2.98396 0 10.7594 0 20Z" fill="#FB2727"></path>
<path d="M12.2357 8.80109L10.3911 6.95648L9.16137 8.18633L7.93168 6.95648L6.08707 8.80109L7.31684 10.0309L6.08691 11.2607L7.93152 13.1053L9.16129 11.8755L10.3911 13.1053L12.2357 11.2607L11.0059 10.0309L12.2357 8.80109Z" fill="#F3F6F9"></path>
</g>
<defs>
<clipPath id="clip0_1_3033">
<rect width="40" height="40" fill="white"></rect>
</clipPath>
</defs>
</svg>