<svg width="40" height="40" viewBox="0 0 40 40" fill="none" xmlns="http://www.w3.org/2000/svg">
<g clip-path="url(#clip0_1_2980)">
<path d="M20.0005 40C31.0462 40 40.0005 31.0457 40.0005 20C40.0005 8.95431 31.0462 0 20.0005 0C8.95479 0 0.000488281 8.95431 0.000488281 20C0.000488281 31.0457 8.95479 40 20.0005 40Z" fill="#F3F6F9"></path>
<path d="M0 20C0 31.0456 8.95437 40 20 40C20 32.3941 20 20 20 20C20 20 6.95648 20 0 20Z" fill="#0073FD"></path>
<path d="M20 0C31.0456 0 40 8.95437 40 20C32.3941 20 20 20 20 20C20 20 20 6.95648 20 0Z" fill="#FB2727"></path>
<path d="M11.9054 6.95648L13.2004 10.9423H17.3913L14.0008 13.4055L15.2958 17.3913L11.9054 14.928L8.5149 17.3913L9.8099 13.4055L6.41943 10.9423H10.6103L11.9054 6.95648Z" fill="#0073FD"></path>
<path d="M28.0948 22.6087L29.3899 26.5945H33.5808L30.1902 29.0578L31.4853 33.0435L28.0948 30.5802L24.7044 33.0435L25.9994 29.0578L22.6089 26.5945H26.7997L28.0948 22.6087Z" fill="#FB2727"></path>
</g>
<defs>
<clipPath id="clip0_1_2980">
<rect width="40" height="40" fill="white"></rect>
</clipPath>
</defs>
</svg>