<svg width="40" height="40" viewBox="0 0 40 40" fill="none" xmlns="http://www.w3.org/2000/svg">
<g clip-path="url(#clip0_1_3005)">
<path d="M20.0005 40.0001C31.0462 40.0001 40.0005 31.0458 40.0005 20.0001C40.0005 8.95436 31.0462 6.10352e-05 20.0005 6.10352e-05C8.95479 6.10352e-05 0.000488281 8.95436 0.000488281 20.0001C0.000488281 31.0458 8.95479 40.0001 20.0005 40.0001Z" fill="#F3F6F9"></path>
<path d="M40.0001 20C40.0001 11.4008 34.5726 4.06986 26.9565 1.24408V38.7562C34.5726 35.9302 40.0001 28.5994 40.0001 20Z" fill="#FB2727"></path>
<path d="M0 20C0 28.5994 5.4275 35.9302 13.0435 38.7561V1.24408C5.4275 4.06986 0 11.4008 0 20Z" fill="#FB2727"></path>
</g>
<defs>
<clipPath id="clip0_1_3005">
<rect width="40" height="40" fill="white"></rect>
</clipPath>
</defs>
</svg>