<svg width="40" height="40" viewBox="0 0 40 40" fill="none" xmlns="http://www.w3.org/2000/svg">
<g clip-path="url(#clip0_1_2987)">
<path d="M34.1422 34.1421C26.3317 41.9526 13.6685 41.9526 5.85784 34.1421C-1.95263 26.3316 -1.95263 13.6683 5.85792 5.85773C13.6684 -1.95274 25.1019 -0.722972 32.9124 7.08757C40.7228 14.898 41.9526 26.3316 34.1422 34.1421Z" fill="black"></path>
<path d="M5.85791 5.85778C13.6684 -1.95269 26.3316 -1.95253 34.1422 5.85786C41.9527 13.6683 41.9527 26.3316 34.1422 34.1422" fill="#A2001D"></path>
<path d="M15.2846 26.9567L15.6083 27.9532H16.6561L15.8084 28.5689L16.1322 29.5654L15.2846 28.9496L14.4369 29.5654L14.7607 28.5689L13.9131 27.9532H14.9607L15.2846 26.9567Z" fill="#F3F6F9"></path>
<path d="M12.6085 17.3914L13.1483 19.0521H14.8944L13.4817 20.0785L14.0213 21.7392L12.6085 20.7128L11.1959 21.7392L11.7356 20.0785L10.3228 19.0521H12.069L12.6085 17.3914Z" fill="#F3F6F9"></path>
<path d="M12.6085 29.5654L13.1481 31.2261H14.8944L13.4815 32.2524L14.0213 33.9132L12.6085 32.8867L11.1959 33.9132L11.7354 32.2524L10.3228 31.2261H12.0688L12.6085 29.5654Z" fill="#F3F6F9"></path>
<path d="M17.7139 21.7393L18.2537 23.4H19.9998L18.5871 24.4263L19.1267 26.0871L17.7139 25.0606L16.3013 26.0871L16.841 24.4263L15.4282 23.4H17.1744L17.7139 21.7393Z" fill="#F3F6F9"></path>
<path d="M7.50307 21.7393L8.04283 23.4H9.78885L8.37619 24.4263L8.91572 26.0871L7.50307 25.0606L6.09033 26.0871L6.6301 24.4263L5.21729 23.4H6.96346L7.50307 21.7393Z" fill="#F3F6F9"></path>
<path d="M33.4803 14.8095C32.5865 13.9157 31.4251 13.3876 30.177 13.2969L33.913 10.3912C32.4251 8.90333 30.4308 8.23138 28.4849 8.37349C28.2519 7.5363 27.8078 6.74552 27.1494 6.08716L25.6737 9.03856C25.5769 8.86216 25.4544 8.69614 25.3048 8.54669C24.4558 7.69771 23.0794 7.69771 22.2304 8.54669C21.3815 9.39567 21.3814 10.7721 22.2304 11.6211C22.3799 11.7705 22.546 11.8931 22.7224 11.99L19.771 13.4657C20.4295 14.1243 21.2208 14.5687 22.0585 14.8015C21.9159 16.7475 22.5872 18.7414 24.0751 20.2293L27.3392 16.0326C27.5847 15.7908 27.909 15.6573 28.254 15.6573C28.6025 15.6573 28.93 15.7929 29.1763 16.0394C29.4227 16.2858 29.5584 16.6133 29.5584 16.9617C29.5584 17.3101 29.4227 17.6376 29.1763 17.884L30.4062 19.1139C30.9809 18.539 31.2976 17.7747 31.2976 16.9618C31.2976 16.2966 31.0854 15.6643 30.6937 15.1415C31.2644 15.2939 31.8039 15.5925 32.2508 16.0394C33.607 17.3956 33.607 19.6023 32.2508 20.9584L33.4806 22.1883C34.466 21.2028 35.0087 19.8926 35.0087 18.499C35.0085 17.1051 34.4657 15.795 33.4803 14.8095Z" fill="#FFDA44"></path>
</g>
<defs>
<clipPath id="clip0_1_2987">
<rect width="40" height="40" fill="white"></rect>
</clipPath>
</defs>
</svg>