<svg width="40" height="40" viewBox="0 0 40 40" fill="none" xmlns="http://www.w3.org/2000/svg">
<g clip-path="url(#clip0_1_2967)">
<path d="M20 40C31.0457 40 40 31.0457 40 20C40 8.95428 31.0457 -3.05176e-05 20 -3.05176e-05C8.95431 -3.05176e-05 0 8.95428 0 20C0 31.0457 8.95431 40 20 40Z" fill="#F3F6F9"></path>
<path d="M0 20C0 27.5809 4.21789 34.1761 10.4348 37.5682V2.43179C4.21789 5.8239 0 12.4191 0 20Z" fill="#F3F6F9"></path>
<path d="M20.0003 0C16.5354 0 13.2765 0.881485 10.4351 2.4318V37.5681C13.2765 39.1185 16.5354 40 20.0003 40C31.0459 40 40.0003 31.0456 40.0003 20C40.0003 8.95438 31.0459 0 20.0003 0Z" fill="#496E2D"></path>
<path d="M28.5513 23.3076C26.0211 25.1358 22.4878 24.5667 20.6597 22.0366C18.8314 19.5063 19.4005 15.973 21.9308 14.1449C22.7197 13.5749 23.6061 13.238 24.5079 13.1209C22.773 12.8614 20.939 13.2523 19.4048 14.3609C16.2908 16.611 15.5902 20.9595 17.8403 24.0738C20.0904 27.1877 24.439 27.8884 27.5532 25.638C29.0875 24.5295 30.0344 22.9113 30.3327 21.1825C29.9385 22.0017 29.3403 22.7375 28.5513 23.3076Z" fill="#F3F6F9"></path>
<path d="M28.4427 13.0437L29.868 14.5797L31.7692 13.6991L30.7487 15.5291L32.1739 17.0653L30.118 16.6602L29.0975 18.4903L28.8474 16.4099L26.7915 16.0048L28.6928 15.1242L28.4427 13.0437Z" fill="#F3F6F9"></path>
</g>
<defs>
<clipPath id="clip0_1_2967">
<rect width="40" height="40" fill="white"></rect>
</clipPath>
</defs>
</svg>