<svg width="40" height="40" viewBox="0 0 40 40" fill="none" xmlns="http://www.w3.org/2000/svg">
<g clip-path="url(#clip0_1_4536)">
<path d="M-4 -0.1875H16.4141V13.4219H-4V-0.1875Z" fill="#D22F27"></path>
<path fill-rule="evenodd" clip-rule="evenodd" d="M6.20703 7.90639L-2.42969 13.4219H-4V11.8516L4.28103 6.61719L-4 1.38281V-0.1875H-2.42969L6.20703 5.32798L14.8438 -0.1875H16.4141V1.38281L8.13303 6.61719L16.4141 11.8516V13.4219H14.8438L6.20703 7.90639Z" fill="#5C9E31"></path>
<path d="M6.20703 13.4219V-0.1875V13.4219Z" fill="black"></path>
<path fill-rule="evenodd" clip-rule="evenodd" d="M7.34124 -0.1875V13.4219H5.07283V-0.1875H7.34124Z" fill="white"></path>
<path d="M-4 6.61719H16.4141H-4Z" fill="black"></path>
<path fill-rule="evenodd" clip-rule="evenodd" d="M16.4141 7.75139H-4V5.48298H16.4141V7.75139Z" fill="white"></path>
<path d="M16.4141 -0.1875H63V39.5938H16.4141V-0.1875Z" fill="#61B2E4"></path>
<path d="M-4 13.4219H16.4141V26.5078H-4V13.4219Z" fill="white"></path>
<path d="M-4 26.5078H16.4141V39.5938H-4V26.5078Z" fill="#D22F27"></path>
<path d="M0.754647 29.6484C0.152335 29.6484 -0.335938 30.093 -0.335938 30.6953C-0.335938 31.2976 0.152335 31.7422 0.754647 31.7422H11.6594C12.2617 31.7422 12.75 31.2976 12.75 30.6953C12.75 30.093 12.2617 29.6484 11.6594 29.6484H0.754647Z" fill="#F1B31C"></path>
<path d="M0.754647 34.3594C0.152335 34.3594 -0.335938 34.8039 -0.335938 35.4062C-0.335938 36.0086 0.152335 36.4531 0.754647 36.4531H11.6594C12.2617 36.4531 12.75 36.0086 12.75 35.4062C12.75 34.8039 12.2617 34.3594 11.6594 34.3594H0.754647Z" fill="#F1B31C"></path>
<path d="M31.9861 6.35516C31.7861 6.35516 31.5899 6.41018 31.419 6.51419C28.7225 8.15568 26.7598 10.7713 25.9384 13.8196C25.8623 14.1022 25.9029 14.4036 26.0512 14.6559C26.1996 14.9083 26.4431 15.0904 26.7271 15.1614L30.4576 16.0936C30.7547 16.1679 31.0694 16.1138 31.3247 15.9445C31.5799 15.7752 31.7523 15.5064 31.7995 15.2038C32.194 12.6777 32.9555 10.2227 34.06 7.91687C34.2219 7.57895 34.1989 7.1816 33.9992 6.86455C33.7996 6.54751 33.4511 6.35516 33.0764 6.35516H31.9861Z" fill="#F1B31C"></path>
<path d="M40.7102 4.99194C40.4949 4.99194 40.2844 5.05568 40.1053 5.17512C36.4592 7.60605 34.167 12.3557 34.167 18.0781C34.167 18.5786 34.5076 19.0148 34.9931 19.1362L39.3549 20.2265C39.7681 20.3298 40.2036 20.1831 40.4701 19.8509C40.7366 19.5187 40.7853 19.0618 40.5949 18.6808C40.4322 18.3553 40.3 17.734 40.2839 16.7982C40.2683 15.893 40.3622 14.8028 40.5589 13.6225C40.9533 11.2564 41.7422 8.63751 42.776 6.57029C42.945 6.23222 42.927 5.83072 42.7283 5.50919C42.5296 5.18766 42.1785 4.99194 41.8006 4.99194H40.7102Z" fill="#F1B31C"></path>
<path d="M49.4338 6.35516C49.2185 6.35516 49.008 6.4189 48.8289 6.53835C45.1828 8.96927 42.8906 13.7189 42.8906 19.4414C42.8906 19.9418 43.2312 20.378 43.7167 20.4994L46.7273 21.2518C43.1375 23.4122 39.3493 23.8034 37.4382 23.8034C36.014 23.8034 34.3082 23.3195 32.9803 22.4744C31.6373 21.6197 30.8955 20.549 30.8955 19.4414C30.8955 18.839 30.4073 18.3508 29.8049 18.3508H22.1717C21.7422 18.3508 21.3527 18.6028 21.1768 18.9946C21.0009 19.3864 21.0712 19.8449 21.3566 20.1659L30.0807 29.9804C30.2876 30.2132 30.5843 30.3464 30.8958 30.3464H49.4339C49.6491 30.3464 49.8596 30.2827 50.0387 30.1633C51.9405 28.8957 53.6803 26.2028 54.9267 23.4331C56.1863 20.6341 57.0674 17.475 57.0674 15.0795C57.0674 14.4772 56.5791 13.989 55.9768 13.989H53.7957C53.3826 13.989 53.0049 14.2224 52.8202 14.5918C51.8002 16.632 50.5246 18.2278 49.1361 19.4739C49.0656 19.1393 49.0174 18.703 49.008 18.1614C48.9924 17.2562 49.0863 16.166 49.283 14.9857C49.6774 12.6196 50.4664 10.0007 51.5001 7.93351C51.6692 7.59545 51.6511 7.19395 51.4524 6.87241C51.2537 6.55088 50.9027 6.35516 50.5247 6.35516H49.4338Z" fill="#F1B31C"></path>
<path fill-rule="evenodd" clip-rule="evenodd" d="M20.3224 31.4508C19.4334 32.0672 18.3877 32.7891 16.4141 32.7891V30.3854C17.7633 30.3854 18.3818 29.9566 19.1528 29.4219L19.1608 29.4164C20.0498 28.8 21.0955 28.0781 23.0692 28.0781C25.0428 28.0781 26.0886 28.8 26.9776 29.4164L26.9856 29.4219C27.7566 29.9566 28.3751 30.3854 29.7243 30.3854C31.0736 30.3854 31.692 29.9566 32.4631 29.4219L32.4711 29.4164C33.3601 28.8 34.4058 28.0781 36.3795 28.0781C38.3531 28.0781 39.3988 28.8 40.2878 29.4164L40.2958 29.4219C41.0669 29.9566 41.6853 30.3854 43.0346 30.3854C44.3839 30.3854 45.0023 29.9566 45.7734 29.4219L45.7814 29.4164C46.6704 28.8 47.7161 28.0781 49.6897 28.0781C51.6634 28.0781 52.7091 28.8 53.5981 29.4164L53.6061 29.4219C54.3772 29.9566 54.9956 30.3854 56.3449 30.3854C57.6941 30.3854 58.3126 29.9566 59.0836 29.4219L59.0916 29.4164C59.9806 28.8 61.0264 28.0781 63 28.0781V30.4818C61.6507 30.4818 61.0323 30.9106 60.2612 31.4453L60.2532 31.4508C59.3642 32.0672 58.3185 32.7891 56.3449 32.7891C54.3712 32.7891 53.3255 32.0672 52.4365 31.4508L52.4285 31.4452C51.6574 30.9106 51.039 30.4818 49.6897 30.4818C48.3405 30.4818 47.722 30.9106 46.951 31.4453L46.943 31.4508C46.054 32.0672 45.0082 32.7891 43.0346 32.7891C41.0609 32.7891 40.0152 32.0672 39.1262 31.4508L39.1182 31.4453C38.3472 30.9106 37.7287 30.4818 36.3795 30.4818C35.0302 30.4818 34.4118 30.9106 33.6407 31.4453L33.6327 31.4508C32.7437 32.0672 31.698 32.7891 29.7243 32.7891C27.7507 32.7891 26.705 32.0672 25.816 31.4508L25.808 31.4453C25.0369 30.9106 24.4184 30.4818 23.0692 30.4818C21.7199 30.4818 21.1015 30.9106 20.3304 31.4453L20.3224 31.4508Z" fill="white"></path>
<path d="M-3.01907 19.9251L-4 18.3171V16.6002L-3.01907 14.9922L-1.51444 17.4586L-3.01907 19.9251Z" fill="black"></path>
<path d="M2.97797 19.9251L1.47335 17.4586L2.97797 14.9922L4.4826 17.4586L2.97797 19.9251Z" fill="black"></path>
<path d="M9.19456 20.0046L7.68993 17.5382L9.19456 15.0717L10.6992 17.5382L9.19456 20.0046Z" fill="black"></path>
<path d="M4.68093 22.471L6.18556 24.9375L7.69019 22.471L6.18556 20.0046L4.68093 22.471Z" fill="black"></path>
<path d="M10.6992 22.471L12.2038 24.9375L13.7084 22.471L12.2038 20.0046L10.6992 22.471Z" fill="black"></path>
<path d="M13.9282 17.5382L15.4329 20.0046L16.4141 18.3962V16.6801L15.4329 15.0717L13.9282 17.5382Z" fill="black"></path>
<path d="M0.167053 24.9375L-1.33757 22.471L0.167053 20.0046L1.67168 22.471L0.167053 24.9375Z" fill="black"></path>
<path d="M20 40.0002C31.0457 40.0002 40 31.0459 40 20.0002C40 8.95455 31.0457 0.000244141 20 0.000244141C8.95431 0.000244141 0 8.95455 0 20.0002C0 31.0459 8.95431 40.0002 20 40.0002Z" fill="#F3F6F9"></path>
<path d="M39.9996 20.0002C39.9996 11.4009 34.5721 4.07 26.9561 1.24414V38.7562C34.5721 35.9303 39.9996 28.5995 39.9996 20.0002Z" fill="#FB2727"></path>
<path d="M0 20.0002C0 28.5995 5.42758 35.9303 13.0435 38.7562V1.24414C5.42758 4.07 0 11.4009 0 20.0002Z" fill="#0073FD"></path>
</g>
<defs>
<clipPath id="clip0_1_4536">
<rect width="40" height="40" rx="20" fill="white"></rect>
</clipPath>
</defs>
</svg>