<svg width="40" height="40" viewBox="0 0 40 40" fill="none" xmlns="http://www.w3.org/2000/svg">
<g clip-path="url(#clip0_1_4302)">
<path d="M40 20C40 31.0456 31.0456 40 20 40C8.95437 40 0 31.0456 0 20C0 20.0048 20 0.0021875 20 0C31.0456 0 40 8.95437 40 20Z" fill="#0052B4"></path>
<path d="M19.9463 20H19.9998C19.9998 19.9821 19.9998 19.9646 19.9998 19.9465C19.982 19.9644 19.9642 19.9822 19.9463 20Z" fill="#F0F0F0"></path>
<path d="M20 10.4348C20 6.91563 20 4.60977 20 0H19.9966C8.95242 0.001875 0 8.95539 0 20H10.4348V14.1241L16.3106 20H19.9466C19.9644 19.9822 19.9822 19.9644 20.0001 19.9465C20.0001 18.5991 20.0001 17.3968 20.0001 16.3108L14.1241 10.4348H20Z" fill="#F3F6F9"></path>
<path d="M10.1186 2.60864C6.99053 4.38981 4.38998 6.99028 2.60889 10.1183V20H7.82631V7.82622V7.82607H20.0002C20.0002 6.18052 20.0002 4.61286 20.0002 2.60864H10.1186Z" fill="#D80027"></path>
<path d="M20.0003 17.5405L12.8944 10.4348H10.4351V10.435L20.0001 20H20.0003C20.0003 20 20.0003 18.3041 20.0003 17.5405Z" fill="#D80027"></path>
<path d="M31.3042 12.174L28.6955 13.0436L26.0868 12.174L25.2173 10.0001L26.0868 7.82617H31.3042L30.4346 10.0001L31.3042 12.174Z" fill="#ACABB1"></path>
<path d="M22.6089 12.1738V21.739C22.6089 26.3984 28.6958 27.826 28.6958 27.826C28.6958 27.826 34.7828 26.3984 34.7828 21.739V12.1738H22.6089Z" fill="#338AF3"></path>
<path d="M23.1572 24.0052C24.6535 26.8778 28.6955 27.8262 28.6955 27.8262C28.6955 27.8262 32.7375 26.8778 34.2338 24.0052L28.6955 14.7827L23.1572 24.0052Z" fill="#6DA544"></path>
<path d="M34.7828 21.6423L28.6958 12.1738L22.6089 21.6424V21.739C22.6089 22.6013 22.8178 23.3527 23.1576 24.0051L28.6958 15.3898L34.2341 24.005C34.5739 23.3526 34.7828 22.6012 34.7828 21.7389V21.6423Z" fill="#FFDA44"></path>
</g>
<defs>
<clipPath id="clip0_1_4302">
<rect width="40" height="40" fill="white"></rect>
</clipPath>
</defs>
</svg>