<svg width="40" height="40" viewBox="0 0 40 40" fill="none" xmlns="http://www.w3.org/2000/svg">
<g clip-path="url(#clip0_1_4136)">
<path d="M20 40C31.0457 40 40 31.0457 40 20C40 8.9543 31.0457 0 20 0C8.9543 0 0 8.9543 0 20C0 31.0457 8.9543 40 20 40Z" fill="#F3F6F9"></path>
<path d="M19.9999 0C13.4568 0 7.64777 3.14242 3.99902 8H36.0007C32.352 3.14242 26.543 0 19.9999 0Z" fill="#D80027"></path>
<path d="M19.9999 40C26.543 40 32.352 36.8576 36.0007 32H3.99902C7.64777 36.8576 13.4568 40 19.9999 40Z" fill="#D80027"></path>
<path d="M0 20C0 21.3699 0.138125 22.7076 0.400547 24H39.5996C39.862 22.7076 40 21.3699 40 20C40 18.6301 39.8619 17.2924 39.5995 16H0.400547C0.138125 17.2924 0 18.6301 0 20H0Z" fill="#D80027"></path>
<path d="M5.85785 5.85791C-1.95262 13.6684 -1.95262 26.3317 5.85785 34.1423C9.08543 30.9147 12.1896 27.8106 20 20.0001L5.85785 5.85791Z" fill="#0052B4"></path>
<path d="M8.09475 14.7825L9.38967 18.7681H13.5808L10.1903 21.2315L11.4851 25.2173L8.09475 22.754L4.7042 25.2173L5.99936 21.2315L2.60889 18.7681H6.79967L8.09475 14.7825Z" fill="#F3F6F9"></path>
</g>
<defs>
<clipPath id="clip0_1_4136">
<rect width="40" height="40" fill="white"></rect>
</clipPath>
</defs>
</svg>