<svg width="40" height="40" viewBox="0 0 40 40" fill="none" xmlns="http://www.w3.org/2000/svg">
<g clip-path="url(#clip0_1_2961)">
<path d="M20 40C31.0457 40 40 31.0457 40 20C40 8.9543 31.0457 0 20 0C8.9543 0 0 8.9543 0 20C0 31.0457 8.9543 40 20 40Z" fill="#F3F6F9"></path>
<path d="M12.1738 13.0435H38.7558C35.93 5.4275 28.5991 0 19.9999 0C14.4769 0 9.47746 2.23898 5.8584 5.85852L12.1738 13.0435Z" fill="black"></path>
<path d="M12.1738 26.9565H38.7558C35.93 34.5725 28.5991 40 19.9999 40C14.4769 40 9.47746 37.761 5.8584 34.1415L12.1738 26.9565Z" fill="#6DA544"></path>
<path d="M5.85785 5.85782C-1.95262 13.6683 -1.95262 26.3316 5.85785 34.1422C9.08543 30.9146 12.1896 27.8105 20 20L5.85785 5.85782Z" fill="#D80027"></path>
</g>
<defs>
<clipPath id="clip0_1_2961">
<rect width="40" height="40" fill="white"></rect>
</clipPath>
</defs>
</svg>