<svg width="40" height="40" viewBox="0 0 40 40" fill="none" xmlns="http://www.w3.org/2000/svg">
<g clip-path="url(#clip0_3546_142065)">
<path d="M0 20.0002C0 28.5994 5.4275 35.9302 13.0434 38.7561L14.7826 20.0001L13.0434 1.24414C5.4275 4.07008 0 11.4009 0 20.0002Z" fill="#75BB42"></path>
<path d="M39.9998 20C39.9998 8.95437 31.0455 0 19.9999 0C17.5534 0 15.2099 0.440078 13.0432 1.24398V38.756C15.2099 39.56 17.5534 40 19.9999 40C31.0455 40 39.9998 31.0456 39.9998 20Z" fill="#FB2727"></path>
<path d="M13.0434 26.9564C16.8854 26.9564 19.9999 23.8419 19.9999 19.9999C19.9999 16.158 16.8854 13.0435 13.0434 13.0435C9.20144 13.0435 6.08691 16.158 6.08691 19.9999C6.08691 23.8419 9.20144 26.9564 13.0434 26.9564Z" fill="#FFDA44"></path>
<path d="M9.13037 16.5215V20.8693C9.13037 23.0304 10.8822 24.7823 13.0434 24.7823C15.2046 24.7823 16.9565 23.0305 16.9565 20.8693V16.5215H9.13037Z" fill="#FB2727"></path>
<path d="M13.0434 22.1738C12.3242 22.1738 11.739 21.5887 11.739 20.8694V19.1304H14.3477V20.8695C14.3477 21.5887 13.7625 22.1738 13.0434 22.1738Z" fill="#F3F6F9"></path>
</g>
<defs>
<clipPath id="clip0_3546_142065">
<rect width="40" height="40" fill="white"></rect>
</clipPath>
</defs>
</svg>