<svg width="40" height="40" viewBox="0 0 40 40" fill="none" xmlns="http://www.w3.org/2000/svg">
<g clip-path="url(#clip0_1_2998)">
<path d="M19.9995 40.0001C31.0452 40.0001 39.9995 31.0458 39.9995 20.0001C39.9995 8.95436 31.0452 6.10352e-05 19.9995 6.10352e-05C8.95382 6.10352e-05 -0.000488281 8.95436 -0.000488281 20.0001C-0.000488281 31.0458 8.95382 40.0001 19.9995 40.0001Z" fill="#F3F6F9"></path>
<path d="M19.9998 0C12.0706 0 5.21938 4.61445 1.98438 11.3044H38.0152C34.7803 4.61445 27.929 0 19.9998 0Z" fill="#FB2727"></path>
<path d="M19.9998 40C27.929 40 34.7803 35.3855 38.0153 28.6956H1.98438C5.21937 35.3855 12.0706 40 19.9998 40Z" fill="#0073FD"></path>
<path d="M24.9188 14.2115L23.0742 16.0561C23.861 16.8429 24.3478 17.9298 24.3478 19.1305C24.3478 21.5317 22.4011 23.4783 19.9999 23.4783C17.5988 23.4783 15.6521 21.5316 15.6521 19.1305C15.6521 17.9298 16.1388 16.8429 16.9256 16.0561L15.081 14.2115C13.8221 15.4702 13.0435 17.2094 13.0435 19.1305C13.0435 22.9725 16.158 26.087 19.9999 26.087C23.8419 26.087 26.9564 22.9724 26.9564 19.1305C26.9563 17.2094 26.1777 15.4702 24.9188 14.2115Z" fill="#75BB42"></path>
<path d="M19.9998 16.5217L20.6474 18.5147H22.7428L21.0475 19.7463L21.6951 21.7391L19.9998 20.5075L18.3045 21.7391L18.9521 19.7463L17.2568 18.5147H19.3522L19.9998 16.5217Z" fill="#FFDA44"></path>
</g>
<defs>
<clipPath id="clip0_1_2998">
<rect width="40" height="40" fill="white"></rect>
</clipPath>
</defs>
</svg>