<svg width="40" height="40" viewBox="0 0 40 40" fill="none" xmlns="http://www.w3.org/2000/svg">
<g clip-path="url(#clip0_1_2956)">
<path d="M20 40.0001C31.0457 40.0001 40 31.0458 40 20.0001C40 8.95443 31.0457 0.00012207 20 0.00012207C8.95431 0.00012207 0 8.95443 0 20.0001C0 31.0458 8.95431 40.0001 20 40.0001Z" fill="#F3F6F9"></path>
<path d="M40.0001 20C40.0001 8.9544 31.0457 3.05176e-05 20.0001 3.05176e-05C16.0876 3.05176e-05 12.438 1.12464 9.35539 3.06651L13.7392 4.92909L7.82617 7.44144L13.7392 9.9537L7.82617 12.4659L13.7392 14.978L7.82617 17.4898L13.7392 20.0014L7.82617 22.5136L13.7392 25.0257L7.82617 27.5375L13.7392 30.0495L7.82617 32.5617L13.7392 35.0735L9.35734 36.935C12.4396 38.876 16.0884 40 20.0001 40C31.0457 40 40.0001 31.0457 40.0001 20Z" fill="#751A46"></path>
</g>
<defs>
<clipPath id="clip0_1_2956">
<rect width="40" height="40" fill="white"></rect>
</clipPath>
</defs>
</svg>