<svg width="40" height="40" viewBox="0 0 40 40" fill="none" xmlns="http://www.w3.org/2000/svg">
<g clip-path="url(#clip0_1_2940)">
<path d="M26.9563 1.24394C24.7896 0.440109 22.4462 3.0528e-05 19.9998 3.0528e-05C17.5534 -4.7597e-05 15.21 0.440109 13.0433 1.24394L11.3042 20L13.0433 38.756C15.2099 39.56 17.5533 40 19.9998 40C22.4462 40 24.7897 39.56 26.9563 38.756L28.6954 20L26.9563 1.24394Z" fill="#FFDA44"></path>
<path d="M40.0001 20C40.0001 11.4008 34.5726 4.06977 26.9565 1.24399V38.7562C34.5726 35.9301 40 28.5994 40.0001 20Z" fill="#FB2727"></path>
<path d="M0 19.9999C0 28.5994 5.4275 35.9301 13.0434 38.7561L13.0434 1.24405C5.4275 4.06983 0 11.4006 0 19.9999H0Z" fill="#0073FD"></path>
</g>
<defs>
<clipPath id="clip0_1_2940">
<rect width="40" height="40" fill="white"></rect>
</clipPath>
</defs>
</svg>