<svg width="40" height="40" viewBox="0 0 40 40" fill="none" xmlns="http://www.w3.org/2000/svg">
<g clip-path="url(#clip0_1_2767)">
<path d="M20 39.9999C31.0457 39.9999 40 31.0456 40 19.9999C40 8.95418 31.0457 -0.00012207 20 -0.00012207C8.95431 -0.00012207 0 8.95418 0 19.9999C0 31.0456 8.95431 39.9999 20 39.9999Z" fill="#F3F6F9"></path>
<path d="M20 -0.00012207C8.95438 -0.00012207 0 8.95425 0 19.9999C0 22.4463 0.440078 24.7898 1.24398 26.9564H38.7561C39.56 24.7898 40 22.4463 40 19.9999C40 8.95425 31.0456 -0.00012207 20 -0.00012207Z" fill="#0073FD"></path>
<path d="M19.9997 -6.10352e-05C11.4004 -6.10352e-05 4.06951 5.42744 1.24365 13.0435H38.7558C35.9298 5.42744 28.599 -6.10352e-05 19.9997 -6.10352e-05Z" fill="#FB2727"></path>
<path d="M5.17139 11.3043V21.2814C5.17139 26.9567 12.5855 28.6956 12.5855 28.6956C12.5855 28.6956 19.9996 26.9567 19.9996 21.2814V11.3043H5.17139Z" fill="#FB2727"></path>
<path d="M8.23828 13.0434H16.934V9.56513L15.1948 10.4347L12.5862 7.82599L9.97742 10.4347L8.23828 9.56513V13.0434Z" fill="#FFDA44"></path>
<path d="M18.2609 22.6704L12.6087 17.0182L6.95654 22.6704L8.80115 24.515L12.6087 20.7074L16.4163 24.515L18.2609 22.6704Z" fill="#FFDA44"></path>
<path d="M18.2609 17.3913H15.6237C15.772 17.1354 15.8583 16.8389 15.8583 16.5219C15.8583 15.5613 15.0796 14.7828 14.1191 14.7828C13.4554 14.7828 12.8791 15.1545 12.5859 15.701C12.2927 15.1546 11.7164 14.7828 11.0527 14.7828C10.0922 14.7828 9.31357 15.5613 9.31357 16.5219C9.31357 16.8389 9.39982 17.1354 9.54811 17.3913H6.95654C6.95654 18.3518 7.79318 19.1304 8.75357 19.1304H8.69568C8.69568 20.091 9.47428 20.8696 10.4348 20.8696C10.4348 21.72 11.0456 22.4266 11.8522 22.5779L10.4819 25.6718C11.1387 25.9387 11.8563 26.087 12.6088 26.087C13.3613 26.087 14.079 25.9387 14.7357 25.6718L13.3654 22.5779C14.172 22.4268 14.7828 21.7201 14.7828 20.8696C15.7433 20.8696 16.5219 20.091 16.5219 19.1304H16.464C17.4244 19.1304 18.2609 18.3518 18.2609 17.3913Z" fill="#F3F6F9"></path>
</g>
<defs>
<clipPath id="clip0_1_2767">
<rect width="40" height="40" fill="white"></rect>
</clipPath>
</defs>
</svg>