<svg width="40" height="40" viewBox="0 0 40 40" fill="none" xmlns="http://www.w3.org/2000/svg">
<g clip-path="url(#clip0_1_2949)">
<path d="M0 20C0 23.4648 0.881485 26.7238 2.4318 29.5652L20 31.3044L37.5682 29.5652C39.1185 26.7238 40 23.4648 40 20L20 18.2609L0 20Z" fill="#FFDA44"></path>
<path d="M37.5682 10.4348C34.1761 4.21795 27.5809 6.10352e-05 20 6.10352e-05C12.4191 6.10352e-05 5.82391 4.21795 2.4318 10.4348C0.881484 13.2763 0 16.5352 0 20.0001H40C40 16.5352 39.1185 13.2763 37.5682 10.4348Z" fill="#338AF3"></path>
<path d="M19.9998 40C27.5807 40 34.1759 35.7821 37.568 29.5652H2.43164C5.82375 35.7821 12.419 40 19.9998 40Z" fill="#496E2D"></path>
<path d="M22.6089 11.7048L25.0515 12.8538L23.7508 15.2194L26.4032 14.712L26.7393 17.3913L28.5866 15.4207L30.4341 17.3913L30.7701 14.712L33.4225 15.2192L32.1219 12.8537L34.5644 11.7048L32.1218 10.5559L33.4225 8.19032L30.7702 8.69767L30.434 6.01837L28.5866 7.989L26.7392 6.01837L26.4032 8.69767L23.7508 8.19032L25.0515 10.556L22.6089 11.7048Z" fill="#FFDA44"></path>
</g>
<defs>
<clipPath id="clip0_1_2949">
<rect width="40" height="40" fill="white"></rect>
</clipPath>
</defs>
</svg>