<svg width="40" height="40" viewBox="0 0 40 40" fill="none" xmlns="http://www.w3.org/2000/svg">
<g clip-path="url(#clip0_3546_142002)">
<path d="M20.0002 40C31.0459 40 40.0002 31.0457 40.0002 20C40.0002 8.9543 31.0459 0 20.0002 0C8.95455 0 0.000244141 8.9543 0.000244141 20C0.000244141 31.0457 8.95455 40 20.0002 40Z" fill="#75BB42"></path>
<path d="M11.3042 23.9131C11.3042 25.3538 12.4722 26.5218 13.9129 26.5218H21.739C21.739 27.7224 22.7122 28.6957 23.9129 28.6957H26.5215C27.7222 28.6957 28.6954 27.7224 28.6954 26.5218V23.9131H11.3042Z" fill="#F3F6F9"></path>
<path d="M28.913 11.3042V17.3912C28.913 18.3501 28.1328 19.1303 27.1738 19.1303V21.739C29.5712 21.739 31.5216 19.7885 31.5216 17.3912V11.3042H28.913Z" fill="#F3F6F9"></path>
<path d="M10.2174 17.3911C10.2174 18.3501 9.43726 19.1303 8.47827 19.1303V21.739C10.8757 21.739 12.8261 19.7885 12.8261 17.3911V11.3042H10.2174V17.3911Z" fill="#F3F6F9"></path>
<path d="M24.9998 11.3042H27.6084V17.3912H24.9998V11.3042Z" fill="#F3F6F9"></path>
<path d="M21.0869 14.7825C21.0869 15.0222 20.8918 15.2172 20.6521 15.2172C20.4124 15.2172 20.2173 15.0222 20.2173 14.7825V11.3042H17.6087V14.7825C17.6087 15.0222 17.4136 15.2172 17.1739 15.2172C16.9342 15.2172 16.7391 15.0222 16.7391 14.7825V11.3042H14.1304V14.7825C14.1304 16.4607 15.4957 17.826 17.1739 17.826C17.8202 17.826 18.4196 17.6229 18.913 17.2779C19.4064 17.6228 20.0058 17.826 20.6522 17.826C20.7823 17.826 20.9103 17.8169 21.0362 17.8008C20.8513 18.5625 20.1654 19.1303 19.3478 19.1303V21.739C21.7452 21.739 23.6956 19.7885 23.6956 17.3912V14.7825V11.3042H21.0869V14.7825H21.0869Z" fill="#F3F6F9"></path>
<path d="M14.1304 19.1304H18.0434V21.739H14.1304V19.1304Z" fill="#F3F6F9"></path>
</g>
<defs>
<clipPath id="clip0_3546_142002">
<rect width="40" height="40" fill="white"></rect>
</clipPath>
</defs>
</svg>