<svg width="40" height="40" viewBox="0 0 40 40" fill="none" xmlns="http://www.w3.org/2000/svg">
<g clip-path="url(#clip0_1_2816)">
<path d="M34.1429 34.1427C41.6438 26.6418 41.9399 14.6665 35.0346 6.8103L20.0002 19.9999L6.81055 35.0343C14.6667 41.9397 26.642 41.6435 34.1429 34.1427Z" fill="#496E2D"></path>
<path d="M5.8573 5.85746C13.3581 -1.64339 25.3335 -1.93956 33.1897 4.96582L19.9999 20.0003L4.96573 33.1898C-1.93972 25.3337 -1.64347 13.3583 5.8573 5.85746Z" fill="#0073FD"></path>
<path d="M33.1897 4.9657L4.96582 33.1897C5.25113 33.5143 5.54738 33.8327 5.85746 34.1427C6.16746 34.4527 6.48597 34.7489 6.81066 35.0344L35.0344 6.81038C34.7491 6.48569 34.4528 6.16726 34.1427 5.85718C33.8329 5.54734 33.5144 5.25101 33.1897 4.9657Z" fill="#FFDA44"></path>
<path d="M8.42633 6.95593L8.85812 8.2846H10.2551L9.12492 9.10562L9.55656 10.4343L8.42633 9.61311L7.29609 10.4343L7.72789 9.10562L6.59766 8.2846H7.99469L8.42633 6.95593Z" fill="#F3F6F9"></path>
<path d="M15.5621 6.95593L15.9939 8.2846H17.3907L16.2606 9.10562L16.6923 10.4343L15.5621 9.61311L14.4318 10.4343L14.8636 9.10562L13.7334 8.2846H15.1303L15.5621 6.95593Z" fill="#F3F6F9"></path>
<path d="M8.42633 13.9127L8.85812 15.2414H10.2551L9.12492 16.0625L9.55656 17.3912L8.42633 16.57L7.29609 17.3912L7.72789 16.0625L6.59766 15.2414H7.99469L8.42633 13.9127Z" fill="#F3F6F9"></path>
<path d="M15.5621 13.9127L15.9939 15.2414H17.3907L16.2606 16.0625L16.6923 17.3912L15.5621 16.57L14.4318 17.3912L14.8636 16.0625L13.7334 15.2414H15.1303L15.5621 13.9127Z" fill="#F3F6F9"></path>
<path d="M11.9943 10.4343L12.4261 11.763H13.8229L12.6928 12.5841L13.1245 13.9128L11.9943 13.0916L10.864 13.9128L11.2958 12.5841L10.1655 11.763H11.5626L11.9943 10.4343Z" fill="#F3F6F9"></path>
</g>
<defs>
<clipPath id="clip0_1_2816">
<rect width="40" height="40" fill="white"></rect>
</clipPath>
</defs>
</svg>