<svg width="40" height="40" viewBox="0 0 40 40" fill="none" xmlns="http://www.w3.org/2000/svg">
<g clip-path="url(#clip0_1_2778)">
<path d="M20 39.9999C31.0457 39.9999 40 31.0456 40 19.9999C40 8.95418 31.0457 -0.00012207 20 -0.00012207C8.95431 -0.00012207 0 8.95418 0 19.9999C0 31.0456 8.95431 39.9999 20 39.9999Z" fill="#F3F6F9"></path>
<path d="M33.5006 5.24508C29.9428 1.98789 25.2037 0 19.9999 0C19.148 0 18.3086 0.0536719 17.4847 0.157031L7.82602 11.3044L0.632812 25.0102C1.0975 26.8119 1.80797 28.5145 2.72461 30.0819L19.9999 20L33.5006 5.24508Z" fill="#FFDA44"></path>
<path d="M36.6508 31.0811L8.66895 36.4811C11.89 38.6999 15.7929 40 20 40C26.9469 40 33.0656 36.4575 36.6508 31.0811Z" fill="#75BB42"></path>
<path d="M33.5033 5.24768L2.73584 30.1012C3.54061 31.4737 4.50412 32.7417 5.60154 33.8799L39.9997 19.9999C39.9997 14.1594 37.4958 8.90409 33.5033 5.24768Z" fill="#FB2727"></path>
<path d="M0 20C0 21.7302 0.219844 23.409 0.632891 25.0102L17.4848 0.156982C7.62641 1.39401 0 9.8062 0 20Z" fill="#0073FD"></path>
</g>
<defs>
<clipPath id="clip0_1_2778">
<rect width="40" height="40" fill="white"></rect>
</clipPath>
</defs>
</svg>