<svg width="40" height="40" viewBox="0 0 40 40" fill="none" xmlns="http://www.w3.org/2000/svg">
<g clip-path="url(#clip0_1_2884)">
<path d="M1.98453 11.3043C0.713125 13.9337 0 16.8835 0 20C0 23.1164 0.713125 26.0662 1.98453 28.6956L20 30.4347L38.0155 28.6956C39.2869 26.0662 40 23.1164 40 20C40 16.8835 39.2869 13.9337 38.0155 11.3043L20 9.56519L1.98453 11.3043Z" fill="#F3F6F9"></path>
<path d="M1.98535 28.6956C5.22019 35.3855 12.0709 39.9999 20.0001 39.9999C27.9293 39.9999 34.78 35.3855 38.0149 28.6956H1.98535Z" fill="black"></path>
<path d="M1.98535 11.3044H38.0149C34.78 4.61445 27.9293 0 20.0001 0C12.0709 0 5.22019 4.61445 1.98535 11.3044Z" fill="#FB2727"></path>
<path d="M5.85785 5.85779C-1.95262 13.6683 -1.95262 26.3316 5.85785 34.1422C9.08543 30.9146 12.1896 27.8104 20 20L5.85785 5.85779Z" fill="#496E2D"></path>
</g>
<defs>
<clipPath id="clip0_1_2884">
<rect width="40" height="40" fill="white"></rect>
</clipPath>
</defs>
</svg>