<svg width="40" height="40" viewBox="0 0 40 40" fill="none" xmlns="http://www.w3.org/2000/svg">
<g clip-path="url(#clip0_3546_141863)">
<path d="M19.9998 40C31.0454 40 39.9997 31.0457 39.9997 20C39.9997 8.9543 31.0454 0 19.9998 0C8.95406 0 -0.000244141 8.9543 -0.000244141 20C-0.000244141 31.0457 8.95406 40 19.9998 40Z" fill="#FFDA44"></path>
<path d="M15.6519 17.3913H39.8304C38.552 7.57828 30.1612 0 19.9997 0C18.5064 0 17.0518 0.165078 15.6519 0.475391V17.3913H15.6519Z" fill="#0073FD"></path>
<path d="M10.4347 17.3911V2.43164C4.94294 5.42805 1.01161 10.9242 0.169189 17.3912H10.4347V17.3911Z" fill="#0073FD"></path>
<path d="M10.4346 22.6089H0.169189C1.01161 29.0758 4.94294 34.572 10.4347 37.5683L10.4346 22.6089Z" fill="#0073FD"></path>
<path d="M15.6519 22.609V39.5248C17.0518 39.8351 18.5064 40.0002 19.9997 40.0002C30.1612 40.0002 38.552 32.4219 39.8304 22.6089H15.6519V22.609Z" fill="#0073FD"></path>
</g>
<defs>
<clipPath id="clip0_3546_141863">
<rect width="40" height="40" fill="white"></rect>
</clipPath>
</defs>
</svg>