<svg width="40" height="40" viewBox="0 0 40 40" fill="none" xmlns="http://www.w3.org/2000/svg">
<g clip-path="url(#clip0_3546_141966)">
<path d="M20.0002 40C31.0459 40 40.0002 31.0457 40.0002 20C40.0002 8.9543 31.0459 0 20.0002 0C8.95455 0 0.000244141 8.9543 0.000244141 20C0.000244141 31.0457 8.95455 40 20.0002 40Z" fill="#F3F6F9"></path>
<path d="M0.000244141 20.0001C0.000244141 8.95438 8.95462 0 20.0002 0C31.0459 0 40.0002 8.95438 40.0002 20.0001" fill="#FB2727"></path>
<path d="M12.1739 10.4345C12.1739 7.52062 14.2218 5.08641 16.9565 4.48914C16.5362 4.39742 16.1002 4.34766 15.6521 4.34766C12.2903 4.34766 9.56519 7.07281 9.56519 10.4346C9.56519 13.7964 12.2903 16.5216 15.6521 16.5216C16.1 16.5216 16.5361 16.4718 16.9565 16.38C14.2218 15.7827 12.1739 13.3485 12.1739 10.4345Z" fill="#F3F6F9"></path>
<path d="M20 4.78223L20.4317 6.11074H21.8287L20.6984 6.93191L21.1301 8.26043L20 7.43941L18.8698 8.26043L19.3015 6.93191L18.1714 6.11074H19.5683L20 4.78223Z" fill="#F3F6F9"></path>
<path d="M16.6115 7.39111L17.0431 8.71971H18.4401L17.3099 9.5408L17.7416 10.8693L16.6115 10.0483L15.4812 10.8693L15.9129 9.5408L14.7827 8.71971H16.1797L16.6115 7.39111Z" fill="#F3F6F9"></path>
<path d="M23.3889 7.39111L23.8207 8.71971H25.2176L24.0873 9.5408L24.5191 10.8693L23.3889 10.0483L22.2587 10.8693L22.6905 9.5408L21.5603 8.71971H22.9572L23.3889 7.39111Z" fill="#F3F6F9"></path>
<path d="M22.0847 11.3042L22.5164 12.6328H23.9133L22.7831 13.4539L23.2149 14.7824L22.0847 13.9614L20.9545 14.7824L21.3863 13.4539L20.2561 12.6328H21.6529L22.0847 11.3042Z" fill="#F3F6F9"></path>
<path d="M17.9156 11.3042L18.3472 12.6328H19.7443L18.614 13.4539L19.0458 14.7824L17.9156 13.9614L16.7854 14.7824L17.2171 13.4539L16.0869 12.6328H17.4839L17.9156 11.3042Z" fill="#F3F6F9"></path>
</g>
<defs>
<clipPath id="clip0_3546_141966">
<rect width="40" height="40" fill="white"></rect>
</clipPath>
</defs>
</svg>