<svg width="40" height="40" viewBox="0 0 40 40" fill="none" xmlns="http://www.w3.org/2000/svg">
<g clip-path="url(#clip0_1_4316)">
<path d="M40 20C40 31.0456 31.0456 40 20 40C8.95437 40 0 31.0456 0 20C0 20.0048 20 0.0021875 20 0C31.0456 0 40 8.95437 40 20Z" fill="#0052B4"></path>
<path d="M19.9463 20H19.9998C19.9998 19.9821 19.9998 19.9646 19.9998 19.9465C19.982 19.9644 19.9642 19.9822 19.9463 20Z" fill="#F0F0F0"></path>
<path d="M20 10.4348C20 6.91563 20 4.60977 20 0H19.9966C8.9525 0.001875 0 8.95539 0 20H10.4348V14.1241L16.3107 20H19.9466L20.0001 19.9465C20.0001 18.5991 20.0001 17.3968 20.0001 16.3108L14.1241 10.4348H20Z" fill="#F3F6F9"></path>
<path d="M10.1186 2.60864C6.99053 4.38981 4.39006 6.99028 2.60889 10.1183V20H7.82631V7.82622V7.82607H20.0002C20.0002 6.18052 20.0002 4.61286 20.0002 2.60864H10.1186Z" fill="#D80027"></path>
<path d="M20.0002 17.5405L12.8945 10.4348H10.4351V10.435L20.0001 20H20.0002C20.0002 20 20.0002 18.3041 20.0002 17.5405Z" fill="#D80027"></path>
<mask id="mask0_1_4316" style="mask-type:alpha" maskUnits="userSpaceOnUse" x="22" y="12" width="13" height="16">
<path d="M22.6094 12.1699V21.7351C22.6094 26.3945 28.6963 27.8221 28.6963 27.8221C28.6963 27.8221 34.7833 26.3945 34.7833 21.7351V12.1699H22.6094Z" fill="#338AF3"></path>
</mask>
<g mask="url(#mask0_1_4316)">
<rect x="18.6094" y="9.16992" width="22" height="24" fill="#92D3F5"></rect>
<rect x="22.6094" y="22.1699" width="12.17" height="6" fill="#1E50A0"></rect>
<path fill-rule="evenodd" clip-rule="evenodd" d="M21.4306 18.4769C22.163 17.9555 23.1883 18.1143 23.7207 18.8316L28.2961 24.9965C28.4997 25.2708 28.6094 25.6013 28.6094 25.9405V30.5643C28.6094 31.4511 27.8754 32.1699 26.9699 32.1699C26.1272 32.1699 25.4329 31.5471 25.3409 30.7459C24.7402 30.8923 24.2385 30.6941 23.9763 30.5474C23.6912 30.388 23.483 30.1824 23.3508 30.0356C23.0773 29.7321 22.8373 29.3491 22.6346 28.9774C22.2157 28.2099 21.7846 27.1712 21.4157 26.0344M21.4157 26.0344C21.0464 24.8974 20.7848 23.803 20.6724 22.936C20.6178 22.5155 20.5871 22.0676 20.6286 21.6663C20.6488 21.4717 20.6947 21.1913 20.825 20.9046C20.863 20.8211 20.9174 20.7178 20.9927 20.6083C20.554 19.9017 20.7354 18.9718 21.4306 18.4769M23.5138 28.6243C23.5129 28.6324 23.5126 28.631 23.514 28.6217L23.5138 28.6243Z" fill="#A57939"></path>
<rect x="22.6094" y="12.1699" width="12.17" height="6" fill="#FFDA44"></rect>
</g>
<path fill-rule="evenodd" clip-rule="evenodd" d="M26.88 13.3576C27.152 13.1326 27.5514 13.1073 27.8532 13.2959L30.2531 14.7959C30.5464 14.9792 30.6771 15.321 30.575 15.6373C30.4728 15.9536 30.1618 16.1699 29.8093 16.1699H28.2093C27.9062 16.1699 27.6292 16.0094 27.4937 15.7553L26.6938 14.2553C26.5316 13.9511 26.6081 13.5827 26.88 13.3576Z" fill="#A57939"></path>
</g>
<defs>
<clipPath id="clip0_1_4316">
<rect width="40" height="40" fill="white"></rect>
</clipPath>
</defs>
</svg>