<svg width="40" height="40" viewBox="0 0 40 40" fill="none" xmlns="http://www.w3.org/2000/svg">
<g clip-path="url(#clip0_1_2810)">
<path d="M20 40C31.0457 40 40 31.0457 40 20C40 8.9543 31.0457 0 20 0C8.9543 0 0 8.9543 0 20C0 31.0457 8.9543 40 20 40Z" fill="#F3F6F9"></path>
<path d="M38.756 13.0435H17.3913V7.82605H6.95648V13.0435H1.24398C0.440078 15.21 0 17.5535 0 20C0 22.4464 0.440078 24.7898 1.24398 26.9564L20 28.6956L38.756 26.9564C39.5599 24.7898 40 22.4464 40 20C40 17.5535 39.5599 15.21 38.756 13.0435Z" fill="#0052B4"></path>
<path d="M20.0002 40.0001C28.5995 40.0001 35.9303 34.5726 38.7562 26.9565H1.24414C4.07 34.5726 11.4009 40.0001 20.0002 40.0001Z" fill="#D80027"></path>
<path d="M6.95654 13.0435V14.7825C6.95654 18.7764 12.174 20 12.174 20C12.174 20 17.3914 18.7764 17.3914 14.7825V13.0435L15.6522 14.7826L12.174 12.174L8.69568 14.7826L6.95654 13.0435Z" fill="#F3F6F9"></path>
</g>
<defs>
<clipPath id="clip0_1_2810">
<rect width="40" height="40" fill="white"></rect>
</clipPath>
</defs>
</svg>