<svg width="40" height="40" viewBox="0 0 40 40" fill="none" xmlns="http://www.w3.org/2000/svg">
<path d="M20.0005 40C31.0462 40 40.0005 31.0457 40.0005 20C40.0005 8.9543 31.0462 0 20.0005 0C8.95479 0 0.000488281 8.9543 0.000488281 20C0.000488281 31.0457 8.95479 40 20.0005 40Z" fill="#F3F6F9"></path>
<path d="M0.688965 25.2175C1.84615 29.5112 4.39654 33.2326 7.82607 35.8677V25.2175H0.688965Z" fill="#FB2727"></path>
<path d="M18.2607 39.924C18.834 39.9734 19.4138 40.0001 19.9999 40.0001C29.2404 40.0001 37.0159 33.7328 39.3109 25.2175H18.2607V39.924Z" fill="#FB2727"></path>
<path d="M39.3109 14.7826C37.0159 6.26726 29.2404 0 19.9999 0C19.4138 0 18.834 0.0267187 18.2607 0.0760937V14.7826H39.3109Z" fill="#FB2727"></path>
<path d="M7.82607 4.13257C4.39654 6.76772 1.84615 10.4891 0.688965 14.7827H7.82607V4.13257Z" fill="#FB2727"></path>
<path d="M39.8307 17.3913H15.6523H15.6522V0.475342C13.8039 0.885185 12.0516 1.54948 10.4348 2.43175V17.3911V17.3912H0.169297C0.0579688 18.2452 0 19.1158 0 19.9999C0 20.8841 0.0579688 21.7547 0.169297 22.6086H10.4347H10.4348V37.5681C12.0516 38.4503 13.8039 39.1147 15.6522 39.5245V22.6089V22.6087H39.8307C39.9419 21.7547 40 20.8841 40 19.9999C40 19.1158 39.9419 18.2452 39.8307 17.3913Z" fill="#0073FD"></path>
</svg>