<svg width="40" height="40" viewBox="0 0 40 40" fill="none" xmlns="http://www.w3.org/2000/svg">
<g clip-path="url(#clip0_1_2801)">
<path d="M20 40.0001C31.0457 40.0001 40 31.0458 40 20.0001C40 8.95443 31.0457 0.00012207 20 0.00012207C8.9543 0.00012207 0 8.95443 0 20.0001C0 31.0458 8.9543 40.0001 20 40.0001Z" fill="#F3F6F9"></path>
<path d="M20 40.0001C31.0456 40.0001 40 31.0457 40 20.0001C40 17.5537 39.56 15.2101 38.756 13.0436H1.24398C0.440078 15.2101 0 17.5537 0 20.0001C0 31.0457 8.95437 40.0001 20 40.0001Z" fill="#0073FD"></path>
<path d="M20.0002 40.0001C28.5995 40.0001 35.9303 34.5726 38.7562 26.9565H1.24414C4.07 34.5726 11.4009 40.0001 20.0002 40.0001Z" fill="#FB2727"></path>
<path d="M5.17188 11.3044V21.2815C5.17188 26.9568 12.586 28.6958 12.586 28.6958C12.586 28.6958 20.0001 26.9568 20.0001 21.2815V11.3044H5.17188Z" fill="#F3F6F9"></path>
<path d="M6.91113 11.3044V21.2815C6.91113 21.9477 7.0591 22.5769 7.35223 23.1669H17.82C18.1131 22.577 18.2611 21.9477 18.2611 21.2815V11.3044H6.91113Z" fill="#FB2727"></path>
<path d="M16.0639 18.2609H13.4553V16.5218H15.1945V14.7826H13.4553V13.0436H11.7162V14.7826H9.97711V16.5218H11.7162V18.2609H9.10742V20.0001H11.7162V21.7392H13.4553V20.0001H16.0639V18.2609Z" fill="#F3F6F9"></path>
<path d="M9.72465 25.5947C10.8454 26.299 11.9968 26.7079 12.5862 26.8898C13.1757 26.708 14.3271 26.299 15.4478 25.5947C16.5779 24.8844 17.3702 24.072 17.82 23.1669C17.3239 22.8159 16.7185 22.6089 16.0645 22.6089C15.8264 22.6089 15.595 22.6371 15.3726 22.6889C14.9013 21.618 13.8314 20.8698 12.5863 20.8698C11.3412 20.8698 10.2712 21.618 9.79996 22.6889C9.57754 22.6371 9.34613 22.6089 9.10809 22.6089C8.4541 22.6089 7.84871 22.8159 7.35254 23.1669C7.80215 24.0719 8.59441 24.8843 9.72465 25.5947Z" fill="#0073FD"></path>
</g>
<defs>
<clipPath id="clip0_1_2801">
<rect width="40" height="40" fill="white"></rect>
</clipPath>
</defs>
</svg>