<svg width="40" height="40" viewBox="0 0 40 40" fill="none" xmlns="http://www.w3.org/2000/svg">
<g clip-path="url(#clip0_1_2785)">
<path d="M38.756 26.9564C39.56 24.7898 40 22.4464 40 19.9999C40 17.5535 39.56 15.2101 38.756 13.0435L20 11.3043L1.24398 13.0435C0.44 15.2101 0 17.5535 0 19.9999C0 22.4464 0.44 24.7898 1.24398 26.9564L20 28.6956L38.756 26.9564Z" fill="#F3F6F9"></path>
<path d="M20.0002 39.9999C28.5994 39.9999 35.9304 34.5724 38.7562 26.9564H1.24414C4.07008 34.5724 11.4009 39.9999 20.0002 39.9999Z" fill="#338AF3"></path>
<path d="M20.0002 0C11.4009 0 4.07008 5.4275 1.24414 13.0435H38.7562C35.9304 5.4275 28.5994 0 20.0002 0Z" fill="#75BB42"></path>
</g>
<defs>
<clipPath id="clip0_1_2785">
<rect width="40" height="40" fill="white"></rect>
</clipPath>
</defs>
</svg>