<svg width="40" height="40" viewBox="0 0 40 40" fill="none" xmlns="http://www.w3.org/2000/svg">
<g clip-path="url(#clip0_1_2732)">
<path d="M40 20C40 31.0457 31.0456 40 20 40C8.95437 40 0 31.0457 0 20C0.869531 20 20 17.3914 20 17.3914L40 20Z" fill="#338AF3"></path>
<path d="M0.000488281 20.0001C0.000488281 8.95444 8.95486 6.10352e-05 20.0005 6.10352e-05C31.0461 6.10352e-05 40.0005 8.95444 40.0005 20.0001" fill="#F3F6F9"></path>
<path d="M27.939 13.8004L20.0002 21.7392L12.0615 13.8004C11.0348 15.3243 10.4351 17.1586 10.4351 19.1304V21.7391C10.4351 25.9279 13.1417 29.4961 16.8977 30.7875C16.3964 31.77 16.4809 32.9962 17.2155 33.913C18.1912 33.1311 19.2012 32.3216 20.0581 31.635C20.915 32.3217 21.9251 33.1311 22.9007 33.913C23.6439 32.9855 23.7223 31.741 23.2012 30.7527C26.9059 29.4332 29.5654 25.8911 29.5654 21.7391V19.1305C29.5654 17.1586 28.9656 15.3244 27.939 13.8004Z" fill="#75BB42"></path>
<path d="M19.9999 28.6956C16.1641 28.6956 13.0435 25.5749 13.0435 21.7392V19.1305C13.0435 15.2946 16.1642 12.174 19.9999 12.174C23.8357 12.174 26.9564 15.2947 26.9564 19.1305V21.7392C26.9564 25.5749 23.8358 28.6956 19.9999 28.6956Z" fill="#FFDA44"></path>
<path d="M24.348 21.7391V19.1305C24.348 16.733 22.3975 14.7827 20.0002 14.7827C17.6028 14.7827 15.6523 16.7331 15.6523 19.1305V21.7391L20.0002 22.6087L24.348 21.7391Z" fill="#338AF3"></path>
<path d="M15.6523 21.7391C15.6523 24.1366 17.6028 26.0869 20.0002 26.0869C22.3975 26.0869 24.348 24.1365 24.348 21.7391H15.6523Z" fill="#75BB42"></path>
<path d="M25.2175 12.1739C25.2175 10.7332 24.0495 9.56526 22.6088 9.56526C21.9404 9.56526 21.3313 9.81682 20.8697 10.23V8.69565H21.7392V6.95651H20.8697V6.08698H19.1305V6.95651H18.261V8.69565H19.1305V10.23C18.6689 9.81682 18.0597 9.56526 17.3914 9.56526C15.9507 9.56526 14.7827 10.7332 14.7827 12.1739C14.7827 12.9463 15.1187 13.6401 15.6522 14.1178V15.6522H24.3479V14.1178C24.8815 13.6401 25.2175 12.9463 25.2175 12.1739Z" fill="#FFDA44"></path>
</g>
<defs>
<clipPath id="clip0_1_2732">
<rect width="40" height="40" fill="white"></rect>
</clipPath>
</defs>
</svg>