<svg width="40" height="40" viewBox="0 0 40 40" fill="none" xmlns="http://www.w3.org/2000/svg">
<g clip-path="url(#clip0_1_2760)">
<path d="M28.6958 1.98447C26.0664 0.713064 23.1166 -6.10352e-05 20.0002 -6.10352e-05C16.8838 -6.10352e-05 13.9339 0.713064 11.3046 1.98447L9.56543 19.9999L11.3046 38.0154C13.9339 39.2868 16.8838 39.9999 20.0002 39.9999C23.1166 39.9999 26.0664 39.2868 28.6958 38.0154L30.435 19.9999L28.6958 1.98447Z" fill="#FFDA44"></path>
<path d="M19.9999 13.0435L21.7265 18.3575H27.3146L22.794 21.6421L24.5206 26.9564L19.9999 23.6721L15.4792 26.9564L17.2062 21.6421L12.6855 18.3575H18.2733L19.9999 13.0435Z" fill="#496E2D"></path>
<path d="M11.3044 1.98523C4.61453 5.22015 0 12.0709 0 20C0 27.9291 4.61453 34.7798 11.3044 38.0148V1.98523Z" fill="#496E2D"></path>
<path d="M28.6958 1.98517V38.0147C35.3856 34.7798 40.0002 27.9291 40.0002 19.9999C40.0002 12.0708 35.3856 5.22009 28.6958 1.98517Z" fill="#FB2727"></path>
</g>
<defs>
<clipPath id="clip0_1_2760">
<rect width="40" height="40" fill="white"></rect>
</clipPath>
</defs>
</svg>