<svg width="40" height="40" viewBox="0 0 40 40" fill="none" xmlns="http://www.w3.org/2000/svg">
<g clip-path="url(#clip0_1_2890)">
<path d="M20.0005 39.9999C31.0462 39.9999 40.0005 31.0456 40.0005 19.9999C40.0005 8.95418 31.0462 -0.00012207 20.0005 -0.00012207C8.95479 -0.00012207 0.000488281 8.95418 0.000488281 19.9999C0.000488281 31.0456 8.95479 39.9999 20.0005 39.9999Z" fill="#F3F6F9"></path>
<path d="M38.7559 13.0435H1.24391C0.440078 15.2102 0 17.5535 0 19.9999C0 22.4463 0.440078 24.7899 1.24391 26.9564H38.756C39.56 24.7899 40 22.4463 40 19.9999C40 17.5535 39.56 15.2102 38.7559 13.0435Z" fill="#A2001D"></path>
<path d="M20.0582 39.9998C26.9084 39.9998 32.9534 36.5551 36.5579 31.3042H3.55859C7.16313 36.5551 13.208 39.9998 20.0582 39.9998Z" fill="#75BB42"></path>
<path d="M20.0582 0C26.9084 0 32.9534 3.44469 36.5579 8.69562H3.55859C7.16313 3.44469 13.208 0 20.0582 0Z" fill="#75BB42"></path>
<path d="M20.0001 13.0435L21.7267 18.3575H27.3146L22.794 21.6422L24.5208 26.9564L20.0001 23.6721L15.4794 26.9564L17.2063 21.6422L12.6855 18.3575H18.2734L20.0001 13.0435Z" fill="#FFDA44"></path>
</g>
<defs>
<clipPath id="clip0_1_2890">
<rect width="40" height="40" fill="white"></rect>
</clipPath>
</defs>
</svg>