<svg width="40" height="40" viewBox="0 0 40 40" fill="none" xmlns="http://www.w3.org/2000/svg">
<g clip-path="url(#clip0_1_2862)">
<path d="M20.0005 40.0001C31.0462 40.0001 40.0005 31.0458 40.0005 20.0001C40.0005 8.95443 31.0462 0.00012207 20.0005 0.00012207C8.95479 0.00012207 0.000488281 8.95443 0.000488281 20.0001C0.000488281 31.0458 8.95479 40.0001 20.0005 40.0001Z" fill="#F3F6F9"></path>
<path d="M38.4396 12.2463C35.4108 5.05172 28.2958 0 19.9999 0C14.4769 0 9.47746 2.23898 5.8584 5.85851L10.867 12.2463H38.4396Z" fill="black"></path>
<path d="M10.9238 27.6813L5.8584 34.1415C9.47746 37.761 14.4769 40 19.9999 40C28.3238 40 35.4591 34.9146 38.4705 27.6813H10.9238Z" fill="#496E2D"></path>
<path d="M4.34766 14.7103V25.2175H39.3109C39.7595 23.5542 39.9998 21.8054 39.9998 20.0002C39.9998 18.1688 39.7531 16.3953 39.2919 14.7103H4.34766Z" fill="#A2001D"></path>
<path d="M5.85785 5.85791C-1.95262 13.6684 -1.95262 26.3317 5.85785 34.1423C9.08543 30.9147 12.1896 27.8106 20 20.0001L5.85785 5.85791Z" fill="#0073FD"></path>
<path d="M6.51449 15.0276L8.95551 18.4339L12.9499 17.1648L10.4646 20.5392L12.9057 23.9457L8.92848 22.6249L6.44316 25.9992L6.47051 21.8084L2.49316 20.4874L6.48723 19.2183L6.51449 15.0276Z" fill="#FFDA44"></path>
</g>
<defs>
<clipPath id="clip0_1_2862">
<rect width="40" height="40" fill="white"></rect>
</clipPath>
</defs>
</svg>