<svg width="40" height="40" viewBox="0 0 40 40" fill="none" xmlns="http://www.w3.org/2000/svg">
<g clip-path="url(#clip0_1_2741)">
<path d="M20 39.9999C31.0457 39.9999 40 31.0456 40 19.9999C40 8.95418 31.0457 -0.00012207 20 -0.00012207C8.95431 -0.00012207 0 8.95418 0 19.9999C0 31.0456 8.95431 39.9999 20 39.9999Z" fill="#FFDA44"></path>
<path d="M12.1738 13.0435H38.7558C35.93 5.42744 28.5991 -6.10352e-05 19.9999 -6.10352e-05C14.4769 -6.10352e-05 9.47746 2.23892 5.8584 5.85845L12.1738 13.0435Z" fill="#75BB42"></path>
<path d="M12.1738 26.9564H38.7558C35.93 34.5724 28.5991 39.9999 19.9999 39.9999C14.4769 39.9999 9.47746 37.7609 5.8584 34.1414L12.1738 26.9564Z" fill="#75BB42"></path>
<path d="M5.85785 5.85779C-1.95262 13.6683 -1.95262 26.3316 5.85785 34.1422C9.08543 30.9146 12.1896 27.8104 20 20L5.85785 5.85779Z" fill="#FB2727"></path>
<path d="M25.3965 16.5217L26.2599 19.1789H29.0538L26.7935 20.821L27.6568 23.4782L25.3965 21.836L23.1362 23.4782L23.9995 20.821L21.7393 19.1789H24.5332L25.3965 16.5217Z" fill="black"></path>
<path d="M34.0919 16.5217L34.9552 19.1789H37.7491L35.4889 20.821L36.3521 23.4782L34.0919 21.836L31.8315 23.4782L32.6949 20.821L30.4346 19.1789H33.2285L34.0919 16.5217Z" fill="black"></path>
</g>
<defs>
<clipPath id="clip0_1_2741">
<rect width="40" height="40" fill="white"></rect>
</clipPath>
</defs>
</svg>