<svg width="40" height="40" viewBox="0 0 40 40" fill="none" xmlns="http://www.w3.org/2000/svg">
<g clip-path="url(#clip0_1_2926)">
<path d="M20.0005 40C31.0462 40 40.0005 31.0457 40.0005 20C40.0005 8.9543 31.0462 0 20.0005 0C8.95479 0 0.000488281 8.9543 0.000488281 20C0.000488281 31.0457 8.95479 40 20.0005 40Z" fill="#F3F6F9"></path>
<path d="M20.0002 0C11.4009 0 4.07 5.4275 1.24414 13.0435H38.7563C35.9303 5.4275 28.5995 0 20.0002 0Z" fill="#FB2727"></path>
<path d="M20.0002 39.9998C28.5995 39.9998 35.9303 34.5723 38.7562 26.9563H1.24414C4.07 34.5723 11.4009 39.9998 20.0002 39.9998Z" fill="black"></path>
<path d="M11.95 15.2173L13.0291 18.5385H16.5215L13.6962 20.5915L14.7754 23.9129L11.95 21.8602L9.12459 23.9129L10.2038 20.5915L7.37842 18.5385H10.8708L11.95 15.2173Z" fill="#75BB42"></path>
<path d="M28.0496 15.2173L29.1287 18.5385H32.6212L29.7958 20.5915L30.875 23.9129L28.0496 21.8602L25.2242 23.9129L26.3034 20.5915L23.478 18.5385H26.9704L28.0496 15.2173Z" fill="#75BB42"></path>
</g>
<defs>
<clipPath id="clip0_1_2926">
<rect width="40" height="40" fill="white"></rect>
</clipPath>
</defs>
</svg>