<svg width="40" height="40" viewBox="0 0 40 40" fill="none" xmlns="http://www.w3.org/2000/svg">
<g clip-path="url(#clip0_1_4334)">
<path d="M40 20C40 31.0456 31.0456 40 20 40C8.95437 40 0 31.0456 0 20C0 20.0048 20 0.0021875 20 0C31.0456 0 40 8.95437 40 20Z" fill="#0052B4"></path>
<path d="M19.9463 20H19.9998C19.9998 19.9821 19.9998 19.9646 19.9998 19.9465C19.982 19.9644 19.9642 19.9822 19.9463 20Z" fill="#F0F0F0"></path>
<path d="M20 10.4348C20 6.91563 20 4.60977 20 0H19.9966C8.95242 0.001875 0 8.95539 0 20H10.4348V14.1241L16.3106 20H19.9466C19.9644 19.9822 19.9822 19.9644 20.0001 19.9465C20.0001 18.5991 20.0001 17.3968 20.0001 16.3108L14.1241 10.4348H20Z" fill="#F3F6F9"></path>
<path d="M10.1186 2.60864C6.99053 4.38981 4.38998 6.99028 2.60889 10.1183V20H7.82631V7.82622V7.82607H20.0002C20.0002 6.18052 20.0002 4.61286 20.0002 2.60864H10.1186Z" fill="#D80027"></path>
<path d="M20.0003 17.5405L12.8944 10.4348H10.4351V10.435L20.0001 20H20.0003C20.0003 20 20.0003 18.3041 20.0003 17.5405Z" fill="#D80027"></path>
<path d="M22.6089 10.4348V20C22.6089 24.6593 28.6958 26.087 28.6958 26.087C28.6958 26.087 34.7828 24.6593 34.7828 20V10.4348H22.6089Z" fill="#FFDA44"></path>
<path d="M27.8259 13.913C27.8259 14.8735 27.0473 17.3912 26.0868 17.3912C25.1262 17.3912 24.3477 14.8735 24.3477 13.913C24.3477 12.9524 26.0868 12.1738 26.0868 12.1738C26.0868 12.1738 27.8259 12.9524 27.8259 13.913Z" fill="#FF9811"></path>
<path d="M32.4412 15.8071C32.7218 15.1223 32.9401 14.1214 32.9401 13.6231C32.9401 12.8227 31.8965 12.1738 31.8965 12.1738C31.8965 12.1738 30.853 12.8227 30.853 13.6231C30.853 14.1214 31.0713 15.1223 31.3519 15.8071L30.7495 17.1673C31.1036 17.3112 31.4906 17.3912 31.8965 17.3912C32.3023 17.3912 32.6894 17.3112 33.0434 17.1673L32.4412 15.8071Z" fill="#A2001D"></path>
<path d="M27.3915 19.9999C27.3915 19.9999 26.522 21.739 26.522 23.4782H30.8698C30.8697 21.739 30.0002 19.9999 30.0002 19.9999L28.6958 19.1304L27.3915 19.9999Z" fill="#6DA544"></path>
<path d="M29.9999 19.9999V19.5651C29.9999 18.8448 29.4159 18.2607 28.6955 18.2607C27.9752 18.2607 27.3911 18.8447 27.3911 19.5651V19.9999H29.9999Z" fill="#D80027"></path>
</g>
<defs>
<clipPath id="clip0_1_4334">
<rect width="40" height="40" fill="white"></rect>
</clipPath>
</defs>
</svg>