<svg width="40" height="40" viewBox="0 0 40 40" fill="none" xmlns="http://www.w3.org/2000/svg">
<g clip-path="url(#clip0_1_4481)">
<path d="M43.33 0H-5V40H43.33V0Z" fill="#0052B4"></path>
<path d="M18 0H-5V17H18V0Z" fill="#F3F6F9"></path>
<path d="M2.2495 0H-5V16H2.2495V0Z" fill="#0052B4"></path>
<path d="M17 0H10V16H17V0Z" fill="#D80027"></path>
<path d="M33.3689 33.3519L31.2715 28.7733H27.274L29.5079 24.9234L26.3364 18H40.4014L37.2299 24.9234L39.4637 28.7733H35.4663L33.3689 33.3519Z" fill="#F3F6F9"></path>
<path d="M33.3689 33.3519L31.2715 28.7733H27.274L29.5079 24.9234L26.3364 18H40.4014L37.2299 24.9234L39.4637 28.7733H35.4663L33.3689 33.3519Z" fill="#F3F6F9"></path>
<path d="M45 22.7094L42.7032 20.424L40.4064 22.7094L42.7032 24.9947L45 22.7094Z" fill="#F3F6F9"></path>
<path d="M45 22.7094L42.7032 20.424L40.4064 22.7094L42.7032 24.9947L45 22.7094Z" fill="#F3F6F9"></path>
<path d="M24.2968 20.424L26.5936 22.7094L24.2968 24.9947L22 22.7094L24.2968 20.424Z" fill="#F3F6F9"></path>
<path d="M24.2968 20.424L26.5936 22.7094L24.2968 24.9947L22 22.7094L24.2968 20.424Z" fill="#F3F6F9"></path>
<path d="M35.6657 36.7146L33.3689 34.4293L31.0721 36.7146L33.3689 39L35.6657 36.7146Z" fill="#F3F6F9"></path>
<path d="M35.6657 36.7146L33.3689 34.4293L31.0721 36.7146L33.3689 39L35.6657 36.7146Z" fill="#F3F6F9"></path>
<path d="M38.3723 30.12L40.6691 32.4053L38.3723 34.6907L36.0755 32.4053L38.3723 30.12Z" fill="#F3F6F9"></path>
<path d="M38.3723 30.12L40.6691 32.4053L38.3723 34.6907L36.0755 32.4053L38.3723 30.12Z" fill="#F3F6F9"></path>
<path d="M30.9245 32.4053L28.6277 30.12L26.3309 32.4053L28.6277 34.6907L30.9245 32.4053Z" fill="#F3F6F9"></path>
<path d="M30.9245 32.4053L28.6277 30.12L26.3309 32.4053L28.6277 34.6907L30.9245 32.4053Z" fill="#F3F6F9"></path>
</g>
<defs>
<clipPath id="clip0_1_4481">
<rect width="40" height="40" rx="20" fill="white"></rect>
</clipPath>
</defs>
</svg>