<svg width="40" height="40" viewBox="0 0 40 40" fill="none" xmlns="http://www.w3.org/2000/svg">
<g clip-path="url(#clip0_1_2615)">
<path d="M20 39.9999C31.0457 39.9999 40 31.0456 40 19.9999C40 8.95424 31.0457 -6.10352e-05 20 -6.10352e-05C8.9543 -6.10352e-05 0 8.95424 0 19.9999C0 31.0456 8.9543 39.9999 20 39.9999Z" fill="#FFDA44"></path>
<path d="M19.9999 -0.000183105C19.9854 -2.68554e-05 19.1304 7.99982 19.1304 7.99982H36.0008C32.352 3.14224 26.543 -0.000183105 19.9999 -0.000183105Z" fill="#496E2D"></path>
<path d="M19.9999 39.9998C26.543 39.9998 32.352 36.8574 36.0007 31.9998H3.99902C7.64777 36.8574 13.4568 39.9998 19.9999 39.9998Z" fill="#496E2D"></path>
<path d="M39.5994 15.9998H19.1304L19.9999 23.9998H39.5994C39.8619 22.7074 39.9999 21.3697 39.9999 19.9998C39.9999 18.6299 39.8618 17.2922 39.5994 15.9998Z" fill="#496E2D"></path>
<path d="M20 23.9999C20 19.826 20 4.69556 20 -6.10352e-05C8.95437 -6.10352e-05 0 8.95431 0 19.9999C0 21.3699 0.138125 22.7075 0.400469 23.9999H20Z" fill="#FB2727"></path>
<path d="M11.0356 9.56519L12.3306 13.5507H16.5216L13.1312 16.0142L14.4261 20L11.0356 17.5367L7.64512 20L8.9402 16.0142L5.5498 13.5507H9.74066L11.0356 9.56519Z" fill="#F3F6F9"></path>
</g>
<defs>
<clipPath id="clip0_1_2615">
<rect width="40" height="40" fill="white"></rect>
</clipPath>
</defs>
</svg>