<svg width="40" height="40" viewBox="0 0 40 40" fill="none" xmlns="http://www.w3.org/2000/svg">
<g clip-path="url(#clip0_3546_141823)">
<path d="M19.9998 40C31.0455 40 39.9998 31.0457 39.9998 20C39.9998 8.9543 31.0455 0 19.9998 0C8.95406 0 -0.000244141 8.9543 -0.000244141 20C-0.000244141 31.0457 8.95406 40 19.9998 40Z" fill="#F3F6F9"></path>
<path d="M38.756 13.0435H1.24398C0.44 15.2101 0 17.5535 0 19.9999C0 22.4463 0.44 24.7898 1.24398 26.9564H38.7561C39.56 24.7898 40 22.4463 40 19.9999C40 17.5535 39.56 15.2101 38.756 13.0435Z" fill="#0073FD"></path>
<path d="M20.0001 0C13.9383 0 8.50684 2.69719 4.83911 6.95648H35.1611C31.4934 2.69719 26.0619 0 20.0001 0Z" fill="#FB2727"></path>
<path d="M35.1611 33.0435H4.83911C8.50685 37.3028 13.9383 39.9999 20.0001 39.9999C26.0619 39.9999 31.4934 37.3028 35.1611 33.0435Z" fill="#FB2727"></path>
</g>
<defs>
<clipPath id="clip0_3546_141823">
<rect width="40" height="40" fill="white"></rect>
</clipPath>
</defs>
</svg>