<svg width="40" height="40" viewBox="0 0 40 40" fill="none" xmlns="http://www.w3.org/2000/svg">
<g clip-path="url(#clip0_1_2582)">
<path d="M1.98453 11.3044C0.713125 13.9337 0 16.8836 0 20C0 23.1164 0.713125 26.0662 1.98453 28.6956L20 30.4347L38.0155 28.6956C39.2869 26.0662 40 23.1164 40 20C40 16.8836 39.2869 13.9337 38.0155 11.3044L20 9.56522L1.98453 11.3044Z" fill="#F3F6F9"></path>
<path d="M1.98535 28.6956C5.22027 35.3855 12.071 40 20.0001 40C27.9293 40 34.78 35.3855 38.0149 28.6956H1.98535Z" fill="#75BB42"></path>
<path d="M1.98535 11.3043H38.0149C34.78 4.61447 27.9293 -6.10352e-05 20.0001 -6.10352e-05C12.071 -6.10352e-05 5.22027 4.61447 1.98535 11.3043Z" fill="#FB2727"></path>
<path d="M16.5215 25.2173H23.478V22.2607L22.0867 22.9563L19.9998 20.8694L17.9128 22.9563L16.5215 22.2607V25.2173Z" fill="#FFDA44"></path>
<path d="M12.5414 21.739L12.8652 22.7354H13.9129L13.0652 23.3513L13.3891 24.3477L12.5414 23.7319L11.6938 24.3477L12.0176 23.3513L11.1699 22.7354H12.2176L12.5414 21.739Z" fill="#FFDA44"></path>
<path d="M13.5453 18.2608L13.8691 19.2572H14.9168L14.0691 19.8731L14.3929 20.8695L13.5453 20.2537L12.6977 20.8695L13.0215 19.8731L12.1738 19.2572H13.2215L13.5453 18.2608Z" fill="#FFDA44"></path>
<path d="M16.4149 15.6521L16.7388 16.6485H17.7863L16.9388 17.2643L17.2625 18.2607L16.4149 17.645L15.5674 18.2607L15.8911 17.2643L15.0435 16.6485H16.0912L16.4149 15.6521Z" fill="#FFDA44"></path>
<path d="M27.4584 21.739L27.1346 22.7354H26.0869L26.9346 23.3513L26.6107 24.3477L27.4584 23.7319L28.306 24.3477L27.9822 23.3513L28.8299 22.7354H27.7822L27.4584 21.739Z" fill="#FFDA44"></path>
<path d="M26.4545 18.2608L26.1307 19.2572H25.083L25.9307 19.8731L25.6068 20.8695L26.4545 20.2537L27.3021 20.8695L26.9783 19.8731L27.826 19.2572H26.7783L26.4545 18.2608Z" fill="#FFDA44"></path>
<path d="M23.5848 15.6521L23.261 16.6485H22.2134L23.0609 17.2643L22.7371 18.2607L23.5848 17.645L24.4324 18.2607L24.1086 17.2643L24.9562 16.6485H23.9085L23.5848 15.6521Z" fill="#FFDA44"></path>
<path d="M19.9999 14.3477L20.3237 15.3441H21.3714L20.5237 15.9599L20.8476 16.9563L19.9999 16.3405L19.1522 16.9563L19.4761 15.9599L18.6284 15.3441H19.6761L19.9999 14.3477Z" fill="#FFDA44"></path>
</g>
<defs>
<clipPath id="clip0_1_2582">
<rect width="40" height="40" fill="white"></rect>
</clipPath>
</defs>
</svg>