<svg width="40" height="40" viewBox="0 0 40 40" fill="none" xmlns="http://www.w3.org/2000/svg">
<g clip-path="url(#clip0_1_2650)">
<path d="M20 0C18.5067 0 17.0521 0.165078 15.6522 0.475391L14.7827 19.9999L15.6522 39.5245C17.0522 39.8348 18.5068 40 20 40C31.0457 40 40 31.0456 40 19.9999C39.9999 8.9543 31.0457 0 20 0V0Z" fill="#496E2D"></path>
<path d="M5.21734 6.52893C1.97641 10.0833 0 14.8106 0 19.9999C0 25.1891 1.97648 29.9164 5.21742 33.471L6.08695 19.9999L5.21734 6.52893Z" fill="#496E2D"></path>
<path d="M29.2516 15.0857C30.2356 12.343 29.1302 9.36014 26.7577 7.87451C27.1845 7.93006 27.6116 8.03053 28.0332 8.1817C31.1975 9.31701 32.8423 12.8023 31.707 15.9665C30.5717 19.131 27.0864 20.7757 23.9221 19.6404C23.5005 19.4891 23.1068 19.295 22.7422 19.0666C25.518 19.4281 28.2677 17.8283 29.2516 15.0857Z" fill="#F3F6F9"></path>
<path d="M23.794 7.1228L22.9389 8.22765L21.6242 7.75585L22.4106 8.91038L21.5557 10.0151L22.8967 9.62397L23.6832 10.7783L23.7254 9.3821L25.0665 8.99093L23.7518 8.51929L23.794 7.1228Z" fill="#F3F6F9"></path>
<path d="M26.1027 10.7227L25.2476 11.8274L23.9328 11.3556L24.7193 12.5102L23.8643 13.6148L25.2053 13.2236L25.9918 14.3782L26.0342 12.9819L27.3752 12.5906L26.0603 12.1189L26.1027 10.7227Z" fill="#F3F6F9"></path>
<path d="M19.7232 8.43396L18.8681 9.53865L17.5534 9.06701L18.3399 10.2215L17.4849 11.3262L18.8258 10.9351L19.6124 12.0895L19.6547 10.6933L20.9957 10.3021L19.681 9.83029L19.7232 8.43396Z" fill="#F3F6F9"></path>
<path d="M19.6295 12.5575L18.7745 13.6623L17.4597 13.1905L18.2463 14.3451L17.3911 15.4498L18.7323 15.0587L19.5188 16.213L19.561 14.8168L20.9021 14.4256L19.5872 13.9538L19.6295 12.5575Z" fill="#F3F6F9"></path>
<path d="M23.5534 13.9653L22.6983 15.07L21.3835 14.5983L22.1701 15.7528L21.3149 16.8574L22.6561 16.4663L23.4426 17.6209L23.4849 16.2245L24.826 15.8334L23.511 15.3617L23.5534 13.9653Z" fill="#F3F6F9"></path>
<path d="M5.21729 6.52893V33.4709C7.94229 36.4595 11.5618 38.6177 15.6521 39.5244V0.475342C11.5617 1.38206 7.94236 3.54026 5.21729 6.52893Z" fill="#FB2727"></path>
<path d="M9.19959 10.53L7.45264 9.22863V7.38824L9.19959 6.08691H11.6703L13.4172 7.38824V9.22863L11.6703 10.53H9.19959Z" fill="#F3F6F9"></path>
<path d="M10.435 6.08704H9.19959L7.45264 7.38836V8.28813H10.435V6.08704Z" fill="#FF9811"></path>
<path d="M10.4351 10.5302H11.6704L13.4173 9.22874V8.28992H10.4351V10.5302Z" fill="#FF9811"></path>
<path d="M9.19959 33.913L7.45264 32.6116V30.7713L9.19959 29.4698H11.6703L13.4172 30.7713V32.6116L11.6703 33.913H9.19959Z" fill="#F3F6F9"></path>
<path d="M10.435 29.4698H9.19959L7.45264 30.7713V31.671H10.435V29.4698Z" fill="#FF9811"></path>
<path d="M10.4351 33.913H11.6704L13.4173 32.6116V31.6729H10.4351V33.913Z" fill="#FF9811"></path>
<path d="M9.19959 22.2216L7.45264 20.9202V19.0798L9.19959 17.7784H11.6703L13.4172 19.0798V20.9202L11.6703 22.2216H9.19959Z" fill="#496E2D"></path>
<path d="M13.4785 25.0847H12.7175V24.3239H11.3804L10.435 23.3784L9.48957 24.3239H8.15246V25.0847H7.3916V26.6065H8.15246V27.3673H9.48949L10.435 28.3129L11.3804 27.3673H12.7175V26.6065H13.4785V25.0847Z" fill="#496E2D"></path>
<path d="M13.4785 13.3933H12.7175V12.6324H11.3804L10.435 11.6869L9.48957 12.6324H8.15246V13.3933H7.3916V14.915H8.15246V15.6759H9.48949L10.435 16.6215L11.3804 15.6759H12.7175V14.915H13.4785V13.3933Z" fill="#496E2D"></path>
<path d="M9.56494 19.1305H11.3041V20.8696H9.56494V19.1305Z" fill="#FB2727"></path>
<path d="M10.4345 15.0235C10.9147 15.0235 11.304 14.6342 11.304 14.154C11.304 13.6737 10.9147 13.2844 10.4345 13.2844C9.95424 13.2844 9.56494 13.6737 9.56494 14.154C9.56494 14.6342 9.95424 15.0235 10.4345 15.0235Z" fill="#FB2727"></path>
<path d="M10.4345 26.7156C10.9147 26.7156 11.304 26.3263 11.304 25.8461C11.304 25.3659 10.9147 24.9766 10.4345 24.9766C9.95424 24.9766 9.56494 25.3659 9.56494 25.8461C9.56494 26.3263 9.95424 26.7156 10.4345 26.7156Z" fill="#FB2727"></path>
</g>
<defs>
<clipPath id="clip0_1_2650">
<rect width="40" height="40" fill="white"></rect>
</clipPath>
</defs>
</svg>