<svg width="40" height="40" viewBox="0 0 40 40" fill="none" xmlns="http://www.w3.org/2000/svg">
<g clip-path="url(#clip0_1_2637)">
<path d="M20 40.0001C31.0457 40.0001 40 31.0458 40 20.0001C40 8.95443 31.0457 0.00012207 20 0.00012207C8.95431 0.00012207 0 8.95443 0 20.0001C0 31.0458 8.95431 40.0001 20 40.0001Z" fill="#FB2727"></path>
<path d="M19.9998 29.5653C25.2825 29.5653 29.565 25.2828 29.565 20.0001C29.565 14.7173 25.2825 10.4348 19.9998 10.4348C14.7171 10.4348 10.4346 14.7173 10.4346 20.0001C10.4346 25.2828 14.7171 29.5653 19.9998 29.5653Z" fill="#F3F6F9"></path>
<path d="M21.1784 16.3428L22.8194 18.6041L25.4769 17.7424L23.8334 20.0018L25.4742 22.263L22.8175 21.398L21.174 23.6574L21.1757 20.8636L18.519 19.9986L21.1767 19.1368L21.1784 16.3428Z" fill="#FB2727"></path>
<path d="M22.1738 25.6523C19.0523 25.6523 16.5217 23.1217 16.5217 20.0001C16.5217 16.8786 19.0523 14.348 22.1738 14.348C23.1471 14.348 24.063 14.594 24.8625 15.0273C23.6082 13.8007 21.893 13.0436 19.9999 13.0436C16.1581 13.0436 13.0435 16.1581 13.0435 20.0001C13.0435 23.842 16.1581 26.9565 19.9999 26.9565C21.893 26.9565 23.6083 26.1994 24.8625 24.9728C24.063 25.4062 23.1471 25.6523 22.1738 25.6523Z" fill="#FB2727"></path>
</g>
<defs>
<clipPath id="clip0_1_2637">
<rect width="40" height="40" fill="white"></rect>
</clipPath>
</defs>
</svg>