<svg width="40" height="40" viewBox="0 0 40 40" fill="none" xmlns="http://www.w3.org/2000/svg">
<g clip-path="url(#clip0_1_2624)">
<path d="M20 39.9999C31.0457 39.9999 40 31.0456 40 19.9999C40 8.95424 31.0457 -6.10352e-05 20 -6.10352e-05C8.95431 -6.10352e-05 0 8.95424 0 19.9999C0 31.0456 8.95431 39.9999 20 39.9999Z" fill="#F3F6F9"></path>
<path d="M13.0436 10.4345V7.82587H10.4348V10.4345H7.82617V13.0433H10.4348V15.652H13.0436V13.0433H15.6523V10.4345H13.0436Z" fill="#FB2727"></path>
<path d="M20 -0.000183105V19.9998C8.95437 19.9999 4.56445 19.9998 0 19.9999C0 31.0454 8.95437 39.9998 20 39.9998C31.0456 39.9998 40 31.0454 40 19.9998C40 8.95419 31.0456 -0.000183105 20 -0.000183105Z" fill="#FB2727"></path>
</g>
<defs>
<clipPath id="clip0_1_2624">
<rect width="40" height="40" fill="white"></rect>
</clipPath>
</defs>
</svg>