<svg width="40" height="40" viewBox="0 0 40 40" fill="none" xmlns="http://www.w3.org/2000/svg">
<g clip-path="url(#clip0_3546_141793)">
<path d="M20.0002 40C31.0459 40 40.0002 31.0457 40.0002 20C40.0002 8.95431 31.0459 0 20.0002 0C8.95455 0 0.000244141 8.95431 0.000244141 20C0.000244141 31.0457 8.95455 40 20.0002 40Z" fill="#FB2727"></path>
<path d="M26.7589 14.6899L29.1415 17.9732L33.0001 16.7221L30.6137 20.0025L32.996 23.2856L29.1388 22.0297L26.7525 25.3101L26.755 21.2537L22.8977 19.9978L26.7564 18.7467L26.7589 14.6899Z" fill="#F3F6F9"></path>
<path d="M20.2566 28.2068C15.7243 28.2068 12.0501 24.5325 12.0501 20.0003C12.0501 15.468 15.7243 11.7937 20.2566 11.7937C21.6697 11.7937 22.9993 12.1512 24.1602 12.7801C22.3391 10.9991 19.8484 9.8999 17.1002 9.8999C11.5219 9.8999 7 14.4219 7 20.0001C7 25.5783 11.522 30.1004 17.1002 30.1004C19.8487 30.1004 22.3392 29.0011 24.1602 27.2201C22.9993 27.8493 21.6697 28.2068 20.2566 28.2068Z" fill="#F3F6F9"></path>
</g>
<defs>
<clipPath id="clip0_3546_141793">
<rect width="40" height="40" fill="white"></rect>
</clipPath>
</defs>
</svg>