<svg width="40" height="40" viewBox="0 0 40 40" fill="none" xmlns="http://www.w3.org/2000/svg">
<g clip-path="url(#clip0_1_2679)">
<path d="M40 19.9999C40 31.0455 31.0456 39.9999 20.0001 39.9999C8.95438 39.9999 0 31.0455 0 19.9999C0 20.0046 20.0001 0.00206543 20.0001 -0.00012207C31.0456 -0.00012207 40 8.95425 40 19.9999Z" fill="#338AF3"></path>
<path d="M9.56543 20.0001H16.3109L10.435 13.0436L9.56543 15.6522V20.0001Z" fill="#0073FD"></path>
<path d="M20 16.3109L13.0435 9.56531H19.9999L20 16.3109Z" fill="#0073FD"></path>
<path d="M19.9463 19.9999H19.9998C19.9998 19.982 19.9998 19.9645 19.9998 19.9464C19.982 19.9643 19.9642 19.9821 19.9463 19.9999Z" fill="#F3F6F9"></path>
<path d="M20.0001 10.4346C20.0001 6.9155 20.0001 4.60957 20.0001 -0.00012207H19.9967C8.9525 0.00175293 0 8.95527 0 19.9999H10.4348V14.124L16.3107 19.9999H19.9466C19.9645 19.9821 19.9823 19.9643 20.0002 19.9464C20.0002 18.5989 20.0002 17.3967 20.0002 16.3107L14.1241 10.4346H20.0001Z" fill="#F3F6F9"></path>
<path d="M10.1181 2.60876C6.99004 4.38994 4.38957 6.99041 2.6084 10.1185V20.0001H7.82582V7.82634V7.82619H19.9997C19.9997 6.18064 19.9997 4.61298 19.9997 2.60876H10.1181Z" fill="#FB2727"></path>
<path d="M19.9998 17.5406L12.8939 10.4349H10.4346V10.4351L19.9996 20.0001H19.9998C19.9998 20.0001 19.9998 18.3042 19.9998 17.5406Z" fill="#FB2727"></path>
<path d="M21.8286 33.0436L22.2603 34.3722H23.6573L22.5272 35.1933L22.9589 36.5218L21.8286 35.7008L20.6985 36.5218L21.1302 35.1933L20 34.3722H21.3969L21.8286 33.0436Z" fill="#FFDA44"></path>
<path d="M32.9542 24.3479L33.3858 25.6765H34.7827L33.6527 26.4977L34.0845 27.8262L32.9542 27.0052L31.8241 27.8262L32.2558 26.4977L31.1255 25.6765H32.5224L32.9542 24.3479Z" fill="#FFDA44"></path>
<path d="M35.7417 11.3044L36.1734 12.633H37.5704L36.4403 13.4541L36.8719 14.7826L35.7417 13.9616L34.6116 14.7826L35.0433 13.4541L33.9131 12.633H35.31L35.7417 11.3044Z" fill="#FFDA44"></path>
<path d="M36.4322 20.8696L36.8638 22.1983H38.2608L37.1307 23.0194L37.5624 24.3479L36.4322 23.5269L35.3021 24.3479L35.7338 23.0194L34.6035 22.1983H36.0005L36.4322 20.8696Z" fill="#FFDA44"></path>
<path d="M23.8315 29.9186L25.0764 30.5529L26.0641 29.5652L25.8457 30.9448L27.0903 31.579L25.7104 31.7976L25.4919 33.1774L24.8579 31.9326L23.478 32.1513L24.4658 31.1635L23.8315 29.9186Z" fill="#FFDA44"></path>
<path d="M23.8315 24.7014L25.0764 25.3356L26.0641 24.3479L25.8457 25.7276L27.0903 26.3617L25.7104 26.5803L25.4919 27.9601L24.8579 26.7154L23.478 26.934L24.4658 25.9463L23.8315 24.7014Z" fill="#FFDA44"></path>
<path d="M28.1796 28.0457L29.4245 28.68L30.4123 27.6923L30.1938 29.0719L31.4384 29.7061L30.0586 29.9247L29.8401 31.3045L29.206 30.0596L27.8262 30.2784L28.8139 29.2906L28.1796 28.0457Z" fill="#FFDA44"></path>
<path d="M28.1796 16.8752L29.4245 17.5095L30.4123 16.5217L30.1938 17.9014L31.4384 18.5356L30.0586 18.7541L29.8401 20.1339L29.206 18.8892L27.8262 19.1078L28.8139 18.1201L28.1796 16.8752Z" fill="#FFDA44"></path>
<path d="M32.3935 16.7415L33.6384 17.3757L34.6261 16.3879L34.4076 17.7676L35.6523 18.4018L34.2725 18.6204L34.0539 20.0001L33.4199 18.7554L32.04 18.974L33.0278 17.9863L32.3935 16.7415Z" fill="#FFDA44"></path>
</g>
<defs>
<clipPath id="clip0_1_2679">
<rect width="40" height="40" fill="white"></rect>
</clipPath>
</defs>
</svg>