<svg width="40" height="40" viewBox="0 0 40 40" fill="none" xmlns="http://www.w3.org/2000/svg">
<g clip-path="url(#clip0_1_2575)">
<path d="M40 19.9999C40 31.0455 31.0456 39.9999 20 39.9999C8.95438 39.9999 0 31.0455 0 19.9999C6.86953 13.1304 12.6956 7.30428 20 -9.15527e-05C31.0456 -9.15527e-05 40 8.95428 40 19.9999Z" fill="#FB2727"></path>
<path d="M20 19.9999C20 8.95428 20 7.6521 20 -9.15527e-05C8.95437 -9.15527e-05 0 8.95428 0 19.9999H20Z" fill="#0073FD"></path>
<path d="M17.3915 11.7047L14.9489 12.8537L16.2496 15.2193L13.5973 14.7118L13.2611 17.3912L11.4138 15.4206L9.56627 17.3912L9.23025 14.7118L6.57791 15.2191L7.87854 12.8536L5.43604 11.7047L7.87861 10.5559L6.57791 8.19023L9.23018 8.69765L9.56635 6.01828L11.4138 7.9889L13.2612 6.01828L13.5973 8.69765L16.2496 8.19023L14.9489 10.5559L17.3915 11.7047Z" fill="#F3F6F9"></path>
<path d="M11.4138 15.4272C13.4699 15.4272 15.1367 13.7604 15.1367 11.7043C15.1367 9.64821 13.4699 7.98141 11.4138 7.98141C9.35771 7.98141 7.69092 9.64821 7.69092 11.7043C7.69092 13.7604 9.35771 15.4272 11.4138 15.4272Z" fill="#0073FD"></path>
<path d="M11.4138 13.6884C10.32 13.6884 9.43018 12.7985 9.43018 11.7046C9.43018 10.6108 10.3201 9.72089 11.4138 9.72089C12.5077 9.72089 13.3976 10.6108 13.3976 11.7046C13.3975 12.7985 12.5075 13.6884 11.4138 13.6884Z" fill="#F3F6F9"></path>
</g>
<defs>
<clipPath id="clip0_1_2575">
<rect width="40" height="40" fill="white"></rect>
</clipPath>
</defs>
</svg>