<svg width="40" height="40" viewBox="0 0 40 40" fill="none" xmlns="http://www.w3.org/2000/svg">
<g clip-path="url(#clip0_1_2596)">
<path d="M20 39.9999C31.0457 39.9999 40 31.0456 40 19.9999C40 8.95424 31.0457 -6.10352e-05 20 -6.10352e-05C8.9543 -6.10352e-05 0 8.95424 0 19.9999C0 31.0456 8.9543 39.9999 20 39.9999Z" fill="#FFDA44"></path>
<path d="M5.85809 34.1422C6.69707 34.9811 7.59223 35.7293 8.53121 36.3881L36.3882 8.53098C35.7296 7.592 34.9814 6.69684 34.1424 5.85786C33.3033 5.01887 32.4082 4.27075 31.4693 3.612L3.6123 31.4691C4.2709 32.4079 5.01918 33.3031 5.85809 34.1422Z" fill="black"></path>
<path d="M5.85802 5.8578C-0.451515 12.1675 -1.66284 21.6433 2.22177 29.1701L29.1704 2.22163C21.6436 -1.66298 12.1676 -0.451576 5.85802 5.8578Z" fill="#75BB42"></path>
<path d="M34.1419 34.1421C40.4514 27.8325 41.6626 18.3565 37.7782 10.8297L10.8296 37.7783C18.3562 41.6629 27.8322 40.4516 34.1419 34.1421Z" fill="#338AF3"></path>
</g>
<defs>
<clipPath id="clip0_1_2596">
<rect width="40" height="40" fill="white"></rect>
</clipPath>
</defs>
</svg>