<svg width="40" height="40" viewBox="0 0 40 40" fill="none" xmlns="http://www.w3.org/2000/svg">
<g clip-path="url(#clip0_3546_141702)">
<path d="M19.9998 40C31.0455 40 39.9998 31.0457 39.9998 20C39.9998 8.9543 31.0455 0 19.9998 0C8.95406 0 -0.000244141 8.9543 -0.000244141 20C-0.000244141 31.0457 8.95406 40 19.9998 40Z" fill="#F3F6F9"></path>
<path d="M19.1304 19.9997H39.9999C39.9999 18.1945 39.7593 16.4457 39.3109 14.7822H19.1304V19.9997Z" fill="#FB2727"></path>
<path d="M19.1304 9.56508H37.0644C35.8401 7.56727 34.2747 5.80141 32.4496 4.34766H19.1304V9.56508Z" fill="#FB2727"></path>
<path d="M20 39.9997C24.7069 39.9997 29.0333 38.3728 32.4497 35.6519H7.55029C10.9667 38.3728 15.293 39.9997 20 39.9997Z" fill="#FB2727"></path>
<path d="M2.93545 30.4347H37.0645C38.0474 28.8309 38.8097 27.0778 39.311 25.2173H0.688965C1.19029 27.0778 1.95256 28.8309 2.93545 30.4347Z" fill="#FB2727"></path>
<path d="M9.26413 3.12328H11.0867L9.3914 4.35492L10.039 6.34781L8.34374 5.11617L6.64851 6.34781L7.20788 4.62617C5.71522 5.86953 4.40694 7.32625 3.32882 8.94938H3.9128L2.83366 9.73336C2.66554 10.0138 2.50429 10.2987 2.34976 10.5879L2.86507 12.1739L1.90366 11.4754C1.66468 11.9817 1.44608 12.4995 1.2496 13.028L1.81733 14.7755H3.9128L2.21749 16.0071L2.86507 18L1.16983 16.7684L0.154365 17.5062C0.0527246 18.3232 -0.000244141 19.1554 -0.000244141 20H19.9998C19.9998 8.95437 19.9998 7.65219 19.9998 0C16.0488 0 12.3658 1.14609 9.26413 3.12328ZM10.039 18L8.34374 16.7684L6.64851 18L7.29608 16.0071L5.60077 14.7755H7.69624L8.34374 12.7826L8.99124 14.7755H11.0867L9.3914 16.0071L10.039 18ZM9.3914 10.181L10.039 12.1739L8.34374 10.9423L6.64851 12.1739L7.29608 10.181L5.60077 8.94938H7.69624L8.34374 6.95648L8.99124 8.94938H11.0867L9.3914 10.181ZM17.2129 18L15.5176 16.7684L13.8224 18L14.47 16.0071L12.7747 14.7755H14.8701L15.5176 12.7826L16.1651 14.7755H18.2606L16.5653 16.0071L17.2129 18ZM16.5653 10.181L17.2129 12.1739L15.5176 10.9423L13.8224 12.1739L14.47 10.181L12.7747 8.94938H14.8701L15.5176 6.95648L16.1651 8.94938H18.2606L16.5653 10.181ZM16.5653 4.35492L17.2129 6.34781L15.5176 5.11617L13.8224 6.34781L14.47 4.35492L12.7747 3.12328H14.8701L15.5176 1.13039L16.1651 3.12328H18.2606L16.5653 4.35492Z" fill="#0073FD"></path>
</g>
<defs>
<clipPath id="clip0_3546_141702">
<rect width="40" height="40" fill="white"></rect>
</clipPath>
</defs>
</svg>