<svg width="40" height="40" viewBox="0 0 40 40" fill="none" xmlns="http://www.w3.org/2000/svg">
<g clip-path="url(#clip0_1_2497)">
<path d="M0.944375 13.913C0.331719 15.8324 -7.81112e-05 17.8771 1.37933e-08 19.9997C-7.81112e-05 22.1224 0.331797 24.1673 0.944453 26.0867L20 26.9564L39.0555 26.0868C39.6681 24.1674 40.0001 22.1224 40.0001 19.9999C40 17.8772 39.6682 15.8324 39.0555 13.9129L20 13.0434L0.944375 13.913Z" fill="white"></path>
<path d="M39.0557 13.9131L20.0001 13.0436L0.944492 13.9131C0.76293 14.4822 0.606602 15.0624 0.475586 15.6523H39.5243C39.3935 15.0623 39.2372 14.482 39.0557 13.9131Z" fill="#CE1126"></path>
<path d="M0.475586 24.3477C0.606445 24.9376 0.762774 25.5177 0.944336 26.0868L0.946211 26.0869L19.9998 26.9564L39.0554 26.0869C39.2369 25.5178 39.3932 24.9376 39.5242 24.3477H0.475586Z" fill="#CE1126"></path>
<path d="M19.9998 39.9998C28.9229 39.9998 36.48 34.1558 39.0554 26.0867H0.944336C3.51973 34.1557 11.0769 39.9998 19.9998 39.9998Z" fill="#1EB53A"></path>
<path d="M19.9999 -6.10344e-05C11.0769 1.70906e-05 3.51988 5.844 0.944336 13.913L39.0553 13.9131C36.4801 5.84392 28.923 -0.000139159 19.9999 -6.10344e-05Z" fill="#0099B5"></path>
<path d="M9.13992 8.26081C9.13992 6.38761 10.4564 4.82276 12.2145 4.43886C11.9443 4.37979 11.6639 4.34784 11.3759 4.34784C9.21484 4.34784 7.46289 6.09971 7.46289 8.26089C7.46289 10.4221 9.21469 12.1739 11.3759 12.1739C11.6639 12.1739 11.9442 12.1419 12.2145 12.0829C10.4565 11.6989 9.13992 10.134 9.13992 8.26081Z" fill="white"></path>
<path d="M14.5275 10.0395L14.7923 10.8547H15.6495L14.9561 11.3586L15.2209 12.1739L14.5275 11.67L13.8339 12.1739L14.0988 11.3586L13.4053 10.8547H14.2625L14.5275 10.0395Z" fill="white"></path>
<path d="M17.2636 10.0395L17.5286 10.8547H18.3857L17.6922 11.3586L17.9571 12.1739L17.2636 11.67L16.5701 12.1739L16.835 11.3586L16.1416 10.8547H16.9987L17.2636 10.0395Z" fill="white"></path>
<path d="M19.9991 10.0395L20.264 10.8547H21.1212L20.4277 11.3586L20.6926 12.1739L19.9991 11.67L19.3055 12.1739L19.5705 11.3586L18.877 10.8547H19.7342L19.9991 10.0395Z" fill="white"></path>
<path d="M22.7355 10.0395L23.0004 10.8547H23.8575L23.1641 11.3586L23.429 12.1739L22.7355 11.67L22.0419 12.1739L22.3069 11.3586L21.6133 10.8547H22.4705L22.7355 10.0395Z" fill="white"></path>
<path d="M25.4707 10.0395L25.7356 10.8547H26.5928L25.8993 11.3586L26.1643 12.1739L25.4707 11.67L24.7771 12.1739L25.0421 11.3586L24.3486 10.8547H25.2057L25.4707 10.0395Z" fill="white"></path>
<path d="M17.2636 7.19366L17.5286 8.00882H18.3857L17.6922 8.5128L17.9571 9.32796L17.2636 8.82413L16.5701 9.32796L16.835 8.5128L16.1416 8.00882H16.9987L17.2636 7.19366Z" fill="white"></path>
<path d="M19.9991 7.19366L20.264 8.00882H21.1212L20.4277 8.5128L20.6926 9.32796L19.9991 8.82413L19.3055 9.32796L19.5705 8.5128L18.877 8.00882H19.7342L19.9991 7.19366Z" fill="white"></path>
<path d="M22.7355 7.19366L23.0004 8.00882H23.8575L23.1641 8.5128L23.429 9.32796L22.7355 8.82413L22.0419 9.32796L22.3069 8.5128L21.6133 8.00882H22.4705L22.7355 7.19366Z" fill="white"></path>
<path d="M25.4707 7.19366L25.7356 8.00882H26.5928L25.8993 8.5128L26.1643 9.32796L25.4707 8.82413L24.7771 9.32796L25.0421 8.5128L24.3486 8.00882H25.2057L25.4707 7.19366Z" fill="white"></path>
<path d="M19.9991 4.34772L20.264 5.16303H21.1212L20.4277 5.66686L20.6926 6.48217L19.9991 5.97834L19.3055 6.48217L19.5705 5.66686L18.877 5.16303H19.7342L19.9991 4.34772Z" fill="white"></path>
<path d="M22.7355 4.34772L23.0004 5.16303H23.8575L23.1641 5.66686L23.429 6.48217L22.7355 5.97834L22.0419 6.48217L22.3069 5.66686L21.6133 5.16303H22.4705L22.7355 4.34772Z" fill="white"></path>
<path d="M25.4707 4.34772L25.7356 5.16303H26.5928L25.8993 5.66686L26.1643 6.48217L25.4707 5.97834L24.7771 6.48217L25.0421 5.66686L24.3486 5.16303H25.2057L25.4707 4.34772Z" fill="white"></path>
</g>
<defs>
<clipPath id="clip0_1_2497">
<rect width="40" height="40" fill="white"></rect>
</clipPath>
</defs>
</svg>