<svg width="40" height="40" viewBox="0 0 40 40" fill="none" xmlns="http://www.w3.org/2000/svg">
<g clip-path="url(#clip0_1_2472)">
<path d="M20.0003 -9.15527e-05C31.0459 -9.15527e-05 40.0003 8.95428 40.0003 19.9999C40.0003 31.0455 31.0459 39.9999 20.0003 39.9999C20.0003 39.1304 17.3916 19.9999 17.3916 19.9999L20.0003 -9.15527e-05Z" fill="#F3F6F9"></path>
<path d="M20 39.9999C8.95437 39.9999 0 31.0455 0 19.9999C0 8.95428 8.95437 -9.15527e-05 20 -9.15527e-05" fill="#FFDA44"></path>
<path d="M27.659 17.4034L31.4177 22.3757C30.8255 23.2724 30.8286 24.4806 31.5135 25.3866C32.3823 26.5359 34.0183 26.7634 35.1677 25.8945C36.317 25.0258 36.5445 23.3898 35.6755 22.2405C34.9908 21.3345 33.8292 21.002 32.805 21.3271L26.9471 13.5777L25.5598 14.6264L23.4785 16.1994L25.576 18.974L27.659 17.4034ZM33.0702 23.1198C33.4533 22.8301 33.9987 22.906 34.2883 23.289C34.5778 23.6721 34.5021 24.2175 34.119 24.5072C33.7359 24.7967 33.1905 24.721 32.901 24.3378C32.6113 23.9547 32.6871 23.4093 33.0702 23.1198Z" fill="#ACABB1"></path>
<path d="M34.1058 18.974L36.2033 16.1994L34.1222 14.6263L32.7348 13.5775L26.8769 21.327C25.8529 21.0018 24.6912 21.3344 24.0064 22.2403C23.1375 23.3897 23.365 25.0256 24.5143 25.8944C25.6637 26.7631 27.2996 26.5357 28.1683 25.3864C28.8532 24.4804 28.8563 23.2723 28.2642 22.3756L32.0229 17.4032L34.1058 18.974ZM26.781 24.3378C26.4915 24.721 25.9462 24.7967 25.563 24.5072C25.1799 24.2175 25.1041 23.6721 25.3937 23.289C25.6833 22.906 26.2287 22.8301 26.6119 23.1198C26.9949 23.4094 27.0706 23.9548 26.781 24.3378Z" fill="#FFDA44"></path>
</g>
<defs>
<clipPath id="clip0_1_2472">
<rect width="40" height="40" fill="white"></rect>
</clipPath>
</defs>
</svg>