<svg width="40" height="40" viewBox="0 0 40 40" fill="none" xmlns="http://www.w3.org/2000/svg">
<g clip-path="url(#clip0_1_2713)">
<path d="M29.5654 2.43174C26.7239 0.881423 23.465 -6.10352e-05 20.0002 -6.10352e-05C16.5353 -6.10352e-05 13.2764 0.881423 10.4349 2.43174L8.6958 19.9999L10.4349 37.5681C13.2764 39.1185 16.5353 39.9999 20.0002 39.9999C23.465 39.9999 26.7239 39.1185 29.5654 37.5681L31.3046 19.9999L29.5654 2.43174Z" fill="#FFDA44"></path>
<path d="M10.4348 37.568V2.43164C4.21789 5.82383 0 12.4191 0 19.9999C0 27.5808 4.21789 34.176 10.4348 37.568Z" fill="#338AF3"></path>
<path d="M39.9997 19.9999C39.9997 12.4191 35.7818 5.82383 29.5649 2.43164V37.568C35.7818 34.176 39.9997 27.5808 39.9997 19.9999Z" fill="#75BB42"></path>
<path d="M15.6522 25.2174L12.1738 20L15.6521 14.7826L19.1306 20L15.6522 25.2174Z" fill="#75BB42"></path>
<path d="M24.3479 25.2174L20.8696 20L24.3479 14.7826L27.8262 20L24.3479 25.2174Z" fill="#75BB42"></path>
<path d="M19.9998 32.1739L16.5215 26.9565L19.9998 21.7391L23.478 26.9565L19.9998 32.1739Z" fill="#75BB42"></path>
</g>
<defs>
<clipPath id="clip0_1_2713">
<rect width="40" height="40" fill="white"></rect>
</clipPath>
</defs>
</svg>