<svg width="40" height="40" viewBox="0 0 40 40" fill="none" xmlns="http://www.w3.org/2000/svg">
<g clip-path="url(#clip0_1_2478)">
<path d="M38.0155 28.6956C39.287 26.0662 40 23.1164 40 20C40 16.8835 39.287 13.9337 38.0155 11.3043L20 9.56519L1.98453 11.3043C0.713047 13.9337 0 16.8835 0 20C0 23.1164 0.713047 26.0662 1.98453 28.6956L20 30.4347L38.0155 28.6956Z" fill="#0073FD"></path>
<path d="M19.9998 40C27.929 40 34.7803 35.3855 38.0153 28.6956H1.98438C5.21937 35.3855 12.0706 40 19.9998 40Z" fill="#FB2727"></path>
<path d="M34.6386 23.9259L33.5823 24.7513L34.0407 26.0108L32.9292 25.2613L31.8728 26.0866L32.2422 24.798L31.1309 24.0483L32.4706 24.0016L32.8403 22.7129L33.2989 23.9726L34.6386 23.9259Z" fill="#F3F6F9"></path>
<path d="M31.9328 19.2407L31.2226 20.3776L32.0844 21.4044L30.7836 21.0804L30.0731 22.2171L29.9794 20.8798L28.6787 20.5554L29.9218 20.0531L29.8284 18.7158L30.69 19.7429L31.9328 19.2407Z" fill="#F3F6F9"></path>
<path d="M27.7889 15.7632L27.5104 17.0745L28.6713 17.7448L27.3381 17.8854L27.0593 19.1963L26.514 17.9718L25.1807 18.1117L26.1771 17.2147L25.6318 15.9901L26.7928 16.6603L27.7889 15.7632Z" fill="#F3F6F9"></path>
<path d="M22.7054 13.913L22.8922 15.2405L24.2123 15.4732L23.0074 16.0612L23.1941 17.3887L22.2628 16.4243L21.0577 17.0119L21.6872 15.8281L20.7559 14.8639L22.0762 15.0966L22.7054 13.913Z" fill="#F3F6F9"></path>
<path d="M17.2949 13.913L17.9243 15.0966L19.2443 14.8637L18.3133 15.8284L18.9425 17.0121L17.7376 16.4243L16.8062 17.3884L16.993 16.0612L15.7881 15.4735L17.1083 15.2405L17.2949 13.913Z" fill="#F3F6F9"></path>
<path d="M12.2112 15.7632L13.2076 16.6603L14.3683 15.9901L13.8232 17.2151L14.8194 18.112L13.4862 17.9718L12.9407 19.1963L12.6624 17.8851L11.3291 17.7451L12.49 17.0747L12.2112 15.7632Z" fill="#F3F6F9"></path>
<path d="M8.06719 19.2407L9.31039 19.7429L10.1718 18.716L10.0786 20.0536L11.3214 20.5558L10.0207 20.88L9.92703 22.2171L9.21687 21.0805L7.91602 21.4046L8.77773 20.3776L8.06719 19.2407Z" fill="#F3F6F9"></path>
<path d="M5.3623 23.9258L6.7023 23.9725L7.16059 22.713L7.53051 24.0018L8.87012 24.0486L7.75871 24.7982L8.12809 26.0868L7.07184 25.2615L5.96035 26.011L6.41887 24.7513L5.3623 23.9258Z" fill="#F3F6F9"></path>
<path d="M38.0153 11.3043C34.7803 4.61439 27.929 -6.10352e-05 19.9998 -6.10352e-05C12.0706 -6.10352e-05 5.21937 4.61439 1.98438 11.3043H38.0153Z" fill="#FFDA44"></path>
</g>
<defs>
<clipPath id="clip0_1_2478">
<rect width="40" height="40" fill="white"></rect>
</clipPath>
</defs>
</svg>