<svg width="40" height="40" viewBox="0 0 40 40" fill="none" xmlns="http://www.w3.org/2000/svg">
<g clip-path="url(#clip0_1_4216)">
<path d="M40 20C40 31.0456 31.0456 40 20 40C8.95437 40 0 31.0456 0 20C0 20.0048 20 0.0021875 20 0C31.0456 0 40 8.95437 40 20Z" fill="#0052B4"></path>
<path d="M19.9463 20H19.9998C19.9998 19.9821 19.9998 19.9646 19.9998 19.9465C19.982 19.9644 19.9642 19.9822 19.9463 20Z" fill="#F0F0F0"></path>
<path d="M20 10.4348C20 6.91563 20 4.60977 20 0H19.9966C8.95242 0.001875 0 8.95539 0 20H10.4348V14.1241L16.3106 20H19.9466C19.9644 19.9822 19.9822 19.9644 20.0001 19.9465C20.0001 18.5991 20.0001 17.3968 20.0001 16.3108L14.1241 10.4348H20Z" fill="#F3F6F9"></path>
<path d="M10.1186 2.60864C6.99053 4.38981 4.38998 6.99028 2.60889 10.1183V20H7.82631V7.82622V7.82607H20.0002C20.0002 6.18052 20.0002 4.61286 20.0002 2.60864H10.1186Z" fill="#D80027"></path>
<path d="M28.6957 20L23.29 25.4057C24.3032 27.3597 26.3429 28.6956 28.6957 28.6956C31.0486 28.6956 33.0883 27.3597 34.1014 25.4057L28.6957 20Z" fill="#FFDA44"></path>
<path d="M19.9998 17.5405L12.8939 10.4348H10.4346V10.435L19.9996 20H19.9998C19.9998 20 19.9998 18.3041 19.9998 17.5405Z" fill="#D80027"></path>
<path d="M22.6089 10.4348V20V20C22.609 24.6593 28.6958 26.087 28.6958 26.087C28.6958 26.087 34.7827 24.6593 34.7828 20V20V10.4348H22.6089Z" fill="#6DA544"></path>
<path d="M27.3911 14.7825H29.9998V21.739H27.3911V14.7825Z" fill="#F3F6F9"></path>
<path d="M28.6955 16.087C29.4159 16.087 29.9999 15.503 29.9999 14.7826C29.9999 14.0623 29.4159 13.4783 28.6955 13.4783C27.9751 13.4783 27.3911 14.0623 27.3911 14.7826C27.3911 15.503 27.9751 16.087 28.6955 16.087Z" fill="#A2001D"></path>
<path d="M24.3477 12.1738H26.0868V13.913H24.3477V12.1738Z" fill="#FFDA44"></path>
<path d="M24.3477 16.0869H26.0868V17.8261H24.3477V16.0869Z" fill="#FFDA44"></path>
<path d="M24.3477 20H26.0868V21.7391H24.3477V20Z" fill="#FFDA44"></path>
<path d="M31.3042 12.1738H33.0433V13.913H31.3042V12.1738Z" fill="#FFDA44"></path>
<path d="M31.3042 16.0869H33.0433V17.8261H31.3042V16.0869Z" fill="#FFDA44"></path>
<path d="M31.3042 20H33.0433V21.7391H31.3042V20Z" fill="#FFDA44"></path>
</g>
<defs>
<clipPath id="clip0_1_4216">
<rect width="40" height="40" fill="white"></rect>
</clipPath>
</defs>
</svg>