<svg width="40" height="40" viewBox="0 0 40 40" fill="none" xmlns="http://www.w3.org/2000/svg">
<g clip-path="url(#clip0_1_4115)">
<path d="M20 40C31.0457 40 40 31.0457 40 20C40 8.9543 31.0457 0 20 0C8.9543 0 0 8.9543 0 20C0 31.0457 8.9543 40 20 40Z" fill="#F3F6F9"></path>
<path d="M23.3967 13.9724C23.3967 12.0965 21.8759 10.5757 19.9999 10.5757C18.1239 10.5757 16.6031 12.0965 16.6031 13.9724H9.13037C9.13037 15.8194 10.7393 17.3168 12.5862 17.3168H12.475C12.475 19.1639 13.9722 20.6614 15.8194 20.6614C15.8194 22.2968 16.994 23.6557 18.5451 23.9462L18.5365 23.9657H21.4634L21.4547 23.9462C23.006 23.6555 24.1804 22.2967 24.1804 20.6614C26.0276 20.6614 27.5249 19.1639 27.5249 17.3168H27.4135C29.2605 17.3168 30.8694 15.8194 30.8694 13.9724H23.3967Z" fill="#FFDA44"></path>
<path d="M18.5065 23.6191L16.4004 28.3741C17.5116 28.8258 18.7263 29.0769 19.9998 29.0769C21.2733 29.0769 22.4879 28.8259 23.5991 28.3741L21.493 23.6191H18.5065Z" fill="#FFDA44"></path>
<path d="M15.6523 15.6428V21.4937C15.6523 24.8217 20.0002 25.8415 20.0002 25.8415C20.0002 25.8415 24.348 24.8217 24.348 21.4937V15.6428H15.6523Z" fill="#F3F6F9"></path>
<path d="M4.85008 20.1409L7.20156 26.7177L9.52859 20.1409H11.3045L7.91187 28.8365H6.49117L3.07422 20.1409H4.85008Z" fill="#338AF3"></path>
<path d="M32.1738 28.8365V20.1409H33.8639V28.8365H32.1738Z" fill="#338AF3"></path>
<path d="M17.3911 17.5322V24.6224C17.9888 25.0623 18.632 25.3649 19.1303 25.5586V17.5322H17.3911Z" fill="#D80027"></path>
<path d="M22.6083 17.5322V24.6224C22.0105 25.0623 21.3674 25.3649 20.8691 25.5586V17.5322H22.6083Z" fill="#D80027"></path>
<path d="M15.6523 15.6426H24.348V18.4016H15.6523V15.6426Z" fill="#0052B4"></path>
</g>
<defs>
<clipPath id="clip0_1_4115">
<rect width="40" height="40" fill="white"></rect>
</clipPath>
</defs>
</svg>