<svg width="40" height="40" viewBox="0 0 40 40" fill="none" xmlns="http://www.w3.org/2000/svg">
<g clip-path="url(#clip0_1_2445)">
<path d="M40 20C40 19.1159 39.9419 18.2452 39.8307 17.3913H17.3911C13.3051 13.3056 5.85753 5.85847 5.85784 5.85785C-1.95261 13.6683 -1.95261 26.3316 5.85784 34.1422L17.3913 22.6088H39.8307C39.9418 21.7548 40 20.8841 40 20Z" fill="black"></path>
<path d="M39.994 20.4549C39.9932 20.4935 39.9923 20.5323 39.9912 20.5709C39.9921 20.5321 39.9931 20.4935 39.994 20.4549Z" fill="#F3F6F9"></path>
<path d="M39.9752 21.0015C39.9734 21.0397 39.9708 21.0777 39.9688 21.1158C39.9708 21.0778 39.9733 21.0397 39.9752 21.0015Z" fill="#F3F6F9"></path>
<path d="M39.948 21.4373C39.944 21.4935 39.9401 21.5497 39.9355 21.6057C39.9401 21.5497 39.9439 21.4935 39.948 21.4373Z" fill="#F3F6F9"></path>
<path d="M39.8809 17.8202C39.8882 17.887 39.8955 17.9538 39.9022 18.0209C39.8955 17.9538 39.8881 17.887 39.8809 17.8202Z" fill="#F3F6F9"></path>
<path d="M39.9678 18.8842C39.9699 18.9223 39.9725 18.9604 39.9743 18.9986C39.9724 18.9604 39.9699 18.9223 39.9678 18.8842Z" fill="#F3F6F9"></path>
<path d="M39.9912 19.4293C39.9923 19.4679 39.9931 19.5067 39.994 19.5453C39.9932 19.5065 39.9922 19.4679 39.9912 19.4293Z" fill="#F3F6F9"></path>
<path d="M39.9355 18.3942C39.9401 18.4502 39.944 18.5064 39.948 18.5626C39.9439 18.5064 39.9401 18.4502 39.9355 18.3942Z" fill="#F3F6F9"></path>
<path d="M39.8304 17.3913C39.8394 17.4598 39.8474 17.5287 39.8556 17.5974C38.6685 7.68473 30.2321 6.10352e-05 19.9997 6.10352e-05C14.4768 6.10352e-05 9.47671 2.23873 5.85742 5.85817L17.3905 17.3914H39.8304V17.3913Z" fill="#FB2727"></path>
<path d="M39.8304 22.6087H17.3905L5.85742 34.1418C9.47671 37.7612 14.4768 39.9999 19.9997 39.9999C30.2321 39.9999 38.6686 32.3153 39.8556 22.4026C39.8474 22.4712 39.8392 22.5401 39.8304 22.6087Z" fill="#75BB42"></path>
<path d="M39.9022 21.979C39.8955 22.046 39.8882 22.1128 39.8809 22.1797C39.8882 22.1128 39.8956 22.0461 39.9022 21.979Z" fill="#F3F6F9"></path>
<path d="M39.9482 18.5626C39.9558 18.6695 39.9627 18.7767 39.9685 18.8841C39.9626 18.7767 39.9558 18.6695 39.9482 18.5626Z" fill="black"></path>
<path d="M39.8555 17.5973C39.8645 17.6714 39.873 17.7457 39.8809 17.8201C39.8728 17.7457 39.8643 17.6715 39.8555 17.5973Z" fill="black"></path>
<path d="M39.9023 18.0208C39.9145 18.145 39.9255 18.2694 39.9355 18.3944C39.9256 18.2694 39.9146 18.1449 39.9023 18.0208Z" fill="black"></path>
<path d="M39.9998 19.9999C39.9998 20.152 39.9975 20.3035 39.9941 20.4547C39.9975 20.3034 39.9998 20.1519 39.9998 19.9999Z" fill="black"></path>
<path d="M39.9686 21.1158C39.9626 21.2232 39.9557 21.3304 39.9482 21.4373C39.9557 21.3304 39.9625 21.2232 39.9686 21.1158Z" fill="black"></path>
<path d="M39.9355 21.6057C39.9255 21.7304 39.9145 21.855 39.9023 21.979C39.9146 21.855 39.9256 21.7304 39.9355 21.6057Z" fill="black"></path>
<path d="M39.8809 22.1797C39.873 22.2541 39.8645 22.3283 39.8555 22.4025C39.8643 22.3284 39.8728 22.2541 39.8809 22.1797Z" fill="black"></path>
<path d="M39.9941 19.5451C39.9975 19.6963 39.9998 19.8479 39.9998 19.9998C39.9998 19.8479 39.9975 19.6963 39.9941 19.5451Z" fill="black"></path>
<path d="M39.9746 18.9985C39.9816 19.1417 39.987 19.2853 39.991 19.4292C39.987 19.2853 39.9817 19.1417 39.9746 18.9985Z" fill="black"></path>
<path d="M39.991 20.5708C39.987 20.7147 39.9816 20.8584 39.9746 21.0015C39.9818 20.8583 39.987 20.7147 39.991 20.5708Z" fill="black"></path>
<path d="M39.9804 19.1231H16.6559L4.67488 7.14392C4.28762 7.55236 3.86785 8.12267 3.60824 8.52884L15.066 19.9926L3.59863 31.4601C3.82566 31.864 4.32027 32.4618 4.66754 32.8508L16.6561 20.8623H39.9833C39.9957 20.5738 39.9996 20.2841 39.9996 19.9927C39.9995 19.6023 39.9887 19.3144 39.9804 19.1231Z" fill="#FFDA44"></path>
<path d="M4.85792 24.2633V22.588C6.52964 22.588 7.88956 21.228 7.88956 19.5564C7.88956 18.3737 6.92729 17.4115 5.74464 17.4115C4.93894 17.4115 4.28339 18.067 4.28339 18.8728C4.28339 19.388 4.70253 19.8073 5.21785 19.8073C5.50909 19.8073 5.74605 19.5702 5.74605 19.2789H7.4212C7.4212 20.494 6.43276 21.4824 5.21792 21.4824C3.77894 21.4825 2.6084 20.3117 2.6084 18.873C2.6084 17.1435 4.01543 15.7366 5.74472 15.7366C7.85112 15.7366 9.56487 17.4503 9.56487 19.5566C9.56479 22.1517 7.45331 24.2633 4.85792 24.2633Z" fill="#FFDA44"></path>
</g>
<defs>
<clipPath id="clip0_1_2445">
<rect width="40" height="40" fill="white"></rect>
</clipPath>
</defs>
</svg>