<svg width="40" height="40" viewBox="0 0 40 40" fill="none" xmlns="http://www.w3.org/2000/svg">
<g clip-path="url(#clip0_1_2722)">
<path d="M40.0005 20.0001C40.0005 31.0457 31.0461 40.0001 20.0005 40.0001C8.95486 40.0001 0.000488281 31.0457 0.000488281 20.0001C6.87002 13.1305 12.6961 7.30444 20.0005 6.10352e-05C31.0461 6.10352e-05 40.0005 8.95444 40.0005 20.0001Z" fill="#FB2727"></path>
<path d="M20.0005 20.0001C20.0005 8.95444 20.0005 7.65225 20.0005 6.10352e-05C8.95486 6.10352e-05 0.000488281 8.95444 0.000488281 20.0001H20.0005Z" fill="#0073FD"></path>
<path d="M16.0199 13.0435L16.3437 14.04H17.3914L16.5437 14.6557L16.8676 15.6522L16.0199 15.0363L15.1723 15.6522L15.4961 14.6557L14.6484 14.04H15.6961L16.0199 13.0435Z" fill="#F3F6F9"></path>
<path d="M10.7575 5.21741L11.2971 6.87827H13.0433L11.6305 7.90444L12.1703 9.56522L10.7575 8.53873L9.34473 9.56522L9.88441 7.90444L8.47168 6.87827H10.2178L10.7575 5.21741Z" fill="#F3F6F9"></path>
<path d="M15.9752 6.95642L16.5148 8.61736H18.261L16.8483 9.64353L17.3879 11.3043L15.9752 10.2778L14.5625 11.3043L15.1022 9.64353L13.6895 8.61736H15.4355L15.9752 6.95642Z" fill="#F3F6F9"></path>
<path d="M11.8512 13.913L12.3909 15.5738H14.137L12.7243 16.6L13.2639 18.2608L11.8512 17.2344L10.4385 18.2608L10.9782 16.6L9.56543 15.5738H11.3116L11.8512 13.913Z" fill="#F3F6F9"></path>
<path d="M7.27936 9.56525L7.81904 11.2261H9.56521L8.1524 12.2523L8.69209 13.9131L7.27936 12.8867L5.8667 13.9131L6.40631 12.2523L4.99365 11.2261H6.73975L7.27936 9.56525Z" fill="#F3F6F9"></path>
</g>
<defs>
<clipPath id="clip0_1_2722">
<rect width="40" height="40" fill="white"></rect>
</clipPath>
</defs>
</svg>