<svg width="40" height="40" viewBox="0 0 40 40" fill="none" xmlns="http://www.w3.org/2000/svg">
<g clip-path="url(#clip0_1_2428)">
<path d="M20 39.9999C31.0457 39.9999 40 31.0456 40 19.9999C40 8.95421 31.0457 -9.15527e-05 20 -9.15527e-05C8.9543 -9.15527e-05 0 8.95421 0 19.9999C0 31.0456 8.9543 39.9999 20 39.9999Z" fill="#F3F6F9"></path>
<path d="M20.0002 39.9999C28.5995 39.9999 35.9303 34.5724 38.7562 26.9564H1.24414C4.07 34.5724 11.4009 39.9999 20.0002 39.9999Z" fill="black"></path>
<path d="M20.0002 -9.15527e-05C11.4009 -9.15527e-05 4.07 5.42741 1.24414 13.0434H38.7563C35.9303 5.42741 28.5995 -9.15527e-05 20.0002 -9.15527e-05Z" fill="#FB2727"></path>
</g>
<defs>
<clipPath id="clip0_1_2428">
<rect width="40" height="40" fill="white"></rect>
</clipPath>
</defs>
</svg>