<svg width="40" height="40" viewBox="0 0 40 40" fill="none" xmlns="http://www.w3.org/2000/svg">
<g clip-path="url(#clip0_1_4505)">
<rect width="40" height="40" rx="20" fill="#F3F6F9"></rect>
<path d="M13.0723 19.6937C13.0729 19.6937 13.0735 19.6943 13.0735 19.695C13.0745 20.0084 13.1909 20.3105 13.4004 20.5436C13.6087 20.7753 13.8946 20.9227 14.204 20.9581C14.2078 20.9585 14.2108 20.9618 14.2108 20.9657C14.2108 20.9699 14.2142 20.9733 14.2184 20.9733H25.5769C25.5806 20.9733 25.5835 20.9703 25.5835 20.9667C25.5835 20.9626 25.5872 20.9594 25.5913 20.96C25.6358 20.9669 25.6807 20.9713 25.7257 20.9733C26.0591 20.9643 26.3758 20.8255 26.6084 20.5865C26.841 20.3475 26.9712 20.0272 26.9712 19.6936C26.9712 19.3601 26.841 19.0398 26.6084 18.8008C26.3758 18.5618 26.0591 18.423 25.7257 18.414C25.6829 18.4159 25.6402 18.42 25.5978 18.4262C25.5903 18.4274 25.5835 18.4216 25.5835 18.414C25.5835 18.4064 25.5903 18.4006 25.5978 18.4017C25.6402 18.408 25.6829 18.4121 25.7257 18.414C25.8967 18.4186 26.0669 18.3889 26.2262 18.3267C26.3855 18.2645 26.5307 18.171 26.6533 18.0517C26.7758 17.9324 26.8733 17.7898 26.9398 17.6322C27.0063 17.4746 27.0406 17.3053 27.0406 17.1343C27.0406 16.9633 27.0063 16.794 26.9398 16.6364C26.8733 16.4788 26.7758 16.3362 26.6533 16.2169C26.5307 16.0976 26.3855 16.0041 26.2262 15.9419C26.0669 15.8797 25.8967 15.85 25.7257 15.8546C25.6829 15.8565 25.6402 15.8606 25.5978 15.8669C25.5903 15.868 25.5835 15.8622 25.5835 15.8546C25.5835 15.847 25.5903 15.8412 25.5978 15.8424C25.6402 15.8486 25.6829 15.8527 25.7257 15.8546C25.9732 15.856 26.2157 15.7856 26.424 15.6521C26.6323 15.5185 26.7974 15.3274 26.8993 15.1019C27.0013 14.8765 27.0357 14.6263 26.9984 14.3817C26.9612 14.1371 26.8538 13.9085 26.6893 13.7236C26.5249 13.5388 26.3103 13.4055 26.0717 13.34C25.8331 13.2745 25.5806 13.2796 25.3448 13.3546C25.109 13.4296 24.9 13.5713 24.7431 13.7626C24.6193 13.9136 24.5321 14.0903 24.4873 14.2789C24.4668 14.3654 24.3934 14.4326 24.3046 14.4326C24.2154 14.4326 24.1418 14.3648 24.1216 14.2779C24.0628 14.0253 23.9279 13.7954 23.7334 13.6203C23.4997 13.4101 23.1964 13.2937 22.8821 13.2937C22.5677 13.2937 22.2645 13.4101 22.0308 13.6203C21.8361 13.7956 21.7011 14.0257 21.6424 14.2784C21.6223 14.365 21.549 14.4326 21.4601 14.4326C21.3712 14.4326 21.2979 14.365 21.2778 14.2784C21.2191 14.0257 21.0841 13.7956 20.8894 13.6203C20.6557 13.4101 20.3525 13.2937 20.0381 13.2937C19.7238 13.2937 19.4205 13.4101 19.1869 13.6203C18.9922 13.7955 18.8573 14.0255 18.7986 14.2781C18.7784 14.3649 18.7049 14.4326 18.6158 14.4326C18.5269 14.4326 18.4535 14.3652 18.4331 14.2787C18.3738 14.0268 18.2386 13.7977 18.0441 13.6232C17.8106 13.4139 17.5081 13.2981 17.1945 13.2981C16.8809 13.2981 16.5783 13.4139 16.3448 13.6232C16.1504 13.7976 16.0153 14.0266 15.9559 14.2783C15.9354 14.365 15.8619 14.4326 15.7728 14.4326C15.6837 14.4326 15.6102 14.3651 15.5897 14.2784C15.5468 14.0965 15.4642 13.9255 15.3472 13.7781C15.1976 13.5897 14.9978 13.4474 14.7708 13.3676C14.5439 13.2878 14.299 13.2738 14.0644 13.3272C13.8298 13.3805 13.6151 13.4991 13.445 13.6692C13.2749 13.8393 13.1563 14.0541 13.1029 14.2886C13.0496 14.5232 13.0636 14.7681 13.1434 14.9951C13.2232 15.222 13.3655 15.4218 13.5539 15.5714C13.7385 15.718 13.9601 15.8105 14.1939 15.8389C14.2021 15.8399 14.2083 15.8468 14.2083 15.855C14.2083 15.8632 14.2021 15.8701 14.1939 15.8711C13.8877 15.9081 13.6051 16.0551 13.399 16.2849C13.1896 16.5184 13.0738 16.821 13.0738 17.1346C13.0738 17.4482 13.1896 17.7507 13.399 17.9842C13.6051 18.2141 13.8877 18.3611 14.1939 18.398C14.2021 18.399 14.2083 18.4059 14.2083 18.4142C14.2083 18.4224 14.2021 18.4293 14.1939 18.4303C13.8874 18.4672 13.6046 18.6141 13.398 18.8439C13.1884 19.077 13.072 19.3791 13.071 19.6925C13.071 19.6932 13.0716 19.6937 13.0723 19.6937Z" fill="#1E50A0"></path>
<path d="M27.0041 22.2596C27.0034 22.2596 27.0028 22.259 27.0028 22.2582C27.0018 21.9449 26.8854 21.6428 26.6759 21.4097C26.4676 21.178 26.1817 21.0306 25.8723 20.9952C25.8684 20.9948 25.8655 20.9915 25.8655 20.9876C25.8655 20.9834 25.8621 20.98 25.8579 20.98H14.4994C14.4957 20.98 14.4927 20.983 14.4927 20.9866C14.4927 20.9907 14.4891 20.9939 14.485 20.9932C14.4405 20.9864 14.3956 20.982 14.3505 20.98C14.0171 20.989 13.7004 21.1278 13.4678 21.3668C13.2352 21.6058 13.1051 21.9261 13.1051 22.2597C13.1051 22.5932 13.2352 22.9135 13.4678 23.1525C13.7004 23.3915 14.0171 23.5303 14.3505 23.5393C14.3933 23.5374 14.436 23.5333 14.4784 23.5271C14.4859 23.5259 14.4927 23.5317 14.4927 23.5393C14.4927 23.5469 14.4859 23.5527 14.4784 23.5516C14.436 23.5453 14.3933 23.5412 14.3505 23.5393C14.0171 23.5484 13.7004 23.6871 13.4678 23.9261C13.2352 24.1651 13.1051 24.4855 13.1051 24.819C13.1051 25.1525 13.2352 25.4728 13.4678 25.7118C13.7004 25.9508 14.0171 26.0896 14.3505 26.0987C14.3933 26.0967 14.436 26.0927 14.4784 26.0864C14.4859 26.0853 14.4927 26.0911 14.4927 26.0987C14.4927 26.1063 14.4859 26.1121 14.4784 26.1109C14.436 26.1047 14.3933 26.1006 14.3505 26.0987C14.1031 26.0973 13.8606 26.1676 13.6523 26.3012C13.444 26.4348 13.2789 26.6259 13.1769 26.8514C13.075 27.0768 13.0406 27.327 13.0778 27.5716C13.1151 27.8162 13.2225 28.0448 13.3869 28.2297C13.5514 28.4145 13.7659 28.5478 14.0045 28.6133C14.2431 28.6788 14.4956 28.6737 14.7314 28.5987C14.9672 28.5237 15.1762 28.382 15.3331 28.1906C15.4569 28.0398 15.5441 27.8632 15.5889 27.6747C15.6094 27.5881 15.683 27.5207 15.772 27.5207C15.8612 27.5207 15.9348 27.5883 15.9553 27.6751C16.0147 27.9268 16.1498 28.1557 16.3442 28.3301C16.5776 28.5394 16.8802 28.6552 17.1938 28.6552C17.5074 28.6552 17.81 28.5394 18.0434 28.3301C18.238 28.1556 18.3731 27.9265 18.4325 27.6746C18.4529 27.5881 18.5262 27.5207 18.6151 27.5207C18.7043 27.5207 18.7777 27.5884 18.7979 27.6752C18.8567 27.9278 18.9916 28.1578 19.1862 28.333C19.4199 28.5432 19.7231 28.6596 20.0375 28.6596C20.3518 28.6596 20.6551 28.5432 20.8887 28.333C21.0834 28.1578 21.2184 27.9277 21.2771 27.675C21.2972 27.5883 21.3706 27.5207 21.4595 27.5207C21.5485 27.5207 21.6219 27.5883 21.642 27.675C21.7007 27.9277 21.8356 28.1578 22.0303 28.333C22.264 28.5432 22.5672 28.6596 22.8816 28.6596C23.196 28.6596 23.4992 28.5432 23.7329 28.333C23.9275 28.1578 24.0624 27.9279 24.1211 27.6753C24.1413 27.5884 24.2148 27.5207 24.304 27.5207C24.3929 27.5207 24.4662 27.588 24.4866 27.6746C24.5296 27.8566 24.6122 28.0277 24.7293 28.1752C24.8789 28.3636 25.0786 28.5059 25.3056 28.5857C25.5326 28.6655 25.7775 28.6795 26.012 28.6261C26.2466 28.5728 26.4614 28.4542 26.6315 28.2841C26.8016 28.114 26.9202 27.8992 26.9735 27.6646C27.0269 27.4301 27.0129 27.1852 26.9331 26.9582C26.8533 26.7313 26.711 26.5315 26.5225 26.3819C26.3379 26.2353 26.1164 26.1428 25.8825 26.1144C25.8743 26.1134 25.8681 26.1065 25.8681 26.0983C25.8681 26.0901 25.8743 26.0831 25.8825 26.0822C26.1887 26.0452 26.4713 25.8982 26.6775 25.6684C26.8868 25.4349 27.0026 25.1323 27.0026 24.8187C27.0026 24.5051 26.8868 24.2026 26.6775 23.9691C26.4713 23.7392 26.1887 23.5922 25.8825 23.5553C25.8743 23.5543 25.8681 23.5474 25.8681 23.5391C25.8681 23.5309 25.8743 23.524 25.8825 23.523C26.189 23.4861 26.4719 23.3392 26.6785 23.1094C26.888 22.8763 27.0044 22.5743 27.0054 22.2609C27.0054 22.2602 27.0048 22.2596 27.0041 22.2596Z" fill="#D22F27"></path>
<path d="M20.0384 18.5659C19.5161 18.5564 19.0136 18.3647 18.6178 18.0238C18.3366 17.7816 18.1218 17.475 17.9899 17.1331C17.9576 17.0492 17.8289 17.0573 17.8288 17.1472C17.815 17.446 17.8619 17.7445 17.9668 18.0247C18.0716 18.3048 18.2322 18.5608 18.4388 18.7771C18.6454 18.9935 18.8937 19.1657 19.1687 19.2833C19.4438 19.401 19.7398 19.4616 20.0389 19.4616C20.3381 19.4616 20.6341 19.401 20.9091 19.2833C21.1842 19.1657 21.4325 18.9935 21.6391 18.7771C21.8457 18.5608 22.0062 18.3048 22.1111 18.0247C22.2159 17.7445 22.2629 17.446 22.2491 17.1472C22.249 17.0574 22.1203 17.0493 22.088 17.1331C21.9561 17.475 21.7414 17.7816 21.4602 18.0238C21.0644 18.3647 20.5618 18.5564 20.0395 18.5659H20.0384Z" fill="white" stroke="#F3F6F9" stroke-width="0.7413" stroke-linecap="round" stroke-linejoin="round"></path>
<path d="M17.6506 22.2881C17.7387 22.2881 17.8233 22.3231 17.8856 22.3855C17.948 22.4478 17.983 22.5324 17.983 22.6205V25.2804C17.983 25.3241 17.9744 25.3673 17.9577 25.4077C17.941 25.448 17.9165 25.4846 17.8856 25.5155C17.8548 25.5464 17.8181 25.5709 17.7778 25.5876C17.7374 25.6043 17.6942 25.6129 17.6506 25.6129C17.6069 25.6129 17.5637 25.6043 17.5233 25.5876C17.483 25.5709 17.4464 25.5464 17.4155 25.5155C17.3846 25.4846 17.3601 25.448 17.3434 25.4077C17.3267 25.3673 17.3181 25.3241 17.3181 25.2804V22.6205C17.3181 22.5324 17.3531 22.4478 17.4155 22.3855C17.4778 22.3231 17.5624 22.2881 17.6506 22.2881Z" fill="#F1B31C"></path>
<path d="M16.2135 23.1155C16.2353 23.0777 16.2644 23.0445 16.299 23.0179C16.3337 22.9914 16.3732 22.9719 16.4154 22.9605C16.4575 22.9492 16.5015 22.9464 16.5448 22.9521C16.5881 22.9578 16.6298 22.9719 16.6677 22.9938L18.9713 24.3237C19.0477 24.3678 19.1034 24.4404 19.1262 24.5255C19.149 24.6107 19.1371 24.7014 19.0931 24.7778C19.0712 24.8156 19.0422 24.8487 19.0075 24.8753C18.9729 24.9019 18.9334 24.9214 18.8912 24.9327C18.849 24.944 18.805 24.9469 18.7617 24.9412C18.7185 24.9355 18.6767 24.9213 18.6389 24.8995L16.3352 23.5695C16.2974 23.5477 16.2642 23.5187 16.2377 23.484C16.2111 23.4494 16.1916 23.4098 16.1803 23.3677C16.169 23.3255 16.1661 23.2815 16.1718 23.2382C16.1775 23.1949 16.1917 23.1533 16.2135 23.1155Z" fill="#F1B31C"></path>
<path d="M16.2135 24.7788C16.1694 24.7024 16.1575 24.6117 16.1803 24.5265C16.2031 24.4414 16.2588 24.3688 16.3351 24.3247L18.6388 22.9947C18.6766 22.9729 18.7183 22.9587 18.7616 22.953C18.8049 22.9473 18.8489 22.9502 18.8911 22.9615C18.9333 22.9728 18.9728 22.9923 19.0074 23.0189C19.0421 23.0455 19.0711 23.0786 19.0929 23.1165C19.137 23.1928 19.149 23.2835 19.1262 23.3687C19.1033 23.4538 19.0477 23.5264 18.9713 23.5705L16.6676 24.9005C16.6298 24.9223 16.5881 24.9365 16.5448 24.9422C16.5015 24.9479 16.4575 24.945 16.4153 24.9337C16.3732 24.9224 16.3336 24.9029 16.299 24.8763C16.2644 24.8497 16.2353 24.8166 16.2135 24.7788Z" fill="#F1B31C"></path>
<path d="M22.426 22.2881C22.5141 22.2881 22.5987 22.3231 22.661 22.3855C22.7234 22.4478 22.7584 22.5324 22.7584 22.6205V25.2804C22.7584 25.3241 22.7498 25.3673 22.7331 25.4077C22.7164 25.448 22.6919 25.4846 22.661 25.5155C22.6302 25.5464 22.5935 25.5709 22.5532 25.5876C22.5128 25.6043 22.4696 25.6129 22.426 25.6129C22.3823 25.6129 22.3391 25.6043 22.2987 25.5876C22.2584 25.5709 22.2217 25.5464 22.1909 25.5155C22.16 25.4846 22.1355 25.448 22.1188 25.4077C22.1021 25.3673 22.0935 25.3241 22.0935 25.2804V22.6205C22.0935 22.5324 22.1285 22.4478 22.1909 22.3855C22.2532 22.3231 22.3378 22.2881 22.426 22.2881Z" fill="#F1B31C"></path>
<path d="M20.9785 23.1154C21.0226 23.0391 21.0952 22.9834 21.1803 22.9606C21.2655 22.9377 21.3562 22.9497 21.4326 22.9937L23.7363 24.3237C23.8126 24.3678 23.8683 24.4404 23.8912 24.5255C23.914 24.6107 23.902 24.7014 23.858 24.7777C23.8362 24.8156 23.8071 24.8487 23.7725 24.8753C23.7378 24.9019 23.6983 24.9214 23.6561 24.9327C23.6139 24.944 23.57 24.9469 23.5267 24.9412C23.4834 24.9355 23.4416 24.9213 23.4038 24.8995L21.1011 23.5695C21.0633 23.5477 21.0301 23.5186 21.0035 23.484C20.977 23.4493 20.9574 23.4098 20.9461 23.3676C20.9348 23.3255 20.932 23.2815 20.9377 23.2382C20.9434 23.1949 20.9567 23.1533 20.9785 23.1154Z" fill="#F1B31C"></path>
<path d="M20.9781 24.7787C20.934 24.7024 20.9221 24.6116 20.9449 24.5265C20.9678 24.4413 21.0235 24.3687 21.0998 24.3247L23.4035 22.9947C23.4799 22.9506 23.5706 22.9387 23.6557 22.9615C23.7409 22.9844 23.8135 23.0401 23.8576 23.1164C23.8794 23.1542 23.8936 23.196 23.8993 23.2393C23.905 23.2825 23.9021 23.3265 23.8908 23.3687C23.8795 23.4109 23.86 23.4504 23.8334 23.4851C23.8068 23.5197 23.7737 23.5488 23.7359 23.5706L21.4331 24.9005C21.3953 24.9224 21.3535 24.9365 21.3103 24.9422C21.267 24.9479 21.223 24.945 21.1808 24.9337C21.1386 24.9224 21.0991 24.9029 21.0645 24.8764C21.0298 24.8498 20.9999 24.8165 20.9781 24.7787Z" fill="#F1B31C"></path>
<path d="M33.893 23.5652C33.8929 23.5654 33.8931 23.5657 33.8934 23.5656C35.2709 22.9677 36.4247 21.2434 36.7254 20.8741C37.4679 19.9609 38.2105 16.3654 35.7498 14.0269C35.3991 13.7027 35.0054 13.4284 34.5796 13.2119C33.5794 12.685 32.9954 12.5238 32.6545 12.5153C32.3048 12.5065 32.4508 12.8105 32.7488 12.9937C32.9231 13.1009 33.0727 13.2438 33.1877 13.4131C33.693 14.0349 33.1876 14.0349 32.1763 14.6566C31.165 15.2784 31.6708 16.5223 31.165 17.1436C30.6592 17.7653 30.1537 17.7653 30.6596 18.3871C31.1651 19.0088 32.8045 17.4115 32.8045 17.4115C32.8063 17.41 32.8089 17.4101 32.8107 17.4117C33.0509 17.6342 33.365 17.7601 33.6926 17.7651C34.1072 17.722 34.4909 17.5258 34.7685 17.2148C35.0121 16.9419 35.1587 16.5978 35.1881 16.2359C35.1949 16.1528 35.2655 16.0828 35.3409 16.1184C35.387 16.1403 35.428 16.1715 35.4613 16.2102C35.9655 16.8304 35.5116 18.2131 31.9479 19.9275C27.333 22.1475 27.5492 26.5961 27.8265 28.3076C27.8939 28.7261 28.032 29.1301 28.2349 29.5022C28.3669 29.7439 28.5021 29.978 28.6378 30.1999C29.0996 31.0661 29.7933 31.7866 30.6414 32.2808C31.4895 32.775 32.4585 33.0233 33.4397 32.998C35.5056 32.998 37.1862 30.965 37.2294 28.4367C37.2303 28.3759 37.2242 28.3161 37.2208 28.2557C37.1229 30.379 35.6962 32.0651 33.9452 32.0651C33.8861 32.0651 33.8284 32.0579 33.7702 32.0542C33.7211 32.0521 33.6725 32.0509 33.6237 32.0452C31.9601 31.8463 30.6602 30.1222 30.6602 28.0234C30.6974 27.0437 31.0245 26.097 31.6001 25.3032C32.1755 24.5097 32.9733 23.9047 33.8927 23.5648C33.8929 23.5647 33.8932 23.565 33.893 23.5652Z" fill="#9B9B9A" stroke="#9B9B9A" stroke-width="0.7413" stroke-linecap="round" stroke-linejoin="round"></path>
<path d="M6.16505 23.5652C6.16502 23.5656 6.16466 23.5658 6.16433 23.5656C4.78674 22.9678 3.63286 21.2434 3.33214 20.8741C2.58972 19.9609 1.8471 16.3654 4.30776 14.0269C4.65845 13.7027 5.05223 13.4284 5.47793 13.2119C6.47821 12.685 7.06216 12.5238 7.40307 12.5153C7.75273 12.5065 7.60678 12.8105 7.30882 12.9937C7.13447 13.1009 6.98488 13.2438 6.86992 13.4131C6.36454 14.0349 6.86992 14.0349 7.88125 14.6566C8.89258 15.2784 8.38673 16.5223 8.89258 17.1436C9.39796 17.7653 9.90391 17.7653 9.39806 18.3871C8.89268 19.0088 7.25321 17.4115 7.25321 17.4115C7.25138 17.41 7.24872 17.4101 7.24698 17.4117C7.00674 17.6342 6.69265 17.7601 6.3651 17.7651C5.95046 17.722 5.56679 17.5258 5.28918 17.2148C5.04555 16.9419 4.89898 16.5978 4.86952 16.2359C4.86276 16.1528 4.79217 16.0828 4.71679 16.1185C4.67068 16.1403 4.62966 16.1715 4.5964 16.2102C4.09214 16.8304 4.54618 18.2131 8.10974 19.9275C12.7246 22.1475 12.5085 26.5961 12.2312 28.3076C12.1638 28.7261 12.0257 29.1301 11.8228 29.5022C11.6908 29.7439 11.5556 29.978 11.4199 30.1999C10.9581 31.0661 10.2643 31.7866 9.41623 32.2808C8.56813 32.775 7.59919 33.0233 6.61793 32.998C4.55204 32.998 2.8715 30.965 2.82826 28.4367C2.82723 28.3759 2.83343 28.3161 2.83691 28.2557C2.93513 30.379 4.36237 32.0651 6.11246 32.0651C6.1715 32.0651 6.22919 32.0579 6.28746 32.0542C6.33653 32.0521 6.38521 32.0509 6.4339 32.0452C8.09752 31.8463 9.39834 30.1222 9.39834 28.0234C9.36111 27.0437 9.034 26.097 8.45844 25.3032C7.88302 24.5097 7.08512 23.9047 6.16573 23.5648C6.16541 23.5646 6.16507 23.5649 6.16505 23.5652Z" fill="#9B9B9A" stroke="#9B9B9A" stroke-width="0.7413" stroke-linecap="round" stroke-linejoin="round"></path>
<path d="M3.31763 22.5135C2.89862 21.9089 1.45287 19.7493 1.40963 18.6675C1.41305 18.6116 1.39538 18.5565 1.36009 18.513C1.29044 18.4272 1.16336 18.4353 1.05341 18.424C0.875977 18.4058 0.702235 18.3593 0.5389 18.2858C0.324984 18.1897 0.133708 18.0495 -0.0224887 17.8746C-0.141104 17.7201 -0.35164 17.8022 -0.36978 18.0134C-0.491591 19.4383 -0.387441 22.5399 2.60782 23.6001C2.64681 23.6126 2.6888 23.6118 2.72733 23.598C2.76586 23.5843 2.7988 23.5582 2.82108 23.5239L3.31349 22.8364C3.34625 22.7891 3.36413 22.733 3.36484 22.6754C3.36554 22.6178 3.34922 22.5617 3.31763 22.5135Z" fill="#3F3F3F"></path>
<path d="M36.6842 22.5135C37.1032 21.9089 38.549 19.7493 38.5922 18.6675C38.5888 18.6116 38.6065 18.5565 38.6417 18.513C38.7114 18.4272 38.8385 18.4353 38.9484 18.424C39.1259 18.4058 39.2996 18.3593 39.4629 18.2858C39.6768 18.1897 39.8681 18.0495 40.0243 17.8746C40.1429 17.7201 40.3535 17.8022 40.3716 18.0134C40.4934 19.4383 40.3893 22.5399 37.394 23.6001C37.355 23.6125 37.3131 23.6118 37.2746 23.598C37.236 23.5842 37.2031 23.5582 37.1808 23.5239L36.6888 22.8364C36.656 22.7891 36.638 22.7331 36.6372 22.6755C36.6364 22.6179 36.6527 22.5617 36.6842 22.5135Z" fill="#3F3F3F"></path>
<path d="M4 6L36 6" stroke="#D22F27" stroke-width="2.997" stroke-linecap="round" stroke-linejoin="round"></path>
</g>
<defs>
<clipPath id="clip0_1_4505">
<rect width="40" height="40" rx="20" fill="white"></rect>
</clipPath>
</defs>
</svg>