<svg width="40" height="40" viewBox="0 0 40 40" fill="none" xmlns="http://www.w3.org/2000/svg">
<g clip-path="url(#clip0_3546_141938)">
<path d="M20.0002 40C31.0459 40 40.0003 31.0457 40.0003 20C40.0003 8.9543 31.0459 0 20.0002 0C8.95455 0 0.000244141 8.9543 0.000244141 20C0.000244141 31.0457 8.95455 40 20.0002 40Z" fill="#F3F6F9"></path>
<path d="M5.85785 34.1423C-1.95262 26.3317 -1.95262 13.6685 5.85785 5.85791C5.8573 5.85877 17.3914 20.0001 17.3914 20.0001L5.85785 34.1423Z" fill="black"></path>
<path d="M17.3915 20L2.6527 10.04C2.19575 10.8343 1.79278 11.6634 1.44653 12.5215L8.90817 20L1.44677 27.4789C1.79271 28.3364 2.19528 29.165 2.65192 29.9587L17.3915 20Z" fill="#FFDA44"></path>
<path d="M39.8308 17.3911H17.3908L5.85771 5.85791C4.6149 7.10072 3.53514 8.50627 2.65264 10.0399L12.5932 19.9998L2.65186 29.9584C3.53436 31.4924 4.61459 32.8985 5.85771 34.1416L17.3908 22.6085H39.8308C39.9419 21.7545 40.0001 20.8839 40.0001 19.9998C40.0001 19.1156 39.9419 18.245 39.8308 17.3911Z" fill="#75BB42"></path>
<path d="M7.82324 35.8653C11.1958 38.4576 15.4175 39.9999 20 39.9999C29.2405 39.9999 37.016 33.7326 39.311 25.2173H18.4713L7.82324 35.8653Z" fill="#0073FD"></path>
<path d="M39.311 14.7826C37.016 6.26727 29.2405 0 20 0C15.4175 0 11.1958 1.54227 7.82324 4.13461L18.4712 14.7826H39.311Z" fill="#FB2727"></path>
</g>
<defs>
<clipPath id="clip0_3546_141938">
<rect width="40" height="40" fill="white"></rect>
</clipPath>
</defs>
</svg>