<svg width="40" height="40" viewBox="0 0 40 40" fill="none" xmlns="http://www.w3.org/2000/svg">
<g clip-path="url(#clip0_1_2420)">
<path d="M20 40.0001C31.0457 40.0001 40 31.0458 40 20.0001C40 8.95437 31.0457 6.10352e-05 20 6.10352e-05C8.9543 6.10352e-05 0 8.95437 0 20.0001C0 31.0458 8.9543 40.0001 20 40.0001Z" fill="#496E2D"></path>
<path d="M27.8261 20H20V40C22.3378 40 24.5813 39.5975 26.6666 38.8604L27.8261 20Z" fill="#FB2727"></path>
<path d="M33.3332 34.9057C37.4244 31.2436 39.9999 25.9229 39.9999 20H32.1738L33.3332 34.9057Z" fill="#FF9811"></path>
<path d="M26.666 20V38.8604C29.1502 37.9822 31.4091 36.6276 33.3327 34.9058V20H26.666Z" fill="black"></path>
<path d="M36.9561 13.0435H31.7387C31.7387 12.0831 30.96 11.3044 29.9995 11.3044C29.0391 11.3044 28.2604 12.0831 28.2604 13.0435H23.043C23.043 14.0041 23.8796 14.7827 24.84 14.7827H24.7821C24.7821 15.7432 25.5606 16.5218 26.5213 16.5218C26.5213 17.4824 27.2998 18.2609 28.2604 18.2609H31.7387C32.6991 18.2609 33.4778 17.4824 33.4778 16.5218C34.4383 16.5218 35.217 15.7432 35.217 14.7827H35.1591C36.1195 14.7826 36.9561 14.004 36.9561 13.0435Z" fill="#FF9811"></path>
</g>
<defs>
<clipPath id="clip0_1_2420">
<rect width="40" height="40" fill="white"></rect>
</clipPath>
</defs>
</svg>