<svg width="40" height="40" viewBox="0 0 40 40" fill="none" xmlns="http://www.w3.org/2000/svg">
<g clip-path="url(#clip0_1_2405)">
<path d="M20 40.0001C31.0457 40.0001 40 31.0458 40 20.0001C40 8.95443 31.0457 0.00012207 20 0.00012207C8.95431 0.00012207 0 8.95443 0 20.0001C0 31.0458 8.95431 40.0001 20 40.0001Z" fill="#F3F6F9"></path>
<path d="M38.0854 11.4534C37.0693 9.30698 35.6825 7.37081 34.0075 5.72667L19.9997 4.34784L5.99187 5.72675C5.94719 5.77057 5.90359 5.81542 5.85938 5.85971L11.4531 11.4535L19.9997 11.7145L38.0854 11.4534Z" fill="#FFDA44"></path>
<path d="M5.85938 34.1406C5.93297 34.2142 6.00641 34.2879 6.08109 34.3604L19.9999 35.6522L33.9186 34.3604C35.6109 32.7197 37.0146 30.7834 38.045 28.6336L12.1737 27.8261C9.94773 30.0522 7.38023 32.6196 5.85938 34.1406Z" fill="#FFDA44"></path>
<path d="M39.8009 17.1801L16.5215 16.5217L19.9998 20C18.9695 21.0302 17.4316 22.5682 16.5215 23.4783L39.7887 22.9069C39.927 21.9577 39.9998 20.9874 39.9998 20C39.9998 19.0426 39.931 18.1015 39.8009 17.1801Z" fill="black"></path>
<path d="M20 3.05176e-05C14.5447 3.05176e-05 9.60047 2.18519 5.99219 5.72675H34.0078C30.3995 2.18519 25.4553 3.05176e-05 20 3.05176e-05Z" fill="#75BB42"></path>
<path d="M17.1798 17.1801H39.8009C39.5155 15.1583 38.9283 13.2338 38.0855 11.4534H11.4531L17.1798 17.1801Z" fill="#FB2727"></path>
<path d="M11.3662 28.6337H38.045C38.8976 26.8546 39.4942 24.9298 39.7888 22.907H17.0929C14.8752 25.1247 12.9957 27.0042 11.3662 28.6337Z" fill="#FB2727"></path>
<path d="M19.9997 40C25.4103 40 30.3181 37.8506 33.9184 34.3603H6.08105C9.68137 37.8506 14.5892 40 19.9997 40Z" fill="#75BB42"></path>
<path d="M7.14141 4.68237C6.6968 5.05597 6.26781 5.44761 5.85742 5.85784L19.9996 20L5.85742 34.1422C6.26773 34.5525 6.6968 34.9441 7.14141 35.3177L22.4591 20L7.14141 4.68237Z" fill="black"></path>
<path d="M8.04144 14.7826L9.33637 18.7682H13.5274L10.1369 21.2317L11.4319 25.2174L8.04144 22.7541L4.6509 25.2174L5.94605 21.2317L2.55566 18.7682H6.74644L8.04144 14.7826Z" fill="#FB2727"></path>
<path d="M11.6034 20.3261L8.22855 19.1305C8.22855 19.1305 7.97918 16.7912 7.9641 16.7119C7.84957 16.1085 7.31933 15.6522 6.68262 15.6522C5.9623 15.6522 5.37824 16.2362 5.37824 16.9566C5.37824 17.076 5.39566 17.1911 5.42574 17.3011L4.47949 18.2537H6.16199C6.16199 20 4.85887 20 4.85887 21.7392L5.58176 23.4783H9.92957L10.6543 21.7392H10.6539C10.7265 21.5723 10.7706 21.4002 10.7888 21.2282C11.4135 20.9756 11.6034 20.3261 11.6034 20.3261Z" fill="#FFDA44"></path>
</g>
<defs>
<clipPath id="clip0_1_2405">
<rect width="40" height="40" fill="white"></rect>
</clipPath>
</defs>
</svg>