<svg xmlns="http://www.w3.org/2000/svg" viewBox="0 0 120 120" fill="none">
  <g id="doc">
    <path fill="var(--a, blue)"
      d="M9.48 81.072c.888 0 1.776-.048 2.688-.048l6.744-.168 9.888-.24 11.928-.288 13.08-.336 13.2-.336 12.336-.312 10.464-.264 7.608-.192c1.248-.024 2.496-.072 3.744-.096h.216c.096 0-.288-.288-.312-.288-.144-.12-.456-.36-.648-.36-.888 0-1.776.048-2.664.048l-6.744.168-9.888.24-11.928.288-13.08.336-13.2.336-12.336.312-10.464.264-7.632.192c-1.248.024-2.496.048-3.744.096H8.52c-.096 0 .288.288.312.288.144.096.432.36.648.36Z" />
    <path fill="var(--c, black)"
      d="M72.48 85.92c-.168.504-4.656 7.296-4.2 8.28.456.984 14.76 4.536 15.984 4.584 1.224.048 7.704-7.752 7.128-8.544-.576-.792-18.912-4.32-18.912-4.32Z" />
    <path fill="var(--c, black)"
      d="M71.904 85.848s.024-.072-.024.024l-.072.144c-.072.144-.168.288-.264.432l-.792 1.32c-.672 1.128-1.368 2.256-1.968 3.432a18.567 18.567 0 0 0-.744 1.56c-.168.36-.288.744-.336 1.128-.024.6.648.84 1.104 1.032 2.064.888 4.296 1.464 6.456 2.04 2.352.648 4.728 1.248 7.104 1.752a12.65 12.65 0 0 0 1.944.36c.768.048 1.44-.6 1.968-1.104a27.204 27.204 0 0 0 2.544-2.712 33.72 33.72 0 0 0 2.28-2.976c.264-.36.48-.768.696-1.152.12-.24.288-.552.216-.84-.12-.432-.864-.6-1.224-.72-1.872-.6-3.816-.984-5.736-1.416a423.33 423.33 0 0 0-7.56-1.584l-4.728-.936-.24-.048c-.192 0-.6.024-.624.264-.048.24.36.36.528.384 1.08.216 2.16.408 3.216.624 1.08.216 2.16.432 3.288.648l1.824.36.936.192.84.168c2.184.456 4.392.936 6.552 1.512.36.096.72.192 1.08.312l.408.144.168.048c-.168-.048-.024-.024.048.024l.12.048c.072.048.096.048 0 0 .072.048.024.024-.024-.024l.024.024-.024-.024v.048c0 .048-.024.12-.024.168-.024.12-.096.24-.144.36a15.876 15.876 0 0 1-1.68 2.52 41.604 41.604 0 0 1-2.496 2.952 11.892 11.892 0 0 1-2.136 1.968l-.192.12c-.072.048-.024.024-.024 0a.18.18 0 0 0-.096.048c-.048.048 0-.024-.024 0 .168-.024.12 0 .072 0 .024 0 .192.024.096 0-.24-.048-.456-.072-.696-.12-.168-.024-.336-.072-.504-.096h-.024l-.144-.024-.336-.072c-.504-.12-.984-.216-1.464-.336-1.2-.288-2.4-.576-3.6-.888-2.352-.6-4.68-1.224-6.984-2.04l-.312-.12-.144-.048-.048-.024c-.168-.072-.336-.12-.504-.216-.168-.096-.264-.12-.408-.192l-.096-.048c-.096-.048.048.048.024 0l-.12-.072c-.096-.072.024.048 0 0-.072-.096-.024.048 0 0 0-.024-.024-.048-.024-.048v-.024c0-.072 0-.144.024-.216a4.89 4.89 0 0 1 .408-1.128c.96-2.136 2.28-4.104 3.456-6.12.144-.216.264-.432.336-.648.096-.36-1.032-.576-1.176-.144ZM31.29 85.32c.288.456 6.36 6 6.096 7.08-.264 1.08-14.112 7.992-15.36 8.328-1.248.336-9.576-5.736-9.144-6.648.432-.912 18.408-8.76 18.408-8.76Z" />
    <path fill="var(--c, black)"
      d="M30.768 85.416c.168.24.36.432.576.624l1.08 1.08c.936.936 1.872 1.872 2.784 2.856.384.408.816.912 1.104 1.296.144.168.264.36.36.552.048.072.072.144.12.24.024.024.048.144.024.024 0 .024.024.048.024.096s0 .048.024.096c.024.096.024-.048 0-.024v.048c0-.12.048-.048.024-.048s-.048.072-.048.072l.024-.024-.048.048a7.808 7.808 0 0 1-.696.552l-1.056.672c-.48.288-.96.576-1.44.84-1.128.648-2.28 1.248-3.432 1.872a170.352 170.352 0 0 1-6.624 3.312c-.36.168-.696.336-1.056.48l-.384.168c-.072.024-.36.12-.144.072l-.096.024h.072c-.096 0 .168.024.024 0-.048 0-.216-.048-.12-.024s-.024 0-.048-.024l-.144-.048a3.828 3.828 0 0 1-.552-.24l-.072-.024-.168-.096-.336-.192a30.66 30.66 0 0 1-3.216-2.088 26.076 26.076 0 0 1-2.856-2.304 4.53 4.53 0 0 1-.48-.48l-.192-.216-.072-.096c-.072-.072.048.072-.024-.024-.048-.048-.072-.12-.12-.168-.024-.024-.024-.048-.048-.072-.048-.072.048.024 0 .024s.048-.216-.024-.024c.024-.096-.048.096 0 .024s-.096.072-.024.024l.072-.072c.072-.072.168-.12.24-.168.144-.096-.048.024.072-.048.072-.024.12-.072.192-.12l.432-.24c1.848-1.008 3.792-1.896 5.712-2.784a365.573 365.573 0 0 1 6.984-3.168c1.44-.648 2.88-1.272 4.344-1.92l.216-.096c.168-.072.264-.264.192-.432-.024-.048-.048-.096-.096-.12a.744.744 0 0 0-.792-.144c-1.08.48-2.16.96-3.264 1.44-2.304 1.032-4.608 2.064-6.912 3.12-2.16.96-4.296 1.944-6.408 3.048-.6.288-1.2.624-1.752 1.008a.86.86 0 0 0-.36.456c-.048.312.192.624.384.864.648.84 1.536 1.512 2.352 2.16 1.08.84 2.184 1.656 3.336 2.376.888.576 1.824 1.176 2.832 1.536.336.144.72.192 1.08.12.24-.072.504-.168.744-.288 2.04-.864 4.008-1.896 5.976-2.88 2.304-1.176 4.608-2.376 6.816-3.72.624-.384 1.344-.768 1.872-1.296a.71.71 0 0 0 .264-.696 2.4 2.4 0 0 0-.552-1.032 26.55 26.55 0 0 0-2.544-2.904c-.84-.864-1.728-1.704-2.568-2.592l-.36-.36c-.048-.048-.072-.096-.12-.12-.096-.12.048.072 0 0a.697.697 0 0 0-.744-.288c-.264.024-.504.24-.36.48Z" />
    <path fill="var(--b, white)"
      d="m79.41 84.912 11.478 6.792s-14.832 8.664-15.192 8.304c-.36-.36-6.96 1.104-6.96 1.104l-8.4-6.6 19.08-9.6Z" />
    <path fill="var(--a, blue)"
      d="m79.218 85.32 3.888 2.304 6.168 3.648 1.416.84-.168-.84c-.912.528-1.8 1.056-2.712 1.56-1.896 1.104-3.816 2.184-5.712 3.264a138.42 138.42 0 0 1-5.256 2.856l-.84.408a1.2 1.2 0 0 1-.312.12l-.12.048c.096-.048.12-.048 0 0-.024 0-.048 0-.072.024.048-.048.264.024.36.072.216.096.144.048-.048-.024a.48.48 0 0 0-.264-.072 4.02 4.02 0 0 0-1.2.024 57.984 57.984 0 0 0-5.76 1.08l-.144.024.576.144-2.832-2.232-4.512-3.552-1.056-.816.024.768 1.896-.96 4.56-2.304 5.496-2.76 4.776-2.4c.768-.384 1.56-.744 2.304-1.152l.024-.024c.624-.312-.216-1.128-.72-.864l-1.896.96-4.56 2.304-5.496 2.76-4.776 2.4c-.768.384-1.56.744-2.304 1.152h.048c-.336.168-.216.576.024.768l5.88 4.608c.816.648 1.632 1.32 2.472 1.944.384.288.672.168 1.08.096a57.3 57.3 0 0 1 1.968-.408c.84-.168 1.68-.336 2.52-.48l1.056-.144.216-.024c-.144.024.048 0 .072 0h.312c.096 0-.144-.024-.024 0s-.24-.12-.192-.096c.144.096.312.144.48.168.12 0 .24-.024.36-.048.36-.12.72-.264 1.056-.456 2.664-1.296 5.232-2.808 7.8-4.272 2.04-1.152 4.08-2.328 6.096-3.528l.096-.048c.408-.24.144-.672-.168-.84l-3.888-2.304-6.168-3.648-1.416-.84c-.216-.12-.624-.096-.744.144s.096.528.336.648Z" />
    <path fill="var(--b, white)"
      d="m72.306 97.944 3.408 2.04s-6.984 1.752-6.96 1.104c.024-.648 3.552-3.144 3.552-3.144Z" />
    <path fill="var(--a, blue)"
      d="m72.57 98.28 3.414 2.04-.72-.72c-1.512.384-3.03.72-4.56 1.008-.72.168-1.47.24-2.19.216h-.018c-.03 0 .738.672.738.672s.03-.072.03-.12c.072-.144.168-.264.288-.384.33-.36.72-.696 1.098-1.008a45.108 45.108 0 0 1 2.118-1.632c.048-.048-.72-.936-.918-.792-.696.48-1.338 1.008-1.986 1.536a10.38 10.38 0 0 0-1.2 1.104c-.12.12-.24.264-.312.432-.078.168 0 .24.12.384.312.36.666.672 1.146.672.414 0 .798-.048 1.182-.12 1.098-.168 2.184-.408 3.264-.648l2.112-.504c.048 0-.216-.312-.216-.312a2.088 2.088 0 0 0-.504-.408l-3.414-2.04c-.162-.096-.21-.048-.09.12.162.192.384.36.618.504Z" />
    <path fill="var(--b, white)"
      d="m27.456 87.168 4.272 7.872s-14.904 1.68-14.952 1.32c-.048-.36-5.4-1.224-5.4-1.224L9.12 88.272l18.336-1.104Z" />
    <path fill="var(--a, blue)"
      d="m26.898 87.336 3.744 6.912.528.96.48-.696c-2.712.312-5.424.6-8.136.864-1.728.168-3.456.336-5.208.456-.288.024-.552.024-.84.048h-.48c-.12 0 .048-.024.072 0-.048 0-.096-.024-.144-.024-.072.024.192.072.096.024.168.072.312.216.336.408a.534.534 0 0 0-.12-.264 1.614 1.614 0 0 0-.744-.408c-1.632-.504-3.36-.744-5.04-1.032l.48.336-1.968-6-.288-.864-.48.696 6.192-.36 9.864-.6 2.28-.144c.288 0 .528-.24.528-.528v-.024a.628.628 0 0 0-.672-.48l-6.192.36-9.864.624-2.28.144a.492.492 0 0 0-.504.504c0 .072 0 .12.024.192l1.944 6.024.288.864a.593.593 0 0 0 .48.336c1.488.24 2.976.48 4.44.864l.264.072c-.168-.048.072.024.12.024s.12.048.192.072c.072.024.216.144.048 0l.048.024a.48.48 0 0 1-.192-.288c.024.096.048.192.12.264.12.12.288.216.456.24.408.048.816.048 1.248 0 3.552-.192 7.08-.624 10.608-.984l3.192-.36c.312-.024.672-.36.48-.696l-3.744-6.912-.528-.96a.66.66 0 0 0-.792-.312.492.492 0 0 0-.36.6c0-.024 0 0 .024.024Z" />
    <path fill="var(--b, white)"
      d="m15.504 94.008 1.248 2.352s-5.76-.792-5.4-1.224c.36-.432 4.152-1.128 4.152-1.128Z" />
    <path fill="var(--a, blue)"
      d="m15.024 94.152 1.242 2.352.504-.672a53.418 53.418 0 0 1-3.84-.648c-.33-.072-.672-.144-1.008-.24-.024 0 .12.048 0 0l-.072-.024-.138-.048c-.12-.048.12.096.024.024s.096.096.072.072c.138.144.162.36.072.552-.03.048-.12.072-.054.048.024 0 .054-.024.054-.048-.03 0 .066-.048 0 0 .162-.072.312-.12.48-.192.426-.144.858-.24 1.29-.36.72-.168 1.44-.336 2.16-.456.288-.048.336-.456.216-.672a.696.696 0 0 0-.768-.336c-.666.12-1.32.264-1.992.432-.48.12-.96.24-1.44.384-.312.096-.738.216-.93.48-.288.408.12.84.45 1.008.312.144.624.24.942.312.858.216 1.746.36 2.64.504.6.096 1.224.192 1.824.264.24.048.48-.096.528-.336.024-.12 0-.24-.054-.336l-1.224-2.376c-.144-.288-.456-.408-.768-.336-.24.096-.33.336-.264.576 0 .024.03.048.054.072Z" />
    <path fill="var(--b, white)"
      d="M37.2 87.456c.69-.12 10.242-4.104 11.49-3.504 1.248.6 4.632 9.6 4.536 10.872-.096 1.272-9.864 5.256-10.824 4.56-.96-.696-5.208-11.928-5.208-11.928Z" />
    <path fill="var(--a, blue)"
      d="M37.008 87.792c.48-.12.96-.288 1.416-.48.864-.312 1.704-.648 2.568-.96 1.032-.384 2.064-.744 3.096-1.104.48-.168.984-.336 1.464-.48l.576-.168c.24-.072.432-.12.624-.168.192-.048.36-.096.552-.12l.264-.048c.096-.024 0 0 .024 0l.12-.024.192-.024h.24l.048.024c-.072-.024.048 0 0 0 .456.24.744.864 1.008 1.32a38.616 38.616 0 0 1 2.496 5.88c.312.864.6 1.728.816 2.616.072.264.12.528.144.792v.24c0-.048.024-.024-.024.048s.048-.048-.024.048c-.024.024-.072.072-.096.12.096-.12-.048.048-.096.072-.048.024-.096.096-.168.12-.072.024.096-.048 0 0l-.12.072c-.144.12-.312.216-.48.312l-.24.144-.024.024-.168.096c-.888.48-1.8.912-2.712 1.296-.168.072-.432.192-.672.288l-.744.288c-.48.192-.984.36-1.464.528l-.672.216-.144.048-.048.024-.336.096c-.192.048-.36.096-.552.12l-.24.048-.12.024c-.096.024-.024 0-.024 0a1.94 1.94 0 0 1-.384.024h-.072c.048 0 .072 0 0 0-.048 0-.096 0-.12-.024l-.024-.024c-.024-.024-.048-.024-.072-.048.048.024 0 0-.048-.048l-.096-.12a14.148 14.148 0 0 1-.912-1.68c-.864-1.824-1.608-3.72-2.352-5.592-.552-1.392-1.08-2.76-1.608-4.176l-.072-.216c-.12-.312-1.224.168-1.08.528.408 1.08.816 2.16 1.248 3.216.768 1.968 1.56 3.912 2.4 5.856A36.564 36.564 0 0 0 41.352 99c.192.36.408.768.84.84.672.096 1.392-.12 2.04-.312a33.384 33.384 0 0 0 2.976-1.008 35.45 35.45 0 0 0 3.096-1.344 18.06 18.06 0 0 0 2.4-1.344c.408-.288 1.056-.72 1.056-1.272 0-.648-.264-1.344-.456-1.968a48.402 48.402 0 0 0-2.376-6.192 12.558 12.558 0 0 0-1.224-2.232 1.68 1.68 0 0 0-.504-.504 1.56 1.56 0 0 0-.744-.096c-.84.096-1.656.264-2.424.528a66.594 66.594 0 0 0-3.096 1.008c-1.752.624-3.456 1.296-5.208 1.92l-.288.096c-.144.048.144-.024-.048 0a.982.982 0 0 0-.696.456c-.12.24.144.24.312.216Z" />
    <path fill="var(--b, white)"
      d="M101.25 86.328s-11.712 7.488-11.712 7.944c0 .456 6.024 7.152 8.184 7.392 2.16.24 12.984-8.016 12.816-9.336-.168-1.32-9.288-6-9.288-6Z" />
    <path fill="var(--c, black)"
      d="M100.962 85.872c-1.032.648-2.04 1.32-3.048 1.968-1.896 1.224-3.768 2.472-5.64 3.72-.768.528-1.536 1.032-2.28 1.584-.336.24-.888.552-1.032.984-.096.288.072.552.24.768.24.312.48.624.744.912.72.864 1.512 1.68 2.304 2.496.864.888 1.8 1.728 2.784 2.52.696.552 1.56 1.224 2.472 1.368.72.12 1.44-.216 2.088-.504a21.91 21.91 0 0 0 2.64-1.488 53.6 53.6 0 0 0 5.952-4.392 26.05 26.05 0 0 0 2.064-1.92c.36-.384.888-.936.888-1.512 0-.696-.816-1.248-1.296-1.608a26.964 26.964 0 0 0-2.808-1.848c-1.68-1.008-3.408-1.944-5.136-2.856l-.312-.168c-.624-.312-1.32.6-.624.96 1.272.648 2.496 1.32 3.744 2.016a73.393 73.393 0 0 1 2.952 1.752l.648.432c.216.144.264.192.504.36.312.216.624.48.912.744l.144.144c.048.048.048.048 0 0 .024.024.048.048.048.072l.072.12c-.072-.072-.024-.096 0 0v-.12c0-.12-.024.024-.024.048s-.024.024-.024.048c.024-.144.048-.096.024-.048a2.91 2.91 0 0 1-.336.48l-.072.096c-.024.024.072-.096 0 0s-.12.144-.192.216c-.288.312-.6.6-.912.888a51.006 51.006 0 0 1-5.304 4.2 43.08 43.08 0 0 1-2.832 1.776c-.384.216-.792.432-1.2.624-.168.096-.36.168-.528.24-.096.048.12-.048 0 0l-.12.048-.24.072-.192.048-.096.024c-.096.024-.048 0 .024 0h-.144c-.168 0 .12.048-.048 0-.072-.024-.144-.024-.216-.048s-.12-.048-.024 0l-.144-.048a9.612 9.612 0 0 1-1.704-1.128c-.456-.36-.912-.768-1.344-1.152a44.004 44.004 0 0 1-3.576-3.696l-.096-.12c-.072-.096.048.048-.024-.024l-.192-.24c-.096-.12-.168-.24-.264-.336-.024-.024-.12-.216-.144-.24-.024-.024.048.144.048.096v.12c0 .144-.024.096-.048.192s-.024.072-.024.024c0-.048-.12.12-.024.048l.072-.072c.072-.072.144-.12.24-.192.24-.192.48-.36.744-.552.144-.12.312-.216.48-.336.096-.072-.072.048.024-.024l.12-.096.288-.216c1.776-1.224 3.576-2.4 5.376-3.576 1.32-.864 2.64-1.704 3.96-2.568l.216-.12a.552.552 0 0 0 .24-.744.558.558 0 0 0-.792-.216Z" />
    <path fill="var(--b, white)"
      d="M46.056 88.128c.696-.12 10.248-4.08 11.496-3.504 1.248.576 7.536 15.768 7.416 17.04-.12 1.272-11.664 4.2-12.624 3.504-.96-.696-6.288-17.04-6.288-17.04Z" />
    <path fill="var(--c, black)"
      d="M46.296 88.656a4.08 4.08 0 0 0 .768-.24l1.344-.504c1.272-.48 2.544-.96 3.816-1.416a41.73 41.73 0 0 1 3.72-1.176c.432-.12.888-.192 1.344-.24h.12c-.096 0-.072 0 0 0s.264.072.072 0c.144.048-.096-.072-.024-.024.024 0-.12-.12-.024 0l.048.048c.072.072-.096-.144-.048-.048.048.096.096.12.12.168.096.12.168.264.264.384s.216.336.312.504c.048.096 0-.024-.024-.024l.048.072.072.144.192.336a78.42 78.42 0 0 1 1.56 3.192 126.467 126.467 0 0 1 3.216 7.68c.36.96.744 1.944 1.056 2.928l.024.096.024.072.072.24c.048.12.072.264.096.408 0 .048.024.096.024.144 0 .096.024.12 0 0 0 .048 0 .168.024 0 0 .024-.024.048-.024.048-.024.072.072-.072 0-.024-.072.048-.072.072-.12.12-.024.024-.048.048-.072.048-.096.072.072-.048-.024.024a8.455 8.455 0 0 1-.48.288 18.03 18.03 0 0 1-1.368.6 33.34 33.34 0 0 1-3.72 1.152 43.752 43.752 0 0 1-3.912.864 10.99 10.99 0 0 1-1.488.192l-.288.024h-.144c-.144 0-.264-.048-.408-.048.144 0 .12.024.048 0s.144.072.072.024c-.072-.048.168.144.048.024.096.096.096.12.024.024l-.096-.144c-.096-.12.072.12-.024-.048l-.096-.192c-.072-.144-.144-.312-.216-.48-.408-.912-.768-1.872-1.128-2.808-.936-2.496-1.8-5.016-2.664-7.56-.6-1.752-1.176-3.528-1.752-5.28-.024-.096-.048-.192-.096-.264-.192-.576-1.2-.624-.96.12.432 1.344.888 2.688 1.32 4.008a295.704 295.704 0 0 0 2.688 7.752 93.644 93.644 0 0 0 1.272 3.312c.24.696.552 1.344.936 1.944.456.648 1.248.6 1.968.528a28.884 28.884 0 0 0 3.504-.6 48.606 48.606 0 0 0 4.176-1.128 18.54 18.54 0 0 0 3.144-1.224 2.094 2.094 0 0 0 .84-.672c.096-.216.12-.48.048-.72a20.424 20.424 0 0 0-.72-2.352 108.666 108.666 0 0 0-3.048-7.584 102.946 102.946 0 0 0-1.704-3.696c-.432-.912-.912-1.8-1.44-2.664a4.213 4.213 0 0 0-.576-.72 1.368 1.368 0 0 0-1.032-.36c-1.056.024-2.112.408-3.096.72-2.496.768-4.944 1.752-7.416 2.64l-.456.168c-.072.024-.216.048-.048.024l-.144.12c-.672.12-.096 1.152.456 1.056Z" />
    <path fill="var(--b, white)"
      d="m45.882 107.424-10.296-6.096S50.058 91.56 50.37 91.92c.312.36 6.576-1.584 6.576-1.584l7.416 6.096-18.48 10.992Z" />
    <path fill="var(--a, blue)"
      d="m45.96 107.088-3.48-2.064-5.55-3.264-1.272-.744.336.744 2.592-1.728a434.513 434.513 0 0 1 5.496-3.624c1.704-1.104 3.384-2.208 5.136-3.24a9.395 9.395 0 0 1 1.368-.744l.096-.024c.072-.048-.072 0-.024 0a1.308 1.308 0 0 1-.576-.288c.12.144.264.24.432.288a2.05 2.05 0 0 0 1.008-.024c1.944-.336 3.84-.96 5.712-1.536l.144-.048-.6-.168 6.504 5.352.912.744-.216-.672-1.848 1.08-4.416 2.616-5.352 3.168-4.608 2.736c-.744.456-1.536.864-2.256 1.344l-.024.024c-.432.24.456 1.056.816.84l1.848-1.08 4.416-2.616 5.352-3.168 4.608-2.736c.744-.432 1.536-.864 2.256-1.32l.024-.024c.288-.168-.048-.552-.216-.672l-5.712-4.704-1.296-1.08c-.288-.24-.6-.576-1.008-.504-.408.072-.72.216-1.08.336l-2.256.648c-.72.192-1.44.384-2.16.528-.24.048-.48.072-.72.096h-.024c-.12-.024.072.024.048.024a4.074 4.074 0 0 0 .072.048 1.17 1.17 0 0 0-.264-.096 1.27 1.27 0 0 0-.72.216c-.384.192-.744.408-1.104.624-2.544 1.536-5.04 3.192-7.512 4.824a280.733 280.733 0 0 0-5.568 3.72l-.096.048c-.336.216.144.648.336.768L39 103.8l5.544 3.264 1.272.744c.168.096.504.192.576-.048s-.264-.576-.432-.672Z" />
    <path fill="var(--b, white)"
      d="M53.418 93.768 50.37 91.92s6.672-2.256 6.576-1.584c-.096.672-3.528 3.432-3.528 3.432Z" />
    <path fill="var(--a, blue)"
      d="m53.76 93.408-3.048-1.848-.072.84c1.464-.48 2.928-.96 4.416-1.344.432-.12.864-.216 1.296-.288l.144-.024c-.096 0-.048 0 0 0s.144-.024.216-.024h.168c.024 0-.144-.024-.072 0s-.096-.024-.072-.024a.528.528 0 0 1-.336-.456c0-.048.048-.096 0-.048s-.024.072-.048.096c-.024.072.048-.072 0 0l-.072.096c-.072.072-.12.168-.192.24a11.22 11.22 0 0 1-1.08 1.056c-.456.408-.912.792-1.368 1.176l-.48.384-.048.048-.072.072c-.552.432.312 1.2.768.84.648-.528 1.296-1.056 1.896-1.608.432-.384.84-.768 1.224-1.2.24-.24.576-.6.576-.96 0-.528-.6-.696-1.032-.696a6.587 6.587 0 0 0-1.2.192c-1.056.24-2.112.552-3.144.864-.696.216-1.392.432-2.088.672a.44.44 0 0 0-.288.552c.048.12.12.216.24.264l3.048 1.848c.24.144.6.216.816-.024.144-.216.096-.504-.096-.696.024.024.024.024 0 0Zm-7.56 4.8c.858.072 1.77.12 2.61-.144.432-.12.84-.36 1.152-.672.336-.384.264-.912-.24-1.104-.888-.312-1.92.264-2.328 1.056a3.636 3.636 0 0 0-.384 1.32c-.048.48-.072.984.408 1.272.384.192.816.288 1.272.312a5.785 5.785 0 0 0 3.696-.984c.336-.24.768-.552.96-.936.24-.48-.096-.936-.624-.984-.912-.096-1.824.456-2.4 1.152a6.192 6.192 0 0 0-1.248 2.976c-.072.504-.12 1.08.384 1.368.432.264.984.168 1.464.024.24-.072.48-.336.36-.6-.12-.264-.528-.312-.768-.24l-.216.072c-.144.072-.072-.048-.024.048a1.08 1.08 0 0 1 0-.552c.096-.552.264-1.08.48-1.584a3.67 3.67 0 0 1 .792-1.272 1.66 1.66 0 0 1 .528-.384c.096-.048.192-.072.288-.096.144-.024.12.024.048-.024l-.168-.192c.024-.024.024-.024.024 0s-.024.048-.024.048c-.048.048-.096.12-.168.168l-.336.288a5.59 5.59 0 0 1-.816.48 4.32 4.32 0 0 1-2.28.288c-.096-.024-.336-.024-.408-.096-.144-.168.024-.744.072-.936.048-.312.192-.624.384-.864.144-.144.36-.336.576-.24l-.24-.144v-.12l-.024.024a1.53 1.53 0 0 1-.432.264 2.16 2.16 0 0 1-.648.168 6.375 6.375 0 0 1-1.512-.024c-.264-.024-.624.096-.696.384-.072.288.216.456.48.48Zm-26.19-5.232h.072l.312.072a.29.29 0 0 1 .12.12c.048.072.072.096.048.048-.024-.048-.024-.024 0 .024l-.024-.072-.072-.336a1.17 1.17 0 0 1 0-.576.737.737 0 0 1 .24-.36c.024-.024.096-.072.048-.024.048-.024.096-.072.144-.096l.096-.048c.12-.072-.072 0 .072-.024.36-.096.768-.12 1.128 0l.144.048c.048.024.048.024 0 0 .096.024.168.072.264.12.072.024-.096-.096.024 0l.048.048c-.048-.048.024.048.048.048-.048-.072 0 .024.024.072l-.048-.264c.264-.192.336-.264.216-.216l-.072.024c-.048 0-.072.024-.12.024h-.312c.072 0-.096-.024-.096-.024-.072 0-.12-.024-.192-.048l-.168-.048-.048-.024a5.746 5.746 0 0 1-.672-.312c-.12-.072-.24-.12-.336-.192l-.072-.048c.072.048-.072-.072-.096-.072-.024 0-.024-.024 0 .024l-.096-.144c.048.12-.048-.096 0 .024v-.048c0 .048 0 .048 0 0s0-.024 0 0c0-.024.024-.048.024-.072.048-.12.168-.192.288-.24l.312-.072c-.096.024.12 0 .096 0l.168-.024c.264-.024.528-.024.792 0s.48-.192.504-.456v-.072a.672.672 0 0 0-.672-.528 4.836 4.836 0 0 0-1.656.12c-.504.168-1.008.552-1.032 1.128-.048.648.456 1.032.96 1.344.48.288 1.008.528 1.56.672.264.072.528.096.792.096.288 0 .672-.048.888-.264.528-.504-.216-1.224-.648-1.464-.456-.24-.96-.36-1.464-.36a2.58 2.58 0 0 0-1.56.456 1.806 1.806 0 0 0-.72 1.608c0 .312.072.6.168.888.168.408.6.648 1.008.552a.48.48 0 0 0 .336-.6c0-.024-.024-.048-.024-.072a.66.66 0 0 0-.744-.36Zm60.366-.84a2.658 2.658 0 0 0-2.4.6 3.36 3.36 0 0 0-.744.912 2.154 2.154 0 0 0-.336 1.152.78.78 0 0 0 .792.696c.48-.024.912-.24 1.2-.624a2.484 2.484 0 0 0 .576-1.944 2.22 2.22 0 0 0-.984-1.608 2.505 2.505 0 0 0-1.944-.216 3 3 0 0 0-.96.48c-.288.24-.672.6-.672 1.008 0 .456.48.624.84.624.456 0 .888-.12 1.272-.36a2.196 2.196 0 0 0 1.032-2.376 1.422 1.422 0 0 0-.696-.96c-.432-.24-.888-.12-1.344-.24-.312-.072-.6.072-.768.336-.12.216-.12.552.168.624.264.048.528.096.792.096.192 0 .384.048.528.192.288.336.336.816.12 1.2a.848.848 0 0 1-.312.336.719.719 0 0 1-.192.096c-.096.024-.24 0-.336.048h-.072c.024 0 .048.216.048.216l.12-.12s.192-.12.12-.096a1.2 1.2 0 0 1 .312-.12c.12-.024.264-.048.408-.048.192 0 .36.048.552.096.312.12.576.384.72.696.144.336.192.696.12 1.032a1.092 1.092 0 0 1-.192.456c-.048.048-.072.096-.12.144-.024.024-.048.048-.072.048-.024 0 .048 0 .048-.024-.024-.336.264-.792.504-1.032.312-.336.792-.48 1.248-.36.312.072.6-.072.768-.336.144-.168.096-.432-.072-.576 0-.024-.048-.048-.072-.048Z" />
    <path fill="var(--c, black)"
      d="M96.96 93.12c.96.072 1.944.12 2.808-.336.288-.144.864-.528.84-.888 0-.192-.192-.312-.336-.408a3.136 3.136 0 0 0-.84-.456c-.84-.264-1.632.216-2.04.936-.408.72-.72 1.824-.216 2.544.312.36.696.672 1.152.84.36.168.744.264 1.128.264a3.882 3.882 0 0 0 3.024-1.8c.264-.456-.192-.72-.552-.936-.456-.264-.84-.384-1.296-.072a5.418 5.418 0 0 0-2.208 3.48c-.096.504-.096 1.032.24 1.44.384.432.888.72 1.464.84.12.024-.264-.312-.288-.336a1.728 1.728 0 0 0-.672-.312c.624.096.504.432.36.168a1.548 1.548 0 0 1-.144-.648c0-.264.048-.528.12-.792.12-.504.312-.984.552-1.44.24-.432.552-.84.888-1.2.168-.168.36-.336.576-.48.096-.072.192-.144.288-.192.072-.048.168-.048.24-.096.216 0 .144-.072-.216-.216-.264-.264-.36-.288-.288-.096-.096.432-.504.84-.84 1.128a4.02 4.02 0 0 1-1.272.744 2.57 2.57 0 0 1-1.344.144c-.048-.024-.096-.024-.144-.048.408-.024.336.312.24.096a.84.84 0 0 1-.144-.336 1.752 1.752 0 0 1 0-.864 3.05 3.05 0 0 1 .696-1.584c.192-.216.408-.384.672-.48.216-.072.576-.192.816-.072l-.504-.312.072.048-.192-.192c.168.24-.24.576-.408.72a2.51 2.51 0 0 1-.912.456 5.82 5.82 0 0 1-2.232.096c-.12 0 .264.312.288.336.144.168.36.264.624.312Z" />
    <path fill="var(--b, white)"
      d="M81.696 28.512s-5.64 5.4-4.056 5.16c1.584-.24 6.288-1.824 6.288-1.824s10.992 4.416 18.552 0c7.56-4.416 14.616-17.088 0-19.032-14.616-1.944-26.064 7.752-20.784 15.696Z" />
    <path fill="var(--a, blue)"
      d="M81.312 28.032a39.944 39.944 0 0 0-3.648 3.888c-.264.288-.48.624-.672.984-.192.456.144.984.552 1.2.384.192.936-.048 1.32-.144.696-.168 1.392-.384 2.064-.576 1.104-.336 2.208-.672 3.288-1.056l-.192-.048c1.488.576 3 1.008 4.56 1.344 3.144.672 6.456.936 9.624.36a13.812 13.812 0 0 0 4.8-1.776 19.06 19.06 0 0 0 2.76-2.04 19.38 19.38 0 0 0 4.368-5.496c.936-1.824 1.56-3.912 1.176-5.976-.432-2.256-2.112-4.008-4.128-5.016a15.06 15.06 0 0 0-4.296-1.296 27.528 27.528 0 0 0-5.784-.312 25.092 25.092 0 0 0-9.96 2.568c-2.424 1.248-4.704 3.024-6.096 5.424a7.74 7.74 0 0 0-.576 6.768c.24.6.528 1.152.888 1.704.12.168.36.504.6.456.24-.048.072-.408 0-.528a6.7 6.7 0 0 1-1.176-3.912 7.702 7.702 0 0 1 1.248-3.936c1.824-2.976 5.088-4.944 8.304-6.096a26.526 26.526 0 0 1 13.272-1.08c1.632.288 3.384.768 4.728 1.704l.408.288c.12.072.216.168.312.264a1.92 1.92 0 0 1 .312.312l.072.096.144.192a.761.761 0 0 0 .12.144l.072.096.096.168.048.096c.072.096 0 0 .024.048.072.12.12.24.168.36l.144.36c.768 2.328-.168 4.92-1.368 6.984a19.434 19.434 0 0 1-5.832 6.192 14.352 14.352 0 0 1-5.256 2.208 21.27 21.27 0 0 1-6.168.264 30.328 30.328 0 0 1-7.824-1.776l-.12-.048c-.096-.024.048 0 .048.024 0-.12-.336 0-.384.024-.576.192-1.128.384-1.704.552-.816.264-1.656.504-2.472.744-.648.192-1.296.36-1.944.456-.096.024-.024-.024 0 0s-.024 0-.048 0a.35.35 0 0 1 .216.144c.12.144.24.288.336.456 0 0 .048.12 0 .072s-.024.048 0-.024c.048-.168.12-.312.216-.456a10.68 10.68 0 0 1 1.008-1.272 66.66 66.66 0 0 1 2.544-2.664l.48-.48c.36-.264-.408-1.176-.672-.936Z" />
    <path fill="var(--b, white)"
      d="m87.312 17.304 7.68.624s2.256 1.272 1.824 6.024c-.432 4.752-.36 5.52-1.656 6.072-1.296.552-7.56-2.304-7.56-2.304s-.936-1.896-.36-2.808l1.728.456s.288-5.976-1.656-8.064Z" />
    <path fill="var(--c, black)"
      d="m87.24 17.712 6.72.552.96.072-.288-.096.024.024c.024 0 .024.024.048.024.12.048-.096-.096-.024-.024l.36.336.12.12a3.126 3.126 0 0 1 .288.432c.168.288.312.6.432.936a8.78 8.78 0 0 1 .384 3.168c-.048 1.248-.192 2.496-.312 3.744-.048.408-.096.792-.168 1.2a2.51 2.51 0 0 1-.096.408c-.024.048-.024.12-.048.168 0 .024-.048.12 0 .024l-.024.096c-.048.096-.096.192-.144.264l-.072.12c-.024.048-.048.048.024-.024-.024.024-.024.048-.048.072l-.216.192c-.072.072.096-.048 0 0l-.048.024c-.048.024-.12.048-.168.096l-.144.072c.12-.048.048-.048-.024 0s-.144 0 .048 0h-.288c-.144 0 .12.024.024 0h-.096c-.072 0-.144-.024-.216-.024-.168-.024-.336-.048-.504-.096l-.144-.024-.264-.072a4.74 4.74 0 0 1-.624-.192 47.82 47.82 0 0 1-4.824-1.896l.336.24a4.165 4.165 0 0 1-.336-.912c-.144-.48-.288-1.104 0-1.56l-.768.168 1.728.456c.216.048.792.096.816-.288.024-.768.024-1.512-.024-2.28a15.198 15.198 0 0 0-.696-4.152 5.64 5.64 0 0 0-1.08-1.968c-.36-.408-1.416-.096-.936.456.816.888 1.104 2.304 1.296 3.504.192 1.176.264 2.352.264 3.528 0 .24 0 .48-.024.72l.816-.288-1.728-.456c-.264-.072-.624-.096-.768.168-.408.696-.216 1.608.024 2.328.072.264.192.528.312.768.096.144.24.264.408.312.864.408 1.752.768 2.64 1.128 1.272.504 2.592 1.008 3.96 1.224.504.12 1.032.072 1.536-.096.36-.144.696-.408.936-.72.24-.36.384-.768.456-1.176.12-.696.216-1.392.264-2.088.192-1.992.504-4.08-.072-6.048a5.028 5.028 0 0 0-1.488-2.496 1.224 1.224 0 0 0-.624-.336c-.288-.048-.576-.048-.864-.072l-6.624-.552-.168-.024c-.24-.024-.6.024-.648.312-.048.288.168.48.408.504Z" />
    <path fill="var(--c, black)"
      d="M94.848 29.424c-.072-.024.192.072.072.024-.024 0-.048 0-.072-.024 0-.024-.024-.024-.048-.024s.12.048.048.024c0 0-.048-.024-.072-.024-.072-.048.048.024.072.024-.024-.024-.048-.024-.072-.048-.024-.024-.12-.12-.048-.024l-.12-.12c-.048-.048.048.072 0 0-.024-.024-.024-.048-.048-.072-.024-.024-.072-.168-.072-.12a2.904 2.904 0 0 1-.12-.432 3.792 3.792 0 0 1 .192-1.464c.072-.264-.36-.528-.528-.576l-5.808-1.752-.84-.24c-.216-.072-.552-.072-.576.192-.024.264.312.504.528.576l5.808 1.752.84.24-.528-.576c-.264.936-.336 1.992.336 2.784a2.232 2.232 0 0 0 1.272.744c.24.048.48-.072.432-.336-.048-.264-.408-.48-.648-.528Zm-3.624-8.712a4.992 4.992 0 0 1-.816 2.088c-.096.144-.312.504-.504.528l.432.048c.48.096.312.24.264.048-.024-.048-.024-.12 0-.192a.897.897 0 0 1 .312-.36c.264-.192.576-.36.864-.504.192-.048.048-.096-.384-.12l.024.048.096.168c.048.12.12.24.144.384.072.264.144.624-.024.864l1.08.192-.024-.048.048.12c-.024-.24.336-.36.504-.432.144-.024.096-.048-.192-.072-.24-.12-.312-.12-.216-.024.024.048.024.072.048.096.048.12.12.216.216.288.552.432 1.416.264 2.064.24.24 0 .24-.168.048-.264a1.452 1.452 0 0 0-.84-.192l-.6.024h-.144c-.264 0-.12.048.432.168l-.072-.168c-.192-.336-.6-.48-.96-.528a1.596 1.596 0 0 0-1.056.144c-.24.144-.576.336-.336.624.168.12.36.192.576.216.096.024.432.072.504-.024.336-.456.144-1.2-.168-1.632-.504-.648-1.512-.648-2.16-.312-.384.192-1.392.768-.84 1.32.36.288.816.408 1.272.312.336-.096.552-.408.72-.672a4.746 4.746 0 0 0 .816-2.112c.072-.312-1.104-.528-1.128-.264Z" />
    <path fill="var(--c, black)"
      d="M100.656 19.296a.68.68 0 0 1 .096-.312c.048-.048.072-.096.12-.144 0 .024-.12-.024-.072 0s.096.024.144.048c.12.048.24.12.336.216.456.432.48 1.104.312 1.656-.192.6-.624 1.08-1.008 1.536-.384.456-.72 1.032-.528 1.632.12.36 1.272.048 1.152-.312-.24-.792.552-1.392.984-1.968.48-.624.84-1.416.648-2.232a1.59 1.59 0 0 0-1.536-1.2c-.72 0-1.68.408-1.776 1.224-.096.432 1.08.216 1.128-.144Zm-.528 6.216c-.024.144-.048.264-.048.408 0 .072.024.144.024.216 0 .048.024.096.048.12.072.12.168.216.288.288a.7.7 0 0 0 .216.048c.12 0 .24 0 .36-.024.192-.048.384-.168.528-.312a.806.806 0 0 0 .216-.36c.072-.192.024-.408-.072-.6a1.38 1.38 0 0 0-.6-.456c-.048-.024-.12-.024-.192-.024s-.144 0-.216.024a1.02 1.02 0 0 0-.408.24.384.384 0 0 0-.144.312l.024.096c.024.072.096.12.144.144a.525.525 0 0 1 .12.072l-.096-.048a.96.96 0 0 1 .288.24l-.048-.072c.048.048.072.12.096.168l-.024-.096v.168l.024-.096c0 .048-.024.072-.048.12l.048-.096c-.024.024-.024.048-.048.072l.096-.096-.024.048.12-.096c-.024 0-.024.024-.048.024l.144-.072-.048.024.144-.048h-.048l.144-.024h.096-.048l.12.024c-.024 0-.048-.024-.096-.048l.096.048a.186.186 0 0 1-.096-.096l.072.072c-.024-.048-.072-.096-.072-.168l.024.096a.793.793 0 0 1 0-.336c.024-.048.024-.096 0-.168 0-.048-.024-.096-.072-.144a.552.552 0 0 0-.336-.096.863.863 0 0 0-.432.168l-.12.096c-.024.072-.072.144-.096.24Z" />
    <path fill="var(--b, white)"
      d="m40.392 75.96 3.216 1.752c1.152.624 2.832 2.112 1.704 2.256-1.128.144-3.864-1.056-5.352-.984-1.488.072-5.064 3.168-6.552 3.504-1.488.336-1.056-1.344-1.056-1.344s-3.792 2.184-2.184-.696c0 0-2.448.768-.984-1.464s4.872-4.2 4.872-4.2 4.512-19.392 9.648-27.432l6.12 4.104s-8.112 18.048-9.432 24.504Z" />
    <path fill="var(--c, black)"
      d="m39.888 76.296 1.56.84A28.35 28.35 0 0 1 43.8 78.48c.384.264.72.552 1.032.888.096.12.192.24.264.36a.767.767 0 0 1 .072.336l-.024.024.744-.504c-.048 0-.096 0-.12.024h-.192c-.192 0-.408-.024-.6-.072-.432-.072-.84-.192-1.248-.288a20.774 20.774 0 0 0-2.688-.624 3.132 3.132 0 0 0-1.848.408c-1.536.744-2.88 1.824-4.296 2.64-.456.264-1.344.792-1.824.312-.288-.288-.264-.84-.168-1.2a1.468 1.468 0 0 0-.288.12l-.048.024c.168-.096.024-.024-.024.024-.12.072-.264.144-.384.192a2.896 2.896 0 0 1-.456.192c-.168.072-.36.12-.528.168-.24.048-.624.144-.768-.12-.24-.36.168-1.008.336-1.296.024-.024 0-.048-.024-.024-.48.144-1.536.312-1.416-.48a2.84 2.84 0 0 1 .528-1.08c.264-.384.576-.744.912-1.08.6-.6 1.248-1.152 1.944-1.632.144-.12.192-.144.36-.264l.192-.144.096-.072.048-.024.312-.192.024-.024.12-.072c.288-.168.72-.336.816-.648.144-.432.216-.912.336-1.368.576-2.328 1.2-4.632 1.872-6.936a148.332 148.332 0 0 1 3.096-9.576c1.08-2.952 2.256-5.904 3.84-8.64.168-.288.336-.552.504-.816l-.984.648 4.944 3.312.984.672c.048.024.144.072.168.12 0 0 0-.048-.024.024-.048.144-.12.312-.192.432l-.384.84a296.376 296.376 0 0 0-6.24 15.048c-.912 2.448-1.848 4.92-2.448 7.44-.12.288-.192.504-.24.744 0-.024.48-.264.528-.288.12-.072.432-.24.456-.384.384-1.68.864-3.336 1.464-4.944.72-2.088 1.512-4.128 2.328-6.192A373.074 373.074 0 0 1 49.32 53.4l1.008-2.256v-.024L45 47.52l-.768-.504c-.072-.048-.408.192-.48.24-.192.096-.384.24-.528.408a38.232 38.232 0 0 0-2.904 5.88c-.96 2.304-1.8 4.656-2.592 7.008A194.886 194.886 0 0 0 34.2 72.696c-.216.816-.408 1.656-.6 2.472l.72-.552a27.953 27.953 0 0 0-2.832 1.92 14.065 14.065 0 0 0-1.992 1.8c-.48.528-1.056 1.2-1.248 1.92-.216.912.84.696 1.368.6l.072-.024c-.12.144-.192.312-.264.48a1.5 1.5 0 0 0-.144.648c.024.336.36.384.648.36.768-.096 1.56-.528 2.208-.912l-.288.12c-.096.336-.12.816.096 1.104.384.552 1.248.168 1.728-.072 1.584-.768 2.904-1.872 4.44-2.712.6-.336 1.176-.552 1.872-.48 1.008.096 1.968.432 2.952.672.672.168 1.608.504 2.28.168.312-.144.6-.336.84-.576a.397.397 0 0 0 .12-.288c-.024-.336-.384-.648-.6-.84-.768-.72-1.704-1.2-2.616-1.728l-2.064-1.128c-.096-.048-.456.216-.528.288a3.128 3.128 0 0 0-.48.36Z" />
    <path fill="var(--c, black)"
      d="M30.936 80.712a18.624 18.624 0 0 1 3.96-3.024 3.738 3.738 0 0 0-.48-.384l-.36-.216c-.048-.024-.144-.072-.168-.048a18.042 18.042 0 0 0-3.96 3.024c-.048.048.432.36.48.384.048.024.456.36.528.264Zm2.208 1.008c-.072-.216.36-.504.504-.624.264-.216.504-.432.792-.624a16.42 16.42 0 0 1 1.728-1.128c.36-.216-.528-.984-.864-.792-.648.36-1.272.768-1.848 1.224-.288.216-.576.456-.864.696-.264.216-.576.504-.432.888.12.264.336.456.624.552.12.048.456.096.36-.192Z" />
    <path fill="var(--b, white)"
      d="M76.32 75.648 73.104 77.4c-1.152.624-2.832 2.112-1.704 2.256 1.128.144 3.864-1.056 5.352-.984 1.488.072 5.064 3.144 6.552 3.504 1.488.36 1.056-1.344 1.056-1.344s3.792 2.184 2.184-.696c0 0 2.472.768.984-1.464s-4.896-4.2-4.896-4.2S78.12 55.08 72.984 47.04l-6.12 4.104c0 .024 8.136 18.048 9.456 24.504Z" />
    <path fill="var(--c, black)"
      d="m76.056 75.12-1.776.96a19.458 19.458 0 0 0-2.52 1.512c-.576.432-1.632 1.272-1.2 2.112.432.84 1.656.528 2.376.36.984-.24 1.968-.552 2.952-.72a2.988 2.988 0 0 1 1.032-.048l.096.024c-.072-.024.144.024 0 0l.216.072c.168.072.36.144.528.24 1.512.744 2.952 1.944 4.512 2.76.696.36 1.728.768 2.352.072.384-.432.408-1.104.264-1.656l-.84.528c.744.432 2.976 1.68 3.384.288.168-.552-.168-1.2-.432-1.68l-.648.744c.384.12.768.192 1.176.168a1.04 1.04 0 0 0 1.008-1.056c0-.096-.024-.168-.048-.264a4.458 4.458 0 0 0-.696-1.392 10.16 10.16 0 0 0-1.056-1.224 19.224 19.224 0 0 0-2.4-1.992c-.48-.336-.96-.648-1.44-.936l.264.384c-.552-2.376-1.2-4.752-1.848-7.104-1.32-4.68-2.76-9.36-4.608-13.872a40.05 40.05 0 0 0-3.24-6.6c-.216-.312-.552-.48-.888-.24l-5.352 3.6-.768.504a.552.552 0 0 0-.12.672c.96 2.136 1.896 4.296 2.832 6.48a229.08 229.08 0 0 1 4.92 12.384c.312.912.696 2.016.984 3 .24.816.48 1.656.648 2.496.144.696 1.248.624 1.104-.144a42.486 42.486 0 0 0-1.44-4.896 142.05 142.05 0 0 0-2.376-6.312 349.38 349.38 0 0 0-4.656-11.112 96.998 96.998 0 0 0-1.032-2.304l-.12.672 5.352-3.6.768-.504-.888-.24c1.632 2.544 2.808 5.4 3.864 8.208a128.334 128.334 0 0 1 3.144 9.456 200.55 200.55 0 0 1 2.496 9.336l.072.288c.12.408.552.552.864.768a15.618 15.618 0 0 1 3.744 3.12c.264.336.504.696.696 1.08 0 .024.048.12 0 .024l.024.096c0 .024 0 .072.024.096.024.096 0 0 0-.024v.072s.048-.12 0-.048 0-.024.024-.048c-.024 0-.072.096 0 .024.024-.048-.048.024.048-.048-.024 0-.144.072-.048.024.096-.048-.048 0-.072 0h-.144c.168 0-.096 0-.168-.024-.072-.024-.168-.024-.264-.048-.048 0-.24-.048-.12-.024.024 0 .12.024 0 0-.264-.12-.576.024-.696.288-.072.144-.048.312.024.456s.168.288.24.456c0 .024.096.24.048.12.024.048.024.096.048.144 0 .048.024.072.024.12-.024-.192 0 .024 0 .024.024 0 .024-.144 0-.024.048-.096.048-.12.024-.072s-.024.024.048-.048l.048-.024c-.048.024-.072 0-.024.024.048.024 0 0-.048 0h.024c-.072 0-.168-.024-.24-.024l-.12-.024c-.144-.024.096.024-.024 0-.336-.12-.696-.24-1.008-.408-.12-.072-.24-.12-.384-.192-.024 0-.096-.072-.12-.048-.024.024.168.096.096.048a.588.588 0 0 0-.624-.048.492.492 0 0 0-.216.576l.024.096c0 .024 0 .072.024.096.024.096 0-.12 0 .024v.144c0 .048-.024.192 0 .12s-.024.096-.024.12c0 .024-.048.096 0 .024s-.024.024-.024.048c-.072.048.024 0 0 0 .024 0-.12.024-.024.024.024 0-.096.024-.048.024-.048 0-.096.024-.144 0l-.144-.024-.12-.024c.072.024.096.024.048 0a4.38 4.38 0 0 1-.768-.336c-.144-.072-.192-.096-.36-.216-.168-.12-.36-.216-.528-.336-.36-.216-.696-.456-1.056-.696-.72-.48-1.44-.936-2.184-1.344a3.768 3.768 0 0 0-1.8-.624c-.912-.024-1.8.24-2.688.48-.768.216-1.584.48-2.4.504-.072 0-.144 0-.216-.024a.66.66 0 0 1 .24.384c-.024-.072 0 .024 0 .024 0-.048.048-.12 0-.024.168-.288.408-.552.696-.768.744-.624 1.608-1.056 2.448-1.512l1.848-1.008c.264-.144.384-.48.24-.744-.072-.168-.432-.384-.72-.24Z" />
    <path fill="var(--c, black)"
      d="M86.832 80.184a18.48 18.48 0 0 0-4.152-3.168c-.216-.12-.552-.264-.792-.192s0 .264.12.336a17.016 17.016 0 0 1 3.792 2.88c.216.192.48.312.744.336.096 0 .456 0 .288-.192Zm-2.352 1.488a.456.456 0 0 0-.12-.456 5.64 5.64 0 0 0-.72-.792 16.122 16.122 0 0 0-3.048-2.232c-.072-.048 0 .096 0 .072l.216.288c.144.192.336.36.552.504a17.34 17.34 0 0 1 1.56 1.008c.24.168.456.36.696.552.096.096.216.192.288.24l.048.024c.096.096.048.048-.144-.168-.336-.36-.192-.24-.168-.144a.333.333 0 0 1 0 .216c-.024.048.072.144.096.168.096.12.168.216.288.312.096.096.192.192.312.288 0 .024.12.144.144.12Zm-38.76-12.48s3.36-31.08 12.12-31.512c8.76-.432 13.77 31.8 13.77 31.8s-20.85.168-25.89-.288Z" />
    <path fill="var(--c, black)"
      d="M46.224 69.432c.12-1.056.264-2.112.408-3.168.36-2.52.792-5.04 1.296-7.56a90.783 90.783 0 0 1 2.256-9.144c.84-2.688 1.824-5.4 3.312-7.824a15.42 15.42 0 0 1 1.008-1.44 7.157 7.157 0 0 1 1.032-1.056c.36-.312.744-.576 1.176-.768l.144-.072c-.048.024.096-.048 0 0l.072-.024c.096-.048.216-.072.312-.096.216-.072.408-.096.624-.144-.096 0 .12-.024 0 0h.552l.144.024c.144.024-.096-.024.048 0l.312.072c.096.024.192.048.312.096-.12-.048-.048-.024.024 0l.168.072.288.144.12.072c.12.048-.12-.072-.024 0l.096.048c.186.12.378.264.57.408l.144.12c-.12-.096-.018-.024.03.024l.288.264c.186.192.378.384.546.576l.12.144c.03.024.15.168.048.072l.288.36c1.662 2.16 2.712 4.608 3.696 7.176a86.742 86.742 0 0 1 2.814 9.024 148.14 148.14 0 0 1 2.586 12.36c0 .072.03.144.03.216l.336-.336-2.118.024c-1.746 0-3.48.024-5.232.024h-6.738c-2.208 0-4.416-.024-6.6-.072a81.012 81.012 0 0 1-4.824-.192l-.384-.024c-.168-.024-.312.12-.336.288 0 .048 0 .12.024.168.12.264.384.456.672.456 1.488.144 3 .168 4.488.192 2.136.048 4.296.072 6.432.096 2.28.024 4.53.024 6.816.024 1.848 0 3.666 0 5.52-.024.864 0 1.728.024 2.586-.024h.03c.186 0 .378-.12.33-.336a145.794 145.794 0 0 0-2.16-10.704 94.5 94.5 0 0 0-2.664-9.24c-.96-2.76-2.058-5.544-3.618-8.04-1.134-1.8-2.688-3.744-4.848-4.296-2.04-.504-3.84.648-5.136 2.136-1.728 2.04-2.808 4.632-3.72 7.104a77.292 77.292 0 0 0-2.592 9.216 138.354 138.354 0 0 0-2.184 12.96c0 .072-.024.144-.024.216a.65.65 0 0 0 .432.624c.264.024.648.072.672-.216Z" />
    <path fill="var(--c, black)" d="M48.504 57.384s-9.24-2.64-9.24-3.12 8.448-19.488 18.576-16.56l-9.336 19.68Z" />
    <path fill="var(--c, black)"
      d="M48.912 57.384a205.81 205.81 0 0 1-6.24-1.896c-.6-.192-1.2-.408-1.776-.624a3.318 3.318 0 0 1-.984-.456c-.192-.168.168-.744.264-.936a41.91 41.91 0 0 1 3.192-5.856c1.656-2.592 3.552-5.088 5.88-7.08a14.082 14.082 0 0 1 3.672-2.352 9.33 9.33 0 0 1 3-.72h.456c.144 0 .336.024.384.024h.048l.12.024.072.024c.168.024.312.072.48.12l-.168-.072-.936 1.944-2.232 4.704-2.712 5.688-2.328 4.92-.768 1.632-.24.504c-.024.072-.12.192-.12.264l-.024.024s.528.144.552.144c.024 0 .528.12.576.024l.936-1.944 2.232-4.704 2.688-5.688 2.328-4.92.768-1.632.24-.504c.024-.072.12-.192.12-.264 0-.024 0-.024.024-.024.024-.024-.192-.072-.168-.072-1.56-.456-3.192-.552-4.776-.24a11.442 11.442 0 0 0-3.936 1.776c-2.616 1.776-4.68 4.296-6.456 6.888a48.9 48.9 0 0 0-3.816 6.624c-.144.312-.288.624-.408.936a1.176 1.176 0 0 0-.168.456c0 .168.312.264.432.336.48.216.96.384 1.44.576 2.424.84 4.896 1.56 7.344 2.28l.168.048c.264.072.528.12.816.12.192 0 .216-.024.024-.096Zm19.248.336s9.24-2.64 9.24-3.12-8.448-19.488-18.576-16.56l9.336 19.68Z" />
    <path fill="var(--c, black)"
      d="M68.64 57.96a170.735 170.735 0 0 0 6.552-2.016c.6-.192 1.176-.384 1.752-.624.288-.12.72-.24.96-.48.12-.12.072-.264 0-.384-.096-.24-.192-.48-.288-.696a43.11 43.11 0 0 0-3.408-6.192c-1.728-2.664-3.744-5.232-6.24-7.224-2.376-1.896-5.4-3.264-8.496-2.784a8.19 8.19 0 0 0-1.104.24c-.048.024-.12.096-.096.168l.936 1.944 2.232 4.704 2.688 5.688 2.328 4.92.768 1.632a23.538 23.538 0 0 0 .384.792c.096.216.432.288.648.336.096 0 .552.024.456-.192l-.936-1.944-2.232-4.704-2.664-5.688-2.328-4.92-.768-1.632-.24-.504a.888.888 0 0 0-.12-.264l-.024-.024-.096.144a6.235 6.235 0 0 1 1.992-.264c.624 0 1.224.096 1.8.264.096.024.192.048.384.12s.36.12.528.192a12.114 12.114 0 0 1 2.64 1.56c2.448 1.824 4.416 4.296 6.12 6.84a47.28 47.28 0 0 1 3.552 6.264c.12.288.264.576.384.864l.144.432c0-.024 0-.048.024-.048-.024 0-.072.072-.096.072-.096.072 0 0-.12.072s-.168.072-.24.12c-.48.216-.984.384-1.488.576-2.328.816-4.68 1.512-7.056 2.184l-.144.048c-.24.072.024.288.12.36.24.072.528.096.792.048Zm-20.232 5.112c-1.848 3.528-2.688 7.464-3.264 11.376-.168 1.128-.312 2.232-.48 3.36-.072.6 1.104.672 1.2.072.504-3.864 1.032-7.776 2.352-11.448.36-1.032.816-2.064 1.32-3.024.312-.6-.864-.864-1.128-.336Zm19.872-.744a44.28 44.28 0 0 1 1.32 12.816 37.752 37.752 0 0 1-.336 3.696c-.048.312.144.6.408.744.192.096.456 0 .528-.192.024-.048.024-.096.048-.12a45.384 45.384 0 0 0-1.056-17.088.624.624 0 0 0-.648-.48c-.288.048-.336.384-.264.624Z" />
    <path fill="var(--b, white)"
      d="M67.296 30.192s2.424-7.488-3.912-10.128c-6.336-2.64-14.4 2.472-14.616 10.728-.216 8.256 9.864 9.024 9.864 9.024l8.664-9.624Z" />
    <path fill="var(--c, black)"
      d="M68.016 30.264c.384-1.224.528-2.52.432-3.816a8.01 8.01 0 0 0-.84-3.24c-.624-1.2-1.608-2.16-2.784-2.808-2.616-1.488-5.928-1.656-8.76-.72a11.748 11.748 0 0 0-6.48 5.328c-1.44 2.52-2.088 5.76-1.2 8.592.696 2.184 2.4 3.768 4.392 4.8 1.56.792 3.24 1.32 4.968 1.56.384.048 1.224.264 1.536 0 .288-.264.528-.552.768-.864l4.176-4.632 3.552-3.936.192-.216c.192-.192-.384-.336-.48-.36-.216-.048-.72-.12-.912.072l-2.928 3.264-4.68 5.184-1.056 1.176.72-.096c-.144 0-.288-.024-.456-.048l-.216-.024c-.072 0 .216.048.048 0l-.168-.024c-.216-.048-.432-.072-.648-.12l-.36-.096-.168-.048c-.144-.024.168.048.024 0l-.12-.024a12.44 12.44 0 0 1-.888-.264l-.432-.144-.12-.048c-.144-.048.072.024-.024 0l-.24-.096a11.778 11.778 0 0 1-2.712-1.608 7.51 7.51 0 0 1-1.488-1.656c-1.008-1.56-1.296-3.408-1.128-5.232a11.688 11.688 0 0 1 6.816-9.672c.84-.36 1.704-.6 2.616-.744l.696-.072h1.008l.144.024c.12 0 .216.024.336.048.216.024-.144-.024.072 0l.216.048c.912.168 1.776.528 2.568 1.008a6.29 6.29 0 0 1 1.92 1.896c1.344 2.112 1.368 4.944.696 7.296l-.048.144c-.096.288 1.32.576 1.44.168Z" />
    <path fill="var(--b, white)"
      d="M67.272 36.936c2.256-2.928-.168-13.104-.168-13.104-1.728-2.592-10.392-.696-10.392-.696 1.296 2.592 1.008 6.936 1.008 6.936-1.08-2.328-3.816-1.224-3.6 1.056.216 2.28 2.952 2.904 2.952 2.904s-.624 4.92-.384 5.832c.24.912 4.584 2.112 6.768-.576 0 0 1.848.192 3.816-2.352Z" />
    <path fill="var(--c, black)"
      d="M67.848 37.392a4.842 4.842 0 0 0 .816-2.28c.144-1.032.192-2.088.12-3.12a41.82 41.82 0 0 0-.744-6c-.096-.528-.216-1.056-.336-1.608a.744.744 0 0 0-.216-.432 4.884 4.884 0 0 0-1.296-1.128c-1.656-1.008-3.864-.936-5.736-.792-1.44.096-2.88.312-4.296.6-.096.024-.048.072-.024.144.648 1.344.864 2.904.96 4.392.048.816.072 1.632.024 2.448l1.104.768a3.822 3.822 0 0 0-1.152-1.392c-.384-.336-.864-.6-1.368-.696a1.902 1.902 0 0 0-1.872.912c-1.104 1.848.648 3.768 2.16 4.656.456.288.96.504 1.488.624l-1.008-.888c-.12.96-.216 1.92-.312 2.904-.048.696-.12 1.368-.12 2.064 0 .432-.024.864.24 1.224.864 1.128 2.424 1.584 3.792 1.632a5.611 5.611 0 0 0 2.256-.408 3.948 3.948 0 0 0 1.536-1.08c.048-.072.096-.144.144-.168.144-.024.288-.024.432-.024.312-.048.6-.144.864-.264a6.36 6.36 0 0 0 2.544-2.088c.144-.192-.984-1.104-1.128-.936-.84 1.08-2.088 2.256-3.528 2.352h-.24c-.12.048-.24.216-.312.312-.144.144-.288.288-.456.408a4.842 4.842 0 0 1-2.088.864 5.982 5.982 0 0 1-2.064-.048 4.572 4.572 0 0 1-.816-.24l-.24-.096c-.12-.048.024.024-.048-.024-.024-.024-.096-.072.048.024l.12.096c.072.048.12.12.168.168.072.096.024-.024.024.048a.45.45 0 0 0-.048-.192c-.024-.216-.024-.432-.024-.648 0-.624.048-1.248.096-1.848.096-1.056.192-2.112.336-3.168.024-.144-.312-.408-.408-.48a1.878 1.878 0 0 0-.624-.408c-.072-.024-.144-.048-.216-.048s-.144-.048-.24-.072l-.144-.048-.096-.048c-.12-.048-.24-.12-.36-.168 0 0-.072-.048-.024-.024l-.048-.024-.096-.048c-.096-.048.12.096-.024-.024l-.072-.048c-.096-.072.096.096.024.024s.096.072 0 0l-.072-.072c.12.12-.096-.12-.024-.024a1.331 1.331 0 0 1-.144-.192c-.744-1.104-.48-2.928.888-3.408.312-.12.624-.12.936-.024a.341.341 0 0 0 .144.048c0-.024-.192-.144-.192-.144.048-.024.264.432.288.48.168.264.408.48.672.648.072.048.432.312.456.12.048-.84.024-1.68-.024-2.52-.096-1.512-.336-3.096-1.008-4.488l-.024.144a31.661 31.661 0 0 1 3.312-.528 20.27 20.27 0 0 1 2.952-.144c.888 0 1.752.12 2.616.36.168.048.336.12.48.192l.072.048c-.12-.072 0 0 .024.024-.168-.096-.048-.024 0 0-.096-.072-.12-.096-.048-.048l-.048-.048-.048-.024c-.024-.096.072.072 0 0 .024.096 0-.12-.024-.072 0 .048.024.072.024.12.12.456.216.936.288 1.392a44.478 44.478 0 0 1 .768 5.616 17.718 17.718 0 0 1-.048 3.384 5.34 5.34 0 0 1-.84 2.544c-.144.24 1.008 1.152 1.152.96Z" />
    <path fill="var(--b, white)" d="M64.488 32.448s5.496.384 6.264-2.52c.768-2.904-3.24-3.96-6.12-1.368" />
    <path fill="var(--c, black)"
      d="M64.632 33.12c1.68.12 3.552-.096 5.064-.888a3.306 3.306 0 0 0 1.848-2.88c-.024-1.464-1.152-2.496-2.496-2.808-1.728-.408-3.6.336-4.896 1.464a.618.618 0 0 0-.048.888l.024.024c.216.24.696.456.984.192a5.796 5.796 0 0 1 1.848-1.128c.288-.096.576-.168.864-.216.144-.024.288-.024.432-.024h.384c.12.024.264.024.384.072l.192.048c-.144-.048.072.024.12.048.12.048.216.096.312.144-.12-.072-.024-.024.024.024l.168.144c.12.072-.072-.096.024.024.024.048.072.072.12.12s.096.12.024.024c.024.072.072.12.096.192.024.072.048.144.024.048.024.048.024.096.048.168.024.048.024.12.024.168-.024-.12 0 .072 0 .096.024.24-.024.48-.12.72l-.072.192c-.024.072-.072.144-.024.048-.048.096-.12.192-.192.288-.072.096-.144.192-.216.264-.072.096.048-.048-.048.048-.048.048-.096.072-.144.12-.192.144-.384.288-.6.384h.024l-.072.024-.192.072-.36.144-.72.216-.168.024-.12.024-.144.024-.192.024-.696.072c-.6.048-1.176.072-1.776.024a.528.528 0 0 0-.528.576c0 .048 0 .096.024.12.048.408.384.648.768.648Z" />
    <path fill="var(--c, black)"
      d="M65.28 26.64a.468.468 0 0 0-.312.576c0 .024.024.048.024.072.216.456.768.192.72-.264a.378.378 0 0 0-.384-.384h-.048Zm-3.36.36a.468.468 0 0 0-.312.576c0 .024.024.048.024.072.216.456.768.192.72-.264a.378.378 0 0 0-.384-.384h-.048Zm-1.368 6.336h.696c.072 0 .168 0 .24-.024.072 0 .12-.048.168-.096.048-.024.072-.096.072-.144 0-.048 0-.12-.024-.168l-.096-.12a1.068 1.068 0 0 0-.264-.192 1.115 1.115 0 0 0-.552-.144h-.696c-.072 0-.144 0-.216.024-.072 0-.12.048-.168.096-.048.024-.072.096-.072.144-.024.048 0 .12.048.168l.096.12c.072.072.168.144.264.192.12.096.312.144.504.144Zm-2.04 41.76v4.536c0 .144.576-.048.624-.072.144-.072.48-.192.48-.408V74.64c0-.144-.576.048-.624.072-.144.072-.48.192-.48.384Z" />
  </g>
</svg>