<svg xmlns="http://www.w3.org/2000/svg" viewBox="0 0 120 120" fill="none">
  <g id="doc">
    <path fill="var(--b, white)"
      d="M30.1 93.6S4.633 25.417 5.142 24.65c.5-.767 44.75-1.8 45.858-1.15 1.108.65 28.175 64 27.65 64.75-.525.75-47.208 5.908-48.55 5.35Z" />
    <path fill="var(--c, black)"
      d="m30.383 93.6-.433-1.175-1.217-3.267-1.875-4.991c-.766-2.109-1.558-4.2-2.35-6.309l-2.691-7.25-2.884-7.8c-.983-2.666-1.966-5.333-2.916-8-.967-2.583-1.9-5.175-2.834-7.766a833.5 833.5 0 0 0-2.625-7.2c-.383-1.084-.791-2.184-1.166-3.267-.2-.5-.367-1-.559-1.533l-.483-1.35c-.575-1.6-1.125-3.234-1.675-4.842a67.558 67.558 0 0 1-1.008-3.125c-.05-.167-.1-.308-.125-.45l-.042-.167c0-.025 0-.05-.025-.083-.025-.117.025.125 0 .058l-.025-.1c.025-.1-.025.117 0 .05-.05.117-.1.067.05.05l.067-.025c.075-.025-.042 0 .025 0l.216-.05.625-.075c.625-.066 1.275-.116 1.9-.166 1.967-.142 3.909-.217 5.875-.309 2.592-.1 5.184-.191 7.775-.266 2.859-.1 5.717-.167 8.567-.217 2.767-.05 5.525-.117 8.283-.142 2.3-.025 4.609-.05 6.917-.05 1.458 0 2.95 0 4.417.075l.933.092c-.075 0-.075-.05-.025 0s-.075-.05-.05-.05l-.142-.142c.067.075.05.167-.025-.025l.075.15c.167.284.309.6.475.884l.075.141.025.05.167.334c.117.266.258.533.383.791a291.635 291.635 0 0 1 1.967 4.3l2.592 5.809 3.025 6.916c1.1 2.517 2.183 5.059 3.291 7.6 1.125 2.617 2.25 5.259 3.359 7.875l3.283 7.75c1.008 2.375 2 4.775 3 7.159a564.67 564.67 0 0 1 2.55 6.166c.642 1.584 1.292 3.167 1.917 4.775.216.575.458 1.15.666 1.725.1.242.167.459.25.7l.017.067c.05.125-.042-.117-.025-.05l.05.15a1.1 1.1 0 0 0 .1.258c.042.15.092.267.117.417.025.042.025.092.05.142-.025-.142.05.116 0 0 0 .066 0-.142.05-.125-.075.025-.167.05-.25.1-.184.05-.25.075-.425.091-.242.05-.459.1-.7.125a246.933 246.933 0 0 1-7.875 1.1c-2.559.334-5.109.625-7.667.942-2.833.333-5.667.642-8.5.958-2.783.309-5.567.6-8.375.884-2.425.25-4.85.483-7.275.7-1.725.141-3.483.308-5.233.408l-1.484.075h-.625c-.25-.1-.25.183-.191.358.066.284.233.525.475.667.266.075.533.1.791.075.534 0 1.059-.05 1.584-.075a165.69 165.69 0 0 0 5.358-.433c2.467-.217 4.942-.475 7.392-.717A1042.317 1042.317 0 0 0 70 90.192c1.917-.242 3.833-.5 5.783-.767.959-.142 2.017-.217 2.975-.533.484-.167.15-.859.025-1.2-.333-1.025-.75-2.059-1.15-3.092-.625-1.608-1.275-3.217-1.916-4.825-.842-2.083-1.709-4.15-2.575-6.242-1-2.416-2.017-4.825-3.017-7.225-1.108-2.583-2.192-5.208-3.317-7.8l-3.383-7.941c-1.1-2.542-2.208-5.084-3.308-7.659l-3.025-6.933-2.567-5.783a127.923 127.923 0 0 0-1.95-4.2c-.383-.792-.742-1.609-1.167-2.35a1.417 1.417 0 0 0-.608-.65 3.35 3.35 0 0 0-.983-.117c-1.467-.083-2.925-.083-4.417-.083-2.3 0-4.633 0-6.933.058l-8.35.142-8.642.216c-2.592.05-5.208.142-7.8.242-1.967.067-3.917.167-5.883.308-.625.05-1.225.1-1.85.167-.334 0-.692.05-1 .167-.392.191-.05 1.008.041 1.3.292 1.033.65 2.041.984 3.075.558 1.608 1.108 3.216 1.683 4.825.75 2.108 1.483 4.216 2.25 6.333a833.5 833.5 0 0 0 2.625 7.2l2.875 7.867 2.95 8.016c.967 2.642 1.95 5.284 2.933 7.917.884 2.433 1.8 4.858 2.684 7.275l2.358 6.367 1.867 4.991 1.225 3.242c.141.358.291.742.408 1.1.075.167.292.583.525.55.25-.025.075-.408.025-.55Z" />
    <path fill="var(--c, black)"
      d="M27.267 33.1c.241-.458.5-.917.816-1.325a4.667 4.667 0 0 1 1.225-1.225l.117-.042c-.117.042.025-.025.05-.025s-.142.025-.025 0c-.192.025.142.025-.025 0 .025 0 .075 0 .1.025a.5.5 0 0 1 .142.092c-.075-.05.025.025.05.05l.091.142c.125.216.192.433.217.666.1.7.125 1.4.025 2.092a13.552 13.552 0 0 1-.458 2.358 6.35 6.35 0 0 1-.792 1.825l-.258.309-.05.05c-.075.066.066-.05 0 0-.025.025-.05.025-.075.041-.092.084.1-.016 0 0-.142.05.125-.016-.025 0 .025 0 .266-.016.15-.016.066 0 .166.041.066 0-.091-.05-.025 0 0 0-.025-.025-.066-.025-.091-.05a1.35 1.35 0 0 1-.534-1.275 4.417 4.417 0 0 1 .75-1.8 10.167 10.167 0 0 1 1.509-1.85c.55-.55 1.15-1.025 1.775-1.459a5.49 5.49 0 0 1 .816-.433l.075-.025c-.125.05.117-.05 0 0l.167-.05c.167-.042-.1.025.05 0 .192-.042-.075 0 .042 0 .125 0-.117.025.05 0 .025 0 .1.025-.05 0 .025 0 .05 0 .075.025.05.05-.025 0-.025 0l.075.025c.091.075 0-.025.066.05.292.383.434.858.434 1.342a3.467 3.467 0 0 1-.5 2c-.05.066-.125.116-.167.183.025 0 .042-.05 0 0a.333.333 0 0 1 .142-.05.65.65 0 0 1 .5 0s-.017 0-.042-.067c-.025-.05-.025-.1-.05-.141-.025-.125 0-.217.025-.334a2.86 2.86 0 0 1 .433-.891 5.933 5.933 0 0 1 2.159-1.917c.025 0 .141-.058.025 0l.141-.058c.05-.017.05-.042-.025 0l.1-.017h-.025c.042-.025.025-.025-.025 0 0 0 .167.017.025 0l.092.017c.075.025-.092-.042.025 0a.739.739 0 0 1 .267.266c.358.6.525 1.3.525 2.017 0 .242-.025.483-.092.7a.75.75 0 0 1-.125.233s-.05.05-.05.075c.083-.241.583-.05.625-.116a.5.5 0 0 1-.092-.15.792.792 0 0 1 0-.334c.05-.358.167-.7.334-1.033.166-.358.358-.667.583-.983.083-.142.208-.284.35-.409l.15-.141c.025-.025.217-.167.117-.1.025-.025.05-.025.075-.025-.125.025.116-.017 0 0 .025 0-.242.025-.167.025.067 0-.15-.025-.125-.025.05 0-.025-.042.025 0 .05.05.05.025.05.025l.05.05.067.1c.216.308 1.366.016 1.133-.334-.625-.85-1.875-.316-2.45.284a5.233 5.233 0 0 0-1.325 2.416c-.042.292-.117.659.083.917.375.458 1.267.333 1.625-.067.359-.416.409-1.133.334-1.666a4.133 4.133 0 0 0-.334-1.292 1.583 1.583 0 0 0-.408-.692c-.75-.725-1.992-.266-2.733.192a6.725 6.725 0 0 0-2.167 2.108c-.333.5-.858 1.75.15 1.875 1.25.167 1.8-1.25 1.892-2.25.1-.891-.117-2.216-1.167-2.408-.8-.142-1.617.217-2.308.6a11.508 11.508 0 0 0-4.059 3.983c-.383.625-.75 1.392-.7 2.167.05.692.559 1.267 1.25 1.367 1.8.258 2.5-2 2.834-3.334.241-.941.358-1.9.383-2.858 0-.675 0-1.467-.358-2.067-.525-.866-1.9-.55-2.592-.116-.833.525-1.442 1.416-1.942 2.25-.1.166-.216.358-.291.533-.117.233.333.283.483.283.283-.025.625-.091.742-.308Z" />
    <path fill="#002780"
      d="M31.95 75.417a56.35 56.35 0 0 0 3.067 2.775c.666.6 1.416 1.108 2.208 1.541 1.058.525 2.542.834 3.483-.025.309-.333.6-.7.834-1.108.416-.625.775-1.292 1.133-1.942a118.333 118.333 0 0 0 2.333-4.608 114.833 114.833 0 0 0 1.417-3c.117-.242-.275-.625-.417-.75a2.5 2.5 0 0 0-1.2-.475 2.625 2.625 0 0 0-1.291.05.888.888 0 0 0-.625.55l-.075.167.1-.234a135.633 135.633 0 0 1-3.459 7c-.55 1.034-1.108 2.167-1.875 3.05l-.166.167c-.05.075.266-.217.141-.117-.016.025-.041.025-.066.05.283-.266 1.058-.216 1.391-.166-.216-.05.6.166.309.066-.217-.066.5.242.191.075-.116-.075-.233-.125-.358-.191l.192.116-.067-.05-.267-.166c-.316-.217-.625-.475-.933-.717-.7-.55-1.35-1.15-2.017-1.75-.25-.217-.458-.433-.7-.65l.025.025-.075-.075a2.883 2.883 0 0 0-2.375-.767c-.308.05-.75.117-.916.409a.65.65 0 0 0 .058.75Zm-10.4-26.192 3.292-.192 7.825-.458 9.475-.55 8.208-.475 2.692-.15c.433-.025.858-.025 1.266-.067h.05c.334-.025-.216-1.033-.575-1.008l-3.291.192-7.842.45-9.483.558-8.209.475-2.641.125c-.434.025-.859.025-1.267.067H21c-.333.025.192 1.033.55 1.033Zm.942 5.925 3.283-.192 7.85-.45 9.483-.558 8.209-.475c1.316-.075 2.641-.125 3.958-.25h.05c.283-.042.525-.167.717-.375.1-.1.291-.383.025-.358l-3.292.191-7.842.45-9.483.559-8.208.475c-1.317.075-2.642.125-3.959.241h-.05c-.283.05-.525.167-.716.384-.075.075-.292.383-.025.358Zm2.808 6.342 3.292-.192 7.816-.458 9.484-.55 8.208-.484 2.692-.141c.425 0 .858-.025 1.266-.075h.05c.242-.025-.05-.434-.1-.475-.141-.167-.383-.434-.616-.417l-3.267.2-7.85.45-9.475.558-8.208.475-2.692.15c-.433 0-.867.017-1.275.067h-.042c-.25.025.042.433.092.483.142.167.383.409.625.409Z" />
    <path fill="var(--c, black)"
      d="M21.625 47.408c.433-.483.817-.991 1.2-1.516.392-.525 1.225-1.684.083-1.917-.966-.192-1.4.933-1.475 1.675-.066.942.167 1.967 1.109 2.4 1.1.5 2.3-.142 3.05-.958.358-.384.666-.834.883-1.317.192-.333.317-.75.317-1.133a.833.833 0 0 0-.917-.717c-.025 0-.067 0-.092.025a1.211 1.211 0 0 0-.841.833c-.317.8-.192 1.875.408 2.5.867.917 2.25.767 3.167.05a4.417 4.417 0 0 0 1.558-2.375c.1-.358.1-.766-.217-1.033a.958.958 0 0 0-1.316.242c-.5.641-.459 1.8-.142 2.516.167.459.575.817 1.05.934.583.125 1.175-.167 1.633-.525a4.25 4.25 0 0 0 1.059-1.292c.216-.367.458-.842.433-1.3-.025-.55-.7-.792-1.158-.583-.309.2-.55.508-.617.875-.317.883-.075 1.941.817 2.4 1.025.525 2.325.166 3.066-.675a3.833 3.833 0 0 0 .984-2.309.767.767 0 0 0-.859-.666.383.383 0 0 0-.216.066c-.334.15-.534.509-.65.842-.292.725-.484 1.875.241 2.425.45.333 1.05.292 1.559.075a.425.425 0 0 0 .216-.533l-.075-.117a.717.717 0 0 0-.816-.192l-.192.075c-.067 0-.025-.025 0 0-.067-.05 0 0 .025.025-.075-.05.117.067.05.017-.075-.042.05.025.025.025-.075-.117-.025 0 0 0-.025-.025-.075-.192-.05-.092a1.55 1.55 0 0 1-.025-.583c.025-.142.05-.283.1-.45l.067-.242c0-.025.025-.05.025-.091l.025-.05.166-.317c.05-.067 0 .025-.025.025l.05-.042a.692.692 0 0 1-.766-.125c-.075-.075-.025-.091-.05-.116-.025-.025 0-.05 0 0v.091-.025.1c0 .05-.025.117-.025.192a3.142 3.142 0 0 1-.917 1.583 1.606 1.606 0 0 1-.833.409H32.5c-.075 0-.142 0-.192-.025-.191-.025.05.025-.05 0l-.116-.05c.116.075-.142-.117-.05-.025a.6.6 0 0 1-.192-.425c-.025-.075-.025-.15-.025-.25v-.134c0-.083.025-.15.025-.216.025-.075.025-.15.05-.217 0-.05.067-.217.05-.125.042-.092.092-.192.167-.283.05-.075-.025.025-.025.025l.05-.05s-.125.05-.05.025a.567.567 0 0 1-.584-.1c-.183-.142-.083-.117-.166-.242v.075s.025-.092 0-.025v.075c-.017.142-.067.258-.117.383a4.167 4.167 0 0 1-.65 1.034 2.14 2.14 0 0 1-.858.691c-.05.025-.1.05-.167.05h.017c.15.05.083.025.05.025-.092-.025.05.05.025 0-.092-.1-.025-.05 0 0l-.075-.1c.083.075-.042-.066-.042-.091l-.075-.217c.025.05-.025-.117-.025-.142l-.05-.291c-.017-.309 0-.6.083-.917.017-.042.017-.117.042-.167-.05.1.05-.066.067-.091.025-.025.025-.05.05-.05-.067.1-.025.025 0 0 .075-.05.025 0-.025 0 .125 0-.192.025-.167.025a.583.583 0 0 1-.475-.284c.017.042 0 .042 0-.05v.05s-.025.142 0 .042a3.808 3.808 0 0 1-1.008 1.875c-.25.267-.534.458-.867.6-.117.025-.217.05-.333.05h-.15c-.025 0-.192-.05-.067 0l-.15-.075c.1.05-.042-.05-.092-.075-.116-.092.05.05-.025-.017-.025-.025-.05-.083-.075-.1-.016-.025-.041-.05-.041-.075.041.075 0 0 0-.025a1.467 1.467 0 0 1-.125-.283 2.308 2.308 0 0 1-.05-.817c.025-.241.1-.483.25-.666-.034.016-.034 0 .041-.05s-.091.016-.075.016a.633.633 0 0 1-.525-.191c-.05-.042-.075-.117-.05-.042.025.067-.041-.125-.025-.025v.067s.025-.117 0-.017c-.016.092-.016.117-.016.192-.025.116-.084.233-.125.358a3.904 3.904 0 0 1-.575.958c-.217.309-.5.584-.817.817a2.11 2.11 0 0 1-.433.242.45.45 0 0 1-.192.041c-.067.025-.167.05-.242.025h-.141c.025 0 .125.025 0 0L23 47.208c.017 0 .142.05 0 0-.083-.041.117.1 0 0l-.083-.041c-.109-.1.058.041 0-.025-.017-.025-.042-.075-.084-.1-.05-.067.042.1-.025-.025l-.05-.092-.075-.192-.05-.141c-.016-.1-.016-.192-.041-.292-.025-.292 0-.6.066-.892a.634.634 0 0 0 .05-.208c.05-.125 0-.025.05-.1.025-.05.05-.092.067-.167.05-.05.125-.141.05-.1.075-.066.125-.041.025-.025.075-.016-.05.025-.05.025a.692.692 0 0 1-.625-.408c.025.05 0-.042 0-.067s0 .067-.017.067c-.05.15-.025 0 0 0 0 .025-.025.05-.025.05l-.075.142c-.075.125-.141.266-.241.391a24.5 24.5 0 0 1-1.15 1.534l-.242.283c-.192.25.075.558.292.65.333.217.666.167.858-.067Zm16.733-.941c.434-.484.817-.992 1.2-1.517.234-.283.45-.625.6-.983.167-.459-.291-.667-.7-.75-.883-.142-1.2.75-1.266 1.466-.084.942.233 1.85 1.15 2.234 1.1.483 2.233.025 3.025-.817.358-.383.641-.817.858-1.267a2 2 0 0 0 .292-1.058c-.05-.458-.725-.65-1.125-.625a.901.901 0 0 0-.725.625c-.309.767-.167 1.825.458 2.4a2.519 2.519 0 0 0 3.142.117 4.333 4.333 0 0 0 1.533-2.3c.083-.292.1-.55-.167-.767-.358-.292-1.033-.433-1.366-.025-.5.575-.459 1.725-.142 2.375.242.458.667.792 1.175.892.525.091 1.1-.05 1.508-.417a4.66 4.66 0 0 0 1.084-1.292c.191-.308.433-.766.383-1.15-.075-.458-.867-.666-1.225-.5-.283.117-.458.45-.525.717-.292.917 0 1.8.883 2.208a2.65 2.65 0 0 0 3.075-.583c.459-.5.984-1.383.892-2.133-.075-.45-.775-.667-1.158-.55-.284.1-.45.433-.55.7-.284.691-.434 1.775.316 2.225a1.82 1.82 0 0 0 1.609.125c.233-.1.016-.317-.1-.384-.192-.125-.584-.266-.817-.15a.963.963 0 0 1-.283.1c.016 0 .016-.05-.05 0h.05c-.084 0-.05 0 .041.025.1.025.217.092.317.142-.05-.025-.025-.05 0 0 0-.05-.05-.092-.075-.117a1.583 1.583 0 0 1-.075-.816c.025-.317.125-.6.25-.892.042-.092.083-.192.167-.283.016-.025.066-.05.083-.1.033-.05-.017 0-.017 0 .142-.217-.816-.459-.866-.267 0 0-.025-.092-.025 0v.125c0 .117-.017.242-.042.358a4.419 4.419 0 0 1-.333.867c-.317.6-.842 1.167-1.542 1.292-.075.025-.142.025-.217.025h-.166l-.1-.067c-.167-.217-.234-.483-.234-.775 0-.283.067-.575.192-.817.042-.091.092-.191.142-.258.025-.025.075-.05.075-.075s.041-.05.025-.025c-.025.025-.025.025 0 0a.6.6 0 0 1-.459-.117c-.05-.025-.416-.141-.416-.166v.041l-.017.125a4.55 4.55 0 0 1-.767 1.467 2.975 2.975 0 0 1-.958.808c-.075.025-.15.084-.217.1-.075.025-.1 0 .025.025.042 0 .209.117.259.092-.025 0-.092-.092-.117-.142-.317-.5-.317-1.275-.167-1.825.025-.116.067-.241.142-.358l.075-.1a.333.333 0 0 1 .092-.067h-.025a.8.8 0 0 1-.717-.216s-.075-.075-.075-.1c0 .025.025.075.025.125a3.992 3.992 0 0 1-1.058 2.066c-.234.259-.55.5-.884.642a.948.948 0 0 1-.458.1h-.117c-.025 0-.025-.025-.025 0a.617.617 0 0 1-.216-.217.892.892 0 0 1-.192-.433 1.892 1.892 0 0 1 .217-1.658c.05-.042.091-.092.166-.142.05-.05 0 .025-.025 0l-.666-.217c-.025-.025-.05-.05-.05-.075 0-.016.025.05.025.1.016.525-.434 1.225-.75 1.684-.434.575-1.084 1.25-1.85 1.266h-.042c-.1 0-.025.025-.05 0s.092 0 .092.05c-.017-.075 0 0-.017-.025a.345.345 0 0 0-.1-.075 2.108 2.108 0 0 1-.333-1.008c-.05-.475.025-1.217.408-1.6.042-.025.067-.083.117-.1.05-.05 0 .025-.025 0 .05.117-.742-.333-.767-.308-.05.016.025-.05 0 0 .025-.05 0 .016-.025.041-.092.25-.217.459-.358.65-.359.525-.75 1.034-1.15 1.517l-.242.283c-.267.292.833.717 1.058.484v.025Zm-14.283 6.166a17.64 17.64 0 0 0 1.2-1.508c.242-.292.433-.6.583-.942.067-.216.042-.333-.225-.283-.475.067-1.125.308-1.391.717-.192.333-.309.7-.309 1.083-.075.75.117 1.725.959 1.942.575.141 1.25-.117 1.775-.334a4.183 4.183 0 0 0 2.25-2.183c.15-.292.341-.7.316-1.033-.025-.334-.475-.167-.716-.1-.459.166-.892.333-1.084.791-.283.7-.241 1.734.359 2.259.366.291.866.408 1.325.316a4.667 4.667 0 0 0 1.891-.775 4.283 4.283 0 0 0 1.542-2.233c.042-.167.142-.525-.05-.617-.142-.075-.458.042-.583.092a1.917 1.917 0 0 0-.834.458c-.483.525-.433 1.659-.141 2.25.116.334.433.584.791.584.284-.025.6-.125.859-.25.333-.109.675-.284.966-.5.45-.334.817-.767 1.1-1.25.192-.309.459-.742.434-1.125-.025-.45-.892.025-1.084.1-.308.141-.55.408-.641.716-.267.725-.192 1.659.616 1.967.559.217 1.159.1 1.684-.092a3.754 3.754 0 0 0 1.583-.916c.483-.5.983-1.334.933-2.059-.016-.433-.5-.166-.741-.075-.384.1-.717.384-.884.75-.25.5-.583 1.725.067 2.084.433.241 1.108-.1 1.517-.267.066-.025.433-.167.358-.242-.075-.066-.65.192-.7.217.533-.217.217-.017-.025-.142a.833.833 0 0 1-.233-.266 1.667 1.667 0 0 1-.1-.834c.025-.316.125-.625.241-.941a1.45 1.45 0 0 1 .192-.334l.1-.1c.067-.091-.992.125-.917.367.117.433-.05.917-.241 1.317a3.226 3.226 0 0 1-.6.891c-.117.117-.259.217-.384.334-.025.025-.05.025-.05.05 0-.025.417-.125.334-.125-.067 0-.209.025-.334.025-.741 0-1.291-.434-1.316-1.2a2.117 2.117 0 0 1 .308-1.2l.1-.092.025-.025c-.933.217-1.225.333-.892.333h.025c.025.075.075.1.075.167 0 .125-.025.267-.075.383a4.67 4.67 0 0 1-.575 1.109c-.266.333-.55.65-.916.916-.184.142.608-.125.416-.15h-.1c-.075 0-.116-.025-.191-.05a.667.667 0 0 1-.309-.258c-.383-.5-.416-1.3-.266-1.875.025-.142.075-.292.141-.417.025-.041.05-.083.1-.133.259-.417-.583.475-.766.233.016.025.066.05.091.1.025.092.025.192.025.267a3.667 3.667 0 0 1-.916 1.825 2.777 2.777 0 0 1-.384.383c-.116.092-.283.192-.383.284-.025.025.383-.117.317-.117-.075 0-.1.025-.142.025h-.292a1.175 1.175 0 0 1-.583-.192c-.567-.366-.733-1.108-.667-1.733.025-.283.1-.575.267-.833.025-.05.075-.084.092-.125l.05-.025c-.05.075-.834.266-.792.316.05.042.1.042.125.117.017.242 0 .483-.125.7a4.655 4.655 0 0 1-1.342 1.892c-.075.075-.166.116-.266.191-.025.025-.05.025-.067.05l-.05.025c.092-.05.192-.075.283-.125h-.475c-1.275-.216-1.25-2.3-.625-3.091.284-.384-.291.958-.725.241-.016-.025.025.017.025.017.025.05.025.125.025.167a2.083 2.083 0 0 1-.333.65c-.358.558-.767 1.058-1.2 1.566l-.242.284c-.05.075.384-.05.434-.067.241-.05.483-.167.666-.317h-.283Zm16.675-.483c.408-.475.817-.983 1.2-1.508.333-.459 1.25-1.584.217-1.85-1.034-.259-1.467.866-1.559 1.658-.1.892.167 1.875 1.034 2.283 1.1.525 2.375-.125 3.141-.941.359-.384.667-.834.917-1.317.183-.317.283-.667.308-1.058 0-.5-.5-.75-.958-.667a1.168 1.168 0 0 0-.917.767c-.308.766-.241 1.825.334 2.441.841.892 2.258.775 3.166.1a4.517 4.517 0 0 0 1.634-2.4c.083-.308.125-.666-.167-.916a1.025 1.025 0 0 0-1.342.166c-.525.634-.5 1.784-.216 2.475.166.459.55.792 1.008.917.625.142 1.225-.15 1.708-.5a4.64 4.64 0 0 0 1.05-1.275c.242-.367.417-.775.459-1.225 0-.6-.767-.767-1.2-.533-.292.166-.484.458-.584.775-.308.858-.166 1.891.725 2.325 1.059.525 2.375.191 3.142-.65.508-.55 1.008-1.442.992-2.209-.025-.5-.559-.766-1.009-.6-.333.142-.6.434-.7.767-.283.675-.525 1.85.167 2.375.433.333 1.058.292 1.558.1.217-.1.434-.292.267-.55-.217-.217-.525-.317-.817-.192l-.141.042c-.025 0-.142.05-.05.025l-.092.025c.092.05.067 0 .025 0 .117.025.042.025.142.05-.1-.05.025.025.025.025l-.075-.1c.05.1-.025-.092-.025-.117-.025-.05-.025-.116-.025-.166v-.417a2.55 2.55 0 0 1 .316-1.025c.042-.075.092-.142.025-.05.025-.025.092-.067.092-.117l-.05.025a.75.75 0 0 1-.817-.15c.05.05-.041-.091-.016-.041.016.041 0 .041.016.041-.016 0 0-.091 0 .025 0 .125-.016.217-.041.334A3.617 3.617 0 0 1 52.7 50.9c-.117.1-.242.2-.358.267a1.25 1.25 0 0 1-.384.15.75.75 0 0 1-.7-.167c.05.042-.041-.083-.066-.1-.025-.05-.05-.075-.05-.117a1.083 1.083 0 0 1-.075-.383 1.417 1.417 0 0 1 .15-.775l.066-.167c.025-.066.125-.141.05-.066.025-.025.1-.084.1-.1-.075.166-.65.025-.725-.025-.066-.05-.116-.117-.091-.142 0 .05-.025.092-.025.142a4.308 4.308 0 0 1-.717 1.391 3.04 3.04 0 0 1-.842.75l-.125.042c-.166.075.05-.025-.025 0-.141-.025-.066.025 0 0h.025c-.05 0 .025.025.025 0s-.091-.067-.025 0l-.066-.092c-.292-.416-.317-1.2-.167-1.75.017-.1.067-.2.117-.291 0-.025.05-.075 0 0l.05-.075c.041-.025-.1.025-.025 0l-.15.05a.7.7 0 0 1-.525-.167c-.05-.025-.075-.075-.025-.025 0 0 .025.117 0-.05 0 .125 0 .217-.025.333a3.878 3.878 0 0 1-.959 1.684 2.538 2.538 0 0 1-.791.583l-.217.067c.125-.025-.242.025-.092.025a.533.533 0 0 1-.383-.075.567.567 0 0 1-.217-.192.833.833 0 0 1-.191-.383 1.867 1.867 0 0 1-.084-.892c.034-.233.1-.45.225-.642l.075-.075c-.083.075-.05.025-.025.025.017 0-.125.05-.025.025a.583.583 0 0 1-.533-.1c.025.025-.117-.166-.092-.116.025.05 0 .075 0 .025v.091l-.025.167c-.025.125-.075.25-.116.367a4.475 4.475 0 0 1-1.325 1.75 2.833 2.833 0 0 1-.459.266 1.223 1.223 0 0 1-.4.092c.067 0-.266-.025-.1 0l-.1-.025c.125.05 0 0-.016 0a1.55 1.55 0 0 1-.217-.192 1.633 1.633 0 0 1-.267-.75c-.025-.308 0-.641.075-.95.017-.125.067-.216.117-.333l.075-.167c.067-.1-.025 0 .067-.1l.05-.05s-.092.05-.025.025c.025-.025-.092.025-.092.025a.683.683 0 0 1-.558-.191c0-.025-.067-.075-.017-.05.092.05-.025-.117 0-.05.017.075 0 .05 0-.025-.083.25-.192.458-.367.65-.358.5-.716 1.008-1.125 1.466l-.241.284c-.409.358.7.725 1.033.358ZM25.8 58.725c.417-.475.817-.983 1.2-1.508.142-.217 1.15-1.492.417-1.534-.492-.025-1.017.384-1.284.767a3.098 3.098 0 0 0-.383 1.175c-.067.75.1 1.775.917 2.067 1.083.383 2.333-.434 3.05-1.2.383-.417.691-.867.933-1.35a2.46 2.46 0 0 0 .333-1.084c-.025-.375-.308-.425-.65-.333-.475.15-.883.5-1.083.967-.308.691-.283 1.75.292 2.325.841.866 2.208.383 3.025-.242a4.733 4.733 0 0 0 1.683-2.4c.075-.217.192-.65-.05-.817-.383-.258-1.058.267-1.292.559-.5.616-.5 1.65-.25 2.4.442 1.15 1.684.641 2.434.066a5.1 5.1 0 0 0 1.2-1.366c.216-.359.475-.817.5-1.25.025-.434-.459-.384-.75-.242-.4.192-.734.558-.884.992-.258.716-.233 1.7.5 2.083 1.067.55 2.434-.117 3.175-.883a3.617 3.617 0 0 0 1.059-2.234c0-.333-.217-.458-.559-.333-.45.167-.808.5-1 .958-.266.575-.583 1.75.017 2.209.383.283.942.091 1.3-.084.167-.066.55-.283.55-.516 0-.25-.408-.1-.525-.05a.283.283 0 0 1-.242.025.308.308 0 0 1-.216-.167c-.117-.25-.192-.508-.142-.775.025-.308.092-.6.192-.883a.586.586 0 0 1 .091-.192c.025-.025.025-.075.05-.1s.05-.05.05-.067c0 .017-.075.067-.025.017-.116.1-.266.192-.408.25.075-.033-.267.017-.242.017-.05 0 0-.05 0 .025v.05c0 .116 0 .216-.025.308-.066.292-.166.55-.283.792-.15.291-.317.533-.55.75-.083.066.092-.1-.05.016l-.1.084c.1-.084 0 0-.025 0-.142.083.075-.034-.025.016a.833.833 0 0 1-.425.117c-.7.05-1.25-.333-1.3-1.05a1.793 1.793 0 0 1 .125-.817l.067-.166.05-.1-.075.075c.1-.075-.234.116-.284.141h-.216v.167c-.025.117-.05.242-.125.358a4.217 4.217 0 0 1-.909 1.392c-.025.025-.191.15-.116.1-.05.05-.125.067-.167.092a.333.333 0 0 1-.225 0 .558.558 0 0 1-.283-.234c-.359-.5-.384-1.275-.242-1.85.025-.125.075-.216.125-.333l.017-.025-.067.067c-.1.075-.192.15-.317.166h-.191c.025-.016.025 0 .025 0s.05.125.025.05c.025.1 0 .217-.025.317a3.542 3.542 0 0 1-1.25 1.967c.1-.075-.167.091-.092.05.075-.05-.1.041-.1.041-.092.05.025 0-.067.025-.316.075-.65.05-.941-.116-.575-.317-.717-1.059-.642-1.659l.067-.383a.75.75 0 0 1 .15-.308c.041-.084 0 .016-.025.016.091-.016-.05.05-.075.05a.7.7 0 0 1-.334.142c-.075 0 0 0 0 .05.025.242-.05.458-.15.667a3.767 3.767 0 0 1-1.366 1.775l-.117.058c-.142.042-.317.067-.458.042-.65-.042-.934-.692-.984-1.25a3.04 3.04 0 0 1 .05-.95c.025-.125.075-.25.117-.367 0-.025.1-.167.05-.117.05-.075.142-.116.05-.075.092-.041-.075.05-.075.05-.075.05-.142.1-.217.117-.066.025-.116.025-.166 0l-.025-.017s-.025.117 0 .042a2.633 2.633 0 0 1-.334.6c-.358.533-.766 1.033-1.15 1.517l-.25.283c-.166.192-.016.333.2.317a.75.75 0 0 0 .75-.334Zm15.7-.283.5-.284.075-.05.142-.116a.217.217 0 0 0 .066-.167c0-.05 0-.125-.016-.167-.025-.083-.05-.125-.1-.15a.683.683 0 0 0-.409-.166.667.667 0 0 0-.433.066l-.5.292-.075.05a.583.583 0 0 0-.142.117.333.333 0 0 0-.05.333c.025.083.05.125.1.15a.924.924 0 0 0 .409.192.883.883 0 0 0 .425-.1Z" />
    <path fill="#002780"
      d="M55.083 26.208a8.878 8.878 0 0 0 2.109-1.3c.1-.041.125-.141.1-.233a.583.583 0 0 0-.25-.25.975.975 0 0 0-.834 0c-.308.25-.625.483-.958.675l-.5.292c-.1.05-.167.1-.267.141l-.075.025s-.075.05-.025.025-.025 0-.025 0l-.091.05c-.1.05-.192.092-.217.192 0 .092.05.192.142.242a.956.956 0 0 0 .416.166.826.826 0 0 0 .425-.025h.05Zm-1.8-2.783c.142-.917.4-1.8.742-2.667.092-.258-.1-.6-.333-.716-.25-.117-.559-.167-.675.116a13.558 13.558 0 0 0-.817 2.884c-.05.291.242.6.5.666.267.084.533 0 .583-.283Zm17.9 62.158S67.417 87.367 61.367 84C55.333 80.65 53 75.95 53 72.133s6.317-9.241 6.317-9.241L79.2 77.5c0-.025-4.417 7.658-8.017 8.083Z" />
    <path fill="var(--b, white)"
      d="M68.767 62.133s-6.534-3.025-10.15 1.467c-3.625 4.492-1.059 12.433 4.991 15.6 6.042 3.167 14.034 1.558 15.6-1.708 1.559-3.259-10.441-15.359-10.441-15.359Z" />
    <path fill="var(--c, black)"
      d="M69.267 61.875a11.692 11.692 0 0 0-4.325-.983c-2.75-.1-5.634 1.1-7.217 3.433-1.442 2.108-1.608 4.825-.967 7.25a12.774 12.774 0 0 0 4.609 6.833c2.566 1.917 5.858 2.784 9.025 2.759 2.783-.017 5.858-.692 8.066-2.442.6-.483 1.292-1.158 1.392-1.967a3.917 3.917 0 0 0-.383-1.875c-.75-1.825-1.967-3.458-3.142-5.016a75.717 75.717 0 0 0-4.2-4.992c-.892-.958-1.783-1.917-2.692-2.858l-.116-.142c-.192-.167-1.109.5-1.084.525.6.6 1.2 1.25 1.8 1.875 1.317 1.417 2.617 2.858 3.834 4.342a39.583 39.583 0 0 1 3.658 5.041c.425.7.792 1.417 1.05 2.184.167.5.333 1.125.167 1.683-.234.792-1 1.458-1.675 1.842a2.935 2.935 0 0 1-.584.291c-.233.1-.5.217-.758.292a15.908 15.908 0 0 1-11.108-.817 12.617 12.617 0 0 1-5.867-5.766c-1.1-2.225-1.625-4.867-.983-7.317a7.05 7.05 0 0 1 2.55-3.833c.191-.125.383-.25.575-.342a6.383 6.383 0 0 1 1.608-.433c1.825-.242 3.742.125 5.417.791.1.05.216.075.316.125.167.067.55-.191.692-.266.083.05.458-.167.333-.217Z" />
    <path fill="#002780"
      d="M80.525 45.767S64.225 65.258 63.5 66.583c-.717 1.325-.217 3.984 2.375 6.792a6.383 6.383 0 0 0 6.358 1.85c.334-.142 19.634-23.592 19.634-23.592l-11.35-5.858Z" />
    <path fill="var(--b, white)"
      d="M84 36.917s-4.342 4.558-4.467 5.375c-.116.816-.958 4.266 3.7 8.583 4.659 4.333 10.034 2.958 11.467 1.858 1.442-1.108 4.275-5.4 4.275-5.4L84 36.917Z" />
    <path fill="var(--c, black)"
      d="M83.667 36.417a60.483 60.483 0 0 0-3.859 4.358 3.667 3.667 0 0 0-.625.967 6.975 6.975 0 0 0 .142 3.6 12.417 12.417 0 0 0 2.592 4.533c1.366 1.583 3 2.95 4.941 3.75 1.492.592 3.1.858 4.684.717 1.083-.1 2.208-.334 3.141-.892.417-.267.767-.6 1.084-.958.475-.5.916-1.059 1.316-1.609a62.63 62.63 0 0 0 2.042-2.833l.117-.167c.166-.266-.309-.866-.525-.983l-5.084-3.55-8.041-5.592-1.834-1.275c-.208-.141-.116.217-.083.309.083.266.258.483.475.675l5.083 3.525 8.042 5.616 1.85 1.275-.525-1.008-1.392 2.017a21.068 21.068 0 0 1-2.525 3.05 5.217 5.217 0 0 1-2.45 1.2 9.967 9.967 0 0 1-8.95-2.4c-1.291-1.159-2.5-2.525-3.141-4.159a6.5 6.5 0 0 1-.459-2.85c.025-.266.05-.558.1-.816.042-.267.167-.484.334-.7a28.083 28.083 0 0 1 2.166-2.584c.592-.7 1.217-1.375 1.867-2.05.025-.041.067-.066.117-.116.266-.267-.475-1.175-.6-1.059ZM62.717 67.1c-.434 1.033-.192 2.308.191 3.292a9.575 9.575 0 0 0 5.759 5.166c1.441.35 3.15.234 4.441-.558.242-.192.459-.417.625-.65l1.317-1.583 2.55-3.025a.5.5 0 0 0-.125-.717c-.025 0-.025-.025-.042-.025a.667.667 0 0 0-.816.217l-3.7 4.391-.525.625.241-.216-.333.191-.2.067c-.067.025-.067.025-.092.05.142-.067.067-.025.042-.025-.192.075-.383.125-.575.192a3.803 3.803 0 0 1-1.267.15 5.267 5.267 0 0 1-1.733-.334 8.642 8.642 0 0 1-3.642-2.916 5.6 5.6 0 0 1-1.158-2.9v-.45c0-.15.025-.292.05-.434.025-.1-.025.142 0 .05l.025-.1.025-.091.025-.1a.508.508 0 0 0-.317-.65c-.025 0-.05-.025-.066-.025-.267-.067-.584.125-.7.416Z" />
    <path fill="#002780"
      d="M97.417 37.75s-3.242-3.092-7.467-3.167c-4.217-.066-5.225 1.542-5.975 2.359-.742.808-.142 6.666 5.208 9.716s7.9 2.017 9.767.692c1.883-1.317 2.217-6.517-1.533-9.6Z" />
    <path fill="var(--c, black)"
      d="M83.4 37.892a7.14 7.14 0 0 0 .15 1.733 10.914 10.914 0 0 0 1.508 3.833 12.833 12.833 0 0 0 4.492 4.084 10.981 10.981 0 0 0 4.8 1.441c.792.05 1.583-.05 2.333-.291.209-.067.567-.217.692-.45.117-.25-.192-.15-.292-.1h-.025c-.116.05.1-.025.025 0l-.333.075-.483.066c-.242.025-.475.025-.75.025a9.85 9.85 0 0 1-4.434-1.15c-3.116-1.558-5.616-4.275-6.383-7.725a7.231 7.231 0 0 1-.217-2.016c0-.192-.383 0-.475.025-.15.041-.608.258-.608.45Z" />
    <path fill="var(--b, white)"
      d="M98.308 67.8S85.492 53.467 78.842 51.1c-6.642-2.383-12.6-2.258-13.317-.942-.717 1.325 1.558 2.209 4.367 3.025 2.858.817 5.566 1.684 5.566 1.684s-17.733 5.375-9.358 6.6c0 0-6.217 4.083 2.592 3.5 0 0-2.9 2.35 1.008 2.783 3.917.433 8.042.5 8.042.5s.241 9.125 13.725 5.692c-.025 0 3.416-5.159 6.841-6.142Z" />
    <path fill="var(--c, black)"
      d="M98.808 67.567a178.725 178.725 0 0 0-3.6-3.842c-2.541-2.617-5.158-5.183-7.941-7.533a53.908 53.908 0 0 0-4.342-3.392 16.875 16.875 0 0 0-3.817-2.083 31.775 31.775 0 0 0-8.308-1.85 16.417 16.417 0 0 0-3.067 0c-.7.075-1.466.191-2.091.55-.625.366-1 .983-.767 1.683.308.917 1.483 1.392 2.3 1.7 1.35.533 2.767.892 4.133 1.3 1.125.333 2.234.667 3.359 1.033l.525.167.1-.833a65.767 65.767 0 0 0-9.767 3.783c-.5.267-1.008.583-1.467.942a2.07 2.07 0 0 0-.75.983c-.358 1.317 1.85 1.625 2.667 1.75l-.192-.817a9.039 9.039 0 0 0-1.825 1.559c-.308.358-.6.816-.575 1.325.025.616.625 1 1.159 1.166 1.316.434 2.833.342 4.166.25l-.475-.75c-.716.584-1.683 1.775-.883 2.667.333.333.742.55 1.2.65.742.167 1.508.283 2.25.308 1.492.142 3 .242 4.492.309.816.025 1.633.083 2.45.1l-.625-.409a5.7 5.7 0 0 0 .333 1.684 6.95 6.95 0 0 0 2.042 3.116 9.017 9.017 0 0 0 5.4 2.017c1.458.092 2.925 0 4.366-.267a17.79 17.79 0 0 0 1.3-.241l.667-.142c.267-.067.55-.092.75-.333a23.267 23.267 0 0 1 2.4-2.975 12.35 12.35 0 0 1 3.283-2.617 5.083 5.083 0 0 1 .834-.333c.25-.084.508-.317.391-.584-.125-.258-.5-.333-.766-.258a10.067 10.067 0 0 0-4.009 2.583 25.533 25.533 0 0 0-3.191 3.775l.333-.241a20.333 20.333 0 0 1-6.192.725 10.608 10.608 0 0 1-2.166-.367 7.492 7.492 0 0 1-.934-.358l-.191-.092c-.067-.05.125.042-.017 0l-.083-.05-.375-.217a7.142 7.142 0 0 1-.7-.483l-.092-.092-.1-.05c-.092-.091-.192-.166-.283-.266a6.163 6.163 0 0 1-.484-.55l-.191-.267-.092-.142-.05-.066c-.217-.334-.383-.7-.55-1.084-.083-.166-.125-.333-.2-.5-.017-.083-.042-.15-.067-.216 0-.05-.025-.084-.025-.125-.025-.117.025.1 0-.025a4.845 4.845 0 0 1-.166-1.05c0-.317-.384-.417-.625-.417h-.842l-.75-.017a104.992 104.992 0 0 1-6.183-.458 4.725 4.725 0 0 1-1.367-.333c-.025-.025-.217-.15-.15-.075l-.142-.142c.075.092-.025-.05-.025-.1-.025-.067 0 0 0 .025 0-.05 0-.092-.025-.117v-.075c-.025.075 0-.116 0 0 0-.05.025-.091.025-.141l.075-.167c-.05.117.05-.1.067-.125.083-.117.15-.217.25-.333l.067-.075c-.075.075.075-.092 0 0a.633.633 0 0 0 .116-.142c.1-.1.167-.167.267-.242.433-.333-.1-.766-.483-.75-.667.059-1.334.084-2.034.059-.25 0-.5-.025-.75-.05l-.283-.05-.167-.025c-.025 0-.25-.05-.1-.025l-.433-.142c-.142-.05.05.05-.067-.025l-.15-.083c-.091-.05.075.091.025.025l-.05-.05c-.041-.05-.066-.142-.016 0-.025-.025-.025-.1-.05-.125-.05-.067 0 .1 0-.017v-.125c0-.05-.025.1 0-.025 0-.05.025-.067.025-.117s.091-.216.025-.075a2.633 2.633 0 0 1 .383-.575l.092-.116.266-.267.5-.433c.167-.142.292-.242.459-.334.025-.025.1-.1.141-.1-.066 0-.141.1-.041.05.408-.266.283-.75-.192-.816a4.433 4.433 0 0 1-.558-.092l-.217-.05c-.025 0-.167-.05-.025 0l-.142-.025a2.108 2.108 0 0 1-.358-.117l-.142-.05c-.166-.075.067.05-.075-.025-.075-.05-.116-.1-.191-.141.025 0 .166.091 0 0-.075-.15-.025 0 0 0 0-.025-.025-.05-.05-.075-.025-.092 0-.025 0 .025v-.125c0-.05-.042.116 0 .041.05-.066.1-.216.025-.066.05-.075.075-.15.125-.192l.066-.1c-.116.142 0 0 .025-.025.075-.067.142-.142.217-.192.1-.066.167-.141.267-.216l.141-.092c-.141.092.05-.025.092-.05l.725-.433c.6-.309 1.2-.6 1.8-.884l.983-.433c.142-.075.309-.125.459-.192l.141-.05.05-.025.284-.091c1.25-.484 2.525-.942 3.791-1.375.675-.217 1.35-.45 2.042-.642.433-.125.583-.675.1-.842-1.95-.625-3.917-1.2-5.883-1.775-1.1-.333-2.334-.65-3.309-1.3a1.533 1.533 0 0 1-.366-.308c-.067-.1-.142-.192-.167-.317a.483.483 0 0 1 .05-.408c.025-.025.025-.042.025-.042.025-.025.025-.05.05-.083-.05.058-.075.083 0 .033l.067-.125c-.042.05-.042.025.05-.016.1-.05.116-.05.166-.1l.075-.025c.117-.05-.1.025.025 0 .117-.025.284-.092.434-.117l.233-.05.15-.025H67.3l.117-.025a13.94 13.94 0 0 1 2.641-.092c2.617.167 5.209.692 7.7 1.534a16.406 16.406 0 0 1 3.992 1.991 42.95 42.95 0 0 1 4.1 3.117c2.708 2.283 5.25 4.75 7.75 7.275 1.392 1.442 2.742 2.908 4.133 4.342l.042.075c.417.408 1.492-.025 1.033-.525Z" />
    <path fill="var(--c, black)"
      d="M76.583 58.825a177.775 177.775 0 0 1-10.7 2.208c-.216 0-.383.192-.383.409 0 .05 0 .075.025.116a.71.71 0 0 0 .75.359c3.283-.5 6.525-1.25 9.758-1.992l.917-.208c.792-.167.242-1.034-.358-.892Zm1.109 4.658c-2.259.259-4.517.55-6.767.884-.817.125-1.633.25-2.45.416-.125.017-.5.142-.383.334.116.191.6.091.741.066.6-.116 1.275-.216 1.942-.308.767-.125 1.542-.217 2.308-.333l3.884-.509.766-.1c.125-.016.6-.091.584-.283-.025-.192-.5-.192-.625-.167Zm24.116 35.709-.141-.092-.075-.05-.234-.192c-.5-.383-1.008-.766-1.491-1.158a49.125 49.125 0 0 1-4.417-3.958 29.167 29.167 0 0 1-4.342-5.375c-1.133-1.825-2.041-3.934-2.066-6.117-.05-2.425.816-4.833 2.041-6.892a19.375 19.375 0 0 1 5.109-5.616c1.85-1.342 4.033-2.4 6.333-2.567a6.897 6.897 0 0 1 3.05.458c1.158.5 2.233 1.2 3.167 2.059a17.6 17.6 0 0 1 4.158 5.5 21.108 21.108 0 0 1 1.533 3.75l.05.183c.1.267.267.483.5.65.084.075.392.267.317 0a18.325 18.325 0 0 0-1.108-2.975 23.25 23.25 0 0 0-3.884-6.05 19.167 19.167 0 0 0-3.216-2.858 8.9 8.9 0 0 0-3.309-1.534c-2.258-.458-4.583.242-6.583 1.325a18.233 18.233 0 0 0-5.85 5.134 15.417 15.417 0 0 0-3.075 6.983c-.333 2.333.217 4.583 1.25 6.667a27.583 27.583 0 0 0 4.417 6.216 52.708 52.708 0 0 0 5.016 4.809c.984.833 2.017 1.625 3.042 2.4l.15.091c.192.117.258.025.192-.166a1.45 1.45 0 0 0-.534-.625Z" />
    <path fill="var(--c, black)"
      d="M91.667 82.108c-.15.334-.342.934.083 1.15.083.05.167.05.25.075.233.025.475.05.717.025.241 0 .458-.05.666-.141a.717.717 0 0 0 .317-.6 1.225 1.225 0 0 0-.458-.775c-.042-.042-.234-.042-.259-.042h-.458c-.117 0-.242.025-.358.042-.025 0-.1.025-.05.075l.075.075-.025-.025c.308.308.55.816.191 1.166l.025-.016a.5.5 0 0 1-.125.1l-.066.016h-.025c-.025.025.05-.016 0 0-.05.025.05 0 .05 0h.808-.017c.042.025 0 0-.025 0a.433.433 0 0 1-.125-.091l.025.025c-.266-.292-.091-.75.05-1.059.025-.025-.191-.075-.166-.05a2.608 2.608 0 0 0-.434-.025c-.141 0-.291 0-.433.025-.117 0-.217 0-.242.05Zm1.6 7.125a30.333 30.333 0 0 1 9.333-11.666l.483-.359.259-.191c.1-.067 0 0-.025 0l.191-.117c.367-.242.7-.483 1.059-.7l-.05.025.15-.092.258-.166c.192-.125.367-.217.558-.317.025-.025.092-.05.117-.067-.075.092-.167.092-.05.017l.292-.142.55-.283c.05-.025.216-.125.05-.025-.167.092.025-.025.05-.025l.333-.167.65-.316-.05.025.167-.075.333-.142.675-.267.192-.066.333-.125.675-.234c.433-.15.867-.291 1.3-.416a5.545 5.545 0 0 0 1.483-.717c.125-.067.417-.217.434-.358.025-.142-.075-.092-.167-.075a35.425 35.425 0 0 0-10.708 5.091 33.333 33.333 0 0 0-7.892 7.684 29.717 29.717 0 0 0-3.075 5.275c-.117.241.792-.167.833-.192.3-.117.559-.283.825-.458.142-.067.359-.192.434-.359Z" />
  </g>
</svg>