<svg xmlns="http://www.w3.org/2000/svg" viewBox="0 0 120 120" fill="none">
  <g id="doc">
    <path fill="var(--a, blue)"
      d="m31.97 57.46 3.31 44.1s-1.75.6-1.6 1.01c.14.41.25 1.71.93 2.62.66.92 14.8 3.93 27.69 1.51 12.9-2.42 14.52-4.73 14.52-5.33 0-.6.63-3.45 0-4.39-.62-.93-.98-.98-.98-.98s2.9-36.55 2.16-40.6c0 0 1.3-.78 1.3-1.62 0-.83-.46-5.33-.63-6.29-.16-.96-18.65-5.67-34.08-3.04-15.43 2.62-15.29 7.12-15.29 7.5 0 .4.6 3.76.6 4.14 0 .38 2.07 1.37 2.07 1.37Z" />
    <path fill="var(--a, blue)"
      d="m31.68 56.95.26 3.67.68 9.02.86 11.45.82 10.92.55 7.46c.02.5.07 1.01.12 1.52 0 .03.02.07 0 .1.02-.05-.12.02-.15.02-.19.07-.38.14-.58.24-.25.12-.88.33-.9.7.02.16.04.32.12.5a6.8 6.8 0 0 0 1.31 3.04c.1.15.25.25.42.32.5.24 1.05.41 1.58.52a46.25 46.25 0 0 0 6.5 1.19c6.58.79 13.3.76 19.83-.49a76.36 76.36 0 0 0 8.62-2.08 18.42 18.42 0 0 0 4.12-1.75c.46-.3 1.06-.68 1.27-1.2.1-.34.12-.68.15-1 .14-1.08.38-2.28.06-3.33a5.47 5.47 0 0 0-1.1-1.83c-.14-.17-.38-.45-.62-.5l.62 1.01.36-4.82c.3-3.72.55-7.44.82-11.19a660 660 0 0 0 .8-12.8c.16-3.26.35-6.49.32-9.73 0-.46 0-.92-.04-1.37 0-.17-.02-.33-.05-.5 0-.05-.05-.15-.02-.2.02-.04.29-.19.33-.2.43-.32.92-.78.97-1.33 0-.36 0-.72-.05-1.09-.1-1.16-.22-2.32-.36-3.47-.05-.46-.13-.93-.17-1.4a2.9 2.9 0 0 0-.5-1.22c-.25-.3-.59-.52-.94-.65-1.52-.62-3.15-.98-4.73-1.34a86.4 86.4 0 0 0-17.57-2.02c-3.4-.07-6.82.15-10.2.65A48.32 48.32 0 0 0 35.83 46a17.57 17.57 0 0 0-4.77 2.42 5.36 5.36 0 0 0-1.74 2.01c-.14.32-.23.68-.23 1.01.03.33.07.7.14 1.03.1.56.17 1.11.27 1.66l.2 1.28c.06.5.32.98.68 1.31.54.53 1.33.87 1.97 1.18.1.05-.12-.38-.14-.4-.1-.18-.24-.53-.44-.6l-.98-.5-.72-.47-.21-.16c-.08-.05.43.75.43.76v-.11c-.05-.46-.12-.92-.19-1.35l-.3-1.8c-.08-.6-.16-1.09.06-1.65a5.23 5.23 0 0 1 1.75-2.15 17.57 17.57 0 0 1 5.41-2.66 52.03 52.03 0 0 1 10.5-2.25 69.92 69.92 0 0 1 11.2-.34c3.4.17 6.78.5 10.11 1.03 2.48.38 4.94.92 7.37 1.57.72.19 1.42.4 2.12.69.19.07.38.16.55.26.02.03.05.05.06.05.05.02 0 .02.03.02-.03 0-.5-.86-.5-.86s0 .04.02.1l.04.26c.17 1.2.3 2.38.42 3.58.04.55.08 1.12.14 1.67.03.48.07.92-.25 1.33-.28.35-.61.65-1 .89v.02c.1.7.14 1.4.12 2.06 0 1.18-.03 2.35-.04 3.53-.1 3.31-.3 6.6-.49 9.89-.21 3.75-.45 7.49-.71 11.2l-.68 9.34-.24 3.05c-.05.48-.12.96-.12 1.44v.05c-.02.17.22.45.29.6.07.14.19.38.33.41.2.02.43.3.56.45l.17.22s-.2-.39-.2-.34l.08.29c.04.21.04.45.04.67a21.45 21.45 0 0 1-.26 2.78c0 .37-.15.7-.38.97-.53.5-1.16.91-1.85 1.22a26.48 26.48 0 0 1-4.25 1.58c-2.5.75-5.04 1.3-7.58 1.78-2.98.55-6 .89-9.03.99a69 69 0 0 1-14.9-1.14 18 18 0 0 1-3.79-.98c-.15-.05-.25-.12-.38-.19l-.05-.05c.05 0 .19.33.11.15-.09-.3-.21-.58-.28-.87l-.15-.7c-.03-.11-.1-.26-.04-.38.11-.28.61-.45.86-.58.24-.11.48-.19.72-.28v-.02l-.1-1.18-.24-3.22-.36-4.75-.43-5.79-.48-6.36-.48-6.38-.46-5.97-.38-5.05-.26-3.65-.13-1.72v-.07a1.83 1.83 0 0 0-.33-.67c-.12.05-.38-.27-.36-.22Z" />
    <path fill="var(--c, black)"
      d="M31.97 51.8s10.05 3.4 27.16 1.96c17.12-1.44 17.7-4.3 17.43-6.03-.26-1.72-16.78-4.8-28.15-2.7-11.38 2.08-20 4.58-16.44 6.76Z" />
    <path fill="var(--b, white)"
      d="M36.33 102.28a97.5 97.5 0 0 0 14.88 1.76 63.17 63.17 0 0 0 12.6-.65 28.47 28.47 0 0 0 8.16-2.5c.82-.38 1.56-.86 2.29-1.42a5.15 5.15 0 0 0 1.21-1.26l.15-.27c.07-.14-1.03-.62-1.1-.48a3.5 3.5 0 0 1-.96 1.17c-.6.54-1.28 1.02-2 1.4a25.72 25.72 0 0 1-7.46 2.57 56.75 56.75 0 0 1-12.26.93 93.67 93.67 0 0 1-16.16-1.72l-.06-.03c-.22-.05-.22.03-.08.14.24.2.5.32.8.36ZM32 57.86c1.63.48 3.28.81 4.94 1.15 4.11.81 8.25 1.39 12.44 1.68 5.08.36 10.22.31 15.26-.38a43.02 43.02 0 0 0 9.77-2.45 18.46 18.46 0 0 0 3.57-1.75l.05-.03c.53-.38-.43-1.03-.81-.75a15.5 15.5 0 0 1-2.81 1.44 39.8 39.8 0 0 1-8.78 2.45 68.76 68.76 0 0 1-14.75.73 92.57 92.57 0 0 1-18.81-2.88l-.07-.03c-.22-.07-.55.03-.58.3-.02.25.36.43.58.52Zm4.34 4.17c0 1.34.1 2.7.14 4.01l.32 8.31c.12 3.28.27 6.6.38 9.88l.34 8.7c.05 1 .07 2.01.12 3.02l.03 1.02v.76c0 .46 1.16.65 1.16.26 0-1.33-.08-2.68-.14-4l-.28-8.3c-.13-3.3-.27-6.6-.38-9.9-.13-2.9-.22-5.78-.34-8.68l-.12-3.03-.03-1.03v-.75c0-.46-1.17-.65-1.2-.27Zm9.46 1.16c0 1.28 0 2.54.03 3.82.02 2.73.02 5.47.05 8.2.02 3.25.05 6.5.05 9.76l.04 8.51.02 4.49v.14c0 .7 1.2.58 1.2-.07l-.02-3.82-.04-8.2c-.03-3.25-.03-6.5-.05-9.75-.03-2.84-.03-5.69-.05-8.52 0-1.48 0-3-.03-4.48v-.15c0-.7-1.2-.58-1.2.08Zm8.3.22v35.3c0 .19 1.18.29 1.18.26v-35.3c0-.19-1.18-.29-1.18-.26Zm8.64-.3v33.96c0 .44.87 1.13.87.44V63.55c0-.43-.87-1.13-.87-.43Zm7.97-1.29v34.34c0 .41 1.13.77 1.13.31V62.14c0-.39-1.13-.77-1.13-.32Zm11-49.45s-10.63 1.8-14.2 2.21c-3.58.44-5.4 1.98-3.65 3.46 0 0-1.88.38-1.8 2.38.07 2 3.38 2 7.3.91 0 0-1.95 4.13-.13 6.1 1.83 1.96 3.12-.25 3.08-1.73-.05-1.5 2.44-4.3 4.72-3.55 2.28.74 1.85 3.88-.83 4-2.69.12-5.79.94-4.37 3.67 1.41 2.75 15.65-.45 17.08-4.91" />
    <path fill="var(--c, black)"
      d="M81.38 11.93c-2.18.39-4.36.74-6.58 1.09-1.68.25-3.33.52-5 .78l-2.03.3c-.94.08-1.87.25-2.78.52-.79.26-1.83.66-2.2 1.46-.39.82.11 1.64.73 2.16v-.62a2.58 2.58 0 0 0-2.01 2.75c.07.8.66 1.42 1.36 1.75.82.4 1.78.44 2.67.4 1.4-.08 2.76-.32 4.1-.7l-.82-.8a9.13 9.13 0 0 0-.93 4.37 3.72 3.72 0 0 0 1.68 2.88c.45.34 1.05.48 1.61.39a1.9 1.9 0 0 0 1.09-.82c.25-.43.42-.89.5-1.39.05-.43 0-.77.14-1.18a4.8 4.8 0 0 1 1.94-2.25 3.15 3.15 0 0 1 1.44-.5c.24-.03.46.02.67.06.16.05.34.13.48.25.03.02.1.07 0 0 .05.04.1.07.13.11.11.13-.03-.04.02.05l.07.13c.07.11.15.25.16.4.09.34.05.7-.06 1.03-.36.84-1.2 1.18-2.04 1.2-1.11.02-2.19.25-3.22.62-.8.34-1.56.95-1.63 1.85-.05.82.26 1.61.86 2.19.96.81 2.4.91 3.6.89 1.73-.05 3.46-.3 5.14-.75a24.17 24.17 0 0 0 5.11-1.87c1.27-.65 2.64-1.49 3.41-2.71.17-.24.28-.5.36-.8.14-.43-.9-1.03-1.06-.5-.36 1.13-1.53 2.02-2.57 2.65a20.62 20.62 0 0 1-4.65 2.03A26.33 26.33 0 0 1 76 30.38a12.13 12.13 0 0 1-2.53-.02l-.21-.02-.15-.02c-.11-.03-.24-.05-.35-.1l-.17-.05c.14.05 0 0-.05-.03l-.13-.07c-.14-.07.1.07-.01 0a.52.52 0 0 0-.13-.07c.17.1.05.02-.02-.03-.12-.09.1.1 0 0-.1-.16-.03-.02 0 0a2.6 2.6 0 0 1-.26-.71c-.2-.87.3-1.5 1.05-1.85a7.8 7.8 0 0 1 2.96-.67c.52 0 1.02-.1 1.53-.27a2.5 2.5 0 0 0 .98-.75c.49-.61.6-1.48.31-2.22a3.02 3.02 0 0 0-2.22-1.75c-2.02-.42-4.16 1.27-4.79 3.14-.11.38-.06.77-.11 1.15-.05.46-.24.92-.5 1.28-.22.28-.56.57-.94.5-.39-.08-.72-.46-.92-.77-.48-.8-.43-1.83-.28-2.7.12-.78.33-1.55.65-2.3l.1-.18c.01-.03.01-.08.04-.1.19-.39-.45-.89-.82-.8-1.05.3-2.16.5-3.26.63-.79.12-1.6.1-2.4-.07-.12-.02-.25-.08-.36-.12-.02-.03-.21-.12-.1-.05l-.1-.04c-.09-.08.05.04 0 0l-.04-.05-.12-.15c.05.07-.03-.07-.03-.1l-.01-.14a2 2 0 0 1 1.29-2.23l.07-.03.1-.02.1-.03c.35-.06.19-.47 0-.62a1.1 1.1 0 0 1-.46-.62.8.8 0 0 1 .14-.65c.41-.62 1.25-.96 1.95-1.15 1.46-.46 3.06-.56 4.6-.77 3.12-.45 6.21-.99 9.34-1.49l2.27-.38c.27-.05.22-.36.1-.53-.19-.31-.45-.45-.75-.43Z" />
    <path fill="var(--c, black)"
      d="m73.94 15.7-3.43.65-5.47 1.05-1.25.25c-.24.04-.55.23-.5.52.04.29.43.34.67.29l3.43-.65 5.47-1.05 1.25-.25c.24-.04.55-.24.5-.52-.04-.29-.45-.33-.67-.29Z" />
    <path fill="var(--b, white)" d="M74.1 17.5s-3.66 1.7-4.77 3.87l4.78-3.87Z" />
    <path fill="var(--c, black)"
      d="M73.77 17.2c-.45.22-.91.47-1.34.72a13 13 0 0 0-2.55 1.9 5.77 5.77 0 0 0-1.1 1.42c-.29.58.87.67 1.09.24a6.74 6.74 0 0 1 2.03-2.16 21 21 0 0 1 2.08-1.3l.47-.24c.22-.09.36-.36.14-.55a.77.77 0 0 0-.82-.02Z" />
    <path fill="var(--b, white)"
      d="M40.15 52c-1.3-.48 11.33-18.67 13.03-31.43l21.03 5.47s.38 14.44-12.1 26.73c0 0-13.94 2.24-21.96-.76Z" />
    <path fill="var(--c, black)"
      d="M40.22 51.58c.15.07.29.22.36.36.03.05.03.05 0 0s-.02.14 0 .03c.03-.17.08-.32.12-.49l.05-.14c0-.02.02-.07.05-.1l.14-.36.43-.88c.89-1.75 1.85-3.48 2.76-5.2 1.28-2.37 2.5-4.72 3.67-7.12a98.17 98.17 0 0 0 3.5-8.04 40.88 40.88 0 0 0 2.24-7.87l.14-.94-.47.25 2.08.54 5.02 1.3 6.07 1.59 5.25 1.36c.84.22 1.71.5 2.55.67h.03l-.6-.57v.41c0 .04 0 .17 0 0v.39a33.33 33.33 0 0 1-.6 4.72 39.97 39.97 0 0 1-4.92 12.77 42.27 42.27 0 0 1-6.43 8.16l.23-.08c-1.7.27-3.4.44-5.13.58-3.55.27-7.15.36-10.7-.02a28.69 28.69 0 0 1-5.84-1.32c-.21-.1-.55-.1-.62.2-.08.28.24.54.45.64 2.04.72 4.18 1.18 6.33 1.37 2.24.22 4.5.31 6.75.23 2.98-.06 5.93-.3 8.89-.74l.25-.02c.39-.07.7-.5.97-.77a40.77 40.77 0 0 0 10.92-20.78 30.97 30.97 0 0 0 .58-5.5v-.07c0-.29-.37-.5-.6-.58L72.04 25l-5.02-1.3-6.07-1.58-5.25-1.36c-.85-.22-1.71-.49-2.55-.67h-.03c-.19-.06-.46.02-.47.23a38.63 38.63 0 0 1-2.1 8.02 89.17 89.17 0 0 1-3.48 8.16c-1.2 2.47-2.46 4.91-3.76 7.34-.96 1.8-1.95 3.58-2.86 5.37a15.4 15.4 0 0 0-.77 1.74c-.12.36-.23.76-.02 1.1.1.15.26.26.43.33.22.1.55.08.62-.2.08-.3-.26-.5-.5-.6Z" />
    <path fill="var(--c, black)"
      d="M55.25 29.96c1.17.45 2.7 0 3.25-1.18.32-.65.17-1.58-.72-1.6-.79 0-1.26.95-1.41 1.62-.34 1.47.99 2.52 2.35 2.47 1.42-.02 2.47-1.25 2.98-2.47.24-.62.33-1.42-.27-1.84-.65-.46-1.46-.2-1.91.4-.82 1-.6 2.59.11 3.6a3.1 3.1 0 0 0 3.42 1.1 2.85 2.85 0 0 0 1.52-1.05c.27-.31.4-.72.3-1.13a1 1 0 0 0-.84-.69c-.94-.15-1.37 1.03-1.33 1.8a2.33 2.33 0 0 0 1.2 1.82c.7.39 1.54.48 2.34.26.73-.24 1.48-.88 1.33-1.72-.11-.65-1.29-.65-1.2.05.09.38-.33.62-.66.72-.39.09-.77.05-1.11-.1a1.19 1.19 0 0 1-.67-.82c-.07-.3-.05-.88.26-1.03l-.28.07c.14-.02-.22-.09-.2-.09l-.07.17c-.05.07-.09.16-.17.21-.16.17-.35.31-.55.44-.35.16-.79.23-1.2.16-.91-.16-1.46-1-1.51-1.91a1.83 1.83 0 0 1 .33-1.28l.23-.17-.09-.05c.06.2.06.39-.01.58-.3.83-1.06 1.92-2.02 1.94-.4.03-.8-.17-1-.5a1 1 0 0 1-.03-.79c.05-.15.1-.3.19-.42.05-.06.07-.13.12-.2.03-.03.04-.06.04-.08.1-.07.09-.1-.01-.03l-.32-.04c-.05-.02-.07-.07-.09-.12s-.03-.05-.03 0v.1a1.4 1.4 0 0 1-.55.74c-.33.24-.77.3-1.18.17a.6.6 0 0 0-.79.21c-.14.22-.03.53.25.67Zm-.63 5.6c.8.13 1.68.26 2.45-.11a1.96 1.96 0 0 0 1.17-1.66.62.62 0 0 0-.42-.55c-.87-.22-1.32.5-1.45 1.25-.11.7-.26 1.63.05 2.3.31.67 1.2.82 1.88.82a4.17 4.17 0 0 0 1.94-.41c.58-.26 1.1-.67 1.48-1.15.46-.53.8-1.37.22-1.94-.52-.54-1.44-.42-1.92.14-.48.55-.55 1.4-.62 2.07-.1.81-.1 1.72.48 2.37.53.63 1.44.77 2.14.31.21-.17.24-.5.05-.7l-.05-.04a.65.65 0 0 0-.84-.08c-.15.13-.36-.04-.49-.21-.2-.34-.19-.82-.17-1.2.03-.48.1-.96.25-1.42a.94.94 0 0 1 .21-.45l.1-.08c.04-.05.1.05.02-.02-.07-.07-.04-.05-.07-.03s-.05.22-.1.27a3 3 0 0 1-1.2 1.13c-.64.33-1.36.45-2.08.33l-.13-.02c-.02 0-.16-.07-.14-.05.1.1.03-.05 0-.11a5.06 5.06 0 0 1 .17-1.92c.12-.27.17-.05-.14-.13l-.44-.55a.96.96 0 0 1-.71.84c-.54.19-1.16.05-1.71-.02-.28-.05-.55.17-.6.45v.03c.1.29.36.53.67.55Zm-5.29 8.69a3.37 3.37 0 0 0 3.15-1.1c.46-.53.32-1.44-.43-1.63-.55-.15-1.03.26-1.3.72a2.92 2.92 0 0 0 .44 3.33c.43.49 1.05.75 1.7.7a4 4 0 0 0 1.83-.81 3.92 3.92 0 0 0 1.31-1.35c.27-.55.22-1.17-.14-1.68-.38-.52-1.2-.76-1.6-.14a4.75 4.75 0 0 0-.6 1.9c-.17 1.27.11 2.73 1.3 3.43.52.3 1.16.38 1.74.14.5-.2 1.23-.58 1.49-1.09a.9.9 0 0 0-.41-1.19.92.92 0 0 0-.8 0c-.57.29-.74 1.03-.61 1.63.14.65.57 1.2 1.15 1.49.62.3 1.34.33 2.02.14.28-.07.3-.47.21-.69a.64.64 0 0 0-.72-.36c-.46.1-1.15.1-1.46-.29-.15-.17-.32-.93.12-.92l-.27-.04-.07-.05-.15-.27c-.04-.16.08-.11-.02-.04l-.1.1a3.82 3.82 0 0 1-.98.54.97.97 0 0 1-1.06-.25c-.62-.73-.43-2.02-.14-2.84.03-.07.29-.6.27-.62-.03-.03-.15 0-.15-.03s.05-.14.02.03l.03.21c-.03.46-.5.82-.83 1.06-.64.5-1.79 1.34-2.48.55a1.58 1.58 0 0 1-.33-1.25 1.6 1.6 0 0 1 .4-.88l.07-.05.08-.03c.09.08 0 .03-.3-.16l-.07-.3c.03.2-.23.36-.36.46-.19.15-.38.29-.62.36-.44.2-.92.24-1.37.17-.75-.12-.65.98 0 1.1h.05Zm12.3 4.13a.45.45 0 0 0-.05.2v.04l.03.15a1.67 1.67 0 0 0 .24.45l.14.15c.07.07.14.15.24.19a.33.33 0 0 0 .14.05h.05l.07-.03.03-.02.05-.03.09-.06a.75.75 0 0 0 .19-.27.94.94 0 0 0 .08-.36.44.44 0 0 0-.06-.17.72.72 0 0 0-.09-.19l-.14-.19c-.05-.05-.1-.12-.17-.17l-.1-.08a.45.45 0 0 0-.19-.04l-.07.02c-.05.05-.05.1-.05.15v.07-.1c-.02.1-.04.22-.12.3l.05-.06a.75.75 0 0 1-.27.22l.25.02.09.08-.02-.03.12.1-.03-.03.1.13-.02-.03.09.12-.03-.03.08.13-.03-.03.05.12-.02-.04.02.09v-.07.1l.03-.08a.15.15 0 0 0 0-.14c0-.08-.03-.12-.05-.17a.52.52 0 0 0-.12-.19l-.15-.2-.11-.1c-.08-.03-.12-.08-.22-.1h-.1c.02.07-.02.08-.02.13Zm2.14-8.82c-.08.23-.05.5.09.71.02.05.14.05.19.05h.33l.4-.02.25-.08c.1-.06.17-.19.13-.3a.38.38 0 0 0-.1-.17c-.08-.08-.2-.1-.29-.1h-.43c-.15 0-.29.02-.43.05l-.1.02c-.03 0-.07.03-.07.05l.03.02c.04.03.09.03.16.03.05 0-.12-.03-.07 0h.02l-.07-.03.1.05-.03-.02c.1.1.1.24.03.35l.02-.01-.07.04 1.17-.04a1.07 1.07 0 0 1-.09-.73c0-.05-.19-.05-.19-.05a1.3 1.3 0 0 0-.43 0c-.15 0-.3.03-.44.05l-.1.03c.03.05-.01.05-.01.1Z" />
    <path fill="var(--b, white)"
      d="M90.7 24.75s-5.05 5.63-13.07 6.2c-8.01.54-6.47-4.6-4.2-4.6 2.29 0 5.36-.45 5.5-3.36" />
    <path fill="var(--c, black)"
      d="M90.2 24.5a16.97 16.97 0 0 1-3 2.55 19.62 19.62 0 0 1-8.13 3.33c-.88.14-1.77.22-2.66.22-.67 0-1.34-.08-2-.2-.14-.02-.25-.07-.4-.1l-.17-.03c-.02 0-.22-.08-.12-.05-.21-.08-.4-.2-.6-.3 0 0-.14-.09-.19-.14-.07-.07-.16-.11-.24-.19l-.02-.05-.07-.07c-.05-.07-.13-.15-.15-.21l-.07-.1-.02-.05c-.03-.07-.08-.14-.1-.24l-.05-.19c-.02-.05 0-.07-.02-.1-.02-.02 0 .05 0-.05a2.34 2.34 0 0 1 .1-.62l.04-.12c.05-.12.12-.27.2-.38.02-.05.07-.1.11-.14l.1-.1.14-.12.08-.05c.09-.08-.08.05.02-.03.1-.07.12-.07.17-.09l.1-.05c-.13.03.07-.02 0 0l.16-.05h-.02.12c.29 0 .58 0 .86-.02a9.8 9.8 0 0 0 2.04-.29c1.25-.33 2.47-1.03 2.93-2.3.12-.34.2-.72.22-1.09.02-.52-1.15-.61-1.2-.11a2.8 2.8 0 0 1-.73 1.8c-.4.41-.93.72-1.5.89-.63.19-1.28.28-1.95.3-.48.03-.98-.02-1.44.1-1.27.36-2.12 1.83-1.58 3.07.38.9 1.22 1.42 2.08 1.74 1.44.52 3.05.55 4.57.45a20.53 20.53 0 0 0 9.33-3.1 18.83 18.83 0 0 0 3.98-3.16l.05-.05c.44-.5-.65-.87-.98-.5Z" />
  </g>
</svg>