<svg xmlns="http://www.w3.org/2000/svg" fill="none" viewBox="0 0 120 120">
  <g id="doc">
    <path fill="var(--c, black)"
      d="M6.53 101.02S9.8 64.54 24 65.64c14.18 1.1 24.17 35.74 24.17 35.74s-32.33-.36-41.64-.36z" />
    <path fill="var(--c, black)"
      d="M7.08 100.9c.1-1.16.24-2.3.4-3.44.4-2.78.87-5.54 1.45-8.3.7-3.4 1.6-6.74 2.76-10.03 1.13-3.15 2.42-6.12 4.39-8.76.1-.15.22-.3.31-.41l.17-.22.05-.07c-.1.12.05-.05.05-.07a22.5 22.5 0 0 1 1.49-1.49l.19-.14c.14-.12.02-.03 0 0l.1-.07.4-.32c.26-.19.53-.36.82-.52l.1-.08c.11-.07-.13.08 0 0l.18-.1a8.25 8.25 0 0 1 .87-.38l.24-.07c.17-.05.02 0 0 0l.12-.02c.31-.1.62-.17.96-.22l.19-.02c.05 0 .29-.03.14-.03.17-.02.34-.02.5-.02a6.63 6.63 0 0 1 1.97.17c.37.07.73.17 1.06.29 1.4.5 2.71 1.22 3.87 2.16 2.78 2.16 4.99 5.06 6.88 8.01a82.53 82.53 0 0 1 5.48 10.27 127.54 127.54 0 0 1 5.32 14.3l.08.25.74-.72-3.29-.03-8.2-.1-10.69-.09c-3.55-.02-7.08-.05-10.63-.1l-8.13-.04H6.7a.75.75 0 0 0-.7.48c-.07.17 0 .38.17.45.05.03.12.03.17.03l7.65.02 10.47.07 10.82.1 8.64.1c1.34 0 2.69.07 4.03.04H48c.31 0 .84-.33.72-.72a132 132 0 0 0-4.44-12.36 88.84 88.84 0 0 0-5.16-10.5 40.5 40.5 0 0 0-6.77-8.96c-2.23-2.14-4.99-3.91-8.16-4.15-2.85-.22-5.47 1.13-7.44 3.12-2.28 2.3-3.84 5.25-5.09 8.23a66.02 66.02 0 0 0-3.24 10.25A118.82 118.82 0 0 0 6 100.87l-.02.24c-.05.67 1.05.31 1.1-.21z" />
    <path fill="var(--b, white)"
      d="M42.58 93.98s12.76-7.32 20.25-6c7.49 1.32 8.98 7.13 6.5 7.06 0 0 1.42 2.9-.69 2.9 0 0 1.06 2.48-.53 2.81-1.58.34-3.33-4.65-6.6-5.9-3.26-1.25-4.05.89-2.2 2.54 1.84 1.66 3 2.9.79 3.6-2.21.7-6.34-3.84-6.34-3.84s-.8 1.49-3.17 1.49-8.01-4.66-8.01-4.66z" />
    <path fill="var(--c, black)"
      d="M42.86 94.44c1.06-.6 2.14-1.15 3.22-1.68a56.7 56.7 0 0 1 7.3-2.98c2.64-.86 5.37-1.53 8.16-1.39a11.8 11.8 0 0 1 5.92 2.07c.24.16.48.36.7.57l.29.29.14.14.05.08c.07.07 0 0 .02.04a6 6 0 0 1 .8 1.16l.04.1c-.02-.08.03.06.05.09l.12.29c.05.16.1.33.12.52-.02-.16 0 .08 0 .12v.34c0-.07.03-.1 0-.02l-.05.19c-.02.07.08-.12 0-.03l-.04.08c-.08.14.07-.08-.03.02s.12-.05-.02.02c-.03 0-.07.03-.07.05.02-.02.14-.05.02-.02l-.1.02c-.12.05.05 0 .05 0h-.21a.57.57 0 0 0-.5.84c.04.1.09.2.11.29.1.29.2.58.24.89.03.1 0-.05 0 .02v.36c0 .07-.02.24 0 .15l-.07.21c.05-.14-.12.15 0 0l-.1.1c.08-.05.05-.03 0 0-.04.02-.14.05 0 0l-.12.05c-.04.02.08 0-.04 0h-.2c-.3 0-.74.36-.57.72.1.24.17.48.24.72.05.19.1.4.1.6.02.19 0 .4-.08.57-.02.05 0 0 0-.02l-.05.07-.04.07s.04-.07.02-.02-.14.12-.05.05l-.07.04c.1-.02-.1.03 0 0-.02 0-.22.05-.1.03.12-.03-.02 0-.04 0-.03 0 .04-.03.02 0-.02.02-.17-.05-.05 0 .12.05-.05-.03-.05-.03l-.1-.04c-.04-.03-.09-.05 0 0l-.11-.1a6.91 6.91 0 0 1-.48-.43c-.12-.15-.27-.29-.43-.5l-.5-.65-1.14-1.44a9.6 9.6 0 0 0-2.95-2.52c-1.13-.53-2.83-.96-3.89-.08-.88.75-.52 2.02.1 2.81.5.6 1.13 1.08 1.68 1.66.22.21.38.45.55.72.05.07.1.17.1.26.02.1 0-.05.02.05v.07c0 .1.03-.12 0 .03-.02.1.03-.05-.02.04-.03.03-.1.12-.03.05a.83.83 0 0 1-.28.22l-.41.17-.15.04c-.07.03.05 0 .05 0h-.29c-.12 0-.24-.02-.36-.04l-.14-.05-.1-.03a10.93 10.93 0 0 1-3.02-2c-.6-.5-1.15-1.04-1.68-1.6l-.1-.1c-.24-.26-.76-.11-.93.18l-.07.12a.52.52 0 0 1-.1.12 2.47 2.47 0 0 1-1.03.72 4.72 4.72 0 0 1-1.35.26h-.19c-.1 0 .12.02-.05 0a3.16 3.16 0 0 1-.72-.17l-.36-.14c-1.9-.77-3.57-2-5.18-3.22l-1.25-.98c-.53-.43-1.41.33-.84.81 1.18.99 2.43 1.9 3.72 2.74.94.65 1.92 1.2 2.95 1.66a4.7 4.7 0 0 0 3.34.19c.82-.27 1.7-.8 2.11-1.56l-.93.17a17.1 17.1 0 0 0 4.05 3.38c.99.58 2.09.91 3.2.46.62-.24 1.27-.68 1.29-1.42.02-.65-.43-1.22-.82-1.68-.28-.31-.57-.6-.88-.89a5.99 5.99 0 0 1-1.04-1.1l-.1-.2c-.02-.02-.02-.07-.04-.09-.05-.1-.07-.22-.1-.34 0 .08-.02-.1 0 0v-.26c-.02.12.08-.2.05-.12-.02.07.03-.05.05-.07.07-.1-.05.02.05-.05s-.03 0 .02-.02c.05-.03.1-.05.15-.1.1-.05-.08.02.04-.02a.63.63 0 0 1 .22-.05c-.1.02.05 0 .07 0h.24a5.34 5.34 0 0 1 1.54.36c2.33.96 3.4 3.45 5.09 5.16.72.72 1.75 1.1 2.61.33.8-.72.58-1.99.27-2.88-.03-.07-.05-.14-.1-.21l-.58.7c.58.02 1.13-.22 1.47-.68.24-.36.33-.81.29-1.25a5.48 5.48 0 0 0-.53-1.82l-.53.84c.77.05 1.44-.46 1.63-1.2.2-.82-.12-1.68-.5-2.4-1.4-2.47-4.25-3.82-6.87-4.4-2.9-.62-5.9-.11-8.73.66a52.1 52.1 0 0 0-8.26 3.12 44.08 44.08 0 0 0-4.25 2.16l-.07.02a.54.54 0 0 0-.21.74v.03c.16.17.5.24.76.07z" />
    <path fill="var(--c, black)"
      d="M63.53 93.12a21.45 21.45 0 0 1 3.7 3.53c.38.45.71.96.95 1.51.08.26.36.43.63.36a.52.52 0 0 0 .36-.62l-.07-.17a10.9 10.9 0 0 0-2.19-2.95 33.77 33.77 0 0 0-2.35-2.19l-.5-.4a.49.49 0 0 0-.68.04c-.02.03-.02.05-.04.05-.15.31-.08.65.19.84zm2.64-1.44c.38.34.77.7 1.1 1.08.17.17.31.36.48.53.24.26.12.14.03.05l.12.16.21.3c.15.18.27.4.41.62l.1.19c.04.12-.03-.05.02.07.05.12.12.24.17.38.12.3.38.48.7.48.19 0 .35-.14.38-.33 0-.05 0-.12-.03-.17a8.92 8.92 0 0 0-1.8-2.71c-.36-.41-.76-.8-1.17-1.15-.2-.17-.53-.36-.77-.17-.24.19-.14.53.05.67z" />
    <path fill="var(--b, white)"
      d="M27.6 88.4s2.9-2.2 9.77-1.98c10.85.34 17.85 7.23 16.82 9.08-1.03 1.84-3.05-.65-5.61-1.78-2.57-1.13-3.36-1.13-3.36-1.13s8.42 7.06 3.76 8.6c0 0-1.05 2.32-2.5.71 0 0-.54 1.54-2 .41-1.47-1.13-2.77-3.62-5.38-3.21-1.16.19-1.73.55-6.72.55-.36 0-4.78-11.26-4.78-11.26z" />
    <path fill="var(--c, black)"
      d="M28.18 88.6c-.08.06.02-.02.04-.02l.22-.14c.29-.17.58-.31.86-.43a15.7 15.7 0 0 1 3.63-1.03c3.93-.65 7.97-.34 11.76.88 2.69.87 5.33 2.28 7.37 4.25.62.6 1.22 1.3 1.56 2.11.26.63.14 1.47-.65 1.68-.1.03-.22.03-.31.03-.12 0 .04.02-.08-.03.15.05 0 0-.04-.02a8.29 8.29 0 0 1-.99-.6 22.37 22.37 0 0 0-2.52-1.49 27 27 0 0 0-2.73-1.08 8.18 8.18 0 0 0-1.32-.33c-.08 0-.15-.03-.22-.03-.1 0-.12.05-.05.12a24.7 24.7 0 0 1 3.34 3.39c.9 1.1 2.9 3.72.98 4.84-.17.1-.48.15-.62.3l-.3.47a1.6 1.6 0 0 1-.66.63c-.07.02-.15.07-.22.1l-.21.02c-.03.02-.32-.1.1.04.04.03.11.03.16.08.05.02.05.02 0-.03-.07-.1-.22-.2-.31-.29-.1-.1-.99-.52-1.06-.33-.1.26-.26.48-.5.65-.1.04-.2.1-.3.12-.04 0-.09 0-.13.02.02-.02.3.17.14.05-.24-.2-.48-.39-.7-.6-.98-.96-1.84-2.02-3.14-2.62a4.44 4.44 0 0 0-3.29-.34 19 19 0 0 1-2.04.32c-.65.05-1.32.07-1.97.1-.45.02-.9.02-1.39.02h-.33c-.32 0-.65-.12.12.17-.08-.03.45.1.5.21l-.02-.02c-.24-.48-.48-.94-.7-1.42-.84-1.87-1.6-3.77-2.35-5.66l-1.06-2.64c-.2-.48-.33-.96-.55-1.42l-.02-.07c-.08-.2-.48-.29-.65-.34-.05-.02-.5-.14-.46 0 .48 1.2.94 2.4 1.42 3.58.79 2 1.6 3.98 2.47 5.95a10 10 0 0 0 .8 1.6c.26.4.86.54 1.29.54.9 0 1.8-.03 2.7-.05.95-.02 1.9-.12 2.84-.29.72-.14 1.56-.4 2.28-.14l.2.1a5.48 5.48 0 0 1 1.18.96c.47.45.9.95 1.38 1.4.8.75 2.55 1.79 3.34.51.05-.07.1-.16.12-.24l-1.06-.33a3 3 0 0 0 1.35.81c.36.15.74.15 1.1.03a2.3 2.3 0 0 0 1.03-1.1c.1-.17.27-.17.43-.27.22-.1.41-.24.58-.4.29-.3.46-.7.43-1.11 0-1.06-.67-2.04-1.25-2.86a21 21 0 0 0-2.42-2.73c-.5-.48-1-.96-1.54-1.42l-.04.12h.02c0-.02-.07 0-.05 0h.1l.14.02.1.03.19.05.1.02.21.07c.2.05.34.12.5.17.49.17.94.36 1.42.58 1.68.74 3.07 2.25 4.95 2.56.62.1 1.17-.1 1.46-.7.1-.23.12-.5.05-.74a5 5 0 0 0-1.32-2.1c-2.04-2.22-4.85-3.75-7.63-4.8a27.58 27.58 0 0 0-12.39-1.74 18 18 0 0 0-4.51.96 9.4 9.4 0 0 0-1.8.87l-.1.07c-.07.05.48.31.53.34.03.02.36.16.5.07z" />
    <path fill="var(--c, black)"
      d="M40.66 95.38c.16.1.33.21.48.33l.12.07.04.03.3.21c.2.17.45.34.66.53 1.1.87 2.07 1.87 2.86 3.03a5 5 0 0 1 .84 2.08c.07.27.26.48.5.58.1.05.58.17.56-.1-.2-1.56-1.16-2.88-2.16-4a20.9 20.9 0 0 0-3.08-2.72c-.26-.19-.52-.38-.81-.55-.15-.1-.53-.26-.67-.07-.15.2.24.48.36.58zM43.25 94c.6.43 1.15.9 1.68 1.41a13.3 13.3 0 0 1 2.73 3.46c.41.74.65 1.58.72 2.42.03.3.46.34.68.3.26-.06.52-.25.5-.54-.1-1.58-.94-3.07-1.9-4.3a18.9 18.9 0 0 0-2.83-2.87c-.21-.17-.43-.36-.65-.5a.76.76 0 0 0-.84 0c-.16.14-.3.42-.1.62zM19.03 58.9s-5.59.82-6.4-1.46c-.82-2.28 2.73-1.58 2.73-1.58s-3.91-4.8 1.8-5.38c0 0-4.54-3.72-.67-6.81 3.86-3.1 11.13-.63 11.13-.63s.05-5.04 5.76-4.1c5.72.94 4.18 3.86 4.18 3.86s3.67.56 3.7 2.28c.02 1.73-2.79 2.28-2.79 2.28s-1.27 4.9-6.26 3.94l-5.09 5.95s1.6 2.35-.36 4.59c-1.97 2.23-8.11.24-7.73-2.93z" />
    <path fill="var(--c, black)"
      d="M18.8 58.4c-1.35.2-2.74.2-4.09 0a4.8 4.8 0 0 1-1.25-.4 1.83 1.83 0 0 1-.45-.28l-.05-.05c-.02-.02-.1-.14-.02-.02-.03-.05 0 0 0 .02-.08-.33-.17-.62.07-.93.24-.24.55-.39.89-.41a5.96 5.96 0 0 1 1.72.05c.3.04-.1-.72-.14-.77a3.06 3.06 0 0 1-.31-.46c.14.2-.05-.07-.07-.12-.05-.1-.12-.19-.17-.26l-.05-.07-.05-.1-.14-.34c-.05-.12.02.1-.03-.04l-.04-.17-.05-.2c0-.02-.03-.09 0-.04.02.05 0-.05-.03-.07a3.2 3.2 0 0 1-.07-.68c.03-.45.22-.9.55-1.22a4.37 4.37 0 0 1 2.43-.86c.38-.05-.22-.87-.34-.96l-.14-.15-.07-.07c.04.05-.1-.07 0 0l-.24-.24c-.08-.07-.15-.17-.22-.24l-.12-.14c.05.07-.05-.08 0 0l-.07-.1-.27-.36c0-.02-.07-.1 0 0l-.04-.1-.15-.21-.07-.12c-.02-.07-.07-.12-.1-.2a2.66 2.66 0 0 1-.26-1.3c.05-.8.4-1.57.98-2.15 2.3-2.35 6.12-2.2 9.12-1.66.84.15 1.66.36 2.45.63.07.02.12-.1.12-.15.05-1.44.8-2.76 2-3.55 1.43-.81 3.19-.6 4.72-.24.75.15 1.47.46 2.09.87.12.07.22.16.31.26l.07.07c.03.03.05.05.05.07.1.1-.07-.1.03.03.1.12-.03-.03.02.02.02.03.1.15.02.05-.07-.1.03.05.03.07l.02.05c.05.12 0-.07.03.07l.02.15c.02.12 0 0 0 .04v.39c0 .05 0 .1-.02.14-.03.15-.08.29-.15.41-.14.26.31.96.6.98.96.12 1.9.44 2.71.94.12.07.22.14.32.24l.1.1-.06-.08c.03.05 0 .03 0 .03 0 .05.03.1.03.14 0 .17-.03.34-.1.5-.24.6-.84.99-1.39 1.25-.4.2-.82.34-1.25.41l-.05.05a5.38 5.38 0 0 1-4.05 3.94c-.43.07-.87.1-1.3.04a6.93 6.93 0 0 1-.7-.1.37.37 0 0 0-.21 0l-.22.25-.4.45-2.6 3.03-1.92 2.2c-.16.2.1.6.22.77-.17-.26-.02-.04 0 .03s-.07-.15 0-.03l.05.1.05.1.04.1c-.02-.06-.02-.06 0 0a3.27 3.27 0 0 1-1.58 4.15c-.82.33-1.73.4-2.6.23a6.5 6.5 0 0 1-2.6-1.03 3.92 3.92 0 0 1-.49-.4l-.12-.13-.07-.1-.07-.11c-.03-.05-.03-.03.02.02l-.05-.1c-.07-.14.05.13-.02-.04l-.05-.1c.03.05.03.05 0 .03a3.94 3.94 0 0 1-.07-.27 2.92 2.92 0 0 1 0-.65c.05-.26-.2-.57-.36-.74-.1-.12-.34-.29-.36-.02-.12 1.1.46 2.2 1.22 2.97a6.5 6.5 0 0 0 2.86 1.61c1 .29 2.09.29 3.1 0 1.22-.4 2.01-1.6 2.18-2.86.12-1.15-.2-2.3-.84-3.24l.22.75 3.02-3.53 1.75-2.04c.07-.07.22-.36.34-.38l.31.07c.2.02.38.05.6.05.34.02.65 0 .98-.03a5.42 5.42 0 0 0 4.18-3.4c.1-.2.17-.39.22-.58.02-.1.04-.05 0-.03.1-.02.19-.04.26-.07.89-.24 1.94-.67 2.38-1.56.57-1.17-.36-2.45-1.32-3.02a7.9 7.9 0 0 0-2.62-.91l-.2-.03.6.99c.2-.44.27-.94.18-1.42-.24-1.32-1.32-2.28-2.5-2.78-.96-.39-1.97-.63-3-.72a6.04 6.04 0 0 0-2.45.21 4 4 0 0 0-2.42 2.21c-.27.6-.43 1.25-.43 1.9l.12-.15a16.9 16.9 0 0 0-2.24-.57 16.82 16.82 0 0 0-4.8-.32c-1.75.17-3.57.75-4.8 2.1-.57.6-.93 1.38-.98 2.2 0 .77.17 1.54.53 2.23.53 1.06 1.25 2 2.16 2.74l-.34-.96c-1.37.14-3.02.6-3.19 2.2-.12 1.11.46 2.29 1.03 3.2.17.26.34.53.53.77l-.14-.77a4.81 4.81 0 0 0-1.66-.07c-.38.02-.74.16-1.03.4-.29.34-.36.8-.24 1.2a3.2 3.2 0 0 0 2.09 2.33c.98.31 2.01.43 3.02.39.65 0 1.3-.05 1.94-.15.27-.1-.24-1.13-.55-1.08z" />
    <path fill="var(--b, white)"
      d="M23.14 68.16c-.34-1.32 1.48-9.07 1.48-9.07s-3.02-.07-3.33-3.39c-.31-3.3 3.12-3.64 4.7-.28 0 0 3.6-6.8 1.7-10.54 0 0 6.34 4.1 10.33 3.34 0 0 4.03 11.42.79 15.67-2.83 3.72-5.5 3.45-5.5 3.45l-.33.75-1.2 4.37z" />
    <path fill="var(--c, black)"
      d="M23.69 68.35c-.1-.43-.03-.96.02-1.41.07-.75.22-1.52.34-2.26a101 101 0 0 1 .9-4.4l.23-.98c.04-.24-.84-.48-1.01-.5h-.15c-.07 0 .08.02-.04 0l-.15-.02c-.02 0-.2-.05-.07 0l-.17-.05c.07.02-.12-.03 0 0l-.14-.05c.21.07-.2-.1 0 0l-.07-.05-.05-.02a3.23 3.23 0 0 1-1.08-1.2 3.95 3.95 0 0 1-.24-3c.24-.67.89-1.13 1.6-1.1l.22.02.1.02c-.15-.05.02.03-.05-.02.17.1.31.19.43.31.48.43.87.98 1.13 1.56.07.14.98.62 1.1.43.44-.84.8-1.68 1.13-2.57.63-1.65 1.1-3.43 1.13-5.2a6.1 6.1 0 0 0-.55-2.84l-.99-.26c.87.55 1.76 1.06 2.7 1.51a24.1 24.1 0 0 0 5.54 2.07c1 .24 2.04.26 3.04.12L37.5 48a39.56 39.56 0 0 1 1.73 7c.28 1.8.43 3.7.19 5.5a7.4 7.4 0 0 1-.67 2.33 8.79 8.79 0 0 1-2.14 2.57c-.77.7-1.68 1.2-2.66 1.49-.34.12-.7.17-1.06.14-.05 0-.07 0-.1.03-.12.26-.24.5-.33.76-.1.27-.15.53-.22.8l-.77 2.8-.21.75.74.19-7.6-3.72-1.06-.53c-.12-.05-.6-.31-.72-.21s.26.28.3.3l7.64 3.78 1.06.52c.05.03.7.34.74.2.39-1.44.75-2.88 1.18-4.3.1-.29.21-.55.36-.82l-.1.03c1.08.1 2.28-.48 3.15-1.08a9.69 9.69 0 0 0 2.61-2.62 6 6 0 0 0 .87-2.16c.38-1.8.28-3.7.04-5.52a41.4 41.4 0 0 0-1.84-7.82c-.05-.15-.39-.27-.5-.31-.18-.1-.37-.15-.58-.15-1.64.29-3.34-.17-4.85-.74a24.09 24.09 0 0 1-4.5-2.26 2.01 2.01 0 0 0-.66-.31c-.05-.02-.39-.1-.31.02.79 1.61.6 3.53.21 5.21-.36 1.54-.86 3-1.51 4.44l-.4.87 1.1.43a4.97 4.97 0 0 0-2.84-2.62c-.88-.31-1.92-.33-2.54.48-.67.89-.53 2.28-.14 3.27.4.93 1.15 1.68 2.08 2.08.63.32 1.28.5 1.97.56l-1-.5a65.03 65.03 0 0 0-1.45 7.46c-.04.52-.16 1.12-.02 1.63.05.19.48.31.65.36-.03.02.4.17.36.02z" />
    <path fill="var(--b, white)" d="M35.02 60.17s7.46 2.8 9.72-.91c2.25-3.72-2.86-6.82-7.95-4.42" />
    <path fill="var(--c, black)"
      d="M34.8 60.58a17 17 0 0 0 2.4.67c1.54.33 3.14.5 4.7.26 1.61-.24 3.1-1.1 3.72-2.66.34-.82.36-1.73.03-2.55a4.02 4.02 0 0 0-1.75-1.87c-2.28-1.32-5.14-1.05-7.44.03-.2.1-.27.3-.2.5.03.05.05.1.1.12.22.22.55.26.84.14 1.75-.81 3.89-1.1 5.71-.26 1.3.6 2.16 1.92 1.66 3.38A3.17 3.17 0 0 1 43.32 60a4.2 4.2 0 0 1-2.18.7l-.53.02c-.34 0-.77 0-1.01-.02-.67-.05-1.34-.15-2.02-.3l-.96-.2h.03l-.12-.03-.2-.05-.35-.1a7.97 7.97 0 0 1-.7-.24c-.24-.1-.62-.07-.77.2-.14.26.05.5.29.6z" />
    <path fill="var(--b, white)" d="M28.75 59.02s.34 1.53 1.87 1.48z" />
    <path fill="var(--c, black)"
      d="M28.46 59.09c.05.21.12.4.24.6.22.38.53.7.94.88.31.15.65.2.98.2.15.02.3-.1.3-.24a.25.25 0 0 0-.25-.3h-.21l-.22-.02c-.05 0-.1-.02-.17-.04-.07-.03.05.02.03 0l-.05-.03-.07-.02-.15-.07-.02-.03c.05.03.02.03.02 0-.02-.02-.05-.02-.07-.05-.07-.04-.14-.12-.22-.19.05.05 0 0 0-.02l-.04-.05c-.03-.05-.08-.07-.1-.12l-.14-.22c.02.05-.03-.04 0 0 0-.02-.03-.02-.03-.04-.02-.03-.02-.08-.05-.1-.04-.12-.1-.24-.12-.34-.02-.14-.24-.21-.38-.16-.17.07-.26.21-.22.36zm5.3-6.15s-.14.63.49.72c.62.1.72-.67.21-.9a.48.48 0 0 0-.67.14l-.02.04zm2.96.31s-.14.63.48.72c.62.1.72-.67.22-.9a.48.48 0 0 0-.68.14l-.02.04z" />
    <path fill="var(--b, white)"
      d="M14.62 94.34a41.6 41.6 0 0 1 12.4-5.7.6.6 0 0 0 .39-.73.57.57 0 0 0-.72-.31 42.38 42.38 0 0 0-12.67 5.88.55.55 0 0 0-.22.74c.14.27.48.36.74.22 0-.03.05-.05.08-.1z" />
    <path fill="var(--c, black)"
      d="M93.48 52.13s.82-6.63-3.96-9.58-10.13-3.57-14.33-1.2c-4.2 2.38-6.98 5.26-5.93 10.49 1.06 5.23 2.57 7.73 1.28 9.94-1.3 2.2-1.4 3.3.48 3.6 1.87.28.24 3.21 1.75 4.41 1.51 1.2 10.13.75 12.91-2.11 2.78-2.86 11.4-1.2 13.63-4.13 2.23-2.93-2.9-3.57-1.75-5.52 1.15-1.94 1.18-2.57-1.18-2.85-2.35-.3-2.66-2.02-2.9-3.05z" />
    <path fill="var(--c, black)"
      d="M76.2 70.54c-1.66 0-3-.22-3.53-.65-.77-.6-.77-1.61-.79-2.5-.02-1.1-.07-1.77-.91-1.9-.75-.11-1.2-.35-1.42-.76-.29-.6-.02-1.47.87-3 .86-1.49.43-3.07-.3-5.71-.3-1.18-.69-2.52-1-4.16-1.13-5.66 2.2-8.44 6-10.6 4.06-2.33 9.46-1.88 14.45 1.2 4.65 2.85 4.05 9.24 4 9.64v.05c.25 1.03.6 2.62 2.79 2.88 1.18.15 1.75.36 1.94.8.24.5-.07 1.2-.7 2.23-.45.76.2 1.3.92 1.94.96.82 2.14 1.85.82 3.58-1.16 1.53-3.9 1.84-6.8 2.16-2.68.28-5.5.6-6.84 1.99-1.82 1.94-6.26 2.8-9.5 2.8zm4.68-30.48c-1.97-.03-3.91.48-5.64 1.44-3.72 2.1-6.98 4.82-5.88 10.36.31 1.61.7 2.96 1 4.13.7 2.6 1.18 4.32.27 5.88-.84 1.44-1.08 2.28-.84 2.76.17.34.55.53 1.23.63 1.08.16 1.1 1.15 1.1 2.13 0 .87.02 1.78.7 2.3 1.44 1.16 10.03.68 12.76-2.1 1.42-1.45 4.25-1.76 6.99-2.07 2.85-.31 5.54-.62 6.62-2.06 1.18-1.56.17-2.43-.79-3.27-.74-.65-1.54-1.32-.96-2.25.58-.94.89-1.61.7-2.02-.17-.34-.7-.53-1.78-.65-2.35-.29-2.76-2.01-3-3.07l-.02-.07v-.05c0-.07.74-6.58-3.92-9.46a16.83 16.83 0 0 0-8.54-2.56z" />
    <path fill="var(--b, white)"
      d="M72.74 64.37c-3.98-2.76-1.58-14.11-1.58-14.11 1.78-.72 4.46-3.1 4.46-3.1.2 5.8 7.13 6.02 7.13 6.02.72-3.3 4.49-2.95 4.9.05.4 3-2.38 3.91-2.38 3.91s3.55 9 3.53 10.25c-.02 1.25-6.46 4.15-9.55-1.17-.03 0-3.8.02-6.5-1.85z" />
    <path fill="var(--c, black)"
      d="M73.18 64.42c-1.08-.77-1.59-2.19-1.85-3.44a17.74 17.74 0 0 1-.29-4.77c.05-1.4.2-2.76.38-4.15l.22-1.25c0-.1.02-.22.05-.31.05-.15.19-.15.36-.22a19.32 19.32 0 0 0 4.13-2.95l-1.13-.41c.02 1 .31 2.02.81 2.88.48.74 1.1 1.37 1.85 1.85a11.26 11.26 0 0 0 5.47 1.73c.05 0 .08 0 .1-.03.2-.86.67-1.73 1.51-2.11.31-.14.67-.22 1.01-.17.05 0 .17.03.1 0 .14.03-.1-.05.04.03 0 0-.14-.08-.07-.03.12.07.27.17.36.27.7.64.91 1.7.82 2.64a3.3 3.3 0 0 1-1.18 2.2c-.33.32-.74.56-1.2.7-.02.02-.05.02-.02.07.5 1.27.98 2.55 1.46 3.82.7 1.85 1.44 3.74 1.92 5.66.12.48.22.84-.14 1.23-.5.52-1.27.84-1.95 1.05-.96.31-1.99.41-3 .24a2.6 2.6 0 0 1-1.17-.43 5.13 5.13 0 0 1-1.73-1.7l-.31-.5a1.6 1.6 0 0 0-1.01-.4l-.82-.04a11.6 11.6 0 0 1-3.7-.91 7.2 7.2 0 0 1-1.02-.55 1.7 1.7 0 0 0-.82-.32c-.2-.02-.24.05-.07.17a15.01 15.01 0 0 0 7.37 2.18l-1.01-.4a7.28 7.28 0 0 0 9.74 2.52c.34-.17.63-.43.84-.75.1-.24.1-.5.03-.74-.1-.46-.24-.89-.36-1.34-.8-2.5-1.73-4.97-2.7-7.42l-.35-.91a.18.18 0 0 0-.05-.1c-.05-.05.05 0-.02.03l.24-.1a3.67 3.67 0 0 0 2.13-2.57c.17-.81.05-1.65-.31-2.4a3 3 0 0 0-1.56-1.37 3.37 3.37 0 0 0-2.16-.28 2.6 2.6 0 0 0-1.51 1.15c-.22.36-.36.74-.43 1.15l.1-.02h-.18c.1 0-.1 0 0 0l-.12-.03-.26-.02-.34-.05-.16-.02-.12-.03-.41-.1-.22-.04c.12.02-.1-.03 0 0l-.12-.05-.24-.07-.12-.03c.12.05.03 0 0 0l-.24-.1-.12-.04c.15.05 0 0-.02-.02a5.22 5.22 0 0 1-2.5-2.02 5.7 5.7 0 0 1-.91-2.98c0-.24-.96-.57-1.13-.4a21.39 21.39 0 0 1-3.7 2.68l-.57.3c-.07.02-.17.04-.22.11a17.7 17.7 0 0 0-.24 1.32c-.45 2.9-.74 6-.19 8.9.29 1.54.84 3.08 2.16 4.01.24.17.5.27.8.3.21.09.26.02.07-.1z" />
    <path fill="var(--b, white)" d="M82.37 56.93s.62 3.02-2.69 3.12z" />
    <path fill="var(--c, black)"
      d="M81.8 57.15c.18.9-.08 1.99-.85 2.54l-.24.14.15-.04h.02l.07-.03c-.05 0-.05 0 0 0s-.07.03-.1.03c-.02 0 .05-.03-.02 0l-.12.02c-.17.02-.33.02-.48.05-.36.07-.72.16-1.03.33 0 0-.12.08-.05.08a5.64 5.64 0 0 0 2.33-.58c.4-.17.77-.43 1.03-.77.36-.5.53-1.13.48-1.75 0-.15-.02-.27-.05-.4 0-.06-.52.11-.6.14-.07.02-.55.14-.55.24z" />
    <path fill="var(--b, white)"
      d="M74.23 55.58a13.34 13.34 0 0 1-3.05 2.64c-3.79 2.52-3.62 4.16-2.01 4.4 1.6.24 6.93-2.88 6.93-2.88" />
    <path fill="var(--c, black)"
      d="M73.75 55.22c-.98 1.25-2.33 2.12-3.6 3.03a9.65 9.65 0 0 0-2.06 1.9c-.31.4-.6.9-.58 1.43.1 1.16 1.47 1.59 2.45 1.44 1.32-.19 2.64-.86 3.82-1.44.9-.45 1.82-.93 2.7-1.46.58-.34-.33-1.06-.76-.82a53 53 0 0 1-2 1.1 19.73 19.73 0 0 1-3.64 1.6c-.22.06-.43.11-.67.14l-.15.02c-.14.02.03 0-.04 0h-.15c-.14 0 .03.02-.05 0l-.14-.05s-.07-.05-.12-.05c-.1-.02.02.03.05.03l-.07-.05c.1.07.02 0 0 0-.05-.05-.05-.07 0 0a.18.18 0 0 1-.05-.1c.05.1 0 .03 0-.02s-.03-.14 0-.05v-.14c0-.05 0-.1.02-.12l.03-.07c.02-.08-.03.1 0-.03.07-.24.19-.48.36-.67a7.75 7.75 0 0 1 1.75-1.68c1.34-1 2.83-1.9 3.91-3.24.17-.22.05-.48-.17-.62-.19-.1-.65-.27-.84-.08z" />
    <path fill="var(--b, white)"
      d="M62.38 100.44c-3.94-2.11 14.64-29.9 16.39-30.05 0 0-3.03-1.37-1.01-3 2.02-1.63 10.25-3.84 12.12-3.48 1.87.36 1.15 4.32 1.15 4.32S123.9 90.8 110.1 99.36" />
    <path fill="var(--c, black)"
      d="m62.33 99.96-.07-.05c-.05-.02.12.1.02.03-.1-.07.1.12-.02-.03-.05-.1.12.15.07.05-.03-.02-.05-.05-.05-.07.12.22.05.1.02.05-.02-.05-.02-.17 0 .02a.44.44 0 0 0-.04-.17c0-.04-.03-.16 0 0 0-.04 0-.07-.03-.12v-.45c0 .14 0-.12.03-.15 0-.1.02-.19.04-.28l.12-.6c.12-.48.24-.94.41-1.4.41-1.12.87-2.23 1.4-3.28a75.1 75.1 0 0 1 2.01-3.92 144.86 144.86 0 0 1 9.74-15.28 33.4 33.4 0 0 1 1.83-2.3l.36-.42.14-.14.12-.12c.15-.14.31-.26.48-.38.03-.03.05-.03.1-.05.02-.03-.1.02 0 0 .48-.05-.05-.91-.27-1.01-.36-.17-.7-.38-.98-.65l-.05-.05-.07-.07-.07-.07c.1.1 0 0 0-.02a.27.27 0 0 1-.07-.2c-.03-.3.24-.67.48-.88a6.5 6.5 0 0 1 1.63-.96c.77-.36 1.56-.65 2.37-.94 1.73-.6 3.48-1.06 5.26-1.42.67-.14 1.37-.24 2.06-.28h.36c.1 0 .17 0 .27.02l.31.07c.02.03.07.05.1.05.07.05-.1-.07.02.02.07.08.02.03 0 0l.1.12c-.03-.02-.1-.12 0 0l.02.03a3.4 3.4 0 0 1 .2.7 7.89 7.89 0 0 1-.05 2.47c-.03.33.16.64.45.84l.24.16c-.2-.12-.02-.02.02 0l.17.12.36.27a115.37 115.37 0 0 1 9.34 7.44 65.32 65.32 0 0 1 7.44 7.58l.79 1 .2.25c.02.02.16.24.09.12.12.2.26.36.38.55.46.65.89 1.32 1.27 2.02l.3.5c.09.17-.08-.12 0 .03l.06.12a8.85 8.85 0 0 1 .58 1.22l.2.48.09.24.05.17a10.45 10.45 0 0 1 .36 1.39c0 .02.02.14 0 .02l.02.12.02.27c.03.29.05.6.05.9v.32a8.61 8.61 0 0 1-.24 1.32 5.38 5.38 0 0 1-.77 1.51 7.88 7.88 0 0 1-2.26 2.04c-.38.24.27 1.25.66 1.01a7.41 7.41 0 0 0 2.85-2.97 6.7 6.7 0 0 0 .6-3.63c-.36-3.07-2.13-5.88-3.96-8.33a60.04 60.04 0 0 0-7.44-7.99 119.6 119.6 0 0 0-7.46-6.24c-.87-.65-1.73-1.3-2.62-1.94-.45-.34-.89-.67-1.37-.96l-.04-.05.45.82a6.87 6.87 0 0 0-.21-3.82c-.34-.77-.94-1.37-1.8-1.44-.65-.02-1.3.02-1.95.14a38.33 38.33 0 0 0-8.35 2.43 6.6 6.6 0 0 0-1.85 1.08c-.4.3-.65.81-.67 1.32.05.53.26 1.03.62 1.41.44.48.94.87 1.54 1.13l-.26-1c-.44.04-.84.57-1.08.86-.6.65-1.16 1.37-1.7 2.06a143.96 143.96 0 0 0-9.96 15.36 51.8 51.8 0 0 0-3.66 7.63c-.33.87-.57 1.76-.7 2.67-.06.74 0 1.56.54 2.13.12.15.26.27.43.36.21.12.38 0 .38-.24a1.08 1.08 0 0 0-.5-.67z" />
    <path fill="var(--c, black)"
      d="M95.11 98.76s-8.5 2.5-7.3 4.68c1.2 2.18 17.79-.34 18.32-1.42.53-1.08-5.02-5.01-11.02-3.26z" />
    <path fill="var(--c, black)"
      d="M94.92 98.18c-.91.27-1.8.58-2.66.92-1.4.52-2.86 1.12-4.04 2.08-.45.39-.9.84-.98 1.44-.05.58.2 1.13.62 1.47.8.62 2 .67 2.93.72a46.6 46.6 0 0 0 9.72-.75c1.37-.19 2.74-.48 4.1-.81.46-.12.9-.24 1.33-.43a.9.9 0 0 0 .62-.56c.2-.6-.29-1.24-.67-1.65-.6-.6-1.3-1.1-2.07-1.49a12.4 12.4 0 0 0-6.93-1.34c-.67.12-1.32.24-1.97.4-.58.17-.1 1.25.38 1.13a11.62 11.62 0 0 1 9.39 1.44l.43.31.17.15.1.07.02.02c.1.1.17.2.26.3.05.04-.07-.13.03.02l.04.07c.08.1-.04-.15-.02-.05 0 .02.02.02.02.05.03.1-.02-.15 0-.05.03.1 0-.1 0-.02.03-.12 0 .07 0 0 .03-.1.05-.1.03-.05-.03.05.1-.05-.03.02-.04.03-.1.05-.14.1l-.4.17-.15.04-.07.03-.34.1c-1.2.33-2.4.57-3.62.76a56.9 56.9 0 0 1-9.3.91 11.1 11.1 0 0 1-3.18-.33c-.12-.05.07.02-.05-.03l-.12-.04-.1-.05c-.05-.03-.17-.12-.02 0-.05-.05-.22-.2-.05-.03-.02-.02-.05-.04-.05-.07.05.1.07.12.03.03.1.19 0 .02 0-.03.07.22 0-.07 0 .03v-.08c0-.1-.03.08 0 .03l.02-.1.05-.12c.05-.1-.05.07 0-.02l.02-.05c.07-.1.15-.2.24-.29.43-.43.94-.79 1.47-1.08.64-.36 1.34-.7 2.04-.98.64-.27 1.3-.5 1.94-.75l1.18-.38.16-.05c.27-.07.32-.36.22-.6-.07-.21-.34-.6-.6-.53z" />
    <path fill="var(--b, white)"
      d="M107.78 98.95c1.23 2.48-7.82.22-7.82.22s-2.52 3.17-3.94 3.31c-1.41.15.75-3.26.75-3.26-1.27 1-2.62 1.92-4.01 2.7-2.18 1.23-1.9-.4-1.9-.4-2.37 1.56-.74-2.66-.74-2.66s-1 .89-1.49.55c-.48-.34-.33-5.71 3-6.38 3.34-.68 11.55 2.25 11.55 2.25s3.5 1.44 4.6 3.67z" />
    <path fill="var(--c, black)"
      d="M107.2 99.1c.06.1.1.21.13.3.02.13 0 .1-.03.22-.02.12 0-.02-.02.05s0 .03-.02.03c-.12.04.1-.05-.03.02-.12.07.12-.05-.05.02-.12.05.15-.02.03 0l-.1.03c-.14.05.12 0-.05 0l-.19.02h-.14c-.34.03-.7.03-1.03 0-.3-.02-.72-.05-1.08-.1l-1.18-.16a31.34 31.34 0 0 1-3.1-.65c-.33-.05-.67.05-.9.29a14.2 14.2 0 0 1-2.6 2.64 2.38 2.38 0 0 1-.55.33l-.1.05c-.07.03-.1.07-.02.03h-.03.05c.05 0 .03.02.03 0 0-.03 0 .02-.05-.05-.03-.03-.03-.07-.05-.1-.1-.5.26-1.15.48-1.6.22-.44.43-.85.7-1.25.12-.2-.05-.27-.24-.3-.27-.02-.53.06-.75.22a29.37 29.37 0 0 1-4.3 2.86l-.19.07-.12.03c.08 0 .05 0 0 0 .05 0 .03-.03 0 0-.1-.03.05.02-.02 0a.42.42 0 0 1-.14-.12 1 1 0 0 1-.1-.36c0-.12-.02-.05 0-.17.07-.39-.77-.17-.94-.07l-.36.21c.12-.05-.19.03.03 0 .12 0-.12.03 0 0 .07 0 .14.03.17 0-.03.03-.08-.05-.03 0l-.1-.1c-.16-.28-.1-.69-.02-.98.1-.57.27-1.17.48-1.73.07-.19-.24-.21-.33-.21-.24 0-.5.07-.7.21-.1.1-.2.17-.31.24l-.27.15-.1.05.2-.03c.02 0-.05-.02-.05-.05 0-.02 0 .03-.02-.04-.03-.1-.07-.22-.07-.34a6.53 6.53 0 0 1 .14-2.16c.17-.91.55-1.78 1.13-2.5.26-.3.57-.55.93-.72l.17-.07c-.12.05.07-.02.1-.02.05-.03.12-.03.19-.05-.14.02 0 0 .02 0 .17-.02.36-.05.53-.05a15 15 0 0 1 3.07.29c1.1.2 2.21.46 3.32.77 1.34.36 2.7.74 4.03 1.25.57.24 1.15.5 1.68.84 1.1.72 2.28 1.58 2.88 2.76.17.38 1.3 0 1.15-.3a7.18 7.18 0 0 0-2.74-2.68c-.64-.43-1.32-.8-2.04-1.08a40.2 40.2 0 0 0-4.08-1.27 39.17 39.17 0 0 0-3.7-.84 13.62 13.62 0 0 0-3.4-.27 4.54 4.54 0 0 0-3.07 1.37A5.75 5.75 0 0 0 88 96.74c-.2.8-.27 1.61-.15 2.43 0 .24.12.45.34.57.65.3 1.46-.14 2-.5l.35-.26h-1.03c-.2.48-.34.98-.46 1.48s-.3 1.47.34 1.68c.6.2 1.3-.14 1.78-.45l-.94-.07c-.02.19-.02.38.05.57.14.43.6.53 1 .5.9-.02 1.7-.55 2.45-.98.8-.48 1.56-1 2.33-1.53.39-.27.77-.56 1.13-.87l-.98-.07c-.27.4-.5.84-.72 1.3-.24.5-.7 1.3-.53 1.87.24.81 1.6.26 2.09 0a8.84 8.84 0 0 0 2.18-1.83c.43-.45.86-.93 1.25-1.41l-.91.31a35.27 35.27 0 0 0 5.78.94c.74.07 1.51-.03 2.23-.24.6-.22 1.08-.7.77-1.35-.17-.4-1.3-.02-1.15.27z" />
    <path fill="var(--b, white)" d="M93.7 95.28s-2.6 1.7-3.6 3.6z" />
    <path fill="var(--c, black)"
      d="M93.24 94.92a13.23 13.23 0 0 0-2.76 2.4c-.34.38-.65.82-.91 1.27-.24.46.84.99 1.08.53.43-.74.98-1.42 1.63-2 .5-.47 1.03-.9 1.58-1.29.12-.07.22-.17.34-.24.24-.14-.02-.5-.17-.6a.79.79 0 0 0-.79-.07z" />
    <path fill="var(--b, white)" d="M96.7 96.36s-4.9 3.12-5.86 5.16z" />
    <path fill="var(--c, black)"
      d="M96.24 96a26.59 26.59 0 0 0-4.78 3.72 5.6 5.6 0 0 0-1.12 1.49c-.15.33.88.91 1.03.62.5-1.05 1.49-1.87 2.37-2.61a44.9 44.9 0 0 1 2.81-2.12l.63-.4c.28-.2-.65-.9-.94-.7z" />
    <path fill="var(--b, white)" d="M85.68 70.94c-1.92.63-3.98.8-5.98.5z" />
    <path fill="var(--c, black)"
      d="M85.4 70.42c-1.93.6-3.94.79-5.94.5-.16-.02.03.39.05.46.05.14.24.57.43.6 2.02.29 4.08.12 6.03-.5.12-.03-.31-1.13-.58-1.06zM72.01 55s.1.65.7.5c.6-.14.43-.89-.12-.93-.26-.05-.5.12-.58.38.03 0 .03.02 0 .05zm3.58-.77s.1.65.7.5c.6-.14.43-.88-.12-.93-.27-.05-.5.12-.58.38.02 0 .02.03 0 .05zm-3.05 48.67a141.85 141.85 0 0 0 6.12 2.64c1.97.82 3.96 1.61 5.95 2.38 2.14.8 4.28 1.56 6.46 2.23 1.9.62 3.84 1.1 5.78 1.44 1.42.24 2.98.4 4.37-.02.58-.2 1.35-.5 1.54-1.13.17-.5-.15-.99-.48-1.35-.53-.55-1.13-1-1.8-1.39-.8-.45-1.63-.86-2.47-1.22-.8-.34-1.61-.6-2.43-.82a5.61 5.61 0 0 0-1.99-.24c-.26 0-.53.12-.74.3-.22.23-.27.57.02.78.4.31 1.06.27 1.54.2a4.3 4.3 0 0 0 1.58-.65 6.21 6.21 0 0 0 1.58-1.59c.2-.26-.96-.45-1.15-.17-.4.6-.93 1.13-1.53 1.54-.22.14-.44.24-.68.34l-.24.07h-.14.05c-.03 0-.15-.03.02 0 .1-.03-.1-.03 0 0 .1.02.05 0 0 0 .1.02.03.02 0 0 .05.05 0-.05 0-.05v-.14a.52.52 0 0 1 .12-.2c.03-.04-.07.03 0 0 .07-.02-.1.05 0 0-.21.1.17-.02-.1.03h.13c-.24.02-.05 0 .02 0 .2 0-.12-.03.05 0l.21.02.22.03c.17.02.02 0 0 0l.12.02c.17.05.34.07.5.12a18.28 18.28 0 0 1 4.37 1.84c.6.34 1.15.75 1.63 1.23.3.34.58.75.44 1.18-.15.43-.77.67-1.25.84l-.07.02-.15.03c-.05 0-.26.04-.07.02l-.22.02-.21.03h-.58c-.14 0-.29 0-.43-.03-.02 0-.2-.02 0 0h-.12l-.31-.02a28.83 28.83 0 0 1-3.62-.7c-.97-.24-1.9-.5-2.84-.79a134.7 134.7 0 0 1-11.61-4.27c-2.21-.91-4.42-1.9-6.6-2.86l-.1-.04a1.13 1.13 0 0 0-.84-.03c-.26.1-.29.24-.05.36z" />
    <path fill="#002780" d="M86.04 68.69H33.86l1.04 34.53H85z" />
    <path fill="#002780"
      d="M86.2 68.18H34.04c-.3 0-.74.24-.74.6l.1 3.46.23 8.26.3 9.96.26 8.64.12 4.17v.05c0 .22.16.4.38.4h50.16c.31 0 .72-.23.72-.6l.1-3.45.26-8.23.29-9.96.26-8.64c.05-1.4.12-2.78.12-4.18v-.04c.03-.7-1.1-.39-1.13.19l-.1 3.45-.23 8.26-.29 9.96-.26 8.64-.08 2.83c-.02.46-.04.91-.04 1.35v.04l.72-.6H37.1c-.64 0-1.3-.04-1.94 0h-.1l.39.41-.1-3.45-.24-8.26-.3-9.96-.27-8.64-.1-2.83c-.02-.46 0-.91-.05-1.35v-.04l-.74.6h52.17c.32 0 .6-.2.7-.48a.4.4 0 0 0-.24-.5c0-.03-.02-.06-.07-.06z" />
    <path fill="var(--b, white)"
      d="M59.3 83.2a3.46 3.46 0 0 1 2.24.25c.24.1.43.26.57.45.12.27.22.58.22.9.1.76-.2 1.5-.77 2a3.82 3.82 0 0 1-3.43.6 2.28 2.28 0 0 1-.5-.2l-.2-.15c.03.02.05.05.05.1-.1-.22-.29-.56-.53-.63-.24-.07-.16.22-.12.34.9 1.9 3.53 2.2 5.16 1.12 1.85-1.22 1.18-3.98-.36-5.16a3.64 3.64 0 0 0-3.02-.57c-.2.02.34 1.05.7.96zm12.94-70.02H47.5v26.88h24.74z" />
    <path fill="var(--c, black)"
      d="M72.07 39.53H48.36c-.31 0-.65-.03-.96 0h-.05l.67.67V14.4c.03-.36.03-.7 0-1.06v-.04l-.36.43h23.72c.3 0 .64.02.96 0h.04l-.67-.67v23.56c0 1.08-.05 2.19 0 3.27v.05c0 .57 1.03 1 1.03.24V16.6c0-1.08.05-2.19 0-3.27v-.04a.72.72 0 0 0-.67-.68H50.4c-1 0-2.02-.04-3.02 0h-.05c-.22 0-.39.2-.36.41v23.6c0 1.07-.05 2.18 0 3.26v.05c.02.36.31.64.67.67h21.67c1.01 0 2.02.05 3.03 0h.04c.3 0 .41-.31.34-.55a.67.67 0 0 0-.65-.53z" />
    <path fill="var(--c, black)"
      d="M54.4 26.45s-1.94-5.45 2.62-7.51c4.56-2.07 10.61 1.46 10.97 7.5.36 6.06-7 6.87-7 6.87z" />
    <path fill="var(--c, black)"
      d="M54.58 31.37c-1.73-2.09-.2-9.63-.2-9.63 1.2-1.94 7.59-.74 7.59-.74-.89 1.94-.58 5.11-.58 5.11.75-1.73 2.76-.98 2.67.7-.1 1.68-2.1 2.2-2.1 2.2s.58 3.6.42 4.28c-.17.67-3.32 1.65-5-.27.05 0-1.32.2-2.8-1.65z" />
    <path fill="var(--c, black)"
      d="M56.52 29.6s-4.03.4-4.66-1.71c-.62-2.11 2.28-2.98 4.47-1.15m-6.5 13.12s5.61-8.28 9.95-8.28c4.35 0 8.43 8.5 8.43 8.5z" />
    <path fill="#002780"
      d="m59.78 25.13.15-.27c.02-.04.14-.19.1-.16-.05.02.04-.05.04-.05.05-.05.1-.07.12-.12a.63.63 0 0 1 .2-.15c-.03.03.16-.07.2-.1l.1-.02c.05 0 .34-.02.22-.02h.03c.21.02-.15-.05 0 0l.12.05c.07.07.07.02 0 0-.05-.03-.08-.07 0 0 .19.14-.05-.05-.05-.05l.19.17c-.02 0-.14-.17-.07-.07l.12.16c-.1-.14-.03-.02.02.05.05.17.03.05 0 0l.03.15c.04.21.02.43-.03.64-.14.87-.65 1.7-1.17 2.4-.24.34-.5.63-.8.9-.3.3-.67.57-.98.88-.4.38-.7.86-.84 1.42-.14.62 0 1.27.36 1.8.29.45 1.06.76 1.58.57.58-.21.48-.79.22-1.2.14.24 0 .03.02 0 .03-.02.05.24.03 0v-.15c.02-.09.02-.18.07-.3-.05.12.1-.15.1-.2.26-.38.6-.72.96-.98a8.64 8.64 0 0 0 1.96-2.4c.53-.96 1.01-2.14.7-3.24a3.5 3.5 0 0 0-2.74-2.4c-1.17-.22-2.52.36-3.02 1.49-.22.53.14 1.08.62 1.32.36.21 1.23.43 1.44-.12zm1.13 9.65-.91-.12a1.92 1.92 0 0 0-1.58.64c-.1.12-.17.24-.17.39a.98.98 0 0 0 .02.48c0 .05.03.1.05.14.05.1.12.2.22.27s.19.12.3.16a2 2 0 0 0 .66.08c.4-.03.81-.17 1.17-.36l.36-.24c.17-.15.29-.3.39-.48.04-.1.07-.2.07-.32l-.03-.24-.02-.07a.68.68 0 0 0-.22-.24c-.1-.07-.21-.14-.33-.19a2.03 2.03 0 0 0-.41-.1c-.24-.02-.5 0-.74.05a2.87 2.87 0 0 0-.98.38c-.34.2-.6.49-.78.82-.04.1-.07.2-.02.29 0 .1.05.2.12.24a.4.4 0 0 0 .29.12c.12.05.24.05.38.02.31-.02.63-.12.89-.28.24-.12.43-.32.55-.56.03-.02.03-.04.05-.1l-.12.2.07-.1-.19.2c.02-.03.07-.05.1-.08l-.24.17.14-.07-.29.14.12-.04-.31.1c.05-.03.1-.03.14-.03l-.28.05h.14-.26c.04 0 .1 0 .16.02l-.21-.05.19.07-.17-.1c.05.03.1.08.12.13l-.1-.15c.03.03.03.08.05.1l-.02-.2v.1l.05-.19c0 .03-.03.05-.03.05l.12-.2-.04.08.19-.2c-.03.03-.05.06-.07.06l.24-.17-.1.05.29-.15-.1.05.31-.1c-.04.03-.07.03-.12.03l.3-.05h-.13.27c-.03 0-.08 0-.1-.02l.22.04a.18.18 0 0 1-.12-.04l.16.1a.19.19 0 0 1-.1-.1l.1.14a.26.26 0 0 1-.07-.17l.03.2a.6.6 0 0 1 .02-.3l-1.73 1.04.91.12c.15.02.27 0 .41-.03.15-.02.31-.04.46-.12.14-.04.29-.12.4-.21.13-.07.22-.17.32-.27.12-.14.24-.38.14-.57-.19-.2-.36-.31-.6-.31z" />
  </g>
</svg>
