<svg xmlns="http://www.w3.org/2000/svg" fill="none" viewBox="0 0 120 120">
  <g id="doc">
    <path d="M18.6 76.66s-5.18-53.43-3.72-53.72 89.83-2.32 90.34 0-3.15 52.61-4.8 53.72c-1.66 1.1-81.7 1.17-81.82 0"
      fill="var(--b, white)" />
    <path
      d="m19.18 76.49-.22-2.23q-.3-2.97-.55-5.9-.38-4.22-.77-8.4-.42-4.84-.84-9.68t-.77-9.74q-.32-4.33-.58-8.62c-.12-2.11-.24-4.2-.24-6.31q-.01-.96.05-1.92 0-.29.07-.58.06-.15.1-.29-.43.18-.86.3h.33l1.16-.06 4.15-.14q3.1-.1 6.19-.17 3.9-.1 7.78-.17 4.5-.1 8.97-.16 4.86-.09 9.72-.15 5.01-.08 10.01-.12l9.86-.07q4.65-.04 9.3 0a473 473 0 0 1 15.04.24q2.43.07 4.87.29c.8.07 1.7.1 2.48.4.19.08.21.12.24.34q.04.69.02 1.37-.05 2.84-.24 5.66-.25 4.23-.53 8.45a705 705 0 0 1-.74 9.94 721 721 0 0 1-.87 10.08 377 377 0 0 1-.9 8.93c-.25 2.16-.51 4.3-.87 6.43-.12.62-.22 1.27-.39 1.9q-.07.27-.17.52-.04.07-.1.15c-.04.1-.04.02.06 0l.43-.15c-.12.03.14-.07-.03 0-.14.05.08 0-.1.03l-.23.02q-.76.08-1.42.12a165 165 0 0 1-4.87.22q-3.46.1-6.96.16-4.24.08-8.5.13l-9.5.07q-5 .02-9.98.02c-4.98 0-6.63 0-9.92-.02l-9.3-.07-8.19-.12-6.5-.17q-2.14-.06-4.28-.22c-.14-.1-1.39-.14-1.41-.31-.05-.1-1.2.14-1.18.34.05.26 1.49.28 1.63.28q2.2.16 4.37.22a606 606 0 0 0 14.9.29l9.44.07q5.04.02 10.08.02c5.04 0 6.72 0 10.05-.02l9.53-.07q4.24-.05 8.47-.12 3.42-.07 6.84-.17 2.36-.07 4.7-.22c.9-.04 1.97-.04 2.77-.48.28-.14.38-.45.48-.76q.23-.9.38-1.8.52-3.21.86-6.41.5-4.48.92-8.95.46-5.08.86-10.18.39-5 .74-10.03.31-4.28.53-8.52c.1-1.9.22-3.8.24-5.7a8 8 0 0 0-.02-1.34c-.03-.21-.1-.26-.3-.36-.78-.3-1.74-.33-2.58-.4-1.64-.15-3.3-.22-4.92-.3l-6.92-.16a485 485 0 0 0-8.37-.07q-4.7 0-9.39.02l-9.98.07-10.1.12q-4.92.07-9.82.17l-9 .17-7.75.17q-3.05.07-6.1.17-1.88.04-3.86.12l-1.01.04c-.43.03-1.08.05-1.37.39-.17.19-.17.57-.19.81q-.06.93-.05 1.85c0 2.1.12 4.18.24 6.27q.25 4.35.58 8.71a1299 1299 0 0 0 2.37 28.03c.2 1.97.36 3.96.56 5.93q.11 1.05.19 2.13c.05.08 1.2-.12 1.18-.33"
      fill="var(--c, black)" />
    <path d="M20.09 28.27h80.09l-2.45 43.7-74.95.99z" fill="var(--b, white)" />
    <path
      d="M19.58 28.54h79.35q.32-.04.64 0c.12.02.05 0 .05.16l-.07 1.18-.29 5.14-.43 7.72-.5 8.88-.48 8.74-.41 7.13-.24 4.2-.03.58 1.08-.48-1.3-.03-3.6.05-5.46.07-6.94.1-7.97.1-8.57.11-8.73.1-8.5.12-7.82.1-6.72.1-5.19.06-3.24.05h-.76c-.17 0-.1.03-.12-.07q-.06-.45-.05-.89l-.12-1.87-.36-5.95-.48-7.9-.53-8.69-.48-8.28-.4-6.67-.25-3.86-.02-.5c0 .04-1.1.26-1.1.47l.26 4.47.65 10.7.76 12.89.68 11.14.21 3.7.08 1.14q-.03.3.04.6v.08h.03l1.99-.03 5.47-.07 8.07-.1 9.86-.12 10.77-.14 10.88-.14 10.13-.12 8.56-.12 6.2-.08q1.44.01 2.92-.04h.12c.15 0 1.06-.32 1.08-.48l.24-4.35.6-10.44.7-12.62.6-10.92.2-3.6.06-1.13q.07-.28.03-.6v-.07H23.88c-1.03 0-2.09-.03-3.12 0h-.14a2 2 0 0 0-.7.24c-.05.02-.38.24-.34.24M61.18 24.62s-1.23.05-.63 1.35 1.59.86 1.85 0c.26-.87-.77-1.49-1.23-1.35"
      fill="var(--c, black)" />
    <path
      d="M20.09 80.97S8.79 96.35 9.79 96.54c1.01.2 100.03 0 100.44-1.23.41-1.22-9.45-13.44-10.05-14.35s-80.1.03-80.1.03"
      fill="var(--b, white)" />
    <path
      d="M19.51 80.9a330 330 0 0 0-6.33 8.88c-1.2 1.76-2.43 3.48-3.48 5.33-.15.26-.63.91-.53 1.25.07.29.65.29.91.29 1.42.1 2.86.04 4.27.04l9.15.03q6.37 0 12.74-.03 7.48-.01 14.95-.07 7.9-.04 15.77-.12 7.6-.07 15.22-.17a1202 1202 0 0 0 23.06-.48c1.7-.07 3.46-.04 5.11-.33q.22 0 .44-.12c.19-.2-.05-.6-.15-.8-.89-1.89-2.28-3.6-3.5-5.27a410 410 0 0 0-4.68-6.15l-1.44-1.87c-.22-.26-.27-.4-.6-.48q-.97-.2-1.97-.22l-3.34-.12a513 513 0 0 0-10.53-.1 1398 1398 0 0 0-14.19 0l-15.7.08q-7.43.04-14.87.12-6.05.04-12.1.12l-6.98.07h-.94c-.14 0-.38-.02-.24.12s.62.15.82.15l3.7-.05 9.66-.1 13.56-.12q7.72-.06 15.39-.1 7.52-.03 15.05-.04 6.32-.01 12.64.05 2.41.01 4.78.07.94.02 1.87.05l.82.02h.24l.36.02 1.08.07h.1c.14 0-.17-.02-.05 0l.16.03c.2.02-.07-.03-.02 0 .14.02-.05 0-.02 0l-.15-.05q.1.22.29.4.73.97 1.46 1.93a383 383 0 0 1 4.68 6.14 136 136 0 0 1 2.14 3 16 16 0 0 1 1.32 2.2q.18.28.17.6c-.03.13.02.03-.05.08s0 0-.1.02-.16.03-.26.05l-.17.03q-.09 0 0 0l-.12.02-.43.05q-.57.03-1.15.1c-2.55.16-5.12.21-7.68.28a1857 1857 0 0 1-25.83.43q-7.7.08-15.4.12c-7.7.04-10.28.08-15.39.1q-6.96.02-13.92.05H18.07q-3.48 0-6.96-.03-.74 0-1.49-.02c.36 0-.28-.05.15 0 .07 0 .52.1.5.14v-.14a6 6 0 0 1 .7-1.44c1.1-1.87 2.35-3.65 3.57-5.45a254 254 0 0 1 4.16-5.83l1.92-2.64c.04-.07-.53-.17-.58-.2-.07-.06-.43-.14-.53 0"
      fill="var(--c, black)" />
    <path d="m11.04 98.33-1.25-1.8 100.44-1.23s-.36 2.36-2.35 3-94.18 1.35-96.84.03" fill="var(--c, black)" />
    <path
      d="m11.6 98.04-1.26-1.8-.79.7 2.71-.03 7.28-.1 10.84-.11 13.13-.17 14.5-.17 14.52-.17L86.16 96l11.45-.14 8.28-.1 2.57-.02a8 8 0 0 0 1.34-.03h.17l-.29-.33a3.6 3.6 0 0 1-1.2 2.2q-.3.2-.62.34l.07-.02-.17.02-.6.05h-.31l-.5.02q-3.2.14-6.39.2-5 .1-9.98.16l-12.44.15-13.82.1q-7.1.02-14.18.02-6.7 0-13.4-.03-5.75-.04-11.47-.12-4.26-.06-8.54-.21a57 57 0 0 1-2.83-.15l-1.01-.07-.39-.05-.14-.02h-.05l-.36-.1c-.38-.19-1.32.53-.74.8.34.16.79.16 1.18.21q1.14.1 2.3.17 3.9.18 7.77.24 5.51.1 11.05.14 6.59.05 13.17.05 7.12 0 14.26-.02l14.16-.1q6.45-.04 12.89-.12 5.28-.07 10.58-.17 3.56-.06 7.1-.19c1.73-.07 3.32.05 4.56-1.42a4.7 4.7 0 0 0 1.08-2.25c.05-.15-.05-.29-.19-.34h-.1l-2.68.03-7.3.1-10.85.11-13.15.17-14.5.17-14.52.17-13.63.16-11.45.15-8.28.1-3.88.04h-.1c-.24 0-1.03.34-.8.7l1.26 1.8c.26.43 1.3-.14 1.05-.53M27.84 84.77h1.75l4.7-.03 7.01-.04 8.5-.05 9.36-.07 9.38-.08 8.81-.04 7.4-.05 5.35-.03q1.26 0 2.52-.02h.12c.19 0 .52-.07.48-.34s-.48-.33-.7-.33h-1.75l-4.7.02-7.01.05-8.5.05-9.36.07-9.38.07L43 84l-7.4.05-5.35.05q-1.26 0-2.52.02h-.12c-.19 0-.53.07-.48.34s.48.33.7.3M26.2 88.66h1.86l4.99-.03 7.41-.05 9-.04 9.92-.08 9.93-.07 9.34-.05 7.85-.04 5.66-.05c.89 0 1.78.02 2.67-.03h.12c.28 0 .33-.36.24-.57a.8.8 0 0 0-.72-.46h-1.85l-5 .03-7.41.04-9 .05-9.91.07-9.94.08-9.34.04-7.84.05-5.67.05q-1.32-.02-2.66.02h-.12c-.29 0-.34.36-.24.58a.8.8 0 0 0 .72.46M23.76 92.42h1.97l5.33-.02 7.92-.05 9.6-.05 10.58-.07 10.6-.07 9.97-.05 8.37-.05 6.05-.02q1.43.02 2.86-.02h.12a.56.56 0 0 0 .53-.6c-.03-.34-.36-.46-.65-.46h-1.97l-5.33.02-7.92.05-9.6.05-10.58.07-10.6.07-9.97.05-8.35.05-6.05.02c-.93 0-1.9-.02-2.85.03h-.12a.56.56 0 0 0-.53.6c.02.36.36.45.62.45"
      fill="var(--c, black)" />
    <path
      d="m48.86 81.96-1.58 4.15-2.57 6.63-.6 1.53c-.1.27.15.48.39.5a.7.7 0 0 0 .72-.4l1.6-4.15 2.57-6.63.6-1.53c.1-.27-.14-.48-.38-.5a.8.8 0 0 0-.75.4M59.8 81.84v12.14c0 .39 1.2.39 1.2 0V81.84c0-.38-1.2-.38-1.2 0M70.73 81.6l1.56 4.03 2.47 6.48.58 1.49c.12.31 1.24.65 1.05.17l-1.56-4.03-2.47-6.48-.58-1.5c-.12-.3-1.22-.62-1.05-.16M32.93 82.42l-2.43 3.86-3.86 6.22-.89 1.41c-.12.2 1.01.41 1.15.17l2.43-3.86 3.89-6.2.88-1.44c.1-.21-1-.43-1.17-.16"
      fill="var(--c, black)" />
    <path d="M84.86 82.32c.5.34 7.18 11.02 7.18 11.02z" fill="var(--b, white)" />
    <path
      d="M84.58 82.54c.02.02-.12-.15-.05-.05q.03.03.07.1c0-.03-.1-.15-.02-.05l.02.04.12.15q.31.43.6.86a63 63 0 0 1 1.73 2.64L90.72 92q.43.65.82 1.32c.16.24.45.4.74.39.24-.03.36-.2.22-.44l-2.33-3.67a306 306 0 0 0-3.8-5.88q-.35-.52-.71-1.03-.23-.34-.53-.63c-.2-.12-.55-.3-.77-.14-.22.17.05.5.22.63"
      fill="var(--c, black)" />
    <path d="m32 65.64 3.71.2s2.38-3.2 2.16-6.1-.81-4.42-.81-4.42-5.7 8.02-5.07 10.32" fill="var(--b, white)" />
    <path
      d="m31.97 66.17 2.28.12 1.24.07c.3.05.6-.05.77-.29q.99-1.37 1.59-2.95c.28-.74.5-1.54.57-2.35q.07-1.34-.14-2.7a14 14 0 0 0-.7-2.94.66.66 0 0 0-.86-.27.3.3 0 0 0-.17.15c-.67.93-1.3 1.92-1.92 2.88a31 31 0 0 0-2.88 5.4c-.29.74-.57 1.63-.38 2.42.17.65 1.34.58 1.15-.14q-.03-.09-.02-.17c.02.17 0-.05 0-.1q0-.22.04-.45c0-.03.03-.17 0-.03l.03-.12q.02-.1.05-.22.07-.3.19-.62a19 19 0 0 1 1.18-2.54 58 58 0 0 1 2.88-4.66q.33-.49.67-.98l-1.03-.12a5.89 5.89 0 0 1 .24.82q.31 1.32.45 2.68a7 7 0 0 1-.24 2.93q-.39 1.23-1.03 2.35-.34.62-.74 1.2l.52-.21L32 65.1a.56.56 0 0 0-.62.46v.02a.66.66 0 0 0 .6.58"
      fill="#002780" />
    <path
      d="m37.49 56.02.48-.94q.59-1.16 1.17-2.3l3.75-7.44 4.48-8.93 3.9-7.75c.64-1.3 1.36-2.6 1.98-3.92q.03-.02.05-.1c.12-.2-.81.18-.86.2a6 6 0 0 0-.8.46q-.25.14-.43.36l-.48.93q-.56 1.15-1.17 2.33l-3.75 7.44q-2.24 4.47-4.48 8.93l-3.9 7.75c-.64 1.3-1.36 2.6-1.98 3.91q-.03.03-.05.1c-.12.22.82-.17.84-.2q.43-.2.8-.45.27-.16.45-.38"
      fill="#002780" />
    <path
      d="m44.52 61.56-2.3 2.64a15 15 0 0 1-2.04-4.6c-.56-2.5-3.27-4.76-3.27-4.76s3.46.74 4.27 3.12c.82 2.38 2.33 3.6 3.34 3.6"
      fill="var(--b, white)" />
    <path
      d="m43.94 61.6-2.3 2.65 1.18-.1a13 13 0 0 1-1.83-3.8c-.14-.5-.24-1-.4-1.48a8 8 0 0 0-.6-1.2 12 12 0 0 0-1.54-1.97q-.47-.47-.96-.9l-1.08.18q1.52.36 2.76 1.25a4 4 0 0 1 1.46 1.92 7 7 0 0 0 1.59 2.62 2.9 2.9 0 0 0 2.01.93c.22 0 .63 0 .82-.12.2-.12-.12-.12-.22-.12.1 0-.02 0-.05-.02-.02-.03-.12-.03-.16-.05q-.23-.08-.44-.19a4 4 0 0 1-.88-.72 8 8 0 0 1-1.5-2.64c-.5-1.4-1.89-2.26-3.2-2.74a6 6 0 0 0-1.11-.33q-.37-.05-.75.04c-.04 0-.43.08-.33.15a11 11 0 0 1 2.3 2.61q.37.58.63 1.18.23.69.4 1.37a13 13 0 0 0 1.1 2.78q.36.72.82 1.37c.08.12.44.05.53.05.14 0 .53 0 .65-.15l2.3-2.64c.1-.1-.38-.07-.43-.07-.2 0-.65 0-.77.15"
      fill="#002780" />
    <path d="m39.91 66.91 2.98-1.34s-1.83-2.16-1.97-4.13-1.08-5.02-2.57-5.28c0 0 .82 1.75.56 4.6-.27 2.86 1 6.15 1 6.15"
      fill="var(--b, white)" />
    <path
      d="m40.27 67.1 2.98-1.34c.12-.05.33-.22.21-.36a9 9 0 0 1-1.82-3.36q-.12-.61-.17-1.22a10 10 0 0 0-.21-1.2q-.29-1.2-.87-2.3c-.36-.66-.88-1.28-1.65-1.45a1 1 0 0 0-.65.07c-.07.03-.39.17-.31.32.48 1.05.6 2.32.6 3.48 0 .55-.08 1.1-.1 1.65q-.03.77.07 1.54a18 18 0 0 0 .99 4.1c.14.39 1.3.1 1.17-.21a17 17 0 0 1-.93-3.72 11 11 0 0 1-.12-1.54c0-.55.07-1.08.1-1.63a11 11 0 0 0-.25-2.71q-.1-.61-.36-1.18l-.96.38c.58.13.99.7 1.27 1.2q.6 1.08.84 2.26.15.57.22 1.18.03.59.14 1.17.33 1.23 1.04 2.3.4.66.86 1.23l.22-.36-2.98 1.35c-.17.07-.36.26-.14.4s.6.05.81-.04"
      fill="#002780" />
    <path
      d="M37.82 68.54s-2.16-1.75-2.16-2.97 1.7-3.05 2.04-6.1-.33-3.72-.33-3.72 1.49-.55 1.97 1.78-1.7 6.77-.22 9.29z"
      fill="var(--b, white)" />
    <path
      d="M38.11 68.14a9 9 0 0 1-1.53-1.59 2 2 0 0 1-.34-.57.6.6 0 0 1-.05-.44q0-.02.03-.1c.02-.14-.03.1 0-.04q.02-.15.1-.29.1-.32.26-.65c.5-1.1 1.05-2.18 1.36-3.36.36-1.36.48-2.78.32-4.17-.08-.56-.2-1.18-.6-1.59l-.08.96.08-.02.07-.02q-.13.02.02 0h.22c.12 0-.1-.03-.03 0l.17.04c.03 0 .1.05-.02 0q.05.05.12.05c.14.07 0-.02.1.07l.07.08c.07.07-.1-.12.02.02s.22.31.26.48c.15.36.22.77.22 1.15 0 1.92-.7 3.8-.8 5.71a5.7 5.7 0 0 0 .66 3.22l-.05-.67-1.27 1.75c-.36.5.48 1.34.86.8l1.3-1.76a.6.6 0 0 0-.03-.67 5 5 0 0 1-.38-2.62 35 35 0 0 1 .5-3.2q.32-1.39.27-2.82c-.08-.94-.48-2-1.32-2.5a1.8 1.8 0 0 0-1.47-.2c-.43.15-.33.7-.07.97q-.17-.18-.05-.07c.07.07-.05-.05-.02-.05l.07.12q.02.08.05.14l.02.1c-.04-.17 0-.03 0 0q.07.27.1.55.2 2.07-.41 4.06c-.33 1.1-.91 2.13-1.37 3.19a3 3 0 0 0-.31 1.18q.03.84.53 1.53a10 10 0 0 0 1.87 2.04c.22.17.55.24.74 0a.7.7 0 0 0-.19-.81"
      fill="#002780" />
    <path d="m28.06 64.2 3.19 2.04s5.83-9.48 5.83-10.3c0-.81-.55-.88-.55-.88S32.18 63 28.06 64.2"
      fill="var(--b, white)" />
    <path
      d="m27.53 64.18 3.19 2.04q.31.16.65.19c.1.02.38.07.45-.02q1.2-1.95 2.36-3.9c1.1-1.86 2.25-3.71 3.21-5.68q.19-.33.27-.7c.1-.77-.63-1.08-1.25-1.17-.1-.03-.39-.1-.46.02-.5.94-1.1 1.85-1.7 2.74a25 25 0 0 1-4.04 4.77 7.5 7.5 0 0 1-2.68 1.61c-.15.05.36.24.38.24q.37.15.74.07c1.9-.57 3.44-2.18 4.68-3.64a34 34 0 0 0 3.24-4.54q.31-.5.58-1l-.46.02-.48-.12.05.04c.1.12.2.24.22.39a.7.7 0 0 1 0 .43 4 4 0 0 1-.29.7 40 40 0 0 1-1.32 2.44c-1.08 1.92-2.23 3.8-3.36 5.7a24 24 0 0 1-.82 1.31l1.1.17-3.18-2.04a2 2 0 0 0-.8-.22c-.12 0-.48 0-.28.15"
      fill="#002780" />
    <path d="M27.58 59.93c0 .21 2.3 3.79 2.3 3.79s4.68-3.86 5.35-4.75c.68-.89.89-3.65.89-3.65z"
      fill="var(--b, white)" />
    <path
      d="M27.03 60.12c.02.26.23.55.38.74l.79 1.3 1.18 1.85c.19.28.64.17.86-.03q1.55-1.29 3.07-2.59.96-.82 1.87-1.68.33-.29.58-.65c.26-.4.46-.89.55-1.37q.3-1.22.39-2.44c.02-.44-.46-.46-.75-.29l-7.49 4.06-1.03.55c-.21.12-.45.4-.31.65s.53.19.72.07l7.51-4.06 1.03-.55-.74-.29a18 18 0 0 1-.26 1.97 5 5 0 0 1-.41 1.3 1 1 0 0 1-.17.24q-.04.05-.1.12c-.02.04-.19.19-.07.07-1.2 1.2-2.52 2.28-3.81 3.36q-.58.47-1.18.98l.86-.02q-.58-.9-1.12-1.8-.4-.64-.77-1.27l-.26-.46q-.04-.08-.1-.17c-.17-.55-1.27-.12-1.22.41"
      fill="#002780" />
    <path d="M26.23 62.52s-1.36-1.34-1.36-2.45c0 0 2.1-1.97 4.41-2.9 2.3-.94 5.57-.89 5.57-.89z"
      fill="var(--b, white)" />
    <path
      d="M26.76 62.28c-.24-.24-.43-.48-.65-.74-.31-.41-.65-.94-.67-1.47l-.1.22q.13-.1.24-.22c.05-.05-.02.03-.02.03l.07-.08.17-.14q.18-.16.38-.31 1.04-.81 2.19-1.49a11.5 11.5 0 0 1 5.04-1.32q.67-.04 1.37-.05l-.32-.7-2.9 2.1-4.66 3.36-1.05.76c-.2.15-.32.41-.08.6q.42.21.85-.04l2.9-2.1 4.66-3.35 1.05-.77a.4.4 0 0 0 .2-.46c-.1-.19-.32-.21-.51-.24a15 15 0 0 0-5.71.89 15 15 0 0 0-3.43 2c-.39.28-.72.57-1.08.88-.22.2-.44.31-.41.65.05.93.77 1.85 1.39 2.47.22.2.53.24.8.1.16-.08.5-.36.28-.58"
      fill="#002780" />
    <path d="m27.31 57.43.2-2.45s1.63 1.56 4.46.41a9.3 9.3 0 0 1 5.42-.48c.03 0-4.05 4.01-10.08 2.52"
      fill="var(--b, white)" />
    <path
      d="m27.84 57.58.2-2.45-.87.24c.72.7 1.87 1 2.85 1q.71 0 1.42-.19c.55-.14 1.08-.38 1.63-.55A9 9 0 0 1 36 55.3q.3 0 .58.04.14.01.26.03l.1.02c.07 0-.07-.02.02 0s.27.05.39.07l-.36-.96-.03.03q-.17.17-.33.26-.61.47-1.25.86a10.6 10.6 0 0 1-8 1.2c-.74-.19-.76.96-.14 1.1a11.7 11.7 0 0 0 9.91-2.08 5 5 0 0 0 .68-.58c.3-.28-.03-.86-.36-.96a9 9 0 0 0-3.77-.07q-.83.15-1.66.43-.74.3-1.53.46a3.6 3.6 0 0 1-2-.22c-.1-.04-.04-.02 0 0l-.12-.04-.19-.1a1 1 0 0 1-.26-.17c-.03-.02-.15-.1-.05-.02s0 0-.03-.03l-.04-.05c-.3-.26-.82-.19-.87.24l-.19 2.45c-.02.31.17.63.48.7.29.12.55-.05.6-.34q0 .04 0 0M87.7 35.69s-5.24 3.21-5.24 3.7 4.35 3.04 8.07 11.8c.43.99 8.32-6.65 8.04-7.4-1.68-4.4-10.51-8.34-10.87-8.1"
      fill="#002780" />
    <path
      d="M87.2 35.35a84 84 0 0 0-3.42 2.21q-.9.55-1.68 1.27c-.24.24-.1.43.1.65.29.34.62.62.96.94.53.52.94.93 1.44 1.5a30 30 0 0 1 4.03 6q.57 1.1 1.06 2.22.18.42.38.86.26.36.7.55c.43.22.8 0 1.15-.24 1.32-.84 2.5-1.97 3.62-3.02a25 25 0 0 0 3.2-3.41q.17-.21.31-.5c.1-.22 0-.36-.1-.58a9 9 0 0 0-1.75-2.45 24 24 0 0 0-5.4-4.05 33 33 0 0 0-2.57-1.32 10 10 0 0 0-1.63-.63.6.6 0 0 0-.4 0c-.1.07.38.46.4.48.12.1.4.32.58.22q-.06.03 0 0c-.08-.03.02-.03 0 0q.1 0 .21.05l.07.02c-.1-.02.1.03 0 0q.07.03.15.05l.36.14q1.02.4 1.97.94a23 23 0 0 1 4.82 3.24 10 10 0 0 1 1.85 2.14 10 10 0 0 1 .45.93l-.02.1-.12.21a7 7 0 0 1-1 1.28 28 28 0 0 1-1.66 1.72 37 37 0 0 1-3.68 3.27 4 4 0 0 1-1.22.74l-.17.03c-.02.02.03-.03.03 0a.7.7 0 0 1 .38.26q.18.1.36.29-.07-.2-.17-.39a34 34 0 0 0-1-2.13 33 33 0 0 0-3.9-6.07q-1.27-1.51-2.73-2.88l-.17-.17-.07-.07-.05-.05s.07.05.03.02c-.05-.02 0-.05 0 .03v-.05l.07-.1q.1-.14.24-.24.36-.31.77-.6c1.24-.91 2.56-1.73 3.86-2.54l.29-.17c.12-.05-.65-.86-.94-.7"
      fill="#002780" />
    <path
      d="M65.04 28.51s6.02 8.19 6.26 7.75c3.05-6.16 11.14-8.3 10.9-9.38s-2.93-5.52-3.7-5.78c-4.36-1.44-13.72 7.03-13.46 7.41"
      fill="var(--b, white)" />
    <path
      d="M64.97 28.56c1.73 2.33 3.45 4.68 5.33 6.91q.5.66 1.12 1.2c.17.15.22.15.32-.05q.42-.84 1-1.63a19 19 0 0 1 5.28-4.63 51 51 0 0 1 2.48-1.42 12 12 0 0 0 1.67-1q.23-.14.36-.39a.7.7 0 0 0-.04-.53 16 16 0 0 0-1.3-2.5 27 27 0 0 0-1.85-2.78 7 7 0 0 0-.86-.96q-.35-.25-.82-.31c-1.75-.26-3.57.58-5.09 1.4a33 33 0 0 0-5.08 3.43 29 29 0 0 0-1.83 1.58q-.53.44-.9.98c-.13.22.01.36.13.56.05.1.36.6.48.57s-.12-.36-.14-.4c.29.45.1.43.31.16l.39-.43c.45-.48.96-.91 1.44-1.35a33 33 0 0 1 4.58-3.36c1.54-.96 3.26-1.87 5.09-2.13a6 6 0 0 1 1.1-.05q.43 0 .8.22l.07.07.12.12q.07.08.14.2l.17.18c.02.03.1.13.02.03l.1.14.19.27c.1.14.24.38.38.57q.78 1.19 1.42 2.47c.17.36.43.72.14 1.04a6 6 0 0 1-1.27.84l-2.18 1.22a21 21 0 0 0-5.14 3.94 13 13 0 0 0-2.06 2.95q-.03.04-.05.1c-.05.02-.05-.03-.1-.05l-.1-.07c.1.07-.02-.03-.02-.05l-.24-.27-.1-.1-.11-.14-.34-.4q-.19-.21-.33-.41c.04.07-.08-.1-.1-.12l-.24-.29a68 68 0 0 1-1.6-2.06c-.54-.7-1.02-1.32-1.52-2l-.58-.76-.21-.3c-.15-.18-.03-.04 0 0l-.1-.11-.12-.17c-.02-.05-.34-.5-.43-.43-.1.07.19.48.21.5M58.44 48.77s-3.1-3.15-10.2-5.9c0 0 1.78-6.82 2.28-7.04s7.85 5.74 9.62 7.7z"
      fill="#002780" />
    <path
      d="M58.92 48.94a13 13 0 0 0-1.63-1.37 35 35 0 0 0-4.87-3 46 46 0 0 0-4.28-1.92l.63.45q.36-1.44.79-2.88.32-1.1.67-2.23a13 13 0 0 1 .6-1.63 1 1 0 0 1 .12-.2c.03-.04.07-.09.07-.06a1 1 0 0 1-.19-.05l-.1-.05.05.02c.12.05-.12-.07-.05-.02l.24.14c.08.05-.1-.04-.02 0l.07.05.17.12.8.55a72 72 0 0 1 3.98 3.15c1.25 1.05 2.56 2.11 3.67 3.33l-.05-.1-1.49 4.6-.21.64c-.08.24 1.03.7 1.08.53l1.5-4.68q.14-.26.2-.55c0-.15-.24-.32-.31-.41q-.24-.26-.48-.48-1.2-1.14-2.47-2.21a63 63 0 0 0-5.48-4.27 7 7 0 0 0-1-.6c-.22-.12-.65-.36-.9-.27-.16.08-.25.36-.33.5q-.22.6-.43 1.16a67 67 0 0 0-1.54 5.28l-.02.12c-.05.2.53.43.63.46a41 41 0 0 1 6.23 3.05q.98.58 1.88 1.24l.62.48.5.41q.17.16.34.31l.03.03.02.02q.32.3.72.4c.05.03.43.1.24-.06"
      fill="#002780" />
    <path d="m82.78 59.66 2.35-.4s-.89-6.24-4.95-8.6c0 0-5.3 1.37-5.4 2.21 0-.02 5.19 2.28 8 6.8"
      fill="var(--b, white)" />
    <path
      d="m83.26 59.86 2.35-.41q.06 0 .1-.07a15 15 0 0 0-2.1-5.74 10 10 0 0 0-1.46-1.85 8 8 0 0 0-.93-.79c-.44-.31-.96-.65-1.51-.55q-1.27.28-2.5.74-1.05.33-2.02.77c-.31.14-.93.38-1 .77-.03.1.19.19.26.21l.02.03c-.02-.03.12.05 0 0l.39.19q.67.36 1.36.77a20 20 0 0 1 3.87 3.05 15 15 0 0 1 2.09 2.61c.12.2.48.24.7.29.04 0 .54.05.45-.12-1.78-2.83-4.54-5.04-7.47-6.58l-.76-.38.26.22c.05-.24.38-.41.58-.5q.6-.35 1.24-.56a56 56 0 0 1 2.84-.91l.64-.17-.93-.17c2.64 1.56 3.98 4.8 4.63 7.68.05.27.12.5.14.77l.1-.07-2.35.4c-.27.05.07.24.17.3.28.06.57.11.84.06M85.85 60.24s1.41-1.44 2.09-4.58c0 0 2.83.21 2.85.96s-2.95 3.62-2.95 3.62-1.54.05-2 0"
      fill="#002780" />
    <path
      d="M86.57 60.38c-.29 0-.58 0-.74-.02l-.24-.02.16-.17c.03-.03 1.4-1.47 2.07-4.54l.02-.1h.1c.48.05 2.95.27 2.97 1.09s-2.68 3.43-3 3.72l-.02.02h-.05zm-.48-.24c.53.03 1.46 0 1.68-.02 1.15-1.1 2.9-3 2.9-3.5 0-.43-1.5-.75-2.64-.84a10 10 0 0 1-1.94 4.37"
      fill="#002780" />
    <path
      d="m79 59.33 1.06 8.83.15 1.25c.02.24.74.38.93.4q1.6.25 3.2.34a21 21 0 0 0 2.7.03 8 8 0 0 0 2.31-.39c.31-.12.91-.36.99-.72s.1-.84.12-1.22l.48-4.7.33-3.39c.03-.24-1.13-.48-1.13-.38l-.74 7.49-.17 1.58q0 .18-.02.31c-.05.17-.29.29-.43.38q-.95.49-2.04.56a19 19 0 0 1-2.64.05 38 38 0 0 1-3.7-.34l.94.4-1.06-8.83-.14-1.24c-.03-.17-.41-.27-.53-.32-.05 0-.63-.16-.6-.1"
      fill="var(--c, black)" />
    <path
      d="M79.9 60.14q.57.4 1.27.63 1.84.61 3.79.62c1.6.05 3.24-.12 4.8-.5.6-.15 1.63-.41 1.34-1.23-.24-.72-.84-1.1-1.53-1.24a17 17 0 0 0-2.19-.3 35 35 0 0 0-5.73-.04 7 7 0 0 0-1.97.36.7.7 0 0 0-.4.34c-.15.3.09.74.28 1zc.19.15.3.05.26-.14a1.4 1.4 0 0 0-.43-.72c-.05-.02-.07-.1.02.02l.03.05.04.07a1 1 0 0 1 .1.2c.05.14.02.12.02.07.05.24 0 .05 0 .05s-.04.02.03-.03q.04-.06.1-.1.1-.07.23-.11a6 6 0 0 1 1.76-.34 32 32 0 0 1 5.2 0q1.13.07 2.21.22l.77.16q.22.08.43.2c-.07-.07.1.05 0 0a1 1 0 0 1-.17-.27c-.02-.07-.1-.24-.07-.26-.05.02-.07.17-.14.22q-.44.32-.99.43a19 19 0 0 1-4.17.53q-2.13.1-4.18-.5a5 5 0 0 1-.98-.42q-.13-.07-.27-.14l-.07-.05c.12.08.1.05.05.05q-.3-.2-.26.14c.12.24.26.5.48.68"
      fill="var(--c, black)" />
    <path
      d="M83.04 69.46q-.01-.52-.1-.99l-.21-2.13-.5-4.68c-.05-.41-.13-.82-.13-1.23s-1.17-.19-1.17.24c0 .34.07.67.1.99l.21 2.13.5 4.68c.05.41.12.82.12 1.23s1.18.19 1.18-.24M86.14 70q0-3.87.04-7.75v-1.24c0-.32-.21-.6-.52-.65-.27-.05-.56.12-.6.38v.05q-.01 3.88-.05 7.75v1.23c0 .3.21.6.53.64.26.05.55-.12.6-.38zM88.6 69.6c0-1 .15-2.06.25-3.07l.38-4.7c.02-.39.1-.8.1-1.2 0-.13-1.2-.15-1.2 0 0 1-.15 2.06-.24 3.07l-.39 4.7c-.02.38-.1.8-.1 1.2 0 .12 1.2.14 1.2 0"
      fill="var(--c, black)" />
    <path
      d="M80.83 67.92a14.5 14.5 0 0 0 9.14-.14c.3-.08.5-.36.46-.65a.6.6 0 0 0-.72-.36 13.6 13.6 0 0 1-8.52.12.65.65 0 0 0-.74.38c-.07.27.07.56.33.63zM80.35 64.18c.84.24 1.64.55 2.5.72q1.27.23 2.54.19a11.4 11.4 0 0 0 4.85-1.25c.65-.34-.22-1-.7-.74a10 10 0 0 1-4.39 1.15 10 10 0 0 1-2.23-.17c-.82-.17-1.59-.46-2.4-.7-.24-.07-.6 0-.67.3-.08.28.28.45.5.5"
      fill="var(--c, black)" />
    <path
      d="M50.16 43.06a11 11 0 0 0 2.11-1.5c.2-.16.27-.47.03-.62a.8.8 0 0 0-.82.12q-.2.2-.46.39-.11.1-.24.19l-.12.1.03-.03-.07.05q-.5.35-1.04.62c-.19.12-.43.44-.24.63.24.21.55.21.82.05M50.93 37.37a9 9 0 0 0 2.9 4.13 6.7 6.7 0 0 0 5 1.36c.21-.02.62-.16.64-.4s-.34-.3-.5-.27c-3.3.46-5.83-2.37-6.9-5.16-.13-.4-1.29-.05-1.14.34"
      fill="var(--b, white)" />
    <path
      d="M56.64 43.03q.21 1.73.77 3.41c.14.29.48.43.77.34a.5.5 0 0 0 .3-.65q0-.03-.02-.05c-.04-.17-.14-.46-.21-.7a8 8 0 0 1-.2-.81 19 19 0 0 1-.28-1.61c-.05-.7-1.23-.67-1.13.07M86.52 39.38c1.15-.26 2.88-.19 3.48 1.04.22.48.2 1.05-.12 1.48-.24.39-.91 1.01-1.42.77l.22.15.2.33v.24c.04-.26.4-.36.62-.36q.4 0 .76.2.62.37.92 1.03a3.5 3.5 0 0 1-.15 3.07c-.21.38.48 1.32.72.94a4.6 4.6 0 0 0 .22-3.8c-.43-1.15-1.51-2.61-2.9-2.54q-.41.02-.75.29c-.34.28-.31.74-.1 1.1.41.67 1.2.55 1.78.14 1.18-.84 1.15-2.42.46-3.55-.94-1.49-2.69-2-4.35-1.63-.45.12.03 1.18.41 1.1M92.26 41.6a4 4 0 0 0-.15 1.57q.02.35.29.58.31.14.65.1.37.02.74-.03a2 2 0 0 0 .65-.28q.3-.15.55-.41c.36-.38.24-.91 0-1.32a2.5 2.5 0 0 0-1.1-1.03.3.3 0 0 0-.2.02 2 2 0 0 0-.38.2l-.36.23c-.02.03-.14.15-.12.15a2.5 2.5 0 0 1 .91.74c.24.31.48.74.41 1.15a1 1 0 0 1-.1.24l-.04.07c-.15.22.36-.3.6-.33h-.05q-.33.02-.63 0-.29.04-.55-.1a.7.7 0 0 1-.24-.5 3.4 3.4 0 0 1 .15-1.56c.04-.15-.41.07-.44.1l-.4.23c-.08 0-.2.08-.2.17"
      fill="var(--b, white)" />
    <path
      d="m74.54 25.18 1.25 1.99.24-.72a6 6 0 0 1-.84.43c-.22.07-.7.29-.86.24l.26.12-.05-.05.15.22c-.15-.38-.1-.91-.05-1.3l-1 .44a6 6 0 0 1 1.26 1.68l.08.14q.15-.25 0-.1c-.1.03-.24.2-.34.24l-1.32.99-.65.5q-.28.25-.6.46l.46.02a2 2 0 0 1-.6-.48q-.33-.28-.63-.6-.27-.29-.48-.65c-.1-.17-.33-.57-.26-.77.02-.07.2-.16.24-.21l.36-.34q.35-.32.74-.62c.4-.3.53-.43.82-.62q.36-.31.8-.53l-.32.1h.1l-.34-.08-.14-.22v-.02c-.05.31.3.5.57.48a.6.6 0 0 0 .6-.55.6.6 0 0 0-.48-.62c-.38-.1-.7.1-.98.3q-.8.55-1.56 1.16c-.5.4-1.03.8-1.4 1.27-.38.53-.14 1.18.13 1.7q.4.72 1 1.25.3.29.6.53c.24.22.53.48.87.46s.6-.27.86-.46l.84-.65 1.63-1.25c.27-.19.58-.4.6-.76s-.19-.68-.36-.96a8 8 0 0 0-1.3-1.61c-.35-.31-.98-.03-1 .43q-.06.65.02 1.3c.08.5.44.74.94.67a6 6 0 0 0 2.2-.86.53.53 0 0 0 .27-.7s0-.02-.02-.02l-1.25-2c-.34-.55-1.42 0-1.03.58z"
      fill="#002780" />
    <path
      d="M16.73 48.22q.72 1.07 1.56 2.06A19 19 0 0 0 22 53.83a9 9 0 0 0 2.69 1.35c.24.07.62.04.76-.2s-.14-.48-.36-.52c-1.56-.44-2.9-1.54-4.05-2.64a25 25 0 0 1-2.76-3.2q-.26-.34-.48-.7c-.27-.42-1.44-.26-1.08.3M19.7 59.98q.23.57.53 1.1.81 1.44 1.87 2.66c2.5 2.86 5.81 4.78 9.44 5.83a30 30 0 0 0 9.31 1.01.3.3 0 0 0 .34-.26q.01-.1-.05-.17a.9.9 0 0 0-.7-.48 29 29 0 0 1-8.2-.74 20 20 0 0 1-5.55-2.28q-.54-.34-1.08-.72l-.48-.36-.12-.1-.02-.02-.24-.2a19 19 0 0 1-1.61-1.5l-.17-.2c-.02-.02-.07-.1.02.02l-.07-.1q-.17-.18-.33-.38-.26-.31-.5-.67l-.44-.65q-.1-.15-.2-.28l-.06-.12-.05-.08a11 11 0 0 1-.65-1.29.8.8 0 0 0-.7-.48c-.29-.02-.38.2-.29.46M49.82 65c.58.23 1.2.04 1.78-.13a21 21 0 0 0 2.66-1.05 48 48 0 0 0 7.78-4.54 41 41 0 0 0 8.23-7.66 47 47 0 0 0 3.7-5.23A28 28 0 0 0 76.15 42c.34-.89.72-1.92.6-2.88a1.4 1.4 0 0 0-1.51-1.25l-.17.03a3 3 0 0 0-1.1.55 7 7 0 0 0-1.44 1.41c-.77 1.01-1.18 2.21-1.23 3.49 0 1.05.37 2.1 1.28 2.7 1.08.73 2.42.51 3.52-.06.9-.46 1.68-.99 2.6-1.37a14 14 0 0 1 2.78-.94 13 13 0 0 1 1.37-.22 8 8 0 0 1 1.3-.02l.69.07c.02 0 .22.05.07.03l.15.02q.17.03.33.1l.34.1-.05-.03.1.02.17.08.3.14c.06.02.15.07.06.02l.16.1q.16.08.27.17l.14.1c-.1-.08.03.02.07.04q.29.22.53.48c-.05-.05.05.05.05.07l.12.15q.14.15.26.33.23.3.41.63a10 10 0 0 1 1.13 3.81q.14 1.27.14 2.55c0 .43 1.13.81 1.13.3 0-2.63-.36-5.6-2.11-7.72a7 7 0 0 0-5.21-2.38 13 13 0 0 0-5.6 1.25c-.88.38-1.67.89-2.51 1.35a3.4 3.4 0 0 1-1.66.5c.1 0-.31-.05-.14-.03l-.15-.04c-.14-.03.08.04-.04-.03-.05-.02-.15-.07-.03 0l-.12-.07c-.05-.02.03.02.03.02l-.08-.04q-.08-.07-.12-.12c.08.07-.1-.15-.12-.17a1 1 0 0 1-.12-.24 2 2 0 0 1-.19-.6 4 4 0 0 1 0-1.56 6 6 0 0 1 1.75-3.22 5 5 0 0 1 1.2-.89q.12-.02.22-.1l.1-.02c-.03 0-.08-.02.02 0 .05 0 .12.03-.02 0 .02 0 .12.03.02 0s.14.1-.12-.04c.07.02-.14-.1-.05-.03-.05-.02-.17-.12-.07-.05-.05-.1.05.03 0 0l.05.1.02.1c-.02-.08 0-.03 0 .02l.03.24q0 .6-.15 1.18a17 17 0 0 1-1.44 3.7 38 38 0 0 1-2.9 4.77 41 41 0 0 1-7.92 8.45 50 50 0 0 1-7.92 5.18 37 37 0 0 1-3.12 1.46q-.6.26-1.2.44l-.48.14-.2.05-.1.02h-.01l-.3.02c-.09 0 .15.03 0 0-.09 0 .08.03.1.03l.1.05c-.2-.08-.58-.2-.67.04s.24.48.4.56zM47.16 60.38a14 14 0 0 0 5.42-1.48 8 8 0 0 0 1.88-1.37c.43-.46-.3-1.42-.75-.94-1.56 1.66-4.03 2.28-6.21 2.57l-.63.07c-.67.05-.33 1.2.29 1.15"
      fill="var(--c, black)" />
  </g>
</svg>