<svg xmlns="http://www.w3.org/2000/svg" fill="none" viewBox="0 0 120 120">
  <g id="doc">
    <path fill="var(--c, black)" d="M114.89 19.97H50.62v6.07l64.27-.17z" />
    <path fill="var(--c, black)"
      d="M114.36 19.7H52.7c-.81 0-1.65-.04-2.5 0h-.09l-.02.03v6.07c0 .12.36.26.43.29q.3.19.62.21h6.39l6.93-.02 8.4-.02 9.27-.03 9.29-.02 8.73-.03 7.32-.02h5.33q1.27.02 2.5 0h.14v-5.95c0-.15-.4-.29-.5-.34a3 3 0 0 0-.58-.17v5.64c0 .05-.02.32.02.27h-.04q-.42.03-.82 0h-1.78l-5.9.02-8.28.03-9.72.02-10.2.02-9.82.03-8.42.02-6.2.03h-3.06l1.05.5V20.6c0-.07-.05-.3 0-.38h61.13q1.48.02 2.95 0h.12c.12 0-.31-.27-.33-.27q-.3-.2-.7-.24" />
    <path fill="var(--b, white)" d="M50.62 26.04v40.68h64.27V25.87z" />
    <path fill="var(--c, black)"
      d="M50.04 26.14v39.02q-.03.8 0 1.59v.07c0 .12.26.14.31.14h64.25c.2 0 .86-.02.86-.31V27.43q.05-.78 0-1.6v-.08c0-.12-.26-.14-.3-.14h-6.39l-6.94.02-8.4.03-9.26.02-9.3.03-8.73.02-7.32.02-5.3.03H50.9c-.24 0-.62 0-.79.19-.17.2.1.24.27.24h6.38l6.94-.02 8.4-.03h9.26l9.29-.02 8.73-.03 7.32-.02 5.3-.02c.85 0 1.69.04 2.5 0h.12l-.3-.15v39.2c0 .52-.06 1.07 0 1.58v.07l.86-.31H53.5c-.84 0-1.66-.05-2.5 0h-.12l.31.14v-39q.05-.79 0-1.58v-.07c.03-.24-1.15-.15-1.15.19" />
    <path fill="var(--b, white)" d="M54.38 23.95a.7.7 0 1 0 0-1.39.7.7 0 0 0 0 1.4" />
    <path fill="var(--b, white)"
      d="M54.53 23.33q0 .11-.03.19l.05-.12-.07.14.07-.12q-.03.07-.1.12l.1-.1-.1.1.15-.1q-.04.05-.12.08l.14-.07-.12.05.15-.05-.15.02h.15q-.09 0-.17-.02l.12.02q-.09-.01-.17-.07l.1.05q-.11-.07-.2-.17l.08.1q-.08-.12-.12-.22l.05.1-.05-.24v.12l.02-.2-.05.12.08-.14-.08.12.1-.12-.1.1.1-.1-.12.1.1-.08-.15.08.12-.05-.14.05.14-.03h-.14l.17.03-.12-.03.16.07-.1-.04q.12.07.2.16l-.07-.1q.04.11.12.25l-.05-.12q.04.12.05.24c0 .12.12.21.21.24q.23.06.41-.03a1 1 0 0 0 .39-.26l.07-.12q.06-.12.05-.24c-.03-.4-.3-.77-.7-.91a1.5 1.5 0 0 0-1.54.5c-.38.43-.36 1.1.05 1.49.27.24.63.34.99.24q.5-.12.88-.53.26-.3.3-.7.02-.07-.03-.16l-.1-.15q-.18-.12-.36-.04a1 1 0 0 0-.43.19 1 1 0 0 0-.2.36m3.82.5a.7.7 0 1 0 0-1.39.7.7 0 0 0 0 1.4" />
    <path fill="var(--b, white)"
      d="M58.44 23.3v.1-.05a1 1 0 0 1-.12.31l.05-.07q-.05.04-.05.07-.01.03-.05.05c-.05.05.07-.05.02-.02l-.04.02c-.05.05.1-.05.04-.02l-.04.02q.16-.06.1-.05-.07 0 .11-.02c-.07.02.17-.02.1-.02h.07c.02 0 .1 0 0 0-.02 0-.05-.03.02 0h-.04l-.1-.03.07.03a1 1 0 0 1-.29-.22l.03.05a1 1 0 0 1-.12-.5v.04q.04-.17.12-.3l-.05.04.05-.07.05-.05c.04-.05-.08.05-.03.02l.03-.02c.04-.05-.1.05-.05.02l.05-.02q-.16.06-.1.05l-.1.02c.08-.02-.16.02-.1.02h-.06c.04 0 .04.03-.03 0h.05l.1.03-.08-.03q.18.07.3.22l-.03-.05q.11.19.12.43c0 .08.2.1.21.1q.23.01.44-.05.2-.05.38-.17.12-.06.14-.19a.8.8 0 0 0-.6-.74 2 2 0 0 0-.93.05 1.6 1.6 0 0 0-.8.43 1 1 0 0 0-.2.5q-.04.24.11.46a1 1 0 0 0 .43.33q.45.12.84 0c.34-.04.67-.21.91-.45a.8.8 0 0 0 .22-.58c0-.07-.17-.1-.22-.1q-.2-.01-.43.05-.2.05-.38.17c-.05.05-.12.1-.12.2m3.72.31a.7.7 0 1 0 0-1.4.7.7 0 0 0 0 1.4" />
    <path fill="var(--b, white)"
      d="M62.26 23v.07zq-.02.1-.08.22l.05-.1q-.04.1-.12.17l.1-.07-.12.1.12-.08q-.06.05-.12.05.17-.07.1-.02h-.03c-.1.02.2-.03.07-.03-.05 0-.12-.02.07 0h-.07c-.05 0 .17.03.07 0l-.07-.02.12.05-.14-.07.1.07-.15-.12.07.07q-.08-.1-.14-.24l.02.1q-.05-.15-.02-.3v.1q0-.11.07-.24l-.05.1a.4.4 0 0 1 .12-.17l-.1.1.13-.1-.12.07a.2.2 0 0 1 .12-.04q-.18.05-.1.04l.02-.02c.1-.02-.19.02-.07.02h-.07.07c.05 0-.17-.02-.07 0l.07.03-.12-.05.15.07-.1-.07q.08.04.14.12l-.07-.07q.08.1.15.24l-.03-.1q.02.05.03.2c0 .09.12.19.21.23q.22.08.43.08c.24-.03.56-.15.56-.44a1 1 0 0 0-.72-.9 1.5 1.5 0 0 0-1.61.4 1 1 0 0 0-.1 1.1c.29.46.89.6 1.4.5.3-.04.6-.2.79-.42q.23-.27.24-.65c0-.1-.12-.2-.22-.24a.7.7 0 0 0-.43-.05c-.24-.02-.55.1-.55.38" />
    <path fill="var(--a, blue)"
      d="M55.85 31.78h1.73q.19-.05.24-.2a1 1 0 0 0-.03-.4.7.7 0 0 0-.6-.5h-1.75a.3.3 0 0 0-.24.18 1 1 0 0 0 .02.41.7.7 0 0 0 .63.5m-.22 2.46h3.05a.6.6 0 0 0 .6-.56c-.03-.33-.29-.45-.58-.45h-3.05a.6.6 0 0 0-.6.55c0 .34.3.46.58.46m25.73 17.8s-5.38-14.35-4.7-15.86 20.06-7.68 23.4-8.67c2.01-.6 6.72 13.47 6.86 15.08s-24.55 11.37-25.56 9.45" />
    <path fill="var(--a, blue)"
      d="M81.8 52.1q-1.31-3.48-2.5-7-.9-2.63-1.66-5.29-.3-1.05-.5-2.08c-.03-.12.02.1 0-.03l-.03-.07-.02-.22-.05-.36-.02-.28v-.15l.02-.1s-.05.08 0 .03q.02-.02.02-.05c.08-.1-.04.05 0-.02q.17-.16.36-.27.62-.38 1.28-.7a48 48 0 0 1 4.32-1.74c3.74-1.42 7.56-2.67 11.35-3.92q2.22-.73 4.44-1.41.68-.23 1.37-.41l.19-.05c-.1-.02.02 0 0 0h.05c.1.03-.1-.05-.03 0q.05.05.1.05c.07.02-.1-.07.02 0l.12.1c.07.04-.05-.05-.05-.05l.08.07q.1.14.24.26c.1.1-.1-.12 0-.02l.07.1q.08.07.12.19.16.2.26.4l.12.2.07.12c.03.02.12.21.05.07q.61 1.09 1.1 2.2a72 72 0 0 1 3.53 9.75l.17.65.03.12c-.05-.2 0-.05 0 0q0 .18.02.05c0 .07.07-.07 0 0l-.1.12c-.04.05.08-.07 0 0l-.07.07-.17.14q-1.22.88-2.59 1.52-2.1 1.04-4.25 1.96a129 129 0 0 1-10.24 3.92q-2.2.73-4.42 1.32-.82.22-1.66.33-.32.06-.7.07l-.26.03h-.14c-.1 0 .07 0 0 0l-.36-.07c.14.02.07.02.02 0l.05.02c-.1-.07.07.07.05.05s-.05-.1.07.1l.05.09c-.12-.2-.34-.53-.6-.48s-.2.4-.12.58c.46.84 1.37.76 2.2.67q1.89-.3 3.73-.87a113 113 0 0 0 10.34-3.7 99 99 0 0 0 4.95-2.13 42 42 0 0 0 3.6-1.8q.54-.3 1.03-.67c.24-.14.4-.38.5-.62.07-.39-.12-.84-.21-1.2q-.26-.97-.56-1.92a85 85 0 0 0-1.92-5.4 40 40 0 0 0-2.3-5.04 9 9 0 0 0-1.2-1.73c-.31-.34-.77-.77-1.27-.7q-.6.15-1.23.36l-1.94.6q-5.65 1.79-11.23 3.75-2.7.94-5.38 2.01c-1.13.46-2.3.9-3.31 1.56q-.44.23-.6.7-.1.66.07 1.32.46 2.39 1.25 4.7c.96 3.2 2.09 6.31 3.24 9.43l.22.58c.1.24.26.58.55.62s.33-.21.26-.43" />
    <path fill="var(--c, black)"
      d="m83.62 26.52 1.03 1.42s3.81-1.73 6.05 1c2.23 2.74-.77 5.07-.77 5.07l-.34-.94s.41-3.21-1.73-3.77a4.2 4.2 0 0 0-3.7.92l-2.25-2.84z" />
    <path fill="var(--c, black)"
      d="m83.06 26.71 1.04 1.42c.19.24.5.31.76.19q.17-.08.34-.12l.34-.12.21-.07.12-.03c.17-.04-.12.03.05 0l.55-.1.31-.04.3-.02A3.8 3.8 0 0 1 90.71 30c.36.84.29 1.8-.2 2.57q-.39.68-1.02 1.2l1 .05-.33-.94.02.24a5.5 5.5 0 0 0-.36-2.78c-.79-1.7-3-1.88-4.58-1.25a5 5 0 0 0-1.54.91l.94-.05-2.26-2.83-.12.62 1.73-.86c.2-.1.29-.31.22-.5l-.08-.12a.8.8 0 0 0-.84-.05l-1.72.86c-.2.1-.3.31-.2.5q.04.07.08.1l2.25 2.83c.22.27.75.15.94-.04l.07-.08c.02-.02.14-.12.02-.02l.15-.1q.4-.28.84-.43c.74-.26 1.75-.36 2.4.12.45.34.72.96.81 1.56q.07.43.1.87v.53c-.02.45.22.88.36 1.29.14.4.8.24 1 .05 1.23-.96 2.07-2.67 1.57-4.23a4.5 4.5 0 0 0-2.67-2.73 6 6 0 0 0-3.07-.27 7 7 0 0 0-1.8.5l.77.2-1.03-1.42a.64.64 0 0 0-.77-.19c-.2.07-.5.36-.34.6" />
    <path fill="var(--c, black)" d="M87.05 31.73c-.22.07-1.8-.34-1.8-.34l.05.98z" />
    <path fill="var(--c, black)"
      d="m86.9 31.34.12-.02h.12-.02q-.09 0-.17-.02h-.05l.08.02-.1-.02-.24-.05q-.44-.08-.86-.2l-.2-.04a.7.7 0 0 0-.57.1c-.12.07-.31.23-.31.4l.04.99c.03.36.46.4.72.3l1.52-.54.21-.08a1 1 0 0 0 .36-.24q.11-.15.07-.33c-.12-.31-.48-.34-.72-.27l-1.53.58-.22.07.72.31-.05-.98-.88.5q.8.23 1.63.36.3.05.6-.02a1 1 0 0 0 .36-.24q.11-.15.07-.34c-.1-.33-.46-.33-.7-.24" />
    <path fill="var(--b, white)"
      d="M73.03 20.16s5.81-4.47 6.67-4.08 5.12 8.37 4.92 9.38c-.19 1.01-3.33 2.16-3.33 2.16z" />
    <path fill="var(--a, blue)"
      d="M73.42 20.64q1.54-1.2 3.16-2.28 1.1-.76 2.28-1.42.41-.21.84-.36.14-.04.27-.05l.1.03c-.05-.03-.03 0 0 0-.05-.05.04.02 0 0-.1-.07.04.05 0 0l.02.02c-.15-.17 0 0 .02.05s.07.1.03.02l.04.05.3.43c-.08-.1.04.1.06.12l.2.32a48 48 0 0 1 2.68 5.04c.32.62.58 1.3.8 1.96q.12.3.02.58c-.17.43-.7.72-1.06.96q-1.06.63-2.2 1.06l.16.07-2.83-2.52-4.44-4.01-1.03-.94c-.17-.14-.22-.07-.14.1q.19.39.52.67l2.79 2.52 4.44 4.01 1.03.94c.02.02.12.1.17.07q1.07-.4 2.06-.96c.53-.29 1.4-.8 1.27-1.49q-.24-1.04-.72-1.97-.6-1.36-1.32-2.69-.73-1.39-1.53-2.76-.62-1.07-1.4-2.04a2 2 0 0 0-.64-.57.8.8 0 0 0-.58.07q-1.16.46-2.16 1.18a66 66 0 0 0-3.98 2.83c-.12.12.62 1.08.77.96" />
    <path fill="var(--b, white)"
      d="M84.55 48.77a13.3 13.3 0 0 1 1.7-7.78q.5-.81 1.18-1.49a4 4 0 0 1 1.78-1.27l.24-.05c.4-.05-.07.1-.17-.1.02.05.24.15.29.17s.17.12.24.2q.4.32.74.72a8 8 0 0 1 2.02 4.03c.07.45.17 1.6-.55 1.63l1.08.31a6.2 6.2 0 0 1 .84-4.58 5 5 0 0 1 1.8-1.7q.58-.3 1.24-.3c.03 0 .2.03.05 0-.14-.02-.05-.02-.02 0q.11.08.26.13.3.18.55.38c.82.67 1.35 1.6 1.88 2.52.07.14.43.2.55.22l.4.1c.03 0 .2.02.2 0a9 9 0 0 0-1.83-2.5 5.3 5.3 0 0 0-2.95-1.16c-1.94-.14-3.43 1.73-3.98 3.41a6 6 0 0 0-.17 3.17c.02.1.36.17.4.2q.33.1.68.14c.65-.03.82-.7.77-1.23a7 7 0 0 0-.63-2.25 9 9 0 0 0-1.2-1.95 5.5 5.5 0 0 0-1.8-1.51c-.81-.36-1.72-.55-2.54-.1a6 6 0 0 0-1.7 1.5 10 10 0 0 0-2.02 3.83 15 15 0 0 0-.5 5.04c0 .12.48.22.55.22.07-.03.62.1.62.05m8.55-13.83c-.41.39-.53.99-.32 1.51.3.72 1.06.96 1.78 1.01.46.03.94.05 1.34-.17.32-.16.56-.48.68-.81.28-.67.21-1.47-.2-2.1a2.4 2.4 0 0 0-2.37-.88c-.2.03-.43.22-.27.4.22.2.53.27.82.2.02 0 .1 0 0 0h.07c.1 0-.1-.02-.02 0h.07c-.14 0 .05.03.07.03 0 0-.07-.03-.02 0l.12.04.07.05.14.1.03.02.05.05.14.17c.26.43.36.96.22 1.44q-.08.37-.34.67l-.1.1-.07.04c.05-.02-.1 0-.02 0h-.41l-.2-.02c-.06-.02.08.02 0 0l-.09-.02c.07.02 0 0-.02 0q-.06-.05.02 0c-.02-.03-.14-.1-.07-.05l-.1-.1-.04-.05-.08-.14a1 1 0 0 1-.02-.84l.07-.14.03-.05s.07-.1.02-.05c.43-.38-.7-.7-.98-.4" />
    <path fill="var(--a, blue)"
      d="M76.97 53.42c1.08 2.07 3.65 2.16 5.69 2.07.3.02.57-.2.62-.5a.6.6 0 0 0-.58-.56c-1.6.07-3.76.17-4.65-1.49-.34-.6-1.44-.17-1.08.48m31.08-6.41a11 11 0 0 0 2.28-7.94c-.05-.53-1.18-.1-1.13.36a10.3 10.3 0 0 1-2.14 7.54c-.16.21 0 .43.22.45q.47-.04.77-.4m2.49-11.16a10 10 0 0 1 1.32 4.32c.03.38 1.23.43 1.2.12-.12-1.56-.57-3.1-1.34-4.47-.12-.21-.5-.26-.72-.24-.12-.02-.58.05-.46.27" />
    <path fill="var(--b, white)"
      d="M34.27 44.45s3.46 6.65 15.24 6.84c11.78.2 20.78-3.74 20.78-3.74L59.76 87.96s-13.3 6.48-22.56-6.72c-9.27-13.2-2.93-36.8-2.93-36.8" />
    <path fill="var(--a, blue)"
      d="M33.91 44.09c.5.98 1.35 1.87 2.11 2.64a16.4 16.4 0 0 0 6.15 3.74c3.81 1.35 7.9 1.44 11.88 1.18a58 58 0 0 0 14.95-3q.83-.26 1.63-.62l.07-.03-.79-.91-.31 1.15-.8 3.07-1.17 4.52-1.44 5.5-1.56 5.94-1.56 6-1.44 5.48-1.17 4.53-.82 3.07-.22.84q-.01.16-.07.32c-.07.1-.33.14-.43.19q-.63.26-1.3.45a19 19 0 0 1-10.77.22 17 17 0 0 1-6.77-3.89 20 20 0 0 1-4.78-6.98 32 32 0 0 1-2.18-7.75q-.6-4.01-.58-8.1a74 74 0 0 1 1.3-13.07c.22-1.1.43-2.21.72-3.3q.04-.2.12-.42c.05-.15-.26-.41-.34-.5l-.45-.41q-.24.9-.43 1.8a80 80 0 0 0-1.59 11.56q-.25 3.94.05 7.88.28 4.1 1.42 8.08a26 26 0 0 0 3.38 7.35 24 24 0 0 0 6.74 6.77 17 17 0 0 0 6.7 2.42 19.5 19.5 0 0 0 9.4-1.15l.44-.17.2-.1q.04-.1.06-.21l.53-2.04.99-3.8 1.32-5.06 1.5-5.83 1.6-6.1 1.5-5.83 1.35-5.13 1-3.92.58-2.18.07-.29c.03-.14-.67-.96-.79-.91q-1.95.79-3.93 1.37-5.06 1.5-10.25 2.06c-4.1.43-8.4.58-12.43-.43a17 17 0 0 1-7.35-3.77l-.17-.17-.1-.1-.04-.04c-.05-.05.1.1 0 0l-.2-.2c0-.02.1.1 0 0l-.09-.11q-.1-.09.03 0l-.08-.1-.07-.1c-.1-.1.05.08 0 0l-.12-.14c-.1-.12.03.05-.05-.07l-.16-.26-.03-.05-.05-.1-.07-.12-.02-.05a2 2 0 0 0-.53-.62c-.12.05-.4-.22-.29 0" />
    <path fill="var(--a, blue)"
      d="M73.63 48.48S65.4 85.56 64.4 87.22c-1 1.65-4.63 2.9-4.63.74 0-.17 9.72-38.28 10.54-40.42.81-2.13 3.33.94 3.33.94" />
    <path fill="var(--a, blue)"
      d="M73.03 48.53q-.16.61-.26 1.22l-.75 3.3-1.08 4.82q-.64 2.88-1.32 5.76-.68 3.06-1.41 6.14l-1.42 6q-.61 2.62-1.27 5.26l-1 3.96q-.27 1.08-.66 2.08c-.28.65-.96 1.1-1.56 1.42q-.32.18-.7.29l-.28.07c-.12.02.05 0-.07 0l-.15.02h-.05c.1 0-.1 0-.11-.02.07 0-.05 0-.05-.02l-.1-.03a1 1 0 0 1-.36-.36q-.1-.29-.1-.57 0-.04.03-.08c-.02.08.02-.07 0 0l.02-.04.2-.8.76-3.04q.58-2.32 1.18-4.59l1.44-5.61 1.56-6.1 1.58-6.1q.71-2.8 1.47-5.56l1.2-4.52a61 61 0 0 1 1.08-3.72l.05-.14q.07-.19.19-.34l.14-.14c.02-.05.02 0-.07 0 .1-.02-.12 0-.14 0-.08 0 .1.02.04 0l.12.02q.29.11.53.3.76.5 1.35 1.24c.21.26 1.34.02 1.15-.24a7 7 0 0 0-1.52-1.37c-.83-.53-2.27-.72-2.85.29q-.2.39-.31.82l-.34 1.15-1 3.72q-.7 2.55-1.35 5.11-.8 3.03-1.56 6.02l-1.63 6.3-1.56 6.06q-.7 2.66-1.35 5.3l-1 3.94-.53 2.1c-.1.3-.05.64.12.93.55.96 2.16.67 3.02.4A4.7 4.7 0 0 0 65 87.3q.17-.3.24-.62c.31-.96.55-1.92.82-2.9q.6-2.32 1.15-4.64l1.37-5.74L70 67.15q.73-3.09 1.41-6.19l1.25-5.52.96-4.25q.29-1.2.53-2.4l.07-.3c.05-.3-1.1-.32-1.2.04" />
    <path fill="var(--b, white)"
      d="M55.32 93.72a9.05 9.05 0 0 0 9.48-5.06c2.54-5.4 6.84-14.21 8.3-15.55 2.26-2.07 11.67-6.56 11.5-8.84s-4.49-1.3-5.69-.07c0 0 1.92-3.26-2.02-4.9 0 0-1.3-3.98-4.65-3.81l-1.18 4.22c1.49 1.2 1.44 4.76-1.6 4.61-3.75-.17-3.75-2.8-2.02-4.77.62-.7.74-1.73.26-2.52-.96-1.54-2.93-.46-5.3 2.4-2.43 2.88-.22 8.06 1.73 8.83L56.49 82.2 38.93 68.93l-7.04 9.74c-.02 0 14.02 13.68 23.43 15.05" />
    <path fill="var(--c, black)"
      d="M54.98 94.15a10 10 0 0 0 9.05-3.55q.98-1.28 1.63-2.76c1.83-3.82 3.65-7.66 5.71-11.35q.6-1.06 1.2-2.07l.46-.67q.1-.16.22-.26l.1-.12c.02-.05.16-.17.02-.03l.52-.45c.08-.05-.07.05.05-.05l.2-.14.43-.3 1.94-1.24c1.51-.94 3.05-1.85 4.54-2.83 1.22-.82 2.56-1.7 3.5-2.86.31-.38.6-.84.6-1.34-.02-.63-.4-1.2-1-1.42a4 4 0 0 0-2.26-.12q-1.3.23-2.43.84-.47.26-.84.63l.8.14c.7-1.2.71-2.83-.17-3.94a5 5 0 0 0-1.9-1.34l.1.14a6 6 0 0 0-2.88-3.57 4 4 0 0 0-2.1-.41.9.9 0 0 0-.74.58l-1.17 4.22q-.05.16.1.24c.64.53.93 1.46.86 2.26a2 2 0 0 1-.34 1q-.04.08-.1.12c-.11.12.08-.07-.04.05l-.12.1c.12-.1-.03.02-.05.02-.17.1.12-.05-.05.03l-.17.07-.1.02-.18.05q-.96.11-1.9-.17a2.4 2.4 0 0 1-1.2-.72c-.55-.67-.46-1.58-.1-2.33.24-.5.63-.88.94-1.34.43-.62.55-1.4.34-2.09-.34-1.05-1.3-1.49-2.33-1.2-1.35.39-2.43 1.49-3.36 2.47q-.81.83-1.4 1.85-.42.88-.5 1.83a8 8 0 0 0 .72 4.03c.43.93 1.1 2.04 2.11 2.45l-.04-.36-2.6 4.72-4.17 7.5-.94 1.72.91-.43-1.75-1.32-4.17-3.17-5.07-3.84-4.34-3.29-1.47-1.1q-.32-.27-.7-.5l-.02-.03c-.24-.2-.72.12-.84.31l-2.37 3.29-3.8 5.26-.86 1.2c-.05.1-.21.28-.1.4 1.73 1.68 3.56 3.27 5.38 4.8a66 66 0 0 0 11.5 7.95 22 22 0 0 0 6.74 2.42c.31.03.58-.12.77-.33.12-.15.22-.46-.07-.5a20 20 0 0 1-5.88-2.02 50 50 0 0 1-6.07-3.65 89 89 0 0 1-9.56-7.66l-1.34-1.22-.07-.07-.1-.08-.17-.14-.12-.12-.1.4 2.38-3.3 3.8-5.26.86-1.2-.84.31 1.75 1.32 4.18 3.17 5.06 3.84 4.4 3.31 1.46 1.1c.21.17.45.37.7.51l.02.02c.29.22.8-.19.91-.43l2.6-4.73 4.1-7.48.93-1.73c.05-.1.1-.29-.05-.36-.86-.36-1.44-1.27-1.84-2.07a8 8 0 0 1-.84-3.57q0-.9.33-1.73.45-.94 1.2-1.7.72-.83 1.59-1.47.32-.24.64-.4.26-.14.56-.17a1 1 0 0 1 .86.4c.43.53.53 1.25.24 1.88q-.23.4-.53.74-.24.33-.45.7-.37.64-.48 1.41c-.15.89.28 1.78 1.05 2.26q.81.45 1.73.55.94.14 1.9-.12a3 3 0 0 0 2.04-2.54 3.1 3.1 0 0 0-1.04-2.72l.1.24.94-4.22-.53.58c1.99-.1 3.43 1.53 4.2 3.21q.08.16.12.31 0 .06.05.1c.02.07-.05-.07 0-.02.07.12.07.12.19.19s.33.14.5.24q.47.26.84.57c.65.58 1.01 1.44.96 2.3q-.05.56-.24 1.06c-.05.1.05-.1 0 0l-.05.1-.07.12q-.04.06-.05.12c-.1.1-.07.26.03.34q.04.03.1.04.36.03.64-.24l.15-.14c.1-.1-.08.02.07-.07l.17-.12.12-.07q.05-.04-.03 0l.07-.05q.44-.24.94-.39 1-.34 2.09-.24c.53.08 1.1.34 1.25.92l.04.33v.05l-.04.14c-.03.1.02-.07-.03.05q-.04.06-.05.12 0 .07-.1.15l-.04.07q-.1.15-.22.26l-.14.15-.1.1-.72.62-.81.62q-.5.36-.99.67c-1.41.96-2.88 1.83-4.34 2.74-1.18.72-2.4 1.44-3.48 2.35-.86.72-1.44 1.8-2.02 2.76-1.99 3.43-3.72 7-5.42 10.58-.84 1.76-1.54 3.68-2.98 5.04a8.1 8.1 0 0 1-6.88 2.19.9.9 0 0 0-.75.33c-.19.3-.29.6 0 .65" />
    <path fill="var(--c, black)"
      d="M75.84 64.8q.14-.39.38-.72.4-.69.72-1.44c.48-1.08.87-2.4.46-3.58-.07-.19-1.18.24-1.1.48.4 1.18 0 2.45-.48 3.56q-.33.71-.7 1.39c-.17.21-.29.48-.38.72-.03.19.4.02.45 0 .15-.07.6-.22.65-.41m2.26 1.56 1.15-1.66.17-.24q.1-.1.02-.26a1 1 0 0 0-.29-.26 1 1 0 0 0-.45-.12c-.1 0-.27 0-.32.1l-1.15 1.65-.17.24a.2.2 0 0 0-.02.24q.1.18.29.26a1 1 0 0 0 .45.12c.1.03.24.03.32-.07" />
    <path fill="var(--b, white)"
      d="M23 42.34s4.34 1.92 7.36.38c3.02-1.53 8.42-5.42 10.54-2.7 2.1 2.7-1.5 5.73-4.35 6.47 0 0 4.49 7.7.8 12.14s-6.53 4.16-5.31 7.56c0 0-3.22 8.4-6.74 2.52-.56-.9-8.5-11.7-3-18.96 0 0 3.24-3.86.7-7.41" />
    <path fill="var(--c, black)"
      d="M22.92 42.86q1.91.83 3.96.99 1.66.16 3.26-.39c.87-.3 1.68-.84 2.48-1.3 1.68-.95 3.45-2.03 5.37-2.42a3.3 3.3 0 0 1 2.09.15l.17.1q.1.06.17.14c-.08-.07.02.02.02.05 0 .02.07.07.1.12q.1.1.19.26.32.53.29 1.13c-.05 1.05-.84 1.94-1.61 2.61a8 8 0 0 1-3.05 1.61c-.34.1-.4.5-.24.77a16 16 0 0 1 1 2.14l.1.21q.12.28.2.55.2.57.36 1.13c.21.77.38 1.59.45 2.38.15 1.68-.07 3.43-1.1 4.8-1.25 1.65-2.93 2.88-4.49 4.22a4 4 0 0 0-1.27 1.63 4 4 0 0 0 .17 2.5l.02-.4q-.33.8-.77 1.6a7 7 0 0 1-1.87 2.35q-.3.23-.62.34c-.08.02-.03 0 0 0l-.08.02-.16.03-.17.02h-.12a1.7 1.7 0 0 1-1.23-.6c-.6-.58-1.03-1.37-1.48-2.09a29 29 0 0 1-3.41-6.93c-.96-3.03-1.27-6.44.29-9.32.5-.93 1.22-1.72 1.7-2.68a6.6 6.6 0 0 0 .46-5.12 8 8 0 0 0-.82-1.5.47.47 0 0 0-.65-.15l-.05.02c-.21.24-.1.58.08.8.81 1.17.96 2.59.6 3.95a8 8 0 0 1-1.23 2.5q-.93 1.2-1.51 2.62a11 11 0 0 0-.67 3.86c0 2.57.74 5.11 1.75 7.46a35 35 0 0 0 2.71 5.02c.84 1.3 1.78 3.17 3.53 3.26 1.75.1 3-1.7 3.74-3.07q.45-.77.77-1.58l.05-.15q.07-.37-.07-.74l-.1-.38-.05-.32-.02-.26c0 .05 0-.1.02-.12s.03-.12.03-.17q0-.1.05-.19.05-.15.14-.29.15-.22.34-.43.54-.55 1.15-1 1.83-1.42 3.43-3.13c.94-1 1.58-2.28 1.82-3.65a11 11 0 0 0-.1-3.86 19 19 0 0 0-2.08-5.74l-.24.77a9 9 0 0 0 3.02-1.46 6 6 0 0 0 2.02-2.45c.4-1 .29-2.14-.26-3.05a3.2 3.2 0 0 0-2.24-1.53 6 6 0 0 0-2.68.36q-1.51.54-2.9 1.3c-.92.47-1.83 1-2.74 1.5q-.61.36-1.25.65-.77.3-1.61.36-2.61.18-5.02-.91a.4.4 0 0 0-.52.17l-.05.12a.8.8 0 0 0 .43.81" />
    <path fill="var(--c, black)"
      d="M19.46 63.6s-2.9 3.82-5.04 2.3c-2.13-1.5.58-2.87.58-2.87s-5.88-1.95-2.71-5.6c0 0-5.5-.64-5.28-5.44s6.53-6.72 6.53-6.72-3.46 2.66.79.26 2.76-2.26 2.76-2.26 2.8-.81 4.05.65c1.25 1.47 2.28-1 2.28-1s2.7 4.89-1.12 6.83l1.03 7.95s2.69 1.1 3.05 4.1-4.9 4.75-6.92 1.8" />
    <path fill="var(--c, black)"
      d="M19.13 63.12a8 8 0 0 1-2.33 2.11c-.6.34-1.32.6-2 .39a1 1 0 0 1-.47-.27q-.14-.1-.24-.2-.07-.02-.1-.11c-.02-.05-.05-.1 0-.02v-.17q.05-.22.17-.39c.29-.4.67-.74 1.13-.93.33-.17-.17-.99-.41-1.06a7.5 7.5 0 0 1-2.76-1.68c-.03-.02-.15-.17-.07-.07l-.1-.14-.05-.08c-.05-.07.05.1 0 0l-.1-.19-.02-.05c-.05-.12 0 .05-.02-.1q-.05-.15-.05-.33c-.02-.72.43-1.41.89-1.97.12-.14-.03-.48-.1-.6-.1-.16-.24-.38-.43-.43a6 6 0 0 1-1.85-.53 6 6 0 0 1-1.82-1.15l-.17-.2-.07-.09c0-.02-.12-.14-.05-.04l-.26-.36c.04.04-.03-.05-.03-.05l-.07-.12-.05-.1c-.1-.17.05.1-.02-.07a5 5 0 0 1 .57-4.46c.8-1.23 2-2.16 3.24-2.86q1.12-.64 2.33-1.03l-.55-1.06q-.53.4-1 .84c-.15.15-.37.31-.42.53-.07.46.34 1.08.82.94q.71-.26 1.4-.68 1.14-.6 2.22-1.32.59-.36 1.08-.79a1 1 0 0 0 .34-.53c.02-.4-.34-1.05-.82-1l.48 1.08a5 5 0 0 1 2.81-.08q.46.14.82.46c.26.24.45.53.81.67.53.22 1.01-.07 1.37-.45q.4-.45.63-.99l-.58-.36.07.12.07.15.05.1c-.05-.1.07.14 0 0l.22.54q.07.16.1.32c0 .02.04.16.04.12s.03.12.05.14c.26 1 .38 2.16-.12 3.14a3.6 3.6 0 0 1-1.6 1.56q-.11.09-.1.24l.98 7.56c.07.48.12.99.6 1.23q.73.36 1.32.93c.7.68 1.13 1.56 1.18 2.52.04.8-.44 1.52-1.04 1.97-1.5 1.18-4.2 1.35-5.37-.33-.1-.12-.34-.41-.48-.22-.15.2.07.6.17.74a4.2 4.2 0 0 0 3 1.8c1.08.1 2.18-.16 3.07-.79a3 3 0 0 0 1.37-2.6 6 6 0 0 0-1.7-3.73 6 6 0 0 0-1.86-1.35l.48.82-.88-6.96-.12-.99-.1.24a3.9 3.9 0 0 0 2.11-3.3c0-1.47-.36-2.91-1.03-4.2-.05-.08-.46-.66-.58-.37-.21.53-.86 1.7-1.6 1.35-.3-.15-.46-.46-.72-.65q-.45-.32-.92-.46a5 5 0 0 0-1.92-.14q-.57.04-1.15.21c-.33.1.17 1.1.48 1.08h.1c-.07-.04.1 0 0 0q-.36-.3-.43-.79c0 .03.04-.07 0 0l-.05.07a1 1 0 0 1-.2.2q-.44.35-.9.67a26 26 0 0 1-3.37 1.9l-.36.14c-.1.02 0-.03-.04 0h-.03q.44 1.41.53.89-.03.1-.02.04l.3-.36q.46-.4.94-.76c.32-.24-.19-1.18-.55-1.06q-1.11.37-2.1.91a9.6 9.6 0 0 0-3.49 2.95 5.78 5.78 0 0 0 2.3 8.57q1.2.61 2.52.8l-.52-1.04c-.53.58-.87 1.3-.96 2.07-.03.74.19 1.46.6 2.06a6.4 6.4 0 0 0 2.76 2.16q.37.18.76.31l-.4-1.05q-.7.33-1.18.96c-.65.88-.14 1.99.58 2.66.64.65 1.6.84 2.47.55q1.2-.45 2.11-1.37.6-.54 1.1-1.2c.24-.3-.38-1.32-.64-.98" />
    <path fill="var(--b, white)" d="M23.5 50.16s-2.84-2.57-4.52-.31 2.74 9.58 6.39 6.4" />
    <path fill="var(--c, black)"
      d="M23.64 49.73a5.3 5.3 0 0 0-2.69-1.34 2.45 2.45 0 0 0-2.73 2.1v.06a6.4 6.4 0 0 0 .9 3.6 7.3 7.3 0 0 0 2.74 2.92c1.2.75 2.76.63 3.84-.3.2-.2.2-.51.03-.73-.1-.14-.43-.5-.65-.3q-.62.56-1.46.71-.7.09-1.35-.2-.72-.31-1.27-.86-.55-.54-.96-1.2a6 6 0 0 1-.72-1.48l-.2-.68a3 3 0 0 1-.06-.64v-.34q0-.14.04-.26l.08-.27.1-.21c.33-.56.93-.9 1.58-.92q.94.04 1.72.58l.27.17.26.2q.14.08.24.18c.17.17.48.17.55-.07s-.07-.58-.26-.72m9.02 1.3q.85.79 1.95 1.2c1.37.52 2.9.28 4.05-.63a.5.5 0 0 0 .03-.72l-.03-.02a.65.65 0 0 0-.84-.05q-.7.56-1.58.65-.75.03-1.44-.27c-.17-.07.1.05-.07-.02l-.15-.07-.28-.15q-.26-.15-.5-.33c-.15-.1-.03-.03 0 0l-.08-.05-.12-.1-.12-.1a.65.65 0 0 0-.84-.04c-.22.2-.22.5-.05.72.05-.05.05-.02.07-.02m-4.86-5.07s.66-.21.83.46-.67.86-.98.33c-.2-.21-.15-.55.1-.74q0-.02.04-.05" />
    <path fill="var(--a, blue)" d="M15.55 103.95s.98-40.44 11.18-40.1 13.92 12.54 13.92 12.54l6.87 16.32 2.8 11.24" />
    <path fill="var(--a, blue)"
      d="M16 104.14q0-.58.06-1.15l.14-3.15c.1-1.53.2-3.1.31-4.56q.23-2.8.53-5.59.32-3.02.8-6.05.45-3 1.1-6a47 47 0 0 1 1.48-5.45q.71-2.27 1.9-4.34.5-.85 1.13-1.63.26-.32.55-.6a5 5 0 0 1 1.32-.91l.1-.05c-.05.02.07-.03 0 0l.19-.07.36-.1q.37-.1.74-.1c-.02 0 .07 0 0 0h.1q.2 0 .4.03.51.03 1.01.1a11.5 11.5 0 0 1 4.85 1.89l.7.5.57.46q.62.54 1.2 1.13.29.29.53.57l.15.17.1.1.23.29c.6.76 1.18 1.58 1.66 2.42l.1.17c.02.05-.03-.03-.03-.03l.05.08.17.3.28.56q.29.52.53 1.06.37.78.67 1.6l.05.15-.02-.05.02.07.07.22.08.21c.07.24.19.46.26.68l1.68 3.98 2.4 5.69 2 4.77.5 1.2.04.12c.05.12-.04-.07-.02-.1-.02.06.05.25.07.3l1.15 4.63 1.35 5.4.24.91a.8.8 0 0 0 .57.6c.3.02.36-.24.3-.48l-.87-3.43-1.47-5.88c-.19-.75-.3-1.56-.62-2.28l-1.44-3.46-2.38-5.66-2.16-5.11-.62-1.52-.14-.33a19 19 0 0 0-1.1-2.69 23 23 0 0 0-3.08-4.85 16 16 0 0 0-5.42-4.34 12 12 0 0 0-3.6-1.06 7 7 0 0 0-2.38 0 5.4 5.4 0 0 0-2.78 1.87A14 14 0 0 0 20.5 69q-1.06 2.48-1.76 5.07a68 68 0 0 0-1.32 5.83q-.57 3.06-.96 6.14a169 169 0 0 0-1.1 11.26q-.14 1.99-.24 3.98-.04 1.12-.1 2.23v.3c.03.3.22.57.48.69q.49.02.5-.36" />
    <path fill="var(--b, white)" d="m46.78 91.42 6.43-13.5S35.1 61.38 30.5 65.05c-4.6 3.65 1.53 21.45 16.27 26.37" />
    <path fill="var(--c, black)"
      d="m47.18 91.78 2.19-4.56 3.48-7.28.79-1.65c.12-.27-.1-.63-.27-.8a108 108 0 0 0-12-9.46 35 35 0 0 0-5.76-3.2c-1.41-.58-3.12-1.18-4.63-.7-1.34.43-1.99 1.87-2.25 3.14-.36 1.85-.08 3.82.38 5.64a25 25 0 0 0 2.86 6.72 30 30 0 0 0 5.25 6.55 26 26 0 0 0 9.63 5.79c.26.1.38-.24.36-.43a.8.8 0 0 0-.5-.65 25 25 0 0 1-7.66-4.23 28 28 0 0 1-8.72-12.36q-.25-.77-.45-1.56l-.05-.16-.02-.1s.02.07 0 .02l-.08-.38-.14-.74q-.22-1.26-.14-2.57.01-.3.07-.6 0-.14.05-.24l.02-.15c-.02.1 0-.04.02-.07q.13-.5.32-.96l.1-.21c0-.03.06-.12.02-.03l.07-.12.26-.36q.15-.19.31-.33l.08-.08.02-.02q.08-.08.17-.12a3 3 0 0 1 .55-.26c.07-.03.02 0 .02 0l.15-.03q.47-.11.91-.07.22 0 .46.05.28.03.52.1.62.13 1.2.33c.9.31 1.73.7 2.57 1.13q1.47.75 2.86 1.65A102 102 0 0 1 53 78.38l.11.1-.26-.8-2.19 4.57-3.48 7.27-.79 1.66c-.24.3.53 1.17.8.6" />
    <path fill="var(--b, white)" d="m19.2 78.48 8.04-.4 1.27 7.63-10.58-.44z" />
    <path fill="var(--a, blue)"
      d="m19.7 78.77 7.06-.36 1-.05-1.02-.57 1.24 7.48q.04.07.03.12c0 .03.07-.02 0 0a1 1 0 0 1-.36-.02l-1.7-.07-5.07-.22-3.43-.14 1.03.57 1.1-5.95.17-.84c.05-.24-1.05-.57-1.05-.55l-1.13 5.95-.17.84c-.02.12.36.29.4.31q.3.2.63.24l3.55.15 5.72.24 1.32.05h.02l-1.1-6.68-.17-.96c-.03-.14-.31-.26-.43-.3q-.29-.2-.63-.25l-7.03.39-1 .04c-.13 0 .28.3.3.3q.33.25.72.28M8.62 61.73s15.81-10.01 17.4-23.7l-2.67 1.74s-12.4-4.4-16.68 2.35C1.97 49.58 9.22 58 9.22 58s-2.55 5.1-.6 3.72" />
    <path fill="var(--a, blue)"
      d="M9.07 62.07a54 54 0 0 0 10.32-9.14 35 35 0 0 0 4.4-6.3 24 24 0 0 0 2.66-7.46l.14-1c.07-.54-.67-.7-1.03-.47l-2.66 1.73.7-.05a27 27 0 0 0-3.87-1 21 21 0 0 0-7.8-.2q-2.04.38-3.75 1.52a8 8 0 0 0-2.76 3.48c-1.39 3.12-1.05 6.6.2 9.72q.72 1.81 1.8 3.45.55.94 1.24 1.75l.08.08-.05-.46a27 27 0 0 0-.87 1.9q-.28.66-.45 1.34c-.1.36-.17.8.1 1.08.45.6 1.15.36 1.6.02.24-.14.12-.48-.07-.62a.7.7 0 0 0-.84-.02l-.12.07c-.07.05.05-.02-.02.02l-.1.05c-.02 0 .12-.02.02 0q.32-.02.5.17l.03.05c-.05-.08 0 .1 0 .02v-.07l.03-.22q.04-.24.12-.5.35-1.11.88-2.16l.27-.55c.07-.15.07-.34-.05-.46l-.31-.38c-.12-.12-.22-.3-.34-.44l-.2-.26-.11-.17-.05-.07c-.02-.05.03.05-.02-.02a21 21 0 0 1-1.95-3.67 14 14 0 0 1-1.08-5.07 10 10 0 0 1 1.59-5.47 7 7 0 0 1 3.21-2.64c1.3-.5 2.7-.8 4.08-.82a24 24 0 0 1 8.3 1.25l.27.1c.07.02-.2-.08-.05-.03q.46.14.84-.12l.63-.4 1.58-1.04.31-.19-1.05-.46a23 23 0 0 1-2.3 7.5 34 34 0 0 1-4.2 6.38 47 47 0 0 1-4.76 4.96 53 53 0 0 1-4.03 3.32c-.62.45-1.32.86-1.92 1.34l-.02.03c-.24.16-.12.48.07.62.29.12.62.12.86-.03" />
    <path fill="var(--b, white)"
      d="M13.94 37.2q1.82 0 3.63.14c.93.08 1.9.15 2.83.32.2.02.46.07.58.1l.24.04c.02 0 .16.05.04 0l.2.05c.14.05-.12-.05.02 0-.12-.05.14.05 0 0l.07.02.05.03q.08.04.14.1c.34.28.27.74.17 1.12q-.27 1.1-.77 2.11a38 38 0 0 1-3.3 5.76 36 36 0 0 1-2.34 3.07 15 15 0 0 1-2.23 2.24q.26.15.55.26c.12.05.48.2.6.1 1.73-1.3 3.08-3.1 4.28-4.83a42 42 0 0 0 3.52-5.97q.54-1.1.87-2.28c.1-.41.19-.9-.17-1.2q-.44-.35-.96-.5-.7-.27-1.42-.44-1.45-.33-2.95-.43a49 49 0 0 0-4.6-.22c-.25 0 .11.15.16.17a2 2 0 0 0 .8.24" />
    <path fill="var(--a, blue)"
      d="M40.08 65.33q-.07-1.95 0-3.91l.05-.94c0-.2-.03-.55.12-.72s.38-.05.57-.02l1.01.1a280 280 0 0 1 11.52 1.4q.94.16 1.87.27l.94.15q.48.03.94.14c.21.07.21.31.21.5l-.02.96-.05 1.97-.12 3.9L57 73.5q0 .52-.02 1.03c0 .12 0 .3-.12.39a1 1 0 0 1-.32.07l-2.25.24c-.2.02-.41.14-.24.34.17.19.57.16.81.14l2.14-.24c.58-.07 1.13-.17 1.18-.86.1-1.42.07-2.84.12-4.25l.12-4.3.04-2.13.03-1.01q.06-.47-.05-.94c-.2-.6-.91-.67-1.44-.74q-1.06-.18-2.11-.31-2.11-.33-4.23-.58-4.2-.55-8.44-.98c-.75-.08-1.54-.24-2.28-.2q-.52 0-.87.39-.21.4-.17.84-.15 2.42-.02 4.85c0 .36 1.18.38 1.2.07" />
    <path fill="var(--a, blue)"
      d="M41.76 62.88h.38q.08 0 .17-.05l.07-.02q.08-.04.15-.1l.05-.05q.1-.12.14-.28v-.17l-.02-.1-.03-.1a.4.4 0 0 0-.1-.16l-.02-.03q-.04-.07-.12-.14a1 1 0 0 0-.33-.22q-.19-.07-.34-.04-.14 0-.24.12l-.1.14q-.03.08-.02.2-.01.1.05.18.04.12.12.2.07.1.17.16l.14.08q.12.04.26.04l.12-.02q.1-.05.17-.17l-.07.1.02-.03-.1.08h.03l-.12.02h.03-.12.02l-.14-.02H42l-.14-.08.04.03-.12-.1.03.03-.1-.12.03.04-.08-.12.03.05-.03-.14v.05-.12.04l.03-.12-.03.05.08-.1-.08.08.1-.07a.2.2 0 0 1-.12.04l.12-.02-.17.02h.12-.12q-.1-.02-.19 0-.1.02-.14.08-.08.07-.08.14a.3.3 0 0 0 0 .2l.03.14q.07.15.17.26l.12.1q.1-.03.26.02m1.9-1.22q-.07.08-.1.14l-.02.05q-.04.08-.03.2l.03.18.07.15v.02q.04.08.1.15l.02.02.02.02.12.12h.03q.07.03.14.1l.02.02.15.05h.02l.17.03h.02q.07 0 .15-.03h.02a.4.4 0 0 0 .22-.14.4.4 0 0 0 .07-.24 1 1 0 0 0-.12-.39 1 1 0 0 0-.29-.33q-.18-.14-.38-.2h-.03l-.16-.02q-.12 0-.2.03a.4.4 0 0 0-.16.1q-.09.06-.1.14l-.02.19q0 .11.04.19l.1.12.26.2.15.04q.15.03.26 0h.03l-.15.02h.07l-.14-.02q.04 0 .07.02l-.14-.04.07.02-.14-.1.07.05-.12-.12.05.05-.1-.12q.03.04.02.05l-.04-.12.02.07-.02-.12.28-.38h-.02l.14-.03.15.03h-.05l.14.04-.04-.02.14.07-.02-.02.12.12-.05-.05.1.12-.03-.05.05.12-.03-.07.03.12v-.05l-.03.12q0-.04.03-.05l-.05.12.02-.04a.3.3 0 0 0 .08-.17.3.3 0 0 0 0-.2l-.1-.19-.17-.16-.14-.1a1 1 0 0 0-.29-.07l-.14.02zm1.87.36q-.05.1-.05.2t.02.18l.07.2q.05.1.12.16.15.17.36.27.23.07.44.07t.38-.12a1 1 0 0 0 .24-.29l.02-.05.05-.19v-.2q0-.04-.02-.04a1 1 0 0 0-.2-.36l-.14-.14-.19-.1-.24-.05q-.1 0-.22.03a.4.4 0 0 0-.19.12q-.08.06-.12.16l-.02.15q0 .16.05.26l.07.12q.1.11.24.2l.05.02-.15-.07.05.02-.12-.1.02.05-.07-.12.03.07-.05-.14.02.1v-.15.1l.03-.15-.03.08.07-.12q0 .04-.04.04l.1-.1-.06.03.12-.05-.04.03.14-.03h-.05.15-.05l.14.05-.07-.02.14.07-.07-.05.12.1-.05-.05.08.12q-.04-.04-.03-.07l.05.14v-.05.15-.07l-.02.14q.04-.1.02-.22l-.05-.19a.3.3 0 0 0-.14-.17l-.2-.12-.14-.04q-.14-.03-.29.02l-.12.07c-.07-.07-.14 0-.16.1m-3.96 3.93h.48c.33.03.7.03 1.03.05l2.95.17q3.22.18 6.43.38l2.07.12c.24 0 .6-.16.57-.45-.02-.29-.38-.39-.62-.39H54l-1.03-.04-2.95-.17q-3.22-.17-6.44-.39l-2.06-.12c-.24 0-.58.17-.58.46s.39.36.63.38m27.77-4.05 1.87-.24 3.02-13.18-2.5 5.83z" />
  </g>
</svg>
