<svg xmlns="http://www.w3.org/2000/svg" fill="none" viewBox="0 0 120 120">
    <g id="doc">
        <path fill="var(--b, white)"
            d="M18.6 76.66s-5.18-53.43-3.72-53.72 89.83-2.32 90.34 0c.5 2.33-3.15 52.61-4.8 53.72-1.66 1.1-81.7 1.17-81.82 0" />
        <path fill="var(--c, black)"
            d="m19.18 76.49-.22-2.23q-.3-2.97-.55-5.9-.39-4.21-.77-8.4-.42-4.84-.84-9.68t-.77-9.74q-.32-4.33-.57-8.62c-.12-2.11-.24-4.2-.24-6.31q-.01-.96.04-1.92 0-.3.08-.58.04-.15.1-.29-.44.18-.87.3h.34l1.15-.06 4.15-.14q3.1-.1 6.19-.17 3.89-.1 7.78-.17 4.5-.1 8.97-.16 4.86-.09 9.72-.15 5-.08 10.01-.12l9.86-.07q4.65-.03 9.3 0a473 473 0 0 1 15.04.24q2.43.07 4.87.29c.8.07 1.7.1 2.47.4.2.08.22.13.24.34q.05.68.03 1.37-.05 2.84-.24 5.66-.25 4.23-.53 8.45-.34 4.97-.75 9.94a713 713 0 0 1-.86 10.08q-.4 4.46-.91 8.93c-.24 2.16-.5 4.3-.87 6.43-.11.62-.21 1.27-.38 1.9q-.07.27-.17.52-.04.08-.1.15c-.04.1-.04.02.06 0l.43-.15c-.12.03.14-.07-.03 0-.14.05.08 0-.1.03l-.23.02q-.76.08-1.42.12-2.43.15-4.87.22-3.46.1-6.96.16-4.24.08-8.5.12l-9.5.08q-5 .02-9.98.02-5 0-9.92-.02l-9.3-.08-8.2-.12q-3.22-.07-6.5-.16-2.13-.06-4.27-.22c-.14-.1-1.39-.14-1.41-.31-.05-.1-1.2.14-1.18.33.05.27 1.49.3 1.63.3q2.2.15 4.37.2a606 606 0 0 0 14.9.3l9.44.07q5.04.03 10.08.02t10.05-.02l9.53-.07q4.23-.05 8.47-.12 3.42-.07 6.84-.17 2.36-.07 4.7-.22c.9-.05 1.97-.05 2.77-.48.28-.14.38-.45.47-.77q.25-.9.39-1.8.52-3.2.86-6.4.5-4.48.92-8.96.46-5.06.86-10.17.39-5 .74-10.03.31-4.27.53-8.52c.1-1.9.22-3.8.24-5.7q.03-.66-.02-1.34c-.03-.21-.1-.26-.3-.36-.78-.3-1.74-.33-2.58-.4-1.64-.15-3.29-.22-4.92-.3l-6.91-.16q-4.17-.07-8.38-.07-4.69 0-9.38.02l-9.99.07-10.1.12q-4.91.07-9.82.17l-9 .17-7.75.17q-3.05.07-6.1.17-1.87.04-3.86.12l-1 .04c-.44.03-1.09.05-1.38.39-.16.19-.16.57-.19.81q-.06.93-.05 1.85c0 2.09.12 4.18.24 6.27q.25 4.35.58 8.7.36 4.93.77 9.85.4 4.93.84 9.74.36 4.22.77 8.45l.55 5.93q.11 1.05.19 2.13c.05.08 1.2-.12 1.18-.33" />
        <path fill="var(--b, white)" d="M20.09 28.27h80.09l-2.45 43.7-74.95.99z" />
        <path fill="var(--c, black)"
            d="M19.58 28.54h79.35q.32-.05.65 0c.12.02.04 0 .04.17l-.07 1.17-.29 5.14-.43 7.73-.5 8.88-.48 8.73-.41 7.13-.24 4.2-.02.58 1.08-.48-1.3-.03-3.6.05-5.47.07-6.94.1-7.97.1-8.56.11-8.74.1-8.5.12-7.82.1-6.72.1-5.18.06-3.24.05h-.77c-.17 0-.1.03-.12-.07q-.06-.45-.05-.89l-.12-1.87-.36-5.95-.48-7.9-.53-8.69-.48-8.28-.4-6.67-.25-3.86-.02-.5c0 .04-1.1.26-1.1.47l.26 4.47.65 10.7.77 12.89.67 11.14.21 3.7.08 1.14q-.03.3.04.6v.08h.03l1.99-.03 5.47-.07 8.07-.1 9.86-.12 10.78-.14 10.87-.14 10.13-.12 8.56-.12 6.2-.08q1.44.01 2.92-.04h.12c.15 0 1.06-.32 1.08-.48l.24-4.35.6-10.44.7-12.62.6-10.92.2-3.6.06-1.13q.07-.28.03-.6v-.07H23.88c-1.03 0-2.09-.03-3.12 0h-.14a2 2 0 0 0-.7.24c-.05.02-.38.24-.34.24M61.18 24.62s-1.23.05-.63 1.35 1.59.86 1.85 0c.26-.87-.77-1.49-1.22-1.35" />
        <path fill="var(--b, white)"
            d="M20.09 80.98S8.79 96.34 9.79 96.53c1.01.19 100.03 0 100.44-1.23.41-1.22-9.45-13.44-10.05-14.35s-80.1.03-80.1.03" />
        <path fill="var(--c, black)"
            d="M19.51 80.9a331 331 0 0 0-6.33 8.88c-1.2 1.76-2.43 3.48-3.48 5.33-.15.27-.63.91-.53 1.25.07.29.65.29.91.29 1.42.1 2.86.05 4.27.05l9.15.02q6.37 0 12.74-.02 7.48-.02 14.95-.08 7.88-.04 15.77-.12 7.6-.06 15.22-.16a1202 1202 0 0 0 23.06-.48c1.7-.08 3.46-.05 5.11-.34q.22 0 .43-.12c.2-.2-.04-.6-.14-.8-.89-1.89-2.28-3.6-3.5-5.27a413 413 0 0 0-4.68-6.15l-1.44-1.87c-.22-.26-.27-.4-.6-.48q-.97-.2-1.97-.21-1.65-.08-3.34-.12-5.24-.11-10.53-.1-7.1-.03-14.19 0l-15.7.07q-7.43.04-14.87.12-6.06.04-12.1.12l-6.98.07h-.94c-.14 0-.38-.02-.24.12.14.15.62.15.82.15l3.7-.05 9.66-.1 13.56-.12 15.39-.1q7.52-.03 15.05-.04 6.32-.01 12.64.05 2.41.01 4.78.07.94.02 1.87.05l.82.02h.24l.36.03 1.08.07h.1c.14 0-.17-.03-.05 0l.16.02c.2.03-.07-.02-.02 0 .14.03-.05 0-.02 0q-.07 0-.15-.05.1.24.29.41.73.96 1.46 1.92 2.39 3.05 4.68 6.15 1.08 1.48 2.14 3 .75 1.06 1.32 2.2.17.27.17.6c-.03.12.02.03-.05.08-.07.04 0 0-.1.02s-.16.02-.26.05l-.17.02q-.09 0 0 0l-.12.03-.43.04q-.58.03-1.15.1c-2.55.17-5.11.22-7.68.29q-5.78.14-11.57.24l-14.26.2q-7.7.07-15.4.11-7.72.04-15.39.1l-13.92.04H18.07q-3.48 0-6.96-.02-.74 0-1.49-.02c.36 0-.28-.05.15 0 .07 0 .53.1.5.14v-.14c.17-.5.41-1.01.7-1.44 1.1-1.88 2.35-3.65 3.57-5.45q2.04-2.95 4.16-5.83.95-1.34 1.92-2.64c.04-.08-.53-.17-.58-.2-.07-.07-.43-.14-.53 0" />
        <path fill="var(--c, black)"
            d="m11.04 98.33-1.25-1.8 100.44-1.23s-.36 2.36-2.35 3-94.18 1.35-96.84.03" />
        <path fill="var(--c, black)"
            d="m11.6 98.04-1.26-1.8-.79.7 2.71-.03 7.28-.1 10.84-.11 13.13-.17 14.5-.17 14.52-.17L86.16 96l11.45-.14 8.28-.1 2.57-.02q.66.04 1.34-.03h.17l-.29-.33a3.6 3.6 0 0 1-1.2 2.2q-.3.22-.62.34l.07-.02-.17.02q-.3.04-.6.05h-.31l-.5.02q-3.2.14-6.39.2-5 .1-9.98.16l-12.44.15q-6.9.06-13.82.1-7.1.02-14.18.02-6.7 0-13.4-.03-5.75-.04-11.47-.12-4.26-.06-8.54-.21-1.4-.04-2.83-.15l-1.01-.07-.39-.05-.14-.02h-.05l-.36-.1c-.38-.19-1.32.53-.74.8.33.16.79.16 1.17.21q1.16.1 2.3.17 3.9.18 7.78.24 5.51.1 11.04.14 6.6.05 13.18.05 7.12 0 14.26-.02l14.16-.1a2307 2307 0 0 0 23.47-.29q3.55-.06 7.1-.19c1.73-.07 3.31.05 4.56-1.41a4.7 4.7 0 0 0 1.08-2.26c.05-.14-.05-.29-.19-.34h-.1l-2.68.03-7.3.1-10.85.11-13.15.17-14.5.17-14.52.17-13.63.17-11.45.14-8.28.1-3.88.04h-.1c-.24 0-1.03.34-.8.7l1.26 1.8c.26.43 1.3-.14 1.05-.53M27.84 84.77h1.75l4.7-.03 7.01-.04 8.5-.05 9.36-.07 9.38-.08 8.81-.04 7.4-.05 5.35-.03q1.26 0 2.52-.02h.12c.19 0 .52-.07.48-.34-.05-.26-.48-.33-.7-.33h-1.75l-4.7.02-7.01.05-8.5.05-9.36.07-9.38.07L43 84l-7.4.05-5.35.05q-1.26 0-2.52.02h-.12c-.19 0-.52.07-.48.34.05.26.48.33.7.3M26.2 88.66h1.86l4.99-.03 7.41-.04 9-.05 9.92-.07 9.93-.08 9.34-.04 7.85-.05 5.66-.05q1.34.02 2.66-.02h.12c.3 0 .34-.36.24-.58a.8.8 0 0 0-.72-.46h-1.84l-5 .03-7.41.05-9 .04-9.91.08-9.94.07-9.34.05-7.84.04-5.67.05c-.89 0-1.77-.02-2.66.03h-.12c-.29 0-.34.36-.24.57.14.29.43.46.72.46M23.76 92.42h1.97l5.33-.02 7.92-.05 9.6-.05 10.58-.07 10.6-.07 9.97-.05 8.37-.05 6.05-.02q1.43.02 2.86-.02h.12a.56.56 0 0 0 .53-.6c-.03-.34-.36-.46-.65-.46h-1.97l-5.33.02-7.92.05-9.6.05-10.58.07-10.61.07-9.96.05-8.35.05-6.05.02c-.94 0-1.9-.02-2.86.03h-.12a.56.56 0 0 0-.52.6c.02.36.36.45.62.45" />
        <path fill="var(--c, black)"
            d="m48.86 81.96-1.58 4.15-2.57 6.63-.6 1.53c-.1.27.15.48.39.5.3.03.6-.14.72-.4l1.6-4.15 2.57-6.63.6-1.53c.1-.27-.14-.48-.38-.5a.8.8 0 0 0-.75.4M59.8 81.84v12.14c0 .39 1.2.39 1.2 0V81.84c0-.38-1.2-.38-1.2 0M70.73 81.6l1.56 4.03 2.47 6.48.58 1.5c.12.3 1.24.64 1.05.16l-1.56-4.03-2.47-6.48-.58-1.5c-.12-.3-1.22-.62-1.05-.16M32.93 82.42l-2.43 3.86-3.86 6.22-.89 1.41c-.12.2 1.01.41 1.15.17l2.43-3.86 3.89-6.2.88-1.44c.1-.21-1-.43-1.17-.16" />
        <path fill="var(--b, white)" d="M84.86 82.32c.5.34 7.18 11.02 7.18 11.02Z" />
        <path fill="var(--c, black)"
            d="M84.58 82.54c.02.02-.12-.15-.05-.05q.03.03.07.1c0-.03-.1-.15-.02-.05l.02.04.12.15q.32.43.6.86.9 1.3 1.73 2.64L90.72 92q.43.65.82 1.32c.16.24.45.41.74.39.24-.03.36-.2.22-.44l-2.33-3.67a306 306 0 0 0-3.8-5.88c-.23-.33-.47-.7-.71-1.03q-.24-.35-.53-.62c-.2-.12-.55-.32-.77-.15s.05.5.22.63" />
        <path fill="var(--b, white)"
            d="m32 65.64 3.71.2s2.38-3.2 2.16-6.1-.81-4.42-.81-4.42-5.7 8.02-5.07 10.32" />
        <path fill="#002780"
            d="m31.97 66.17 2.28.12 1.25.07c.28.05.6-.05.76-.29q.99-1.37 1.59-2.95.45-1.12.57-2.35.07-1.34-.14-2.69c-.12-1-.36-2.02-.7-2.95a.66.66 0 0 0-.86-.27.3.3 0 0 0-.17.15c-.67.93-1.3 1.92-1.92 2.88a31 31 0 0 0-2.88 5.4c-.29.74-.57 1.63-.38 2.42.17.65 1.34.58 1.15-.14q-.03-.09-.02-.17c.02.17 0-.05 0-.1q0-.22.04-.45c0-.03.03-.17 0-.03l.03-.12q.02-.1.05-.21.07-.31.19-.63.5-1.31 1.17-2.54a58 58 0 0 1 2.88-4.66q.34-.48.68-.98l-1.04-.12.05.12q.11.33.2.7.3 1.32.45 2.68c.12.99.05 2-.24 2.93q-.39 1.23-1.03 2.35-.34.62-.75 1.2l.53-.21L32 65.1a.56.56 0 0 0-.62.46v.02c.05.31.29.55.6.58" />
        <path fill="#002780"
            d="m37.49 56.02.48-.94q.59-1.16 1.17-2.3l3.75-7.44 4.49-8.93 3.88-7.75c.65-1.3 1.37-2.6 2-3.92q.02-.02.04-.1c.12-.2-.81.18-.86.2q-.43.2-.8.46-.24.14-.42.36-.26.46-.48.93l-1.18 2.33-3.74 7.44-4.5 8.93-3.88 7.75c-.65 1.3-1.37 2.6-2 3.91l-.04.1c-.12.21.82-.17.84-.2q.43-.2.8-.45.27-.16.45-.38" />
        <path fill="var(--b, white)"
            d="m44.52 61.56-2.3 2.64a15 15 0 0 1-2.04-4.6c-.56-2.5-3.27-4.76-3.27-4.76s3.46.74 4.27 3.12c.82 2.38 2.33 3.6 3.34 3.6" />
        <path fill="#002780"
            d="m43.94 61.6-2.3 2.65 1.18-.1a13 13 0 0 1-1.83-3.79c-.14-.5-.24-1-.4-1.49a8 8 0 0 0-.6-1.2 12 12 0 0 0-2.5-2.88l-1.08.2q1.52.34 2.76 1.24a4 4 0 0 1 1.46 1.92c.31.99.87 1.87 1.59 2.62.52.57 1.24.91 2.01.93.22 0 .63 0 .82-.12s-.12-.12-.22-.12c.1 0-.02 0-.05-.02-.02-.02-.12-.02-.16-.05l-.44-.19q-.5-.3-.88-.72a8 8 0 0 1-1.5-2.64c-.5-1.4-1.89-2.26-3.2-2.74a6 6 0 0 0-1.11-.33q-.37-.06-.75.05c-.04 0-.43.07-.33.14q1.35 1.12 2.3 2.62.37.56.63 1.17.23.69.4 1.37a13 13 0 0 0 1.92 4.15c.08.12.44.05.53.05.15 0 .53 0 .65-.14l2.3-2.64c.1-.1-.38-.08-.43-.08-.19 0-.65 0-.77.15" />
        <path fill="var(--b, white)"
            d="m39.91 66.91 2.98-1.34s-1.83-2.16-1.97-4.13-1.08-5.02-2.57-5.28c0 0 .82 1.75.55 4.6-.26 2.86 1.01 6.15 1.01 6.15" />
        <path fill="#002780"
            d="m40.27 67.1 2.98-1.34c.12-.05.33-.22.21-.36a9 9 0 0 1-1.82-3.36q-.12-.61-.17-1.22-.07-.62-.21-1.2-.3-1.2-.87-2.3c-.36-.66-.89-1.28-1.65-1.45a1 1 0 0 0-.65.07c-.07.03-.39.17-.31.32.48 1.05.6 2.32.6 3.48 0 .55-.08 1.1-.1 1.65q-.03.76.07 1.54a18 18 0 0 0 .99 4.1c.14.39 1.3.1 1.17-.21a17 17 0 0 1-1.05-5.26c0-.55.07-1.08.1-1.63q.03-1.38-.25-2.71-.1-.61-.36-1.18l-.96.38c.58.12.99.7 1.27 1.2q.6 1.08.84 2.26.15.57.22 1.18.03.59.14 1.17.32 1.23 1.04 2.3.4.66.86 1.23l.22-.36-2.98 1.34c-.17.08-.36.27-.14.41.21.15.6.05.81-.05" />
        <path fill="var(--b, white)"
            d="M37.82 68.54s-2.16-1.75-2.16-2.97 1.7-3.05 2.04-6.1-.33-3.72-.33-3.72 1.49-.55 1.97 1.78c.48 2.32-1.7 6.76-.22 9.28z" />
        <path fill="#002780"
            d="M38.11 68.14q-.87-.7-1.53-1.59a2 2 0 0 1-.34-.57.6.6 0 0 1-.05-.44q0-.02.03-.1c.02-.14-.03.1 0-.04q.02-.15.1-.29.1-.32.26-.65c.5-1.1 1.05-2.18 1.36-3.36.36-1.36.48-2.78.32-4.17-.08-.55-.2-1.18-.6-1.59l-.08.96.08-.02.07-.02q-.13.02.02 0h.22c.12 0-.1-.03-.03 0l.17.04c.03 0 .1.05-.02 0q.06.05.12.05c.14.07 0-.02.1.07l.07.08c.07.07-.1-.12.02.02q.19.22.26.48.22.56.22 1.15c0 1.92-.7 3.8-.8 5.71a5.7 5.7 0 0 0 .66 3.22l-.05-.67-1.27 1.75c-.36.5.48 1.34.86.8l1.3-1.76a.6.6 0 0 0-.03-.67 5 5 0 0 1-.38-2.62q.18-1.61.5-3.19.31-1.4.27-2.83c-.08-.94-.48-2-1.32-2.5a1.8 1.8 0 0 0-1.47-.19c-.43.14-.33.7-.07.96q-.17-.18-.05-.07c.07.07-.05-.05-.02-.05l.07.12q.02.08.05.14l.02.1c0-.02-.05-.17 0 0q.06.28.1.55.2 2.07-.41 4.06c-.34 1.1-.91 2.13-1.37 3.19q-.27.55-.31 1.18.03.84.53 1.53a10 10 0 0 0 1.87 2.04c.22.17.55.24.74 0a.7.7 0 0 0-.19-.81" />
        <path fill="var(--b, white)"
            d="m28.06 64.2 3.19 2.04s5.83-9.48 5.83-10.3c0-.81-.55-.89-.55-.89S32.18 63 28.06 64.2" />
        <path fill="#002780"
            d="m27.53 64.18 3.19 2.04q.31.16.65.19c.1.02.38.07.45-.03q1.2-1.95 2.36-3.88c1.1-1.88 2.25-3.72 3.21-5.7q.19-.32.27-.69c.1-.77-.63-1.08-1.25-1.17-.1-.03-.39-.1-.46.02-.5.94-1.1 1.85-1.7 2.74a25 25 0 0 1-4.03 4.77 7.5 7.5 0 0 1-2.7 1.61c-.14.05.37.24.4.24q.36.15.74.07c1.9-.57 3.43-2.18 4.68-3.65a34 34 0 0 0 3.24-4.53q.3-.5.57-1.01l-.45.02q-.25-.04-.48-.12l.04.05c.1.12.2.24.22.39q.07.2 0 .43-.1.36-.29.7-.62 1.25-1.32 2.44c-1.08 1.92-2.23 3.8-3.36 5.69q-.39.68-.81 1.32l1.1.17-3.2-2.04c-.23-.12-.52-.2-.78-.22-.12 0-.48 0-.3.15" />
        <path fill="var(--b, white)"
            d="M27.58 59.93c0 .21 2.3 3.79 2.3 3.79s4.68-3.86 5.35-4.75.89-3.65.89-3.65z" />
        <path fill="#002780"
            d="M27.02 60.12c.03.26.24.55.39.74l.79 1.3 1.18 1.85c.19.29.64.17.86-.03q1.55-1.29 3.07-2.59.96-.82 1.87-1.68.33-.28.58-.65a4 4 0 0 0 .55-1.36q.3-1.23.39-2.45c.02-.43-.46-.46-.75-.29l-7.49 4.06-1.03.55c-.21.12-.45.4-.31.65.14.24.53.19.72.07l7.51-4.06 1.03-.55-.74-.29q-.08 1-.26 1.97a5 5 0 0 1-.41 1.3q-.07.13-.17.24-.04.05-.1.12c-.02.04-.19.19-.07.07-1.2 1.2-2.52 2.28-3.81 3.36q-.57.47-1.18.98l.86-.02q-.57-.9-1.12-1.8-.4-.64-.77-1.27-.16-.24-.27-.46-.02-.08-.1-.17c-.16-.55-1.26-.12-1.22.41" />
        <path fill="var(--b, white)"
            d="M26.23 62.52s-1.37-1.34-1.37-2.45c0 0 2.12-1.97 4.42-2.9 2.3-.94 5.57-.89 5.57-.89z" />
        <path fill="#002780"
            d="M26.76 62.28c-.24-.24-.43-.48-.65-.74-.31-.41-.65-.94-.67-1.47l-.1.22.24-.22c.05-.05-.02.03-.02.03l.07-.08.17-.14q.18-.16.38-.31 1.04-.81 2.19-1.49a11.5 11.5 0 0 1 5.04-1.32q.68-.04 1.37-.05l-.32-.7-2.9 2.1-4.66 3.35-1.05.77c-.2.15-.31.41-.07.6.26.15.57.12.84-.05l2.9-2.08 4.66-3.36 1.05-.77a.4.4 0 0 0 .2-.46c-.1-.2-.32-.21-.51-.24a15 15 0 0 0-5.71.89q-1.85.76-3.43 2c-.39.28-.72.57-1.08.88-.22.2-.44.31-.41.65.05.93.77 1.85 1.39 2.47.22.2.53.24.8.1.16-.08.5-.36.28-.58" />
        <path fill="var(--b, white)"
            d="m27.31 57.43.2-2.45s1.63 1.56 4.46.41c1.73-.7 3.6-.86 5.42-.48.03 0-4.05 4.01-10.08 2.52" />
        <path fill="#002780"
            d="m27.84 57.58.2-2.45-.87.24c.72.7 1.87 1 2.85 1q.71 0 1.42-.19c.55-.14 1.08-.38 1.63-.55a9 9 0 0 1 3.5-.29q.14.02.27.03l.1.02c.07 0-.08-.02.02 0s.26.05.38.07l-.36-.96c-.12.12.1-.1-.02.03q-.17.17-.34.26-.6.47-1.24.87a10.6 10.6 0 0 1-8 1.2c-.74-.2-.76.96-.14 1.1a11.7 11.7 0 0 0 10.58-2.66c.32-.3-.02-.87-.36-.96a9 9 0 0 0-3.76-.08q-.83.15-1.66.44-.74.3-1.54.45-1.01.18-1.99-.21c-.05-.03-.1-.05 0 0l-.12-.05-.19-.1q-.16-.07-.26-.17c-.03-.02-.15-.1-.05-.02l-.03-.02-.04-.05c-.3-.27-.82-.2-.87.24l-.19 2.45c-.02.3.17.62.48.7.29.11.55-.06.6-.34q0 .03 0 0M87.7 35.69s-5.24 3.21-5.24 3.7c0 .47 4.35 3.04 8.07 11.8.43.99 8.33-6.65 8.04-7.39-1.68-4.42-10.51-8.35-10.87-8.11" />
        <path fill="#002780"
            d="M87.2 35.35q-1.75 1.07-3.42 2.2-.9.56-1.68 1.28c-.24.24-.1.43.1.65q.44.48.96.93a29.84 29.84 0 0 1 5.47 7.51q.57 1.1 1.06 2.21.17.44.38.87.26.37.7.55c.43.22.79 0 1.15-.24 1.32-.84 2.5-1.97 3.62-3.02a25 25 0 0 0 3.2-3.41q.17-.22.3-.5c.1-.22 0-.37-.09-.58a9 9 0 0 0-1.75-2.45 24 24 0 0 0-5.4-4.06q-1.25-.7-2.57-1.32a10 10 0 0 0-1.63-.62.6.6 0 0 0-.4 0c-.1.07.38.46.4.48.12.1.4.31.58.22q-.06.03 0 0c.02-.03-.08-.03 0 0q.1 0 .21.04l.07.03c.1.02-.1-.03 0 0q.07.02.15.05l.36.14q1.02.4 1.97.94c1.72.86 3.36 1.96 4.82 3.24a10 10 0 0 1 2.14 2.66q.12.18.16.4l-.02.1q-.04.12-.12.22-.43.7-1 1.27-.8.9-1.66 1.73a36 36 0 0 1-3.68 3.26q-.54.49-1.22.75l-.17.02c-.02.03.03-.02.03 0a.7.7 0 0 1 .38.27q.18.1.36.28-.07-.19-.17-.38-.47-1.09-1-2.14a34 34 0 0 0-3.9-6.07q-1.28-1.5-2.73-2.88l-.17-.17-.07-.07-.05-.05s.07.05.03.03 0-.05 0 .02v-.05l.07-.1q.1-.13.24-.23.36-.32.77-.6c1.24-.91 2.56-1.73 3.86-2.55l.29-.16c.12-.05-.65-.87-.94-.7" />
        <path fill="var(--b, white)"
            d="M65.04 28.51s6.02 8.19 6.26 7.75c3.05-6.16 11.14-8.3 10.9-9.38s-2.93-5.52-3.7-5.78c-4.36-1.44-13.72 7.03-13.46 7.41" />
        <path fill="#002780"
            d="M64.97 28.56c1.73 2.33 3.45 4.68 5.33 6.91q.5.65 1.12 1.2c.17.15.22.15.32-.05q.43-.84 1-1.63a19 19 0 0 1 5.28-4.63q1.22-.74 2.48-1.42.87-.42 1.68-1 .21-.14.36-.39a.7.7 0 0 0-.05-.53q-.54-1.3-1.3-2.5-.83-1.43-1.85-2.78a7 7 0 0 0-.86-.96q-.35-.26-.82-.3c-1.75-.27-3.57.57-5.08 1.38a33 33 0 0 0-6.92 5.02q-.53.44-.9.98c-.13.22.02.36.14.56.04.1.36.6.48.57.12-.02-.12-.36-.15-.4.29.45.1.43.31.16l.39-.43c.45-.48.96-.91 1.44-1.34a33 33 0 0 1 4.58-3.36c1.54-.96 3.27-1.88 5.09-2.14q.55-.08 1.1-.05.45 0 .8.22c.02.02.12.1.07.07l.12.12q.08.08.14.2l.17.18c.02.03.1.12.02.03l.1.14.2.27c.09.14.23.38.38.57q.77 1.18 1.41 2.47c.17.36.43.72.15 1.04q-.59.5-1.28.84l-2.18 1.22a21 21 0 0 0-5.14 3.94q-1.22 1.33-2.06 2.95-.02.04-.05.1c-.05.02-.05-.03-.1-.05l-.09-.08c.1.08-.02-.02-.02-.04q-.14-.13-.24-.27l-.1-.1-.12-.14-.34-.4q-.19-.21-.33-.41c.05.07-.07-.1-.1-.12l-.24-.3q-.82-1-1.6-2.06l-1.52-1.99-.57-.77-.22-.28c-.02-.05-.14-.2 0 0l-.1-.12-.12-.17c-.02-.05-.33-.5-.43-.43s.2.48.22.5M58.44 48.77s-3.1-3.15-10.2-5.9c0 0 1.78-6.82 2.28-7.04s7.85 5.74 9.62 7.7z" />
        <path fill="#002780"
            d="M58.92 48.94q-.76-.75-1.63-1.37a35 35 0 0 0-4.87-3q-2.09-1.07-4.28-1.92l.63.45q.36-1.44.79-2.88.32-1.1.67-2.23.25-.83.6-1.63a1 1 0 0 1 .12-.2c.03-.04.07-.09.07-.06a1 1 0 0 1-.19-.05l-.1-.05.05.02-.04-.02.24.14c.07.05-.1-.04-.03 0l.07.05.17.12q.4.26.8.55a72 72 0 0 1 3.98 3.15c1.25 1.05 2.57 2.11 3.67 3.33l-.05-.1-1.49 4.6-.21.64c-.07.24 1.03.7 1.08.53l1.51-4.68q.13-.26.2-.55c0-.15-.25-.32-.32-.41q-.24-.26-.48-.48-1.2-1.14-2.47-2.21a63 63 0 0 0-5.47-4.27 7 7 0 0 0-1.01-.6c-.22-.12-.65-.36-.89-.27-.17.08-.26.36-.34.5q-.22.6-.43 1.16-.87 2.6-1.53 5.28-.02.06-.03.12c-.05.2.53.43.63.46q3.24 1.25 6.24 3.04.97.6 1.87 1.25l.62.48.5.41q.18.16.34.31l.03.03.02.02q.33.3.72.4c.05.03.43.1.24-.06" />
        <path fill="var(--b, white)"
            d="m82.78 59.66 2.35-.4s-.89-6.24-4.95-8.6c0 0-5.3 1.37-5.4 2.21 0-.02 5.19 2.28 8 6.8" />
        <path fill="#002780"
            d="m83.26 59.85 2.35-.4q.06 0 .1-.08a15 15 0 0 0-2.1-5.73 10 10 0 0 0-2.4-2.64c-.43-.31-.95-.65-1.5-.55q-1.28.28-2.5.74-1.05.33-2.02.77c-.31.14-.93.38-1 .77-.03.1.19.19.26.21l.02.03c.12.04-.02-.03 0 0l.39.19q.67.36 1.36.77 2.14 1.29 3.87 3.04 1.19 1.19 2.09 2.62c.12.2.48.24.7.29.04 0 .54.05.45-.12-1.78-2.83-4.54-5.04-7.47-6.58l-.76-.38.26.21c.05-.24.38-.4.58-.5q.6-.33 1.24-.55 1.4-.5 2.84-.91l.64-.17-.93-.17c2.64 1.56 3.98 4.8 4.63 7.68q.1.38.14.77l.1-.07-2.35.4c-.27.05.07.24.17.3.28.06.57.11.84.06M85.85 60.24s1.41-1.44 2.09-4.58c0 0 2.83.21 2.85.96.03.74-2.95 3.62-2.95 3.62s-1.54.05-2 0" />
        <path fill="#002780"
            d="M86.57 60.38c-.29 0-.58 0-.75-.02l-.24-.02.17-.17c.03-.03 1.4-1.47 2.07-4.54l.02-.1h.1c.48.05 2.95.27 2.97 1.09.03.81-2.69 3.43-3 3.72l-.02.02h-.05zm-.48-.24c.53.03 1.46 0 1.68-.02 1.15-1.1 2.9-3 2.9-3.5 0-.44-1.51-.75-2.64-.84a10 10 0 0 1-1.94 4.36" />
        <path fill="var(--c, black)"
            d="m79 59.33 1.06 8.83.15 1.25c.02.24.74.38.93.4q1.6.25 3.2.34 1.35.1 2.7.02 1.2-.02 2.31-.38c.31-.12.91-.36.99-.72s.1-.84.12-1.22l.48-4.7.33-3.4c.03-.23-1.13-.47-1.13-.38l-.74 7.5-.17 1.58q0 .17-.02.3c-.05.18-.29.3-.43.4q-.95.49-2.04.54-1.34.12-2.64.05a38 38 0 0 1-3.7-.33l.94.4-1.06-8.83-.14-1.25c-.03-.16-.41-.26-.53-.3-.05 0-.63-.18-.6-.1" />
        <path fill="var(--c, black)"
            d="M79.9 60.14q.58.4 1.27.63 1.84.61 3.79.62c1.6.05 3.24-.12 4.8-.5.6-.15 1.63-.41 1.34-1.23-.24-.72-.84-1.1-1.53-1.25q-1.1-.22-2.19-.28a35 35 0 0 0-5.73-.05q-1 .03-1.97.36a.7.7 0 0 0-.4.33c-.15.32.09.75.28 1.01zc.19.15.3.05.26-.14a1.4 1.4 0 0 0-.43-.72c-.05-.03-.07-.1.02.02l.03.05.04.07q.07.08.1.2c.05.14.02.11.02.07.05.24 0 .04 0 .04l.03-.02q.04-.06.1-.1.1-.08.23-.12.85-.28 1.76-.33c1.72-.15 3.48-.15 5.2 0q1.13.08 2.21.21.4.07.77.17.22.08.43.2c.1.04-.07-.08 0 0q-.1-.12-.17-.27c-.02-.07-.1-.24-.07-.26-.05.02-.07.16-.14.21q-.45.33-.99.43-2.05.5-4.17.53-2.13.1-4.18-.5-.5-.16-.98-.4l-.27-.15-.07-.05c.12.07.1.05.05.05q-.3-.2-.26.14c.12.24.26.5.48.67" />
        <path fill="var(--c, black)"
            d="M83.04 69.46q-.01-.52-.1-.99l-.21-2.13-.5-4.68c-.05-.41-.13-.82-.13-1.23 0-.4-1.17-.19-1.17.24 0 .34.07.67.1.99l.21 2.13.5 4.68c.05.41.12.82.12 1.23 0 .4 1.18.19 1.18-.24M86.14 70q0-3.86.04-7.74V61c0-.31-.21-.6-.52-.65-.27-.05-.56.12-.6.38v.05q-.01 3.88-.05 7.75v1.23c0 .31.21.6.53.65.26.04.55-.12.6-.39zM88.6 69.6c0-1 .15-2.07.25-3.07l.38-4.7c.03-.4.1-.8.1-1.2 0-.13-1.2-.15-1.2 0 0 1-.15 2.06-.24 3.06l-.39 4.7c-.02.4-.1.8-.1 1.2 0 .13 1.2.15 1.2 0" />
        <path fill="var(--c, black)"
            d="M80.83 67.92c2.98.94 6.2.89 9.15-.14.28-.08.5-.36.45-.65a.6.6 0 0 0-.72-.36 13.6 13.6 0 0 1-8.52.12.65.65 0 0 0-.74.38c-.07.27.07.55.33.63zM80.35 64.18c.84.24 1.63.55 2.5.72q1.27.23 2.54.19c1.68-.05 3.34-.48 4.85-1.25.65-.34-.22-1-.7-.74a10 10 0 0 1-6.62.98c-.82-.17-1.58-.46-2.4-.7-.24-.07-.6 0-.67.3-.07.28.29.45.5.5" />
        <path fill="var(--b, white)"
            d="M50.16 43.06q1.14-.62 2.11-1.5c.2-.16.27-.47.03-.62a.8.8 0 0 0-.82.12q-.2.2-.46.39-.11.1-.24.19l-.12.1.03-.03-.07.05q-.5.35-1.04.62c-.19.12-.43.44-.24.63.24.21.56.21.82.05M50.93 37.37a9 9 0 0 0 2.9 4.13 6.7 6.7 0 0 0 5 1.36c.21-.02.62-.16.64-.4s-.33-.3-.5-.27c-3.29.46-5.83-2.37-6.89-5.16-.14-.4-1.3-.05-1.15.34" />
        <path fill="var(--b, white)"
            d="M56.64 43.03q.21 1.73.77 3.41c.14.29.48.43.77.34a.5.5 0 0 0 .3-.65q0-.03-.02-.05c-.04-.17-.14-.46-.21-.7a18.84 18.84 0 0 1-.48-2.42c-.05-.7-1.23-.67-1.13.07M86.52 39.38c1.15-.26 2.88-.19 3.48 1.04.22.48.2 1.05-.12 1.48-.24.39-.91 1.01-1.42.77l.22.15.2.33v.24c.04-.26.4-.36.62-.36q.4 0 .76.2c.41.23.72.6.92 1.03.43.98.38 2.13-.15 3.07-.21.38.48 1.32.72.93.63-1.17.7-2.54.22-3.79-.43-1.15-1.51-2.61-2.9-2.54q-.41.02-.75.29c-.34.28-.31.74-.1 1.1.41.67 1.2.55 1.78.14 1.18-.84 1.15-2.42.46-3.55-.94-1.49-2.7-2-4.35-1.63-.45.12.03 1.18.41 1.1M92.26 41.6q-.25.77-.15 1.58c0 .21.12.43.29.57q.31.14.65.1.37.02.74-.03.36-.07.65-.28.31-.15.55-.41c.36-.39.24-.91 0-1.32a2.5 2.5 0 0 0-1.1-1.03.3.3 0 0 0-.2.02q-.2.08-.38.2-.18.1-.36.23c-.02.03-.14.15-.12.15q.55.26.91.74c.24.31.48.74.41 1.15a1 1 0 0 1-.1.24l-.04.07c-.15.22.36-.3.6-.33h-.05q-.33.01-.62 0-.3.04-.56-.1a.7.7 0 0 1-.24-.5 3.4 3.4 0 0 1 .15-1.56c.05-.15-.41.07-.43.1q-.21.1-.41.23c-.07 0-.2.08-.2.17" />
        <path fill="#002780"
            d="m74.54 25.18 1.25 1.99.24-.72q-.4.25-.84.43c-.21.07-.7.29-.86.24l.26.12-.05-.05.15.22c-.15-.39-.1-.91-.05-1.3l-1 .43a6 6 0 0 1 1.26 1.68l.08.15q.15-.25 0-.1c-.1.03-.24.2-.34.24l-1.32.99-.65.5q-.28.25-.6.46l.46.02a2 2 0 0 1-.6-.48q-.33-.28-.63-.6-.27-.29-.48-.65c-.1-.17-.33-.57-.26-.77.02-.07.2-.16.24-.21l.36-.34q.36-.32.74-.62.4-.32.82-.63.36-.3.8-.52l-.32.1h.1l-.34-.08-.14-.22v-.02c-.05.31.3.5.57.48a.6.6 0 0 0 .6-.55.6.6 0 0 0-.48-.63c-.38-.1-.7.1-.98.32q-.8.54-1.56 1.15c-.5.4-1.03.79-1.4 1.27-.38.53-.14 1.18.13 1.7q.4.72 1 1.25.3.29.6.53c.24.22.53.48.87.46.33-.03.6-.27.86-.46l.84-.65 1.63-1.25c.27-.19.58-.4.6-.76s-.19-.68-.36-.96q-.54-.9-1.3-1.61c-.35-.31-.98-.03-1 .43q-.06.64.02 1.3c.08.5.44.74.94.67q1.2-.22 2.2-.87a.53.53 0 0 0 .27-.7q0-.01-.02-.02l-1.25-1.99c-.34-.55-1.42 0-1.03.58z" />
        <path fill="var(--c, black)"
            d="M16.73 48.22q.72 1.07 1.56 2.06A19 19 0 0 0 22 53.83q1.23.9 2.69 1.35c.24.07.62.04.76-.2s-.14-.48-.36-.52c-1.56-.44-2.9-1.54-4.05-2.64a25 25 0 0 1-2.76-3.2q-.26-.34-.48-.7c-.27-.42-1.44-.26-1.08.3M19.7 59.98q.23.57.53 1.1.81 1.44 1.87 2.66a19.7 19.7 0 0 0 9.44 5.84c3.02.86 6.19 1.12 9.3 1 .18.03.32-.1.34-.26q.01-.1-.04-.17a.9.9 0 0 0-.7-.48q-4.16.22-8.2-.74a20 20 0 0 1-5.55-2.28q-.54-.34-1.08-.72l-.48-.36-.12-.1-.03-.02-.24-.2q-.85-.71-1.6-1.5l-.17-.2c-.03-.02-.07-.1.02.03l-.07-.1-.34-.38-.5-.68-.43-.64q-.1-.15-.2-.3l-.07-.11-.04-.07c.07.12-.05-.08 0 0q-.36-.61-.65-1.3a.8.8 0 0 0-.7-.48c-.29-.02-.38.2-.29.46M49.82 65c.58.23 1.2.04 1.78-.13q1.37-.44 2.66-1.05a48 48 0 0 0 7.78-4.54 41 41 0 0 0 8.23-7.66q2.04-2.48 3.7-5.23 1.28-2.11 2.18-4.4c.34-.88.72-1.91.6-2.87a1.4 1.4 0 0 0-1.51-1.25l-.17.03q-.6.15-1.1.55-.82.62-1.44 1.41c-.77 1.01-1.18 2.21-1.23 3.48 0 1.06.36 2.12 1.28 2.72 1.08.72 2.42.5 3.52-.08.9-.45 1.68-.98 2.6-1.36a14 14 0 0 1 4.15-1.16 8 8 0 0 1 1.3-.02l.69.07c.02 0 .22.05.07.03l.15.02q.16.03.33.1l.34.1-.05-.03.1.02.16.07.32.15.04.02.17.1q.16.09.27.17l.14.1c-.1-.08.02.02.07.04q.29.22.53.48c-.05-.05.05.05.05.07l.12.15q.14.15.26.33.23.3.41.63c.62 1.2 1 2.5 1.13 3.81q.14 1.27.14 2.55c0 .43 1.13.81 1.13.3 0-2.63-.36-5.6-2.11-7.72a7 7 0 0 0-5.21-2.38 13 13 0 0 0-5.6 1.25c-.88.39-1.67.89-2.51 1.35-.5.3-1.08.48-1.66.5.1 0-.31-.05-.14-.02l-.15-.05c-.14-.03.08.05-.04-.03-.05-.02-.15-.07-.03 0l-.12-.07c-.05-.02.03.03.03.03l-.08-.05q-.08-.06-.12-.12c.08.07-.1-.15-.12-.17q-.08-.1-.12-.24-.15-.3-.19-.6-.15-.8 0-1.56a6 6 0 0 1 2.95-4.1q.12-.03.22-.1l.1-.02c-.03 0-.08-.03.02 0 .05 0 .12.02-.02 0 .02 0 .12.02.02 0s.14.1-.12-.05c.07.02-.14-.1-.05-.03-.05-.02-.17-.12-.07-.04.05.02-.05-.1 0 0l.05.1q.01.02.02.09c-.02-.07 0-.03 0 .02q.02.09.03.24 0 .6-.15 1.18a17 17 0 0 1-1.44 3.7A41.34 41.34 0 0 1 63.3 57.04a49 49 0 0 1-7.92 5.18q-1.53.8-3.12 1.47-.6.24-1.2.43l-.48.14-.2.05-.09.02h-.02l-.3.03c.15.02-.09 0 0 0-.09 0 .08.02.1.02l.1.05c-.2-.07-.58-.2-.67.05-.1.24.24.48.4.55zM47.16 60.38q2.86-.19 5.42-1.48 1.05-.54 1.88-1.37c.43-.46-.3-1.42-.75-.94-1.56 1.66-4.03 2.28-6.21 2.57l-.63.07c-.67.05-.33 1.2.29 1.15" />
    </g>
</svg>