<svg xmlns="http://www.w3.org/2000/svg" fill="none" viewBox="0 0 120 120">
  <g id="doc">
    <path
      d="M93 45s1.8 32-23 30c0 0 5.3 20.8-.8 24.7-3.9 2.4-17 1.3-26.3.2q-1.7-.2-3.4-.8l-1.2 1.7s-10-9.5-11.6-18.8c-1.4-8 11.2-16.4 15-18.7 8.2-6.2 13-3.4 16.8-4a69 69 0 0 1 9 .2 10 10 0 0 0 10.3-8.3L79 45s13-3.2 14 .2"
      fill="#002780" />
    <path
      d="M92.2 45v3q-.2 3.8-.9 7.5-.8 4.7-2.9 9a19 19 0 0 1-6.2 7.3 18 18 0 0 1-12.5 2.9s-.5 0-.5 0q.7 2.6 1 5.2 1 5.4 1 10.7 0 2.5-.5 5-.4 1.9-1.8 3.3-1.7 1.4-4.2 1.6-3.3.4-6.6.3a104 104 0 0 1-12.1-.9q-2-.1-4-.5-1-.1-2-.6c-.2 0-1.2-.3-1.3 0l-1.1 1.7 1.7.3q-2-1.9-3.7-4-3.6-4.2-6.1-9.1-1.2-2.8-2-5.6a8 8 0 0 1 .6-4.4c1.2-3.2 3.6-5.9 6-8q3.3-3.2 7.2-5.7l4.4-2.7q2.5-1.5 5.2-1.9 2-.2 4 0h.9l1 .1h1.7l2-.2a57 57 0 0 1 7.3.2l3-.2a10 10 0 0 0 7.8-7.1l.5-2.8.7-3.8v-.8.1a55 55 0 0 1 9.5-1.3H91c-.3 0 .4.2.2.2l.4.1q.4.3.7.9l.8.3h.8c-.2-1-1.3-1.3-2.1-1.7q-2-.4-4-.3-3.8 0-7.7 1l-1.7.3-.2.1-1 6a10 10 0 0 1-5.7 7.7q-1.2.5-2.7.8h-3.2a52 52 0 0 0-7 0h-2.8s-.2 0 0 0h-.3q-2-.3-4.2-.3a16 16 0 0 0-7.6 2.4q-1.5.8-2.9 1.8a59 59 0 0 0-6.6 4.9 29 29 0 0 0-6.8 7.6 11 11 0 0 0-1.5 4.3q0 2.5.8 5 2.3 5.5 5.9 10 2.2 3 4.8 5.6l.3.3q.5.3.9.3.4.1.8 0l1.1-1.8-1.3-.1q4.3 1.3 8.7 1.5l8.5.7h7.7q2.8-.1 5.4-1.1c2.7-1.3 3.3-4.8 3.5-7.5a49 49 0 0 0-1.4-15.3l-.4-1.5-.1-.8h-.5q6.3.8 12-2 4.4-2.7 6.9-7 2.4-4.3 3.3-9 1-3.8 1.1-8l.1-2.6V45c0-.2-1.8-.3-1.8-.2"
      fill="#002780" />
    <path
      d="M41.8 59.7S37 63.3 35 61.5s1.8-3 1.8-3-6.2-2.5-1-6c0 0-6.3-1.2-4.2-6.2S41.9 40 41.9 40s-2.5-4.7 3.4-6.8 6 1.5 6 1.5 3.9-1.4 4.8.2c.8 1.7-1.5 3.7-1.5 3.7s1.2 5.3-4 6.9l-1.8 8.3a4 4 0 0 0 2 4.7c-.7 3.2-7.6 4.3-9 1.2"
      fill="var(--c, black)" />
    <path
      d="m41.3 59.5-1 .8H40l-.2.2-.7.3-.5.3-.8.2h-.1l-.4.2h-.5l-1-.2q-.5-.4-.6-1t.3-.7l.2-.1h.1l.4-.2v-.1l.5-.2q.2 0 0 0c.1 0 1.3-.6.6-.8q.2 0 0 0V58l-.7-.3-1.5-1.2q-.7-.8-.7-1.8.5-1.4 1.8-2.1c.1-.2.5-.5 0-.6-1.9-.4-4.3-1.7-4.3-4 0-1.8 1.2-3.5 2.5-4.6a14 14 0 0 1 4.5-2.4h.2l.3-.2.6-.1 1-.2.6-.2c-.4 0 0 0 0 0 .2 0 1.3-.3 1.1-.8a4 4 0 0 1 .1-4.4c.9-1.4 2.8-2 4.2-2.2q1.7-.4 3 .6l.4.8v.3q0 .2 0 0c0 .5.8.3 1 .2h.2c-.4.2 0 0 0 0l1-.2q1.2-.4 2.2.1c1.5 1 0 3-1 3.7v.3c.5 2-.2 4.4-2 5.7l-1 .5q-.7 0-.9.7l-.2 1-1 4.1-.6 3.1v.2a4 4 0 0 1 1.9 4.7q-.3.6-.8 1l-.5.5h-.2l-.2.1c-.2.2.2 0 0 0a6 6 0 0 1-3 .5q-1.7-.2-2.5-1.7c-.2-.5-1.8.1-1.6.5 1 2.5 4.5 2.3 6.6 1.7q2-.6 3.4-2.2 1.1-2 .2-4-.6-1.2-1.8-1.9v.2l1.7-7.3.2-1-.8.5a7 7 0 0 0 4.3-3.3q.8-1.6.6-3.6v-.7l-.3.3c1-.8 2.2-2.1 1.9-3.5-.5-1.6-2.9-1.4-4.2-1.1l-1.7.5 1 .1q0-.8-.6-1.3c-.7-1.1-2-1.2-3.3-1.1a13 13 0 0 0-3.3.8q-1.6.5-2.8 1.7a5 5 0 0 0-1.6 3.6q0 1.2.6 2.2l1.1-.8q-4.5.8-8.2 3.3a8 8 0 0 0-3.6 4.8q-.4 2.5 1.7 4 1.4 1 3 1.2v-.5c-1.1.8-2.7 2.2-2.1 3.9a5 5 0 0 0 2.3 2.2l.8.4.7-.8c-1.2.4-4.2 1.7-3 3.3q1.2 1.4 3 .9 2-.4 3.6-1.3l1.9-1.3q.5-.3.2-.6-.6 0-1.3.4"
      fill="var(--c, black)" />
    <path
      d="m58.3 66.5-8.1-3.7c-.5-.6-2.9-5.9-2.9-5.9s-2.9 1.5-4.9-1.6c-2-3 1.2-5 4.3-2.6 0 0 0-8.4-3.7-11 0 0 8.2.6 11.7-2.1 0 0 9.6 8.8 8.7 14.6-.8 5-3.5 6.1-3.5 6.1s1.2 6.3-1.7 6.2"
      fill="var(--b, white)" />
    <path
      d="m57.8 65.8-7-3-1-.5 1 .9-.2-.4-.4-.7-1-2.1-1.3-2.7-.6-.7-.5-.4q-1.6.8-3.2 0-1.3-.8-1.3-2.1t1.3-1.8q1.9-.4 3.5.9 0 .1.2 0l-.2-3.3q-.4-3-1.9-5.8-1-1.9-2.6-3l.8 1.1q4.6.5 8.8-.7a8 8 0 0 0 2.9-1.4l-.5-.4v.2l.2.1h.1l1.3 1.4.4.4s.2.3.1.1q0 .2.3.3l.8 1 1.9 2.4a17 17 0 0 1 2.8 5.1q.8 3.2-.8 6.2c-.5 1-1.3 2.3-2.5 2.8l.3 3c0 1.2-.3 3.2-1.8 3.1-.2 0 .3.6.3.6q.3.5.8.7c2.4 0 2-3.7 1.9-5.2l-.2-1v-.2c.8-.2 1.4-1 1.7-1.5q1.6-2.2 1.8-4.6.2-2-.6-3.7a28 28 0 0 0-4.8-7.4A48 48 0 0 0 54 39a12 12 0 0 1-5.4 2q-2.5.2-5 0h-1.2c-.2 0 .2.5.2.5l.8.7.1.2.3.3.7 1 1 2.7a22 22 0 0 1 .7 5.8h.2q-1.6-1.4-3.6-1.1-1.6.4-1.6 1.9c0 1.4 1 2.8 2 3.7q1.3 1.1 3 1.2.9 0 1.7-.3l-1.2-1.1 1.4 2.8.9 2 .8 1.5c.7.8 1.7 1 2.5 1.5l4 1.6 2.4 1.3c.4 0 0-.4 0-.4q-.3-.6-.8-.9"
      fill="var(--c, black)" />
    <path d="M57.8 52.6s8.6-1.2 8.9-5.9c.2-4.7-6.3-5-10-.1" fill="var(--b, white)" />
    <path
      d="M58.3 53.3a18 18 0 0 0 7.4-3c1.3-1.2 2-3 1.3-4.6a6 6 0 0 0-2-2.5 4 4 0 0 0-2.3-.9c-2.6 0-5 1.7-6.5 3.6-.1.2 1.1 1.3 1.2 1.3q2-2.7 5.3-3.5a4 4 0 0 1 3 .5l.2.1c-.2-.8-.2-.1-.2-.3l.1.3.2.5c.8 3.6-3 5.6-5.8 6.5l-2.9.6.5.8q.1.4.6.6m-5.5-7q.1.5.8.5c.7-.3.4-1-.2-1q-.5 0-.6.5"
      fill="var(--c, black)" />
    <path
      d="M55.8 45q.2.7.9.6c.6-.3.4-1.1-.3-1q-.4 0-.5.5m-6 8c.2 1.5 1.7 2.5 3.1 2.4q.3 0 .5-.2V55q-.3-.6-1-.6h-.2s-.2 0 0 0h-.2l-.2-.2-.2-.1v.2l-.1-.6v.1q-.4-.5-.9-.6H50z"
      fill="var(--c, black)" />
    <path
      d="M78.3 41s-6.7-7.4-4.5-8.8c2.4-1.5 5.7 2.4 5.7 2.4s.3-11.3 2.3-11.8 3.4 8.6 3.4 8.6.8-10 3-8.9 1.5 8.6 1.5 8.6 1.5-5.7 3.1-4.6S93 45 93 45a21 21 0 0 1-14-.2l-.7-4"
      fill="var(--b, white)" />
    <path
      d="m78.6 40.3-.4-.3-.3-.3-.5-.7q-1.2-1.4-2.4-3.2 0-.1 0 0l-.2-.2-.2-.4-.4-.9v-.2l-.2-.4v-.1s0-.3 0 0v-.3q0-.1 0 0v-.1l.6-.4a3 3 0 0 1 1.9.3q1 .5 2 1.3l.5.6c.4.4 1 .7 1 0q.2-4.4 1-8.8.2-1 .7-2V24h.1l.2-.3h.3q.2 0 0 0h.1l.2.3.1.2.4.6v.1l.1.3.2.7.4 1.4.2.8.2.6.2 1.4.3 1.2q0 .7.6 1l.5-.1v-.3a28 28 0 0 1 1.2-7l.8-1.5h.4q-.1 0 0 0h.1l.1.1q.2 0 0 0h.2q0 .2 0 0v.4l.2.3.1.5.2 1.2.2 1.3-.2 3.7q0 .7.5 1t.7 0l.5-1.8q.5-1.4 1.4-2.5l.3-.2h.2q-.2 0 0 0s.3.3 0 0q-.2-.2 0 0l-.1-.2c0 .2 0-.2 0 0v.4q0-.1 0 0v.2l.2 1.1-.2 12.4-.3 3.5.3-.4q-1.3.5-2.5.7a21 21 0 0 1-11.3-.9l.7.7v-.2q0 .2 0 0l-.2-.7-.4-2.8q0-.6-.6-1-.6 0-.5.6 0 2 .5 4c.4 1 1.2 1.1 2 1.3a22 22 0 0 0 13-.3q.3-.1.3-.4a190 190 0 0 0 .4-16.3q0-1.1-.3-2.1c-.4-.8-1-1.7-1.9-1.3s-1.5 1.6-1.9 2.6l-.8 2.3 1.2.8.1-3.5c0-1.7-.1-3.9-1.3-5.4q-.6-1-1.8-.8-.8.4-1 1.1-1 2.4-1.3 4.7l-.4 3.6 1.2.5a54 54 0 0 0-1.6-6.9q-.5-1.3-1.4-2.3-.8-.8-1.7-.1-.8.6-.8 1.6-.9 3.1-1.1 6.1l-.3 4.2h1q-1.1-1.5-2.8-2.5-1.2-.7-2.5-.7-1 0-1.5.8c-.7 1.1 0 2.7.6 3.7l2.5 3.7 2 2.2q.5.4.8 0 0-.6-.4-1.1"
      fill="var(--c, black)" />
    <path d="m80.6 35.2 1.9.3.8.3h.1q1.2 1.3 2 2.6l.8.7.5.2h.1Q85.6 37.5 84 36q-1-.8-2.2-1.3l-2.5-.6v.2l.5.3q.4.4.9.6"
      fill="var(--c, black)" />
    <path
      d="M57.8 98.8s3.5-5.5 1-6.3-6.4 4-6.4 4l-7.1-6.4s-7.7 4.7-7.4 10c0 0 7.5 9.5 13.2 10.3 5.5.8 4.3-2 4.3-2s5.4-.8 2.6-4.2c0 0 4.8-.5 2.6-5.6"
      fill="var(--b, white)" />
    <path
      d="M58.5 99.2q.7-1 1-2 1.1-1.7 1-3.6c-.2-1.4-1.7-2-3-1.8a8 8 0 0 0-3.7 2.1q-1.3 1-2.2 2.3l1.3-.1-6.2-5.7-.9-.8q-.6-.4-1.1 0a23 23 0 0 0-5 4.2 11 11 0 0 0-2.5 4.3l-.1 1.2v1l.5.5q2.5 3.1 5.6 5.9 2 1.6 4.1 3 2.3 1.3 4.8 1.5c1.3 0 3.3 0 4-1.2q.5-.8 0-1.7l-.4.8a7 7 0 0 0 2.7-1.1 3 3 0 0 0 1.2-1.7q0-1.3-.9-2.5l-.4 1c1.7-.1 3.5-1.5 3.7-3.3q0-1.7-.7-3c-.3-1-1.9-.7-1.6.2q.7 1.3.5 2.7-.1.9-.8 1.4l-.3.2q.1 0 0 0l-.3.2h-.3s-.4.2 0 .1l-.7.2q-.6 0-.6.6l.1.3q.4.4.6 1v.9l-.3.3-.3.2v.1h-.1l-.8.4-.4.1h-.2c.3 0 0 0 0 0l-.7.3q-.6 0-.5.5v.4q0-.2 0 0v.2q0 .1 0 0v.4h-.1v.1q0-.1 0 0l-.3.2q.1 0 0 0h-.4q-.6.3-1.2.2l-2.4-.3H50l-.3-.2q-2.6-1.2-5-3.2l-4.1-4.2-2-2.2.1.3c0-2 1.1-3.9 2.4-5.4q1.7-2 3.9-3.5l1-.7h-1.3l6.1 5.5 1 .9q.7.5 1.3 0l1.3-1.6q1.3-1.3 3-2.2l.6-.2h.3l.3.1q-.2 0 0 0v.1l.1.2v.2q0 1.5-.7 2.8l-1 2c-.6 1 1 1.7 1.4 1"
      fill="var(--c, black)" />
    <path d="m34.2 81 11 9s-5.7 5.4-7.3 10" fill="#002780" />
    <path
      d="m34.5 81.6 9.7 7.9 1.4 1.2-.8-1.4q-3.4 3.1-5.9 7l-1.5 3c0 .3.4.9.5 1s.4.5.5.4q1.2-3 3.3-5.5a45 45 0 0 1 4-4.5l-.2-.6-.6-.8-9.6-7.9-1.5-1.2c-.3-.1 0 .4 0 .5q.2.5.7.9"
      fill="#002780" />
    <path
      d="M78.2 14.7a23 23 0 0 0-5.4 4.8c-.3.6-2 .3-1.4-.5l1.3-1.6q2.9-2.8 6.4-4.8a31 31 0 0 1 7.8-3.4c1 0 1.4.6 0 1.1l-2.3 1a35 35 0 0 0-6.4 3.4m1.6 3.3q-2.1 1.3-3.8 3.3c-.2.3-1.5-.3-1-.9l.8-1q2-1.8 4.6-3.2c1.8-1 5-2.3 5.7-2.3s1 .9 0 1.2l-1.7.6a26 26 0 0 0-4.6 2.3"
      fill="var(--c, black)" />
  </g>
</svg>