<svg xmlns="http://www.w3.org/2000/svg" fill="none" viewBox="0 0 120 120">
  <g id="doc">
    <path fill="var(--a, blue)"
      d="M23.23 99.62s-6.9-57.33-2-58.79c4.9-1.44 18.03-.4 21.79-.4 3.76 0 5.35 4.14 5.35 4.14s34.41 1.1 36.9 1.78c2.5.68-7.75 53.3-7.75 53.3l-54.29-.03Z" />
    <path fill="var(--a, blue)"
      d="m23.77 99.77-.3-2.64c-.26-2.26-.52-4.56-.75-6.82-.33-3.23-.65-6.45-.95-9.68-.35-3.65-.65-7.3-.91-10.98-.25-3.63-.51-7.28-.65-10.8-.14-3.13-.23-6.26-.14-9.38.02-1.21.08-2.43.2-3.65l.16-1.47c.04-.12.04-.23.06-.3 0-.07 0-.13.03-.15l.03-.08c-.03.1.02-.15 0 0 .02-.2.08-.38.1-.58.1-.33.17-.65.32-.96l.09-.16c.02-.06.02-.06.06-.09-.09.11.02-.03 0 0 .05-.08.1-.2.19-.29a.23.23 0 0 0 .08-.1c.03-.07-.08.05.03-.04l.12-.05c.03 0 .03-.03.05-.03.08-.06-.08.03-.02 0 .81-.23 1.66-.37 2.51-.48 2.24-.23 4.5-.32 6.77-.28 2.37 0 4.75.08 7.13.16 1.73.06 3.45.17 5.21.17a4.57 4.57 0 0 1 3.71 1.75l.4.5c.02.02.1.13.02.02l.05.11.17.29c.15.22.26.47.4.73.08.14-.06-.14-.02-.03l.02.08.03.08c.09.35.37.58.71.6l5.38.17 11.96.46a573.73 573.73 0 0 1 17.02.87c.5.04 1.02.09 1.5.15.28.03.56.11.88.14.14 0-.15-.06-.03-.03-.2-.11-.14-.11-.08-.06l-.09-.08c-.11-.14-.11-.17-.06-.06-.14-.28-.05-.11-.03-.02-.02-.2.06.16 0 0 0 .05.03.1.03.19.03.14.03.32.06.46v.1c0-.24 0-.05 0 0v.97c0 .54-.06 1.08-.09 1.61-.22 3.12-.65 6.23-1.1 9.32-.56 4.07-1.25 8.11-1.92 12.14-.69 4.1-1.42 8.2-2.16 12.33l-.98 5.5c-.15.79-.29 1.61-.46 2.4-.09.45-.11.63-.2 1.02l-.2 1.02c-.31 1.73-.64 3.45-1 5.15l-.04.23.28-.23H25.27c-.7 0-1.41-.05-2.12 0h-.08c-.34 0-.31.5-.25.7.08.35.36.58.7.6h52.05c.7 0 1.41.03 2.12 0h.08c.15-.02.25-.11.29-.22.22-1.22.48-2.47.7-3.68.6-3.11 1.16-6.2 1.73-9.31.73-4.05 1.48-8.1 2.15-12.17.71-4.17 1.42-8.33 2.04-12.48.5-3.4.99-6.8 1.34-10.25.1-1.14.19-2.3.21-3.42 0-.72.04-1.5-.22-2.18a1.25 1.25 0 0 0-.8-.85c-.28-.06-.56-.12-.84-.12a49.25 49.25 0 0 0-3.54-.28c-3.93-.25-7.86-.42-11.8-.59-4.27-.2-8.55-.37-12.82-.51l-7.67-.25h-.37l.7.58a8.36 8.36 0 0 0-2.43-3.39 5.72 5.72 0 0 0-3.1-1.33c-.77-.05-1.57-.03-2.33-.05-4.56-.17-9.11-.43-13.7-.29-1.98.06-4.02.14-5.97.65-.33.06-.65.2-.9.42-.17.2-.34.43-.42.68-.3.71-.5 1.45-.6 2.19-.17 1.04-.29 2.09-.34 3.14-.17 2.88-.15 5.8-.06 8.68.11 3.63.31 7.25.54 10.88a615.67 615.67 0 0 0 2.72 29.4c.14 1.27.28 2.58.44 3.85 0 .05 0 .11.04.16a.9.9 0 0 0 .61.77c.29.06.43-.28.4-.53Z" />
    <path fill="var(--b, white)"
      d="M35.04 52.4s70.5-1.37 72.5 1.07c2.02 2.43-9.96 44.71-12.76 46.16-2.8 1.44-71.55 0-71.55 0s8.47-47.18 11.81-47.25Z" />
    <path fill="var(--c, black)"
      d="m35.2 53.07 3.12-.06c2.72-.05 5.46-.09 8.18-.11 3.85-.06 7.7-.08 11.55-.12l13.25-.08c4.43 0 8.88 0 13.3.06 3.87.02 7.75.1 11.6.22 1.56.06 3.1.12 4.67.2.65.03 1.3.09 1.95.11l.85.06.42.03.2.03h-.02.1c.8.06 1.59.16 2.35.33l.37.08.14.07c-.14-.08.06.03 0 0l.09.05c.05 0-.17-.14-.05-.02-.17-.17-.12-.15-.09-.09l-.06-.11c-.03-.17.09.16 0 0 0 .05.06.25.03.11s0 .11.03.17c.03.17.03.37.03.54v.17c0 .11 0 .25-.03.36-.03.25-.03.55-.06.8-.14 1.45-.42 2.89-.68 4.33a189.4 189.4 0 0 1-2.8 11.94 304.42 304.42 0 0 1-3.79 13.17c-1.08 3.47-2.2 6.98-3.63 10.35a17.27 17.27 0 0 1-1.07 2.3l-.17.28a.22.22 0 0 0-.06.11l-.02.03c-.08.14-.17.25-.28.37-.04.05-.09.08-.12.14-.03.05-.03.03-.06.05-.05.06.12-.05.03-.02l-.16.08c-.15.06.13-.03 0 0-.07 0-.12.03-.15.03-1.75.34-3.62.31-5.38.37-3.3.1-6.59.14-9.9.14-4.19.03-8.4 0-12.6-.03-4.52-.03-9.02-.09-13.56-.14l-12.79-.17-10.21-.17-5.86-.11h-.8l.74.96.85-4.66c.7-3.75 1.44-7.48 2.18-11.22a546.87 546.87 0 0 1 2.89-13.53c.9-3.93 1.83-7.86 3-11.75.4-1.33.85-2.65 1.35-3.93a10.04 10.04 0 0 1 .69-1.36c.05-.08.08-.14.14-.19l.14-.14.05-.06c.08-.06-.1.08-.02.03.05.03.11 0 .14 0 .02-.03-.14 0 0 0 .67-.03.22-1.36-.37-1.34-.68.04-1.1.94-1.39 1.45a24.84 24.84 0 0 0-1.33 3.4 132.08 132.08 0 0 0-3.03 11.38 471.8 471.8 0 0 0-2.97 13.66 798.67 798.67 0 0 0-2.32 11.86c-.37 1.92-.8 3.85-1.08 5.8v.09c-.08.42.29.96.71.96l3.23.06c2.83.05 5.66.11 8.46.14 3.96.05 7.92.14 11.92.2l13.53.16c4.44.07 8.91.07 13.35.1 3.8 0 7.59 0 11.35-.07 2.55-.02 5.1-.08 7.62-.25.62-.03 1.21-.11 1.81-.23.62-.14.9-.58 1.22-1.12a22.65 22.65 0 0 0 1.41-3.04c.62-1.56 1.19-3.14 1.75-4.72a301.65 301.65 0 0 0 7.34-25.7c.73-3.17 1.5-6.4 1.8-9.68.09-.85.2-1.9-.16-2.71-.25-.6-.77-.83-1.36-.97a16 16 0 0 0-2.3-.33c-1.2-.12-2.43-.24-3.68-.29-3.36-.2-6.73-.28-10.13-.34a1087.2 1087.2 0 0 0-26.32-.12c-4.25.04-8.49.06-12.73.12-3.37.03-6.77.08-10.13.14l-5.84.09-.76.02c-.65-.05-.23 1.28.4 1.28Z" />
    <path fill="var(--b, white)"
      d="M78.74 92.35a6.93 6.93 0 0 0 4.13-2.04c.34-.4 1.22-1.39.28-1.61a3.08 3.08 0 0 0-2.23.45 1.84 1.84 0 0 0-.77 1.58c.08.69.48 1.3 1.1 1.67a4.02 4.02 0 0 0 4.62-.37 11.52 11.52 0 0 0 2.75-3.73c.33-.7.59-1.47.79-2.23.14-.6.33-1.34.11-1.93-.28-.73-1.13-.59-1.75-.42-.71.16-1.08.62-1.28 1.3-.25.9-.39 1.84-.45 2.77-.08.85-.02 1.7.14 2.55.49 1.7 2.78 1.64 4.14 1.3 1.35-.33 2.65-1.22 3.02-2.67.03-.1-.67 0-.7 0-.15.04-.62.09-.68.26-.25.91-.89 1.67-1.75 2.1-.69.34-1.71 0-2.28-.56-.41-.46-.45-1.11-.5-1.67a12.58 12.58 0 0 1 .36-4.05c.06-.28.14-.54.28-.8.06-.1.15-.2.24-.3l.1-.1c-.44.66-.95-.02-.56.2.4.23.4.77.37 1.14a11.9 11.9 0 0 1-3 6.37l-.59.61c-.2.2-.51.35-.77.55-.14.11.16-.06.23-.03-.08-.03-.2-.03-.28-.03a3.53 3.53 0 0 1-1.25-.51 2.28 2.28 0 0 1-.96-1.22 1.63 1.63 0 0 1 .33-1.58c.09-.12.2-.2.32-.28.22-.17.1.3-.43.02.06.03.15.03.2.06.42.22.05.7-.14.97-.65.87-1.7 1.8-2.83 1.97-.14.03-.8.08-.85.25-.06.18.45.03.54 0Z" />
    <path fill="var(--c, black)"
      d="M23.03 65.52c-5.45-3.7-10.18-9.34-10.16-16.27a12.37 12.37 0 0 1 3.6-8.83c2.32-2.3 5.44-3.65 8.58-4.45 3.87-.93 7.9-1.08 11.86-1.58 3.14-.4 6.33-1.02 9.05-2.77a8.95 8.95 0 0 0 2.91-2.95c.74-1.25 1.22-2.91.55-4.3a2.35 2.35 0 0 0-3.8-.54c-1.27 1.25-.85 3.14.15 4.44a6.48 6.48 0 0 0 4.38 2.33c.82.08 1.64 0 2.46-.2a8.7 8.7 0 0 0 2.44-1.22c.7-.5 1.44-.93 2.2-1.33a9.9 9.9 0 0 1 9.22.54c.26.2.63.17.86-.08l.03-.04a.72.72 0 0 0-.29-.9 11.2 11.2 0 0 0-9.48-1.13c-.79.25-1.52.62-2.23 1.08-.77.47-1.48 1.04-2.3 1.44a5.4 5.4 0 0 1-4.39.25c-1.24-.48-2.76-1.64-2.6-3.17.09-.59.49-1.1 1.05-1.33.48-.2.94-.09 1.13.34.54 1.13-.23 2.6-.84 3.54a8.77 8.77 0 0 1-3 2.58c-2.78 1.52-5.95 1.97-9.06 2.29-3.83.41-7.7.62-11.43 1.64-3.09.82-6.12 2.23-8.41 4.5a13.56 13.56 0 0 0-3.91 8.8c-.45 6.87 3.68 12.9 8.9 16.98.6.49 1.27.96 1.9 1.42.27.2.63.17.87-.08l.02-.04a.82.82 0 0 0-.25-.96Zm55.93-38.85a4.77 4.77 0 0 0-3.4.7 6.17 6.17 0 0 0-1.64 1.78 5.17 5.17 0 0 0-.79 1.87c-.11.54.14 1.1.62 1.33.46.25 1.02.37 1.42 0 .79-.73 1.13-2 1.3-3.03a6.25 6.25 0 0 0 .05-1.92 3.52 3.52 0 0 0-.85-1.76 4.82 4.82 0 0 0-2.12-1.47c-.62-.2-1.38-.25-1.92.14-.62.46-.82 1.27-.85 1.98a4.5 4.5 0 0 0 .5 2.27c.3.5 1 1.18 1.65 1.01.45-.1.29-.7.06-.95-.48-.55-1.39-.77-1.98-.35-.6.42-1.22 1.39-1.11 2.18.12.8.93 1.36 1.67 1.64.8.28 1.65.25 2.41-.08.25-.11-.2-.49-.31-.54-.25-.14-.6-.28-.88-.16-.4.19-.82.25-1.25.13-.05-.02-.08-.08-.14-.1-.1-.17-.17-.37-.2-.57-.03-.57.4-1.22.8-1.59.14-.11.3-.2.45-.28.06-.06-.03.02-.03 0h.03a.87.87 0 0 1-.5-.26l.02.03-.03.23.03-.03c.14-.03.25-.03.36.05.12.03.43.12.46.17-.03-.05-.12-.1-.14-.19a3.45 3.45 0 0 1-.48-1.56c-.09-.85.14-2.5 1.27-2.52.14 0 .31.03.42.11.2.12.37.25.51.4.37.34.65.76.82 1.25a5.33 5.33 0 0 1-.08 2.83 5.1 5.1 0 0 1-1 2.17c-.08.09-.16.14-.24.2-.04.03-.04 0-.04.03h.04c.1 0 .22.03.33.11.12.03.2.09.32.17 0-.05-.06-.28-.06-.39.03-.23.06-.43.14-.65a5.86 5.86 0 0 1 2.32-3.08 3.75 3.75 0 0 1 1.75-.57h.63c.14 0-.08-.03.06 0h.05c.2.02.54 0 .4-.28-.14-.29-.54-.4-.85-.46Z" />
  </g>
</svg>