<svg xmlns="http://www.w3.org/2000/svg" fill="none" viewBox="0 0 120 120">
  <g id="doc">
    <path fill="var(--b, white)"
      d="M82.54 102.74s9.36-10.05 5.25-23.06c-4.1-13 2.52-16.22 2.74-22.4.21-6.16-6.17-13.7-15.31 1.16l-8.14 8.04s-30.1-44.5-39.94-44.04c-9.84.46-4.8 12.12.24 22.42 0 0-12.57 4.34-5.04 16 0 0-6.4 5.04.7 19.66 7.1 14.62 25.73 29.16 25.73 29.16" />
    <path fill="var(--c, black)"
      d="M82.97 103.1a21.89 21.89 0 0 0 2.71-3.74 26.2 26.2 0 0 0 3.5-9.67c.32-2.16.32-4.32 0-6.48-.36-2.43-1.27-4.73-1.72-7.13a18.5 18.5 0 0 1 .7-10.15c.86-2.3 2.2-4.44 2.73-6.87.5-2.23.19-4.56-.89-6.57-.98-1.85-2.76-3.27-4.94-3.24-3.22.05-5.84 2.71-7.7 5.01a30.6 30.6 0 0 0-2.26 3.15c-.17.31-.39.6-.63.86l-2.18 2.19-5.3 5.3-.37.36.94.12a674.8 674.8 0 0 0-4.97-7.13 358.55 358.55 0 0 0-11.66-15.5 223.56 223.56 0 0 0-6.8-8.19 115.48 115.48 0 0 0-6.64-7.05 37.08 37.08 0 0 0-5.93-4.85c-.8-.53-1.66-.96-2.57-1.27a6.08 6.08 0 0 0-2.78-.27c-1.66.2-3.31.82-4.32 2.21-.94 1.3-1.1 2.98-.99 4.54.15 2.06.72 4.1 1.4 6.05a68.9 68.9 0 0 0 2.85 6.81c.53 1.13 1.06 2.26 1.61 3.39l.38-.63a13.65 13.65 0 0 0-4.1 2.33c-2.33 1.85-3.86 4.51-3.74 7.54.1 2.5 1.17 4.82 2.5 6.88l.04-.62c-1.22.96-1.97 2.71-2.35 4.15-1.27 4.66.17 9.75 2.01 14.04 2.33 5.43 5.76 10.3 9.58 14.76 3.43 4.01 7.1 7.78 11.02 11.3 1.96 1.8 3.98 3.6 6.1 5.24l.09.07c.24.22.6.22.84.02.19-.19.21-.48.02-.67a101.08 101.08 0 0 1-4.97-4.18c-3.7-3.26-7.2-6.74-10.48-10.41-3.75-4.2-7.28-8.71-9.82-13.73a35 35 0 0 1-3.24-8.8 17.2 17.2 0 0 1-.24-6.15c.17-1.25.6-2.45 1.22-3.53.2-.33.44-.65.68-.96-.12.15.02-.02.07-.07l.19-.12.17-.17c.02-.02.05-.05.07-.05a.5.5 0 0 0 .07-.62c-1.9-2.95-3.21-6.72-1.51-10.06a11.02 11.02 0 0 1 4.9-4.58c.33-.17.67-.34 1.03-.48l.31-.12c.1-.05.2-.07-.02 0 .24-.1.52-.34.38-.62-2.09-4.25-4.25-8.62-5.35-13.23-.67-2.8-1.06-6.74 2.18-8.06a6.73 6.73 0 0 1 2.93-.43c.14.02-.1-.03.12.02.1.02.2.02.26.05l.53.14c.07.03.17.05.24.1.07.05-.12-.05.05.02l.17.07a17.3 17.3 0 0 1 3.74 2.33c1.01.8 1.97 1.63 2.9 2.5a97.4 97.4 0 0 1 6.39 6.6c2.3 2.59 4.51 5.23 6.7 7.94 2.18 2.71 4.27 5.4 6.33 8.16a463.31 463.31 0 0 1 9.38 12.98c.63.92 1.25 1.85 1.9 2.74l.07.12c.22.29.63.36.94.15l4.06-4.06 2.83-2.8c.4-.42.86-.82 1.25-1.26.43-.48.72-1.1 1.08-1.65a25.23 25.23 0 0 1 3.24-4.03 10.6 10.6 0 0 1 3.64-2.52c.9-.36 1.9-.39 2.81-.1a4.55 4.55 0 0 1 1.97 1.51 8.22 8.22 0 0 1 1.54 5.69c-.22 2.33-1.44 4.42-2.36 6.53a19.2 19.2 0 0 0-1.68 8.97c.2 2.24.63 4.47 1.32 6.6.7 2.19 1.04 4.47 1.01 6.75a24.12 24.12 0 0 1-2.61 10.49 29.29 29.29 0 0 1-1.97 3.36c-.27.38-.55.76-.84 1.12l-.31.39-.12.17-.05.07c-.1.12.05-.07 0 0s-.12.14-.2.21c-.45.53.49 1.23.92.72Z" />
    <path fill="var(--c, black)"
      d="M36.29 21.07H72.5a3.37 3.37 0 0 1 3.36 3.36v76.18a3.37 3.37 0 0 1-3.36 3.36H36.3a3.37 3.37 0 0 1-3.36-3.36V24.43a3.37 3.37 0 0 1 3.36-3.36Z" />
    <path fill="var(--c, black)"
      d="M72.43 103.42H36.5c-.7 0-1.36-.1-1.96-.5a2.63 2.63 0 0 1-1.1-2.2v-76.1a3.06 3.06 0 0 1 2.97-3h34.53c1.18 0 2.52-.16 3.5.63.9.72.94 1.7.94 2.73v75.44a3.04 3.04 0 0 1-2.95 3c-.7.02-.36 1.12.2 1.1a3.75 3.75 0 0 0 3.74-3.67V24.67c0-1.32-.6-2.54-1.63-3.36-1.18-.91-2.52-.79-3.87-.79H35.98a3.77 3.77 0 0 0-3.53 3.72v76.13c0 1.37.65 2.64 1.77 3.43.72.48 1.56.72 2.43.7h35.97c.68.02.34-1.08-.19-1.08Z" />
    <path fill="var(--b, white)" d="M72.36 30.17H35.9v59.97h36.46V30.17Z" />
    <path fill="var(--c, black)"
      d="M71.83 89.88H39.86c-1.46 0-2.95-.05-4.41 0h-.07l1.05.5v-59.9c0-.02.03-.1-.02-.05.02-.02.1 0 .12 0h36.33l-1.05-.5v57.53c0 .76-.03 1.56 0 2.32v.1c0 .12.43.26.53.31.19.07.38.15.57.2V32.85c0-.77.03-1.56 0-2.33v-.1c0-.1-.38-.24-.45-.29a2.1 2.1 0 0 0-.63-.24h-35.9a1.6 1.6 0 0 0-.48 0h-.1v57.56c0 .76-.02 1.56 0 2.32v.1c0 .1.39.24.46.26.19.12.4.2.62.24h35.93c.17.03.31.03.48 0h.07c.07 0-.31-.24-.36-.24a2.6 2.6 0 0 0-.72-.26ZM54.1 99.72a2.76 2.76 0 1 0 0-5.52 2.76 2.76 0 0 0 0 5.52Z" />
    <path fill="var(--b, white)"
      d="M56.38 96.77A2.48 2.48 0 0 1 54.82 99c-.9.36-1.92.14-2.6-.58-.52-.62-.57-1.68-.1-2.47a2.5 2.5 0 0 1 2.48-1.2c1 .12 1.78.99 1.78 2.02a.8.8 0 0 0 .48.7c.14.07.33.02.4-.13.03-.04.05-.12.03-.19a3.6 3.6 0 0 0-2.19-3.24 3.11 3.11 0 0 0-3.55.84c-.91 1.06-.89 2.62-.21 3.77a3.35 3.35 0 0 0 3.38 1.68 3.12 3.12 0 0 0 2.57-3.07.8.8 0 0 0-.48-.7c-.15-.07-.34-.02-.41.12-.02.07-.02.15-.02.22Zm1.32-70.01a.86.86 0 1 0 0-1.73.86.86 0 0 0 0 1.73Zm-9.92-.43 4.44.07h.65c.31.02.6-.14.75-.43.1-.2 0-.43-.2-.5-.04-.03-.1-.03-.12-.03l-4.44-.07h-.64a.76.76 0 0 0-.75.43c-.1.2-.02.43.17.5.05.03.1.03.14.03Zm-21.72 29.9s12.48 2.71 13.23-3.31c.93-7.46-9.31-10.22-14.74-6.46" />
    <path fill="var(--c, black)"
      d="M26.28 56.5c1.4.28 2.78.48 4.2.55 2.3.14 4.92.17 7.03-.87a4.04 4.04 0 0 0 2.09-2.13c.46-1.2.36-2.69-.02-3.91-.9-2.74-3.58-4.42-6.24-5.16-2.76-.77-5.9-.68-8.48.7-.3.16-.6.33-.88.52-.17.12.24.34.3.36.18.07.56.26.75.14a10.4 10.4 0 0 1 9.77-.81l.38.19c.27.14.53.31.77.48a6.2 6.2 0 0 1 2.62 6.65 3.8 3.8 0 0 1-1.73 2.25c-1.9 1.13-4.37 1.18-6.5 1.08-1.52-.07-3-.26-4.47-.57l-.07-.03c-.14-.02-.43-.04-.29.17.15.22.58.34.77.39Z" />
    <path fill="var(--b, white)" d="M25.3 68.88s9.02 4.51 13.82-.74c4.8-5.26-7.87-12.3-16.8-7.28" />
    <path fill="var(--c, black)"
      d="M25 69.26c1.52.75 3.15 1.28 4.8 1.56 2.98.58 6.3.44 8.77-1.48a5.17 5.17 0 0 0 2.16-3.15 4.13 4.13 0 0 0-.75-2.93 8.53 8.53 0 0 0-2.7-2.44 14.66 14.66 0 0 0-4.18-1.68 15.6 15.6 0 0 0-9.92.74c-.4.17-.79.36-1.15.58-.67.38.05 1.1.6.79 2.76-1.49 5.93-2 9-1.47 1.4.22 2.74.65 4.01 1.28a9.08 9.08 0 0 1 2.8 2.04c.32.36.6.74.82 1.17.2.39.32.82.34 1.25.02.43-.05.89-.24 1.27-.22.48-.53.94-.94 1.3A7.17 7.17 0 0 1 34.75 70c-1.3.24-2.64.26-3.93.05-.63-.1-1.25-.22-1.85-.39a22.9 22.9 0 0 1-3.26-1.18l-.1-.04a.7.7 0 0 0-.82.17c-.19.26-.02.52.22.64Z" />
    <path fill="var(--c, black)"
      d="M30.48 59.35c-.38.6-.65 1.27-.72 1.97a4.92 4.92 0 0 0 1.34 3.96c.84.84 2 1.2 3.15 1.32 1.17.1 2.35-.07 3.43-.53.82-.36 1.8-.98 1.85-1.97.02-.26-1.18-.26-1.2.05-.05.72-.67 1.25-1.27 1.56-.36.2-.77.34-1.18.41-.4.1-.82.12-1.22.1a3.71 3.71 0 0 1-2.45-1.08 4.7 4.7 0 0 1-.6-5.72c.12-.16-.36-.21-.43-.24-.15 0-.56-.02-.7.17Zm-.88-14.06a5.85 5.85 0 0 0-.54 4.56 5.08 5.08 0 0 0 3.1 2.9c1.46.58 3.12.7 4.54-.07a4.03 4.03 0 0 0 2.13-3.36c0-.74-1.15-.62-1.17.07a2.77 2.77 0 0 1-1.25 2.26c-1.01.65-2.33.62-3.48.19s-2.26-1.15-2.71-2.28a3.57 3.57 0 0 1-.24-1.32c0-.22.02-.4.04-.62.03-.17.05-.36.1-.53.07-.36.2-.7.34-1.03.02-.08.19-.41.07-.2.02-.04.05-.07.05-.12.36-.67-.65-1.08-.99-.45Z" />
    <path fill="#002780"
      d="M39.2 36.36h1.7c.1 0 .14-.12.14-.2a.76.76 0 0 0-.1-.38.78.78 0 0 0-.62-.45h-1.68c-.1 0-.14.12-.14.19 0 .12.02.26.1.38.09.24.33.41.6.46Zm-.7 1.84h1.7c.12-.02.24-.04.36-.09.14-.05.29-.12.4-.21.08-.05.37-.27.13-.27h-1.73c-.12.03-.24.05-.36.1-.14.05-.29.12-.4.21-.08.05-.37.27-.1.27ZM54 71.78a11.26 11.26 0 1 0 0-22.5 11.26 11.26 0 0 0 0 22.5Z" />
    <path fill="#002780"
      d="M54 71.9a11.37 11.37 0 1 1-.01-22.73A11.37 11.37 0 0 1 54 71.9Zm0-22.5a11.14 11.14 0 1 0 .02 22.28A11.14 11.14 0 0 0 54 49.39Z" />
    <path fill="var(--b, white)"
      d="M48.77 61.13c.98 1.37 2.01 2.71 2.9 4.15.22.34.8.43 1.15.43.36 0 .94-.05 1.18-.38a98.33 98.33 0 0 1 6.53-8.57c.12-.14 0-.34-.12-.43a1.54 1.54 0 0 0-.72-.27c-.5-.07-1.13-.04-1.49.36A98.33 98.33 0 0 0 51.67 65l2.3.03c-.88-1.44-1.91-2.79-2.9-4.16-.31-.4-1-.48-1.46-.4-.22.04-1.15.26-.84.67ZM99.6 11.14c-1.46-1.35-40.87-.63-40.87-.63s-.55 30.96.84 31.85c.84.53.81.22 6.7.14-.03 3.32.57 7.4 1.17 7.52.6.12 5.09-6.27 5.52-7.64 4.15-.12 26.5.08 26.57-.28.26-1.44 1.53-29.62.07-30.96Z" />
    <path fill="var(--c, black)"
      d="M100.08 11.04c-.48-.43-1.3-.48-1.9-.58-1.08-.14-2.18-.19-3.26-.24-3.26-.16-6.55-.19-9.82-.24-3.9-.04-7.8-.02-11.7 0-3.34.03-6.66.05-10 .1-1.6.02-3.2 0-4.82.07h-.07c-.19 0-.36.07-.36.27-.02 1.44-.05 2.88-.05 4.34-.02 3.26-.04 6.5-.04 9.77 0 3.53.02 7.08.14 10.6.05 1.37.1 2.74.22 4.09.02.86.14 1.7.33 2.54.05.24.17.48.34.67.29.24.62.41.98.48.46.1.94.12 1.4.07.93-.02 1.84-.07 2.75-.1.75-.02 1.52-.04 2.26-.04l-.8-.43c-.02 1.9.15 3.79.49 5.66.07.58.24 1.15.5 1.68.24.43.84.75 1.32.5.27-.16.48-.35.67-.6.34-.38.68-.76.99-1.17.79-1 1.56-2.09 2.28-3.14a23.29 23.29 0 0 0 1.63-2.79l-.36.17c1.68-.05 3.34-.05 5.02-.05h7.75c2.59 0 5.18 0 7.8-.02 1.73-.03 3.48 0 5.2-.12.25-.03.46-.03.7-.05.15 0 .29-.05.41-.14.05-.12.1-.24.07-.36.03-.2.03-.39.05-.58a346.48 346.48 0 0 0 .53-11.71c.07-2.6.14-5.16.14-7.75a91.64 91.64 0 0 0-.26-8.98 5.86 5.86 0 0 0-.27-1.44.93.93 0 0 0-.26-.48.99.99 0 0 0-.82-.24c-.24.05-.3.26-.12.43.08.07-.04-.1-.02-.02.02.02.02.05.05.07.02.05.05.14 0 .02l.05.12c.07.2.12.41.14.63.1.65.17 1.3.22 1.97.14 2.01.14 4.05.14 6.1a391.98 391.98 0 0 1-.34 14.75c-.07 1.78-.14 3.58-.26 5.35-.02.48-.05.96-.1 1.42l-.02.2c0 .09-.05.06.02.02.08-.05.2-.08.1-.05l-.07.02c-.12.03-.03 0 0 0-1.44.07-2.86.12-4.3.15-2.47.02-4.94.04-7.39.04h-7.9c-1.94 0-3.88 0-5.85.03-.27 0-.55 0-.82.02-.14 0-.31.03-.36.2-.26.76-.77 1.46-1.2 2.13a66.66 66.66 0 0 1-2.09 3 17 17 0 0 1-1.92 2.3l-.04.05c-.03 0-.03.03-.05.03.05-.03.12-.03.17-.03.19.03.38.07.55.17a4.84 4.84 0 0 1-.43-1.42 26.58 26.58 0 0 1-.5-5.85c0-.29-.6-.43-.8-.43-1.3.02-2.62.04-3.94.1-.6.02-1.17.04-1.77.04-.15 0 .05 0 0 0h-.17l-.1-.02c-.14-.03.15.02.05 0-.02 0-.05-.03-.1-.03-.09-.02.17.1.05.03l-.07-.03c-.14-.05.05.03.03.03-.03 0-.15-.1-.17-.1-.03 0 .12.1.07.05l.02.05c-.02-.03-.02-.08-.04-.1-.05-.07.02.1 0 0l-.03-.07c-.19-.75-.31-1.51-.36-2.26-.12-1.3-.17-2.59-.24-3.86-.14-3.43-.17-6.87-.17-10.3a679 679 0 0 1 .03-9.89c0-1.15.02-2.3.05-3.45.04-.55.04-1.1.02-1.66v-.07l-.36.26c1.3-.02 2.62-.04 3.91-.04 3.12-.05 6.27-.08 9.39-.1 3.86-.02 7.7-.02 11.56-.02 3.41.02 6.82.04 10.23.19.65.02 1.32.05 1.97.1h.31l.45.02.77.05c.41.04.82.07 1.2.14a.7.7 0 0 1 .22.05l.12.02c.14.03-.17-.05-.03 0l.17.05c.07.02.29.1.03 0 .02 0 .07.02.1.05.04.02-.18-.1-.08-.05.1.05-.12-.1-.07-.05a1 1 0 0 0 .81.24c.2-.19.3-.38.1-.55Z" />
    <path fill="var(--c, black)"
      d="M77.04 20.26c.24-1.44 1.08-3.05 2.54-3.53 1.66-.58 2.98.72 3.46 2.2.14.46 1.3.65 1.1.03-.64-2.02-2.66-3.6-4.87-3.12-1.94.43-3.07 2.35-3.38 4.2-.07.46 1.05.82 1.15.22Z" />
    <path fill="#002780"
      d="M75.7 31s-2.16-10.82-1.95-10.96c.22-.14 11.19-2.14 11.93-1.87.74.26 1.92 10.92 1.6 11.52-.3.6-11.49 1.77-11.58 1.32Z" />
    <path fill="#002780"
      d="M76.3 31.22c-.15 0-.3 0-.44-.02-.07-.02-.24-.05-.28-.17-2.16-10.9-1.97-11.04-1.9-11.09.17-.12 3.86-.79 5.8-1.1 2.6-.43 5.8-.91 6.25-.77.12.05.21.17.31.43.74 1.95 1.68 10.64 1.37 11.24-.36.62-8.9 1.48-11.11 1.48Zm-.48-.28c.81.36 10.94-.84 11.37-1.35.12-.21-.02-2.64-.4-5.76-.46-3.67-.92-5.47-1.13-5.57-.63-.21-10.88 1.54-11.79 1.85-.02.67 1.13 6.77 1.95 10.83Z" />
    <path fill="var(--b, white)"
      d="m79.15 29.52.8-4.27s-2.12-1.49-1.06-3.24c1.05-1.75 3.05-1.18 4 0 .97 1.17-.57 3.19-.57 3.19l1.75 3.72-4.92.6Z" />
    <path fill="var(--c, black)"
      d="m78.98 29.66.82-4.34c-.36-.29-2.02-1.7-1.03-3.36.36-.65 1-1.1 1.75-1.15.96-.03 1.87.4 2.47 1.15.94 1.13-.26 2.93-.53 3.29l1.8 3.81-5.28.6Zm1.73-8.64h-.14A2 2 0 0 0 79 22.06c-.99 1.63.98 3.07 1 3.1l.08.04-.8 4.18 4.64-.56-1.73-3.62.05-.05c.02-.02 1.46-1.97.57-3.05a2.78 2.78 0 0 0-2.1-1.08ZM69.86 33.29h18.8a2.37 2.37 0 0 1 2.37 2.37v1.01a2.37 2.37 0 0 1-2.37 2.38h-18.8a2.37 2.37 0 0 1-2.37-2.38v-1a2.37 2.37 0 0 1 2.37-2.38Z" />
    <path fill="var(--c, black)"
      d="M88.66 39.14h-18.8a2.5 2.5 0 0 1-2.5-2.5v-1a2.5 2.5 0 0 1 2.5-2.5h18.8a2.5 2.5 0 0 1 2.5 2.5v1a2.5 2.5 0 0 1-2.5 2.5Zm-18.8-5.76a2.26 2.26 0 0 0-2.25 2.26v1c0 1.26 1 2.26 2.25 2.26h18.8c1.24 0 2.25-1 2.25-2.25v-1.01c0-1.25-1-2.26-2.25-2.26h-18.8Z" />
    <path fill="var(--b, white)"
      d="M71.78 37.08a.86.86 0 1 0 0-1.73.86.86 0 0 0 0 1.73Zm3.77.02a.86.86 0 1 0 0-1.72.86.86 0 0 0 0 1.72Zm3.75-.02a.86.86 0 1 0 0-1.73.86.86 0 0 0 0 1.73Zm3.74 0a.86.86 0 1 0 0-1.73.86.86 0 0 0 0 1.73Zm3.74 0a.86.86 0 1 0 0-1.73.86.86 0 0 0 0 1.73Z" />
    <path fill="var(--c, black)"
      d="M82.68 36.1a.29.29 0 1 0 0-.58.29.29 0 0 0 0 .58Zm-3.17-.08a.29.29 0 1 0 0-.57.29.29 0 0 0 0 .57Z" />
    <path fill="#002780"
      d="M69.86 20.57c.05.02.12.05.2.05-.2-.08.02 0 .07.02l.36.14-.1-.04.05.02.1.05.16.07.17.1-.07-.05.05.02.1.05c.11.07.26.14.43.2.1.04.19.04.28.02.2-.1-.19-.39-.26-.41a7.88 7.88 0 0 0-1.9-.84.4.4 0 0 0-.28-.03c-.08.05-.05.12-.03.17.15.24.41.39.67.46Zm0-3.03 2.33 2.33c.24.2.58.17.82-.05.21-.16.29-.48.12-.7l-.03-.02-2.32-2.32c-.24-.2-.58-.17-.82.04-.2.2-.31.5-.1.72Z" />
    <path fill="var(--c, black)"
      d="m93.6 13.22 1.97 2.5.26.36c.15.2.48.12.67.02a.92.92 0 0 0 .34-.26c.05-.05.12-.2.07-.26l-1.97-2.5-.26-.36c-.14-.2-.48-.12-.67 0-.15.05-.24.14-.34.24-.05.05-.14.2-.07.26Z" />
    <path fill="var(--c, black)"
      d="M96.31 12.48c-.1.12-.19.22-.29.31l-.57.63c-.43.43-.84.88-1.27 1.32l-.3.28c-.06.1-.09.24-.06.36a1 1 0 0 0 .19.44c.17.19.43.33.62.12.7-.72 1.4-1.44 2.09-2.19l.36-.38c.17-.22.05-.58-.12-.77-.17-.2-.46-.36-.65-.12Z" />
  </g>
</svg>