<svg xmlns="http://www.w3.org/2000/svg" fill="none" viewBox="0 0 120 120">
  <g id="doc">
    <path fill="var(--c, black)" d="M54.55 24.62s-.5-1.68.53-2.52c0 0 .38 1.92 1.2 2.19l-1.73.33z" />
    <path fill="var(--c, black)"
      d="M55.06 24.29c-.03-.1-.03-.03 0 0-.03-.07-.03-.15-.05-.22-.05-.21-.05-.43-.05-.65 0-.12 0-.26.02-.38 0-.07.03-.14.03-.2l.02-.09.03-.05.07-.19.05-.1.02-.04c-.02.05-.02.05-.02.02s.05-.05.05-.1l.04-.04.05-.05-.02.02.05-.04-.77.19c.07.36.17.72.3 1.05.18.46.47 1.06.97 1.23l.72-.75-1.7.34a1.2 1.2 0 0 0-.7.48c-.05.05-.1.17-.05.24.05.07.17.05.24.02l1.7-.33c.25-.07.46-.2.63-.39.05-.07.26-.3.1-.36l-.15-.07-.02-.02c.02.02.02.02 0 0s-.05-.05-.07-.05a.96.96 0 0 1-.24-.29 3.37 3.37 0 0 1-.36-.72 3.64 3.64 0 0 1-.22-.67l-.02-.07c0-.05.02.05 0-.03 0-.02-.03-.04-.03-.07l-.02-.1c-.07-.3-.65.1-.77.2a2.41 2.41 0 0 0-.91 1.9c0 .35.05.69.14 1.05 0 .22 1.03-.31.94-.67z" />
    <path fill="var(--b, white)" d="m63.2 70.44-13.45 7.34 2.98 8.04 15.62-8.54-5.16-6.84z" />
    <path fill="#002780"
      d="m62.98 70.3-4.56 2.5-7.25 3.95-1.66.91c-.1.05-.38.22-.33.36l2.61 7.06.36.98c.1.24.7-.02.8-.07l5.27-2.88 8.43-4.6 1.92-1.06c.05-.03.43-.24.34-.36l-4.54-6-.63-.84c-.21-.29-1.24.24-1.12.43l4.53 6 .63.84.33-.36-5.28 2.88-8.42 4.6-1.95 1.06.8-.07-2.62-7.05-.36-.99-.34.36 4.56-2.5 7.25-3.95 1.66-.92c.12-.04.45-.24.29-.4-.17-.17-.6.04-.72.12z" />
    <path fill="var(--b, white)"
      d="m11.09 49.13 48.74-26.64a2.37 2.37 0 0 1 3.22.93l18.77 34.3c.62 1.15.21 2.6-.94 3.22L32.11 87.6a2.36 2.36 0 0 1-3.21-.94L10.13 52.34a2.37 2.37 0 0 1 .96-3.21z" />
    <path fill="#002780"
      d="m11.62 49.34 3.82-2.08 9.5-5.19 12.19-6.67 11.93-6.53 8.66-4.75 2.19-1.2.38-.22a1.9 1.9 0 0 1 1.13-.24c.45.08.81.5 1 .87 1.04 1.82 2.02 3.67 3 5.5l6.32 11.54 6.33 11.59c1.04 1.87 2.1 3.74 3.1 5.64.6 1.13.22 2.52-.91 3.14l-.29.15-2 1.1-8.4 4.61-11.82 6.46-12.3 6.7-9.71 5.32c-1.42.77-2.81 1.56-4.23 2.3a1.84 1.84 0 0 1-1.17.24c-.43-.1-.75-.5-.96-.86l-.29-.5-1.58-2.88-5.81-10.64-6.63-12.12-4.17-7.6-.27-.48a2.48 2.48 0 0 1 .99-3.2c.19-.1-.27-.33-.34-.36-.19-.07-.53-.19-.74-.04a2.48 2.48 0 0 0-.96 3.33l.29.5 1.6 2.96 2.64 4.82 3.27 5.95 3.48 6.34 3.21 5.88 2.57 4.68 1.49 2.74c.07.12.14.24.2.38a3.4 3.4 0 0 0 4.34 1.27l1.05-.57 2.9-1.59 4.33-2.37 5.37-2.93 6.05-3.31 6.36-3.48 6.22-3.41 5.73-3.15 4.9-2.66 3.6-1.97 1.97-1.08c.14-.07.28-.14.43-.24a2.5 2.5 0 0 0 .79-3.24l-.96-1.75-2.18-4.03-3.03-5.55-3.4-6.24-3.41-6.14-2.96-5.4-2.06-3.77c-.26-.5-.53-1.03-.84-1.51a3.41 3.41 0 0 0-4.27-1.13l-.31.17-2.07 1.13-3.67 2.01-4.94 2.72-5.76 3.14-6.24 3.4-6.34 3.49-6.02 3.29-5.33 2.9-4.27 2.33-2.79 1.53-.96.53c-.19.1.29.34.34.36.19.07.5.2.72.07z" />
    <path fill="var(--b, white)"
      d="m10.85 48.7 48.72-26.64a2.37 2.37 0 0 1 3.21.93L78.5 51.72 25.6 80.64 9.9 51.91a2.37 2.37 0 0 1 .96-3.21z" />
    <path fill="#002780"
      d="m11.3 49.06 3.27-1.78 8.2-4.49 10.95-5.97 11.3-6.17 9.41-5.14 5.21-2.86.39-.21c.67-.36 1.8-.5 2.28.21.28.44.55.99.81 1.47l4.8 8.76 6.12 11.16 3.87 7.05.19.34v-.12l-1.42.77-3.84 2.11-5.71 3.12-6.94 3.8-7.63 4.17-7.65 4.2-7.23 3.93-6.05 3.32-4.36 2.37c-.68.39-1.4.72-2.07 1.13l-.1.05.94.62-1.73-3.17-4.08-7.44-4.8-8.78-3.79-6.98-1.05-1.92-.22-.39a2.3 2.3 0 0 1-.1-2.01 2.42 2.42 0 0 1 1.04-1.15c.12-.08-.63-.92-.94-.75a2.5 2.5 0 0 0-1.18 2.76c.08.27.17.5.32.75l.81 1.5 3.6 6.58 4.78 8.72 4.3 7.84c.71 1.3 1.4 2.6 2.13 3.9l.02.04c.12.22.63.8.94.62l1.42-.76 3.84-2.12 5.7-3.12L44 71.23l7.61-4.17 7.66-4.18 7.17-3.91 6.05-3.31 4.37-2.38 1.34-.74c.24-.12.48-.24.72-.39l.1-.05c.02-.04.02-.1 0-.12l-2.83-5.18-5.98-10.92-5.47-9.96-1.35-2.45a4.66 4.66 0 0 0-.74-1.05c-.94-.94-2.33-1.42-3.55-.75l-3.55 1.95-8.5 4.63-11.14 6.1-11.32 6.19-9.24 5.06-4.76 2.6-.21.11c-.12.07.62.91.93.75z" />
    <path fill="var(--b, white)" d="M54.36 71.47a1.22 1.22 0 1 0 0-2.45 1.22 1.22 0 0 0 0 2.45z" />
    <path fill="#002780"
      d="M54.34 69.4c.21-.11.43-.16.67-.14h.07c.02 0 .05 0 0 0h.02a2.86 2.86 0 0 1-.48-.19l-.04-.02c.02.02.02.02 0 0a.47.47 0 0 1 .21.21 1.21 1.21 0 0 1-.17 1.7 1.31 1.31 0 0 1-.79.27h-.19.02c-.1-.02-.02 0 .15.05l.31.14.02.03c.08.02 0 0-.02-.03a.29.29 0 0 1-.12-.12 1.21 1.21 0 0 1-.31-.6 1.24 1.24 0 0 1 .62-1.32c.03 0-.17-.12-.14-.12-.12-.07-.27-.12-.39-.19l-.4-.14c-.05-.03-.15-.05-.2-.03-.5.27-.74.84-.6 1.4.08.26.24.5.46.7.2.14.38.26.62.35.3.15.58.24.9.31a1.25 1.25 0 0 0 1.4-.62 1.25 1.25 0 0 0-.28-1.51 2.46 2.46 0 0 0-.53-.34 4.09 4.09 0 0 0-1.03-.38 1.4 1.4 0 0 0-.94.12c-.02 0 .17.12.15.12l.38.19.41.14c.07.03.17.05.22.03zm6.33-45.13-48.65 26.6 14.52 26.55 48.65-26.6-14.52-26.55z" />
    <path fill="#002780"
      d="m12.43 51.26 1.32-.72 3.53-1.92 5.26-2.88 6.38-3.5 6.98-3.82 7.06-3.86 6.58-3.6 5.56-3.05 4.01-2.18c.63-.34 1.3-.67 1.9-1.03l.07-.05-.89-.29L61.63 27l3.48 6.36 4.2 7.66 3.63 6.64 1.2 2.19c.16.36.36.7.57 1.03 0 .02.03.02.03.05l.1-.46-1.33.72L70 53.11 64.72 56l-6.4 3.48-7 3.82-7.05 3.86-6.58 3.6-5.56 3.05-4.01 2.18c-.62.34-1.27.68-1.9 1.04l-.07.04.91.3-1.44-2.65-3.48-6.36-4.17-7.65-3.63-6.65-1.2-2.19c-.19-.33-.36-.72-.57-1.03 0-.02-.03-.02-.03-.05-.24-.43-1.34-.45-.98.17L13 53.6l3.48 6.36 4.15 7.66 3.62 6.65 1.2 2.18c.2.34.36.72.58 1.03 0 .03.02.03.02.05a.8.8 0 0 0 .92.29l1.3-.72 3.52-1.92 5.26-2.88 6.38-3.48L50.41 65l7.06-3.86 6.58-3.6 5.54-3.05 4-2.18c.63-.34 1.28-.68 1.9-1.04l.08-.04c.19-.1.19-.3.1-.46l-1.45-2.64-3.45-6.36-4.18-7.66-3.62-6.64-1.2-2.19c-.2-.33-.36-.72-.58-1.03 0-.02-.02-.02-.02-.05a.8.8 0 0 0-.92-.29l-1.3.72-3.52 1.92-5.26 2.88-6.38 3.5-6.98 3.82-7.04 3.84-6.57 3.6-5.57 3.05-4 2.19c-.63.33-1.28.67-1.9 1.03l-.08.05c-.6.3.36.98.77.76z" />
    <path fill="var(--c, black)"
      d="m38.66 70.82-3.95-3.67-.56-.5.24.4 2.35-3.23 3.75-5.16.86-1.2c.03-.03.03-.08 0-.12l-1.68-3.22-2.69-5.11-.62-1.18v.12l4.85-3.24.7-.45.02-.05-1.49-7.37-.22-1.03c-.04-.22-.3-.43-.5-.55-.02-.03-.48-.3-.43-.12l1.32 6.5.29 1.46.07.36c.02.12.05 0-.03.05-.9.55-1.8 1.2-2.68 1.8l-2.79 1.87c-.02.05-.02.08.03.12l1.68 3.22 2.68 5.11.63 1.18-.03-.12-2.35 3.24-3.77 5.11-.86 1.2c-.07.1.2.36.24.4l3.96 3.68.55.53c.12.12.46.45.63.38.16-.07-.15-.38-.2-.4z" />
    <path fill="var(--c, black)"
      d="m37.35 63.31 3.62-1.46c.2-.05.29-.24.24-.43l-.07-.15a.76.76 0 0 0-.82-.24L36.7 62.5c-.2.04-.29.24-.24.43l.07.14a.85.85 0 0 0 .82.24z" />
    <path fill="var(--b, white)"
      d="M49.23 45.5c1.7.3 3.38.68 5.04 1.18.19.05.57.17.67-.1.1-.26-.3-.45-.46-.5a40.85 40.85 0 0 0-5.33-1.25c-.17-.02-.53-.05-.53.22s.44.43.6.45z" />
    <path fill="var(--b, white)"
      d="M51.24 48.86a22.27 22.27 0 0 1 .48-5.78c.1-.43-.98-.96-1.08-.46a23.9 23.9 0 0 0-.48 5.79.73.73 0 0 0 .5.57c.13.08.58.17.58-.12zm-20.16 6.5 6.36 2.24c.1.02-.12-.39-.14-.4-.08-.15-.27-.54-.44-.6l-6.36-2.24c-.1-.03.12.38.15.4.07.15.24.56.43.6z" />
    <path fill="var(--b, white)"
      d="M32.66 59.04c.08-2.14.34-4.25.8-6.31.1-.39-.87-1.1-.94-.7a33 33 0 0 0-.8 6.5c-.02.37.92 1.06.94.5zm10.97-.17a5.66 5.66 0 0 1 2.7-4.2 5.62 5.62 0 0 1 5.37-.1c.26.17.62.13.84-.11.17-.2.24-.58-.05-.72a7.04 7.04 0 0 0-5.3-.56A6.75 6.75 0 0 0 42.46 59c-.03.31.36.48.6.43a.58.58 0 0 0 .57-.55z" />
    <path fill="var(--c, black)"
      d="m57.17 28.03 1.13-1.08s.48 1.68 3.1.24-.7-5.09-.73-6c-.02-.91.82-2.64.82-2.64l.84.12s-1.03 1.54-.2 2.95c.85 1.42 4.69 5.4 1.13 7.32-3.55 1.92-6.1-.9-6.1-.9z" />
    <path fill="var(--c, black)"
      d="m57.65 28.4 1.13-1.09-1.01-.43c.17.6.8 1.03 1.34 1.2.58.17 1.2.14 1.76-.07a3.6 3.6 0 0 0 1.72-1.06c.65-.81.34-1.97-.02-2.83-.36-.86-.94-1.66-1.27-2.47l-.07-.22c.02.07 0 0 0-.02v-.22c.04-.33.12-.67.24-.98.16-.46.33-.89.55-1.32l-.39.1.84.11-.67-.67a3.42 3.42 0 0 0-.5 1.32c-.12.75.07 1.51.53 2.14.64.93 1.36 1.82 1.87 2.85.5 1.04.81 2.3-.03 3.24a4.41 4.41 0 0 1-4.17 1.13 4.14 4.14 0 0 1-.5-.17l-.05-.02-.1-.05c-.07-.02-.14-.07-.22-.1a.52.52 0 0 1-.19-.11l-.02-.03-.07-.05-.32-.21-.12-.1c-.02 0-.14-.12-.07-.07l-.05-.05-.1-.07a1.04 1.04 0 0 1-.14-.17.94.94 0 0 0-.79-.29c-.26.1-.14.34 0 .48a5.9 5.9 0 0 0 2.14 1.44 5.56 5.56 0 0 0 4.77-.21c1.3-.53 1.97-2 1.52-3.31-.32-1.3-1.16-2.43-1.92-3.48-.41-.56-.87-1.08-.92-1.8a3.12 3.12 0 0 1 .5-1.78c.2-.29-.47-.62-.66-.67l-.84-.12c-.12-.03-.32-.03-.39.1-.38.79-.81 1.7-.84 2.59 0 .3.1.6.27.86l.64 1.18c.41.76.9 1.68.82 2.56-.07 1.1-1.3 1.68-2.28 1.85-.12.03-.26.03-.38.03.07 0-.3-.05-.12-.03-.03 0-.2-.05-.03 0-.02 0-.21-.1-.02 0l-.1-.07c.07.1.05.05.03 0-.1-.12-.03-.05 0 0a.33.33 0 0 1-.08-.1l-.02-.04a.34.34 0 0 1-.05-.15c-.07-.26-.74-.7-1-.43l-1.13 1.08c-.32.46.7 1.08.98.8z" />
    <path fill="var(--c, black)"
      d="M61.85 13.4s-1.5 5.1-1.1 5.6c.38.51 1.63.54 1.63.54s3.62-2.9 3.67-3.41c.04-.5-4.2-2.74-4.2-2.74z" />
    <path fill="var(--c, black)"
      d="M61.3 13.4a59.23 59.23 0 0 0-.92 3.54c-.14.63-.33 1.32-.28 1.97.07.84 1.2 1.01 1.87 1.06.31.05.6-.05.84-.22.17-.12.31-.26.48-.38.6-.48 1.2-.99 1.78-1.51.48-.44 1.05-.9 1.41-1.44.36-.56-.14-.92-.55-1.23a26.36 26.36 0 0 0-3.65-2.13.73.73 0 0 0-.82.14c-.16.17-.26.46-.02.6 1.22.6 2.4 1.3 3.55 2.06.1.08.22.15.31.24l.12.12.05.05c0-.05.07.07 0 0 0 .07.03-.1.03-.12-.03.1-.03.05 0 .03l-.24.28-.12.12-.17.17c-.17.17-.34.31-.48.46l-1 .89-1.47 1.22.57-.22a2.13 2.13 0 0 1-1.27-.36c-.07-.04.1.08 0 0-.02-.02-.02-.07 0 .03v-.27l.07-.67a33.35 33.35 0 0 1 .82-3.48c.1-.31.17-.62.26-.93.12-.63-1.03-.53-1.17-.03zM25.46 83.13c-4.72-.46-10.03-.8-14.04 2.2a3.45 3.45 0 0 0-1.17 1.32c-.2.53-.15 1.1.16 1.56.68 1.1 2.02 1.35 3.2 1.47 2.78.31 5.61.24 8.37-.2a30.56 30.56 0 0 0 4.66-1.1c1.2-.38 2.59-.89 3.19-2.09.05-.07-.07-.12-.12-.14a3.8 3.8 0 0 0-3.8.6c-.8.72-1.12 1.92-.37 2.78.64.77 1.72 1.04 2.64 1.35a9.42 9.42 0 0 1 1.87.86 4.3 4.3 0 0 1 1.49 1.23c.19.26.28.57.21.9-.1.37-.4.6-.7.82-.62.5-1.27.94-1.96 1.32-.15.08-.34.3-.1.36.24.08.6-.1.8-.21.57-.34 1.12-.67 1.65-1.08.48-.36 1.06-.72 1.32-1.25.6-1.13-.82-2.09-1.63-2.6a10.81 10.81 0 0 0-1.68-.8c-.48-.2-.99-.32-1.44-.51-.84-.34-1.83-.94-1.78-1.97a1.71 1.71 0 0 1 .74-1.34c.53-.32 1.3-.1 1.83.1l-.12-.15c-.43.86-1.44 1.15-2.28 1.41-1.18.36-2.4.65-3.63.87a31.1 31.1 0 0 1-7.46.33c-1.1-.1-2.42-.12-3.31-.84a1.94 1.94 0 0 1-.75-1.27 1.66 1.66 0 0 1 .63-1.39c1.46-1.34 3.53-1.92 5.47-2.14 2.4-.28 4.85-.07 7.25.15.29.02.55-.05.79-.22.07-.02.36-.31.07-.33z" />
    <path fill="var(--b, white)"
      d="M21.29 93.5s-9.72 11.12-8.86 11.26c.86.14 86.16 0 86.5-.86.33-.87-8.17-9.72-8.67-10.37-.5-.65-68.98-.03-68.98-.03z" />
    <path fill="#002780"
      d="M20.88 93.05a217.47 217.47 0 0 0-6.12 7.25c-.58.72-1.16 1.44-1.73 2.2-.39.48-.72.99-1 1.52-.32.64.25 1.22.9 1.22 1.37.02 2.76.02 4.13.02h8.16c3.67 0 7.37 0 11.04-.02 4.27 0 8.54-.02 12.82-.05l13.41-.07a279130060709709660 279130060709709660 0 0 0 23.9-.26c2.74-.05 5.5-.1 8.24-.2 1.44-.04 2.9-.02 4.32-.24a.57.57 0 0 0 .29-.07c.36-.19.07-.72-.08-.96a11.04 11.04 0 0 0-1.32-1.82 54.26 54.26 0 0 0-2.16-2.52 195.28 195.28 0 0 0-4.24-4.66l-.65-.7a2.16 2.16 0 0 1-.22-.23l-.07-.08c-.12-.12.17.17 0 0a1.22 1.22 0 0 0-.72-.4 11.81 11.81 0 0 0-1.6-.1l-3-.07c-3.1-.05-6.22-.05-9.32-.07H63.65l-13.28.04-12.6.08-10.13.07-5.87.05H21c-.55 0 .1.96.48.96l3.07-.03 8.11-.07c3.8-.02 7.6-.05 11.4-.1l12.96-.07c4.27-.02 8.54-.02 12.84-.05 3.67 0 7.35 0 11.02.03 2.47.02 4.92.02 7.39.1.6.02 1.22.02 1.82.09l.22.02c.14 0-.05-.02.02 0a1.7 1.7 0 0 1-.33-.24c-.24-.21-.03-.02.04.05.08.07.12.12.17.2l.56.6a355.54 355.54 0 0 1 4.05 4.43c1.23 1.4 2.52 2.74 3.5 4.3.05.07-.02-.07.03.07l.07.15c.07.12-.02-.08 0 .02s0 .02 0 .02.05-.1.07-.1a.77.77 0 0 0-.33.08 17 17 0 0 1-1.59.12c-2.04.12-4.2.17-6.33.22-3.24.07-6.48.12-9.72.16-3.99.05-7.97.1-11.93.12-4.34.05-8.69.08-13.06.1l-13.05.07c-3.99.03-8 .03-11.98.03h-9.8c-2.15 0-4.33 0-6.5-.03-.55 0-1.1 0-1.65-.02-.12 0-.24-.03-.36 0-.4.02.74.6.6.7.05-.03-.05.07 0 .02s.02-.07.02-.1c.05-.07.08-.17.12-.24.32-.53.68-1.05 1.08-1.53.58-.77 1.18-1.5 1.78-2.24a243.74 243.74 0 0 1 3.96-4.72l1.92-2.21c.31-.29-.53-1.13-.8-.84z" />
    <path fill="#002780" d="m13.49 106.03-1.06-1.3 86.5-.86s-.32 1.7-2.02 2.19c-1.7.48-81.12.93-83.42-.03z" />
    <path fill="#002780"
      d="M14.09 106.1 13 104.8l-.2.03 2.33-.02 6.3-.07 9.33-.1 11.3-.12 12.48-.12 12.5-.12 11.74-.12 9.87-.1 7.12-.07c1.13 0 2.24 0 3.36-.02h.17l-1-.17a2.97 2.97 0 0 1-1.28 1.85c-.24.14-.5.26-.8.33-.04.03.03 0-.09 0-.43.05-.84.05-1.27.08-1.8.07-3.6.1-5.4.14-2.83.05-5.66.1-8.5.12-3.52.05-7.05.07-10.58.1l-11.88.07c-4.03.02-8.09.02-12.12.02-3.84 0-7.68 0-11.5-.02l-9.93-.07a384.63 384.63 0 0 1-7.44-.15l-.7-.02h-.57c-.39-.03-.77-.03-1.13-.05l-.48-.02-.2-.03h-.09c-.12 0 .14 0 0 0l-.36-.05c-.17-.02.14 0 0 0-.05 0-.22-.02-.07 0 .14.03 0 0-.05 0 .1 0 .15.03.05 0 .07-.02.12 0 .17 0a2.3 2.3 0 0 0-.72-.14c-.15 0-.3 0-.44.02.5.17 1.01.24 1.54.27.67.05 1.34.1 2.02.12a608.5 608.5 0 0 0 15.96.26c3.76.03 7.53.05 11.32.05H56c4.08 0 8.14-.02 12.2-.05 3.74-.02 7.48-.05 11.22-.1 3.1-.02 6.17-.07 9.27-.11a279 279 0 0 0 6.33-.15c1.08-.02 2.4.12 3.36-.55a3.03 3.03 0 0 0 1.2-1.8c.03-.1-.9-.17-1-.17l-2.33.03-6.27.07-9.33.1-11.33.11-12.48.12-12.5.12-11.74.12-9.86.1-7.16.07-3.36.03h-.14c.05 0-.2 0-.2.02l1.06 1.3c.1.12.46.12.6.14.03.02.53.02.56.02zm14.06-9.81h1.51l4.06-.03 6.02-.02 7.32-.05 8.07-.05 8.08-.04 7.59-.05 6.36-.05 4.6-.02h2.26c.22 0 .12-.22.03-.3a.77.77 0 0 0-.58-.26h-1.51l-4.06.03-6.02.02-7.32.05-8.06.05-8.1.05-7.58.04-6.36.03-4.6.02c-.72 0-1.44 0-2.16.03h-.1c-.22 0-.12.21-.02.28.14.17.36.27.57.27z" />
    <path fill="#002780"
      d="M28.15 96.4a.9.9 0 0 1-.67-.3.42.42 0 0 1-.12-.36c.05-.1.14-.15.24-.12h2.25l53.62-.32a1 1 0 0 1 .67.32c.1.1.15.24.12.36a.2.2 0 0 1-.24.12h-.1c-.47.02-.98.02-1.46 0h-.72l-53.59.3zm0-.23 53.62-.31h2.25c-.02-.03-.02-.08-.05-.1a.83.83 0 0 0-.5-.24l-53.62.31H27.6c.02.03.02.07.05.1a.83.83 0 0 0 .5.24zm-2.06 2.71h1.58l4.3-.02 6.38-.03 7.75-.05 8.55-.04 8.57-.05 8.06-.05 6.74-.02 4.9-.03h2.4c.24-.02.46-.1.62-.24.12-.12.1-.17-.1-.17h-1.58l-4.3.03-6.38.02-7.75.05-8.54.05-8.57.05-8.04.04-6.75.03-4.9.02h-2.4a.96.96 0 0 0-.62.24c-.14.1-.1.15.08.17z" />
    <path fill="#002780"
      d="M26.09 99c-.15 0-.24-.05-.29-.12-.05-.07 0-.17.12-.26.2-.15.46-.24.7-.27h2.4l56.83-.31c.14 0 .24.05.26.12.03.07 0 .17-.12.26-.19.15-.45.24-.7.27h-2.4L26.1 99zm1.94-.4h-1.39a.9.9 0 0 0-.5.16l56.78-.31h2.4a1 1 0 0 0 .53-.17l-56.81.31h-1zm-3.82 3.02h1.7l4.6-.03 6.8-.02 8.26-.05 9.12-.05 9.15-.05 8.59-.04 7.2-.03 5.2-.02h2.55c.22.02.46-.07.63-.22.12-.14-.1-.21-.27-.21h-1.7l-4.59.02-6.81.02-8.28.05-9.12.05-9.15.05-8.59.05-7.2.04-5.2.03h-2.55a.87.87 0 0 0-.62.21c-.08.15.12.2.28.2z" />
    <path fill="#002780"
      d="M24.21 101.76c-.07 0-.28-.02-.38-.17-.05-.07-.02-.17.03-.24.14-.21.52-.26.72-.26h1.75l6.02-.03 55.42-.28c.07 0 .28 0 .38.16.05.08.02.17-.02.24-.15.22-.5.27-.72.27h-2.6l-60.6.31zm-.16-.26c.04.02.1.02.16.02l60.63-.31h2.6c.18 0 .35-.05.5-.17-.05-.02-.1-.02-.15-.02l-61.44.3h-1.73a.82.82 0 0 0-.57.18z" />
    <path fill="#002780"
      d="m46.2 94.03-1.4 3.03-2.2 4.77-.5 1.1c-.13.27.5.85.69.46l1.4-3.02 2.2-4.78.5-1.1c.15-.29-.5-.87-.7-.46z" />
    <path fill="#002780"
      d="M42.6 103.63a.45.45 0 0 1-.2-.05c-.23-.12-.52-.45-.4-.72l4.1-8.9c.07-.17.29-.26.46-.17.02 0 .02.03.04.03.24.12.53.45.41.72l-4.1 8.9a.33.33 0 0 1-.31.2zm3.72-9.55-4.1 8.9c-.05.1.11.32.28.39.14.07.17 0 .2-.03l4.1-8.9c.04-.1-.12-.31-.3-.38-.13-.08-.16-.03-.18.02zm9.24.12v8.78c0 .36.93.17.93-.14v-8.78c-.02-.36-.93-.17-.93.14z" />
    <path fill="#002780"
      d="M55.85 103.3a.48.48 0 0 1-.27-.08.26.26 0 0 1-.14-.24V94.2c0-.29.43-.46.74-.46.1 0 .2.03.27.05a.26.26 0 0 1 .14.24v8.79c0 .3-.43.48-.75.48zm.33-9.32c-.24 0-.5.15-.5.22v8.78c0 .03 0 .03.02.05a.3.3 0 0 0 .15.03c.26 0 .5-.15.5-.22v-8.78c0-.03 0-.05-.03-.05-.04-.03-.1-.03-.14-.03zm8.74.22 1.34 2.93 2.14 4.65.48 1.08c.05.1.91-.24.86-.38l-1.34-2.93-2.14-4.65-.48-1.08c-.02-.08-.9.24-.86.38z" />
    <path fill="#002780"
      d="M68.95 102.98a.22.22 0 0 1-.17-.07l-3.96-8.66c-.1-.2.22-.34.34-.39.43-.19.67-.21.72-.1l3.96 8.67c.1.2-.22.34-.36.39-.15.1-.34.14-.53.16zm-3.89-8.78 3.92 8.57a2.17 2.17 0 0 0 .64-.27l-3.9-8.56a1.94 1.94 0 0 0-.66.26zm-32.68.31-2.1 2.81-3.33 4.49-.77 1.03c-.16.24.77.4.92.2l2.08-2.82 3.34-4.48.77-1.04c.19-.26-.75-.4-.91-.19z" />
    <path fill="#002780"
      d="M26.78 103.22a1.2 1.2 0 0 1-.6-.14c-.1-.07-.14-.2-.07-.29 0 0 0-.02.02-.02l6.17-8.33c.12-.17.46-.14.6-.14.1 0 .46.07.53.26a.23.23 0 0 1-.03.22l-6.16 8.32a.66.66 0 0 1-.46.12zm-.48-.33a.94.94 0 0 0 .43.1c.2 0 .27-.03.3-.05l6.16-8.3a.9.9 0 0 0-.43-.13c-.2 0-.27.03-.3.05l-6.16 8.33zm50.48-8.14c-.12-.07-.03 0 .02.05s.12.12.17.2c.17.18.33.4.5.6a58.42 58.42 0 0 1 1.49 1.91 265.52 265.52 0 0 1 3.12 4.13l.72.96a.55.55 0 0 0 .6.14c.17-.04.43-.28.29-.45a108.47 108.47 0 0 0-2-2.64 187.45 187.45 0 0 0-3.3-4.32l-.6-.75a2.9 2.9 0 0 0-.39-.38c-.4-.24-1.1.29-.62.55z" />
    <path fill="#002780"
      d="M83.18 102.89a.56.56 0 0 1-.48-.24l-.72-.96a511.77 511.77 0 0 0-3.12-4.13 460.76 460.76 0 0 0-1.48-1.92 13.26 13.26 0 0 0-.5-.6c-.06-.07-.13-.12-.18-.2-.02-.02-.04-.04-.07-.04l-.1-.07v-.03a.36.36 0 0 1-.02-.4.71.71 0 0 1 .91-.24c.15.1.3.21.39.36l.05.04c.21.24.4.48.6.75a158.02 158.02 0 0 1 3.16 4.13l.15.19 1.99 2.64c.05.07.07.17.05.26a.72.72 0 0 1-.41.39.34.34 0 0 1-.22.07zm-6.36-8.23.05.04c.05.08.12.12.17.2.17.21.34.4.5.62a87.07 87.07 0 0 1 1.52 1.92c1.15 1.51 2.28 3 3.12 4.13l.72.96c.12.12.3.17.45.1a.53.53 0 0 0 .24-.22v-.05a108.47 108.47 0 0 0-1.99-2.64l-.14-.2c-1.04-1.34-2.1-2.75-3.17-4.1l-.6-.74-.05-.05a1.4 1.4 0 0 0-.34-.31c-.21-.07-.45-.02-.57.17-.03.05-.03.1.1.17z" />
    <path fill="var(--b, white)"
      d="M92.61 50s-6.86-8.82-11.16-11.6c-2.3-1.51-3.81-2.45-4.41-1.82-.53.55.72 1.56 1.39 2.1.24.22.43.46.58.75 0 0-.2.41-1.13 1.1-.94.7-1.61 2.07-1.1 2.4.38.25.81-.09 1.2-.6 0 0-.53 1.04.04 1.42.36.24.67-.24.87-.67.14-.26.33-.5.57-.7 0 0 .91 2.04 2.79 1.47l8.52 11.18 2.32-4-.48-1.04z" />
    <path fill="var(--c, black)"
      d="M93 49.75c-.72-.91-1.47-1.82-2.21-2.71a80.72 80.72 0 0 0-4.9-5.4 41.69 41.69 0 0 0-2.61-2.42 26.23 26.23 0 0 0-3.34-2.26 6.6 6.6 0 0 0-1.6-.77c-.49-.12-.82.03-1.23.29-.2.12-.46.26-.53.5a.77.77 0 0 0 .17.65c.36.55.91.91 1.4 1.35.11.12.23.24.33.38.07.07.12.17.17.26a.52.52 0 0 1-.12.2c-.44.52-1.04.86-1.47 1.34-.36.4-.81 1-.79 1.58a.42.42 0 0 0 .38.44c.32.04.65-.2.9-.34a3.81 3.81 0 0 0 .86-.77l-.75.43c-.1.22-.19.44-.21.68-.05.33.07.86.5.81.24-.05.46-.17.65-.31a2 2 0 0 0 .53-.48c.24-.36.4-.74.74-1.03l-.72.4c.17.39.4.7.72.99a2.17 2.17 0 0 0 2.14.46h-.08l2.88 3.79 4.59 6.02 1.05 1.4c.05.07.72-.37.77-.46l1.13-1.95.82-1.39.26-.45c.02-.05.12-.15.12-.22.02-.14-.14-.36-.22-.48l-.33-.53c-.03-.05-.84.36-.8.46l.22.48c.12.17.22.38.27.57v.03l-.08.12-.24.4-1.56 2.7-.43.74.77-.46L88.27 51l-4.58-6.02-1.06-1.4h-.07c-1.15.34-2.26-.43-2.74-1.46-.02-.07-.67.36-.72.4a2.83 2.83 0 0 0-.55.66c-.1.14-.17.3-.26.45-.03.05-.08.1-.1.15.43-.15.53-.24.29-.27-.07-.02-.12-.07-.17-.12-.31-.33-.12-.93.05-1.3.02-.07-.29.1-.29.1a1.54 1.54 0 0 0-.46.31l-.24.3-.07.06c.24-.12.29-.14.15-.12-.12-.07-.24-.02-.34-.14a.69.69 0 0 1-.05-.58c.2-.62.58-1.2 1.08-1.6a5.86 5.86 0 0 0 1.2-1.1c.03-.03.07-.1.07-.15 0-.05-.07-.12-.1-.17a1.57 1.57 0 0 0-.35-.43c-.43-.43-.96-.77-1.35-1.25a1.19 1.19 0 0 1-.3-.62c-.03-.15.04-.2.06-.32l.03-.02c.12-.14-.03-.07-.43.26l.14-.02c.43-.05.89.2 1.27.38a27.99 27.99 0 0 1 1.83 1.08 21 21 0 0 1 2.66 1.95c.86.74 1.68 1.53 2.5 2.35a88.19 88.19 0 0 1 4.48 4.97 94.16 94.16 0 0 1 2.36 2.88c.1.1.81-.41.79-.46z" />
    <path fill="var(--b, white)" d="M82.42 42.26s-2.26-.5-3.3-1.3-.78-1.77-.09-1.5c.7.26 2.16.76 2.74.55" />
    <path fill="var(--c, black)"
      d="M82.25 41.9a10.34 10.34 0 0 1-2.67-.93 2.64 2.64 0 0 1-.67-.48.97.97 0 0 1-.12-.22.58.58 0 0 1 0-.28c.05-.17.21-.24.36-.22h.02c.3.07.56.2.82.29.36.12.74.21 1.13.28.28.08.6.08.9 0 .18-.04.03-.28-.01-.38-.05-.1-.3-.4-.46-.34a1.75 1.75 0 0 1-.86 0 8.99 8.99 0 0 1-1.08-.28 6.08 6.08 0 0 0-.87-.3.49.49 0 0 0-.55.3c-.12.3.05.67.2.93.23.41.57.77.97 1.06.6.38 1.28.7 1.95.91.43.14.89.26 1.32.38.2.05.12-.16.07-.26a.78.78 0 0 0-.46-.46z" />
    <path fill="var(--b, white)" d="M79 41.6s-.48.11-1.03.78l1.04-.79z" />
    <path fill="var(--c, black)"
      d="M78.84 41.26c-.31.1-.6.26-.84.5a6.75 6.75 0 0 0-.4.43c-.06.07-.06.17-.03.27a.47.47 0 0 0 .21.21.52.52 0 0 0 .6-.1 1.44 1.44 0 0 1 .2-.2l-.08.06c.17-.19.39-.36.6-.48L79 42c.08-.05.17-.07.25-.1l-.1.03a.5.5 0 0 0 .24-.14c.05-.08.05-.17.02-.27a.47.47 0 0 0-.21-.22c-.12-.04-.24-.07-.36-.04z" />
    <path fill="var(--c, black)"
      d="M78.82 42.05c.19.36.4.7.62 1.03.07.1.14.22.24.29a.5.5 0 0 0 .26.1c.12.02.24 0 .36-.03.08-.02.17-.05.22-.14a.19.19 0 0 0-.05-.2l-.1-.1.05.06a7.5 7.5 0 0 1-.48-.72c-.1-.15-.16-.32-.26-.46a.35.35 0 0 0-.22-.14.78.78 0 0 0-.33-.03c-.12.05-.41.15-.31.34z" />
    <path fill="var(--b, white)" d="M104.33 66.1s-.44 1.72.14 1.68c.58-.05.77-1.64.77-1.64l-.91-.04z" />
    <path fill="var(--c, black)"
      d="m103.87 66.17-.12.57a1.95 1.95 0 0 0 0 .92.3.3 0 0 0 .24.24c.21.02.4 0 .62-.05a1.06 1.06 0 0 0 .39-.15c.24-.24.4-.55.48-.88.07-.24.12-.48.16-.75 0-.05-.14-.05-.14-.05l-.89-.04a1.12 1.12 0 0 0-.62.12c-.05 0-.15.04-.12.07 0 .05.1.05.12.05l.89.04-.15-.04c-.02.19-.07.36-.1.52a2 2 0 0 1-.33.84l-.07.08-.03.02c-.02.02.03-.02 0 0l-.02.02.02-.02s-.04.02.03 0l.31-.07h.22c-.05 0 .02.02 0 0l-.03-.03-.02-.02a.53.53 0 0 0-.07-.12 2.47 2.47 0 0 1 0-.84c.02-.22.07-.4.12-.62.02-.1-.44-.03-.46-.03-.1.03-.22.05-.31.1-.05.05-.1.07-.12.12z" />
    <path fill="#002780"
      d="M100.22 70.18s2.3-1.92 2.8-1.92 4.76-.27 5.1 0c.33.26 2.28 2.37 2.28 2.37s.07 2.81-.17 3.15c-.24.33-9.8.16-10 0-.23-.17 0-3.6 0-3.6z" />
    <path fill="#002780"
      d="M100.6 70.18a16.84 16.84 0 0 1 2.38-1.76c.07-.02.24-.07.1-.04 0 0-.39.02-.22.02h.12l.6-.02 1.87-.08a21.32 21.32 0 0 1 1.76 0c.16 0 .3.03.48.05.02.03.04.05.07.05.07.07.14.12.19.2.43.42.84.88 1.27 1.31l.53.58c.05.05.1.12.17.17.07.04.05.1.05.04.02.15.02.27 0 .41v.82c.02.57 0 1.15-.1 1.7 0 .03-.07.17-.05.17 0-.02.17-.07.2-.1-.1.03.11-.02-.03 0-.1.03.02 0 0 0h-.12c-.43.05-.7.05-1.13.05a109.1 109.1 0 0 1-7.87-.1l-.14-.02c-.08 0-.12-.02-.05 0l-.03-.14a7.96 7.96 0 0 1-.02-1.51c0-.56.02-1.1.07-1.66l.03-.26c0-.12-.9-.08-.9.14-.04 1-.11 2.02-.06 3.02 0 .27-.05.58.26.63.29.05.55.07.84.07 2.4.12 4.82.14 7.25.1.48 0 .96-.03 1.41-.08.36 0 .72-.07 1.06-.19.34-.14.29-.74.29-1.05.02-.63.02-1.25.02-1.9.03-.12 0-.24-.02-.36a.83.83 0 0 0-.29-.29l-1.34-1.44c-.24-.26-.5-.65-.9-.72a9.3 9.3 0 0 0-1.62-.07c-1.16 0-2.28.07-3.44.12-.62.02-1.1.34-1.6.67s-1.04.77-1.54 1.15l-.26.22c-.15.12.1.12.19.12.12.12.33.07.53-.02z" />
    <path fill="var(--c, black)"
      d="m104.16 68.35-.07-2.18-.27.21h5.02l-.53-.45v5.2c0 .34.8.73.8.25v-5.24c0-.21-.34-.45-.53-.45h-5c-.14 0-.26.05-.26.21l.07 2.19c-.02.36.8.72.77.26z" />
    <path fill="var(--b, white)"
      d="m100.49 70.51 3.62.1 1.92.05c.1.02.17 0 .26-.03a.49.49 0 0 0 .15-.17l.33-.36 1.42-1.56c.14-.14-.5-.79-.6-.67l-1.2 1.32-.62.7c-.03.02-.12.1-.05.07h-.12l-4.2-.1-1.44-.02c-.15 0 .07.31.1.34.1.12.26.33.43.33z" />
    <path fill="var(--b, white)"
      d="m106.44 73.68-.03-3.05v-.43c0-.36-.84-.1-.84.24l.03 3.05v.43c0 .36.86.07.84-.24zm.89-7.92c1.03 1.08 1.56.29 1.22-.31a26.82 26.82 0 0 0-1.7-2.28l-6.12-11.02-2.23 4.8 5.52 7.03c-.2.6-.12 1.25.16 1.8" />
    <path fill="var(--c, black)"
      d="M106.97 65.78c.38.41.96.8 1.53.75a.56.56 0 0 0 .55-.58v-.07c-.02-.38-.36-.74-.57-1.06l-.87-1.15a4.54 4.54 0 0 1-.48-.65l-.55-.98-4.25-7.63-1.22-2.23c-.1-.17-.72-.44-.82-.2l-1.94 4.2-.29.6c0 .05 0 .08.03.12l4.84 6.17.68.87-.03-.12a2.44 2.44 0 0 0 .22 1.92c.12.21.96.38.79.1a2.27 2.27 0 0 1-.2-1.6c.06-.2-.02-.23-.14-.38l-1.17-1.48-3.39-4.3-.84-1.08.03.12 1.94-4.2.29-.6-.82-.2 2.93 5.29 2.09 3.74c.36.65.7 1.35 1.1 1.97.32.5.75.94 1.1 1.42.15.21.3.4.44.62.12.14.2.34.24.5a.5.5 0 0 1-.14.41c-.08.07-.08 0 .02.05a2.76 2.76 0 0 1-.4-.34.92.92 0 0 0-.6-.21c-.2-.03-.22.1-.1.21z" />
    <path fill="var(--b, white)" d="M106.03 66.14s-.21-.81-.81-.72c-.6.1-.27 1.16.24 1.5.5.33 1.3-.6 1.3-.6" />
    <path fill="var(--c, black)"
      d="M106.46 66.31a1.5 1.5 0 0 0-.4-.67 1.56 1.56 0 0 0-.53-.26 1.4 1.4 0 0 0-.63-.15.43.43 0 0 0-.38.24.72.72 0 0 0 .02.5c.05.2.15.39.29.56.26.29.6.48.96.55a.83.83 0 0 0 .67-.05c.29-.14.53-.33.75-.57.04-.05-.36-.22-.39-.24a1.19 1.19 0 0 0-.31-.1c-.02 0-.12-.02-.14 0a2.5 2.5 0 0 1-.6.53l.02-.03a.84.84 0 0 1-.34.15h-.07l.24.07.17.07.05.03c-.03-.03.05.04 0 0l-.05-.03-.02-.02c-.03-.03.02.02 0-.03s-.05-.04-.08-.07l-.12-.17a1.1 1.1 0 0 1-.16-.38v.02c-.08-.21-.1-.55.12-.7l-.03.03a.34.34 0 0 1 .15-.05h.07c.02 0 .07 0 0 0 .02 0 .02 0 0 0l-.1-.02-.19-.07s-.12-.07-.07-.03c.02.03-.05-.04-.03 0l.03.03.02.02.05.07c.1.12.17.3.22.44 0 .04.07.07.1.1l.28.14.31.1s.15.02.12 0z" />
    <path fill="var(--b, white)" d="M106.85 66.24s-.22-.82-.82-.72c-.6.1-.33 1.3.24 1.49 1.2.4 1.3-.6 1.3-.6" />
    <path fill="var(--c, black)"
      d="M107.28 66.1a1.17 1.17 0 0 0-.58-.77 1.2 1.2 0 0 0-1.03.05.87.87 0 0 0-.43.67c-.02.48.2.93.6 1.17.14.08.29.12.43.15.15.02.29.05.43.02a1.5 1.5 0 0 0 .84-.31c.24-.2.39-.46.44-.74.02-.22-.27-.24-.41-.22-.17.02-.43.14-.46.36v.1c-.02.07.03-.08 0-.03-.02.05-.02.1-.05.12l-.02.07c-.02.05.05-.07.02-.02l-.02.05c-.02.02-.02.05-.05.07-.02.05.1-.07.03-.02l-.05.02c-.07.05.1-.05.05-.02l-.05.02.05-.02-.05.02c-.07.02.12-.02.05-.02h-.15c-.12-.03-.02 0 0 0h-.07c-.07 0-.12-.03-.2-.05h-.04c-.07-.03.07.02 0 0l-.05-.03-.07-.02c-.05-.02.05.05 0 0a.94.94 0 0 1-.2-.24l.06.05a1.4 1.4 0 0 1-.2-.53v-.26c0-.03-.02.07 0 .02l.03-.07c0-.03-.05.07-.03.02l.03-.02c.02-.05-.1.07-.03.02.03 0 .05-.05 0 0s0 .03 0 0-.12.05-.04.03l-.08.02c.08-.02-.02 0-.04 0h.04c.08 0-.1-.02-.02 0h.05c.05 0-.07-.02-.03 0l.08.05c.04.02 0 0-.03 0s.03.02.05.02l.07.07.12.15-.05-.05c.08.12.15.24.17.38.03.08.12.12.2.15.11.02.21 0 .33-.03.2-.1.4-.24.36-.4zM104.4 90s.14-.46-.82-.96-2.45-1.22-2.45-1.22l.27-3.34-3.63.77s.39 4.92.48 4.92l1.35-.05 4.8-.12z" />
    <path fill="var(--c, black)"
      d="M104.8 90.17a.65.65 0 0 0-.16-.5c-.31-.41-.82-.65-1.27-.9a57.38 57.38 0 0 0-2.11-1.03l.26.24.26-3.33c.03-.24-.64-.39-.81-.36l-3.63.77c-.02 0-.02.02-.02.04l.17 2.12c.07.88.12 1.8.26 2.66.07.4.63.48.96.46l1.18-.03a69.23 69.23 0 0 1 2.25-.05l2.55-.07c.19 0-.03-.19-.1-.21a1.27 1.27 0 0 0-.6-.2l-4.8.12a20 20 0 0 1-1.34.05l.48.15.24.14c.05.07 0-.02 0-.1-.03-.1-.03-.21-.05-.3-.05-.34-.07-.66-.1-.97l-.21-2.4-.07-.84c0-.07 0-.14-.03-.21.6-.08 1.18-.24 1.75-.36l1.83-.39-.82-.36-.26 3.34c0 .1.19.19.26.24a37.44 37.44 0 0 1 1.7.84c.34.17 1.45.55 1.3 1.1.05.2.91.48.94.34zm-16.2-.1s-.14-.48.92-1 2.74-1.28 2.74-1.28l.04-1.94 3.48-.96s-.21 5.35-.3 5.35l-1.5-.05-5.37-.12z" />
    <path fill="var(--c, black)"
      d="M89.04 90.17c-.05-.15.1-.34.19-.46.36-.38.91-.6 1.37-.81.67-.32 1.36-.63 2.04-.94.02-.02.04-.05.02-.1l.05-1.94-.1.1 3.48-.96-.74-.39c-.07 1.7-.1 3.43-.26 5.14-.03.07-.03.17-.03.24-.02-.03.24-.03.1-.05h-.53l-.96-.02-2.64-.08-2.64-.07c-.17 0-.2.12-.1.22.17.14.39.21.6.24l5.19.12.74.02c.27 0 .53.03.8.03.11 0 .23.02.28-.1.02-.12.05-.22.05-.34.02-.19.02-.4.05-.6.02-.55.07-1.1.1-1.68l.11-2.7c0-.27-.55-.44-.74-.4l-3.48.97c-.07.02-.1.02-.1.1l-.02 1.41v.53c.02-.12 0-.07-.1-.03l-.33.15c-.77.33-1.54.67-2.28 1.05-.34.17-1.08.6-.94 1.08.05.3.86.48.82.27z" />
    <path fill="var(--c, black)"
      d="M90.82 62.02s-.15 22.22.45 23.1c1.47 2.22 5.28.75 5.28.75l-.07-4.6.26 4.53s1.18 1.03 2.62 1.1a2.58 2.58 0 0 0 2.66-2.5v-.16c-.14-4.68-.57-19.9-.57-22.9.02-3.57-10.63.68-10.63.68z" />
    <path fill="var(--c, black)"
      d="M90.4 62.18v10.28a273.15 273.15 0 0 0 .2 10.65c.02.63.07 1.23.14 1.83.15.86 1.13 1.34 1.92 1.5a7.18 7.18 0 0 0 3.94-.47c.1-.05.38-.15.38-.27l-.07-4.6-.84.33.24 3.94c-.02.19 0 .38.02.57.08.15.36.3.48.39 1.04.67 2.28.98 3.46.57 1.13-.38 2.07-1.24 2.19-2.47.02-.7.02-1.41-.03-2.11l-.17-5.62c-.12-4.1-.21-8.2-.3-12.3-.03-.73-.03-1.42-.06-2.12a7.23 7.23 0 0 0-.05-1.44c-.24-1.18-1.82-1.18-2.76-1.13-1.63.1-3.26.5-4.82.99a56.9 56.9 0 0 0-3.34 1.12l-.16.08c-.05.02-.39.16-.36.28.05.12.43-.02.48-.04.74-.3 1.46-.53 2.16-.77a25.04 25.04 0 0 1 4.39-1.1 8.32 8.32 0 0 1 2.04-.1c.46.05.98.17 1.32.53.33.36.29.76.29 1.2l.02 1.65c.07 3.77.17 7.54.26 11.3.05 1.97.1 3.92.17 5.89l.07 2.35c.03.74.15 1.56-.12 2.28-.16.53-.52.96-1 1.25-.5.26-1.2.12-1.7-.05a5.5 5.5 0 0 1-1.35-.7 1.07 1.07 0 0 1-.26-.19v-.07c0-.6-.08-1.23-.12-1.83l-.12-2.23-.03-.4c0-.1-.84.09-.84.33l.07 4.6.39-.26c-.03 0-.05 0-.05.03-.05.05.07-.03.02 0l-.1.02a5.97 5.97 0 0 1-2.42.34 3.06 3.06 0 0 1-1.94-.8 1.15 1.15 0 0 1-.39-.62 9.37 9.37 0 0 1-.14-1.63c-.05-.94-.1-1.9-.12-2.83a256.34 256.34 0 0 1-.1-7.44c-.02-2.4-.02-4.8 0-7.18v-3.38a1.17 1.17 0 0 0 0-.41v-.05c-.04-.1-.88.05-.88.31z" />
    <path fill="var(--b, white)"
      d="m96.72 69.74-.15 5.74-.21 9.14-.05 2.1c0 .16.86.04.86-.22l.15-5.74.21-9.14.05-2.1c0-.16-.86-.04-.86.22z" />
    <path fill="var(--c, black)"
      d="M91.1 62.28s-1-14.42 5.38-14.64c6.38-.22 5.08 14.71 5.08 14.71s-7.2 1.37-10.46-.07z" />
    <path fill="var(--c, black)"
      d="M91.48 62.33v-.14c0-.08 0 .1 0 0v-.17c-.04-.34-.04-.7-.04-1.06a32.96 32.96 0 0 1 .7-7.6c.3-1.25.74-2.55 1.5-3.6a3.96 3.96 0 0 1 2.76-1.71 3.33 3.33 0 0 1 1.54.22c.22.1.43.21.6.35.12.08-.07-.04.02.03l.08.05a.61.61 0 0 0 .14.12c.1.1.2.19.29.3l.02.03.05.08.14.16a7.44 7.44 0 0 1 .63 1.13c.26.58.48 1.18.62 1.8.34 1.34.56 2.74.63 4.13.1 1.22.12 2.42.1 3.65 0 .67-.1 1.34-.1 2.01v.1l.24-.24c-.84.17-1.7.26-2.57.36a26.21 26.21 0 0 1-5.14.14 8.47 8.47 0 0 1-2.57-.55.28.28 0 0 0-.38.12c-.02.02-.02.05-.02.1 0 .24.14.43.36.5 1.56.67 3.38.72 5.04.67a38.18 38.18 0 0 0 4.65-.43c.32-.05.63-.1.96-.17.12-.02.22-.12.22-.24.14-1.68.14-3.38.05-5.06a26.52 26.52 0 0 0-.53-4.35 11.55 11.55 0 0 0-1.47-3.81c-.67-1-1.68-1.8-2.88-2a4.17 4.17 0 0 0-3.43 1.04 7.73 7.73 0 0 0-1.94 3.31 20.84 20.84 0 0 0-.89 4.34 35.18 35.18 0 0 0-.22 3.9c0 .74 0 1.48.05 2.2v.1c.05.5.82.74.8.19z" />
    <path fill="var(--b, white)"
      d="M90.33 64.9s8.19 2.59 11.43.38c0 0 .4-2.23.02-2.69-.38-.45-1.94.65-10.92-.6-.05.03-1.32.7-.53 2.9z" />
    <path fill="#002780"
      d="M90.05 65.19c1.63.5 3.28.88 4.96 1.1 1.35.21 2.72.26 4.08.14a7.64 7.64 0 0 0 1.83-.38c.28-.1.55-.22.81-.36.2-.12.41-.22.46-.46.1-.48.14-.96.17-1.44.02-.43.1-1.1-.27-1.44-.24-.21-.57-.21-.88-.19-.56.03-1.08.1-1.64.12-1.08.05-2.16.03-3.24-.02-.79-.05-1.6-.1-2.4-.2-.48-.04-.96-.1-1.41-.16l-.77-.1a10.67 10.67 0 0 0-.86-.12c-.32 0-.6.27-.8.5-.33.46-.5.99-.45 1.54.02.43.1.84.24 1.25.14.4 1 .22.88-.17-.21-.65-.4-1.44-.07-2.11.08-.14.17-.29.3-.4.04-.06.04-.03 0 0 .01-.03.04-.03.04-.06.02-.02.02-.02.05-.02l-.46.1c2.83.38 5.71.7 8.57.6.57-.03 1.13-.08 1.7-.13.15 0 .31 0 .46-.02h-.03c.03 0 .05 0 .08.02 0 0-.12-.04-.03 0s-.07-.04-.02-.02c-.03-.07.05.02 0 0 .05.1.07.2.1.29.04.29.04.6 0 .89-.03.45-.1.88-.17 1.32l.16-.22c-1.41.94-3.4.86-5.01.72a28.64 28.64 0 0 1-4.92-.91l-.75-.22c-.04-.02-.4-.12-.19-.04a.65.65 0 0 0-.62.11c-.1.1-.12.27-.03.36.05.08.1.1.12.12z" />
    <path fill="var(--b, white)" d="M97.94 65.06s-.62 3.48-.16 3.7c.45.22 4.44.29 4.77-.17.34-.45-.79-4.32-.79-4.32" />
    <path fill="#002780"
      d="M97.53 65.14a19.36 19.36 0 0 0-.33 2.64c-.03.36-.1.96.19 1.24.24.24.8.22 1.1.24.6.05 1.23.05 1.83.03a10 10 0 0 0 1.7-.15c.43-.1.89-.26.96-.76.03-.46 0-.92-.12-1.35-.19-.98-.45-1.97-.72-2.93-.14-.45-.93-.07-.81.34.21.74.4 1.49.57 2.23.12.5.22 1.01.27 1.51v.34c0 .07.02-.07 0-.02-.03.04.04-.08.07-.1-.03.02.12-.07.02-.02.05-.03.12-.08 0 0-.05.02-.14.04-.05.02a8.57 8.57 0 0 1-1.34.17c-.58.02-1.18.02-1.75 0-.24 0-.48-.03-.72-.05l-.27-.02h.03l-.1-.03c-.05 0-.07-.05.03 0-.03 0-.05-.02.02.03l-.02-.03-.03-.02s.03.1 0 .02l-.02-.12c-.03-.19-.05-.36-.03-.55.05-.94.15-1.85.34-2.76.05-.22-.22-.31-.38-.29-.22-.02-.39.17-.44.39z" />
    <path fill="#002780"
      d="M98.59 66.22a8.67 8.67 0 0 0 2.09-.2c.12-.02.21-.07.33-.12a.5.5 0 0 0 .24-.14c.12-.14-.14-.1-.21-.07 0 0-.12.02-.05 0l-.12.02-.22.03a2.94 2.94 0 0 1-.45.04c-.3.03-.6.03-.9.03a1.11 1.11 0 0 0-.6.19c-.06.07-.3.22-.11.22z" />
    <path fill="var(--c, black)" d="m94.92 49.03-3.58-2.35-4 5.14 4 4.9s3.24-4.8 3.58-7.69z" />
    <path fill="var(--c, black)"
      d="m94.9 48.74-3.58-2.35c-.05-.04-.22-.12-.29-.02l-3.5 4.49-.5.64c-.1.1.02.3.09.39l3.5 4.3.5.6c.06.07.44.45.54.26a29.7 29.7 0 0 0 3-5.57 9.62 9.62 0 0 0 .6-2.16c0-.2-.12-.38-.3-.5-.06-.05-.38-.24-.4-.05a12.64 12.64 0 0 1-1.32 3.82 37.64 37.64 0 0 1-1.8 3.19c-.14.21-.26.43-.4.62l.52.27-3.5-4.3-.5-.6.09.38 3.5-4.48.5-.65-.28-.03 3.57 2.36c.12.07.32.12.32-.08s-.22-.43-.36-.52z" />
    <path fill="var(--b, white)"
      d="M93.21 47.64s2.14.27 2.4.72c.27.46 1.25 13.4.53 14.64-.72 1.25-5.33.17-5.76-.53-.43-.7-.26-5.4-.26-5.4s3.02-.72 3.36-3.02c.33-2.3.6-4.46-.27-6.4z" />
    <path fill="var(--c, black)"
      d="M93.36 48.02a10.93 10.93 0 0 1 2.02.46l.12.05c-.03 0 .02 0 .02.02 0-.02-.12-.14-.12-.17l-.03-.07s-.02-.12 0-.05c.1.56.17 1.1.22 1.66a127.23 127.23 0 0 1 .53 10.13c.02.77-.03 1.53-.15 2.3a.76.76 0 0 1-.3.53c-.4.26-.94.29-1.42.29a7.96 7.96 0 0 1-3.41-.7c-.1-.05-.17-.1-.24-.12l-.05-.02c-.05-.02 0 .02-.02-.03.02.05.07.1.1.15l-.03-.07-.02-.08-.03-.14a11.04 11.04 0 0 1-.12-1.54 66.57 66.57 0 0 1 0-3.1v-.18l-.1.12a5.6 5.6 0 0 0 2.33-1.18c.56-.46.92-1.06 1.1-1.73.25-1.08.37-2.16.37-3.26a8.44 8.44 0 0 0-.63-3.53c-.07-.17-.21-.4-.43-.46-.21-.04-.2.17-.12.3.84 1.91.55 4.07.24 6.09-.22 1.32-1.25 2.18-2.42 2.69-.3.12-.58.21-.87.3a.15.15 0 0 0-.1.15 48.2 48.2 0 0 0-.02 2.64c0 .63.03 1.27.1 1.9.05.43.1.93.38 1.3.3.35.77.6 1.23.74.6.21 1.22.36 1.84.45a6.61 6.61 0 0 0 1.95.08c.43-.05.96-.2 1.2-.6.1-.22.17-.46.17-.7l.1-1.18c.04-1.1 0-2.23-.03-3.36-.07-2.47-.24-4.94-.46-7.41a19.23 19.23 0 0 0-.24-2.02c-.24-1.05-1.58-1.2-2.47-1.34l-.43-.07c-.43-.03-.03.72.24.76z" />
    <path fill="var(--b, white)"
      d="M100.22 63.02s.22-11.47-1.44-14.01c0 0 1.03-.41 2.04 1.34s.94 11.74.94 12.27c0 .52-1.54.4-1.54.4z" />
    <path fill="var(--c, black)"
      d="M100.68 63.1c.02-1.37 0-2.74-.03-4.13-.07-2.43-.16-4.9-.57-7.3-.17-.93-.34-1.99-.87-2.8l-.24.47.08-.02c-.12 0-.03-.02 0 0h.02c.22.02.43.1.62.24a2.48 2.48 0 0 1 .92 1.37c.3 1.08.38 2.2.48 3.31.19 2.47.24 4.97.21 7.46 0 .27-.02.53 0 .8 0 .04.03.04.03 0 0 .02-.03.02-.05.02a1.22 1.22 0 0 1-.41.07 2.9 2.9 0 0 1-.46.03h-.1c-.06 0 .1 0 0 0h-.06a.44.44 0 0 0-.5.3c0 .25.16.44.37.44.53.02 1.2.05 1.68-.22.37-.21.37-.5.37-.86 0-1.08 0-2.16-.03-3.24a93.3 93.3 0 0 0-.17-4.51c-.1-1.23-.16-2.47-.48-3.65a3.58 3.58 0 0 0-1.32-1.92c-.43-.31-1.08-.53-1.58-.34-.2.08-.36.3-.24.48.43.7.58 1.5.74 2.3a28.71 28.71 0 0 1 .44 3.49c.16 2.18.24 4.41.24 6.6v1.44c0 .48.88.65.9.17z" />
    <path fill="var(--b, white)"
      d="M101.28 45.94c-1.3 1.6-2.4 1.41-2 2.64 0 0-1.99 2.44-3.19.3-.19-.33-.9-4.67-.1-6.3 0 0 1.2-1.35.34-2.64 0 0 1.54.74 2.64.21s3.1-1.85 3.8-.84c.7 1.01-.6 2.04-1.64 2.28l.56 1.7c-.94.7-1.85-.23-1.85-.23s-.27 1.32.14 1.68c.41.36 1.54.07 1.54.07.12.38.02.81-.24 1.13z" />
    <path fill="var(--c, black)"
      d="M100.82 45.94a6.37 6.37 0 0 1-.98.98c-.24.2-.48.34-.72.53a1 1 0 0 0-.36.48c-.03.1-.03.21-.03.33 0 .1.1.27.08.34-.03.07-.15.17-.2.22l-.47.43a3.36 3.36 0 0 1-.63.38c-.1.05-.24.05-.33.1-.03.02-.27 0 .1 0 .28 0 .11.02.09 0a.94.94 0 0 0-.22-.1c-.81-.5-.84-1.58-.93-2.42a12.4 12.4 0 0 1-.03-3.77c.03-.29.12-.55.24-.8.07-.14.2-.23.27-.38.43-.72.52-1.53.07-2.25h-.9c.44.19.9.33 1.38.38.76.12 1.58.12 2.28-.21a24.17 24.17 0 0 1 1.94-.94c.17-.05.31-.12.48-.14.07-.03.29-.03.05-.03s-.02.03.05.07c.29.17.45.5.45.84 0 .87-1.03 1.47-1.77 1.64-.03 0-.05 0-.07.02l.48 1.49c0 .05.07.17.07.21 0 .05-.24.15-.31.17l-.12.03.24.02-.15-.05a1.88 1.88 0 0 1-.62-.4c-.07-.08-.87-.13-.9 0-.09.47-.25 1.41.23 1.75.36.24.96.21 1.36.19.32-.03.63-.05.92-.12l-.84-.05c.14.31.07.74-.2 1.06.12.04.3.07.44.1.1 0 .38.04.45-.06.27-.3.36-.74.24-1.15-.05-.14-.72-.07-.84-.05-.17.05-.36.05-.53.1h.08l-.05-.02a.97.97 0 0 1-.22-.12.89.89 0 0 1-.17-.34 3.2 3.2 0 0 1 .05-1.34h-.89c.24.24.56.4.87.48.6.14 1.32.14 1.82-.22l.03-.02-.56-1.7-.07.02c.7-.17 1.46-.58 1.8-1.25a1.02 1.02 0 0 0-.46-1.35.4.4 0 0 0-.24-.07c-1.53-.33-2.76.58-4.08 1.18-.57.26-1.22.07-1.77-.2a1.13 1.13 0 0 0-.48-.04 2.1 2.1 0 0 0-.39.05c.41.67.41 1.53-.02 2.18-.1.17-.22.29-.31.46-.12.21-.2.45-.24.7a12.11 12.11 0 0 0 0 4.05c.12.89.2 2.06 1.2 2.42 1.15.39 2.23-.12 3.02-.93.12-.15.17-.15.12-.34a.86.86 0 0 1 .12-.8c.24-.23.5-.45.8-.64a5.88 5.88 0 0 0 1.1-1.08 1.4 1.4 0 0 0-.46-.07s-.26-.05-.36.05z" />
    <path fill="var(--c, black)"
      d="M94.82 47.52s-1.08 1.34-1.82.77c-.74-.58.24-1.03.24-1.03s-2.09-.77-.91-2.04c0 0-1.97-.3-1.83-2.02.15-1.73 2.43-2.33 2.43-2.33s-1.87.89-.31.07c1.56-.81 1.32-.26 1.32-.26s2.2-2.33 2.64-1.78c.43.56-.1 1.25-.1 1.25s.91 1.78-.48 2.43l.29 2.85c.57.29.96.87 1.03 1.51.1 1.1-1.8 1.66-2.5.58z" />
    <path fill="var(--c, black)"
      d="M94.44 47.28c-.24.29-.63.67-1 .74-.13.03-.32-.04-.27-.21.02-.07.12-.12.16-.17.03 0 .17-.1.08-.05l.05-.02c.36-.17.19-.58-.12-.7l-.08-.02-.12-.05a1.83 1.83 0 0 1-.45-.29c-.39-.33-.34-.7 0-1.08.24-.26-.17-.55-.39-.6-.1-.02.12.03.03 0-.08-.02-.15-.02-.22-.05l-.14-.04c-.03 0-.17-.08-.1-.03a1.53 1.53 0 0 1-.34-.19 1.38 1.38 0 0 1-.55-1.54c.24-.93 1.27-1.53 2.16-1.77l-.45-.67-.44.21-.3.15c-.08.02-.27.07-.1.04l.5.22v.38c-.1.12 0 .03.05 0l.31-.16c.31-.17.62-.32.94-.44l.07-.02c.05-.02.05.02.02-.02.05.04-.1-.03-.02 0a.53.53 0 0 1-.24-.22v-.1c-.17.46.57.63.81.36a14.26 14.26 0 0 1 1.83-1.58l.17-.1c.07-.02.1-.07.12-.04l-.22-.08c.03-.02.05.32.05.34a1.19 1.19 0 0 1-.2.48.37.37 0 0 0 0 .38c-.09-.16-.02-.04 0 0l.08.2c.07.16.12.36.14.55.08.5-.07.98-.52 1.22a.34.34 0 0 0-.22.31l.26 2.64c0 .17.03.32.12.46.05.05.12.1.2.14l.19.12c.38.34.81 1.04.38 1.5-.43.45-1.17.45-1.51-.06-.26-.38-1.08-.16-.77.3.67.98 2.43 1.12 3.12.06.6-.88-.2-2.18-1.05-2.59l.21.34-.29-2.86-.21.31a1.66 1.66 0 0 0 .98-1.7 3.1 3.1 0 0 0-.33-1.22v.38c.36-.5.48-1.3-.03-1.73-.4-.36-.96-.12-1.37.12a9.3 9.3 0 0 0-1.92 1.7l.82.37c.17-.46-.4-.72-.77-.68a3.99 3.99 0 0 0-1.13.41c-.26.15-.67.27-.86.5a.37.37 0 0 0 0 .39c.12.17.31.24.5.22.2-.05.39-.12.58-.22l.48-.22c.17-.07.24-.26.2-.43 0-.02-.03-.05-.03-.05a.54.54 0 0 0-.6-.19 3.96 3.96 0 0 0-2.19 1.44 2.24 2.24 0 0 0-.36 1.95 2.22 2.22 0 0 0 1.1 1.27c.34.19.73.31 1.11.38l-.38-.6a1.3 1.3 0 0 0-.03 1.83c.03.02.05.04.08.04.33.32.72.56 1.15.7l-.12-.7a1.2 1.2 0 0 0-.7.68c-.17.52.39 1.05.84 1.17.82.22 1.59-.43 2.07-1 .26-.44-.53-.85-.82-.51z" />
    <path fill="var(--b, white)" d="M96.43 42.74s-.98-.96-1.6-.16c-.63.79.86 3.45 2.2 2.37" />
    <path fill="var(--c, black)"
      d="M96.84 42.55c-.29-.31-.67-.5-1.1-.6a1.25 1.25 0 0 0-1.47.94c-.05.45.05.93.29 1.32.19.43.53.81.93 1.05.58.34 1.32.3 1.85-.14.15-.12.22-.34.05-.46a.54.54 0 0 0-.62.05c-.05.03-.1.05-.12.1l.04-.03-.02.03-.07.05c-.07.02.1-.03.02 0l-.07.02c-.02 0-.05 0-.07.02 0 0 .12 0 .07-.02h-.2c-.02 0-.11-.02-.04 0s0 0-.02 0l-.05-.02a.48.48 0 0 1-.12-.05l-.05-.03c-.05-.02-.1-.04-.12-.1l-.1-.09c-.04-.05-.02-.02 0 0l-.04-.05a2.28 2.28 0 0 1-.36-.48l-.08-.14c-.02-.05-.04-.07-.02-.05l-.02-.04c-.05-.1-.08-.2-.1-.27l-.07-.29c0-.04 0-.1-.03-.12-.02-.02 0-.07 0-.02v-.02c0-.08 0-.17.03-.24v-.05s-.03.07 0 .02l.05-.1c.02-.04-.05.08-.03.03l.05-.07c.02-.03.07-.05.02-.03l.03-.02.02-.03c.03-.02.03-.02 0 0-.05.03-.02.03 0 0l.03-.02c.02-.02-.1.05-.03 0h.1c.02 0 .1.02.05 0l.04.02.08.03.07.02s.02 0 .02.03c-.07-.05.05.02 0 0l.15.07.21.14c.03.03.17.15.03.03a.55.55 0 0 0 .6.07c.12-.05.36-.29.19-.46zM98 41.3c.12-.04.24.03.3.15v.02c.04.24-.25.29-.37.1-.05-.07-.02-.2.07-.27z" />
    <path fill="#002780"
      d="m95.13 41.06-3.55 4.37s-2.18-2.35-1.56-4.51c.99-3.43 4.92-1.85 4.92-1.85s2.76-.98 2.74-.5c-.03.48-2.55 2.5-2.55 2.5z" />
    <path fill="#002780"
      d="m94.73 40.92-3.12 3.82-.43.52.76.05-.04-.05-.17-.21a9.71 9.71 0 0 1-.55-.82 4.61 4.61 0 0 1-.8-2.54 3 3 0 0 1 .96-2.14 2.76 2.76 0 0 1 1.61-.6 4.52 4.52 0 0 1 1.4.17l.14.05.19.07c.17.07.36.1.55.07.41-.1.82-.26 1.2-.38.29-.1.58-.15.87-.22l.16-.02c.05 0 .08-.03.08 0h.02-.07l-.2-.1c-.11-.1-.02-.12-.07-.07l-.14.22c-.1.12-.2.24-.31.33-.27.27-.53.53-.82.77-.38.34-.77.67-1.17 1-.36.3.45.63.7.44a18.63 18.63 0 0 0 2.27-2.06c.29-.34.58-.77-.02-.99-.53-.19-1.2.03-1.7.17a15 15 0 0 0-1.37.43l.43.03a5.64 5.64 0 0 0-3.39-.27 3 3 0 0 0-1.9 1.61 3.9 3.9 0 0 0 .08 3.31c.34.75.77 1.44 1.32 2.07.17.16.6.24.77.04l3.1-3.81.43-.53c.28-.34-.56-.62-.77-.36z" />
    <path fill="var(--b, white)"
      d="m92.16 39.63 1.37.57c.1.05.21.07.33.1.07.02.15 0 .22-.03.14-.12-.17-.26-.24-.29l-1.37-.57a1.38 1.38 0 0 0-.34-.1.41.41 0 0 0-.24.03c-.12.12.2.26.27.28z" />
    <path fill="#002780"
      d="M103.58 43.49a5.71 5.71 0 0 0 1.3-.84c.1-.07.21-.15.26-.27.03-.1.03-.19-.02-.26a1.11 1.11 0 0 0-.39-.36c-.07-.02-.12-.07-.19-.12-.02-.02-.02-.02 0 0-.02 0-.02-.02-.02-.05-.03-.02-.03-.05 0-.05.02-.21.29-.36.43-.5l1.25-1.13c.17-.14-.03-.33-.17-.4a.64.64 0 0 0-.62.09l-.87.8c-.31.23-.6.5-.84.8a.58.58 0 0 0 .2.8l.26.17c.02.02.12.1.07.05.02.02 0 .02.02.02s0 0 0 .02l.08-.14c-.36.34-.77.6-1.2.82-.15.07-.32.24-.17.38.16.22.4.24.62.17zm0 1.1h2.07a.72.72 0 0 0 .55-.26c.07-.07.2-.34-.02-.34h-2.07a.72.72 0 0 0-.55.27c-.07.1-.2.33.02.33z" />
  </g>
</svg>
