<svg xmlns="http://www.w3.org/2000/svg" fill="none" viewBox="0 0 120 120">
  <g id="doc">
    <path fill="var(--b, white)"
      d="m64.08 108.62-3.74-38.06-9.68-19.58s-8.37 7.48-9.9 25.08A569.61 569.61 0 0 1 37 108.19" />
    <path fill="var(--c, black)"
      d="m64.51 109-.24-2.42-.6-6.14-.82-8.23-.84-8.67-.72-7.41-.45-4.54c0-.21-.03-.45-.07-.67-.08-.36-.34-.72-.48-1.03l-2.93-5.93-3.8-7.68-2.4-4.87-.11-.24c-.08-.15-.6-.82-.8-.65a17.82 17.82 0 0 0-2.7 3.29 38.22 38.22 0 0 0-4.95 10.32 51.64 51.64 0 0 0-1.85 8.06c-.5 3.39-.7 6.8-1.03 10.2a597.82 597.82 0 0 1-2 17.33 372.9 372.9 0 0 1-.74 5.45c-.12.84-.28 1.68-.36 2.52 0 .02 0 .07-.02.1-.03.21.29.47.43.6.05.04.4.33.43.14.34-2.19.63-4.35.92-6.53a626.54 626.54 0 0 0 1.94-16.44c.36-3.43.62-6.89.98-10.32a56.63 56.63 0 0 1 1.59-8.47 40.38 40.38 0 0 1 4.92-11.28 27.72 27.72 0 0 1 2.1-2.88l1.11-1.2.05-.05-.8-.65 1.74 3.48 3.67 7.42 3.34 6.74.86 1.75.07.17c.07.12-.07-.02-.02-.12-.03.05.02.17.02.2l.36 3.62.67 6.89.84 8.47.84 8.47.68 6.77.33 3.48.03.14c.07.24.21.46.43.6-.03.07.4.39.38.22z" />
    <path fill="var(--b, white)"
      d="m77.9 108.91 3.75-38.06 9.67-19.59s8.35 7.5 9.91 25.08a612.98 612.98 0 0 0 3.72 32.14" />
    <path fill="var(--c, black)"
      d="m78.4 108.62.25-2.42.6-6.14.81-8.24.84-8.61.72-7.42.46-4.56c0-.24.02-.45.07-.67.12-.31.27-.62.46-.91l2.93-5.95 3.79-7.66 2.4-4.85.12-.24-1.01.6c1.03.94 1.92 2.11 2.69 3.27a38.22 38.22 0 0 1 4.94 10.32 49.05 49.05 0 0 1 1.85 8.06c.5 3.36.7 6.77 1.03 10.15a597.91 597.91 0 0 0 2 17.33 372.9 372.9 0 0 0 1.12 8.06c.03.1.53-.19.58-.21.12-.07.45-.27.43-.43a304.65 304.65 0 0 1-.91-6.53 626.6 626.6 0 0 1-1.95-16.44c-.36-3.43-.62-6.89-.98-10.32a54.46 54.46 0 0 0-1.6-8.57 41.05 41.05 0 0 0-4.9-11.23 27.72 27.72 0 0 0-2.12-2.88c-.24-.27-.45-.53-.72-.8a6.36 6.36 0 0 0-.38-.4l-.05-.05c-.1-.1-.43.12-.5.17-.2.1-.39.24-.5.43l-1.73 3.48-3.7 7.49-3.36 6.77-.84 1.7a.81.81 0 0 0-.12.4l-.36 3.6-.67 6.9-.84 8.52-.84 8.47-.67 6.77-.34 3.48-.02.16c-.03.17.38-.07.43-.1.14-.09.57-.3.6-.5z" />
    <path fill="var(--c, black)"
      d="M80.57 97.73H61.9c-1.32-.36-10.97-13.1-11.19-15.03V22.85a3.37 3.37 0 0 1 3.36-3.36H87.9a3.37 3.37 0 0 1 3.36 3.36V82.7c.16 1.56-8.71 15-10.68 15.03z" />
    <path fill="var(--c, black)"
      d="M80.2 97.25H61.57l.12.02c-.12-.02.07.05-.02 0l-.12-.1-.05-.04-.15-.15-.1-.07-.02-.02a48.65 48.65 0 0 1-4.17-4.97 98.92 98.92 0 0 1-4.56-6.36 36.95 36.95 0 0 1-.72-1.18 10.49 10.49 0 0 1-.29-.52l-.12-.24c-.02-.03-.02-.08-.05-.12-.05-.08.03.07-.02-.05s-.1-.22-.12-.31l-.03-.08-.02-.07v-.1c-.02-.62 0-1.24 0-1.87v-58a3.28 3.28 0 0 1 3.29-3.05h33.77c1.24.02 2.3.7 2.54 1.94.07.58.1 1.15.05 1.73v58.75c0 .03 0 .12 0 0 0 .1-.03.22-.05.31-.24.7-.55 1.4-.94 2.02a54.02 54.02 0 0 1-1.77 2.98 71.74 71.74 0 0 1-4.59 6.48c-.6.76-1.24 1.5-1.94 2.2-.31.34-.8.84-1.27.87-.24 0 0 .43.05.5.14.2.38.43.62.43.55-.02 1.1-.6 1.46-.96a24.13 24.13 0 0 0 2.07-2.35 73.67 73.67 0 0 0 4.63-6.57c.6-.96 1.2-1.95 1.75-2.96.34-.62.72-1.3.89-1.99.05-.4.07-.84.02-1.27V23.26c0-.8-.24-1.56-.67-2.24a4.2 4.2 0 0 0-3.5-1.99H55.7a20.02 20.02 0 0 0-2.4.03 3.53 3.53 0 0 0-3.02 3.4v58.35c0 .5-.05 1.05 0 1.56.07.43.24.86.48 1.25.46.86.98 1.7 1.54 2.52a95.46 95.46 0 0 0 4.72 6.5c1.32 1.68 2.64 3.48 4.25 4.92.31.29.67.6 1.1.6h18.56c.24 0 0-.46-.05-.5a1.1 1.1 0 0 0-.67-.41z" />
    <path fill="var(--b, white)" d="M87.94 28.08H53.52v56.6h34.42v-56.6z" />
    <path fill="var(--c, black)"
      d="M87.58 84.24h-33c-.46 0-.92-.02-1.35 0h-.05l.77.86V29.04a1.77 1.77 0 0 0 0-.5c-.02-.1.05-.03-.05-.03h.12c.77.05 1.56 0 2.33 0h31.97l-.77-.86v54.31c0 .74-.02 1.47 0 2.2v.1c0 .22.29.48.43.6.03.03.41.36.41.22V30.79c0-.74.03-1.46 0-2.2v-.1c0-.17-.21-.39-.31-.5s-.29-.37-.46-.37H53.7a1.45 1.45 0 0 0-.46 0h-.05c-.02 0-.04 0-.04.05v54.29c0 .74-.03 1.47 0 2.2v.1c0 .17.21.39.3.5.1.13.3.37.46.37h32.98c.46.02.91.02 1.34 0h.05c.17 0-.12-.39-.17-.43-.07-.1-.33-.46-.52-.46zm-16.9 9.46a2.6 2.6 0 1 0 0-5.19 2.6 2.6 0 0 0 0 5.19z" />
    <path fill="var(--b, white)"
      d="M72.7 91.1a2.48 2.48 0 0 1-1.45 2.26 1.21 1.21 0 0 1-.96.05 2.14 2.14 0 0 1-1.08-.82 2.58 2.58 0 0 1-.19-2.71c.24-.4.58-.74.99-.98.16-.1.33-.15.52-.2a.88.88 0 0 1 .44.03c1.05.29 1.7 1.34 1.72 2.38 0 .28 1.2.28 1.2 0a2.8 2.8 0 0 0-1.96-2.62c-1.25-.4-2.84-.2-3.75.82a2.7 2.7 0 0 0-.26 3.24c.72 1.15 2.18 1.5 3.48 1.3a2.85 2.85 0 0 0 2.5-2.74c0-.3-1.2-.3-1.2 0zm1.41-66.24a.82.82 0 1 0 0-1.63.82.82 0 0 0 0 1.63zm-9.29-.38 4.18.07h.6a.75.75 0 0 0 .7-.48c.07-.29-.2-.45-.46-.45l-4.18-.08h-.6a.75.75 0 0 0-.7.48c-.06.3.2.46.46.46z" />
    <path fill="var(--a, blue)"
      d="M56.18 33.89h1.61a.88.88 0 0 0 .72-.46.36.36 0 0 0 0-.31.3.3 0 0 0-.29-.12h-1.6a.65.65 0 0 0-.41.14.66.66 0 0 0-.3.34.36.36 0 0 0 0 .31.38.38 0 0 0 .27.1zm.36 2.04h1.61c.12 0 .21-.05.26-.15a.62.62 0 0 0 .03-.36.8.8 0 0 0-.24-.38.51.51 0 0 0-.36-.17h-1.61c-.12 0-.21.05-.26.15a.62.62 0 0 0-.03.36.8.8 0 0 0 .24.38.51.51 0 0 0 .36.17z" />
    <path fill="var(--b, white)"
      d="M81.5 99.65s-1.94-10.61 4.1-17.98c0 0-4.1-20.57 1.95-20.78 6.05-.22 10.61 19.27 10.61 19.27" />
    <path fill="var(--c, black)"
      d="M81.96 99.72c0-.02 0-.05-.03-.1 0-.07-.04-.36-.02-.14-.05-.34-.1-.65-.12-.98a33.26 33.26 0 0 1-.12-3.46c.1-3.38.77-6.82 2.33-9.84a19.22 19.22 0 0 1 1.56-2.52c.21-.29.55-.55.48-.94 0-.02 0-.04-.03-.1-.1-.45-.16-.9-.24-1.34l-.19-1.17c-.02-.22-.07-.46-.1-.67l-.04-.36c0-.05-.03-.12-.03-.2.03.1-.02-.1-.02-.12a77.75 77.75 0 0 1-.4-3.4 42.23 42.23 0 0 1-.2-7.4c.07-1.03.24-2.04.53-3.02a4.87 4.87 0 0 1 .96-1.82l.05-.05.1-.1c.11-.12.26-.21.4-.31.07-.05.15-.07.22-.12.07-.05-.03 0 .02-.02l.15-.05c.16-.05.33-.07.5-.1h.22c.1 0 .19.03.28.03.1 0 .2.02.3.04l.09.03a4.8 4.8 0 0 1 .69.31c.1.05-.04-.02.03.02l.14.1.29.22c.1.07.17.12.24.19l.07.05c.07.04-.07-.08-.02 0l.14.12c.2.16.36.36.53.52.07.1.14.17.24.27l.12.14.1.12c.33.46.67.91.96 1.42.16.26.3.53.48.79-.05-.1.04.1.04.12.05.07.08.14.12.22l.24.43c.3.57.58 1.15.84 1.75a59.02 59.02 0 0 1 2.62 7.13 87.07 87.07 0 0 1 1.25 4.46c.02.07.02.15.05.22a.81.81 0 0 0 .57.6c.29.02.36-.24.31-.48a51.82 51.82 0 0 0-.52-2.07 89.39 89.39 0 0 0-1.52-4.92 50.04 50.04 0 0 0-2.35-5.88c-.84-1.75-1.8-3.5-3.1-4.94-.95-1.08-2.27-2.09-3.79-2.04-1.27.05-2.16 1-2.61 2.11a13.96 13.96 0 0 0-.9 4.95 43.29 43.29 0 0 0 .2 5.85 100.78 100.78 0 0 0 1.13 8.19l.02.14.03-.36a20.5 20.5 0 0 0-4.08 9.38 28.43 28.43 0 0 0-.27 7.42c.05.5.1 1 .2 1.51a.81.81 0 0 0 .57.6c.26.07.31-.19.29-.43z" />
    <path fill="var(--a, blue)"
      d="M69.24 74h-.55l.04-1.4c.36.02.72 0 1.1 0l.08 1.4h-.67zm-1.78-.13a9.63 9.63 0 0 1-1.2-.21l.32-1.35c.36.07.72.15 1.08.2l-.2 1.36zm3.68-.02-.2-1.37c.36-.05.72-.12 1.08-.2l.32 1.38c-.41.07-.8.14-1.2.19zm2.37-.5-.4-1.35 1.02-.36.53 1.3c-.38.14-.76.28-1.15.4zm-8.42-.03a16.2 16.2 0 0 1-1.15-.46l.6-1.27c.33.15.67.29 1 .41l-.45 1.32zm10.68-.89-.63-1.25c.34-.16.65-.33.99-.52l.72 1.2c-.36.21-.72.4-1.08.57zm-12.91-.14a15.23 15.23 0 0 1-1.04-.67l.84-1.1.92.6-.72 1.17zm15-1.06-.8-1.15a15 15 0 0 0 .9-.67l.88 1.08c-.31.26-.65.5-.98.74zm-17-.4c-.28-.27-.6-.58-.86-.87l1.06-.91c.24.26.5.53.76.77l-.96 1zm18.9-1.11-.97-1 .8-.78 1.03.96-.87.82zM59.25 69l-.68-1 1.2-.73c.2.31.39.63.6.91l-1.13.82zm22.12-1.03-1.08-.87c.24-.28.46-.57.68-.88l1.15.79c-.24.33-.48.65-.75.96zM58.01 66.9a15.28 15.28 0 0 1-.48-1.1l1.32-.5.43 1-1.27.6zM82.8 66l-1.2-.72c.2-.31.38-.62.55-.96l1.25.65-.6 1.03zm-25.68-1.32a20.5 20.5 0 0 1-.31-1.15l1.37-.31.28 1.05-1.34.41zm26.78-.8-1.3-.57c.15-.33.3-.67.44-1.03l1.32.48c-.15.4-.29.77-.46 1.13zm-27.33-1.53-.03-.17-.14-1 1.4-.17.14.96.02.14-1.4.24zm28.2-.67-1.35-.43c.12-.36.22-.72.32-1.06l1.36.34c-.12.38-.21.77-.33 1.15zM56.27 60a19.26 19.26 0 0 1-.04-1.18l1.42-.02c0 .36.02.74.04 1.1l-1.41.1zm29.07-.65-1.39-.26c.07-.36.12-.75.17-1.1l1.4.16a6.29 6.29 0 0 1-.18 1.2zm-27.72-1.68-1.41-.05c0-.4.02-.79.07-1.17l1.4.12c0 .36-.03.74-.06 1.1zM85.66 57l-1.42-.07.02-.75v-.33l1.42-.03v.39c0 .24-.03.5-.03.79zm-27.84-1.54-1.4-.21c.05-.39.15-.8.22-1.18l1.37.29c-.08.38-.12.74-.2 1.1zm26.37-.74c-.05-.36-.1-.72-.17-1.08l1.37-.26.2 1.2-1.4.14zm-25.9-1.4-1.34-.38.22-.7.16-.45 1.33.48-.15.41c-.1.22-.14.43-.21.65zm25.47-.71a8.8 8.8 0 0 0-.36-1.03l1.32-.5c.14.38.29.76.38 1.14l-1.34.39zm-24.7-1.35-1.27-.57c.17-.36.36-.72.55-1.08l1.23.67c-.2.31-.36.65-.5.98zm23.9-.67c-.16-.31-.33-.65-.52-.93l1.2-.75c.21.34.43.7.6 1.06l-1.27.62zm-22.82-1.25-1.17-.76c.21-.34.45-.68.72-.99l1.1.87c-.24.28-.46.57-.65.88zm21.65-.6-.02-.02a11.74 11.74 0 0 0-.7-.84l1.06-.94c.26.3.52.6.76.94l.03.02-1.13.84zm-20.28-1.12-1.03-.94c.26-.29.58-.58.86-.84l.94 1.03c-.27.24-.53.48-.77.75zm18.8-.53a10.97 10.97 0 0 0-.82-.72l.88-1.08c.32.26.63.53.92.79l-.99 1zm-17.2-.94-.85-1.1c.3-.24.64-.48.98-.7l.77 1.18c-.3.19-.6.4-.9.62zm15.46-.45a9.85 9.85 0 0 0-.93-.58l.7-1.2c.35.2.7.4 1.03.65l-.8 1.13zm-13.6-.72-.65-1.23c.36-.19.72-.36 1.1-.53l.56 1.28c-.34.14-.68.3-1.01.48zm11.7-.36a17.72 17.72 0 0 0-1-.41l.48-1.3c.39.15.77.29 1.13.46l-.6 1.25zm-9.69-.5-.45-1.33c.38-.12.76-.24 1.17-.33l.34 1.34-1.06.31zm7.61-.25c-.36-.1-.72-.17-1.08-.24l.24-1.37 1.2.27-.36 1.34zm-5.45-.29-.21-1.36c.4-.08.81-.12 1.2-.15l.1 1.4c-.37.02-.73.07-1.09.11zm3.3-.1a16.98 16.98 0 0 0-1.11-.04l.02-1.4c.4 0 .82.03 1.23.08l-.15 1.37z" />
    <path fill="var(--a, blue)"
      d="M69.24 74.11h-.67l.07-1.63h.12c.36.02.72 0 1.08 0h.12l.07 1.63h-.8zm-.41-.24h.96l-.05-1.15h-.86l-.05 1.15zm-1.25.15-.12-.03c-.4-.05-.81-.12-1.22-.21l-.12-.03.38-1.58.12.02c.36.07.72.15 1.06.2l.12.02-.22 1.6zm-1.17-.46c.3.07.64.12.96.17l.14-1.15a59.68 59.68 0 0 1-.84-.15l-.26 1.13zm4.63.43-.22-1.6.12-.03c.36-.05.72-.12 1.08-.2l.12-.02.36 1.59-.12.02a11.53 11.53 0 0 1-1.2.22l-.14.02zm.05-1.41.16 1.15c.32-.05.65-.1.96-.17l-.26-1.13-.86.15zm2.35.9-.48-1.55.12-.03c.33-.1.7-.24 1.03-.36l.12-.04.6 1.5-.12.06a22.01 22.01 0 0 1-1.15.4l-.12.03zm-.2-1.38.34 1.1c.31-.1.6-.22.91-.31l-.43-1.08-.81.29zm-8.08 1.36-.12-.04a22.93 22.93 0 0 1-1.15-.46l-.12-.05.7-1.49.11.05c.34.15.67.29 1.01.39l.12.04-.55 1.56zm-1.06-.67.91.36.39-1.08a10.82 10.82 0 0 1-.8-.31l-.5 1.03zm11.62-.19L75 71.14l.12-.05.96-.5.1-.05.83 1.41-.1.07c-.35.22-.71.41-1.07.58h-.12zm-.41-1.34.5 1.03c.3-.15.58-.29.84-.46l-.6-.98c-.21.14-.48.26-.74.4zm-12.4 1.2-.1-.05a9.71 9.71 0 0 1-1.04-.7l-.1-.07 1-1.32.09.07c.29.22.6.41.89.6l.1.07-.85 1.4zm-.92-.9c.26.2.53.37.82.54l.6-.99c-.24-.14-.48-.31-.72-.48l-.7.94zm15.84-.16-.94-1.34.1-.08.89-.64.1-.08L79 70.54l-.1.07a9.38 9.38 0 0 1-.98.72l-.1.07zm-.6-1.3.67.96.77-.57-.72-.89-.72.5zm-16.34.9-.1-.08a7.55 7.55 0 0 1-.86-.89l-.08-.1 1.23-1.07.07.1.74.76.1.07-1.1 1.2zm-.7-1.04c.22.24.46.48.7.7l.79-.84a7.08 7.08 0 0 1-.6-.6l-.89.74zm19.56-.07-1.13-1.2.1-.07c.26-.24.53-.5.77-.77l.07-.1 1.2 1.1-.1.1c-.26.29-.57.58-.86.84l-.05.1zm-.8-1.18.8.84c.24-.21.46-.43.67-.67l-.86-.8c-.17.22-.39.42-.6.63zm-19.72.46-.07-.1a9.5 9.5 0 0 1-.67-1.03l-.08-.1 1.42-.84.05.1c.19.31.38.6.6.91l.07.1-1.32.96zm-.48-1.13c.17.26.34.55.53.82l.93-.68-.48-.72-.98.58zm22.66.1-1.28-1.04.08-.1c.24-.28.45-.57.67-.86l.07-.1 1.34.94-.07.1c-.24.34-.48.65-.74.96l-.07.1zm-.94-1.06.91.72.58-.74-.96-.68-.53.7zm-22.54 0-.04-.12c-.17-.36-.34-.74-.48-1.1l-.05-.1 1.53-.6.05.12.43.98.05.12-1.49.7zm-.26-1.2c.12.29.24.6.38.86l1.06-.5a11.17 11.17 0 0 1-.34-.8l-1.1.44zm25.15.29-1.41-.84.07-.1c.19-.31.36-.62.55-.96l.05-.1 1.46.77-.05.12c-.19.36-.38.72-.6 1.06l-.07.05zm-1.08-.94.99.6c.16-.26.3-.55.48-.81l-1.04-.53c-.12.26-.28.5-.43.74zm-24.72-.4L57 64.7c-.12-.38-.22-.76-.31-1.17l-.03-.12 1.61-.36.02.12.3 1.05.02.12-1.59.48zm-.07-1.23c.07.31.17.62.24.91l1.1-.33-.24-.84-1.1.26zm27 .46-1.51-.68.05-.12.43-1 .05-.12 1.53.57-.05.12c-.14.36-.28.75-.45 1.1l-.05.13zm-1.18-.8 1.06.48.36-.86-1.08-.4a11.17 11.17 0 0 1-.34.78zm-26.3-.76-.05-.3-.14-1-.03-.12 1.64-.2.02.13c.02.31.07.62.14.96l.05.26-1.63.27zm.05-1.2c.05.28.07.57.12.88v.05l1.15-.19v-.02a11.78 11.78 0 0 1-.12-.84l-1.15.12zm28.3.52-1.57-.5.03-.12c.12-.36.21-.72.31-1.06l.02-.12 1.59.41-.03.12c-.1.39-.21.77-.33 1.15l-.03.12zm-1.25-.64 1.1.33c.1-.31.2-.6.26-.91l-1.12-.29-.24.87zm-27.41-1.04v-.12l-.07-1.2v-.12l1.65-.04v.12c0 .36.03.74.05 1.1V60l-1.63.14zm.17-1.2.04.94 1.16-.1c-.03-.28-.03-.6-.05-.88l-1.15.04zm29.1.58-1.6-.31.02-.12c.08-.36.12-.72.17-1.08l.03-.12 1.63.19-.03.12c-.04.38-.12.8-.19 1.2l-.02.12zm-1.34-.5 1.16.21c.04-.31.12-.62.14-.93l-1.15-.15a5.41 5.41 0 0 1-.15.87zm-26.35-1.2-1.65-.05v-.12c0-.41.02-.82.07-1.2v-.12l1.63.14v.12l-.07 1.1v.13h.02zm-1.39-.27 1.18.03c0-.3.02-.58.04-.87l-1.15-.1c-.05.3-.07.6-.07.94zm29.4-.43-1.66-.1v-.12c.03-.24.03-.5.03-.74v-.46l1.65-.04v.5c0 .26 0 .55-.02.84v.12zm-1.4-.31 1.18.05c0-.24.03-.48.03-.7v-.26l-1.18.02v.22c0 .24 0 .45-.02.67zm-26.42-1.2-1.63-.24.03-.12c.04-.41.14-.8.21-1.18l.03-.12 1.6.34-.02.12-.2 1.08-.02.12zm-1.36-.43 1.15.16c.05-.28.1-.57.17-.86l-1.16-.24c-.07.29-.12.62-.16.94zm27.5-.32v-.12c-.05-.36-.1-.72-.17-1.05l-.02-.12 1.6-.31.03.12.2 1.2.02.12-1.66.16zm.1-1.1c.04.29.1.58.12.84l1.15-.12c-.03-.31-.1-.62-.15-.94l-1.12.22zm-25.8-.29-1.59-.45.03-.12.21-.7c.05-.14.1-.31.17-.46l.05-.12 1.53.58-.04.12-.15.4c-.07.22-.14.42-.19.63l-.02.12zm-1.28-.62 1.13.31.17-.53c.02-.1.07-.19.1-.29l-1.1-.4c-.06.12-.08.21-.13.33l-.17.58zm26.6-.1-.03-.12a7.18 7.18 0 0 0-.36-1l-.05-.13 1.54-.6.05.12c.14.39.29.77.4 1.16l.03.12-1.58.45zm-.12-1.1.28.81 1.1-.33a10.17 10.17 0 0 0-.3-.91l-1.08.43zM59.1 51.4l-1.49-.67.05-.12c.17-.36.36-.72.55-1.08l.05-.1 1.44.8-.05.09-.5.96-.05.12zm-1.18-.8 1.06.49c.12-.27.26-.53.38-.77l-1-.55a27.09 27.09 0 0 0-.44.84zm24.96.13-.04-.1a18.42 18.42 0 0 0-.53-.94l-.07-.1 1.39-.86.07.1c.22.34.43.7.6 1.06l.05.1-1.47.74zm-.3-1.06.42.74 1.04-.52a9.53 9.53 0 0 0-.48-.84l-.99.62zm-22.42-.17-1.37-.91.07-.1c.22-.33.46-.67.72-.98l.07-.1 1.3 1.01-.07.1c-.22.29-.44.57-.65.89l-.07.1zm-1.04-.96.99.63c.17-.24.33-.48.5-.7l-.91-.72a6.05 6.05 0 0 0-.58.8zm22.64.36-.1-.12a11.74 11.74 0 0 0-.7-.84l-.07-.1 1.23-1.07.07.1c.26.28.53.62.77.93l.1.12-1.3.98zm-.53-1.03.57.7.94-.7c-.22-.26-.4-.53-.62-.77l-.9.77zM61.5 47.8l-1.2-1.1.1-.1.86-.87.1-.07 1.1 1.2-.1.07c-.26.24-.52.5-.76.77l-.1.1zm-.86-1.13.84.8c.19-.22.4-.42.62-.6l-.8-.87c-.2.21-.45.43-.66.67zm19.65.58-.1-.08a24.86 24.86 0 0 0-.81-.72l-.1-.07 1.04-1.27.1.07c.3.27.62.53.9.82l.1.07-1.13 1.18zm-.65-.92c.22.2.46.39.65.58l.82-.84c-.24-.22-.48-.43-.72-.62l-.75.88zm-16.56 0-1-1.3.1-.06c.33-.24.66-.48 1-.7l.1-.07.88 1.37-.1.07c-.3.19-.6.4-.88.62l-.1.07zm-.64-1.24.72.9.72-.5-.63-.96a4.3 4.3 0 0 0-.81.53v.03zm16.17.79-.1-.07a9.85 9.85 0 0 0-.93-.58l-.1-.05.82-1.41.1.04c.36.2.7.41 1.05.65l.1.07-.94 1.35zm-.79-.8.74.46.68-.96a7.51 7.51 0 0 0-.82-.5l-.6 1zm-12.91.08-.77-1.44.12-.05c.36-.2.72-.36 1.1-.53l.12-.05.65 1.5-.12.04a7.4 7.4 0 0 0-.98.48l-.12.05zm-.43-1.35.55 1.01c.26-.14.53-.26.79-.38l-.46-1.06c-.28.1-.6.24-.86.39v.04h-.02zm12.24.99-.12-.05a17.72 17.72 0 0 0-1.01-.4l-.12-.06.55-1.53.12.05c.38.14.77.28 1.15.45l.12.05-.7 1.49zm-.92-.65c.27.1.56.22.82.34l.48-1.06a6 6 0 0 0-.91-.36l-.39 1.08zm-8.88.12-.52-1.56.12-.05c.38-.12.79-.24 1.17-.33l.12-.03.39 1.59-.12.02-1.06.31-.1.05zm-.21-1.4.36 1.11c.29-.1.55-.17.84-.24l-.29-1.13c-.31.05-.62.15-.94.24l.03.03zm7.97 1.16-.12-.02c-.36-.1-.7-.17-1.06-.24l-.12-.03.29-1.6.12.02c.4.07.81.17 1.2.26l.12.03-.43 1.58zm-1.01-.48c.29.05.57.12.84.2l.31-1.11a61.24 61.24 0 0 0-.96-.22l-.2 1.13zm-4.63.2-.27-1.62.12-.02c.41-.07.82-.12 1.23-.14h.12l.12 1.63h-.12c-.36.02-.72.07-1.08.12l-.12.02zm.02-1.42.2 1.12.86-.1-.1-1.14c-.34 0-.65.02-.96.07v.05zm3.48 1.32h-.12a13 13 0 0 0-1.08-.05h-.12l.02-1.63h.12c.41 0 .82.02 1.23.07h.12l-.17 1.6zm-1.08-.32c.29 0 .58.03.86.05l.12-1.15a12.85 12.85 0 0 0-.96-.05l-.02 1.15z" />
    <path fill="var(--b, white)" d="M61.9 67.97s5.68-9.31 10.05-8.76c4.37.55 5.57 8.71 5.57 8.71" />
    <path fill="var(--c, black)"
      d="M62.45 68.09c.57-.91 1.2-1.8 1.85-2.67a23.05 23.05 0 0 1 4.17-4.46 6.9 6.9 0 0 1 2.33-1.27c.17-.05-.12.02.05-.03l.12-.02c.1-.02.19-.02.26-.05.05 0 .1 0 .15-.02h.02c.12 0 .22 0 .34.02.16.03-.12-.02.04 0l.17.03c.1.02.2.04.27.07.19.07.38.14.57.24 1.56.81 2.5 2.71 3.12 4.34.46 1.2.8 2.45.99 3.72.07.55 1.27.36 1.17-.19a17.64 17.64 0 0 0-.84-3.31c-.62-1.83-1.53-3.82-3.17-4.95a4.34 4.34 0 0 0-2.85-.76c-.99.12-1.92.45-2.74 1.03a19.69 19.69 0 0 0-4.75 4.6 27.57 27.57 0 0 0-2.4 3.37l-.02.04c-.3.58.86.7 1.15.27z" />
    <path fill="var(--b, white)" d="M65.66 63.96a12.37 12.37 0 0 0 5.26 1.8c1.85.17 3.8-.24 5.33-1.3" />
    <path fill="var(--c, black)"
      d="M65.09 64.06a12.4 12.4 0 0 0 5.85 1.87 9.63 9.63 0 0 0 5.86-1.51c.12-.08-.41-.1-.43-.1-.24 0-.5.05-.72.17a6.61 6.61 0 0 1-4.5 1.1c-1.74-.19-3.4-.89-4.91-1.77-.2-.12-.55-.03-.75.02-.04.02-.52.14-.4.22zm11.64-8.93s1.72-4.83-2.33-6.67c-4.06-1.85-9.4 1.3-9.72 6.67-.31 5.37 6.21 6.07 6.21 6.07l5.84-6.07z" />
    <path fill="var(--c, black)"
      d="M77.16 55.53a6.67 6.67 0 0 0 .36-2.56 5.6 5.6 0 0 0-2.6-4.42c-3.2-2.18-7.58-.67-9.54 2.47a7.23 7.23 0 0 0-.99 5.57 6.85 6.85 0 0 0 3.1 3.72 9.99 9.99 0 0 0 3.77 1.32c.19-.05.38-.38.5-.5l5.23-5.45.17-.15c.12-.12-.74-.93-.86-.81l-4.54 4.7-1.03 1.06-.27.26c-.1.1.03.03-.02.03-.24 0-.48-.05-.72-.12a9.26 9.26 0 0 1-1.4-.41 6.37 6.37 0 0 1-1.55-.8 2.91 2.91 0 0 1-.34-.23l-.1-.08-.09-.1c.07.08-.14-.16-.07-.06l-.15-.17a3.08 3.08 0 0 1-.24-.36c-.93-1.49-.81-3.4-.26-5.02 1.13-3.29 4.66-5.73 8.16-4.92.43.1.84.24 1.25.46.17.1.36.2.5.31.1.07.2.15.29.24.46.55.74 1.2.84 1.9a6.96 6.96 0 0 1-.22 3.14l-.04.17c-.05.14.26.4.36.5.02.03.48.41.5.32z" />
    <path fill="var(--b, white)"
      d="M76.56 59.52c1.53-1.85.17-8.52.17-8.52-1.08-1.7-6.75-.67-6.75-.67.8 1.7.5 4.53.5 4.53-.64-1.53-2.44-.88-2.37.63.07 1.51 1.85 1.94 1.85 1.94s-.5 3.2-.36 3.8c.14.6 2.93 1.46 4.42-.22.02-.05 1.22.12 2.54-1.49z" />
    <path fill="var(--c, black)"
      d="M77.06 59.83c.77-.96.84-2.42.84-3.6a28.95 28.95 0 0 0-.36-4.08 17.7 17.7 0 0 0-.19-1.1 1.44 1.44 0 0 0-.72-.91c-1.1-.72-2.62-.7-3.89-.65-.96.02-1.92.14-2.88.31a.54.54 0 0 0-.48.58 7.45 7.45 0 0 1 .55 2.88c.03.5 0 1.03-.04 1.53l1.12-.17a1.87 1.87 0 0 0-1.53-1.17 1.76 1.76 0 0 0-1.59.72c-.84 1.13-.21 2.59.87 3.29.31.21.65.36 1 .45l-.38-.55a25.08 25.08 0 0 0-.38 3.29c-.03.26 0 .53.07.79.12.24.31.43.55.55a4 4 0 0 0 2.11.5 3.81 3.81 0 0 0 2.79-1.2l-.53.22c.36.03.74-.02 1.08-.17a4.61 4.61 0 0 0 2-1.5c.47-.58-.56-1.16-1-.63a3.58 3.58 0 0 1-1.26 1.05l-.3.12s-.16.05-.06.03l-.08.02-.19.03h-.07c-.1.02.12.02.05 0-.39-.17-.75.36-1.03.55a2.48 2.48 0 0 1-1.23.4 2.12 2.12 0 0 1-.55 0 4.43 4.43 0 0 1-.55-.09 2.82 2.82 0 0 1-.48-.17c.12.07-.07-.05-.1-.07-.02-.02-.05-.02-.07-.05-.1-.07.1.1 0 0s.07.1 0 0c.12.15 0 .05.02-.02-.02.1 0 .1 0 .02v-.36l.12-1.22.27-1.97a.55.55 0 0 0-.39-.55 3.02 3.02 0 0 0-.24-.07l-.1-.05c-.02 0-.16-.07-.09-.05.07.02-.1-.05-.1-.05l-.14-.07a1.55 1.55 0 0 1-.79-1.06c-.05-.24 0-.48.1-.7a.7.7 0 0 1 .36-.33s.16-.05.04-.02c.05 0 .17-.03.05-.03.03 0 .2.03.15 0l.14.05c-.1-.05.05.05.07.05l.07.07c.1.12.2.24.24.39.22.48 1.08.38 1.13-.17a9.88 9.88 0 0 0-.57-4.8l-.41.79a22.1 22.1 0 0 1 2.16-.26 14.62 14.62 0 0 1 1.77-.03c.32.03.6.05.92.1l.12.02.19.05c.14.02.26.07.4.12l.17.07c-.1-.05.03 0 .05.03l.12.1c.12.09 0-.03.07.04.03.05.08.07.1.1.1.04-.1-.08-.02-.12v.04c.04.3.12.58.14.9.2 1.17.31 2.34.38 3.52.03.74 0 1.46-.1 2.18a3.4 3.4 0 0 1-.09.48l-.02.12-.07.22c-.05.12-.1.26-.17.38 0 .03-.03.05-.05.08.02-.05.02-.05 0 0-.05.07-.07.12-.12.16-.43.6.6 1.18 1.03.65z" />
    <path fill="var(--b, white)" d="M74.86 56.54s3.57.36 4.12-1.5c.56-1.88-2.01-2.65-3.96-1.02" />
    <path fill="var(--c, black)"
      d="M74.64 57.02c1.17.12 2.47 0 3.53-.5.76-.36 1.39-1.08 1.44-1.94.04-.94-.58-1.59-1.44-1.83-1.23-.31-2.55.2-3.5.99-.2.14-.34.48-.1.67.24.19.6.07.79-.1a2.57 2.57 0 0 1 .53-.36l.16-.07.08-.02c.12-.05.21-.1.33-.12l.12-.03.08-.02c.1-.03.19-.03.3-.05h.2l.31.02.12.03c.15.02-.1-.03.05 0 .07.02.17.05.24.1l.12.04c.12.05-.07-.05.02.03.08.04.15.12.22.16.02.03.05.03.05.05.1.1-.05-.07.02.03l.12.19c.03.02.03.07.05.1-.02-.1 0 .02 0 .04.02.1.02.2.02.29l-.02.14-.02.15c0 .02-.05.17 0 .05-.03.07-.05.14-.1.21-.1.12-.02.03 0 0a.42.42 0 0 1-.1.12l-.04.07c-.05.08.12-.1.02-.02l-.17.14c-.1.1-.05.05 0 0a.18.18 0 0 1-.1.05 1.12 1.12 0 0 1-.24.12c-.12.07.1-.02.03 0l-.1.05-.21.07-.24.07-.12.03c-.05.02-.05 0 .02 0l-.07.02c-.31.05-.6.1-.91.1h-.7c-.1 0-.22 0-.31-.03a.78.78 0 0 0-.75.41c-.1.17-.02.41.15.5 0 .03.05.05.12.05zm-3.07-.5c.07.46.28.89.64 1.2.2.2.41.36.63.53.12.1.26.17.4.24.03 0 .1.05.08 0l-.07-.1c-.05-.05-.08-.1-.12-.12l-.36-.31-.3-.22-.11-.04c-.05-.03.1.04 0 0s.1.07.05.02-.03 0 .07.05l.1.07.09.1.07.07c-.07-.07.07.07.03.05 0-.03-.03-.03-.03-.05.1.1 0 0 0-.03l-.02-.02c-.03-.02.02.05 0 0s-.07-.1-.1-.14a2 2 0 0 1-.14-.5v-.06c0-.04-.07-.12-.1-.14a3.7 3.7 0 0 0-.31-.29c-.1-.1-.22-.17-.34-.26 0 0-.16-.1-.16-.05z" />
    <path fill="var(--c, black)"
      d="M74.85 52.92c-.16.05-.26.22-.21.36l.02.05c.12.29.5.14.48-.15a.26.26 0 0 0-.21-.26c-.03-.02-.05 0-.08 0zm-2.18.17c-.17.05-.24.21-.22.36 0 .02 0 .02.03.05.12.3.5.14.48-.15.02-.12-.1-.24-.22-.26-.02-.03-.05-.03-.07 0z" />
    <path fill="var(--b, white)"
      d="M60.46 99.36s1.94-10.6-4.1-17.98c0 0 4.1-20.56-1.95-20.78-6.05-.22-10.61 19.27-10.61 19.27" />
    <path fill="var(--c, black)"
      d="M60.91 99.74c.22-1.34.31-2.7.29-4.05a24.73 24.73 0 0 0-1.51-8.86 18.1 18.1 0 0 0-3-5.2l.1.16c.14-.67.23-1.32.35-1.99a110.9 110.9 0 0 0 .67-4.82 59.94 59.94 0 0 0 .36-5.88c0-1.73-.1-3.53-.57-5.24a5.18 5.18 0 0 0-2.67-3.4c-1.2-.56-2.52-.03-3.48.74a13.52 13.52 0 0 0-3.12 4.2 45.93 45.93 0 0 0-2.5 5.69 71.65 71.65 0 0 0-1.7 5.3 67.17 67.17 0 0 0-.79 2.95l-.02.15c-.03.14.29.38.38.48.03.02.5.36.53.29.24-1.08.55-2.14.84-3.17a80.63 80.63 0 0 1 2.33-6.91 28.55 28.55 0 0 1 3.5-6.68c.99-1.3 2.55-2.85 4.35-2.44l.21.07.12.05c.05.02.1.04.07.02.03 0 .15.07.08.02-.08-.04.14.08.02 0-.07-.02.05.05-.05-.04l.05.04c.1.08-.12-.1-.02-.02-.1-.07.1.07 0 0 .1.07 0 0 .02.02a.33.33 0 0 1 .07.1 3.55 3.55 0 0 1 .36.58c.41.84.67 1.72.8 2.64.38 2.37.3 4.82.14 7.2a78.96 78.96 0 0 1-.8 6.67 58.82 58.82 0 0 1-.33 2.01c-.02.17-.07.34-.1.48l-.02.1c.02.07.05.17.12.22.17.21.34.4.48.62a20.64 20.64 0 0 1 3.65 10.18 26.8 26.8 0 0 1-.1 6.64c-.02.12-.02.22-.05.34-.02.14.3.38.39.46.02.02.53.36.53.28h.02z" />
    <path fill="var(--a, blue)"
      d="M15.98 14.33v-2.98l-.52.46 2.59-.31.36-.05c.2-.03.57-.2.53-.46-.05-.26-.46-.26-.65-.24l-2.6.29-.35.05c-.24.02-.53.19-.53.45v3c0 .1.14.2.21.22.15.05.3.07.44.02.24-.04.52-.16.52-.45zm23.64-2.79 2.07-.16-.63-.24.17 2.18.03.31c.02.24.45.24.62.24.14 0 .29-.05.43-.1.07-.04.17-.09.17-.19l-.17-2.18-.02-.31c-.03-.24-.46-.24-.63-.24l-2.06.17a1.13 1.13 0 0 0-.4.1c-.08.04-.18.11-.18.18 0 .24.46.24.6.24zM15 33.5l-.31 2.43-.05.36c0 .21.1.4.24.55.12.14.29.34.48.36l2.26.17.33.02c.24.03 0-.43-.04-.5-.12-.2-.34-.46-.58-.48l-2.26-.17-.33-.02.72.9.3-2.42.06-.36a1.01 1.01 0 0 0-.34-.67c-.05-.07-.43-.4-.48-.17zm26.83-.19v3.03l.77-.48-2.14-.03a.88.88 0 0 0-.72.39c-.12.26.17.33.36.33l2.14.03a.9.9 0 0 0 .5-.17c.1-.07.27-.17.27-.31v-3.03c0-.26-.34-.26-.53-.21a1.14 1.14 0 0 0-.43.19c-.07.05-.2.14-.22.26z" />
    <path fill="var(--b, white)" d="M28.97 27.74s8.78.9 10.15-3.7c1.37-4.58-5-6.5-9.74-2.51" />
    <path fill="var(--c, black)"
      d="M28.73 28.2c.94.07 1.85.1 2.78.05 1.78-.07 3.58-.36 5.19-1.1 1.68-.77 3.04-2.26 3.14-4.18a3.56 3.56 0 0 0-.82-2.57 4.58 4.58 0 0 0-2.37-1.37c-2.69-.67-5.57.46-7.63 2.19-.2.16-.31.48-.1.67.22.19.6.07.8-.1 1.63-1.37 3.79-2.23 5.92-1.92 1.59.24 3.03 1.25 3.1 2.95.02.6-.12 1.2-.39 1.73a2.28 2.28 0 0 1-.24.41 2.66 2.66 0 0 1-.72.74l-.21.17-.05.03-.1.04c-.16.12-.36.22-.52.32l-.27.12c-.17.07.12-.05-.07.02l-.1.05-.6.21c-.19.08-.38.12-.57.17l-.3.07-.16.05-.1.03c-.76.14-1.55.24-2.35.28-.38.03-.74.03-1.12.03h-.41c-.15 0-.3 0-.43-.03l-.84-.04a.78.78 0 0 0-.75.4.38.38 0 0 0 .15.5c.04.08.12.08.14.08zm.26-9.4s-.79.26-.48 1c.32.74 1.25.36 1.18-.36a.61.61 0 0 0-.58-.65H29zm-5.37.4s-.8.26-.48 1c.3.75 1.24.37 1.17-.35-.07-.72-.7-.65-.7-.65zm-1.35 7.58a2.34 2.34 0 0 0 .5 2.5c.68.7 1.78.84 2.67.55.22-.07.55-.29.55-.55 0-.26-.38-.24-.55-.2l-.07.03c-.07.03-.05.03.02 0-.05.03-.07.03-.12.03l-.14.02h-.05c-.1 0-.2 0-.29-.02h-.05l-.12-.03a.67.67 0 0 1-.26-.1c-.07-.02-.14-.07-.2-.09a1.8 1.8 0 0 1-.86-1.25c-.02-.19-.04-.38-.02-.57a.7.7 0 0 1 .05-.22 1 1 0 0 1 .1-.29c.09-.26-.22-.36-.41-.31-.36.07-.6.24-.75.5z" />
    <path fill="var(--a, blue)"
      d="M29.02 39.74c-.27 2.14-.31 4.35.29 6.44a9.1 9.1 0 0 0 2.9 4.6 6.65 6.65 0 0 0 4.94 1.61 5.7 5.7 0 0 0 4.1-2.35c1.02-1.49 1.06-3.94-.8-4.78-.25-.12-.75-.12-.85.22-.55 2.09.82 4.15 2.6 5.16 2.23 1.3 4.94.94 7.24 0a17.6 17.6 0 0 0 6-3.94 11.91 11.91 0 0 0 2.09-2.9c.58-1.15 1-2.35 1.73-3.43.62-.94 1.53-1.9 2.71-2.04.91-.12 1.85.29 2.18 1.17.2.5 1.35.46 1.1-.16-.35-.96-1.29-1.56-2.22-1.8a3.95 3.95 0 0 0-3.03.52c-2.13 1.32-2.71 3.94-3.91 5.98-1.2 2.04-3 3.5-5 4.66-2 1.2-4.53 2.3-6.93 1.77-2.06-.43-3.91-2.57-3.33-4.75l-.84.22c.57.26.79.93.84 1.5a3.08 3.08 0 0 1-.48 1.9A4.6 4.6 0 0 1 37 51.46c-3.1.43-5.54-2.4-6.38-5.1a15.2 15.2 0 0 1-.36-6.4c.04-.29-.24-.48-.48-.55-.3 0-.72.02-.77.33zm39.57-.43.72-1.68a.26.26 0 0 0-.02-.26.68.68 0 0 0-.34-.2.98.98 0 0 0-.45-.02c-.1.03-.27.08-.3.17L67.5 39a.26.26 0 0 0 .02.26.68.68 0 0 0 .34.2.98.98 0 0 0 .45.02c.1-.02.24-.07.3-.17zm1.37.22 1.9-1.01c.05-.02.48-.24.31-.34-.1-.02-.2 0-.29.03-.14.05-.29.1-.43.17l-1.9 1c-.04.03-.48.24-.3.34a.59.59 0 0 0 .28-.02c.14-.05.29-.1.43-.17z" />
  </g>
</svg>
