<svg xmlns="http://www.w3.org/2000/svg" fill="none" viewBox="0 0 120 120">
  <g id="doc">
    <path
      d="M32.1 105s-6.4 0-6.4-4.7V19.7c0-4.4 3-4.4 6.4-4.4s32-.7 36.2 0 25.5 22.8 25.5 26c0 3.4 1.1 54.3 0 59s-7.6 4.7-7.6 4.7z"
      fill="var(--b, white)" />
    <path
      d="M93.3 61.3v1zM95 89.8V89v2.7l-.1 2.8q0 2.8-.5 5.9l-.4 1.1c.9-2.5.1.1-.4.7l-.2.4q-.2.5-1.8 1.6c-1.4.7 0 .2-2.6 1 2-.6 0 .2-1.5.4h-3.4l-1.2.1h-8 .9-22.1.6H48h.8-6.2 1.7-5H41h-4.8.1-4.3q.6 0 0 0c-.6 0-1.6-.2-1-.2l-1.2-.1-1.7-.6.5.2.6.2c-.3 0-1.4-.5-1.4-.5l.8.3c-.2 0-1.2-.4-1.8-.9l-.4-.3 1 .7q-1-.7-1.6-1.5l.2.4-.2-.3q-.4-.3-.9-2l.3 1 .4.8-.1-.3a5 5 0 0 1-.6-2.4v-5.9.1-8.8.5-3.5 2-3 .9-3.4.1-.8.1c0-.5 0-1.1 0 0v-6.7 1.3-4.5 1.8-3.4 1.1-15.9.9-4.8 3.4-12.7 8.4V39v.4-5.3 2-8.9V31v-9 2.1-4.5c0-1.6.6-3.7 2.4-4.4 1.6-.7 3.2-.6 4.7-.6l5.7-.1h2-1.3 5l1-.1h3.3-.5.7-.2 6.9-2.4 9.6-.1 1.5-.1 1.5-1.2 2.4-1 2-.4l1.8.2H68l-.7-.1h.5l.6.2-.6-.1h-.4.9l-.4.1h-.7.6l.5.1-1.4-.1.5.1h-.6l1.2.1h-1.4.8-.8.2-1.5.2-.5l1.8.1s-1.9-.1-.2 0h.5c.2.1-1.1 0 .5.2-3-.2-.4 0-.8 0h-1.4.6-.7 1.3c.4 0-.1 0 0 0l.7.1h-1 .2-.6.5-.7c-.3 0 1 .1 0 0l2 .2c-2.4-.2-3.3-.1-.5 0h-2 .7c-2 0-.1 0 0 0H56c-.4 0 0 0 0 0h-3.8.6-1.1l-14.2.2h3.2-5.4 1.4L33 16h.3-2.7l-1.2.1 1.2-.1H32l-2.5.1h4.2l1.5-.1h2.2-3.3.2-1 .2-1.9c-1.6 0-3.4 0-4.3.9l-.2.1q-.2.1-.6 1l-.1.6v6.3l-.1 2.4V26v3.1-2 8.1-.3 1.8-.5 1.6-2.4 6.7-.3V46v-.4V49v-4.1 7.9-.5c-.1.7 0 10.4 0 12.3l-.1.1v22.8-3.8 4.3-.2 4V90v10.2q0 1 .3 1.5l-.2-1q.3 1.4.5 1.5l-.2-.5c-.3-.6-.3-1.3-.3-1.3s0 .9.4 1.6 1.1 1 .8.9l-.6-.6q-.4-.6 0-.1l.9.9-.7-.5-.5-.7q.5.8 1.4 1.4l.4.2.4.2 1 .3c2 .4 2.3.3 1.7.3h10.1-.7 3.5-.2 2.1-.3 15.6-4H60s-.6 0 0 0h3.2-1 4-.9 4.2-3.1c-.3 0 0 0 0 0h-1.7 17.4-.9 5.4-.5v-.1H84l3.1-.1c.1 0-.5 0 1.4-.3q1.5-.4 3-1.3c-.2 0-.6.4 0 0 .3-.3 0 0 0-.1.2-.1 1.2-1 1.5-2.4.4-2 .4-5.3.4-6v-5.8q0-.1 0 0v-6.1l.1 2.8V73v.3-3.7V71v-2.4.6-3.4.1-2.1.4-3.4c-.1.5-.1-1.9-.1-1.7v-3.4l-.1-2v-3.3 2-4.6l.1.6v-.8V49c0 1 .1-.3.1-.6v.2-1 .1-1c0-.1 0 2.2.1 2v-2.1 1-.3s0 .8 0 0V46v.8c0-.1.1 1.2.1-.4v1.8-1.8.1l.1-1v-.3l.1 3.2v-3.8c0-.7 0 0 0 0v-.7 3.7-.8 1.1c0-1.8 0 0 .1.4v.2V47l.1 2.7v-3.5.6l-.1-2v-1.1.7-.7V46l.1 1.3v.9V44 46v-.2l.1 2.4v-.8 1-2.9l.1 4.2v-2.3l.1 4.4V53l.1-1.6.1 2.7v1.4-1.9 1.6l.3 5.4v-.2 10.3l.2 8.8V79 82v-1.5 8.3-.6zm-1.7-26.2V62c0-.7-.2-1.9 0-1.4zm0 15c0-.7.1-.2.1.4zm-4 25c.7-.2.2 0-.2 0zm.4-.2c.5-.1 1.4-.8.7-.3zm3.5-27.3v1.1zm0 18v-2.7zm-.5 6.1.1-.7v.6q-.1.3 0 .1m-10 4h-1 .6-.4 1.5zm-6.6 0h-2.1.2-1 2.9m5.6 0h.2zm-.7.1h.7zm12.1-16.9v-.8zM88.7 104l.6-.2c-.9.3 0 0 0 0zm-24.1.4h1.3zm16.2 0h-1.7zm-54.4-70v.5zm57.5 70h-1.3zM26.4 31.2c0-.9 0 .1 0 0v-1zm0 .9v.1zm23.8-16.3h4.2-4.2m-6.2 0h1-1m27.5 88.5h.4zM26.4 32.5v3.3zm0 25v.4zm59.1 46.8q.8 0 0 0m-59-51.5q-.1 3-.1-1v1m-.1 7.8v-2.8 2.8m0-5.1v-1.3zm11-39.5h1zm56 47v-1.1zm-24 41.5h-1.7 3.7-1.9M41 15.9h2.6zm-14.7 18v-.4.9-10 9.5m67.2 29.3v-1.5zm-65-47-.9.4.4-.1zm28.8 88h-.6zm-14.3 0h-1zm-16.5-4v-1.5 1.5m11-84.4h1.2-1.2m-11 35.4V50zm67 6.8v-1.8zm-14.7 46.2H80zm-50.3-.8-.6-.4.3.2zM33.9 16h1.8zm-7.2 85.8zM26.3 22v.4zm67.2 40.6v-1.5zM26.3 59v-.6zm0-21.5v1-1m0 39.5v-1.7zM77 104.4h1.6zM37.4 15.9H37zm-9.2.4-.8.4.3-.2zm-1.9 59v-1.4zm0 22.5v-2.5 2.5m9.4-81.9H32c-2.3-.1-5.6.5-1.6 0h5.2m4.9 88.5h-.9zm5.8-88.7h.5zm16.7 0h.6zm-11.7 0h-1zm3.7 88.7h.9zm-4.3 0h-1.3zm3-88.8h1zm8.7 0h-2.2zm20.8 88.8h1zm-25.6 0h-1zm-19.8 0h.5zm25 .1h-2.5H62h-4 4.9m-21.2 0H41zm-.9 0h-1.2zm41 0h-.3zm2.6 0h2.2-2.2m-2 0h.4zm-3.4 0h1.6-2.1zM67.3 15.7h.9zm26.5 32.8v-.7V49zm0-1.6s.1-.2.1.5v-2.6zm.1-4.6v.8-.8m0 3.2v.9-.9M60.9 14.7h-.1zm33.3 28.6V43zM60.5 14.7H60 62zm-3.2 0h1.3zm-3.8 0H52zm-.8 0q-.8 0 0 0m-3 0h-.2zm10-.1h-1.3 5.7-4.4c-.4 0 0 0 0 0m-13.9.1h.2zM94.2 42v3.2-3.7zM53.5 14.6h-1.2 3-.2 2.5H54zm11.1 0h-1.8zm-12.8 0h.2zM94.2 43v2.4zM65.6 14.7l-2.9-.1h.1-2s.3 0 0 0h4.8M45 14.6h-1.3zm49.5 35.2v1.1zm-34-35.3h1.8zm-15.8 0h1zm7.5 0h5-5m8.5 0h2.8zm-9 0H53zm-6.2 0h-1.8zm15.1 0 .5-.1zm33.9 36.7V54v-2.6.3zM61.4 14.4h2.2zM25.1 96.1v1zm3.4 8.9.6.2zM25 59.6v.2zm0-.2v-.9zm25.3-45h-2zM25.8 103q.2.3 0-.2l-.3-.5zM25 36v-.7zm0 28.4v1.5zm0 35.3.1 1.4c-.1-1 0-.3 0-.8zm0-42.8v.5zm-.1-8.4v.9zM25 34v-2.2zm0-7v-.6.2-6.8c0-1.2.2-2.8 1.3-3.8s2.4-1.1 3.2-1.2q-1.4.1-2.6.8-1.5.9-1.7 2.4l-.1.9c0 .5-.1.8 0-.1v8.2m6.3 78.8h2.1-2.1M25 98.3v-1.5c0-.3 0 0 0 0v-.2 2zv-2.6 5.1l.1.5.2.7-.2-1v-2.6m0-3.9v.3-5.8 6.9zm0-52.3v-1.4zm70 52.1v1.3zm-2.5 9.5.7-.7zM25 76.3v-.9zm51.9 29.5H78zm-51.9-49V55zm0 8.8v.3zm0-7.5v1.3zM95 91.7v1.7zm-70-16V74zm0-27.4v-1.7zm-.1 4.1v-.8zm68.3-14.1v-.1zm-3.7-2.3-.2-.1v-.1l-.3-.3-.6-.8c.2.3 0 0 0 0l-.3-.3-.2-.3q.1.2-.2-.1l-.3-.4-.1-.1v-.1l-.7-.6q.2-.1 0-.2 0 .1 0 .1l-.3-.4-.2-.1-.5-.7-.2-.2-.2-.2q.2.1-.1-.2c0 .2-.5-.4-.6-.5l-.3-.4-.2-.2-.2-.2q.2.1 0 0l-.2-.1-.1-.2c-.4-.3 0 0 0 0l.1.1v-.1l-.2-.2-.3-.2.2.2-.1-.2q-.2-.1-.2 0v-.1q-.2-.1 0-.1h-.2v-.1l-.1-.2q-.2 0 0 0l-.2-.1-.3-.4.2.3c.1 0-.2-.2 0-.2h-.2l-.1-.3q0 .1 0 .2v-.2.1l-.1-.1-.2-.2-.2-.2.2.2-.5-.6-.3-.3-.3-.3h-.1l-.3-.4-.2-.2q-.2 0 0 .1l-.2-.1-.1-.2.2.2-.3-.3h-.1q.2 0-.2-.3-.2-.2 0 0l-.1-.2H79l-.1-.2-.2-.2-.1-.1v.1q0 0 0-.1l-.3-.2v-.1q-.2 0 0 .2l-.3-.4.2.1-.6-.5-.2-.2v-.1L77 23l-.1-.1-.4-.3h.2l-.4-.3-.2-.1.4.3q0 0-.1 0l-1.2-1.2.7.7q.1 0 .2 0l-.7-.5-.2-.3h-.1l-.4-.4.1.2-.6-.5-.1-.2-.2-.2.1.1.2.2.1.1-1-.9.3.3q-.3-.3-.3-.4l-1.8-1.4-.2-.2.1.1-.5-.4h-.1l-.2-.2-.1-.1q-.2-.2 0-.1c.6.4 0 0-.2 0l-.3-.4-.3-.2.3.2-.5-.3s.3.1 0 0q-.1-.1-.1 0l-.3-.2-.3-.2h-.1l-.2-.1h.1-.3.2-.4v-.1h.4q-.4 0-.3-.1 0 0 0-.1h.1-.1.2l-.1-.1h.3l-.2-.1q.2 0 0 0v-.1h-.1.1q.1 0 .2 0l-.1-.2h-.1.2q.2 0 0 0l-.2-.2q.6 0 0 0h.2q.2 0 .2 0 .2 0 0 0h.3l.4.3h.3v.1l.3.2.4.3q0-.1 0-.1l.1.1 1.7 1.2-.4-.3.7.5-.2-.1.4.3q.1 0 0 0l.3.2.3.2q0 0-.1 0l-.2-.2-.1-.1.3.2-.3-.3H73l-.1-.1-.2-.2q0 .2-.2-.2l.4.3.3.3.5.4.2.2.2.1.1.1.4.3.3.4V19l.3.2-.2-.2c0 .2.8.8.8.8l.2.2.1.1q-.1 0 0 0l-.2-.3.7.7q-.2 0 0 0 0 .1 0 0l.2.2.2.2.3.3-.2-.2-.3-.2.1.1.6.6h.1l1.2 1.3.3.2.2.2.1.1.6.6.3.4q.1 0 .1 0l.5.4v.1l.2.2-.3-.3.4.4.2.2-.2-.2.3.3.1.1-.2-.1.7.6.3.3.3.3-.1-.2.1.1-.1-.1.3.3q-.1-.2-.1 0h.1q-.1 0-.2 0l.2.1.1.1q.1 0 .1.2c.5.4.2 0 0-.2l.2.3h.1l.6.7.3.4.3.3.2.2h.1l.1.2.3.2c-.3-.3 0 0 0 0l.2.2q-.2-.1.1.2l.2.2.2.3.2.2h.1L86 30l.3.3.2.2v.2l.3.3.1.1.2.2-.1-.1q-.2-.1 0-.1h-.1v-.1q-.2-.1 0 0l-.2-.2h.1l.3.4.1.1.2.2.2.2.1.2h.1l.1.1.1.1.4.5.2.2.3.3-.2-.3.2.2q-.2 0 0 0l-.2-.2.3.3.1.2.4.3.9 1.1.2.2.3.4.6.7-.4-.4.1.1.2.2v.1l.2.2c0 .2.6.9.7 1q0-.1 0-.1v.1l.3.3-.1-.2.2.3q-.2-.2 0 0l.2.4v.1l.1.1.2.3v.1l.2.2.3.4.2.3.1.4-.1-.2.1.3q.1.3 0 .2l.1.2v-.1.1l-.1-.2q0 0 0 .1v.1q0 .1 0 0v.2l-.1-.3.1.3v-.1h-.1v.3c-.1-.5 0-.2 0-.1s-.1-.2 0 0l-.2-.2.1.3q0 .2 0 0v.2l-.2-.5.2.5v.1l-.2-.5v.2-.2c0 .3 0 0-.1 0v.2l-.2-.3c.2.3.2 0 .3.4v-.1.2h.1v.2-.1s0 .4 0 0q0 .3-.1-.1l-.1-.3q0 .1 0 0v.4q0 .2 0 0v-.2l-.2-.2q0-.1 0 0l.1.3-.2-.5v.3q0-.2-.2-.5c.2.5-.1-.1-.1-.1v.2l-.2-.3-.1-.1q0 .1 0 .2v-.2c-.3-.4-.3-.2-.5-.6l-.8-1.1-.6-.7-.2-.3-.2-.2.1.1-.7-.9zm3.5 2 .1.2.2.2zM89 33.3l.2.2zm2.7 3.3-.1-.2zm-1.6-2 .2.2zm-1.8-2-.1-.1zm-.7-.7-.1-.1v-.1l-.1-.1.1.1v.1zm.6.6zm4.4 5.4.1.1M89 33.1zl-.2-.1zm-2.3-2.6.1.2zm-12-11.8q.4.4 0 0m2.8 2.5h-.2v-.1zm10.7 11-.1-.1zm.3.3q0 0 0-.2zm-1.7-2-.2-.1zM76.3 20.3zm-6.2-5 .2.2zm5.3 4q-.1 0-.1 0M71 16l-.4-.3-.1-.1zm.7.5-.1-.1zm-.6-.4V16m4.4 3.6.4.3zm2.2 2q.3.3-.2-.1c-.2-.3 0 0 .1 0m.9.8c.2.3-.2-.1-.3-.2q.2.1 0 0zm-.5-.5zq0 .1 0 .1m-5.4-4.7-.1-.1M93 38.4v.1zM76.5 20.5l.2.2zm-1.4-1.2h.1m18 19.3v.1zM87 31.2l-.2-.2.4.4zM72 16.8l-.3-.3zm.1 0q0 0-.1 0zm3.4 3-.3-.3-.1-.2-.6-.4.2.1.7.7zM93 38.3l.2.2zM73.5 18l.1.1m10.9 10.4-.1-.1zm-2-2-.1-.1zm-10-9.3h-.2q0-.2 0 0zm5 4.3h-.2zM93.3 39l.2.2zM88 32.2l.1.1zm-5-5.3v-.1m2 2.1-.3-.3zM73 17.4l-.2-.1zm9.8 9.2zM93 38.3v.2zM78.7 22.6l-.3-.2zm9.5 9.8v.1M76 20.1h.1s-.3-.3-.1 0M80 24l-.1-.2zm7.7 8 .2.2zM72.5 17.1zm1 .9h.1m6.4 5.8h-.2zm2.2 2.3-.1-.1-.1-.1zm3 3q0 .2 0 .2zm-1.4-1.5.1.2zm1.6 1.8zM72.5 17.3l.2.2.4.3v-.1l-.4-.2zm11 10.2v.1m4.2 4.4q0 .1 0 .2zm-3.6-3.8c-.2-.3 0 0 0 0zM70.8 16h.1zm14.9 13.7v.1m-.5-.5-.1-.2zM70.5 15.8l-.2-.1zm-1.2-.6.3.2zm3.2 2.1.1.1q0 0-.1 0m15.9 15.4v.1M85.9 30l-.1-.1zM84 28q.2.1.1 0m9.6 11.5zm-7.2-9h-.2v-.2l.1.2-.4-.5.1.1v.1zm-2-2.3h-.1zm2.2 2.5-.1-.1zm-1.3-1.5.1.2zm-1-1L84 28zm4.1 4.6.2.2zm-.6-.6.2.2zM68.5 15h-.1zm25 25.5h.1m0 .2v.3zm0 .7v-.1m-.1-.3v-.1zM69.2 16.1l-.2-.2c.3.1.1.1.2.2m.4.1h-.2zm.4.3.2.1zm0 0h.1m-.9-.4q.2 0 0 0h.2zV16l-.5-.2zm1.7 1q0 .2 0 0m22.5 24.2-.1-.3zM70 16.6v.1c.2 0-.2-.2-.2-.2.4.2-.3-.2 0 0q-.2-.1-.1 0l-.2-.1.4.2zm-.5-.3.2.1zm-.8-.4h.2zm24.6 25.3V41zM68.5 16l.4.1.2.2-.5-.3m.3.2h.1zm.4.2h.1zm1.6 1 .2.2zm22 23.2v-.1zM70.1 17l.6.3zm-1-.6-.2-.2zm1.8 1.1q.1 0-.1 0zm-.9-.6-.5-.3.2.1zm0 .1q-.2-.1 0-.1m.9.6.2.2zm-.1 0 .1.1q-.2-.2-.1 0m.6.3.2.2zm21.3 22.6v-.2l-.1-.1zc.1 0 .2.3 0 0M69 16.2q-.2 0-.2 0zm12.3 10.6v.2zm.9 1q.1.2.1 0zM80.3 26h.1m-10.2-8.9.2.1zM75 21q0-.1 0-.1zm-.7-.7.1.1zm18.3 19.8zM78 23.7l.2.1zm3.6 3.5.2.2zm-2-2 .1.1m-8-7.2h-.1q0 0 .1 0m4.7 4q0 .1 0 .1m-1.6-1.4-.2-.2zM74 20h-.1l-.1-.2-.2-.1-.2-.1v-.1l-1-.7.6.4q.2.1.1 0zm8.4 8 .2.3zm-1-1q-.1 0-.3-.2h.1zq0 0 0-.1l-.3-.2zl.2.2zm-.4-.4-.4-.5-.1-.1.1.1.1.1.2.2.3.3zm-5.3-5.2-.2-.1zM89 35.7l-.1-.1zM79.2 25zc0-.1.2.2 0 0m8.1 8.5c.1 0-.2-.3 0-.2zm-.4-.5.1.2zM77 23l-.2-.1zm.9.9q-.8-.8 0 0m-.8-.7h.1zm12 12.7v-.2q0 .1 0 .2M79 25l-.2-.2zm-2.8-2.7-.2-.1zm13.6 18.6h-.3zm-5.6 2h-4.5l-.3.1h-1.6.2-3.4l-1-.1h-1.3.2-.5c.4 0 0 0 0 0h-.3l-.3-.1h-.1c-.6 0 0 0 0 0h.3-.2l-.3-.1q-.2 0 0 0h-.5q-.2 0 .4 0h-.6q-.2 0 0 0l-.2-.1H70q-.2 0 0 0l-.4-.1h-.2q-.2 0-.1 0l-.8-.3.6.2c.2 0-.5-.2-.2-.2h-.3l-.4-.2.3.1-.4-.2.2.2-.2-.2c-.3-.2-.6-.5 0 0l-.5-.5v.1l-.3-.4.3.3-.5-1.1-.2-.7-.1-.6v-.2l-.1-.7v-.3c-.1-.4 0 .2-.1 0v-.6.4-.6q0-.2 0 .1V37l-.1-.2s.1.2 0-.4v-.1q0-.2 0 0v-1.3.2-.3l-.1-.4v-.2.4-.7.2V31v.2-1 .7-.2l.1-2.4V30v-1.7q0 .1.1.1v-1.1.4-1.8l.1.1v.7-1.4l.1-.6.3-3.2V21v.2V20l.1-.2v-.4s.1-.3.1 0v-.2l.1-.7.1-.5v.5-.8c.1-.4 0 0 0-.2V17q0 0 .1 0v-1 .3-.5.2-.7.2l.1-.2v.2-.2.7-.4l.1-.2v.1-.2.3l.1-.1v.1l.1-.2v.3-.2.4l.2-.3s0 .4 0 0v-.1c0 .6.1 0 .1.2v.2-.1.2l.1-.3v-.1.2q0 0 .1 0s0 .3 0 0v.1l.1-.4v.5l.1-.4v.4-.1c0 .4 0 0 0 0v1.9q0 0-.1 0v.8-.1.2l-.3 2.8V21v1-.2 1.6-.7.5V22l.1-.4v1.1l-.1 1v.4h-.1v1.1l-.1.7v-.2.6-.4 1.6l-.1.3v.3-.2.1-.4 1.3c0 .2 0-.3 0 0-.1.3 0 0 0 0v.8-.1l-.2.7v-.9 7l.1.8v.6-.7.9l.1.4v-.5.8-.3l.3 1.2v.4h.1l.2.5v-.2q.1.3 0 .1v-.2l.1.3q0 0 0 .1 0-.2 0 0h.1q-.1 0-.2 0l.2.1.2.1.3.1-.4-.2.4.2h.1l1.2.3h.6q-.5 0 0 0h-.1l.7.1h.8l.4.1h2.1-.7 1.1-.2.1l.1.2h.6-.2.8-.3c-.4 0 0 0 0 0H76q-.1 0-.2 0-.1-.1.1-.1h3.4-.2 1.1c.3-.1-.5-.1-.6-.1h.5-.5.6l.4-.1h.7q-.2 0 0 0l2-.1h1l1.3-.1H85h2.4q-.2 0 0 0h.7c.2-.1-.3-.1-.3-.1h.4s-.3 0 0 0h2l.7-.1h1-.4 1l-.2.1h.2-.3l.2.1h.1q.2 0 0 0h.2l-.4.1h.4-.2.4-.2q-.2 0 0 .1h-.3.4l.2.1s.3 0 0 0l-.6.1h.9-.7.1-.2c.3 0 0 0 0 .1h-.1.3l-.6.1h.7l.3-.1h.3-.2.1-.2c.6 0 0 0 0 0h-.5c0 .1.3.1-.2.1h.9q.2 0 0 0h-.4l-.5.1h.2-.2.6-.4l-.5.1h.5-.9c.8 0-.2.1-.2.1h.3c-.2.1-1 .2-.5.2H91h.4-.3c-.6.1-.5.2-1.1.2l-2 .1-1.8.2q.2 0 0 0h-.5.3-1.6zm5.1-1.9h.6zm-3 .2q-.2 0 0 0m1.5-.1h-.2zm-6.9.3h.2zm5.9-.3h-.2zm-3.6.2h.5zm-1.3 0h.2zm-2.5.1h-.1.3zm-1.3 0-.2.1h-.4.6m1.1 0zM89 41h.2zm-9.8.4h.1m5.3-.2h.2zm-3.9.1h.1q-.1 0 0 0h-.4zm-4.8 0h.2zm-7.6-16q0 1 0 .2zm-.3 5.3v-.3zm11 10.8h-.3zm.6 0h-.3zm-3.7 0h-.2zm-8-13v.2zm.9-10.8v.3zm-.8 9.1q0-.1 0 0v-.2zm.6-7.7v-.6h.1v-.2.8m-.2 1.2V20zm.1-1v-.1zm8.5 22.1h.1M68 27v.6zM80 41.4q.1 0 0 0M68 31q0 .6 0-.2zm0 1.6V32v.5m0-1v-.2zm.5-10v-.2zm21 19.5h.3zM68 29v.3zM90 41h.3zm-13.2.5h-.3.7-.3m-8.4-20.7v-.5zm0 .3V21zm-.5 6.2v-.1zv-1.8 1.9M89.3 41h.3zM68.2 23.4v.2zm6 18c-.1 0 .2 0 0 0m-2.7-.2h-.2zm-3-1v-.3zm-.2-18.6v-.3q0 0 0 .1zm-.5 9.1v-.2zM90.4 41h.4zm-11.8.4h.2zm-6.2-.1h-.5zm-3.7-.9zm20.8.6h.3zm-21.7-8v-.5zM79 41.5h.2zm-11.2-9.2V32zm.1-4.3v.2zm0 7.8v-.3zm10.3 5.7h.3zm-9.9-20v.1zm-.1 2v.2zm-.4 12v-.3zm.6 4.3-.1-.3v-.2q0 0 0 .4.1.5 0 0m4.6 1.7h.2zm-2.7-.3h.2zm3.2.4h.1m-5.3-19.6v1-1M69.8 41h.2zm8.4.5h.2zm-7.2-.3h-.2zm-2.5-21.4v-.1m.3-3.3c0 .1 0-.2 0 0zm-.3 2.4v.2zM74 41.5h.1zm-.9-.1h-.2zm6.9.1h-.2zM68.6 18.3V18zm.1-1.7v.4zm-.4 5v.3zm11.2 19.8h.2zm-5.1 0h-.2zm-3.9-.3q.4 0 .1 0zm20.8-.2h-.1zM68 37.9zm7.4 3.7H75h.3l-.8-.1h1m-4.2-.2H71zm4.7.2h-.3zm-2.8 0h.3zm-2-.2h-.3zm8 .3q.3 0 0 0m.6 0h.4-.4m-.4 0q.3 0 0 0m-.6 0h.3-.5zm-10-26v-.2zm23.7 25.8h.1-.2m.4 0-.1.1h.5zm1 .1h-.3zm-.6 0h-.2zM67.9 16.9q0 .2 0 0m25.5 24.9h.2zM67.8 16.9v-.3zm0 .6v-.3zm-.1.8v.3zm0 .1q0 .2 0 0m-.1.6q0 .1 0 0m.1-2q0 .3 0 0v.3zl.1-.8v.9zm-.2 2.8q0 .1 0 0m26.2 22h-.6q.1 0 0 0h.7M67.5 18.3q0 0 0 .2v-.6c0 .8.1-.5 0 0v-.5.7zm0-.9v.3zm.2-1.4v.4zm-.5 5.9v-.2zm26.2 19.9H93zm-25.7-26v.6l-.1.4v-1m0 .7v.2q0 0 0-.2m-.2.6v.3zm-.2 2.9v.2zM92 42H92zM67.4 18.6v1zm.2-1.7v-.4zm-.3 3.1v-.2zm.1-1.5.1-1v1m0-1.7.1-.6zm-.2 1.8v-.2zm-.1 1.2v.3zm.3-3v-.1zm-.4 4v.5zm24.7 21.3q-.1 0 0 0h-.6c.3 0 0 0 0 0zc.1 0 .6 0 0 0M67.6 16.6l.1-.4zM67 39.8v.2zm1.2 2q.4.3.1.1zm-1.8-9.5q0 .2 0 0m.2 5.7v.1zm-.2-5.8v-.1zm.8-13.4v.4zm.3 22.4q.1 0 0-.2zm-1-13.7v-.1zm.1-1.3v.2zm24.9 16h-.3zm-25.1-9v.3zm.8 7.3.1.3zm-.8-8.8v.1m0 4.6v.1zm.5-15v-.3zm-.5 8.7v.2zm.1-3v-.3zm.1-1.4v-1.2L67 23v1c-.1 0 0 .5-.1.2zm2.2 16.4h.4zm-1.8-1.9L67 40q0-.2 0 0v.1zs-.2-.5-.1-.6l.2.7.1.4.1.3v-.2l-.3-.5q0-.1 0 0m-.3-.9-.1-1v-.2.8l.2.7zm-.4-10.7v-.2zm16.8 14H83zm-2 0h.2zm-14.9-7v-.2zM79 43h-.2zm-.8 0h.2zM66.4 31.8v-.4zm0 1.8q0-1.7 0 0m0-1.6v.3zm17.4 10.8h-.4zm-17.4-7.1v-.4zm0-5.6v-.3zm25.7 12.2H92zM38.9 58.2h.1q-.2 0 0 0m3.5-1.7h-.1 1.5c-.3 0 0 0 0 0h2.5-.1.6s.7.1.8 0h2.7c.4 0 0 0 0 0q.1 0-.2 0l.1.1h.5-.2.3q.1 0 0 0h.2q.2 0 0 0h.9-.3.5-.2.2s.4 0 0 0h.5-.2 2.1c.3 0-.1 0 0 0h.4-.3.8q.1 0 0 0h.8-.1.5-.2.5-.2 2-.1.6-.4 1.5-1 1.1-.1.7-.3H62h-.5 1.2-.3 2.4l.2.1h-.1 1.1q.2 0 0 0h.6v.1h.3-.3.5s-.3 0 0 0h1.1-.2.3-.1.1l.1-.1h.2-.1.1-.1l-.4.1h.4v.1h.1-.2v.1h.2-.2v.1h-.2l.2.1q-.2 0 0 .1h.1c-.4 0 0 0 0 .1H68h.1q0 .1 0 .1h.2-.2q-.2 0 0 .1h.2q-.5.1 0 .2h-.2q-.2 0 0 0-.2 0 0 0h-.7l-.2.1h-.8q.2 0 0 0h-1.8.4-.7.2-1.1q0 0 .1 0c.3.1.1 0 .2 0q0 0 .2 0l-.3.1h1-2.8.2-.4.2-1.2.1-.2q.1 0 0 0h.3-.8q-.2 0 0 0h-.9.5-3.1l-.7-.1h-1.4.4-.8.3-.5.2-1.5.2-.2.2s-.5.1-.4 0h.1-.2.3-.6.2-1.3q.1 0 0 0h-.4q.4 0 0 0h.1-1.3q0 0-.2 0h-1 .4-1.4.2q.2 0 0 0h.3-.6l-.2.1h-1.9.3-.3.1q.1 0 0 0h.2-.3q0 0-.2 0v.1h-3.2.5-1.7.1-.5.2-.2q.2 0 0 0h-.6q.2 0 0 0H39l-.1-.1h-1.3.2-.3q-.2-.1 0-.1h-.3.1q0-.1 0-.1.1 0 0 0v-.1h-.2.3-.3.1v-.1H37h.1q.2 0 0-.1h.2-.3q0-.1 0-.2h-.1.4-.5.4q-.2 0 0-.1h.1-.2.4-.5.1-.3s-.3 0 0 0h.4q-.2 0 0-.1h-.4.2V57h.3-.1.1-.3.5l-.3-.1h.7l-.2-.1h.3l.2-.1H38h.2c.4 0 .2-.2.6-.1h2.7-.2 1zm-3.3 1.6h-.4zm.9 0h.2zm4.3 0h-.2zm-3.6 0zm2.2 0h-.3zm.8 0h-.1m1.7 0h-.1m.9 0h.3-.3m-.6 0h-.1m-3.3 0H42m2.5 0q.2 0 0 0h.2zm3 0h-.1zm14.6 0q-.6 0 0 0M59 58h.2zm-13.4 0h.3zm-.3 0h.1zm15.1 0h-.2zm6.7 0H67zm-5.7 0h.1m4.8 0h.5-.6m-.7 0q0 0 .1 0zm.6 0zm-4.8 0s-.5-.1-.4 0zM45 58q-.1 0 0 0m13.6 0q-.3 0 .2-.1zm-1 0h.3q-.3 0 0 0zm.6 0h.2zm-19.3 0H39zm21 0h-.3zm1.7 0h-.1zm-22.9 0h-.1zm8.3 0h.2-.5zm18.1 0h.3zm-.2 0h.2zm-3.8 0h1.2H61m-22 0H39zm24.3 0h-.1zm-15 0h.2zm4.2 0h.2zm11.8 0h.2zM59 58h.2zm-20.4 0h-.2zm7.4 0h-.2zm6.3 0h.1c.1 0-.2 0 0 0m-2.5 0h.3zm14.4 0h.2zm-11.6 0zM39 58h-.2zm18.4 0h.3zm-11.9 0zm15 0q-.2 0 0 0s.3 0 0 0m-4.9 0h.2zm-9.6 0H46zm17.4 0h-.2zm-7.6 0h.2zm-2.8 0h.3-.2zm-3.6 0h-.2zm1.7 0H51zm-2 0H49m15.3-.1h-.6.6m-18.3 0H46zm4.5 0h.2zm17.2 0h.1m-1.5 0h-.1zm-17 0h.1zm17.3 0h.1zm1 0h-.2zm-3.2 0h-.1m-16 0h.2zm2.5 0q-.2 0 0 0m3.4 0zM48 58h.3zh.5-.6m2.6 0h.1zm-3 0h.2zm1.7 0h-.2zm1.3 0h.2zm-5 0q-.2 0 0 0m-.4 0h-.3zm.7 0h-.2zm22.5-.1zm-31-.4h-.2zm-.3 0zH37zm-.6-.2h.2zm.4 0h.2zm30.7-.1h-.1.2zm-.4 0h.2zm-.4 0h-.2zm-.1 0q-.1 0 0 0m.8 0h-.1zh.5-.5m-31 0h.4zm30.2-.1h-.2.4c-.5 0 .3 0 0 0q.2 0 0 0h.3-.5zm.5 0H67zm.8 0h-.2zm-3.6 0zm-27.8 0h.3zm31.6 0h-.6.5m-.3 0h-.2zm-.4 0h-.2zm-1.8 0h-.2zm-28.1-.1h.1zm30 0h.3zm-2 0h.2zm.9 0h.6-.6m0 0q.2 0 0 0m-1 0h-.1zm0 0zs.4-.1.2 0m-.7 0h-.2zm-27.4-.1h.4q-.2 0 0 0zs-.4 0 0 0m30 0h.2zm-9.7 0q-.1 0 0 0m-3.5 0h-.1zm3.5 0h.1m8.3 0H66zm-13.8 0zm8.3 0h.1zm.9 0h-.2zm-4.4 0h-.2zm-4.4 0h-.2zm2.5 0h-.1m9.4 0h.1zm-5.4 0h-.1m1.9 0h.3zm.9 0v-.1h1.7H62m-10.2 0h-.2zm1.3 0h.2zh.3-.7zm.6 0h.6-.8zm6.5 0h.1zm-15.9 0h-.1zm11.6 0h.1q-.2 0 0 0m-10.3 0h.2zm.6 0H46zm12 0h.3zm-1 0q.9 0 0 0m.9 0h-.2zm-15.4 0h.2zm13.2 0h.2zm3.4 0h.2zm-.5 0c.2 0-.1 0 0 0m-21.3-.1h.1q-.2 0 0 0M40 68.9h.2zm5.3-1.7h-.2 2.3c-.4 0 0 .1.1.1h3.6-.2 4.1-.1 1.2-.2.5c-.4 0 0 0 0 0h.7c.5 0 0 0 0 0h-.4 1-.4.5q.1 0 0 0h.4q.1 0 0 0h1.2-.4.7-.2.2-.1.9-.3 3.1c.4 0-.2 0 0 0h.6-.4.5q.2 0 0 0h.7q.2 0 0 0H66h-.3.9-.4.7-.2 2.9-.2.9-.6H72h-1.6H72 72q.1 0 .2 0h.8-.4 1.6-.7 1.7-.4.6l3 .1h.3-.2 1.7q.1 0 0 0h.8v.1h.5-.5.7c.2 0-.4 0 0 0h1.6-.2.5-.2.3v-.1h.3-.2.2-.2l.2.1h-.7.6l-.1.1h.2-.3l.1.1q-.2 0 0 0h.1-.2l.1.1h-.4v.1h.3s-.3 0 0 .1h.2c-.6 0-.1 0-.2.1h-.2q0 0 0 .1h.3-.2q0 0 0 .1s-.3 0 0 0l.3.1h-.1l-.2.1h-.2.2c-.4 0 0 0 0 0h-1l-.4.1H81h.2-2.9.6-1 .3-.7q-.2 0 0 0H77l-.5.1h.7-.5 1.5-4.1.3-.6.3-2 .2-.1.4-1.2c-.2 0 .2 0 0 0h-1.3.8-1.5.1-4.3l-.6-.1h-1.5.6-1.1.4-.8.3-2.2.2-.2l.3.1h-.6.2-.3.4-.9.3-1.9q.2 0 0 0h-.6q.5 0 0 0h.2-1.1.1-2.8.7-1.1.2-.1l-.1-.1h-.5.1-.7.3c.4 0 0 0 0 0h.5q.2 0 0 0H52l-.3.1h-2 .2-1 .5c-.1 0-.8 0-.5.1h.2q.2 0 0 0h.3H44h.7-3.1.3-.4s.3 0 0 0h-3.4v-.1h.4-.5q-.3 0-.1-.1h-.3.1l-.1-.1h.3-.2q-.1 0-.1 0-.2 0 0 0h-.2l.4-.1h-.4.2v-.1h-.3.1q.2 0 0 0v-.1h.3-.4l-.1-.1s-.3 0 0 0h.5-.8c-.1-.2.5-.1.7-.1h-.2.2c-.3 0 0 0 0 0l.1-.1h-.2.5-.7.1-.6.2-.1.8l-.8-.1h.8-.2l.3-.1h-.6.8-.5l.9-.1h.2l-.3-.1h.7l-.3-.1h.3l1-.1h3.5-.1.5-.3 1.6-.1zm-4.9 1.6h-.3q-.2 0-.2 0zm2.8 0q.2 0 0 0m-1.3 0zm6.4 0h-.2zm-5.4 0h.2zm3.3 0h-.5zm1.2 0h-.2zm2.3 0h.1-.2m1.3 0h.5-.5m-10 0h-.2zm9 0q.3 0 0 0m-5 0h-.1zm3.7 0h-.1q.1 0 0 0h.3zm4.5 0h-.2zm21.7 0h-.1zm-4.9 0h.3zm-19.8 0h.3zm-.6 0h.3zm3.4 0h.2zm19 0h-.1zm10 0h-.3zm-8.5 0q.2 0 0 0h.2zm7.2 0h.7-.7m-1.2 0q.3 0 .2 0-.2 0 0 0zm-6.2 0h-.6zm-3.8 0q-.6 0 .2-.1zm-1.5 0h.5-.5m1 0h.2zm9.3 0h.2zm-37.9 0h-.2zm31 0h-.3zm-31.6 0h-.2zm12.2 0h.3-.7zm26.9 0h.4zm-.3 0h.2zm-5.7 0h1.8H73m-32.6 0h-.3zm36.1 0h-.2zm-22.1 0c.2 0-.2 0 0 0m2.6 0h.2zm3.6 0h.3zm17.6 0h.2-.2m-8.5 0h.2zm-30.3 0h-.3zm11 0h-.3zm5.7 0h.5zm21.4 0h.4zm-17.2 0zm-20 0H40zm27.3 0h.4zm-17.6 0h-.2zm22.3 0h-.2zm-7.3 0h.4zm-14.2 0h-.3zm25.7 0h-.2zm-11.1 0h.2zm-4.2 0h.5-.4zm-5.4 0h-.3zm2.5 0h-.2zm-3 0h-.1m22.8 0h-1 1m-19.3 0h-.2zm-7.9 0h-.2zm6.7 0h.2zm22.4 0h.1m3 0h.2zm-2.1 0h-.2zm-26.1 0h-.1zm.9 0h.2zm-6.3 0zm32 0h.2zm1.6 0h-.4zm-4.7 0H78zm-28.6 0q.1 0-.2 0zm4.8 0h.2zm3.6-.1q-.3 0 0 0m-19.3 0h.1zm24.4 0zm-9.7 0h.5-.3.7-.9m4 0zm-4.4 0h.2zm2.5 0h-.2zm2 0h.2zm-8.1 0H49zm.4 0q-.3 0 0 0m.6 0h-.3.4zm33.4-.1h.2zm-46-.3h-.2zm-.3-.2h-.4zm-.9-.2h.2zm.6 0h.2zm45.4 0q-.2 0 0 0m-45.8 0h-.2zm45.8-.1h-.1.3zm-.5 0h.2zm-.7 0H81zm-.7 0q-.2 0 0 0m1.8 0q-.2 0 0 0h-.2zh.7-.8m-2.6 0q-.2 0 0 0m-43.3 0h.6q-.2 0 0 0h-.7zm44.8-.1H81h.6c-.7 0 .4.1 0 0h.4-.6zm.7 0h-.3zm1.3 0H83zm-5.4 0h.2zm-41.2 0h.5zm46.8 0h-.9.8q-.2 0 0 0m-.5 0h-.2zm-.6 0h-.2zm-2.6 0h-.3zm-41.7 0q0-.1.2-.1zm43 0h-1zm1.5 0h.4zm-2.9 0h.2zm1.4 0h1-1m-.1 0h.2zm-1.2 0h-.3zm.1 0h-.3zm-1 0h-.3zm-40.6-.1q.1 0 0 0h.6c-.3 0 0 0 0 0zc-.1 0-.6 0 0 0m44.4 0h.4zm-21.2 0h-.2zm-1.8 0q-.2 0 0 0m8.6 0q-.3 0 0 0m-5.2 0h-.2zm5.2 0h.2zm12.4 0h-.4zm-20.4 0h.1zm12.3 0h.1zm1.3 0h-.3zm-35.4 0h.2zm28.9 0H67zm-6.6 0h-.2zm8 0h-.1m-4.2 0h-.1zm13.8 0h.3zm-8 0h-.2zm2.7 0h.4zm1.3 0 .1-.1h2.4-2.5m-15 0h-.4zm2 0h.2q.2 0 0 0zH61zh.5-1.1.6m.7 0h1-1.2zm9.7 0h.2zm-25.3 0h.2zm1.8 0h-.2zm17.2 0h.1zm-15.1 0h.2zm.7 0h-.2zm18 0h.3zm-1.6 0q1.3 0 0 0m1.4 0h-.3zm-22.9 0h.3zm19.6 0h.3zm5 0h.3zm-32.2 0c.2 0-.2 0 0 0m1.7 7.6h.2zm4.8-1.7h2c-.4 0 0 .1.1.1H50h-.2 3.8-.1 1.1-.2 1.1c.5 0 0 0 0 0h-.3.8-.3.5q.2 0 0 0h.3q.2 0 0 0h1.2-.4.6-.2.9-.2 2.9-.1.5-.3.5-.1.6q.2 0 0 0h1.2-.2.7-.3.6-.2H67h-.1.8-.6 2.2-1.5 1.5-.1q.1 0 .2 0h.7-.3 1.5-.7H72h-.3.5l2.8.1h.3-.2 1.6-.1.8v.1h.4-.4 2.1-.2.4-.2.4v-.1h.2-.1.1-.1l.1.1h-.6.6l-.1.1h.1-.2v.1h.2-.2v.1h-.3v.1h.3s-.3 0 0 .1h.1c-.5 0 0 0-.1.1h-.2q0 0 0 .1h.2-.1v.1s-.3 0 0 0h-.1l.4.1H80l-.2.1h-.2.1c-.3 0 0 0 0 0h-.9l-.3.1h-1.1.1H75h.6-1 .3-.7.1q-.1 0-.1 0h-.3l-.4.1h.6-.4 1.3-3.7.2-.6.4-1.9.2-.1.4-1.1c-.2 0 .2 0 0 0h-1.2.7-1.4.1-4l-.5-.1H61h.6-1.1.4-.7.3-2 .2-.2l.2.1h-.5.1-.2.3-.7.2-2.2q.4 0 0 0h-3.4.6-.9.1-.1v-.1h-.5.1-.7.3c.3 0 0 0 0 0h.5-.9l-.2.1h-1.8.1-.9.4s-.7 0-.4.1h.4H47q.1 0 0 0h-3.6.6-2.8.3-.4s.3 0 0 0h-.9.1H38q0 0 0-.1h.3-.4c-.4 0-.1-.1-.2-.1h-.2.1l-.1-.1h.2q.1 0 0 0c-.3-.1 0 0-.2 0q-.2 0 0 0h-.2l.4-.1h-.4.2v-.1h-.3.1q.2 0 0 0v-.1h.3-.3L37 74q-.2 0 0 0h.5-.6q-.1 0 0-.1h-.2.7-.2.2c-.3 0 0 0 0 0l.1-.1h-.2.4-.6.1-.5.1s-.4 0 0 0h.5s-.2-.1.2 0l-.7-.1h.7l-.2-.1h.2-.5.7-.3l.7-.1h.2l-.3-.1h.7l-.3-.1h.3l.9-.1h3.2q-.1 0 0 0h.4-.3 1.5-.1zm-4.4 1.6H40q-.2 0-.2 0zm2.6 0q-.1 0 0 0m-1.3 0h.1c.1 0-.2 0 0 0m5.8 0h-.2zm-5 0h.1zm3 0H45zm3.2 0h.2zh-.2zm1.1 0h.5-.5m-1 0zm-8.2 0h-.1zm8.4 0h-.1m-4.5 0H44zm3.3 0zq.1 0 0 0h.3zm4.1 0h-.2zm20 0h-.1m-4.4 0h.2zm-18.2 0h.3zm21 0h-.1m-21.4 0h.2zm3.1 0h.2zm17.5 0h-.2zm9.2 0H78zm-7.8 0q.1 0 0 0h.2zm-.1 0q-.2 0 0 0m6.7 0h.7-.7m-.2 0h.1zm-26.3 0q-.1 0 0 0m19.7 0h-.6zm-3.5 0q-.4 0 .2-.1zm-1.4 0h.5-.5m.9 0h.2zm8.5 0h.2zm-34.8 0h-.2zm28.5 0h-.3zm2.3 0h-.2zm-31.2 0h-.2zm11.2 0h.3-.6zm24.6 0h.4zm-.2 0h.2zm-5.3 0h.1zh1.7H70m-29.9 0H40zm33.2 0h-.1zm-20.3 0h.1zm2.4 0h.2zm3.4 0h.2zm16 0h.3-.2m-7.8 0h.2zm-27.8 0H39zm10 0h-.2zm8.7 0h.1zm-3.4 0h.5zm19.7 0h.3zm-15.8 0zm-18.5 0h-.2zm25.1 0h.5zm-16.1 0h-.2zm20.4 0h-.1zm-6.7 0h.3zm-13 0h-.3zm23.6 0H73zm-10.3 0h.2zm-3.8 0h.4-.3zm-5 0H54zm2.4 0h-.2zm18-.1h-.9.9m-17.7 0h-.2zm-7.3 0h-.2zm6.2 0h.2zm20.6 0h.1m2.8 0q.2 0 0 0zm-2 0H77zm-23.9 0h-.2zm.8 0h.2zm-5.9 0h.1m29.4 0h.2zm1.5 0h-.4zm-4.4 0h-.2zm-26.2 0h-.2zm4.3 0h.2zm3.4 0h-.1m-17.7 0h.1zm22.5 0zm-9 0h.5-.3.7-.9m3.6 0h.1zm-4 0h.3zm2.4 0h-.2zm1.8 0h.2zm-7.4 0H48h.3m.4 0q-.2 0 0 0m.6 0H49zm30.7-.1h.1zM37.6 74h.1m-.3 0H37zm-.8-.3h.2zm.5 0h.2zm41.8 0q-.2 0 0 0m-42.1 0h-.2zm42-.1h.3zm-.5 0h.2zm-.7 0h-.2zm1.1 0q-.2 0 0 0h-.2zh.6-.7m-2.4 0q-.1 0 0 0m-39.8 0h.6q-.1 0 0 0h-.7zm41.1-.1h-.2.5c-.6 0 .4.1 0 0h.4-.6zm.7 0h-.2zm1.2 0h-.3zm-5 0h.2zm-37.8 0h.4zm43 0h-.8.7q-.1 0 0 0m-.6 0H79zm-.5 0h-.2zm-2.4 0H76zm-38.3 0q-.1-.1.1-.1zm40.9 0h.3zm-2.7 0h.2zm1.3 0h.8-.8m-.1 0h.2zm-1.1 0h-.3zm0 0H76zm2.5 0h.1m-3.5 0H75zM38 73.3h.5c-.3 0 0 0 0 0zs-.5 0 0 0m40.9 0h.3zm-19.5 0h-.2zm-1.7 0q-.2 0 0 0m7.9 0q-.2 0 0 0m-4.8 0h-.1zm4.8 0h.2zm11.4 0h-.4zm-18.7 0q-.1 0 0 0zm11.3 0c-.1 0 .2 0 0 0zm1.1 0h-.2zm-32.4 0h.2zm26.5 0h-.3zm-6 0h-.3zm3.3 0zm12.7 0h.2zm-7.3 0h-.2zm2.4 0h.4zm1.2 0 .1-.1h2.3-.9c.1 0-.4 0 0 0zm-13.8 0H57zm1.7 0h.3-.4zh.5-1.1.6m.7 0h.9-1.2zm8.8 0h.3zm-23.2 0h.2zm1.6 0H47zm15.8 0h.2zm-13.8 0h.2zm.7 0h-.2zm16.5 0h.3zm-1.5 0c1 0 .7 0 0 0m1.2 0h-.2zm-21 0h.4zm18 0h.2zm4.7 0h.3zm-.7 0h.1zm-29 0h.1c.1 0-.2 0 0 0m1.9 9.8h4.4-.1.2q-.2 0 0 0h.2c.3 0 0 0 0 0h.3-.1v.1h.3q0 0 .1 0h.4-.2.3q.2 0 0 0h.3-.1 1.2q.2 0 0 0h.2-.1 1.1q.2 0 0-.1h1.6-.3 1-.6.4v.1h.5-.1.6-.3.7-.2 2.1l.1.1c-.4 0-.1 0 0 0h.5-.2.3q-.1 0 0 .1h.7q0-.1 0 0v-.1h.2-.3l.2.1v.3H55v.1l.1.1q-.1 0 0 0l-.1.1h.1v.1q-.1 0 0 0l-.1.1h.1q-.2 0 0 .1-.1 0-.1.1h-2 .2-.4v.1h-.5.2q0 0-.2 0 .1 0 .2 0 0 0 .1 0h.2l.1.1h-1.6.1-.2.1-.8.2-1 .2q0 0 .1 0-.2 0 0-.1h-3 .2-.5.2-.3.1-.9.1q-.2 0 0 0h-.2q.1 0 0 0h.1-.3q-.3 0 0 0h-.9q.2 0 0 0H44c.3 0 0 0 0 0h-.7.2-.8.3-1.3.1-.4l.2.1h-.2.2-.2q0 0-.1 0h-1l-.2.1h-.7.3-1.2.1-.4v-.1H37l.1-.1H37v-.1q.1 0 0-.1v-.1h-.1q.1 0 0-.1h.1l-.1-.1q-.1 0-.1-.1h.2-.2q0 0 .2 0 0 0 0-.1l.1-.1h-.4q-.2 0 0 0h.3-.3q0-.1.2-.1h.1-.2l.3-.1H37h.3c-.3-.1 0 0 0-.1q.2 0 .2-.1.3-.1.4-.2h1.6-.1zm-1.8 1.6h-.2zm3.1 0H41m-.8 0H40zm.5 0h-.1m1.5 0h.1zm-.4 0zm-.5 0zm10.3 0q-.3 0 0 0m-1.9 0 .1-.1zm-7.9 0h.2zm-.2 0h.1m12.8 0h-.1m-3.3 0zm2.8 0h.2zm-3 0h-.2zm-1.5 0h.1q.1 0 0 0m-.6 0h.2q-.2 0 0 0zm.3 0h.1m.9 0h-.1zm1 0zm-8.5 0h.1-.3zm10.7 0h.2zm-2.4 0h.7-.6m-6.4 0zm8.4 0zm-3.5 0h.1m-12 0h-.2zm4.4 0zm2.3 0h.2zm-6.3 0h-.1m4 0h-.1m8.9 0h-.1q.1 0 0 0m-8.5 0q-.2 0 0 0m11 0H53zm-6.9 0h.2zm6.7 0h-.4.3m-10.6 0H42zm2.7 0q.2 0 0 0zm10.1 0zm-10.9 0h.1m10.1 0zm.6 0h-.2zm-13.2 0h-.1m5.4 0zm-3.8 0h.3zm1.5 0zm-.7 0zm.8 0zm-3.2 0q-.1 0-.2 0zm.5 0h-.2zm-5.1-.6h-.2zm-.1-.2zm18 0q-.1 0 0 0m-18.2 0zm18.2-.1h.1m-.6 0h-.1zm0 0q-.1 0 0 0m.4-.1h.4-.3m-18.2 0h.2zm17.8 0h.1c-.2 0 .2 0 0 0q.2 0 0 0h.2-.2zm.3 0h-.1zm.5 0H55zm-2.1 0zm-16.4 0h.2zm18.6 0q-.2 0-.2 0h-.2zm-1.4 0h-.1M37 83.3h.1m17 0h-.4zm.6 0h.1m-.7 0h.4-.4m.6 0h.2zm-.6 0q.1-.1 0 0m-.5 0q0 0-.1 0m.1-.1h-.1zm-.4 0h-.1zm-16 0h.2q-.1 0 0 0zs-.3 0 0 0m17.6 0h.1zm-8.4 0h-.1m2.7-.1h.1m4.9 0h-.2zm-8.1 0zm4.9 0zm.5 0h-.1m-14 0h.1m11.4 0h-.1m-1 0zm5.5 0h.1m-3.2 0h-.1m1.1 0h.2zm.5 0h1-.3q-.2 0 0 0zm-5.2 0 .1-.1zh.2zH46zm.3 0h.4-.5zm3.8 0h.1m-8.6 0h.1zm6.8 0q.5 0 0 0m.6 0H49m-9 0h.1m-3.1 0"
      fill="var(--c, black)" />
    <path
      d="m66.4 88.6 3.5 4.9q1 1.5 2.6 2.8c1.3 1 3.3 2 4.8 1l1.5-1.2 2.2-2.4 4.7-5.7 2.9-3.7c.2-.3-.2-1-.3-1.2a4 4 0 0 0-1.6-1 4 4 0 0 0-1.8-.4 1 1 0 0 0-1 .6l-.2.2.2-.3-7 8.7q-1.5 2-3.5 3.7l-.3.2.2-.2c.4-.2 1.5.1 2 .3l.3.2c-.3-.2.6.5.3.1l-.5-.3.3.2-.1-.1-.4-.3-1-1.3-2.3-3-.8-1.2a4 4 0 0 0-3.1-1.9q-.7 0-1.4.3a1 1 0 0 0-.2 1"
      fill="var(--a, blue)" />
  </g>
</svg>