<svg xmlns="http://www.w3.org/2000/svg" fill="none" viewBox="0 0 120 120">
  <g id="doc">
    <g fill="var(--a, blue)" opacity=".3">
      <path
        d="M14.88 11.89c-1.15.14-1.8 1.27-2.2 2.23-.4.9-.73 2.13-.25 3.07.22.43.6.74 1.06.86.57.15 1.13-.07 1.6-.36.49-.28.97-.57 1.28-1.03.29-.5.45-1.05.5-1.63a4.03 4.03 0 0 0-.93-3.22c-.3-.36-1.32.27-.94.7.48.58.77 1.3.82 2.04.02.4-.03.82-.15 1.2-.1.36-.17.74-.43 1-.24.25-.55.42-.86.51-.3.05-.58-.2-.72-.38-.48-.63-.32-1.51-.1-2.21.12-.43.31-.84.53-1.22.1-.2.33-.68.57-.72a.83.83 0 0 0 .68-.48c.04-.32-.22-.41-.46-.36ZM26.07 12.82c.19-.1.38-.17.57-.19l-.53-.24.05.02-.4-.33c.04.2.04.4.02.6v.7l.02 1.31.05 2.72c0 .19.43.4.55.48.07.04.43.26.43.1l-.07-3.73-.02-.9c0-.25.05-.56-.07-.78a1.8 1.8 0 0 0-.84-.62c-.27-.1-.5.05-.75.14-.17.05.22.34.27.36.14.1.52.41.72.36ZM37.6 12c-1.14.15-1.82 1.23-2.25 2.21-.38.94-.74 2.14-.31 3.1.2.43.58.77 1.03.91.55.17 1.13-.07 1.59-.33.48-.24.9-.58 1.24-1.01.32-.5.48-1.06.56-1.66a4.06 4.06 0 0 0-.87-3.24c-.17-.21-.5-.1-.7.03-.14.1-.5.4-.3.62.5.58.79 1.3.86 2.04a4 4 0 0 1-.12 1.2c-.07.34-.15.74-.41 1-.24.22-.53.42-.84.51-.31.1-.62-.12-.82-.36-.5-.6-.36-1.49-.16-2.18.12-.43.28-.84.5-1.25.1-.17.2-.34.34-.5.04-.08.1-.12.16-.17.03-.03.12-.05.05-.05.29-.02.58-.2.72-.46.1-.19 0-.45-.26-.4ZM48.5 13.14c.15-.08.3-.15.46-.17l-.38-.15.04.03-.21-.24c-.1-.2-.03.02-.03.12v.38l.03.65.02 1.32.05 2.64c0 .58 1.06.98 1.03.24l-.07-3.6-.02-.84c0-.29 0-.58-.03-.89a.88.88 0 0 0-.62-.72c-.3-.07-.58.1-.84.2-.6.21.02 1.24.57 1.03ZM60.48 12.37c-.55.07-1.2.21-1.6.62-.34.36-.6.77-.8 1.2-.43.86-.81 2.11-.4 3.05.16.4.52.72.95.84.56.12 1.23-.12 1.7-.34.46-.19.9-.45 1.26-.79.36-.38.48-.96.57-1.46a3.77 3.77 0 0 0-.81-3.24c-.08-.1-.5.04-.6.07-.2.05-.39.14-.56.24.5.6.82 1.34.9 2.13.02.44-.03.84-.13 1.25-.1.43-.2.94-.53 1.27-.14.15-.3.27-.48.36l-.24.15c-.1.05-.21.1-.28.17l.24-.05c.26-.05.3-.07.14-.07-.05 0-.07-.03-.12-.03a1.4 1.4 0 0 1-.7-.48c-.5-.67-.36-1.6-.16-2.35a6.38 6.38 0 0 1 .9-1.92l.22-.26c.24-.24.39-.12-.3-.05.28-.03.54-.1.8-.22.25-.05.27-.12.03-.1ZM71.18 13.23c.12-.05.48-.24.6-.17l-.24-.36.03.05-.24-.53c.02.2.02.4 0 .6v.65l.02 1.32.05 2.59c.02.24.12.48.24.7.05.1.12.26.19.3.02 0 .1.1.1.03l-.08-3.77-.02-.9c.02-.27 0-.56-.05-.83a1.98 1.98 0 0 0-.48-.9c-.19-.18-.5.04-.7.11-.11.05.34 1.15.51 1.08l.07.03ZM82.49 12.99c.16-.1.33-.14.5-.2l-.34-.16.05.02-.4-.43v.58l.02.65.02 1.32.05 2.64c0 .24.29.45.46.6.04.04.48.3.48.07l-.08-3.72-.02-.91c.02-.27 0-.53-.05-.8-.14-.33-.43-.6-.77-.74-.26-.1-.5.07-.76.14-.27.08.55 1.04.84.94ZM93.67 12.8c.17-.07.34-.15.5-.2l-.16.03h.07l-.67-.26c-.17-.12-.1 0-.1.14v1.01l.03 1.32.07 2.7c0 .32 1.1.68 1.1.4l-.07-3.73-.02-.9c0-.25.04-.56-.08-.8-.14-.29-.62-.48-.9-.5-.27 0-.54.07-.78.21-.21.07.22.39.3.4.18.1.5.27.71.18ZM104.93 12.05c-1.1.15-1.7 1.25-2.1 2.19-.38.93-.66 2.1-.18 3.02.24.46.64.8 1.12.91.58.12 1.18.03 1.66-.3.48-.23.89-.56 1.2-1 .26-.47.43-1.03.48-1.58.2-1.15-.14-2.3-.89-3.19a.66.66 0 0 0-.77-.17c-.16.05-.52.31-.33.55a3.55 3.55 0 0 1 .74 3.3c-.1.38-.17.8-.48 1.07-.26.24-.57.43-.9.55-.23.08-.47-.14-.6-.3-.49-.63-.27-1.57-.08-2.26.12-.44.31-.84.53-1.23.14-.24.38-.72.7-.77.23-.02.57-.19.52-.48-.05-.28-.4-.33-.62-.3ZM15.1 88.16c-1.13.14-1.78 1.22-2.19 2.18-.36.92-.72 2.14-.21 3.05.21.41.6.72 1.05.84.58.1 1.18-.02 1.66-.33.48-.24.91-.58 1.25-1.01.84-1.54.67-3.41-.41-4.78-.29-.33-1.4.12-1.06.5a3.43 3.43 0 0 1 .72 3.25c-.1.38-.17.84-.48 1.1-.24.24-.53.4-.84.53-.26.05-.53-.22-.67-.39-.48-.62-.29-1.56-.07-2.28.12-.4.29-.81.53-1.2.1-.19.38-.74.62-.76.24-.03.6-.17.65-.46.05-.29-.36-.29-.55-.24ZM25.92 89.09l.5-.2-.29.06h.08l-.22-.08c-.02-.04-.02-.04 0 .03v1.17l.02 1.32.05 2.72c0 .28.43.28.63.21a.7.7 0 0 0 .5-.62l-.07-3.5c-.03-.56.02-1.13-.03-1.71-.07-.74-.86-.4-1.3-.24-.23.1-.52.34-.5.62.03.3.41.32.63.22ZM37.3 88.01c-.5.1-.94.4-1.18.84-.29.43-.53.91-.72 1.4-.38 1-.6 2.25-.05 3.23.24.46.68.82 1.16.99.52.16 1.03-.05 1.48-.32.46-.24.87-.6 1.13-1.05.24-.5.39-1.06.43-1.63a4.53 4.53 0 0 0-1.05-3.39c-.17-.19-.5-.31-.7-.1-.2.22-.07.6.1.8.43.53.7 1.17.7 1.87 0 .4-.05.8-.17 1.18a1.6 1.6 0 0 1-.58.98c-.46.34-1.25.91-1.7.29-.39-.55-.1-1.49.1-2.07.14-.4.3-.79.54-1.17.22-.34.46-.72.87-.77.65-.05.21-1.15-.36-1.08ZM82.27 88.09c-.5.05-.82.43-1.08.81-.26.41-.48.84-.65 1.32-.33.96-.53 2.1.05 3 .29.5.74.9 1.27 1.1.48.18.94 0 1.35-.23.4-.24.84-.5 1.05-.99a4.44 4.44 0 0 0-.77-4.82c-.07-.1-.4-.43-.55-.31-.14.12.2.5.24.57a3 3 0 0 1 .63 1.95c-.03.43-.1.86-.22 1.3-.1.4-.31.79-.65 1.05-.31.26-.67.46-1.05.6-.2.05-.56.1-.68-.1a1.1 1.1 0 0 1-.12-.48 5.07 5.07 0 0 1 .31-1.82c.15-.43.37-.86.63-1.25.24-.36.53-.72.96-.79.22-.02-.05-.4-.1-.48-.14-.12-.4-.46-.62-.43ZM93.58 89.12c.17-.07.33-.15.5-.2l-.31.03h.07l-.24-.07c-.05-.1-.07-.1-.05.05V90l.03 1.32.05 2.64c0 .6 1.17.4 1.17-.12l-.07-3.56c0-.57 0-1.15-.02-1.7 0-.26-.22-.5-.48-.5-.32 0-.63.07-.9.21-.2.1-.54.27-.45.55.1.3.48.34.7.27ZM104.88 88.13c-1.03.12-1.6 1.3-1.95 2.16-.36.94-.64 2.14-.14 3.07.26.5.7.87 1.22 1.06.58.17 1.08.02 1.59-.27.43-.24.89-.52 1.15-.98.24-.5.4-1.06.46-1.6a4.16 4.16 0 0 0-.96-3.25.76.76 0 0 0-.8-.29.4.4 0 0 0-.19.53l.07.12c.48.55.75 1.25.77 1.97 0 .4-.05.84-.17 1.25-.04.38-.24.77-.52 1.03-.3.24-.63.43-.99.58a.47.47 0 0 1-.57-.22c-.44-.6-.17-1.56.02-2.18.14-.44.34-.84.58-1.2.19-.3.43-.75.81-.8.22 0 .36-.19.36-.38 0-.05-.02-.1-.05-.14a.65.65 0 0 0-.7-.46ZM48.19 88.83l.26-.1.1-.02c.14-.05.12-.05-.07 0l-.31-.1c.1.08.04.44.04.53l.03.7.02 1.32.05 2.71c0 .26.31.26.5.24.2-.02.65-.17.65-.43l-.07-3.55c-.02-.58.02-1.16-.02-1.73-.05-.67-.96-.29-1.35-.15-.17.08-.55.22-.48.46.07.24.5.2.65.12ZM59.67 87.9c-1.1.14-1.73 1.27-2.1 2.2-.35.94-.69 2.2-.14 3.17.24.46.68.82 1.18.98.58.17 1.13 0 1.63-.28a3.1 3.1 0 0 0 1.2-1.04c.27-.5.43-1.05.48-1.6.17-1.2-.17-2.4-.96-3.34a.66.66 0 0 0-.84-.14c-.24.14-.31.43-.17.64l.05.08c.48.55.75 1.24.8 1.96 0 .39-.05.8-.15 1.18-.1.38-.2.74-.5 1-.27.25-.58.42-.92.54a.55.55 0 0 1-.6-.27c-.45-.57-.19-1.51 0-2.13a5 5 0 0 1 .53-1.16c.15-.24.39-.72.7-.76.29 0 .53-.24.53-.56v-.02c-.12-.26-.41-.48-.72-.46ZM70.68 89.33l.22-.1c.07-.02.21-.02.05-.04l-.27-.07.05.02-.2-.22c.03.17.03.36.03.53l.03.7.02 1.32.05 2.71c0 .31.38.46.65.4a.6.6 0 0 0 .5-.64l-.07-3.55-.03-.84c0-.29 0-.58-.02-.87a.64.64 0 0 0-.6-.57c-.31-.03-.6.14-.89.24a.58.58 0 0 0-.33.72c.19.29.52.38.81.26ZM14.4 26.67c-1.13.14-1.78 1.22-2.18 2.18-.36.91-.72 2.14-.22 3.05.22.4.6.72 1.08.84.58.14 1.15-.05 1.66-.34.48-.24.9-.57 1.24-1 .27-.48.44-1.01.5-1.56a4 4 0 0 0-.88-3.22c-.29-.34-1.4.12-1.06.5a3.43 3.43 0 0 1 .72 3.24c-.1.39-.16.84-.48 1.1-.24.25-.52.42-.84.54-.26.04-.52-.22-.67-.39-.48-.62-.29-1.58-.07-2.28.12-.4.29-.81.53-1.2.12-.19.38-.74.62-.77.24-.02.6-.19.65-.45.05-.27-.4-.27-.6-.24ZM25.23 27.63c.16-.07.33-.14.5-.19l-.29.05h.07l-.21-.07c-.03-.05-.03-.05 0 .02v.48l.02.7.03 1.32.04 2.7c0 .3.44.3.63.22a.7.7 0 0 0 .5-.62l-.05-3.5c0-.56.03-1.13-.02-1.7-.07-.75-.86-.42-1.3-.25-.24.1-.52.34-.5.63.02.28.38.3.58.21ZM36.6 26.53c-.5.1-.94.4-1.18.84-.28.43-.52.91-.72 1.39-.38 1-.6 2.26-.04 3.24.26.46.67.8 1.17.96.53.17 1.03-.05 1.5-.31.45-.24.85-.6 1.12-1.06.24-.5.38-1.05.43-1.63a4.65 4.65 0 0 0-1.06-3.4c-.16-.2-.5-.32-.7-.1-.18.21-.06.6.1.79.46.53.7 1.17.7 1.87 0 .4-.07.8-.17 1.18a1.6 1.6 0 0 1-.57.98c-.46.34-1.25.91-1.7.29-.42-.55-.13-1.49.09-2.07.14-.4.31-.79.55-1.17.22-.34.46-.72.86-.77.63 0 .2-1.13-.38-1.03ZM81.57 26.6c-.5.07-.81.43-1.08.81-.26.41-.48.87-.65 1.32-.33.96-.52 2.1.05 3 .3.5.75.9 1.27 1.1.48.18.94 0 1.35-.23.4-.24.84-.5 1.05-.99a4.36 4.36 0 0 0-.8-4.82c-.06-.1-.4-.43-.54-.31s.2.5.24.57a3 3 0 0 1 .62 1.95c-.02.43-.1.86-.21 1.3-.1.4-.31.79-.65 1.05-.31.26-.67.46-1.06.58-.19.04-.52.1-.67-.1a1.1 1.1 0 0 1-.12-.48 5.06 5.06 0 0 1 .31-1.82c.15-.44.36-.87.63-1.25.24-.36.53-.72.96-.77.21-.02-.05-.4-.1-.48-.14-.12-.4-.43-.6-.43ZM92.88 27.63c.17-.07.34-.15.5-.2l-.3.03h.06l-.24-.07c-.04-.1-.07-.1-.04.05v1.1l.02 1.32.05 2.64c0 .6 1.17.4 1.17-.12l-.07-3.55c0-.58 0-1.15-.02-1.7 0-.27-.22-.51-.48-.53-.31 0-.63.07-.89.21-.22.07-.55.27-.46.55.1.3.48.34.7.27ZM104.18 26.65c-1.03.12-1.6 1.3-1.94 2.16-.36.93-.65 2.13-.15 3.07.27.5.7.86 1.23 1.05.57.2 1.08.03 1.58-.26.43-.26.89-.53 1.15-.98.24-.5.41-1.06.46-1.61a4.16 4.16 0 0 0-.96-3.24.76.76 0 0 0-.8-.29.4.4 0 0 0-.18.53 3.33 3.33 0 0 1 .7 3.31c-.1.4-.22.77-.54 1.03-.28.24-.62.43-.98.58a.47.47 0 0 1-.58-.22c-.43-.6-.16-1.56.03-2.18.14-.43.33-.84.57-1.23.2-.28.44-.74.82-.79.22 0 .36-.19.36-.38l-.02-.15a.88.88 0 0 0-.75-.4ZM47.47 27.34l.27-.1.1-.02c.14-.05.11-.05-.08 0l-.31-.1c.1.08.05.44.05.56l.02.7.03 1.31.04 2.71c0 .27.32.27.5.22.2-.05.66-.17.66-.43l-.08-3.55c0-.58.03-1.16-.02-1.73-.07-.67-.98-.29-1.34-.15-.17.08-.56.22-.48.48.07.27.5.17.64.1ZM58.94 26.43c-1.1.14-1.72 1.27-2.08 2.2-.36.94-.7 2.21-.15 3.17.24.46.67.82 1.18.99.57.16 1.13 0 1.63-.3a3.1 3.1 0 0 0 1.2-1.02c.26-.5.43-1.06.48-1.64.17-1.2-.17-2.4-.96-3.33a.66.66 0 0 0-.84-.15c-.24.15-.31.44-.17.65l.05.07c.48.56.74 1.25.8 1.97 0 .39-.06.8-.15 1.18-.1.38-.2.74-.5 1-.27.25-.58.41-.92.53a.55.55 0 0 1-.6-.26c-.45-.58-.2-1.51 0-2.14.12-.4.31-.79.53-1.15.14-.24.38-.72.7-.77.28 0 .52-.24.52-.52v-.03a.7.7 0 0 0-.72-.45ZM69.98 27.84l.22-.07c.07-.02.22-.02.05-.05l-.27-.07.05.02-.19-.21c.02.17.02.36.02.53v.7L69.9 30l.05 2.71c0 .32.38.46.64.41a.6.6 0 0 0 .5-.65l-.06-3.55-.03-.84c0-.29 0-.57-.02-.86a.64.64 0 0 0-.6-.58c-.31-.02-.6.15-.89.24a.58.58 0 0 0-.34.72c.22.27.56.36.84.24ZM14.4 58.47c-1.13.15-1.78 1.23-2.18 2.19-.36.9-.72 2.13-.22 3.04.22.41.6.72 1.08.84.58.15 1.15-.04 1.66-.33.48-.24.9-.58 1.24-1.01.84-1.54.68-3.4-.4-4.78-.3-.33-1.4.12-1.06.5a3.43 3.43 0 0 1 .72 3.25c-.1.38-.17.84-.48 1.1-.24.24-.53.41-.84.5-.26.05-.53-.21-.67-.38-.48-.62-.29-1.58-.07-2.28.12-.4.28-.81.52-1.2.12-.19.39-.74.63-.77.24-.02.6-.19.65-.45.04-.27-.39-.24-.58-.22ZM25.23 59.43c.16-.07.33-.15.5-.2l-.29.05h.07l-.21-.07c-.03-.05-.03-.05 0 .03v.48l.02.7.03 1.31.04 2.71c0 .3.44.3.63.22a.7.7 0 0 0 .5-.62l-.05-3.5c0-.56.03-1.14-.02-1.71-.07-.75-.86-.4-1.3-.24-.24.1-.52.33-.5.62.02.3.38.31.58.22ZM36.6 58.33c-.5.07-.89.43-1.18.84-.28.43-.52.9-.72 1.39-.38 1-.6 2.26-.04 3.24.26.46.67.82 1.17.96.53.17 1.03-.05 1.5-.31.45-.24.85-.6 1.12-1.06.24-.5.38-1.05.43-1.63a4.56 4.56 0 0 0-1.06-3.38c-.16-.2-.5-.32-.7-.1-.18.22-.06.6.1.8.46.52.7 1.17.7 1.86 0 .41-.07.8-.17 1.18a1.6 1.6 0 0 1-.57.98c-.46.34-1.25.92-1.7.3-.42-.56-.13-1.5.09-2.07.14-.41.31-.8.55-1.18.22-.33.46-.72.86-.77.63 0 .2-1.12-.38-1.05ZM81.57 58.42c-.5.07-.81.43-1.08.82-.26.4-.48.86-.65 1.32-.33.96-.52 2.08.05 3 .3.5.75.88 1.27 1.1.48.17.94 0 1.35-.24.4-.24.84-.5 1.05-.98a4.36 4.36 0 0 0-.8-4.82c-.06-.1-.4-.44-.54-.32s.2.5.24.58a3 3 0 0 1 .62 1.94c-.02.43-.1.86-.21 1.3-.1.4-.31.79-.65 1.05-.31.27-.67.46-1.06.6-.19.05-.52.1-.67-.1a1.1 1.1 0 0 1-.12-.47 2.1 2.1 0 0 1 .03-.68c.04-.38.16-.76.28-1.15.15-.43.36-.86.63-1.25.24-.36.53-.72.96-.76.21-.03-.05-.41-.1-.48-.12-.17-.38-.5-.6-.46ZM92.88 59.43c.17-.07.34-.15.5-.2l-.3.03h.06l-.24-.07c-.04-.1-.07-.1-.04.02V60.32l.02 1.32.05 2.64c0 .6 1.17.4 1.17-.12l-.07-3.56c0-.57 0-1.15-.02-1.7 0-.26-.22-.5-.48-.53-.31 0-.63.07-.89.22-.22.1-.55.26-.46.55.1.29.48.36.7.29ZM104.18 58.44c-1.03.12-1.6 1.3-1.94 2.16-.36.94-.65 2.14-.15 3.08.27.5.7.86 1.23 1.05.57.17 1.08.03 1.58-.26.43-.24.89-.53 1.15-.99.24-.5.41-1.05.46-1.6a4.16 4.16 0 0 0-.96-3.24.76.76 0 0 0-.8-.3c-.18.1-.28.32-.18.54l.07.1a3.33 3.33 0 0 1 .62 3.2c-.1.4-.21.78-.53 1.04-.28.24-.62.43-.98.58a.47.47 0 0 1-.58-.22c-.43-.6-.16-1.56.03-2.18.14-.44.33-.82.57-1.2.2-.3.44-.75.82-.8.22 0 .36-.19.36-.38l-.02-.14a.85.85 0 0 0-.75-.44ZM47.47 59.14l.27-.1.1-.02c.14-.05.11-.05-.08 0l-.31-.1c.1.08.05.44.05.53l.02.7.03 1.32.04 2.71c0 .27.32.27.5.24.2-.02.66-.17.66-.43l-.08-3.55c0-.58.03-1.15-.02-1.73-.07-.67-.98-.29-1.34-.14-.17.07-.56.21-.48.45.07.24.5.2.64.12ZM58.94 58.23c-1.1.15-1.72 1.27-2.08 2.21-.36.94-.7 2.2-.15 3.17.24.45.67.81 1.18.98.57.17 1.13 0 1.63-.29a3.1 3.1 0 0 0 1.2-1.03c.26-.5.43-1.05.48-1.6.17-1.2-.17-2.4-.96-3.34a.66.66 0 0 0-.84-.15c-.24.15-.31.44-.17.65l.05.07c.48.56.74 1.25.77 1.97 0 .39-.05.8-.15 1.18-.1.38-.19.74-.5 1-.26.25-.58.41-.91.53a.55.55 0 0 1-.6-.26c-.46-.58-.2-1.51 0-2.14.12-.4.3-.79.53-1.15.14-.24.38-.72.7-.77.28 0 .52-.24.52-.52v-.03c-.07-.31-.36-.5-.7-.48ZM69.98 59.65l.22-.1c.07-.02.22-.02.05-.05l-.27-.07.05.03-.19-.22c.02.17.02.36.02.53v.7l.03 1.31.05 2.72c0 .3.38.45.64.4a.6.6 0 0 0 .5-.64l-.06-3.56-.03-.84c0-.28 0-.57-.02-.86a.64.64 0 0 0-.6-.58c-.31.03-.63.1-.89.24a.58.58 0 0 0-.34.72c.22.3.56.39.84.27ZM15.15 42.54c-1.16.14-1.8 1.27-2.21 2.25-.39.91-.72 2.14-.24 3.07.21.44.6.75 1.05.87.58.14 1.13-.07 1.61-.36.48-.29.96-.58 1.27-1.06.3-.5.46-1.05.5-1.63a4.03 4.03 0 0 0-.93-3.22c-.29-.36-1.32.27-.93.7.48.58.76 1.3.81 2.04.03.4-.02.82-.14 1.2-.1.34-.17.74-.43.98-.24.24-.56.41-.87.5-.26.06-.57-.18-.72-.38-.48-.62-.31-1.5-.1-2.2.13-.44.3-.84.53-1.23.1-.19.34-.67.58-.7a.83.83 0 0 0 .67-.47c.03-.3-.24-.39-.45-.36ZM26.3 43.47c.2-.1.39-.17.58-.2l-.53-.23.05.02-.4-.34c.04.2.04.41.02.6v.7l.02 1.32.05 2.69c0 .19.43.4.55.48.07.02.43.26.43.1L27 44.9l-.02-.91c0-.24.05-.56-.07-.77a1.8 1.8 0 0 0-.84-.63c-.27-.1-.5.05-.75.15-.17.05.22.33.27.36.16.1.52.4.72.36ZM37.85 42.66c-1.15.14-1.82 1.22-2.26 2.2-.38.94-.74 2.14-.3 3.1.18.43.57.77 1.02.91.56.17 1.13-.07 1.59-.33.48-.24.9-.58 1.25-1.01.3-.5.48-1.06.55-1.66a4.06 4.06 0 0 0-.87-3.24c-.16-.21-.5-.1-.7.03-.14.1-.5.4-.3.62.5.58.79 1.3.86 2.04a4 4 0 0 1-.12 1.2c-.07.34-.14.74-.4 1-.25.22-.54.42-.85.51-.31.1-.62-.12-.81-.36-.5-.6-.36-1.49-.17-2.18.12-.43.29-.84.5-1.25.1-.17.2-.34.34-.5.05-.08.1-.12.17-.17.02-.03.12-.05.04-.05.3-.02.58-.2.72-.46.12-.19 0-.45-.26-.4ZM48.75 43.78c.14-.07.28-.14.45-.17l-.38-.14.05.02-.22-.24c-.1-.19-.02.03-.02.12v1.01l.02 1.32.05 2.64c.02.58 1.05.98 1.03.24l-.07-3.6-.03-.84c0-.29 0-.58-.02-.86a.88.88 0 0 0-.62-.72c-.3-.08-.58.1-.84.19-.58.21.04 1.22.6 1.03ZM60.74 43.01c-.55.08-1.2.22-1.6.63-.34.36-.6.77-.8 1.2-.43.86-.81 2.1-.4 3.05.16.4.52.72.95.81.56.12 1.23-.12 1.7-.33.46-.2.9-.46 1.26-.82.36-.38.48-.96.57-1.46a3.79 3.79 0 0 0-.81-3.24c-.1-.1-.5.04-.6.07-.2.05-.39.12-.56.21.5.6.82 1.35.9 2.14.02.43-.03.84-.13 1.25-.1.43-.19.93-.53 1.27-.14.14-.3.26-.48.36l-.24.14c-.07.05-.24.1-.28.17l.24-.07c.26-.05.3-.07.14-.07l-.12-.03c-.07-.02-.17-.04-.24-.1a1.4 1.4 0 0 1-.46-.38c-.5-.67-.36-1.6-.16-2.35.12-.43.28-.86.5-1.27.12-.22.24-.43.4-.62l.22-.27c.24-.24.39-.12-.3-.05.28-.02.57-.12.8-.21.22 0 .25-.07.03-.03ZM71.42 43.88c.12-.05.48-.24.6-.17l-.24-.34.03.05-.22-.53c.03.2.03.41 0 .6v.63l.03 1.32.04 2.59c.03.24.12.48.24.7.05.1.12.26.2.3.02 0 .1.1.1.03l-.08-3.77-.02-.9c.02-.27 0-.56-.05-.82a1.98 1.98 0 0 0-.48-.92c-.2-.16-.5.05-.7.12-.1.08.36 1.18.55 1.1ZM82.75 43.64c.17-.1.34-.15.5-.2l-.33-.16.05.02-.41-.43v1.22l.02 1.32.05 2.64c0 .24.29.46.46.6.05.05.48.31.48.1l-.07-3.7-.03-.91c.03-.26 0-.53-.05-.8-.14-.33-.4-.6-.76-.74-.27-.1-.5.05-.77.15-.27.1.55 1 .86.89ZM93.93 43.45c.17-.07.34-.15.5-.2l-.18.03h.07l-.7-.26c-.17-.12-.1 0-.1.14v1.01l.03 1.32.05 2.69c0 .3 1.1.7 1.1.38l-.07-3.7-.02-.9c0-.25.04-.58-.08-.8a1.26 1.26 0 0 0-.9-.5c-.27.02-.51.1-.75.21-.22.07.21.39.29.41.24.1.55.26.76.17ZM105.17 42.7c-1.1.15-1.7 1.25-2.09 2.19-.38.93-.67 2.11-.2 3.02.25.46.66.8 1.14.91.57.12 1.17.03 1.65-.3.48-.22.89-.56 1.2-1 .27-.47.43-1.02.48-1.58.2-1.15-.14-2.3-.89-3.19a.66.66 0 0 0-.76-.17c-.17.05-.53.34-.34.56.5.57.8 1.27.84 2.04.02.4-.02.84-.12 1.24-.1.39-.17.82-.48 1.08-.26.24-.58.44-.91.56-.22.07-.46-.15-.6-.32-.48-.62-.27-1.56-.07-2.25.12-.43.3-.84.52-1.23.15-.24.39-.74.7-.76.24-.03.58-.22.53-.48-.05-.27-.39-.36-.6-.32ZM14.55 73.98c-1.16.14-1.8 1.27-2.21 2.25-.39.91-.72 2.14-.24 3.07.21.44.6.75 1.05.87.58.14 1.13-.07 1.61-.36.48-.3.96-.58 1.27-1.06.3-.5.46-1.05.5-1.63a4.03 4.03 0 0 0-.93-3.22c-.29-.36-1.32.27-.93.7.48.58.76 1.3.81 2.04.03.4-.02.82-.14 1.2-.1.36-.17.74-.43.98-.24.24-.56.41-.87.5-.29.06-.57-.18-.72-.38-.48-.62-.3-1.5-.1-2.2.13-.44.3-.84.53-1.23.12-.2.34-.67.58-.7a.83.83 0 0 0 .67-.47c.05-.27-.21-.39-.45-.36ZM25.7 74.9c.2-.09.39-.16.58-.18l-.53-.24.05.02-.4-.34c.04.2.04.41.01.6l.03.7.02 1.32.05 2.71c0 .2.43.41.55.48.07.03.43.27.43.1l-.07-3.7-.02-.91c0-.24.05-.55-.07-.77a1.8 1.8 0 0 0-.84-.62c-.27-.1-.5.05-.75.14-.17.05.22.34.27.36.14.1.52.41.7.34ZM37.25 74.1c-1.15.14-1.82 1.22-2.26 2.2-.38.94-.74 2.14-.3 3.1.18.43.57.77 1.02.91.56.17 1.1-.07 1.59-.33.48-.24.91-.58 1.25-1.01.3-.5.48-1.06.55-1.66a4.06 4.06 0 0 0-.87-3.24c-.16-.21-.5-.1-.7.03-.14.1-.5.4-.3.62.5.58.79 1.3.86 2.04a4 4 0 0 1-.12 1.2c-.07.34-.14.74-.4 1-.25.22-.54.42-.82.51-.32.1-.63-.12-.82-.36-.5-.6-.36-1.49-.17-2.18.12-.43.29-.84.5-1.25.1-.17.2-.34.34-.5.05-.08.1-.12.17-.17.02-.03.12-.05.05-.05.29-.02.57-.2.72-.46.1-.19-.03-.43-.29-.4ZM48.15 75.22c.14-.07.3-.14.45-.17l-.38-.14.05.02-.22-.24c-.1-.19-.02.03-.02.12v.36l.02.63.03 1.32.04 2.64c0 .57 1.06.98 1.04.24l-.08-3.6-.02-.84c0-.29 0-.58-.02-.89a.88.88 0 0 0-.63-.72c-.29-.07-.57.1-.84.2-.6.28.05 1.29.58 1.07ZM60.14 74.45c-.55.08-1.2.22-1.6.63-.34.36-.6.77-.8 1.2-.43.86-.81 2.11-.4 3.05.16.4.52.72.95.84.56.12 1.23-.12 1.7-.34.46-.2.9-.46 1.26-.82.36-.38.48-.96.57-1.46a3.79 3.79 0 0 0-.81-3.24c-.08-.1-.5.05-.6.07-.2.05-.39.12-.56.24.5.6.82 1.35.9 2.14.02.43-.03.84-.13 1.25-.1.43-.19.93-.53 1.24-.14.15-.3.27-.48.36l-.24.15c-.1.05-.21.1-.3.17l.23-.08c.27-.04.31-.07.15-.07l-.12-.02c-.08-.03-.17-.05-.24-.1a1.4 1.4 0 0 1-.46-.38c-.5-.67-.36-1.61-.17-2.35.12-.44.3-.87.5-1.28.13-.21.25-.43.41-.62l.22-.26c.24-.24.38-.12-.31-.05.29-.03.55-.1.81-.22.24 0 .27-.07.05-.05ZM70.82 75.34c.12-.05.48-.24.6-.17l-.24-.33.03.05-.22-.53c.02.19.02.4 0 .6v.62L71 76.9l.05 2.6c.03.23.12.47.24.69.05.1.12.26.2.31.02 0 .09.1.09.03l-.05-3.77-.02-.91c.02-.27 0-.56-.05-.82a1.87 1.87 0 0 0-.48-.91c-.2-.17-.5.05-.7.12-.1.05.36 1.15.53 1.1ZM82.15 75.08c.17-.1.34-.14.5-.2l-.33-.16.05.02-.41-.43v1.2l.02 1.32.05 2.64c0 .24.29.48.46.6.05.05.48.31.48.1l-.07-3.72-.03-.91c.03-.27 0-.53-.05-.8-.14-.33-.43-.6-.76-.74-.27-.1-.5.07-.77.14-.27.08.57 1.06.86.94ZM93.34 74.88c.17-.07.33-.14.5-.19l-.17.03h.08l-.68-.27c-.16-.12-.1 0-.1.15v1l.03 1.32.05 2.7c0 .3 1.1.69 1.1.38l-.07-3.72-.02-.92c0-.24.05-.57-.07-.79-.15-.29-.63-.48-.92-.5-.26 0-.52.07-.76.21-.22.08.21.36.28.41.2.15.48.3.75.2ZM104.57 74.14c-1.1.14-1.7 1.25-2.09 2.18-.38.94-.67 2.12-.22 3.05.24.46.65.8 1.13.91.58.12 1.18.03 1.66-.3.48-.22.89-.56 1.2-1 .26-.47.43-1.02.48-1.58.2-1.15-.15-2.3-.89-3.19a.7.7 0 0 0-.77-.17c-.17.05-.53.32-.33.56.5.57.79 1.27.84 2.04.02.4-.03.84-.12 1.24-.1.39-.17.82-.48 1.08-.27.24-.58.44-.92.56-.24.07-.45-.15-.6-.32-.48-.62-.26-1.56-.07-2.25.12-.43.31-.84.53-1.23.14-.24.38-.74.7-.76.24-.03.57-.22.52-.48-.04-.27-.36-.36-.57-.34Z" />
    </g>
    <path fill="var(--a, blue)" d="M55.27 108.3s3.74-7.6 8.06-5.8c4.32 1.8 4.22 5.67 4.22 5.67l-12.28.12Z" />
    <path fill="var(--a, blue)"
      d="M55.87 108.17c.31-.6.65-1.17 1-1.73a13.1 13.1 0 0 1 2.7-3.07c.5-.43 1.07-.77 1.7-.98l.14-.05c.05-.02.03 0-.07 0h.36c.34.02.67.1.98.24 1.61.6 2.93 1.78 3.7 3.31.38.75.58 1.56.58 2.38l1.1-.24-4.13.05-6.62.07-1.54.02c-.26 0-.55.05-.81.12-.05.03-.44.15-.2.15l4.13-.05 6.6-.07 1.54-.03c.12 0 1.08-.07 1.1-.24 0-.77-.19-1.5-.5-2.2a6.82 6.82 0 0 0-3.75-3.49 4.29 4.29 0 0 0-2.32-.21c-.84.12-1.66.38-2.38.81a10.7 10.7 0 0 0-3.07 3.08c-.55.74-1.03 1.53-1.44 2.35.19 0 .4 0 .6-.03.14-.02.53-.04.6-.19Z" />
    <path fill="var(--c, black)"
      d="M63.72 103.61c1.46 0 2.23 1.5 2.8 2.64.05.1.2.08.27.08.14-.03.29-.1.4-.17.18-.12.44-.36.32-.6-.29-.7-.7-1.35-1.2-1.9a2.77 2.77 0 0 0-1.9-.89.96.96 0 0 0-.74.39c-.1.12-.24.45.05.45ZM84.93 55.78c.08-.55.36-1.03.75-1.41.12-.1.21-.2.36-.3l.1-.06c.04-.03.11-.07.19-.1.14-.1.3-.17.48-.21l.28-.12.15-.05c.7-.22 1.41-.39 2.13-.53l.5-.1c.22-.04.08-.02.03 0l.31-.04c.17-.03.34-.05.5-.05H91.14h-.03c.12 0 .34.02.5.05.08 0 .2-.03-.02 0 .1 0 .2.02.3.07l.18.05.1.04.2.1c.09.05.09.05 0 0l.11.07c.12.07.22.17.34.24.21.17-.1-.12.1.1l.11.14c.22.24.43.53.6.8.7 1.1 1.08 2.63 1.27 3.98.24 1.65.17 3.36.08 5.01-.03.53.7.82 1.12.84.39.03 1.23-.04 1.25-.6.2-3.26.2-6.88-1.6-9.76a5.47 5.47 0 0 0-4.2-2.55c-1.73-.17-3.56.27-5.21.75-1.7.5-3.55 1.5-3.82 3.45-.07.53.72.8 1.13.82.4.02 1.22-.05 1.3-.63Z" />
    <path fill="var(--b, white)" d="M98.18 106.57H85.1l-5.88-8.88H92.3l5.88 8.88Z" />
    <path fill="var(--c, black)"
      d="M98.33 106.11H85.25l.4.22-1.99-3-3.17-4.78-.74-1.1-.7.67h13.08l-.4-.22 1.96 3 3.17 4.78.75 1.1c.16.22.48.3.72.15.16-.07.55-.36.4-.6l-2.4-3.63-3.21-4.87-.24-.38a.6.6 0 0 0-.58-.22h-8.33c-1.5 0-3.02-.02-4.53 0h-.07c-.22 0-.41.1-.56.24-.1.1-.24.31-.14.43l2.4 3.63 3.22 4.87.24.38a.6.6 0 0 0 .57.22h8.3c1.52 0 3.03.02 4.54 0h.07c.32 0 .58-.17.7-.46.1-.26-.14-.43-.38-.43Z" />
    <path fill="var(--c, black)"
      d="m76.72 107.72 6.92-.05 11.01-.07 2.52-.02c.29-.05.55-.15.8-.31.33-.2.67-.39.98-.6.29-.2.55-.41.81-.65.08-.07.41-.34.32-.48l-2.36-3.75-3.74-5.97-.86-1.37c-.08-.12-.53.1-.56.12-.76.36-1.48.84-2.1 1.42-.08.07-.42.33-.32.48l2.35 3.74 3.75 5.98.86 1.36 2.88-2.04-6.91.05-11.02.07-2.5.03a1.9 1.9 0 0 0-.79.31 8.73 8.73 0 0 0-1.99 1.46c-.1.05-.29.3-.05.3Z" />
    <path fill="var(--c, black)"
      d="M110.61 98.4H62.18l4.54-35.49h48.43c1.7 0 3.1 1.4 3.1 3.1l-4.54 29.3c0 1.7-1.4 3.1-3.1 3.1Z" />
    <path fill="var(--c, black)"
      d="M110.42 97.85H63.98c-.62 0-1.25-.02-1.9 0h-.07l.7.77.46-3.55 1.08-8.5 1.32-10.22 1.12-8.88.36-2.9c.1-.46.15-.92.17-1.4v-.07l-.36.34h48.43a2.44 2.44 0 0 1 2.38 2.2c0 .03 0 .24.02.12v.05c0 .07-.02.17-.04.24l-.41 2.64-.72 4.61-.89 5.71-.91 5.88-.82 5.26-.57 3.7-.15.98c-.05.31-.05.62-.12.93a2.66 2.66 0 0 1-2.64 2.1c-.29 0-.4.35-.33.6.1.28.38.47.7.47a3.48 3.48 0 0 0 3.42-3.3v-.13c0-.07.03-.12.03-.2l.38-2.49.7-4.53.89-5.74.93-5.98.82-5.32.57-3.75c.1-.67.27-1.32.15-1.99a3.83 3.83 0 0 0-3.91-3.14H66.55a.43.43 0 0 0-.36.33l-.46 3.55-1.08 8.5-1.3 10.22-1.12 8.88c-.2 1.44-.38 2.86-.55 4.3v.05a.7.7 0 0 0 .62.77h46.56c.63 0 1.25.02 1.9 0h.07c.31 0 .4-.36.34-.6a.83.83 0 0 0-.75-.5Z" />
    <path fill="var(--b, white)"
      d="M109.3 98.38H61.74a3.1 3.1 0 0 1-3.1-3.1l4.54-29.3c0-1.7 1.39-3.1 3.1-3.1h47.54c1.7 0 3.1 1.4 3.1 3.1l-4.54 29.3c0 1.7-1.4 3.1-3.1 3.1Z" />
    <path fill="var(--c, black)"
      d="M109 97.92H62.29c-.46.03-.91 0-1.37-.04a2.25 2.25 0 0 1-1.75-2.28c0-.15.05-.32.07-.46l.43-2.8 1.61-10.4 1.68-10.92.55-3.58.15-.9c.02-.37.07-.7.14-1.06a2.95 2.95 0 0 1 2.78-2.14h47.38a2.29 2.29 0 0 1 2.47 2.33c-.02.53-.17 1.08-.24 1.6l-1.41 9.2-1.78 11.47-1.06 6.84c-.02.34-.07.7-.14 1.03a2.9 2.9 0 0 1-2.78 2.11c-.27 0-.22.32-.12.48.14.24.4.41.7.44a3.3 3.3 0 0 0 3.09-2.16c.12-.41.19-.84.21-1.3l.39-2.42.7-4.5.86-5.66.91-5.9.82-5.33.6-3.81c.07-.5.19-1.01.24-1.52.07-1.48-1.06-2.85-2.33-3.45a3.96 3.96 0 0 0-1.66-.36H65.83a3.33 3.33 0 0 0-2.98 2.28c-.1.38-.16.79-.19 1.2l-.14.93-.55 3.6-.8 5.19-.9 5.9-.9 5.74-.72 4.65-.43 2.72c-.26 1.65.87 3.26 2.38 3.9.7.3 1.39.32 2.13.32h46.88c.26 0 .21-.31.12-.46a.99.99 0 0 0-.72-.48Z" />
    <path fill="var(--a, blue)" d="M110.3 93.8H60.9l4.06-28.56h49.4L110.3 93.8Z" />
    <path fill="var(--a, blue)"
      d="M110.22 93.39H62.85c-.65 0-1.3-.03-1.92 0h-.07l.65.55.4-2.86.96-6.81 1.18-8.23 1-7.16.34-2.35c.08-.36.12-.74.17-1.13v-.04l-.5.26h47.4c.64 0 1.3.02 1.92 0h.1l-.66-.55-.4 2.85-.96 6.82-1.18 8.23-1 7.15c-.18 1.16-.37 2.3-.49 3.46v.05c-.07.53 1.1.8 1.18.29l.4-2.86.97-6.82 1.17-8.23 1.01-7.15c.17-1.15.36-2.3.48-3.46v-.04c.05-.34-.38-.56-.65-.56H64.9c-.17 0-.48.05-.5.27l-.41 2.85-.96 6.82-1.18 8.23-1.03 7.15c-.17 1.16-.36 2.3-.48 3.46v.05c-.05.33.38.55.65.55h49.36c.22 0 .56-.07.53-.36-.02-.29-.4-.43-.65-.43Z" />
    <path fill="var(--b, white)" d="M85.4 96.56a.7.7 0 1 0 .01-1.4.7.7 0 0 0 0 1.4Z" />
    <path fill="var(--c, black)"
      d="M85.82 95.81c0 .05 0 .12-.03.17l-.02.1-.02.05c.02-.03 0 .02-.03.02-.05.05-.07.1-.12.14l-.02.03h-.03l-.1.05h-.09c-.05.02.05 0 0 0H85.27s-.05 0-.05-.03c0-.02 0-.02.02 0-.02 0-.02-.02-.05-.02-.04-.03.03 0 .03 0l-.07-.05c.02.02.02.05 0 0l-.05-.05-.03-.05c-.02-.02-.02-.04-.04-.1v-.04c0-.02 0-.07-.03-.1v-.14l.07-.2v-.02l.03-.02c.02-.02.05-.05.05-.07.02 0 .04-.03.07-.03l.07-.02.02-.02.1-.03c.02 0 .05 0 0 0h.1c.02 0 .07.03 0 0l.04.03c.05.02-.04-.03-.02 0l.05.02s-.05-.02-.03 0c.03 0 .05.02.05.05.05.05.03.02.03.05 0 .02.04.04 0 0l.02.04c.02.03.02.08.05.1.02.05 0-.02 0 .02l.02.08v.12c0 .04.05.12.1.14.07.05.14.07.21.1.1.02.27 0 .27-.15 0-.84-1.25-1.27-1.78-.65a.83.83 0 0 0-.07.96c.24.39.7.58 1.13.5.4-.06.72-.4.72-.83 0-.05-.07-.12-.1-.15l-.21-.1c0-.06-.17-.04-.17.1Z" />
    <path fill="var(--b, white)"
      d="M80.68 90.95H91l-1.87-10.37s4.63-1.44 3.05-6.94-7.75-2.97-9.05-.24C80.78 78.37 85 81.1 85 81.1l-4.32 9.85Z" />
    <path fill="var(--c, black)"
      d="M84.45 75.75a.53.53 0 1 0 0-1.06.53.53 0 0 0 0 1.06ZM88.63 75.96a.53.53 0 1 0 0-1.05.53.53 0 0 0 0 1.05Z" />
    <path fill="var(--c, black)"
      d="M79.87 55.25a6.02 6.02 0 0 1-1.08-.62l-.12-.07-.07-.05c-.08-.05.1.07.04.02-.04-.05-.16-.12-.24-.19-.16-.14-.3-.29-.48-.43a.65.65 0 0 0-.84-.05c-.21.22-.19.58.03.77a7.34 7.34 0 0 0 2.18 1.53c.15.08.29.1.46.08a.5.5 0 0 0 .33-.24c.17-.27.05-.6-.21-.75ZM78.67 57.6c-.92.1-1.83.13-2.74.13-.22 0-.38.16-.38.36 0 .04 0 .1.02.14.12.29.38.48.7.48.9 0 1.82-.05 2.73-.12.22 0 .39-.17.39-.38 0-.05 0-.1-.03-.15a.72.72 0 0 0-.7-.45ZM35.5 78.54s11.05-.77 12.97-10.83c1.92-10.05.72-19.6-7.92-20.85s-21.88 8.88-21.07 16.2c.82 7.32 7.1 13.5 7.1 13.5l8.91 1.98Z" />
    <path fill="var(--c, black)"
      d="m35.47 78.66-8.95-1.97-.03-.02c-.07-.08-6.3-6.32-7.12-13.59-.32-2.78 1.41-6.24 4.72-9.45 4.92-4.76 11.7-7.59 16.5-6.9 2.75.42 4.89 1.66 6.38 3.75 1.77 2.5 3.5 7.54 1.65 17.26-1.94 10.03-13 10.92-13.15 10.92Zm-8.8-2.19 8.82 1.95c.48-.05 11.02-1.06 12.87-10.73 1.85-9.67.14-14.62-1.61-17.06a8.87 8.87 0 0 0-6.22-3.65c-4.72-.7-11.42 2.11-16.27 6.81-3.26 3.15-4.97 6.53-4.65 9.24.79 6.99 6.62 13.01 7.05 13.44Z" />
    <path fill="var(--b, white)"
      d="M45.33 57.66s.4 4.03 2.83 5.64c2.43 1.6 7.59 3.98 6.43 6.7-1.15 2.7-4.9 1.29-6.64-.51 0 0-3.84 6.57-8.7 5.69-4.84-.9-5.82-3.12-7.86-.77 0 0-7.59 1.15-4.7-3.96.45-.8 5.13-11.23 12.8-10.2.03 0 4.26.81 5.84-2.6Z" />
    <path fill="var(--c, black)"
      d="M44.88 57.59c.12 1.08.4 2.16.84 3.14.36.86.86 1.66 1.51 2.35.62.63 1.4 1.06 2.14 1.51 1.48.9 3.14 1.78 4.3 3.1.09.12.2.24.28.38l.22.39c.02.07.07.14.1.24.02.1-.03-.12 0 .05 0 .02 0 .07.02.12.02.04.02.1.02.12 0 .1 0 .19-.02.26a2.08 2.08 0 0 1-1.3 1.58c-.8.3-1.7.12-2.47-.16a6.99 6.99 0 0 1-2.3-1.47c-.15-.14-.49-.36-.63-.1-1 1.76-2.4 3.27-4.06 4.45a5.93 5.93 0 0 1-4.12 1.17c-1.73-.24-3.3-.96-4.9-1.53-.58-.22-1.2-.41-1.8-.3-.7.13-1.22.6-1.66 1.14l.2-.12c-.48.07-.99.1-1.5.12-.42 0-.86 0-1.29-.08a6.58 6.58 0 0 1-.67-.12l-.17-.04-.07-.03c-.07-.02.07.03 0 0-.1-.05-.22-.07-.31-.12l-.27-.14c.12.07 0 0-.04-.03l-.12-.1-.03-.02-.1-.1c-.09-.09.05.13 0 0l-.07-.14c.1.15.03.03 0-.02-.02-.05-.04-.14-.02-.02l-.02-.15v-.07c-.03-.12 0 .12 0-.02 0-.24.02-.48.1-.72.18-.7.6-1.37.93-2.02 1.05-2.09 2.4-4 3.98-5.74 1.95-2.04 4.54-3.72 7.47-3.55.81.05 1.58.2 2.42.12a5.45 5.45 0 0 0 3.7-1.75c.26-.34.5-.72.67-1.1.21-.46-.6-1.28-.89-.68a4.22 4.22 0 0 1-2.47 2.16 5.5 5.5 0 0 1-1.4.27c-.21.02-.4.02-.62.02l-.43-.02c-.67-.07-1.34-.12-2.02-.15-1.12.05-2.2.34-3.24.8-1.99.9-3.64 2.47-5.01 4.15a25.96 25.96 0 0 0-2.83 4.34c-.2.36-.36.72-.56 1.06-.45.84-.88 1.75-.7 2.71.32 1.68 2.05 2.23 3.54 2.33.64.05 1.27.02 1.92-.03l.48-.04c.28-.05.45-.36.67-.56.26-.24.6-.4.96-.48.36-.02.72.03 1.03.15 1 .31 2.16.86 3.24 1.2 1.32.38 2.69.72 4.06.43a7.94 7.94 0 0 0 3.1-1.51 15.33 15.33 0 0 0 3.57-3.99c.05-.1.12-.16.17-.26l-.63-.12c1.25 1.27 3.1 2.3 4.92 2.2a2.69 2.69 0 0 0 2.45-3.52 5.33 5.33 0 0 0-1.54-2.16 15.21 15.21 0 0 0-2.35-1.73c-.79-.5-1.63-.98-2.4-1.46a5.03 5.03 0 0 1-1.77-1.7 8.9 8.9 0 0 1-1.25-3.7.78.78 0 0 0-.55-.63c-.34-.1-.44.2-.41.44Z" />
    <path fill="var(--c, black)"
      d="M28.05 64s-4.05-.56-3.84-2.8c.22-2.22 2.38-.76 2.38-.76s-1.03-5.18 3.02-4.37c0 0-1.82-4.34 1.83-6.21 3.65-1.88 7.73 2.01 7.73 2.01s1.7-4.46 5.28-2.33c3.57 2.14 1.53 4.42 1.53 4.42s2.3 1.34 1.73 2.88c-.58 1.54-2.64 1.4-2.64 1.4s-2.5 4.05-5.54 2.03l-5.48 4.13s.32 2.45-1.77 3.98c-2.09 1.54-5.57-1.65-4.23-4.39Z" />
    <path fill="var(--c, black)"
      d="M28.22 63.44c-.31-.05-.6-.12-.91-.2a5.72 5.72 0 0 1-1.63-.66c-.46-.3-.87-.68-.92-1.23v-.14c0-.1.03-.2.05-.29l.07-.22c.05-.1-.02.05 0-.02 0-.02.1-.14.05-.1-.05.05.2-.16.03-.02l.07-.05c-.05 0-.1.07-.03.03.03 0 .05-.03.08-.03-.12.03-.08 0-.03 0s.24 0 .12-.02c.15.02.29.05.43.1-.12-.03.08.02.1.04l.17.07c.12.05.24.12.36.2.4.26.98-.22.89-.65l-.08-.46-.02-.24c0-.02-.02-.14 0-.07s0-.07 0-.12v-.6c0-.22.02-.46.07-.67l.03-.15.02-.07c.02-.12.07-.21.1-.33l.12-.27c-.05.12.02-.02.04-.05.03-.04.05-.1.1-.14a.42.42 0 0 1 .1-.12c.04-.05-.08.07-.03.02.03-.02.05-.04.05-.07l.12-.1.07-.04-.02.02.17-.1.07-.04c-.15.05.07-.05 0 0 .07-.03.12-.05.19-.05l.1-.02c.1-.03-.05 0 .02 0 .34-.05.7-.03 1.03.04.34.08.67-.14.75-.48a.62.62 0 0 0-.03-.36c-.05-.12.05.15 0 0-.02-.1-.07-.21-.1-.3-.09-.34-.19-.7-.23-1.06a5.22 5.22 0 0 1-.03-1.37c.05-.48.2-.94.43-1.37a3.82 3.82 0 0 1 3.12-1.78 6.84 6.84 0 0 1 3.6 1.06 9.8 9.8 0 0 1 1.83 1.32c.31.31.84.07.98-.29l.15-.29c.04-.1-.08.12-.03.03l.05-.1.07-.14c.07-.15.17-.29.24-.4.07-.13.2-.3.29-.42l.1-.12.02-.02.22-.22.21-.19.15-.12c.16-.12.36-.24.55-.31l.14-.05c.1-.02.22-.07.31-.07l.2-.03h.33c.58.1 1.1.32 1.59.63.52.31.98.74 1.32 1.25.12.16.19.36.26.55a2 2 0 0 1 .07.53l-.02.33c-.03.05-.03.12-.05.17-.02.07-.05.17-.1.24-.02.02-.02.05-.04.1-.05.1.07-.12 0 .02a2 2 0 0 1-.2.29c-.1.12-.07.1 0 0-.24.26-.26.65.08.84l.07.05.1.04c.11.08-.05-.02.04.03l.63.5c.4.39.84.94.72 1.51a1.2 1.2 0 0 1-.48.7c.07-.05-.1.07-.12.07-.08.05-.15.07-.22.12l-.12.05-.2.05-.18.05c-.08 0-.08.02 0 0l-.1.02c-.12.02-.22.02-.34.02h-.33c-.22 0-.41.12-.53.3-.12.18-.24.38-.38.54l-.1.15c.1-.12-.02.05-.05.05-.07.1-.17.16-.24.26-.19.22-.4.4-.65.58l-.28.19c-.12.1-.27.17-.41.24-.1.07-.22.1-.34.14l-.4.12a2.7 2.7 0 0 1-1.88-.48c-.24-.14-.53-.02-.72.12l-4.97 3.75c-.3.24-.7.4-.64.88v.24a3.92 3.92 0 0 1-1.63 3.26.86.86 0 0 1-.44.18c-.31.04-.62.04-.91-.05a3.38 3.38 0 0 1-1.8-1.51c-.46-.77-.5-1.7-.12-2.52a.49.49 0 0 0-.29-.63c-.02-.05-.05-.07-.07-.07a.68.68 0 0 0-.74.43c-.92 1.92.24 4.27 2.1 5.14.9.4 1.98.45 2.84-.1a4.91 4.91 0 0 0 2-2.7c.18-.66.26-1.33.18-1.98l-.19.53 4.78-3.6.7-.5-.73.12c1.1.72 2.52.79 3.7.19a7.13 7.13 0 0 0 2.66-2.47l-.52.28c.9.08 1.99-.24 2.64-.88.55-.53.79-1.28.67-2.02a3.19 3.19 0 0 0-1.03-1.63 6.21 6.21 0 0 0-1.01-.77l.07.84c.38-.46.65-1 .74-1.58.2-1.2-.5-2.28-1.39-3.03-1.08-.86-2.42-1.53-3.84-1.2-.98.22-1.77.91-2.37 1.68-.36.48-.68 1.01-.9 1.56l1-.29a9.64 9.64 0 0 0-1.8-1.32 8.5 8.5 0 0 0-4.09-1.34 5.24 5.24 0 0 0-4.22 1.94c-.77.99-1.01 2.26-.91 3.48.04.75.21 1.47.5 2.14l.7-.84c-1.35-.26-2.74.05-3.41 1.34a5.52 5.52 0 0 0-.43 3.05c.02.24.04.46.1.7l.88-.65a3.08 3.08 0 0 0-1.27-.5 1.67 1.67 0 0 0-1.95 1.34c-.24.84.05 1.73.68 2.33.6.5 1.32.89 2.06 1.08.46.14.91.26 1.4.33a.7.7 0 0 0 .74-.4.49.49 0 0 0-.27-.63c-.02-.05-.05-.05-.07-.07ZM43 68.41c-.31 1.15-.1 2.5.7 3.38.45.5 1.03.9 1.68 1.16.14.04.19 0 .07-.12a1.3 1.3 0 0 0-.53-.36 1.12 1.12 0 0 1-.24-.12.43.43 0 0 1-.17-.12c-.12-.1-.21-.22-.3-.34a2.84 2.84 0 0 1-.46-.98 3.98 3.98 0 0 1 0-2.02c.04-.2-.72-.53-.75-.48Z" />
    <path fill="var(--c, black)"
      d="M48.14 61.3S33.6 66.76 28.27 75.1c0 0-2.88.7-3.12-1.84-.24-2.55 7.73-19.4 7.73-19.4l8.95-.93 6.31 8.38Z" />
    <path fill="var(--c, black)"
      d="M27.43 75.32c-.55.03-1.1-.14-1.58-.43-.5-.38-.82-.98-.84-1.6-.24-2.55 7.39-18.78 7.72-19.45l.03-.05 9.1-.93 6.47 8.57-.14.04c-.14.05-14.57 5.52-19.82 13.76l-.03.04h-.05c-.28.03-.57.05-.86.05Zm5.5-21.36c-.53 1.1-7.9 16.85-7.68 19.27.02.58.28 1.1.74 1.44.77.56 1.94.36 2.18.34 5.04-7.82 18.22-13.15 19.78-13.75l-6.2-8.19-8.82.9ZM53.23 106.33c.16 0 .62 0 .72-.2.1-.19-.36-.19-.44-.19-.16 0-.62 0-.72.2-.1.19.36.19.44.19Z" />
    <path fill="var(--b, white)"
      d="M53.37 106.14c3.58 1.2 5.74-1.06 5.74-1.06 1.46 1.56 3.3-1.7 3.3-1.7s1.35.02 1.69-1.85c.33-1.87-1.37-3.43-1.37-3.43s5.78.46 6.17-.46c.38-.9-2.21-2.66-7.47-2.3-5.25.36-11.92 5.52-11.92 5.52l-4.28 2.11" />
    <path fill="var(--c, black)"
      d="M52.86 106.28a7.5 7.5 0 0 0 5.02-.07c.67-.24 1.3-.62 1.8-1.13l-1.15.1c.84.86 2.3.55 3.14-.17.53-.48.99-1.03 1.32-1.65l-.72.19a2.4 2.4 0 0 0 2.04-1c.75-1.19.43-2.63-.3-3.7-.2-.32-.44-.6-.7-.85l-.87.3c.77.04 1.56.09 2.33.11 1.25.03 2.54.05 3.74-.24.31-.07.82-.19.96-.53a.7.7 0 0 0-.17-.74 2.7 2.7 0 0 0-1.03-.77c-.6-.29-1.22-.5-1.87-.65-1.92-.43-3.89-.5-5.83-.24a17.4 17.4 0 0 0-4.87 1.52 35.08 35.08 0 0 0-6.75 4.05c-.02.05.12-.05.07-.02l-.1.05-1.12.55-2.83 1.4-.2.09c-.19.1-.19.21.03.26.29.07.58.05.84-.07 1.42-.7 2.86-1.4 4.27-2.11.46-.27.9-.58 1.3-.92a33.25 33.25 0 0 1 7.68-3.98c1.58-.48 3.24-.67 4.87-.53 1.27.1 2.66.34 3.77 1.01.31.17.55.4.74.7.05.1.07.21.07.33 0 .07-.04.15-.1.2l-.06.04c.07-.05 0 0-.05 0s-.12.05-.03.03l-.14.04c-.1.03.07 0-.05 0l-.17.03-.16.02c-.1 0 .1 0 0 0h-.1c-.53.05-1.08.07-1.63.07-.55 0-1.1-.02-1.66-.04h-.24l-.33-.03-.44-.02h-.16a1.6 1.6 0 0 0-.68.07c-.04.02-.3.12-.19.22.77.72 1.4 1.8 1.4 2.88 0 .67-.22 1.44-.75 1.9-.07.06-.17.14-.26.18a.18.18 0 0 0-.1.05c-.07.03.02-.05-.02 0l-.05.03c.1-.03.12-.03.05-.03-.12.03.04 0 .07 0h.07c-.17 0-.62 0-.72.2-.26.45-.55.86-.91 1.24-.24.3-.53.5-.84.67l-.12.05c.07-.02-.12 0 .02 0h.12c.07 0 .07.03.03 0-.17-.1-.32-.19-.46-.3-.22-.23-.96-.13-1.15.09-.1.1-.2.16-.29.24a4.52 4.52 0 0 1-4.34.67 1.58 1.58 0 0 0-.82 0c-.12-.03-.48.14-.22.21Z" />
    <path fill="var(--b, white)" d="M60.55 99.56s2.52 1.16 1.87 3.8l-1.87-3.8Z" />
    <path fill="var(--c, black)"
      d="M60.45 100.02c.07.05.15.07.22.12.05.02.07.05.1.07l.07.05.1.07c.04.05.09.07.14.12.04.05.1.1.14.12l.07.07.03.03-.05-.05.3.36.06.05-.03-.05c.05.07.05.07.05.1.05.07.1.14.12.23l.05.12c-.05-.1-.02-.04 0 0 .02.1.07.2.1.3 0 .02.04.18.02.06l.02.17c.03.12.03.24.03.36v.1c0 .07 0 .14-.03.21l-.07.44c-.02.3.12.6.4.72.23.12.51.1.59-.2.24-.96.1-1.96-.41-2.83a4.93 4.93 0 0 0-1.54-1.53c-.1-.08-.21-.12-.33-.2-.22-.1-.53-.1-.58.2 0 .36.17.64.43.79Z" />
    <path fill="var(--b, white)" d="M59.78 102.9s-.55 4.94-7.25 3.21l7.25-3.21Z" />
    <path fill="var(--c, black)"
      d="M59.18 102.8c-.02.15-.05.31-.1.46l-.07.21-.07.17a3.74 3.74 0 0 1-3 2.35c-.12.03.14-.02-.07 0-.07 0-.12.03-.2.03l-.35.02a9.9 9.9 0 0 1-2.6-.31c-.24-.07-.62-.07-.76.2-.15.26.12.5.33.57 1.9.48 4.13.74 5.9-.31a4.61 4.61 0 0 0 2.17-3.17c.07-.6-1.1-.77-1.18-.22Z" />
    <path fill="var(--c, black)"
      d="M1.87 108.58S18.4 71.22 27.86 69.01c9.46-2.21 12.94 23.5 16.4 26.16 3.45 2.66 8.97.93 8.97.93l-.94 12.94" />
    <path fill="var(--c, black)"
      d="M2.37 108.87c.46-1.05.96-2.11 1.44-3.14 1.23-2.6 2.47-5.19 3.77-7.75 1.7-3.36 3.46-6.72 5.33-9.99 1.87-3.26 3.84-6.55 6.02-9.65 1.75-2.52 3.67-5.04 6.03-7.03a9.2 9.2 0 0 1 2.66-1.65c.1-.05.22-.08.31-.1-.1.02.1-.02 0 0l.07-.02.2-.05c.3-.07.62-.1.93-.12h.1c-.12 0 .07 0 0 0h.24c.14 0 .29.02.43.05l.22.04c.14.03-.05-.02.1.03l.42.14c.15.05.27.12.39.17l.1.05c.07.05.14.1.21.12.12.07.26.14.38.24l.17.12.12.1c.24.19.48.4.72.64l.2.2.07.09.36.43a21.08 21.08 0 0 1 .96 1.3c.14.24.14.21.28.43.46.72.84 1.44 1.23 2.2a76.45 76.45 0 0 1 3.89 10.02c.52 1.56 1.03 3.12 1.58 4.65.4 1.2.89 2.38 1.46 3.53.22.4.46.8.77 1.15a6.1 6.1 0 0 0 2.26 1.47c2.04.81 4.39.76 6.53.36.4-.08.84-.2 1.22-.32l-.89-.64-.31 4.36-.48 6.96-.12 1.61c-.02.5 1 1.03 1.06.39l.3-4.37.51-6.96.12-1.61c.03-.43-.5-.77-.89-.65-.1.03.12-.02.03 0l-.29.07-.96.22c-.96.2-1.94.26-2.93.24-1.2 0-2.35-.29-3.43-.82a4.9 4.9 0 0 1-.94-.62c-.12-.1.05.05 0 .02-.04-.02-.04-.04-.07-.1-.07-.06-.12-.14-.19-.23l-.1-.12v-.1c-.07-.1.08.12.03.03-.05-.1-.12-.22-.2-.32l-.35-.7c-.27-.54-.48-1.1-.72-1.65 0-.02-.05-.14-.03-.05-.02-.04-.02-.1-.05-.12l-.07-.21a4.66 4.66 0 0 1-.19-.53L42 89.6c-.27-.77-.53-1.54-.77-2.3-1.15-3.46-2.3-6.94-3.8-10.28A29.03 29.03 0 0 0 35 72.54c-.8-1.23-1.83-2.3-3.03-3.17a5.72 5.72 0 0 0-3.62-1.03 6.34 6.34 0 0 0-2.95 1.1c-2.38 1.54-4.25 3.84-5.93 6.05a95.4 95.4 0 0 0-6.12 9.29 199.92 199.92 0 0 0-5.62 10.2 473.14 473.14 0 0 0-4.2 8.61c-.7 1.49-1.41 3-2.08 4.49l-.1.2c-.2.5.8 1.17 1.03.6Z" />
    <path fill="var(--b, white)"
      d="M25.92 95.2c.26 2.01 1.2 3.9 2.01 5.73.7 1.68 1.59 3.29 2.64 4.78.6.84 1.32 1.6 2.12 2.28.28.24 1.36-.22 1.08-.46-2.84-2.37-4.28-5.93-5.67-9.24a14.5 14.5 0 0 1-1.03-3.43c-.02-.34-1.18-.07-1.15.34Z" />
  </g>
</svg>