<svg xmlns="http://www.w3.org/2000/svg" fill="none" viewBox="0 0 120 120">
  <g id="doc">
    <path fill="var(--b, white)"
      d="m22.1 15.38 38.52-.14a3.9 3.9 0 0 1 3.92 3.89l.28 81.6a3.9 3.9 0 0 1-3.88 3.91l-38.52.14a3.9 3.9 0 0 1-3.92-3.88l-.28-81.6a3.9 3.9 0 0 1 3.88-3.92Z" />
    <path fill="#002780"
      d="M22.51 105.14h2.67l6.74-.02 8.83-.02 9.07-.03 7.37-.02h3.72c2.43-.03 4.51-1.8 4.51-4.3v-1.94l-.02-4.25-.02-6.12-.03-7.56-.02-8.57-.03-9.1-.02-9.28-.02-9-.03-8.28-.02-7.1-.03-5.57V20.4c0-.7.05-1.44-.12-2.11-.48-2.07-2.44-3.36-4.5-3.39h-.78l-5.04-.02-8.06.02-9.22.03-8.42.05-5.69.02H22.1a4.54 4.54 0 0 0-3.43 1.49 4.19 4.19 0 0 0-1.05 2.83v3.91l.02 5.28.02 6.89.03 8.14.02 8.9.03 9.26.02 9.2.02 8.64.03 7.75.02 6.38.03 4.59v2.37c0 .39.02.77.1 1.13.47 2.04 2.46 3.36 4.55 3.38.22 0 .53-.14.48-.4-.05-.27-.45-.36-.7-.36-1.82-.03-3.16-1.66-3.19-3.41v-3.15l-.02-4.8-.02-6.52-.05-7.78-.03-8.66-.02-9.1-.02-9.17-.03-8.73-.02-7.95-.05-6.79-.02-5.11v-3.77a3.71 3.71 0 0 1 1.24-2.86c1.13-.98 2.5-.81 3.9-.81l5.94-.03 8.48-.02 9.07-.02 7.85-.03 4.77-.02c.29 0 .58-.03.87 0 1.72.14 2.95 1.73 2.97 3.4v5.38l.03 5.76.02 7.2.02 8.3.03 8.91.05 9.17.02 9.02.02 8.38.03 7.41.02 5.96.03 4.15v1.87a3.72 3.72 0 0 1-1.42 3 3.5 3.5 0 0 1-2.28.67h-4.1l-7.47.03-9.05.02-8.66.02-6.5.03h-2.43c-.21 0-.53.14-.48.4.05.27.48.41.72.41Z" />
    <path fill="var(--b, white)"
      d="m25.85 15.38 38.52-.14a3.9 3.9 0 0 1 3.91 3.89l.29 81.6a3.9 3.9 0 0 1-3.89 3.91l-38.52.12a3.9 3.9 0 0 1-3.91-3.89l-.29-81.6a3.9 3.9 0 0 1 3.89-3.89Z" />
    <path fill="#002780"
      d="M26.62 105.1h2.66l6.74-.03 8.84-.02 9.07-.03 7.37-.02c1.24 0 2.47 0 3.72-.02a4 4 0 0 0 4.05-3.96v-2.16l-.02-4.32-.03-6.17-.02-7.59-.02-8.59-.05-9.1-.03-9.28-.02-8.98-.02-8.25-.03-7.08-.02-5.52v-3.5c0-.82.05-1.64-.24-2.4a5.19 5.19 0 0 0-4.63-3.2h-.77l-5 .02-8.06.03-9.21.02-8.43.03-5.69.02h-1.24c-1.3 0-2.5.6-3.27 1.58-.74.99-.79 2.1-.79 3.24v3.27l.02 5.33.03 6.93.02 8.16.05 8.93.02 9.26.03 9.17.02 8.62.03 7.7.02 6.34.02 4.53v2.3c0 .51.08 1 .22 1.47a5.19 5.19 0 0 0 4.66 3.27c.19 0-.24-.36-.24-.39-.2-.17-.41-.29-.68-.31-1.08-.02-1.92-.43-2.47-1.4a3.88 3.88 0 0 1-.48-1.86V97.9l-.02-4.85-.03-6.58-.02-7.8-.02-8.69-.03-9.1-.02-9.14-.05-8.7-.02-7.93-.03-6.74-.02-5.07v-3.67c0-1.22.55-2.37 1.51-3.12 1.2-.91 2.64-.79 4.06-.79L34 15.7l8.5-.03 9.07-.02 7.84-.03 4.78-.02c.31 0 .62-.02.96 0 1 .07 1.92.7 2.28 1.66a4 4 0 0 1 .34 1.6v5.5l.02 5.8.02 7.26.03 8.32.02 8.93.05 9.17.02 9 .03 8.35.02 7.37.03 5.9.02 4.08v1.8c0 1.3-.65 2.52-1.7 3.24-.72.46-1.56.68-2.43.65l-4.1.03-7.47.02-9.04.02-8.67.03-6.5.02h-2.45c-.17 0 .24.36.24.39.2.21.43.33.7.36Z" />
    <path fill="#002780" d="m65.1 25.06-39.32.14.23 64.68 39.31-.14-.22-64.68Z" />
    <path fill="#002780"
      d="M26.09 90.29H30l9.4-.03 11.38-.04 9.77-.03c1.59 0 3.2.03 4.78-.02h.07c.29 0 .5-.15.5-.43V88l-.02-4.73-.02-6.96-.03-8.52-.02-9.29-.03-9.38-.02-8.74-.02-7.39-.03-5.33c0-.84.03-1.68 0-2.52v-.1c0-.28-.45-.43-.67-.43l-3.91.03-9.41.02-11.38.05-9.76.02c-1.59 0-3.2-.02-4.78.03h-.07c-.29 0-.53.14-.53.43v1.73l.02 4.7.03 6.96.02 8.52.03 9.29.02 9.38.02 8.74.03 7.4.02 5.32c0 .84-.02 1.68 0 2.52v.12c0 .55 1.18.62 1.18 0v-1.73l-.03-4.7-.02-6.96-.02-8.52-.03-9.29-.02-9.38-.03-8.74-.04-7.4-.03-5.32c0-.84.05-1.68 0-2.52v-.1l-.53.44 3.92-.03 9.4-.02 11.38-.05 9.77-.02h3.24c.5 0 1.03.02 1.53 0h.08l-.68-.44v1.73l.03 4.73.02 6.96.03 8.52.02 9.29.02 9.38.03 8.74.02 7.39.03 5.33c0 .84-.03 1.68 0 2.52v.12l.5-.43-3.91.02-9.41.02-11.38.05-9.76.03c-1.59 0-3.2-.03-4.78.02-.24 0-.55.14-.53.43.03.29.43.36.7.34Z" />
    <path fill="var(--b, white)" d="M48.58 98.06a2.98 2.98 0 1 0-5.66-1.85 2.98 2.98 0 0 0 5.66 1.85Z" />
    <path fill="#002780"
      d="M42.22 97.22a3.4 3.4 0 0 0 2.23 3.2c1.46.48 3.07.02 4.03-1.18a3.39 3.39 0 0 0-3.29-5.52 3.66 3.66 0 0 0-2.97 3.5c0 .7 1.12.46 1.12-.14a2.4 2.4 0 0 1 1.5-2.28 2.44 2.44 0 0 1 2.7.8c.68.8.77 1.94.27 2.85-.5.86-1.49 1.3-2.45 1.08a2.59 2.59 0 0 1-2.04-2.47c0-.7-1.13-.44-1.1.16Z" />
    <path fill="var(--b, white)" d="M51.1 21.4a.94.94 0 1 0 0-1.86.94.94 0 0 0 0 1.87Z" />
    <path fill="#002780"
      d="M51.53 20.35v.05-.07c0 .02 0 .05-.03.1l-.04.16.04-.12a1 1 0 0 1-.16.27l.07-.1a1.6 1.6 0 0 1-.24.2l.1-.06c-.1.05-.2.1-.32.1h.12-.24.05-.05l-.1-.02c-.07-.03.13.04.05.02l-.04-.02-.05-.03c-.1-.05.1.07.05.05-.05-.02-.05-.05-.1-.07-.05-.03.05.05.07.05.03 0-.02-.05-.05-.05-.02 0-.02-.03-.02-.05 0-.02.07.12.05.07l-.05-.1c-.05-.07.05.13.02.05l-.02-.04c0-.03 0-.03-.02-.05-.03-.1 0 .02 0 .05v-.17c0-.05-.03.12 0 .05l.04-.24-.04.12a1 1 0 0 1 .16-.27l-.07.1a.94.94 0 0 1 .24-.2l-.1.05c.1-.04.2-.1.32-.12l-.12.03h.24-.05c.02 0 .07 0 .1.02l.07.03c-.17-.05-.07-.03-.03 0l.08.04c-.17-.07-.08-.04-.03-.02s.1.1.03.02c-.08-.07 0 0 0 .03.1.12-.08-.12-.03-.03.03.03.03.05.03.08.07.12-.03-.12 0-.03l.02.07c0-.1.02.15 0 0v.1a.7.7 0 0 0 .55.62c.12.03.27.03.36-.07.1-.1.15-.21.15-.33a1.71 1.71 0 0 0-1.06-1.52c-.29-.12-.6-.14-.89-.04-.26.07-.5.24-.7.45-.35.48-.38 1.1-.07 1.63.32.58.96.92 1.61.84.31-.04.6-.21.8-.48.19-.24.28-.55.28-.86a.78.78 0 0 0-.53-.67.41.41 0 0 0-.48.26c.03.03.03.07.03.12Zm-10.8.53 4.77.07h.7c.24 0 .55-.17.48-.43-.07-.26-.43-.38-.7-.38l-4.77-.05h-.7c-.24 0-.55.17-.48.43.07.26.46.36.7.36Z" />
    <g opacity=".6">
      <path fill="var(--b, white)" d="M36.55 28.25h18.12a1.6 1.6 0 0 1 0 3.21H36.55a1.6 1.6 0 0 1 0-3.21Z" />
      <path fill="var(--b, white)"
        d="M54.43 31.25h-17.3c-.27.02-.53.02-.8 0-.28-.05-.5-.39-.62-.63-.29-.6-.14-1.32.34-1.77.36-.31.72-.36 1.15-.36h17.81c.26.07.48.38.57.62.15.29.2.65.12.96-.14.55-.67 1.15-1.27 1.18-.14 0-.43.02-.26.21.17.2.57.24.79.24.72-.02 1.4-.28 1.73-.93.31-.6.24-1.32-.2-1.85-.52-.67-1.43-.89-2.25-.89h-17.9c-.39-.02-.77.07-1.1.24-.58.34-.92.96-.87 1.63.12 1.23 1.39 1.78 2.5 1.8h18.07c.14 0 .43-.02.26-.21-.17-.2-.55-.24-.77-.24Zm-26.61-2.33h1.8c.28 0 .55-.07.79-.2.07-.02.2-.06.24-.14.05-.07-.05-.07-.1-.07h-1.8c-.29 0-.55.07-.79.2-.07.02-.2.07-.24.14-.05.07.05.07.1.07Zm.55 1.56h1.8a.5.5 0 0 0 .31-.12.22.22 0 0 0 0-.24.93.93 0 0 0-.77-.31h-1.8a.5.5 0 0 0-.3.12.22.22 0 0 0 0 .24c.18.21.47.33.76.31Zm.09 1.25h.77c.12 0 .24 0 .36-.03.05-.02.12-.04.07-.1l-.04-.02a2.94 2.94 0 0 0-.67-.1h-.77c-.12 0-.24 0-.36.03-.05 0-.12.05-.08.1l.05.02c.07.03.15.05.22.05.14.05.29.05.45.05Z" />
      <path fill="#002780"
        d="M59.76 29.74v1.17c0 .05 0 .12.05.15.05.02.1.04.17.02l1.84-.14c.05 0 .1 0 .15-.05.02-.05.05-.1.05-.15 0-.28-.05-.57-.2-.84l.84-.07-2.06-1.49a.18.18 0 0 0-.12-.04c-.05 0-.1.04-.12.07l-1.58 1.68h.62" />
      <path fill="var(--b, white)"
        d="M59.2 29.5v.72c-.02.19-.02.4.03.6.07.1.17.16.29.21.22.12.43.22.67.27.24.02.5.02.75-.03l.72-.05c.24 0 .48 0 .72-.02.21-.05.16-.29.14-.46-.02-.21-.1-.43-.2-.62l-.02.05.84-.07c.12-.03-.1-.17-.1-.17l-1.17-.87c-.48-.33-.93-.76-1.53-.93a1.12 1.12 0 0 0-.41-.07c-.1.02-.17.1-.22.16l-.5.53-1.03 1.08c-.05.07.36.27.36.27.19.12.43.16.64.19h.63c.24 0-.07-.2-.15-.24-.24-.15-.5-.24-.76-.27h-.63l1.01.48.84-.88.43-.46c.12-.12.27-.36.41-.38l-.29-.05.07.02-.67-.29c.36.24.7.5 1.06.77l1.05.77-.1-.17-.8.07c-.03 0-.06.03-.03.08.12.21.17.43.19.67 0 .07.02.21-.05.26-.07.05-.29.03-.36.05l-.77.05-.38.02c-.12.03-.24.03-.38.03l.67.26-.05-.02.22.16c-.1-.14-.03-.45-.03-.62v-.67c0-.17-.38-.29-.5-.34-.03 0-.6-.19-.6-.1Z" />
      <path fill="#002780"
        d="M53.4 28.68a.75.75 0 0 0-.72.38c-.1.22-.14.46-.1.68 0 .1.03.21.08.3.1.25.28.42.52.51l.27.07c.1.03.21.05.31.05.4.05.82-.07 1.13-.33.31-.3.4-.75.24-1.16-.12-.26-.31-.5-.58-.64a1.4 1.4 0 0 0-.62-.22.59.59 0 0 0-.41.02c-.12.08-.22.2-.22.32-.02.14.03.28.1.4.1.15.22.24.36.3.12.02.26.06.38.11l-.14-.05.17.1-.12-.1c.05.03.07.08.12.12l-.1-.12c.03.03.05.08.07.12l-.07-.14.05.12-.02-.14v.12-.15c0 .05 0 .07-.03.12l.05-.12-.07.15.07-.12-.14.16.12-.07c-.08.05-.15.1-.22.12l.12-.05a.86.86 0 0 1-.26.05h.14c-.17 0-.34 0-.5-.05l.14.03c-.07 0-.12-.03-.2-.05l.15.05c-.02 0-.02-.03-.05-.03l.12.1c-.02 0-.02-.02-.02-.02l.1.12-.03-.03.07.15-.02-.08.02.15c-.02-.1-.02-.2-.02-.29v.14c0-.04 0-.1.02-.16l-.04.12c0-.03.02-.05.04-.1l-.07.12c.03-.02.05-.07.07-.07l-.1.07c.03-.02.06-.02.08-.05l-.12.05h.07-.14.05c.14 0 .28-.05.38-.14.1-.1.14-.24.12-.39a.76.76 0 0 0-.22-.4.92.92 0 0 0-.38-.15Z" />
      <path fill="#002780"
        d="m52.97 31.15.55-.57c.05-.05.07-.12.1-.2a.33.33 0 0 0 0-.21c0-.07-.05-.15-.1-.2l-.14-.16-.15-.07c-.1-.05-.19-.05-.3-.05l-.15.02a.4.4 0 0 0-.24.17l-.56.58a.48.48 0 0 0-.1.19.33.33 0 0 0 0 .21.75.75 0 0 0 .25.36l.14.08c.1.04.2.04.31.04l.15-.02c.07-.05.17-.1.24-.17Z" />
    </g>
    <path fill="var(--b, white)"
      d="M91.58 61s2.16 1.93 4.16 2.94c2.16 1.12 3.07.81 3.43.55.74-.58-1.7-1.8-1.7-1.8s1.53.53 2.42.55c1.13.02 1.41-1.25-1.01-1.97-2.64-.77-7.8-.6-7.8-.6l.5.34Z" />
    <path fill="var(--c, black)"
      d="M91.37 61.42c.55.48 1.15.93 1.75 1.39 1.1.81 2.28 1.6 3.58 2.09.74.28 1.7.57 2.5.26a1 1 0 0 0 .62-.58c.1-.4-.15-.81-.41-1.1a6.4 6.4 0 0 0-1.83-1.27l-.16.96c.43.14.84.26 1.27.38.57.15 1.22.31 1.8.2.38-.08.7-.37.77-.75.1-.48-.2-.94-.5-1.25-.97-.93-2.46-1.17-3.73-1.34a34.36 34.36 0 0 0-3.84-.24c-.74-.03-1.49-.03-2.25 0-.53.02-.34.74-.03.93l.46.32c.19.14.53.21.67-.05.14-.27-.05-.63-.26-.77l-.48-.34-.03.94c1.56-.05 3.15-.02 4.7.1 1.11.04 2.19.24 3.22.55a3.56 3.56 0 0 1 .91.48c.05.05.08.07.1.12-.1-.12 0 0 0 .02-.05-.12.05.15 0 0 .02.1 0-.02 0-.02-.05.07.1.05 0 0l-.02.07-.08.07c-.1.07.08-.02-.02.03a.98.98 0 0 1-.53.07c-.29-.03-.57-.1-.86-.17a6.86 6.86 0 0 1-1.15-.34c-.24-.1-.53-.07-.6.24a.7.7 0 0 0 .43.72c.14.08.29.15.43.24.02.03.2.1.1.05a4.87 4.87 0 0 1 .89.67v-.02l.02.07c0-.02 0-.19-.03-.12 0-.05.05-.07 0-.02-.04.05-.07.05-.1.07.13-.07.03 0-.02 0-.04 0-.1.05-.16.07-.08.03-.2.05-.08.03l-.19.02h-.4a4.87 4.87 0 0 1-1.35-.4 15.42 15.42 0 0 1-3-1.83c-.58-.43-1.15-.89-1.7-1.37-.2-.17-.56-.2-.68.05-.12.24.08.57.27.77Z" />
    <path fill="var(--b, white)"
      d="M91.66 62.2c.5.92 3.45 4.9 4.6 4.02 1.23-.96-.98-2.52-1.24-2.79-.27-.26-.53-.96.33-1.05 1.44-.15 5.76.74 6.36-.65.43-1.03-1.46-1.32-3.57-1.63-2.12-.32-4.44-.46-4.44-.46S80.8 47.35 76.37 45.62c-6.82-2.68-4.37 5.84 1.8 9.5.98.58 13.49 7.09 13.49 7.09Z" />
    <path fill="var(--c, black)"
      d="M91.15 62.54c.39.68.84 1.28 1.35 1.88.6.74 1.27 1.48 2.08 2.01.3.22.65.34 1.01.36.5 0 .96-.24 1.27-.65.72-.86 0-1.8-.67-2.42a6.2 6.2 0 0 0-.43-.38l-.14-.12-.08-.08c-.1-.07.05.05-.02-.02-.05-.07-.1-.12-.12-.2-.02-.06-.02-.18-.07-.23.02.02-.22-.07 0-.05 0 0-.2.24-.22.2.07 0 .15 0 .22-.03.93-.05 1.87.1 2.8.14.99.05 2.07.1 3-.31.73-.29 1.71-1.3.9-2.02-.49-.4-1.2-.55-1.8-.67a38.9 38.9 0 0 0-2.6-.4 62.16 62.16 0 0 0-3.7-.34l.22.05c-.62-.6-1.27-1.18-1.9-1.78-1.48-1.37-3-2.74-4.53-4.08a122.9 122.9 0 0 0-5.47-4.58 30.5 30.5 0 0 0-4.68-3.24c-1.54-.82-3.91-1.54-5.28-.03-1.23 1.37-.27 3.63.5 4.97a13.54 13.54 0 0 0 5.04 5.04c1.23.7 2.47 1.32 3.72 2l5.69 2.97 3.77 1.97.19.1c.38.2 1.32-.56.89-.78l-4.78-2.5c-2.45-1.26-4.9-2.56-7.32-3.86a14.17 14.17 0 0 1-5.93-5.16c-.67-1.08-1.34-2.4-1.27-3.72 0-.1.03-.19.05-.26 0-.05.02-.12.05-.17.02-.05.07-.19.02-.1l.07-.14c.03-.02.12-.17.03-.05l.1-.1c.09-.11-.08.06.04-.04.03 0 .1-.1.03-.02-.08.07.02-.03.02-.03s.26-.1.02 0l.15-.07c-.15.02.05-.02 0 0l.1-.02c.02 0 .21-.03.09-.03l.22-.02h.4c1.2.12 2.33.65 3.36 1.3 1.16.71 2.26 1.5 3.34 2.35 2.6 1.99 5.06 4.12 7.49 6.3 1.58 1.42 3.17 2.86 4.73 4.33.14.14.21.24.43.26.21.03.26.03.53.03.5.02.98.07 1.48.12 1.3.12 2.6.28 3.87.52.48.08.96.2 1.39.39.24.1.53.29.5.55 0 .05-.02.1-.04.14l-.05.08c.02-.05.12-.08 0 0-.03.04.12-.05 0 0-.03 0-.12.07.02 0l-.12.04-.1.03a.85.85 0 0 1-.23.05l-.48.07c-.84.05-1.68.02-2.5-.05-.7-.07-1.4-.12-2.09-.07-.53.05-1.2.31-1.37.89a1 1 0 0 0 .22.88c.38.46.91.77 1.27 1.25.22.24.34.53.34.84a.2.2 0 0 1-.05.12c-.05.12 0 .03 0 .03l.1-.03c-.1.03.02 0 .02 0h-.1c.1 0-.07-.02-.1-.02l-.11-.03a5.43 5.43 0 0 1-1.25-.89 14.92 14.92 0 0 1-2.47-3.09c-.27-.4-1.27.22-1.06.62Z" />
    <path fill="var(--b, white)"
      d="M72.84 43.25a16.03 16.03 0 0 1-1.44-5.79l-.17.08a6.6 6.6 0 0 1-4.32-3.5l-.31-.68c-.1.29-.14.53-.22.77-.12-.29-.14-.6-.1-.91.46-1.18 2.29-2.36 5.17-2.38 2.76-.02 5.4.14 7.03 5.45.24.77 2.45 4.44 2.42 5.5.92 2.7-.9 4.5-3.64 4.22-1.44-.15-2.9-.5-3.72-1.54a14.3 14.3 0 0 1-.7-1.22Z" />
    <path fill="var(--c, black)"
      d="M73.22 43.44c.08.14 0 0-.02-.05l-.14-.31a15.19 15.19 0 0 1-1.22-5.23c0-.2-.22-.39-.34-.48-.12-.1-.36-.36-.5-.29-.22.07-.32.02-.54-.05-.28-.1-.55-.19-.81-.33a5.49 5.49 0 0 1-1.3-.92c-.6-.6-.96-1.34-1.34-2.08a1.67 1.67 0 0 0-.5-.56c-.08-.04-.34-.26-.39-.1l-.22.78.9.64a1.34 1.34 0 0 1-.06-.86c.1-.2.2-.38.34-.53.34-.38.72-.7 1.18-.93a8.14 8.14 0 0 1 3.9-.82 9 9 0 0 1 2.38.24c.36.1.72.24 1.06.43.31.17.58.41.8.67.83.99 1.24 2.24 1.65 3.44.26.76.72 1.46 1.08 2.18.48.86.89 1.75 1.22 2.69.05.14.07.26.1.4.02.27.14.53.19.8.1.53.07 1.08-.1 1.6-.38 1.13-1.48 1.76-2.64 1.88-.76.07-1.53 0-2.28-.2-.6-.14-1.36-.3-1.77-.81l.12.31v-.07c.14-.26-.8-.98-.89-.82l.77.5c.1.13-.03-.02-.03-.04l-.07-.14c-.07-.15-.17-.3-.24-.44-.07-.14-.21-.33-.29-.5a1.78 1.78 0 0 0-.62-.58c-.2-.1-.26-.02-.17.2.24.45.48.9.77 1.34.05.07.65.7.77.5v-.02c.14-.26-.8-.98-.89-.82-.05.1.07.24.12.32 1.06 1.3 2.54 1.82 4.15 2.01 1.2.15 2.52 0 3.41-.86.89-.87.96-2.11.65-3.22-.12-.38-.17-.79-.31-1.17-.2-.5-.44-.99-.68-1.5-.45-.93-.98-1.82-1.41-2.75-.24-.55-.39-1.13-.63-1.68a11.5 11.5 0 0 0-.98-1.87 6.57 6.57 0 0 0-2.64-2.36 6.81 6.81 0 0 0-2.66-.57 9.54 9.54 0 0 0-4.35.62c-.57.24-1.1.63-1.53 1.1-.17.2-.3.41-.39.63-.14.34-.02.72.07 1.08.05.17.82.94.9.65.06-.29.14-.53.2-.77l-.88-.65c.2.39.36.77.58 1.15A8.35 8.35 0 0 0 71 37.8c.26.1.47.2.74.1l-.84-.8c.1 2.07.6 4.08 1.5 5.96.15.24.37.45.63.57.22.1.29.03.2-.19Z" />
    <path fill="var(--b, white)"
      d="M73.4 44.3c.28.48 1 1.32.28 1.28 0 0-2.95.33-3.26-.15-.3-.4-.36-1-2.04-1.53-3.3-1.04-2.93-4.1-2.93-4.1-.41.02-.84-.03-1.23-.2-.67-.22-1.41-1.34.46-1.97a1.6 1.6 0 0 0 1.13-1.08c.21-.72.29-1.37.55-2.45.05-.24.12-.48.22-.76l.33.67a6.6 6.6 0 0 0 4.32 3.5l.17-.07c.12 2 .6 3.96 1.44 5.78l.55 1.08Z" />
    <path fill="var(--c, black)"
      d="M72.82 44.18c.1.17.86 1.08.48 1.2-.27.05-.5.08-.77.08-.46.04-.94.04-1.4.04-.11 0-.23 0-.33-.02h-.1c-.12-.02.08.05-.04 0l.07.02c-.1-.02-.05 0 .14.05 0 0 .12.05.1.07l-.1-.16a2.4 2.4 0 0 0-.72-.87c-.6-.43-1.3-.57-1.94-.86a3.43 3.43 0 0 1-1.97-2.11 3.6 3.6 0 0 1-.22-1.59c.03-.26-.88-.4-1.05-.38-.2 0-.36-.03-.55-.07.1.02.12.07.02 0l-.1-.08a.98.98 0 0 1-.16-.21c-.36-.6.26-1.08.76-1.3.36-.12.7-.26.99-.5.29-.31.48-.7.55-1.1.24-.94.38-1.9.67-2.84L66 33.26a8.17 8.17 0 0 0 1.97 2.79 7 7 0 0 0 1.9 1.17 9 9 0 0 0 1.12.41c.29.12.63.15.94.05l-1.15-.38c.1 1.72.45 3.43 1.1 5.04.31.64.6 1.24.94 1.84.1.2.5.27.67.32.05.02.53.1.45-.05a14.92 14.92 0 0 1-2-6.77c.01-.14-.35-.24-.44-.29-.22-.1-.44-.12-.68-.07-.02.02-.21.07-.1.05l.54.07a5.53 5.53 0 0 1-2.76-1.75 9.57 9.57 0 0 1-1.35-2.16c-.07-.17-1.08-.5-1.15-.29-.26.86-.43 1.73-.62 2.62-.05.38-.2.74-.39 1.08a1.6 1.6 0 0 1-.81.55c-.48.19-1.28.5-1.28 1.13 0 .43.36.76.72.98a4.22 4.22 0 0 0 2.28.46l-1.05-.39c-.2 1.7.91 3.27 2.4 3.99.65.3 1.44.4 1.99.88.29.24.38.58.6.84.36.41 1.15.48 1.66.53.55.05 1.1.05 1.65 0 .24-.02.48-.02.72-.05.15-.02.27-.02.36-.02.75-.1-.12-1.08-.29-1.37-.12-.19-.48-.26-.7-.29-.02-.07-.5-.14-.42 0Zm11.44 55.85-1.99.15s-5.37 1.65-4.8 2.76c.58 1.1 3.55 1.5 7.44 1.24 3.89-.26 5.28-1.56 3.77-4.32l-4.42.17Z" />
    <path fill="var(--c, black)"
      d="m84.48 99.72-1.87.14a21.06 21.06 0 0 0-3.36 1.18 6.5 6.5 0 0 0-1.97 1.18c-.2.16-.34.38-.4.64 0 .27.14.5.35.65.63.58 1.61.75 2.43.87 1.34.19 2.7.24 4.05.16 1.3-.04 2.6-.14 3.82-.52.86-.3 1.85-.77 2.2-1.68.37-.92-.04-1.9-.47-2.67-.08-.12-.24-.12-.36-.12l-4.42.17a.97.97 0 0 0-.74.36c-.12.24.14.26.3.26l4.42-.16-.36-.12c.36.64.72 1.44.56 2.2-.05.27-.17.48-.34.7-.07.1-.2.17-.29.24l-.12.07c-.1.05.12-.05-.05.03l-.1.04-.06.03a8.7 8.7 0 0 1-2.98.5c-1.27.1-2.54.07-3.82-.05-.79-.1-1.68-.21-2.37-.62a1.23 1.23 0 0 1-.53-.53c-.02-.1-.02-.07 0-.19s0 0 .02-.05c.03-.05.12-.17.08-.1.02-.04.07-.07.1-.09a3.66 3.66 0 0 1 .48-.34c.09-.04.16-.1.33-.19.17-.1.33-.17.5-.24l.48-.21.17-.08.26-.12.96-.36c.24-.1.48-.16.75-.24l.17-.04c.12-.05-.46.07-.2.04.63-.02 1.28-.1 1.9-.14.24-.02.62-.14.74-.36.12-.22-.07-.26-.26-.24Z" />
    <path fill="var(--b, white)"
      d="M83.54 94.87s1.37 3.36 1.13 3.94c-.24.57-4.99 1.77-4.56 2.18.43.41 1.13.99 4.8.58 3.48-.39 3.48-.72 3.7-1.44.21-.72.21-5.09.21-5.09l-5.28-.17Z" />
    <path fill="var(--c, black)"
      d="M83.11 94.56a30.12 30.12 0 0 1 1.13 3.43c.05.29.05.41-.17.55-.31.2-.65.34-.98.46-.48.2-.94.36-1.42.53-.43.14-.86.31-1.27.48-.22.1-.58.19-.7.4-.19.32.34.73.53.9.22.19.46.35.72.47.91.41 1.97.36 2.93.32a31.7 31.7 0 0 0 2.64-.27 9.32 9.32 0 0 0 1.58-.33c.46-.12.84-.48.94-.94.22-.74.17-1.6.2-2.38.02-.88.04-1.75.04-2.64v-.16c0-.32-.5-.82-.82-.82l-4.6-.14-.68-.03c-.21 0 .1.43.12.46.15.17.39.43.63.43l4.6.14.68.03-.82-.82c.03 1.56 0 3.12-.14 4.68-.05.41-.12.82-.43 1.06-.27.17-.58.29-.9.33-.62.15-1.26.24-1.91.32-1.27.14-2.69.36-3.96.1a2.9 2.9 0 0 1-.43-.13c-.05-.02-.08-.02-.12-.05-.05-.02-.12-.04-.17-.1.14.08 0-.02-.05-.02.05.05.17.1 0 0-.1-.1.12.12 0 0-.14-.16.17.46.26.41-.02.03.03 0 0 0 1.28-.89 2.93-1.03 4.28-1.8.24-.1.38-.33.33-.57a5.61 5.61 0 0 0-.33-1.4 26.7 26.7 0 0 0-.84-2.32 1.35 1.35 0 0 0-.53-.63c-.07-.02-.43-.19-.34.05Z" />
    <path fill="var(--b, white)"
      d="M85.1 58.7s10.32 33.36 5.12 38.55c-2.57 2.57-12.27 4-12.84-5.02l-1.52-23.16L85.1 58.7Z" />
    <path fill="var(--c, black)"
      d="M84.55 58.92a192.41 192.41 0 0 1 2.83 10.25c.8 3.14 1.54 6.31 2.16 9.5a83.59 83.59 0 0 1 1.42 9.48c.12 1.32.17 2.64.14 3.96 0 1.08-.14 2.14-.38 3.2-.02.11-.07.21-.1.33-.02.12.03-.05-.02.07-.02.05-.02.1-.05.15a3.82 3.82 0 0 1-.36.79c-.02.07.07-.12.03-.03 0 .03-.03.03-.03.05 0 .03-.05.1-.1.15l-.14.19c-.14.14-.05.07 0 0l-.12.12-.24.21-.14.12c.14-.12-.03.03-.07.05-.22.15-.44.29-.68.39l-.1.04-.18.1c-.15.05-.27.12-.41.17l-.41.14-.2.07-.14.05h-.04c-2.5.65-5.43.48-7.4-1.46-1.2-1.2-1.7-2.88-1.87-4.54-.14-1.46-.19-2.93-.29-4.37l-.72-11.06-.5-7.68-.02-.38-.12.33 3.12-3.53 4.96-5.59 1.16-1.3c.14-.11.14-.35.02-.5-.02-.05-.07-.07-.12-.1-.29-.09-.6.1-.77.32l-5.47 6.12-3.14 3.55c-.2.22-.44.46-.6.7-.17.24-.12.5-.1.76.24 3.44.46 6.9.67 10.32.27 4.13.53 8.28.82 12.41.14 2.09.84 4.2 2.47 5.57a7.62 7.62 0 0 0 4.82 1.63c1.64.03 3.27-.31 4.73-1a5.01 5.01 0 0 0 2.6-2.48c.5-1.13.67-2.4.74-3.6.07-1.65.05-3.31-.12-4.97a93.07 93.07 0 0 0-1.92-11.76 208.8 208.8 0 0 0-4.44-17.06l-.1-.29c-.14-.57-1.22-.07-1.08.41ZM42.94 79.9l-1.25-1.56s-4.4-3.5-4.97-2.43c-.58 1.08.74 3.8 3.17 6.87 2.42 3.07 4.25 3.48 5.69.7l-2.64-3.58Z" />
    <path fill="var(--c, black)"
      d="m43.46 79.73-1.1-1.4a13.72 13.72 0 0 0-4.32-2.83c-.58-.19-1.46-.38-1.85.24-.38.63-.12 1.47.07 2.07.44 1.1.99 2.13 1.66 3.1a19.38 19.38 0 0 0 2.69 3.38c.84.79 1.87 1.51 3.1 1.37 1.22-.15 1.94-1.1 2.44-2.12a.26.26 0 0 0-.05-.28l-2.64-3.53c-.26-.36-1.44-.2-1.05.31l2.61 3.55-.04-.29c-.22.44-.48.84-.82 1.18-.12.12-.24.22-.38.31-.03.03-.2.1-.17.1l-.1.02s-.17.05-.07.03c-.05 0-.24.02-.12.02h-.12c-.2 0 .07.02-.05 0-.17-.02-.33-.1-.48-.17a5.67 5.67 0 0 1-1.05-.77 18.82 18.82 0 0 1-2.48-3.04 15.98 15.98 0 0 1-1.63-2.86c-.21-.55-.5-1.32-.33-1.9 0 0 .04-.1.04-.14 0-.02.03-.05.03-.05-.07.15-.03.03-.03.03s.05-.03.03-.03c-.03 0-.1.07-.03.03l-.1.02c-.06 0-.09-.02.03 0s-.14-.05.03 0l.14.05c.14.05-.02-.03.1.02 1.15.46 2.18 1.23 3.19 1.97l.48.36c.02 0 .05.05.07.07-.1-.02-.1-.12-.05-.05.03.05.05.08.1.12l1.13 1.42a.8.8 0 0 0 .81.2c.29-.08.5-.3.31-.51Z" />
    <path fill="var(--b, white)"
      d="M46.8 76.4s-2.02 3.02-2.62 3.14c-.6.12-4.7-2.93-4.41-2.4.21.38.07 1.72 2.3 4.34 2.28 2.66 2.55 2.28 3.24 2.04.7-.24 4.32-2.69 4.32-2.69L46.8 76.4Z" />
    <path fill="var(--c, black)"
      d="M46.42 75.91c-.41.6-.82 1.2-1.28 1.78-.28.38-.6.74-.93 1.08l-.1.1-.05.04-.12.07c.03 0 .12-.02.05-.02-.07 0 .1.02.05 0-.02 0-.05 0-.07-.02-.1-.03.02 0 0 0-.8-.32-1.51-.82-2.23-1.28l-1.13-.72c-.24-.16-.5-.3-.77-.4-.53-.17-.67.4-.48.81.02.05-.05-.17-.02-.02 0 .05.02.1.04.14.03.12.05.24.1.39a8.8 8.8 0 0 0 1.54 3.02 16.52 16.52 0 0 0 2.95 3.1c.53.33.96.28 1.51.1.74-.27 1.42-.78 2.06-1.18l2.21-1.44.15-.1c.21-.17.28-.5.12-.74l-2.48-3.9-.36-.57c-.14-.21-.38-.48-.67-.33-.29.14-.26.52-.12.74l2.47 3.89.36.57.12-.74c-.62.43-1.24.84-1.9 1.25-.47.31-.95.62-1.43.91-.31.2-.63.38-.99.53l-.3.12c.14-.05 0 0-.06 0h-.14s.1.02.02 0c-.02 0-.04 0-.07-.03-.02 0-.12-.04-.05 0l-.04-.02-.1-.05c-.02-.02-.14-.1-.02-.02-.1-.07-.2-.12-.27-.2a12.17 12.17 0 0 1-1.53-1.6 12.18 12.18 0 0 1-1.47-2.04l-.21-.46c-.03-.07-.08-.14-.1-.21-.02-.03-.02-.08-.05-.1-.07-.22-.14-.4-.19-.62-.02-.15-.07-.32-.1-.46l-.04-.14-.08-.2c-.07-.12.05.27.05.24l-.05.27a.3.3 0 0 1-.36.19h.03c-.15-.02-.1-.02-.03 0a16.15 16.15 0 0 1 1.13.7c.67.43 1.35.86 2.04 1.27.41.24 1.06.67 1.54.45.26-.16.5-.36.7-.6.28-.3.55-.64.81-.98.38-.53.77-1.06 1.13-1.6a.65.65 0 0 0-.05-.8c-.2-.2-.58-.4-.74-.17Z" />
    <path fill="var(--b, white)"
      d="M74.45 58.94S48.67 67.87 46.42 73.7c-2.26 5.84.04 12.96 8.25 10.25 28.25-9.31 31.06-23.33 31.06-23.33l-11.28-1.68Z" />
    <path fill="var(--c, black)"
      d="M74.86 58.6a183.61 183.61 0 0 0-13.44 5.3 81.68 81.68 0 0 0-9.7 4.93c-1.32.8-2.57 1.68-3.74 2.67a7.3 7.3 0 0 0-2.02 2.44c-1.25 3-1.42 7.52 1.34 9.77 1.5 1.2 3.48 1.35 5.3 1.01 1.42-.26 2.77-.8 4.11-1.27a89.3 89.3 0 0 0 4.2-1.63 67.46 67.46 0 0 0 12.91-6.92 42.93 42.93 0 0 0 7.73-6.72A25.13 25.13 0 0 0 85.18 63c.45-.82.81-1.7 1.05-2.62 0-.04.03-.07.03-.12 0-.04 0-.04-.03-.04l-3.81-.58-6.1-.84-1.42-.22c-.19-.02-.5.27-.64.36-.05.03-.39.34-.27.34l8.64 1.3 2.02.3a2 2 0 0 0 .53.08c.12 0 .07.05.07-.02-.03.24-.1.5-.22.72a18.7 18.7 0 0 1-2.3 4.39 26.18 26.18 0 0 1-2.62 3.24c-1.2 1.3-2.52 2.5-3.89 3.6a47.59 47.59 0 0 1-5.5 3.79 76.13 76.13 0 0 1-14.5 6.53c-.78.29-1.57.53-2.36.74-2.1.48-4.42.31-5.98-1.3-1.37-1.39-1.82-3.43-1.78-5.32.03-1.1.22-2.19.56-3.24.16-.6.45-1.18.81-1.68.17-.22.34-.43.55-.6l.17-.17c.03-.02.2-.17.12-.12l.41-.36.12-.12.22-.17c.14-.12.28-.24.45-.33.17-.1-.1.07.03-.03a.42.42 0 0 0 .12-.1l.24-.16.55-.39c-.12.08.02-.02.05-.02l.14-.1.22-.14.6-.38c.4-.27.72-.44 1.15-.7.84-.48 1.7-.94 2.57-1.4 3.67-1.86 7.44-3.5 11.28-5.03 2.4-.96 4.8-1.87 7.22-2.74l.36-.12c.26-.1.5-.26.7-.43.07 0 .36-.26.12-.2Z" />
    <path fill="var(--c, black)"
      d="M87.36 60.17s-10.2-16.44-14.71-16.4c-4.51.05-5.21 13.01-3.99 16.37 1.25 3.39 10.54 6.82 18.7.03Z" />
    <path fill="var(--c, black)"
      d="M87.94 60.1c-.46-.75-.94-1.47-1.42-2.21-1.13-1.7-2.3-3.39-3.5-5.04a67.74 67.74 0 0 0-4.4-5.43c-1.22-1.34-2.59-2.76-4.24-3.55a3.78 3.78 0 0 0-2.24-.43c-.84.14-1.6.6-2.1 1.3a7.86 7.86 0 0 0-1.3 2.52 20.1 20.1 0 0 0-.82 3.36 28.53 28.53 0 0 0-.31 6.86c.05.84.19 1.68.4 2.5.27.74.73 1.41 1.35 1.92 1.85 1.58 4.4 2.3 6.8 2.47 3.28.19 6.57-.63 9.38-2.35a22.7 22.7 0 0 0 2.32-1.66c.22-.17 0-.38-.19-.46a.83.83 0 0 0-.81.1 15.73 15.73 0 0 1-8.98 3.74 11.4 11.4 0 0 1-6.7-1.53c-.7-.41-1.3-.99-1.72-1.68a5.73 5.73 0 0 1-.56-2 25.44 25.44 0 0 1 0-6.33c.22-2.09.6-4.32 1.61-6.2.2-.35.41-.69.65-1 .12-.14.26-.29.4-.4l.22-.18c.03-.02.1-.07.08-.04l.1-.05c.06-.05.14-.07.2-.12.08-.05.1-.05.03 0 .05-.03.1-.03.12-.05.03-.02.29-.05.12-.02l.27-.03c-.17.03 0 0 .07 0s.14.03.02 0c-.12-.02.03 0 .05 0l.2.05c.09.02-.13-.05-.03 0l.12.05c.14.05.29.1.43.17-.12-.05.1.04.12.07l.24.14c.34.2.65.41.96.65.29.22.67.55.98.82l1.06 1a54.11 54.11 0 0 1 4.3 5.1 105.46 105.46 0 0 1 5.47 7.91c.02.05.05.1.1.15.16.21.45.3.71.26.15 0 .58-.14.44-.38Z" />
    <path fill="var(--b, white)"
      d="M64.8 52.25s-8.16-6.91-9.07-7.61c0 0-1.15-4.63-2.33-4.1-1.18.52-.5 2.88-.5 2.88s-4.64-2.84-5.33-2.16c-.7.67 2.57 3.62 2.57 3.62s-4.2-2.35-4.35-1.15c-.14 1.2 3.05 2.83 3.05 2.83s-2.66-.89-2.64.05c.02.93 7.37 3.38 7.37 3.38s6.21 9.53 10.56 9.87c4.34.33 12.57-7.25 12.57-7.25s-2.83-5.14-6.02-4.92c-.29.05-5.88 4.56-5.88 4.56Z" />
    <path fill="var(--c, black)"
      d="M65.23 52.3c-.93-.8-1.87-1.61-2.83-2.4-1.6-1.37-3.22-2.72-4.82-4.08-.5-.41-.99-.84-1.5-1.23l.2.24a15.6 15.6 0 0 0-1.15-3.21c-.36-.68-.87-1.23-1.61-1.42-.74-.2-1.22.46-1.32 1.13a4.5 4.5 0 0 0 .17 1.87l.77.1a23.32 23.32 0 0 0-4.3-2.19c-.38-.14-1.73-.65-1.9.03-.07.3.15.67.3.93.26.41.54.8.88 1.13.5.55 1.03 1.1 1.58 1.6l.68-.04a14.5 14.5 0 0 0-3.77-1.6c-.46-.1-1.4-.25-1.35.47.03.39.3.72.53.99.31.33.67.64 1.03.9.63.46 1.28.85 1.95 1.2l.02-.42a5.96 5.96 0 0 0-2.5-.44c-.3.05-.69.22-.6.6.08.3.39.5.63.65.82.53 1.68.99 2.57 1.32a66.92 66.92 0 0 0 4.77 1.8l-.57-.38a52.2 52.2 0 0 0 2.4 3.29 28.86 28.86 0 0 0 5.28 5.4c.93.67 1.97 1.3 3.1 1.53 1 .2 2.03.12 2.97-.24 2.38-.77 4.54-2.28 6.53-3.74a53.2 53.2 0 0 0 3.79-3.1l.1-.1c.02-.04 0-.09-.03-.11-.4-.72-.89-1.42-1.41-2.07a9.47 9.47 0 0 0-3.7-2.97 5 5 0 0 0-1.18-.32 1.4 1.4 0 0 0-.76 0c-.27.15-.53.32-.75.53l-2.95 2.28c-.72.55-1.42 1.13-2.14 1.7-.24.2.77.8.99.6 1.49-1.2 2.97-2.37 4.49-3.52l1.05-.8.27-.16.04-.03c-.07.03-.02 0 .08 0a2.13 2.13 0 0 1 1.2.29c.26.15.5.29.72.48.52.43 1 .89 1.44 1.42.6.72 1.15 1.49 1.6 2.28l-.02-.12-.1.1-.36.3c-.43.37-.84.75-1.27 1.09a49.03 49.03 0 0 1-4.03 3.02 18.6 18.6 0 0 1-4.66 2.4c-.62.22-1.32.34-1.99.29a3.21 3.21 0 0 1-1.53-.55c-.68-.41-1.3-.87-1.88-1.4a29.3 29.3 0 0 1-1.94-1.92 45.76 45.76 0 0 1-4.37-5.61c-.26-.31-.79-.43-1.17-.55-.6-.22-1.2-.44-1.83-.65l-1.1-.43-.5-.22-.3-.12-.11-.05-.12-.05c.04.03.04.03 0 0-.34-.14-.68-.28-1.01-.45l-.46-.22c-.14-.07.03.03-.1-.05l-.21-.12-.17-.1c-.1-.04.03 0 .03.03-.03-.02-.05-.05-.1-.05l-.12-.1c.05.06.02.03-.05-.04-.02-.02.03.07-.02-.02-.03-.05-.03-.05 0-.03-.03-.07 0-.17.05-.24.14-.19.5-.17.72-.14.33.02.64.1.98.19l.36.1c.05.02.22.07 0 0l.05.02c.12.02.43.17.48-.02.05-.2-.36-.36-.46-.41-.1-.05-.05-.03.03.02-.1-.07-.22-.12-.32-.17-.26-.14-.6-.36-.79-.5-.53-.36-1.27-.84-1.46-1.49a.45.45 0 0 1 .1-.5.8.8 0 0 1 .52-.03l.41.12c-.1-.02.1.03.12.05.1.03.22.07.31.12l.24.1.15.05c-.1-.05-.03 0 0 0 .16.07.33.14.5.24.31.14.62.28.91.45l.15.07c-.15-.07.04.03 0 0l.1.05c.18.15.4.22.64.22.17-.03.14-.17.02-.27a18.43 18.43 0 0 1-2.06-2.18 2.94 2.94 0 0 1-.5-.89.4.4 0 0 1 .02-.29c.05-.04.1-.1.17-.12a.7.7 0 0 1 .29 0c.12.03-.08-.02.02 0l.1.03.14.02.1.03.55.21.07.03.1.04.38.17.6.29.26.14.17.1.1.05h.02c.53.29 1.03.57 1.56.89.05.02.87.38.77.1a4.7 4.7 0 0 1-.14-1.83c.07-.36.24-.77.62-.94.07-.02.1 0 .05-.02-.12-.05-.27-.1-.39-.17 0 0 .08.07.03.02l.05.05c.04.05.1.1.12.15.43.67.76 1.39.98 2.16.1.3.22.64.29.96.02.14.07.28.12.43.07.19.31.31.45.43l.56.46c.55.45 1.1.93 1.65 1.39 1.32 1.13 2.67 2.23 3.99 3.36l2.52 2.13c.21.2.48.34.76.39.24.1.36-.03.17-.2Zm1.95-15.36a.4.4 0 0 0 .12.55l.04.02c.39.2.63-.31.34-.57a.34.34 0 0 0-.48-.05c0 .02-.02.02-.02.05Zm.16-1.11h-.02l-.12-.02-.1-.05c-.12-.05-.21-.12-.33-.2-.22-.16-.39-.4-.48-.66-.22-.6.02-1.4.43-1.88.07-.07.14-.14.12-.26-.05-.1-.12-.14-.24-.17a1 1 0 0 0-.82.24c-.55.63-.96 1.61-.64 2.43.3.72.98 1.22 1.77 1.24a.9.9 0 0 0 .77-.33c.14-.22-.14-.29-.34-.34Z" />
    <path fill="var(--c, black)"
      d="M64.78 35.71a2.5 2.5 0 0 1 .64-2.33c.27-.26.58-.48.94-.62l.22-.07.07-.03.12-.04c.17-.05-.12.02.05 0l.14-.05c-.1.02.02 0 .05 0l.14-.03c.15-.02.31-.07.46-.12.02 0 .24-.07.24-.12.05-.14-.39-.04-.43-.02-1.04.2-2.16.48-2.98 1.18a2.65 2.65 0 0 0-.86 2.56c.04.12 1.22-.14 1.2-.3Z" />
    <path fill="var(--b, white)" d="M70.85 38.93s.07-2.02 1.53-1.35c1.47.68.12 2.93-1.1 3.39" />
    <path fill="var(--c, black)"
      d="M71.4 39.12c0-.05 0-.12.02-.2.03-.06.03-.11.03-.18 0-.08.02-.08.02-.1.03-.14-.02.1 0-.02a.56.56 0 0 1 .1-.24c.02-.05.02-.08.05-.12l.02-.05c.05-.07-.07.1-.02.02l.07-.1c.02-.02.12-.11.05-.07-.08.05.02-.02.07-.02l.05-.02c.07-.05-.1.02-.03 0 .03 0 .2-.03.1-.03s.07 0 .1.03c.11 0-.03.02-.03 0l.1.02.1.02c.02 0 .2.15.11.08-.1-.08.05.04.07.07.03.02-.1-.15-.02-.03l.05.08c.05.04-.05-.15-.03-.03 0 .03.03.05.03.1.05.1-.03-.12 0-.03l.02.08v.07c.03.1 0-.1 0-.03-.02.12-.02.27-.05.39 0 .07.03-.12 0 0l-.02.1-.07.16a1.6 1.6 0 0 1-.2.39l-.04.1c.05-.1 0 0-.03.02l-.14.19c-.1.12-.22.24-.34.33l-.16.15-.12.07-.36.2c-.3.09-.24.5-.1.71.17.27.48.36.77.27a3.2 3.2 0 0 0 1.46-1.3c.34-.53.6-1.2.43-1.82a1.92 1.92 0 0 0-1.7-1.42 1.28 1.28 0 0 0-1.27.84c-.15.31-.22.65-.24.98 0 .32.19.6.48.7.24.07.57-.02.6-.34l.07-.02Zm-3.46 1.9c.3.02.6-.03.87-.15a.87.87 0 0 0 .4-.33c.1-.12.15-.27.15-.44 0-.19-.02-.36-.1-.52-.02-.1-.21-.15-.28-.15a1.45 1.45 0 0 0-.46 0 1.1 1.1 0 0 0-.36.15l-.05.07a.15.15 0 0 0 0 .14c0 .03.03.05.03.1l-.03-.07c.05.14.07.3.03.45l.02-.07a.7.7 0 0 1-.14.29l.04-.07-.14.14.1-.07-.12.07.12-.05c-.03 0-.05.03-.05.03-.1.02.17-.03.07-.03s.2-.02.1 0h-.03.12c-.14 0-.31 0-.45.05-.08.02-.24.1-.27.2-.1.18.29.26.43.26Zm2.38-6.1a8.55 8.55 0 0 0 6.72 1.3c.17-.03.26-.17.24-.34 0-.07-.05-.12-.1-.17a.86.86 0 0 0-.81-.21c-1.83.4-3.75.04-5.28-1.01a.78.78 0 0 0-.82-.1c-.26.15-.14.39.05.53Zm4.92 4.82a11.2 11.2 0 0 0 3.7 4.5c.1.09.26.09.36 0a.27.27 0 0 0 .07-.2.88.88 0 0 0-.36-.77c-.7-.5-1.32-1.08-1.87-1.73a7.25 7.25 0 0 1-.7-.98c-.12-.22-.2-.31-.29-.5l-.29-.6c-.1-.2-.33-.5-.57-.41-.24.1-.15.53-.05.7Z" />
    <g fill="#002780" opacity=".81">
      <path
        d="M58.49 36.14s-7.23 6.12-3.6 11.67c3.62 5.54 2.42 7.56 0 11.35-2.43 3.8-3.75 10.51 3.6 15.53 7.34 5.01-4.97 10.8-3.6 13.92 0 0-19.08-1.35-22.1-6.48-3.03-5.14-1.73-46.87-1.73-46.87l27.43.88Z" />
      <path
        d="m55.08 88.7-.2-.02c-3.33-.26-6.64-.7-9.93-1.32-6.86-1.3-10.99-3.05-12.26-5.2-1.27-2.17-1.95-10.71-2.02-25.42-.05-10.95.27-21.41.27-21.5v-.13h.12l27.74.91-.24.2c-.07.04-7.1 6.1-3.58 11.5 3.72 5.66 2.4 7.72 0 11.46a11.46 11.46 0 0 0-1.84 7.23c.3 3.17 2.13 5.9 5.42 8.13 1.46.99 2.23 2.07 2.38 3.3.26 2.22-1.76 4.43-3.5 6.4-1.57 1.73-2.91 3.22-2.43 4.3l.07.16Zm-23.9-53.32c-.08 2.5-1.18 41.78 1.72 46.68 2.81 4.75 19.85 6.24 21.82 6.38-.34-1.2 1-2.66 2.54-4.37 1.73-1.92 3.7-4.08 3.46-6.21-.14-1.13-.89-2.16-2.28-3.1-3.34-2.28-5.18-5.06-5.52-8.3a11.79 11.79 0 0 1 1.9-7.4c2.35-3.67 3.62-5.68 0-11.2-3.3-5.02 2.18-10.52 3.4-11.62l-27.04-.86Z" />
    </g>
  </g>
</svg>
