<svg xmlns="http://www.w3.org/2000/svg" viewBox="0 0 120 120" fill="none">
  <g id="doc">
    <path fill="var(--c, black)"
      d="M85.44 40.63s.84-6.77-4.03-9.77-10.35-3.67-14.62-1.22-7.13 5.35-6.05 10.7c1.08 5.36 2.62 7.9 1.32 10.13-1.3 2.23-1.41 3.39.48 3.65 1.92.29.24 3.29 1.78 4.51 1.54 1.23 10.34.75 13.2-2.16 2.86-2.9 11.64-1.22 13.9-4.22 2.25-3-2.98-3.67-1.78-5.64 1.2-1.97 1.2-2.64-1.2-2.9-2.4-.27-2.76-2.05-3-3.08z" />
    <path fill="var(--c, black)"
      d="M67.82 59.4c-1.68 0-3.04-.22-3.6-.65-.76-.62-.79-1.63-.79-2.54-.02-1.13-.07-1.8-.93-1.95-.77-.12-1.23-.36-1.44-.79-.3-.6-.03-1.49.86-3.05.89-1.5.43-3.14-.29-5.83-.33-1.2-.7-2.57-1.03-4.22-1.15-5.79 2.26-8.62 6.12-10.83 4.15-2.37 9.65-1.92 14.74 1.23 4.75 2.93 4.15 9.43 4.1 9.86v.05c.24 1.06.6 2.66 2.86 2.93 1.2.14 1.77.38 1.99.81.24.5-.07 1.23-.72 2.28-.48.77.19 1.35.93 2 .96.84 2.19 1.87.84 3.64-1.17 1.56-3.98 1.88-6.93 2.21-2.76.31-5.6.63-6.99 2.02-1.87 1.97-6.4 2.83-9.72 2.83zm4.8-31.13c-2.01-.02-4 .48-5.76 1.47-3.79 2.16-7.12 4.94-6 10.58.34 1.66.7 3.02 1.04 4.22.72 2.67 1.2 4.42.26 6-.86 1.47-1.1 2.33-.86 2.84.16.33.57.55 1.24.64 1.1.17 1.1 1.18 1.13 2.19 0 .89.03 1.82.72 2.35 1.47 1.18 10.25.7 13.03-2.16 1.44-1.46 4.32-1.78 7.13-2.09 2.9-.33 5.67-.62 6.77-2.11 1.2-1.6.2-2.47-.82-3.34-.76-.67-1.56-1.34-.98-2.3.58-.96.91-1.66.7-2.06-.17-.34-.72-.56-1.8-.68-2.4-.28-2.81-2.06-3.05-3.12l-.03-.07v-.05c0-.07.77-6.72-3.98-9.64a17.14 17.14 0 0 0-8.74-2.67z" />
    <path fill="var(--b, white)"
      d="M64.3 53.09c-4.08-2.81-1.64-14.4-1.64-14.4 1.8-.75 4.56-3.15 4.56-3.15.22 5.93 7.28 6.15 7.28 6.15.74-3.39 4.58-3 4.99.07.4 3.07-2.43 3.98-2.43 3.98s3.63 9.2 3.6 10.47c-.02 1.27-6.6 4.22-9.76-1.2 0 0-3.84 0-6.6-1.92z" />
    <path fill="var(--c, black)"
      d="m64.6 53.16-.28-.22a4.3 4.3 0 0 1-.84-1.15 8.71 8.71 0 0 1-.7-2.06 19.7 19.7 0 0 1-.3-4.9c.06-1.39.18-2.8.4-4.2l.22-1.25c0-.1.02-.21.07-.3.05-.15.19-.15.33-.22a19.29 19.29 0 0 0 4.23-3l-1.03-.58c.02 1.06.3 2.06.84 2.98a6.93 6.93 0 0 0 2.01 1.99c1.35.86 2.86 1.44 4.44 1.68.34.05.65.1.99.1L75 42c.2-.89.7-1.8 1.56-2.18a2.4 2.4 0 0 1 1.08-.2c.14.03.29.05.43.1.15.02.03.02.03 0l-.05-.02c0-.03-.03-.05 0 0 .02.04.1.07.12.1.7.66.91 1.77.79 2.7-.1.87-.53 1.64-1.18 2.21-.36.31-.76.55-1.22.72-.02 0-.05.03-.02.05.5 1.3 1 2.6 1.48 3.91.72 1.9 1.47 3.82 1.97 5.79.12.48.22.84-.17 1.24a4.4 4.4 0 0 1-2.06 1.1 6.88 6.88 0 0 1-3.91.03 2.95 2.95 0 0 1-.63-.29c-.21-.12-.4-.28-.57-.43a6.88 6.88 0 0 1-.7-.74c-.12-.15-.21-.29-.33-.46a3.1 3.1 0 0 0-.36-.53 1.7 1.7 0 0 0-.94-.43c-.29-.02-.6-.02-.89-.05-1.37-.1-2.71-.43-3.96-.96-.26-.14-.57-.3-.86-.5-.2-.12-.5-.38-.75-.36-.24.02.03.2.12.24a13.35 13.35 0 0 0 7.42 2.26l-1-.58a7.49 7.49 0 0 0 5.6 3.67 6.9 6.9 0 0 0 4.52-1.08c.31-.21.7-.53.67-.93a6.52 6.52 0 0 0-.36-1.54c-.53-1.73-1.15-3.4-1.77-5.11l-.9-2.35c-.14-.46-.3-.9-.5-1.3-.02-.02-.02-.07-.04-.1 0 .05-.08.05 0 .03.19-.05.38-.15.52-.27a3.58 3.58 0 0 0 1.56-4.8 4 4 0 0 0-2.35-1.87 2.48 2.48 0 0 0-2.33.43 3.2 3.2 0 0 0-.96 1.56l-.04.3h-.2l-.26-.03-.7-.1a9.12 9.12 0 0 1-1.82-.5l-.29-.12c-.1-.05-.02-.03 0 0l-.14-.07-.15-.08c-.14-.07.12.08-.04-.02l-.1-.05-.1-.05a1.58 1.58 0 0 1-.4-.28l-.44-.36A5.06 5.06 0 0 1 68 37.4a6.82 6.82 0 0 1-.24-1.57c0-.21-.89-.72-1.05-.57a22.02 22.02 0 0 1-3.75 2.73c-.21.12-.4.22-.62.31-.07.03-.15.05-.2.1-.02.07-.04.14-.04.22-.07.38-.15.76-.2 1.15-.47 2.97-.74 6.1-.21 9.07.29 1.6.91 3.2 2.28 4.15.2.12.5.39.74.36.24-.02 0-.12-.1-.19z" />
    <path fill="var(--c, black)"
      d="M73.56 45.6a.86.86 0 0 1 .02.19v.63c0 .02-.02.14 0 .04.03-.1 0 .03 0 .05l-.02.1c-.02.07-.02.17-.05.24l-.07.21-.05.1-.02.05c-.03.07.07-.12 0-.03l-.29.41-.05.05c-.05.07.03 0 .03-.02 0 .02-.1.07-.1.1a.86.86 0 0 1-.24.16c-.02 0-.05.02-.07.05-.07.05-.03.02 0 0-.05.02-.12.07-.17.07-.12.05-.24.1-.38.12-.05.02-.08.05 0 0-.03.02-.08.02-.12.02-.08.03-.17.03-.24.05-.17.03-.36.03-.53.05a.4.4 0 0 0-.41.43c0 .05 0 .07.02.12.12.27.41.43.72.41 1.04-.02 2.16-.38 2.74-1.27a3.2 3.2 0 0 0 .4-2.43c-.04-.28-.47-.45-.71-.4a.42.42 0 0 0-.41.45c-.02 0 0 .05 0 .05zm-8.6-1.73a1.18 1.18 0 0 0-.8-1 1.2 1.2 0 0 0-.75-.05.5.5 0 0 0-.39.38c-.02.24 0 .5.1.72.07.12.2.22.34.24.07.02.21.02.16-.1-.1-.19-.12-.4-.1-.6.08-.19.25-.3.46-.33h.15l.1.02c-.05 0 .02 0 .02.03-.03-.03-.03-.03 0 0 .02.02.02 0 0 0h.02l-.02-.03.02.03c-.02-.03-.02-.03-.02 0l.02.02c-.02-.02-.02-.02 0 0 0 .02.03.02.05.05-.02-.05 0 .02.02.02l.05.12c.03.07.05.17.05.24.02.12.17.22.29.27.05.02.29.1.24-.03zm5.14-.5c.03-.17 0-.36-.04-.53-.1-.24-.3-.43-.5-.55a1.37 1.37 0 0 0-.82-.2.6.6 0 0 0-.46.3c-.1.21-.1.45-.07.69.02.12.17.22.29.26.04.03.26.1.26-.02v-.55a.38.38 0 0 1 .24-.27c.07-.02.14-.04.22-.04h.1l.06.02h.03l.02.02-.02-.02.02.02-.02-.02.02.02.03.03c-.03-.03 0 0 0 .02l.02.03s-.02-.03 0 0c.02.02.02.07.05.1 0 .02.02.04.02.09v.38c0 .05.05.1.1.15.05.04.12.1.19.12.07 0 .26.04.26-.05z" />
    <path fill="var(--b, white)"
      d="M65.8 44.14a13.79 13.79 0 0 1-3.09 2.68c-3.86 2.57-3.7 4.25-2.04 4.5 1.66.23 7.08-2.96 7.08-2.96" />
    <path fill="var(--c, black)"
      d="M65.26 43.94c-.99 1.25-2.36 2.14-3.63 3.05a9.45 9.45 0 0 0-2.11 1.92c-.31.41-.6.91-.55 1.44.12 1.1 1.77 1.35 2.61 1.23 1.35-.22 2.67-.87 3.9-1.47.95-.48 1.89-.98 2.8-1.51.22-.12-.26-.36-.34-.38a.9.9 0 0 0-.74-.03l-.55.31c-.48.27-.99.56-1.49.8a22.7 22.7 0 0 1-3.67 1.6c-.24.08-.46.12-.7.17-.02 0-.19.03-.07 0h-.14c.1 0 .07 0 0 0l-.08-.02c-.12-.03.12.05-.02 0-.02 0-.1-.05.02.02l-.04-.02s-.1-.05-.03 0 0 0-.02 0l-.05-.05c-.05-.05.07.07 0 0a.5.5 0 0 1-.2-.38c-.06-.44.2-.9.44-1.23a7.6 7.6 0 0 1 1.9-1.77c1.34-1.01 2.83-1.9 3.88-3.24.22-.3-.88-.68-1.1-.39z" />
    <path fill="var(--a, blue)"
      d="M70.44 59.26s-3.1-1.4-1.03-3.08c2.06-1.68 10.46-3.93 12.36-3.55 1.9.39 1.17 4.42 1.17 4.42s40.9 22.39 26.81 31.15c-6.53 4.06-52.03 3.89-56.06 1.73-4.03-2.16 14.95-30.53 16.75-30.67z" />
    <path fill="var(--c, black)"
      d="M93.1 88.2s-8.7 2.57-7.47 4.78c1.23 2.2 18.15-.34 18.7-1.44.55-1.1-5.11-5.12-11.23-3.34z" />
    <path fill="var(--c, black)"
      d="M92.88 87.65c-.91.26-1.82.57-2.71.93a14.54 14.54 0 0 0-4.1 2.14c-.46.38-.92.84-1.01 1.46a1.6 1.6 0 0 0 .62 1.5c.8.62 2.02.66 2.98.71 3.3.17 6.67-.24 9.9-.74 1.42-.22 2.82-.48 4.18-.84.46-.12.92-.27 1.35-.43a1 1 0 0 0 .65-.56c.19-.6-.27-1.27-.68-1.68a7.73 7.73 0 0 0-2.1-1.5 12.76 12.76 0 0 0-7.04-1.4c-.67.07-1.37.2-2.04.4-.58.15-.1 1.26.38 1.11a11.72 11.72 0 0 1 9.6 1.47c.15.1.3.21.44.33l.19.17.07.07c.1.1-.05-.07.02.03.08.1.17.21.27.3-.1-.09-.03-.04.02.03l.05.07c.07.1-.05-.14-.02-.04.07.14 0-.03 0 0 .02.12 0-.12 0 0 0 0 .04-.12 0-.05-.05.07-.03.02 0 0 .02-.03.02-.03 0 0-.05.07.1-.05-.03.02l-.17.1c-.14.07-.28.14-.43.19l-.12.05-.05.02-.33.1c-1.2.33-2.45.62-3.67.84-3.15.57-6.32.89-9.5.91-1.09 0-2.2-.02-3.25-.36-.1-.02.1.02.03 0l-.08-.02-.14-.1c-.07-.02-.26-.2-.12-.05-.07-.05-.2-.19-.07-.02-.03-.03-.05-.05-.05-.07.14.21 0-.1.07.12-.02-.05-.05-.22-.02-.03 0-.02-.03-.17-.03-.07v-.07c0-.1-.02.07 0 .02.03-.05.03-.07.03-.1.02-.04.02-.09.05-.14-.03.03 0 0 .04-.07.08-.12.17-.22.27-.34.43-.43.93-.79 1.49-1.08a15.9 15.9 0 0 1 2.08-1c1.06-.46 2.19-.84 3.2-1.16l.19-.04c.26-.08.31-.36.21-.6-.07-.22-.33-.6-.62-.53z" />
    <path fill="var(--b, white)"
      d="M101.28 84.67s-8.38-3-11.76-2.3c-3.38.7-3.55 6.17-3.05 6.53.5.36 1.54-.56 1.54-.56s-1.66 4.3.77 2.72c0 0-.27 1.65 1.94.4 1.44-.81 2.8-1.75 4.1-2.78 0 0-2.23 3.48-.76 3.34 1.46-.15 4.03-3.41 4.03-3.41s8.95 2.42 7.99-.22" />
    <path fill="var(--c, black)"
      d="M100.94 84.2a58.5 58.5 0 0 0-2.9-.94 41.11 41.11 0 0 0-5.71-1.32c-1.59-.22-3.48-.41-4.75.74-1.16 1.06-1.64 2.78-1.73 4.32-.03.55-.03 1.18.26 1.68.29.5.7.89 1.27.7.36-.12.68-.34.96-.58l-.76-.89c-.2.5-.34 1.01-.46 1.54-.1.33-.12.7-.07 1.05.1.53.4.99.89 1.28.38.21.86-.08 1.2-.3l-.77-.88c-.03.2 0 .38.05.58.16.48.62 1.12 1.17 1.2.72.12 1.49-.46 2.07-.8.81-.48 1.6-1 2.37-1.56l1.15-.86-.74-.94c-.29.44-.55.92-.77 1.37-.26.55-.7 1.32-.43 1.95.17.38.55.9 1 .96.37 0 .73-.12 1.02-.34.81-.53 1.53-1.18 2.18-1.9a23.83 23.83 0 0 0 .96-1.1c.02-.05.07-.07.02-.05.1 0 .2.05.3.07.2.05.42.12.66.17 1.47.36 2.96.63 4.44.75.87.04 3.15.16 2.62-1.32a1.7 1.7 0 0 0-.48-.68c-.05-.04-.38-.28-.29-.04.43 1.2-1.63 1.12-2.3 1.1a26.3 26.3 0 0 1-4.54-.74l-1.08-.27h-.07a15.8 15.8 0 0 1-2.74 2.79c-.28.21-.6.4-.93.55-.12.05-.27.07-.39.07l-.16-.02c.02 0 0 0 0 0 .24.14.4.36.5.62v-.02c.05-.58.22-1.16.5-1.66.22-.46.46-.89.75-1.3.12-.19-.6-1.05-.75-.93a29.01 29.01 0 0 1-3.64 2.52c-.41.26-.84.48-1.32.65-.15.04-.3.07-.44.07-.07 0-.19-.07-.24-.05.22-.02.27.43.41.48.03 0 0 .05 0-.02-.02-.05-.02-.1-.02-.15v-.21c.02-.2-.58-1.01-.77-.9-.2.15-.43.27-.67.34-.07 0-.15.03-.22 0-.05 0-.02-.02-.05-.02.15.1.27.22.36.36l.1.17c-.02-.03 0 .05 0-.05 0 0-.02-.1-.02-.05 0-.07-.03-.17 0-.24 0-.19.02-.4.07-.6.12-.57.26-1.15.48-1.7.07-.17-.63-1.03-.77-.89-.22.2-.46.36-.72.48-.17.1-.38.14-.58.14l-.07-.02c.58 0 .36.43.5.6-.02-.02 0 .07 0-.02a5.52 5.52 0 0 1-.04-1.52c.14-1.46.65-3.07 1.82-4.03 1.25-1 3.03-.81 4.51-.6 1.85.29 3.68.7 5.48 1.25 1.05.31 2.1.62 3.14 1 .17.06-.12-.42-.12-.42a1.07 1.07 0 0 0-.55-.5z" />
    <path fill="var(--b, white)" d="M91.66 84.65s-2.64 1.73-3.68 3.67" />
    <path fill="var(--c, black)"
      d="M91.2 84.24c-1.03.67-2 1.51-2.8 2.45-.34.38-.63.79-.87 1.25-.12.21.1.48.26.62.1.07.53.38.65.2a8.8 8.8 0 0 1 1.68-2.1c.53-.48 1.08-.93 1.66-1.36.12-.08.21-.17.33-.24.07-.05.03-.22 0-.27a.72.72 0 0 0-.26-.33c-.2-.17-.43-.34-.65-.22z" />
    <path fill="var(--b, white)" d="M94.7 85.75s-4.99 3.2-5.97 5.28" />
    <path fill="var(--c, black)"
      d="M94.2 85.49a27.48 27.48 0 0 0-4.85 3.79c-.45.43-.86.96-1.15 1.51-.1.22.98.72 1.08.5.5-1.07 1.51-1.91 2.4-2.66.94-.77 1.9-1.49 2.88-2.16.22-.14.4-.29.62-.4.2-.13-.72-.73-.98-.58z" />
    <path fill="var(--b, white)"
      d="M73.2 97.44s14.88 6.24 20.3 4.44c5.43-1.8-6.74-6.77-7.6-5.66-.87 1.1 1.8 1.2 3.62-1.44" />
    <path fill="var(--c, black)"
      d="M72.84 97.87c1.97.82 3.98 1.56 6 2.23 3.55 1.18 7.22 2.28 10.97 2.55 1.44.1 3 .07 4.34-.53.53-.24 1.08-.62 1.27-1.22.12-.44.03-.9-.24-1.25-.7-1.03-1.92-1.73-3-2.28a20.68 20.68 0 0 0-3.93-1.56c-.82-.22-2.23-.63-2.83.19a.93.93 0 0 0-.17.96c.17.31.55.43.89.43.9.05 1.84-.45 2.54-1a7 7 0 0 0 1.3-1.42c.45-.65-.53-1.01-.9-.48a5.38 5.38 0 0 1-1.65 1.58l-.29.15-.12.04c-.19.08.1-.02-.07.03l-.26.07-.1.02c-.14.03.07 0-.02 0h-.2c-.11 0 .1 0 0 0-.02 0-.07 0-.09-.02.12.05 0-.02-.02-.02 0 0 .1.07.02.02-.07-.05.05.12.02.05v.05s.03.04 0-.03c-.02-.07-.04.05 0 0 .1-.12-.04.03.03-.05.05-.04-.15.12-.05.08-.17.12-.12.07-.05.04.07-.02-.17.08-.05.03.05-.03.17 0-.04 0h.38c.02 0 .17.02.07 0l.1.02c.12.03.24.03.33.05A18.6 18.6 0 0 1 93 99.17c.2.14.38.29.58.45.16.15.33.32.48.5l.04.08c0 .02-.07-.1-.02-.02l.07.12c.05.07.07.16.12.24.03.04 0-.12 0 .02 0 .02 0 .07.03.12.02.12 0 0 0 .02 0 .05-.03.08-.03.12 0 .03-.02.1 0 0 .03-.1-.1.15-.02.05.07-.1-.03.03-.05.05-.1.14.07-.05-.05.05l-.1.07c-.04.02-.21.12-.04.02-.12.08-.24.12-.39.2a.5.5 0 0 0-.21.1c.12-.06-.05.02-.1.02-.14.04-.29.07-.43.12-.14.04-.29.04-.43.07l-.17.02h-.07l-.15.03c-.72.04-1.44.04-2.16 0-3.36-.27-6.81-1.28-10.05-2.33-2.19-.72-4.13-1.44-6.24-2.28l-.1-.05a.7.7 0 0 0-.81.2c-.17.18-.2.54.1.66z" />
    <path fill="var(--b, white)"
      d="M77.04 59.5c-1.94.62-4 .79-6.02.5-.27-.05 0 .26.04.31.2.2.46.31.72.39 2.07.28 4.18.12 6.17-.5.2-.08-.19-.37-.24-.42-.14-.12-.48-.36-.67-.28zM16.9 97.44S4.73 59.28 7.78 57.74c3.04-1.53 49.94-1.15 52.8 1.32 2.85 2.48 5.9 32.3 5.9 32.3s12.53-1.7 11.98-.38c-.56 1.32-7.59 7.23-10.64 8.55-3.04 1.32-48.07 0-50.92-2.09z" />
    <path fill="var(--c, black)"
      d="M17.42 97.15a105 105 0 0 0-.67-2.11l-1.65-5.4c-.75-2.47-1.47-4.97-2.19-7.44-.77-2.74-1.53-5.47-2.25-8.23-.68-2.57-1.3-5.14-1.85-7.73a44.15 44.15 0 0 1-.96-5.88 8.14 8.14 0 0 1 0-1.87c0-.07 0 0 0 0v-.07c0-.03.02-.12.05-.17.02-.1.04-.17.1-.27.02-.04-.08.1 0 0 .06-.1.06-.1 0 0 .06-.07.09-.07-.03.03.12-.07-.15.1-.05.02.1-.07-.2.05-.05.03.03 0 .05-.03.1-.03l.12-.02c.1-.03-.15.02-.07.02l.07-.02c.21-.05.43-.1.62-.12l.87-.12c.16-.03.33-.03.5-.05l.24-.02h.02l.17-.03a94.7 94.7 0 0 1 5.86-.29c2.61-.07 5.23-.12 7.82-.12a541.73 541.73 0 0 1 17.79.27c2.68.1 5.37.21 8.06.4l3.46.27 1.5.14.7.08.34.04.14.03.1.02c1.18.15 2.47.29 3.6.77-.12-.05.07.05.12.07.05.05.12.07.17.12.1.07 0-.02.05.05l.1.14.2.34c.34.67.6 1.37.82 2.09A57.37 57.37 0 0 1 62.88 69a308.5 308.5 0 0 1 2.4 16.73l.58 5.09.07.72c.02.24.26.21.43.19 2.11-.29 4.22-.53 6.34-.7a33.53 33.53 0 0 1 4.44-.14l.16.02h.08c.1.03.16.03.26.05.05.02.12.05.17.05-.05-.03.05.05.1.07-.13-.07 0-.02-.03 0-.02.02 0-.02 0-.02 0 .04-.02-.1 0-.03l-.02.05s.04-.1.02-.02c-.02.07-.1.16-.14.24-.03.02-.12.14-.03.04a.29.29 0 0 1-.12.12l-.29.34-.72.72a53.58 53.58 0 0 1-6.62 5.33c-.62.43-1.27.81-1.94 1.17l-.2.1s-.16.07-.07.02c.05-.02.03 0 0 0l-.1.05c-.14.05.05 0 .03 0l-.14.03c-.24.04-.48.1-.75.12l-.48.04h-.14l-.29.03c-2.14.17-4.3.19-6.46.19-3.02.02-6.02 0-9.04-.07a484.63 484.63 0 0 1-20.07-.82c-2.66-.17-5.35-.38-7.99-.67-.96-.12-1.8-.22-2.78-.38-.63-.1-1.23-.24-1.83-.44l-.14-.04c-.07-.03-.1-.05-.05-.03-.07-.02-.12-.07-.2-.12-.35-.26-1.34.41-.93.72.41.24.87.41 1.35.48.79.2 1.6.31 2.42.43 2.52.34 5.04.56 7.56.75a446.22 446.22 0 0 0 20.26.93c3.19.08 6.38.12 9.55.12 2.35 0 4.73-.02 7.08-.16.74-.05 1.49-.1 2.23-.2a5.8 5.8 0 0 0 2.09-.81 40.3 40.3 0 0 0 4.75-3.34 40.19 40.19 0 0 0 4.15-3.67c.39-.38 1.75-1.6.75-2.02a3.88 3.88 0 0 0-1.25-.19 30.1 30.1 0 0 0-1.9 0c-2.78.12-5.57.43-8.3.8l-.55.07.43.19-.31-2.88c-.27-2.35-.56-4.68-.84-7.03-.39-2.93-.77-5.86-1.25-8.79-.43-2.71-.89-5.42-1.49-8.11-.24-1.03-.5-2.09-.82-3.1a9.89 9.89 0 0 0-.81-1.99 2 2 0 0 0-.91-.81 7.1 7.1 0 0 0-1.44-.41 42.55 42.55 0 0 0-5.26-.7c-2.47-.21-4.97-.36-7.44-.48a383.16 383.16 0 0 0-17.86-.43 332.32 332.32 0 0 0-15.36.26c-1.48.05-2.97.2-4.44.41a3 3 0 0 0-1.34.46c-.36.29-.6.72-.62 1.17-.24 1.5.04 3.08.28 4.54a91 91 0 0 0 1.47 6.98c.65 2.76 1.37 5.5 2.11 8.24a541.18 541.18 0 0 0 4.3 14.78l1.22 3.94.17.52c.14.44 1.2-.1 1.05-.55z" />
    <path fill="var(--c, black)"
      d="m67.97 97.03-.77-5.45-1.25-8.7-.29-2a.85.85 0 0 0-.55-.62c-.19-.08-.5-.05-.48.24l.77 5.44 1.25 8.72.29 1.99c.07.29.26.53.55.62.19.07.53.05.48-.24zM33.05 78.77c-.55 1.7.57 3.72 2.37 4 1.4.22 2.79-.3 3.7-1.39.77-.9 1.03-2.1.4-3.19a6.56 6.56 0 0 0-1.91-2.13c-.24-.2-.53-.32-.82-.34-.17 0 .07.38.12.43.1.12.34.53.53.53.62 0 1.22.7 1.51 1.15.07.15.15.31.17.48.02.24.02.46-.02.7-.1.5-.32.96-.63 1.34a3.92 3.92 0 0 1-2.97 1.49c-.56.05-1.1-.07-1.59-.36-.05-.02-.1-.05-.12-.1-.1-.04 0 0 .03.05.1.12.02-.05.02.05 0-.05-.1-.24-.12-.4-.1-.49-.05-1.02.1-1.47.04-.2-.27-.53-.36-.65-.08-.02-.36-.34-.41-.2z" />
    <path fill="var(--a, blue)"
      d="M37.27 44.45s6.39 4.6 6.7 3.62c.31-.98-2.07-24.24-4.66-25.05-2.59-.82-22.25 2.64-24.36 4.75-2.11 2.11 3.05 19.49 4.35 20.3 1.3.82 17.97-3.62 17.97-3.62z" />
    <path fill="var(--b, white)"
      d="M22.68 36.2c.31 1.02.74 2.03 1.32 2.97.43.72 1.08 1.3 1.85 1.63.84.36 1.97.65 2.78.05.46-.36.84-.8 1.2-1.25.48-.6.94-1.25 1.37-1.9a73.1 73.1 0 0 0 2.66-4.3c.5-.83.99-1.7 1.47-2.56.07-.12-.24-.29-.27-.31-.24-.15-.5-.27-.79-.34-.26-.1-.55-.14-.84-.14-.12 0-.33 0-.4.12a112.21 112.21 0 0 1-3.49 5.88A22.31 22.31 0 0 1 27 39.53c-.14.17-.31.31-.48.45-.07.05-.14.12-.22.15l-.12.07-.1.05c-.04.02.1-.03-.02 0-.19.02.05 0-.02 0 .26.02.55.07.8.19l.14.07c.26.12.16.1.1.05-.03 0-.15-.1-.03-.02.12.07-.03-.03-.05-.05a2.3 2.3 0 0 1-.55-.63 12.1 12.1 0 0 1-1.49-3.19c-.05-.14-.38-.29-.48-.33a3.84 3.84 0 0 0-.89-.3c-.14-.02-1-.2-.91.15z" />
    <path fill="var(--a, blue)"
      d="M39.98 20.74v-2.76c0-.3-.28-.5-.52-.58-.17-.05-.58-.1-.58.2v2.75c0 .27.29.5.53.58.17.05.57.1.57-.2zm2.12 2.3a7.2 7.2 0 0 0 2.44-1.51.61.61 0 0 0-.1-.87.61.61 0 0 0-.71-.02l-.5.43-.27.2-.02.02-.03.02-.14.1c-.39.24-.8.43-1.2.57-.29.1-.34.5-.2.75.1.31.44.43.73.31z" />
  </g>
</svg>