<svg xmlns="http://www.w3.org/2000/svg" viewBox="0 0 120 120" fill="none">
  <g id="doc">
    <path d="M38 90.9s-26-55-25.4-55.6c.7-.6 44.4-21.7 47-20C62 17 83.4 74 83.4 74S43.5 97.6 37.9 91"
      fill="var(--b, white)" />
    <path
      d="M38.5 90.9l-1.4-3-3.5-7.2-4.5-10-5.3-11.1L19 49a148 148 0 0 1-5.8-13.2v-.2c0-.1 0 0 0 0l1.7-1A420 420 0 0 1 33 26 486.2 486.2 0 0 1 54 17l3.4-1 1.2-.3h.8c-.2 0-.1 0 0 0h-.2s-.2-.3 0-.2v.1l.3.4c.3.6.8 1.3 1 2a554.1 554.1 0 0 1 12.1 29.6L77 58.8l3.4 9.1 2 5.3.3.7v-.1l-3.7 2A313.2 313.2 0 0 1 57.2 87a71 71 0 0 1-11.5 4 19.4 19.4 0 0 1-5.2.6c-.3 0 0 0 0 0h-.7l-.2-.2-.4-.2s-.2 0 0 0h-.4V91h-.2zl-.2-.3a.9.9 0 0 0-.8-.3c-.3 0-.2.3 0 .5 1.6 2 4.9 1.8 7.1 1.2 4-.6 7.5-2 11.2-3.5a184.4 184.4 0 0 0 23-11.3l3.3-2 1.5-.8V74c-.2-1-.6-2-1-2.9l-2.7-7.7L75.8 53l-4.6-11.7L66.8 30l-3.9-9c-.7-1.8-1.5-3.6-2.5-5.2-.4-.5-.8-1-1.5-1s-1.4.1-2 .3c-2.7.7-5.4 1.8-8 2.8a369.7 369.7 0 0 0-22.3 10L17 32.2l-4.7 2.5c-.4.2-.4.3-.3.7l.7 1.7 2.9 6.8 4.4 9.8L25.4 65l5.1 11 4.2 8.8L37 90l.4.7c.2.4 1.2.6.9 0z"
      fill="#002780" />
    <path
      d="M50.6 64.4c.6-.3 1-.9 1.5-1.3.3-.5.7-1.2.7-1.8s-.6-1.2-1-1.5c-.5-.2-1.2-.3-1.4.2s-.2 1 0 1.6.5 1.1.9 1.6c.8.9 2 2 3.3 1.6 1.3-.5 2.1-2 2.3-3.4 0-.3-.3-.4-.4-.6 0 0-.5-.4-.6 0 0 .9-.4 1.8-1.1 2.5-.4.3-.7.6-1.2.6a1.8 1.8 0 0 1-1.3-.5 3.2 3.2 0 0 1-1.1-1.9c0-.3 0-.9.3-.9h.3c0-.2 0 0 0 0v.4c0 .5-.4 1-.8 1.4l-1.1 1.2c-.3.3.5 1.2.8.9zM29 30.6c.5 0 15.6-7.5 15.6-7.5l-1.8-4.7-5.2 2.4s-1.4-3.5-4.8-1.6c-3.4 1.8-1.7 4.5-1.7 4.5s-4.2 2.2-4.5 3.1 2.4 3.8 2.4 3.8"
      fill="#002780" />
    <path
      d="M29.1 31c.2 0 .5-.1.6-.3l1.3-.5 3.7-1.8 8.2-4 2-1s.3-.3.2-.5l-1.7-4.8c0-.3-.6-.3-.9-.1L38 20.1l-.7.4h1a3.8 3.8 0 0 0-3.2-2.2 5.3 5.3 0 0 0-3.7 1.3c-.9.7-1.3 1.8-1.3 2.7 0 .6.3 1.2.5 1.7l.3-.6-3.5 2.2c-.6.3-1.3.9-1.2 1.6 0 .3.2.7.4 1l.8 1.1 1.2 1.6c.3.3 1.4-.1 1-.5a14.4 14.4 0 0 1-2.2-3.5v-.2l.1-.1v-.1l.5-.4 2-1.3 1.5-.8c.2 0 .4-.4.3-.5v-.1l-.2-.2a2.6 2.6 0 0 1 .3-2.8c.5-.5 1-.8 1.5-1a2.6 2.6 0 0 1 1.3-.3 2.6 2.6 0 0 1 1.7.8l.6.7v.1c0 .1 0 0 0 0v.2c.2.4.7.3 1 .2l4.5-2.1.7-.4-.8-.2 1.7 4.9.3-.5-5.2 2.5-8.2 4-1.5.7-.5.2H29c-.2 0-.6.3-.5.6s.5.3.7.2zm2.6 10.8l.8 1.4.5 1 .2.4v.1l.2-.1s.1-.1 0 0h-.1c.1-.1 0 0 0 0l-1 .4-.4.2h-.2l-.4.2-1.2.4-2.3.8h-.5c-.2.2 0 0 0 0h-.1c-.1 0 0 0 0 0H27a5.3 5.3 0 0 1-1.1-1.4l-1.2-2-1.5-3-.4.5 5-2.4.6-.4c.2 0 .5-.2.5-.5s-.6 0-.8 0l-4.8 2.3-.8.4s-.4.2-.4.5a41.5 41.5 0 0 0 2.6 5L26 47c.6.5 1 .4 1.5.2a35.3 35.3 0 0 0 5-1.7c.5-.1 1.2-.4 1.7-.9.2-.1.3-.3.2-.6l-.5-1-1-1.8c-.2-.3-1.4.2-1.1.5z"
      fill="#002780" />
    <path
      d="M26 43.1l1.3.5c.3.2.8.4 1.2.4.5 0 .6-.2.9-.6l.5-1.3 2.3-4.8c.3-.4-.9-.9-1.1-.4L29.6 40l-.8 1.6-.4.7-.2.5-.1.3h.2c.4 0 .1 0 0 0l-.2-.1-.6-.3-1.1-.4c-.2-.1-.6-.2-.7 0 0 .3.2.6.3.7"
      fill="var(--c, black)" />
    <path
      d="M38 41.5a37 37 0 0 0 1.8-4c.2-.4.5-1 .2-1.7-.4-.5-1-.7-1.7-.4-.4.2-.8.7-.7 1.2 0 .6.4 1.2.9 1.5 1 .9 2.4 1.4 3.7 1.4 1 0 2.2-.4 2.7-1.5.5-1 .4-2.5-.9-2.7-.6-.2-1.1.2-1.3.8 0 .5.3 1.1.7 1.4 1 .9 2.6.9 3.8.4 1.4-.4 2.7-1.4 3.9-2.3l4-2.9c.2-.1.1-.4 0-.6a.7.7 0 0 0-1 0L49 36c-.7.5-1.6 1-2.6 1.3-.7.1-1.7.2-2.3-.4a.5.5 0 0 1-.1-.4l.1-.2c0 .2-.1 0-.1 0l.1.2v.6c0 .7-.4 1.3-1.1 1.6-.8.3-1.7 0-2.4-.3-.6-.3-1.8-.9-1.8-1.7 0-.2.2-.2.3-.3 0-.1 0 0 0 0 0 .5-.4 1-.5 1.5L37 41c-.4.6.8 1 1 .6zm.5 12.7l.8 1.4.5 1 .2.4h-.2l-.8.4-2.3 1-2.3.7-.9.2h.2s.2 0 0 0c0 0 .3 0 0 0 0 0 .2 0 0 0 0 0-.2-.2 0 0l-.3-.2-.2-.3-.6-.7-1.2-2-1.4-3v.3l4.8-2.4.8-.4c.2-.1 0-.4-.1-.6a.9.9 0 0 0-1 0l-4.8 2.4-.7.4-.1.3a41.5 41.5 0 0 0 2.6 4.9c.4.6.8 1.2 1.3 1.6a1.8 1.8 0 0 0 1.8.4 33.9 33.9 0 0 0 4.8-1.7c.5-.2 1.1-.4 1.5-.8.3-.1.3-.3.2-.6l-.5-1-1-1.8a.8.8 0 0 0-.8-.4c-.2 0-.5.2-.3.5"
      fill="#002780" />
    <path
      d="M33.2 55.7l1.2.5c.4.2.7.4 1.2.4s.5-.4.6-.7l.5-1.1L39 50c.2-.3-.9-.9-1-.6l-2 4.2-.6 1.2-.3.5-.2.5s.2 0 0 0h-.2l-.6-.3L33 55l-.4.1c0 .3.4.5.6.6"
      fill="var(--c, black)" />
    <path
      d="M45.9 67.8l.8 1.3.5 1 .2.3v.2-.3s.2-.2 0 0h-.1l-.9.5-2.4.8a48.5 48.5 0 0 1-2.8 1c.2 0 0 0 0 0l-.3-.2v-.1l-.3-.2-.5-.9a25.9 25.9 0 0 1-2.7-4.8l-.2.5 4.9-2.4.8-.4c.6-.3-.2-1.2-.7-.8l-5 2.3-.7.4c-.1 0-.2.4-.1.5a42.4 42.4 0 0 0 2.6 5c.3.6.7 1.2 1.2 1.6l1 .5.7-.1a67 67 0 0 0 5-1.8c.5-.1 1.1-.3 1.5-.7.3-.1.3-.5.2-.8l-.5-1-1-1.9c-.5-.6-1.6-.2-1.1.5zm-2-18.2c.6.7 1.2 1.3 1.5 2.3 0 .3 0 .8-.2 1.1 0 .2-.1.3-.3.5 0 0-.2 0 0 0-.6-.8-.3-1.8.2-2.6.3-.7 1-1.5 2-1.6.9 0 1.3 1 .8 1.9l1 .2c-.3-.7 0-1.4.6-1.8.5-.5 1.4-.7 2.1-.9.7-.3 0-1.2-.5-1-.9.2-2 .5-2.7 1.3-.7.7-.8 1.7-.4 2.6.3.3.9.5 1 0 .7-1.2-.1-2.7-1.4-3.2-1.4-.5-2.6.4-3.3 1.5s-1.2 2.6-.4 3.7c.3.6 1 1.3 1.7.8.5-.3.8-1 .9-1.5.2-1.5-.9-2.8-1.8-3.8-.2-.2-.6-.4-.8-.2s-.2.5 0 .7"
      fill="#002780" />
    <path
      d="M41.3 68.3l1.8.9c.3 0 .8 0 1-.3l.5-.9 1.5-3.4-.1-.5h-.2c-.4 0-.6.1-.7.4l-1 2.1-.4 1-.3.5v.3c-.3.2-.2.2 0 0l.3-.1h.2l-1-.4-.9-.5c-.4-.3-1.2.6-.7.9"
      fill="var(--c, black)" />
    <path
      d="M33.4 20.3c-.4.2-.6.4-.8.9v1.2c.1.2.4.4.6.4.4 0 .9 0 1.3-.2.3 0 .4-.3.6-.5l.2-.3v-.4l-.4-.1a.9.9 0 0 0-.4 0l-.4.3v.4c-.1 0 0 0 0 0h-.4v-1s.3-.2 0 0h.2s-.2 0 0 0l.2-.4v-.3a.8.8 0 0 0-.8 0zm37 62.4S66.6 80 63 79.9c-3.7-.3-6.2-4.5-5-6.5 1.1-2 2.8-.9 4.1.9 1.3 1.8 3.6-.4 2.7-3.8-1-3.4-5-3.5-4.9-5.3 0-1.8 3.2-3.5 6-.3 0 0 2.7-2.4 4-.1 0 0 1.6-3.3 5.5 6 4.1 9.3-5 11.9-5 11.9"
      fill="var(--b, white)" />
    <path
      d="M70.5 82.3a20.5 20.5 0 0 0-7-2.9c-.6 0-1 0-1.5-.2a5.3 5.3 0 0 1-3.2-2.5c-.6-1-1-2.4 0-3.3.2-.3.6-.5 1-.5s.6.2 1 .4l.9 1c.2.4.5.8.9 1 1.2.8 2.3-.4 2.6-1.5.5-1.8 0-3.7-1-5.2-1-1-2.2-1.7-3.2-2.4 0 0-.3-.1-.1 0l-.2-.2s-.3-.3 0 0l-.3-.3s0 .1 0 0V65l.4-.6c1-1 2.6-.9 3.7-.2.4.3.9.7 1.1 1.1.1 0 .5.3.7.2l1.2-1h1.1c.4 0 .8.2 1 .4 0 .2.5.7.7.3.1-.2 0 0 0 0l.2-.2h.2l.2-.1h.1c.2 0 0 0 0 0h.2c.2 0 0 0 0 0l.3.1s0 .1 0 0l.2.2.2.2.1.2c.9.8 1.4 1.8 2 3 1.3 2.5 2.5 5.3 1.8 8.2a7.2 7.2 0 0 1-3 4.1c-.9.5-1.8 1-2.7 1.3-.5.2 0 1.2.6 1.1.9-.3 1.7-.7 2.4-1.2a8 8 0 0 0 3.5-4.3c.9-3-.2-5.9-1.5-8.6-.6-1.3-1.3-2.7-2.2-3.8a4.6 4.6 0 0 0-1.8-1.5c-.6-.3-1.4-.1-1.7.5l.8.3a3 3 0 0 0-1.5-1.3h-1.5l-1.7 1.1.7.3c-1.3-1.4-3-2.6-5-2-1 .4-2 1.4-1.7 2.7s1.7 1.8 2.6 2.4l1.6 1.4c.4.7.7 1.5.9 2.4a3.5 3.5 0 0 1-.6 2.2l-.7.7h-.5c-.2 0 0 0 0 0h-.2c0-.1 0 0 0 0s-.1-.2 0-.1l-.2-.4-1.2-1.2c-.6-.5-1.5-1.2-2.4-.9-.7.3-1.3 1-1.4 1.8-.1.7 0 1.4.1 2a7 7 0 0 0 5.4 4.7l1.6.2a17.8 17.8 0 0 1 5.6 2.4l.2.2c.2 0 .5 0 .6-.2 0-.2-.2-.7-.4-.9z"
      fill="var(--c, black)" />
    <path d="M68.4 66.8L66.7 65l-.2-.2c-.1-.2-.5-.1-.8 0 0 0-.5.1-.3.4L67 67l.1.2c.2.2.7.1 1 0 0 0 .4-.2.2-.4"
      fill="var(--c, black)" />
    <path d="M54.4 75.8L68.6 58l3.5 2.2L58 78.4z" fill="var(--b, white)" />
    <path
      d="M54.7 76.2l1.4-1.7 3.5-4.2 4-5.1 3.5-4.4 1.2-1.4.3-.5.2-.2h-.2l3.6 2-.5-.8-1.4 1.8L67 66l-4.2 5.3-3.5 4.4-1.2 1.6-.3.4-.2.3h.3l-3.5-2.6c-.2-.2-.3 0-.3.1 0 .3.2.6.4.7l3.6 2.7h.2l1.4-1.8 3.4-4.3 4.1-5.3 3.6-4.5 1.1-1.5c.2-.3.5-.4.5-.7.2-.2 0-.4 0-.5l-.4-.5-3.5-2.2-.2.1-1.4 1.8-3.5 4.2-4 5-3.5 4.4-1.2 1.5-.5.8c-.4.2.3 1.2.5.8"
      fill="var(--c, black)" />
    <path d="M54.2 79.8l.2-4 3.6 2.6z" fill="var(--b, white)" />
    <path
      d="M54.7 80l.3-3.6V76h-1l3 2.4.4.3v-.4l-3 1.2-.6.1c-.2 0-.2.3 0 .4s.6.2 1 .1l3-1.1.5-.2c.3 0 .3-.3.1-.3l-3.2-2.5-.4-.4h-.6l-.5.1-.1 3.5v.6c0 .2.3.2.5.3l.6-.1z"
      fill="var(--c, black)" />
    <path d="M68.6 58.2l3.5 2s1.6-1.5.2-3.1c-1.4-1.5-3.7 1.1-3.7 1.1" fill="var(--b, white)" />
    <path
      d="M68 58.5l3.2 1.9.4.2c.3.2.8 0 1-.2l.6-1.2c.3-.8.2-1.7-.3-2.3a1.8 1.8 0 0 0-2-.6 6 6 0 0 0-1.8.9 6.2 6.2 0 0 0-.9.9c-.2.1-.3.4 0 .4s.5 0 .7-.3l.5-.5H69.7l.3-.3.2-.2h.2q-.1 0 0 0h.1l.3-.1s.1 0 0 0h.1s.1 0 0 0c.4 0 .6 0 .7.3a1.8 1.8 0 0 1 .4 2.3v.1c0 .1 0 0 0 0l-.2.3-.2.2s.1 0 0 0l1-.2-3.2-2-.4-.2c-.3-.1-.5 0-.8.2 0 0-.3.2-.2.4"
      fill="var(--c, black)" />
    <path
      d="M56.4 77.2l1.4-1.8 3.5-4.1 4.2-5.1 3.5-4.4 1.2-1.4.7-.8c.1-.3-.8-1-1-.7l-1.5 1.8-3.5 4.2-4.1 5-3.5 4.5-1.3 1.5-.6.6c-.3.4.7 1 .9.7z"
      fill="var(--c, black)" />
    <path d="M69.7 82s-9.3-2-11.5-4.7c-2-2.7-1.1-5.4 1.2-5.3 2.3.2 3.2 4 5.5 2.3" fill="var(--b, white)" />
    <path
      d="M69.4 81.5A40.1 40.1 0 0 1 59 78a4.4 4.4 0 0 1-1-1l-.4-1c-.3-1-.3-2.1.5-2.9.8-.6 1.8-.7 2.7-.1.8.4 1.3 1.2 2.1 1.7.3.4.6.5 1 .7.5 0 .9-.2 1.3-.5 0 0-.6-1-.7-.9a1.8 1.8 0 0 1-1.2.3c-.4 0-.8-.2-1.1-.4-.6-.7-1.2-1.4-2-1.8-.7-.5-1.8-.6-2.6-.1-.9.6-1 1.8-.8 2.8a6.2 6.2 0 0 0 .9 2l1.1 1.4a8 8 0 0 0 2 1.3 45.2 45.2 0 0 0 9 2.7l-.2-.1-.3-.5z"
      fill="var(--c, black)" />
    <path
      d="M56.2 100.1S44 94 39 94.5s-6.9 2.3-8.3.4c-1.3-1.8 2.7-4 4.4-3.8 0 0-3.7-1.3-1.7-5.2 0 0-2.2-2 .5-4.1l8.7 2.6c2.2-2 1.4-3.5-.3-4.3s-3 0-3.3-2 1.9-2.5 5.7-1.8c3.8.6 7.1 6.7 6.2 8.7l6.7 2.8"
      fill="var(--b, white)" />
    <path
      d="M56 99.9l-3.3-1.7a77.6 77.6 0 0 0-11-3.9 11.5 11.5 0 0 0-3-.2 30 30 0 0 0-5 1l-1.5.3h-.9c0-.1 0 0 0 0s-.2-.2 0-.1c-.3-.2-.4-.4-.4-.6-.2-.6 0-1 .4-1.4a5.8 5.8 0 0 1 4-1.8c.3 0 0-.3 0-.3 0-.2-.4-.3-.6-.4-.1 0 0 0 0 0h-.2c-.2-.2 0 0 0 0l-.2-.4c-.2 0 0 .1 0 0h-.2c0-.1 0 0 0 0v-.1c-.1 0 0 0 0 0l-.3-.3c-.9-1.1-.6-2.6 0-3.8l-.2-.3-.2-.2-.4-.9c-.3-1 .4-2 1.3-2.7h-.2l7.6 2.3 1 .4h.3c.8-.7 1.6-1.8 1.4-2.8-.3-1-1.3-1.6-2.1-2q-.7-.5-1.6-.6l-.6-.2h-.5s.1 0 0 0h.1c0-.2-.3-.5-.3-.8v-1c.4-.6 1.1-.8 1.8-.9 1.2-.3 2.4 0 3.5 0 1 .2 1.6.5 2.2 1a9.7 9.7 0 0 1 3.2 5c.3.6.5 1.4.1 2.1 0 .2.5.5.7.6l6 2.5.8.4c.2 0 .4.1.4 0-.2-.3-.4-.5-.7-.6l-6-2.5-.8-.4.6.7c.3-.6.2-1.4 0-2a11 11 0 0 0-5.8-7 8.3 8.3 0 0 0-3.5-.6c-1 0-2 0-2.8.4-.7.5-.9 1.2-.6 1.8a2.6 2.6 0 0 0 2 2l1.6.5.8.3.2.3c.8 1.1-.3 2.5-1.1 3.2h.3l-5-1.6-3-.9c-.3-.2-.5-.3-.8-.3l-.6.3-.8 1c-.4 1.1 0 2.4.9 3l-.2-.2c-.5 1.1-.9 2.5-.2 3.6.5.9 1.1 1.5 2 2l.7.3-.6-.8c-1.3 0-2.6.5-3.6 1.3-.8.7-1.7 1.7-1 2.8.7.9 1.7 1.5 2.7 1.4q1 0 1.6-.3l2.2-.5c1.4-.3 2.8-.6 4.2-.4a58.2 58.2 0 0 1 15.5 5.5c.2 0 .4.2.3 0 0-.2-.4-.4-.6-.5"
      fill="var(--c, black)" />
    <path
      d="M38.8 89.1a9.4 9.4 0 0 1-5-3.4h-.5l-.6.3a9 9 0 0 0 3.1 2.4l1.3.7.7.4.6-.2.5-.3zm-1.7 2.1l-2-.5h-.6v.3c.3.1.4.4.8.4l2 .5h.5v-.1l-.7-.6"
      fill="var(--c, black)" />
    <path
      d="M82.2 35.6s-3.7 4.1-7.6 3.8c-4-.2-11.4-1.8-12.4 1.9-1 3.8 4.2 5.3 7.6 4.8 0 0-1.3 10.1 4.6 13.1 5.9 3 8.8 1.4 9 5.5 0 0 8.4 2.8 9.4-5 .2-1.2 2.7-11.4-6.4-16.6 0 0-5.2-2.6-4.2-7.5"
      fill="var(--b, white)" />
    <path
      d="M81.8 35.6l-1.2 1.2a8 8 0 0 1-3.2 1.8 6.2 6.2 0 0 1-3.5.3c-1.2 0-2.3-.3-3.6-.3-2.3-.2-4.8-.3-7 .8a3 3 0 0 0-1.7 2.2c-.3 1 0 2 .7 2.9.7.9 1.8 1.3 2.8 1.6 1.2.3 2.4.5 3.5.4h1l-.4-.3a21.7 21.7 0 0 0 .6 7.8c.5 2 1.6 3.7 3.2 4.9 1 .7 2.3 1.2 3.5 1.7l3.3.9c.8.3 1.6.4 2.3 1 .6.6.8 1.5.8 2.4l.1.1q2.7.8 5.3.3a6.5 6.5 0 0 0 3.8-2.4c.9-1 1.2-2.5 1.3-3.8.6-2.4.6-4.8.1-7.2-.7-3.8-3-7-6.4-9a8 8 0 0 1-2.2-1.5 6.4 6.4 0 0 1-2.2-4.4c0-.5 0-1 .2-1.5 0-.3-.5-.2-.6-.1-.2 0-.5.2-.6.4a6 6 0 0 0 1.2 5c.7 1 1.7 1.8 2.7 2.4a12 12 0 0 1 6.3 7.5c1 2.5 1 5.3.7 8l-.7 2.8c-.2.7-.6 1.4-1.1 2l-.4.2-.1.2H90c-.1.2-.3.2-.4.3l-.1.1-.2.1h-.1c-.2.1 0 0 0 0l-.3.2h-.3c-.4.2-.6.2-1 .2H86l-1.2-.2-.9-.2.1.1c0-.8-.2-1.6-.7-2.2-.4-.6-1.2-.9-1.8-1l-2.9-1c-1.3-.3-2.6-.8-3.9-1.4-3.5-1.8-4.4-6.2-4.6-9.8l.1-3.1c0-.2-.2-.2-.3-.1-1 0-2.2 0-3.3-.2a6.5 6.5 0 0 1-2.9-1.4 3 3 0 0 1-.6-3.9c.2-.3.4-.5.8-.7-.2 0 0 0 0 0H64.2l.7-.3a25.6 25.6 0 0 1 5.2 0l3.4.3a8.3 8.3 0 0 0 3.7-.4c2.1-.7 4-2 5.6-3.6.1-.1 0-.3-.2-.3a.9.9 0 0 0-.8.2"
      fill="var(--c, black)" />
    <path
      d="M95.6 56.3s4.9 2.6 6.5 0-2-2.6-2-2.6 5.4-4.7.4-7c0 0 5.6-3.2 3.2-8.1s-10-4.1-10-4.1 1.8-6.2-3.8-6.8-5.3 3.5-5.3 3.5-3.5-.5-4.2 1.6c-.6 2.1 1.7 3.6 1.7 3.6s-.7 6.4 4.3 6.7l2.5 8.8s-2.3 2.4-1.4 5.6 7.4 2.9 8.1-1.2"
      fill="var(--c, black)" />
    <path
      d="M95.5 56.6l1.6.8c1 .4 2.2.7 3.3.6 1 0 2-.8 2.5-1.8a1.8 1.8 0 0 0 0-1.5c-.2-.3-.5-.7-.9-.9-.6-.3-1.3-.5-2-.5l.7.8a11 11 0 0 0 1.6-2c.7-1 1.3-2.4.7-3.7a4.4 4.4 0 0 0-2.3-2l.2.6c2.2-1.2 4.2-3.8 4-6.5a6.8 6.8 0 0 0-3.4-4.9c-1.5-.8-3.3-1.4-5-1.5h-3l.7.7c.6-1.8.6-4-.7-5.6s-3.2-2-5-2c-1.5 0-3 .5-3.9 1.8-.3.6-.6 1.4-.5 2l.4-.3a6.2 6.2 0 0 0-3.2.4c-1 .4-1.4 1.1-1.5 1.9-.2.9.1 1.8.7 2.6l1.3 1.2-.3-.4.1 2.2c.3 1.5.9 3 2 4 1 .5 1.8.9 3 1l-.7-.5 2 7.7.4 1v-.2c-.5.6-.9 1.3-1.2 2.1-.5 1.4-.6 3.3.2 4.6 1.2 2.1 4.4 2.3 6.4 1.3a4.7 4.7 0 0 0 2.6-3c0-.3-.4-.6-.6-.7-.2 0-.5 0-.6.4a4.2 4.2 0 0 1-4.7 3h-.8l-.3-.3h-.2l-.3-.3-.2-.2h-.1c0-.2 0 0 0 0v-.3c-.3-.5-.5-1.1-.6-1.7a5.6 5.6 0 0 1 1.6-4.3V52l-2.1-7.6-.4-1a.7.7 0 0 0-.7-.6h-.9l-.2-.2-.5-.1c.2 0 0-.1 0-.2l-.3-.1a3 3 0 0 1-.6-.6l-.5-1a8 8 0 0 1-.6-3v-.8c0-.2 0-.3-.2-.4l-.3-.2s-.1-.2 0 0l-.2-.2-.4-.3c-.4-.6-.7-1.2-.7-1.9s.5-1.3 1-1.6a3.7 3.7 0 0 1 1.4-.4h1.6s.4 0 .3-.3V31l.1-.3v-.2l.3-.5.3-.5.6-.5a4 4 0 0 1 1.7-.8 9 9 0 0 1 2.7.2l.5.1.3.2h.2l.3.3c.2 0 .3.2.4.3l.4.6.3.8.2 1.6-.1 1.5v.3s0-.1 0 0l-.1.2c-.2.5.4.7.8.7h.1c.2 0 0 0 0 0h2c1.5 0 2.9.4 4.3 1a6 6 0 0 1 3.2 3.9c.4 1.6-.2 3.2-1.3 4.4-.4.6-.8 1.2-1.5 1.6l-.2.2h-.2l-.3.2c-.3.2 0 .7.3.7.6.4 1.2.8 1.5 1.5.3.5.3 1 0 1.5a6.7 6.7 0 0 1-1.7 2.9l-.5.6c-.4.2.4.7.6.7h.3l.3.2h.5l.2.1c-.2 0 0 0 0 0l.1.2s.1.1 0 0l.1.1.1.3v.6c-.3.9-1 1.4-2 1.5l-1.3-.1-.6-.2-.6-.2-1.5-.7c-.3-.1-.6-.1-.8.1 0 .3.1.5.3.6z"
      fill="var(--c, black)" />
    <path d="M85.3 44.1s1.8-4 4.6-2.4S91.4 53 86 51.3" fill="var(--b, white)" />
    <path
      d="M85.8 44.1c.1-.3.2-.6.5-.9s0-.1 0 0l.2-.2.3-.5.3-.2.2-.2.1-.1h.1c.2-.2 0 0 0 0l.3-.2h.3c.5 0 1 0 1.2.2.4.2.8.6 1 1a6.2 6.2 0 0 1 .5 3.5l-.4 2a7 7 0 0 1-1 1.5l-.2.4c-.2 0-.2.2-.3.2l-.2.2h-.1l-.3.2H88s.2 0 0 0h-1.5c-.4-.2-1.3.6-.7.8 1.5.4 3.2 0 4.2-1.2a7.1 7.1 0 0 0 1.8-3.8c.2-1.4.2-2.9-.3-4.2-.2-.4-.5-.9-1-1.2-.8-.5-1.7-.5-2.6-.3a6.2 6.2 0 0 0-3 3c-.1.3 0 .5.3.5l.7-.6zm-11 5a5.3 5.3 0 0 1-.7 1.2 5 5 0 0 1-1.4 1.2l-.3.2h-.2a4.2 4.2 0 0 1-1.5 0h-.8a.9.9 0 0 0-.3.3c2.3.6 4.9-.5 6.1-2.7l.2-.5h-.5l-.7.3zm3.7-6.6c.5 0 .8-.4.7-.9a.9.9 0 0 0-.8-.7.9.9 0 0 0-.8 1c0 .4.5.6 1 .6m28.8 56.7s-6.9-43.8-21.9-38.3c-15 5.3-15.4 24.7-17.7 26.1-2.4 1.5-11.5-4.1-16-.6-4.4 3.6-5.7 11.5-2.8 14.8 2.9 3.5 51.1 6.8 58.4-2"
      fill="var(--c, black)" />
    <path
      d="M108 99a94.4 94.4 0 0 0-1.9-9.2 131.5 131.5 0 0 0-5.7-17.6 35.2 35.2 0 0 0-4.3-7.5 12.3 12.3 0 0 0-5.3-4.3 7.5 7.5 0 0 0-3.4-.2c-1.6.2-3.2.9-4.7 1.6a22.9 22.9 0 0 0-8.5 8 40.6 40.6 0 0 0-4.2 9.4 248 248 0 0 0-2.1 6.8c0 .3-.3.6-.5.8.1 0 0 0 0 0 0 .1-.2.1 0 0-.2 0 0 0 0 0v.1s-.3 0 0 0H67s.1 0 0 0h-1c-.5 0-.8-.2-1.2-.3l-2.7-.7c-2-.5-4-1-6.2-1-.9 0-2 .2-2.9.5-.9.4-1.7.9-2.5 1.7a12.7 12.7 0 0 0-3.2 5.7c-.5 2-.7 4.3-.1 6.2.3.9.6 1.7 1.1 2.4l.6.4 1.7.7c2.2.6 4.5 1 6.7 1.3A138.5 138.5 0 0 0 78 105a115.2 115.2 0 0 0 20.7-1.7c2.5-.5 5-1.2 7.3-2.6a6 6 0 0 0 2-1.7c.2-.2 0-.3-.3-.3a1 1 0 0 0-.7.4l-.4.4-.2.2-.2.2-.6.4c-.1.1 0 0 0 0l-.1.1-.4.3-.7.3s-.2.1 0 0h-.3l-.3.3-.8.2-.5.2c-.1 0 0 0 0 0l-.2.1a8 8 0 0 1-2 .5c-.2.2-.6.2-.8.3h-.5l-.5.2a58.2 58.2 0 0 1-9.5 1.2 136.8 136.8 0 0 1-16.4.3 158.8 158.8 0 0 1-19.6-2.1 19.4 19.4 0 0 1-2.3-.7l-.3-.2-.3-.1-.5-.6c-.5-.7-.9-1.6-1-2.5a12.4 12.4 0 0 1 .3-6.2c.6-2 1.8-4 3.5-5.4a4.2 4.2 0 0 1 2-1c1-.2 1.8-.2 2.8 0 2 .2 3.9.8 5.8 1.3 1.5.4 3.2.9 4.6.5.9-.2 1.3-.8 1.8-1.6L70 83c1-2.9 1.7-5.8 2.9-8.6 1.4-3.4 3.3-6.5 6-9.1 1.4-1.3 3-2.5 4.6-3.4l1.5-.6.7-.2h.1c.1-.1 0 0 0 0l.2-.2.5-.1s-.1 0 0 0h.2l.5-.1c.1 0-.1 0 0 0h1.6l.7.2a8.5 8.5 0 0 1 3.4 2 22 22 0 0 1 4.7 6 60 60 0 0 1 3.7 8.6A105.5 105.5 0 0 1 106 94l.9 4.5v.7c0 .3 1.1 0 1-.3"
      fill="var(--c, black)" />
  </g>
</svg>