<svg xmlns="http://www.w3.org/2000/svg" fill="none" viewBox="0 0 120 120">
  <g id="doc">
    <path fill="var(--b, white)"
      d="M88.34 102.55S97.7 92.5 93.6 79.5s2.52-16.22 2.73-22.4c.22-6.16-6.17-13.7-15.31 1.16l-8.11 8.09s-30.1-44.5-39.94-44.07c-9.84.43-4.8 12.12.22 22.4 0 0-12.58 4.34-5.04 16 0 0-6.41 5.04.7 19.66s25.72 29.18 25.72 29.18" />
    <path fill="var(--c, black)"
      d="M88.94 102.55a22.38 22.38 0 0 0 2.66-3.72 25.93 25.93 0 0 0 3.46-9.72 22.05 22.05 0 0 0-.1-6.52c-.4-2.43-1.32-4.7-1.75-7.13-.6-3.41-.38-6.82.84-10.04.86-2.28 2.2-4.41 2.71-6.84a9.05 9.05 0 0 0-.96-6.3 6.07 6.07 0 0 0-1.96-2.1 5.6 5.6 0 0 0-3.17-.7c-3.22.1-5.72 2.6-7.61 4.95a32.89 32.89 0 0 0-2.26 3.17 4.24 4.24 0 0 1-.62.84L78 60.63l-5.33 5.3-.36.36h1.2a39.3 39.3 0 0 0-1.13-1.63c-1-1.47-2.04-2.9-3.07-4.37a512.84 512.84 0 0 0-4.54-6.27 540.9 540.9 0 0 0-5.57-7.39 367.54 367.54 0 0 0-6.1-7.6 172.25 172.25 0 0 0-6.16-7.04 74.96 74.96 0 0 0-5.76-5.61 22.25 22.25 0 0 0-4.97-3.46 8.26 8.26 0 0 0-6.14-.29 4.53 4.53 0 0 0-2.86 2.57 8.28 8.28 0 0 0-.31 4.4c.31 1.94.84 3.83 1.54 5.66a73.91 73.91 0 0 0 2.64 6.21l.76 1.61.36.77.17.36c.1.14.17.29.24.45-.02.03-.26.1-.29.12-.64.27-1.27.58-1.87.94-1.97 1.15-3.77 2.8-4.65 4.94-1.37 3.24-.27 7.01 1.63 9.82.17.26.21.17.02.36a3.09 3.09 0 0 0-.38.4 7.48 7.48 0 0 0-1.13 1.83c-1.15 2.55-1.2 5.47-.74 8.19.76 4.68 2.83 9.14 5.3 13.15a73.58 73.58 0 0 0 8.28 10.8 133.37 133.37 0 0 0 8.62 8.66 145.58 145.58 0 0 0 5.8 5.04l.82.68c.14.11.55.07.74.04.05 0 .48-.04.44-.1-1.7-1.34-3.34-2.75-4.97-4.2a127 127 0 0 1-10.66-10.6c-3.74-4.23-7.25-8.76-9.81-13.83a34.17 34.17 0 0 1-3.2-8.83 17.47 17.47 0 0 1-.24-6.21 10.21 10.21 0 0 1 1.28-3.63c.19-.33.43-.67.67-.98.12-.15.33-.31.43-.46.02-.02.05-.05.07-.05l.03-.02c-1.97-3.07-3.32-6.94-1.61-10.44 1.05-2.18 3.02-3.8 5.13-4.9.48-.26.96-.48 1.47-.64l.02-.03c-2.06-4.25-4.25-8.61-5.35-13.22-.7-2.88-1.1-6.96 2.11-8.5a7.46 7.46 0 0 1 2.62-.62h-.05.05l.45.07c.8.22 1.56.53 2.26.96a30.64 30.64 0 0 1 5.6 4.34c2.25 2.12 4.38 4.37 6.45 6.68 2.3 2.56 4.5 5.23 6.67 7.92a354.45 354.45 0 0 1 6.36 8.18 527.63 527.63 0 0 1 5.42 7.37 463.31 463.31 0 0 1 3.94 5.57c.62.9 1.22 1.87 1.9 2.73l.07.12c.12.17 1.08.15 1.2 0l4.05-4.05 2.81-2.81c.4-.4.87-.8 1.25-1.25.2-.26.38-.58.55-.86l.53-.82c.36-.53.74-1.06 1.15-1.58a24.93 24.93 0 0 1 2.09-2.4 11.28 11.28 0 0 1 3.74-2.6 4.57 4.57 0 0 1 1.18-.28c.07 0 .24 0 .1-.03.4.05.81.15 1.2.31a5.18 5.18 0 0 1 2.1 1.83 8.8 8.8 0 0 1 1.45 5.93c-.27 2.37-1.49 4.48-2.43 6.64a18.57 18.57 0 0 0-1.53 8.98c.19 2.3.81 4.46 1.44 6.67.62 2.19.91 4.44.86 6.7a24.48 24.48 0 0 1-2.73 10.46 25.25 25.25 0 0 1-3.36 5.14l-.2.21.6.08c.15.04.48.1.58-.03z" />
    <path fill="var(--c, black)"
      d="M42.12 20.88h36.21a3.37 3.37 0 0 1 3.36 3.36v76.18a3.37 3.37 0 0 1-3.36 3.36H42.12a3.37 3.37 0 0 1-3.36-3.36V24.24a3.35 3.35 0 0 1 3.36-3.36z" />
    <path fill="var(--c, black)"
      d="M77.97 103.32H42.04a3.46 3.46 0 0 1-2.06-.53c-.67-.45-.82-1.34-.82-2.09V24.65a3.35 3.35 0 0 1 3.32-3.31h34.56c1.2 0 2.64-.17 3.62.64.74.63.65 1.78.65 2.67V100a3.4 3.4 0 0 1-3.34 3.31c-.14 0 .15.36.17.4.1.13.36.51.55.51a3.45 3.45 0 0 0 3.41-3.4V24.66a4.67 4.67 0 0 0-1.94-3.48 3.97 3.97 0 0 0-2.43-.79H41.52a3.4 3.4 0 0 0-3.17 3.38V99.9a4.65 4.65 0 0 0 2.06 3.58 3.8 3.8 0 0 0 2.3.7H78.7c.15 0-.14-.37-.17-.41-.1-.08-.36-.46-.55-.46z" />
    <path fill="var(--b, white)" d="M78.16 29.98H41.71v59.97h36.45V29.98z" />
    <path fill="var(--c, black)"
      d="M78.48 89.57h-35a14.4 14.4 0 0 0-1.44 0h-.07l.27.19V32.21c0-.77.02-1.56 0-2.33v-.1l-.84.58h34.99c.48.02.96.02 1.41 0h.08l-.27-.17v57.55c0 .77-.02 1.56 0 2.33v.1c0 .43 1.1 0 1.1-.41V32.21c0-.77.03-1.56 0-2.33v-.1c0-.14-.14-.16-.26-.16H46.48c-1.46 0-2.95-.05-4.44 0h-.07c-.26 0-.84.24-.84.57v57.55c0 .77-.02 1.56 0 2.33v.1c0 .14.15.17.27.17h31.96c1.47 0 2.96.04 4.44 0h.08c.28-.03.57-.17.74-.39.17-.21.1-.38-.14-.38zM59.9 99.53a2.76 2.76 0 1 0 0-5.52 2.76 2.76 0 0 0 0 5.52z" />
    <path fill="var(--b, white)"
      d="M62.06 96.77c0 1.03-.6 1.97-1.54 2.4-.84.36-1.7-.1-2.23-.82a2.67 2.67 0 0 1-.19-2.88c.4-.72 1.3-1.41 2.11-1.22 1.1.29 1.83 1.41 1.85 2.52 0 .31 1.2.31 1.2 0A2.95 2.95 0 0 0 61.17 94c-1.32-.43-2.95-.2-3.89.86A2.9 2.9 0 0 0 57 98.3c.76 1.2 2.28 1.59 3.62 1.37a3.03 3.03 0 0 0 2.64-2.9c0-.29-1.2-.31-1.2 0zm1.46-70.2a.86.86 0 1 0 0-1.73.86.86 0 0 0 0 1.73zm-9.84-.43 4.44.07h.65a.7.7 0 0 0 .67-.48c.08-.29-.19-.46-.45-.46l-4.44-.07h-.65a.7.7 0 0 0-.67.48c-.05.29.21.46.45.46zM31.9 56.04s12.48 2.71 13.23-3.31c.93-7.46-9.32-10.22-14.74-6.46" />
    <path fill="var(--c, black)"
      d="M31.94 56.57a27.57 27.57 0 0 0 4.2.55c1.2.1 2.4.07 3.6-.02a9.4 9.4 0 0 0 3.4-.87c.97-.48 1.8-1.2 2.2-2.2.5-1.28.4-2.81.02-4.1-.84-2.8-3.36-4.64-6.08-5.4a11.46 11.46 0 0 0-8.4.74 9.23 9.23 0 0 0-.9.55c-.44.3.3 1.25.76.93a10.28 10.28 0 0 1 7.63-1.41 9.5 9.5 0 0 1 3.6 1.41 5.87 5.87 0 0 1 2.23 2.6c-.02-.08.03.1.05.1.03.06.05.13.1.2l.14.46c.07.3.15.6.17.92a6.26 6.26 0 0 1-.1 1.9 3.49 3.49 0 0 1-1.68 2.13c-.86.53-1.99.79-3.02.93-1.15.15-2.28.17-3.43.1a30.96 30.96 0 0 1-3-.29l-.58-.1-.12-.02h-.02l-.22-.05-.55-.1-.07-.02c-.72-.14-.41.92.1 1.01l-.03.05z" />
    <path fill="var(--b, white)" d="M31.12 68.69s9.03 4.51 13.85-.75c4.83-5.25-7.87-12.28-16.8-7.27" />
    <path fill="var(--c, black)"
      d="M30.93 69.03a19.7 19.7 0 0 0 4.92 1.6c2.9.58 6.17.43 8.6-1.44.98-.76 1.87-1.77 2.06-3.02a4.12 4.12 0 0 0-.77-2.93c-1.56-2.28-4.37-3.6-6.98-4.25-3.27-.79-6.8-.65-9.9.72a18 18 0 0 0-1.17.6c-.24.15 0 .5.15.63a.7.7 0 0 0 .76.12 14.14 14.14 0 0 1 9.12-1.44c1.35.21 2.67.64 3.9 1.22.54.26 1.05.58 1.53.91.45.32.86.7 1.22 1.1a3.73 3.73 0 0 1 1.06 2.38 3.6 3.6 0 0 1-1.25 2.64c-2.06 2.04-5.02 2.43-7.8 2.04a17.66 17.66 0 0 1-3.36-.84l-1.15-.43-.22-.1c-.1-.04.15.05.05.03l-.1-.05-.24-.12-.1-.05c-.18-.1-.57-.19-.71.05-.15.24.19.53.38.62z" />
    <path fill="var(--c, black)"
      d="M36.43 58.9a5.17 5.17 0 0 0 .48 6.33c1.56 1.73 4.41 1.9 6.45.96.9-.4 1.95-1.12 2-2.2a.51.51 0 0 0-.48-.56c-.24-.02-.68.12-.7.44l-.02.24-.03.1c-.02.06.05-.13 0 0-.02.06-.07.14-.12.23-.02.03-.02.05-.05.07.08-.1-.04.05-.04.08-.05.07-.12.12-.17.16 0 0-.15.12-.05.05l-.12.1c-.17.12-.34.21-.5.3-.17.1.1-.04-.08.03l-.16.08-.3.12a2.66 2.66 0 0 1-.62.16 4.92 4.92 0 0 1-1.32.12c-.9 0-1.8-.3-2.5-.88a4.45 4.45 0 0 1-1.36-3.41c.02-.48.14-.99.34-1.42l.21-.45c.03-.05.22-.3.03-.05.5-.6-.5-1.13-.9-.6zm-1.08-13.8a5.37 5.37 0 0 0-.43 4.24c.52 1.4 1.84 2.24 3.16 2.79 1.4.6 3.05.93 4.5.26a3.4 3.4 0 0 0 2.03-3c0-.17-.38-.31-.5-.36-.05-.02-.6-.21-.6-.12a3.31 3.31 0 0 1-1.42 2.64 4.05 4.05 0 0 1-3.55.46A3.83 3.83 0 0 1 36 49.66a4.66 4.66 0 0 1-.08-2.7c.12-.5.3-.95.53-1.4.07-.13-1-.66-1.1-.46z" />
    <path fill="#002780"
      d="M45.21 35.86h1.68c.05 0 .12 0 .07-.05s-.19-.12-.24-.15a1.52 1.52 0 0 0-.43-.14l-.36-.07h-1.7c-.05 0-.12 0-.07.07.04.07.19.12.24.14.14.08.28.12.43.15.14.02.26.05.38.05zm-.38 2.37h1.7a.49.49 0 0 0 .36-.1.35.35 0 0 0 .12-.33.72.72 0 0 0-.65-.53h-1.7a.49.49 0 0 0-.36.1c-.1.07-.12.2-.12.31.07.29.34.5.65.55zm54.77-.96H54.3c-.9 0-1.62.72-1.62 1.63v31.73l-.1 4.03a1.62 1.62 0 0 0 1.58 1.68c.34 0 .68-.1.96-.29l8.1-5.44H99.6c.9 0 1.63-.72 1.63-1.64V38.9c0-.9-.72-1.63-1.63-1.63z" />
    <path fill="#002780"
      d="M54.16 76.46a1.77 1.77 0 0 1-1.22-.55 1.85 1.85 0 0 1-.48-1.25l.1-4.03V38.9c0-.98.76-1.75 1.75-1.75H99.6c.98 0 1.75.77 1.75 1.75v30.07c0 .99-.77 1.76-1.75 1.76H63.26l-8.06 5.42a1.8 1.8 0 0 1-1.04.31zm.15-39.07a1.5 1.5 0 0 0-1.51 1.51v31.73l-.1 4.03c0 .41.14.8.4 1.08.27.3.66.46 1.06.48.32 0 .63-.1.9-.26l8.1-5.47H99.6a1.5 1.5 0 0 0 1.5-1.51V38.9a1.5 1.5 0 0 0-1.5-1.5H54.3z" />
    <path fill="var(--c, black)"
      d="M64.5 51.77S77.24 40.06 78 40.49c.76.43 11.23 11.73 11.23 11.73l-12.36 8.64-12.36-9.1z" />
    <path fill="var(--c, black)"
      d="M64.92 52.2a274.53 274.53 0 0 1 3.9-3.55c2.26-2.02 4.54-4.03 6.9-5.93A14.19 14.19 0 0 1 78 41.06c.1-.04.19-.1.28-.12-.04.03.05 0 .05 0s-.14-.07-.07-.02c-.07-.05-.07-.05.02.02.15.12-.07-.07.05.05l.39.36.5.5.05.05.14.15.34.33c.48.48.96.96 1.41 1.47a431.7 431.7 0 0 1 3.27 3.45c1.56 1.66 3.07 3.34 4.63 4.97l.07.1-.31-.53-4.2 2.88-6.67 4.66-1.54 1.05.2.07-4.18-3.1-6.65-4.89-1.51-1.1c-.17-.12-.24-.05-.15.14.15.24.34.46.58.63l4.18 3.07 6.64 4.9 1.52 1.12c.02.03.14.1.19.07l4.17-2.92 6.68-4.66 1.53-1.06c.12-.07-.29-.5-.31-.52a339.23 339.23 0 0 0-4-4.3c-2.05-2.18-4.09-4.4-6.22-6.5-.3-.3-.58-.56-.87-.82-.17-.14-.45-.48-.7-.46a1.7 1.7 0 0 0-.69.34c-.38.24-.74.53-1.13.8-2.35 1.82-4.58 3.8-6.81 5.78-1.04.93-2.07 1.84-3.1 2.78-.55.5-1.15.98-1.66 1.51l-.07.07c-.1.08.72.96.87.82z" />
    <path fill="var(--b, white)"
      d="m64.5 51.77 12.34 9.1s12.12-8.84 12.36-8.65c.24.2-.1 14.57-.26 14.74-.17.17-24.72-.46-24.72-.46l.29-14.73z" />
    <path fill="var(--c, black)"
      d="m64.1 52.17 4.18 3.08 6.64 4.9 1.52 1.1c.21.14.5.12.72-.03l3.38-2.44a280.55 280.55 0 0 1 6.12-4.35 70.94 70.94 0 0 1 2.2-1.49c.13-.07.22-.14.34-.19a.53.53 0 0 0 .12-.07c.12-.07-.16.05-.02.02.14-.02-.02 0-.1.03a.52.52 0 0 1-.52-.27c.04.1 0-.14 0-.05 0 .05 0 .08.02.12.07.7.05 1.4.05 2.1 0 1.17-.03 2.32-.03 3.5-.04 2.4-.1 4.8-.21 7.2-.03.38-.03.74-.05 1.12l-.02.36v.12c0-.12.04-.1 0-.02-.05.07-.03.02.04-.07a.94.94 0 0 1 .48-.31h-.24c-.12 0-.07 0 0 0h-.33c-1.68 0-3.36-.03-5.07-.05l-7.53-.15c-2.4-.04-4.78-.12-7.18-.16-1.34-.03-2.69-.08-4.03-.1h-.2l.46.43.1-4.99.12-8 .02-1.82c.03-.67-1.17-.48-1.17.15l-.1 5-.14 7.93-.03 1.83c.03.24.22.4.46.43l2.95.07 6.91.17a850.8 850.8 0 0 0 7.83.17c1.92.02 3.86.07 5.78.07.43.02.89 0 1.32-.02.7-.1.67-.72.7-1.28.14-2.18.17-4.36.21-6.57.05-2.23.12-4.47.05-6.7 0-.24-.02-.45-.05-.7a.59.59 0 0 0-.62-.52.63.63 0 0 0-.22.05c-.52.19-1.05.6-1.5.9-2.02 1.35-3.97 2.77-5.94 4.18-1.58 1.16-3.16 2.28-4.75 3.44l-.26.19.72-.02-4.18-3.08-6.65-4.9-1.5-1.1c-.49-.4-1.38.36-.8.8z" />
    <path fill="var(--b, white)" d="M67.1 53.71s-.12-6.12-1.68-9.5l22.44.36-2.5 10.22-8.54 6.07-9.72-7.15z" />
    <path fill="var(--c, black)"
      d="M67.65 53.78a31.46 31.46 0 0 0-.86-7 16.7 16.7 0 0 0-.87-2.62l-.28.5 2.23.03 5.37.1 6.48.09 5.6.1c.9.02 1.82.1 2.73.04h.05l-.77-.67-.84 3.46-1.34 5.5-.31 1.27.12-.2-2.88 2.07-4.59 3.29-1.05.74.76.12-3.28-2.42-5.26-3.87-1.2-.89c-.22-.14-.55-.3-.77-.12-.21.2-.1.5.1.65l3.26 2.43 5.26 3.86 1.2.89c.21.17.53.31.79.12l2.9-2.07 4.59-3.3c.33-.25.72-.46 1-.73.22-.19.25-.7.32-.96l1.27-5.23.65-2.66c.12-.48.26-.99.36-1.47 0-.02 0-.05.02-.07.1-.4-.48-.67-.77-.67l-2.23-.03-5.37-.1-6.48-.09-5.6-.1c-.9-.02-1.82-.09-2.73-.04h-.05a.33.33 0 0 0-.34.33c0 .05.03.12.05.17.67 1.44.99 3.05 1.23 4.61a44.7 44.7 0 0 1 .43 4.78c0 .5 1.13.84 1.1.16z" />
    <path fill="var(--c, black)"
      d="M66.38 65.14c.2-.34.4-.68.67-.96l1.44-1.88a584.59 584.59 0 0 1 3.17-4l.72-.92c.02-.04-.53-.21-.58-.21-.1-.03-.52-.17-.6-.07-1.75 2.18-3.5 4.36-5.18 6.6-.26.36-.65.74-.82 1.15-.02.05 1.08.45 1.18.29zm14.3-7.44 5.04 5.59.72.79a.94.94 0 0 0 .8.22c.16-.03.45-.17.26-.36l-5.04-5.6-.72-.79a.94.94 0 0 0-.8-.21c-.16.02-.42.16-.26.36zm-9.02-7.2c-.7.02-1.44.19-1.7.9-.24.63.12 1.3.67 1.62.65.36 1.65.3 2.33.1.57-.2 1.36-.87 1.2-1.6a.67.67 0 0 0-.6-.47c-.36-.07-1.01-.1-1.35.14-.53.41-.02 1.27.36 1.56.6.46 1.47.46 2.16.36a2.85 2.85 0 0 0 1.8-1 5.59 5.59 0 0 0 1.3-3.17c.02-.34.05-.65-.31-.77a2.38 2.38 0 0 0-1.3 0c-.34.1-.6.31-.74.62a3.5 3.5 0 0 0-.44 2.09c.07.67.39 1.27.94 1.68a3.2 3.2 0 0 0 1.92.48c.62-.02 1.34-.1 1.82-.55.41-.39.68-1.23 0-1.51a2.42 2.42 0 0 0-1.36-.05 1 1 0 0 0-.75.43c-.43.77.34 1.49 1.01 1.68.89.22 1.82.2 2.66-.12a2.12 2.12 0 0 0 1.42-1.46c0-.05-1.15-.2-1.2.02-.1.43-.36.82-.72 1.08a3.7 3.7 0 0 1-.55.31l-.27.07-.12.03c.05 0 .17.02.08 0a2.3 2.3 0 0 1-.68-.27 1.03 1.03 0 0 1-.43-.57 1.2 1.2 0 0 1-.02-.65c.02-.1.1-.2.14-.26.05-.08.22-.12.26-.17l-.26.02c-.29-.02-.36-.02-.21.05l.1.07c.06.07.14.2.14.29a.97.97 0 0 1-.12.67c-.22.41-.56.53-.94.72-.12.05.2.03.14 0-.04-.02-.19-.02-.26-.05a2.07 2.07 0 0 1-1.34-1.3 3.29 3.29 0 0 1 .28-2.75c.08-.12.15-.24.24-.34a.64.64 0 0 0 .15-.12h-.34c-.31-.05-.4-.05-.29 0 .03.03.1.07.12.1l.08.17c.02.14.02.28 0 .43a5.9 5.9 0 0 1-.36 1.56c-.34.91-.94 1.9-1.85 2.35-.1.05-.22.07-.31.12-.17.07.36.07.21 0-.05-.02-.1-.02-.14-.05a1.9 1.9 0 0 1-.55-.33 1.2 1.2 0 0 1-.41-1.1c0-.06.02-.13.05-.18.16-.16.1-.19-.27-.1-.34-.04-.43-.04-.31.03.02.05.1.07.12.12.05.07.07.12.1.22a1 1 0 0 1-.22.81 1.9 1.9 0 0 1-.6.56c-.12.07-.26.12-.39.14h.17c.2 0 .24 0 .1-.02-.05-.05-.15-.05-.22-.1a1.3 1.3 0 0 1-.74-1.18c0-.38.2-.72.5-.93l.15-.1c.12-.07.3-.05-.05-.05.07 0 .6 0 .6-.12s-.55-.16-.6-.16zm2.9 6.14a2.33 2.33 0 0 0 2.21-.82c.22-.26.34-.6.36-.93.03-.36-.02-.77-.45-.84a1.23 1.23 0 0 0-1.28.67 3.5 3.5 0 0 0-.24 1.1c-.02.36-.04.82.17 1.1.22.25.5.42.82.49a2.26 2.26 0 0 0 1.49.02 1.36 1.36 0 0 0 .96-.91c.07-.26-.39-.26-.5-.24-.25.05-.58.17-.63.43 0 .03-.03.05-.03.07-.02.08 0 0-.02.05.07-.05 0 0-.02 0 .04-.02.1-.02.02-.02 0 0 .12-.03.05 0s.02 0 .02 0h-.12a2 2 0 0 1-.36-.1 1.5 1.5 0 0 1-.53-.24.67.67 0 0 1-.16-.55c0-.48.07-.94.21-1.4 0 0-.6.2-.6.15l.03.1c.02.1.02.19.02.26 0 .2-.05.39-.14.55a.61.61 0 0 1-.2.24s-.07.05-.02.03l-.05.02-.05.05c.05-.02.05-.02 0 0 0 0-.1.05-.02 0 .07-.05-.02 0-.05 0-.05.02.03 0 .05 0l-.1.02c-.1.03-.02 0 0 0h-.1l-.11-.02a.95.95 0 0 0-.82.26c-.12.22-.07.41.2.46zm4.4-.74v.28c0 .03.02.08.04.08a.53.53 0 0 0 .12.07l.12.02c.1.03.2.03.32.03h.19c.07 0 .12-.03.17-.03h.02c.05 0 .1-.02.14-.05l.12-.04s.03 0 .03-.03c.02-.02.05-.02.07-.05l.02-.02c.03-.02.03-.05.03-.07v-.07c0-.03-.03-.05-.03-.08l-.02-.04-.07-.05-.1-.05c-.05-.02-.1-.02-.12-.02l-.14-.03h-.34l-.14.03-.24.07-.07.05v.02c-.03.02-.03.05 0 .07 0 .05.04.07.07.07.05.03.1.05.14.05.07.03.15.03.22.03h.17c.1 0 .19-.03.28-.05l.12-.03c.05-.02.12-.04.15-.1l-.05.06-.1.04-.14.1-.14.02h-.34l-.14-.02-.12-.02-.1-.05h.02l-.04-.05.04.05-.02-.05v.05l.02-.05a.05.05 0 0 1-.04.05l.04-.05-.04.02.1-.04-.03.02.12-.02h-.05l.14-.03h-.02.17-.03l.6.2v-.3c0-.02-.02-.07-.04-.07a.53.53 0 0 0-.12-.07l-.2-.05c-.07-.02-.16-.02-.24-.02h-.16c-.1 0-.17.02-.27.05l-.1.05c-.04.02-.07.04-.07.1l.08.02zm19.36-10.23a6.36 6.36 0 1 0 0-12.72 6.36 6.36 0 0 0 0 12.72z" />
    <path fill="var(--c, black)"
      d="M104.06 40.37a6.07 6.07 0 0 1-4.97 4.68 5.83 5.83 0 0 1-6-2.9 5.83 5.83 0 0 1 .94-6.68 6.04 6.04 0 0 1 6.62-1.49 5.53 5.53 0 0 1 3.41 6.39c-.12.55.8 1.17.94.45a7.2 7.2 0 0 0-3.17-7.34 6.79 6.79 0 0 0-7.85.38 6.89 6.89 0 0 0-2.11 7.66 7.1 7.1 0 0 0 6.5 4.7 6.74 6.74 0 0 0 4.23-1.46 6.9 6.9 0 0 0 2.4-3.96c.14-.53-.77-1.15-.94-.43z" />
    <path fill="var(--b, white)"
      d="M97.63 37.75a3.92 3.92 0 0 1 1.27-.5l-.62-.8a43.45 43.45 0 0 1-.24 5 .94.94 0 0 0 .3.76c.13.12.46.27.49-.02.19-1.73.26-3.48.26-5.2 0-.25-.29-.87-.62-.8a4.59 4.59 0 0 0-1.44.55c-.39.2.21 1.25.6 1.01z" />
    <path fill="var(--b, white)"
      d="M97.46 42.67c.72.1 1.42.22 2.14.36.07.03.07-.1.04-.14a.85.85 0 0 0-.19-.31 1.08 1.08 0 0 0-.57-.46 30.48 30.48 0 0 0-2.14-.36c-.2-.02.12.4.12.46.1.12.22.24.34.33a.89.89 0 0 0 .26.12zm-6.65-31.26-4.88 8.71 12.04 6.75 4.88-8.71L90.8 11.4z" />
    <path fill="#002780"
      d="m98.4 26.83-4.08-2.28-6.48-3.65-1.5-.84.15.17 4.27-7.63.6-1.08-1.03-.07 4.08 2.28 6.48 3.65 1.49.84-.14-.17-4.25 7.63-.6 1.08c-.07.14 1 .53 1.17.24l4.28-7.63.6-1.08c.02-.05-.12-.15-.15-.17l-4.08-2.28-6.48-3.65-1.49-.84c-.19-.1-.88-.33-1.03-.07l-4.27 7.63-.6 1.08c-.02.05.12.15.14.17l4.08 2.28 6.48 3.65 1.5.84c.26.14.54.19.83.17.2-.05.24-.17.03-.27z" />
    <path fill="var(--b, white)"
      d="M90.9 11.86c1.4 1.82 1.64 4.32 2.91 6.24a.76.76 0 0 0 .34.33c.14.05.31.07.48.05l7.56-.53" />
    <path fill="#002780"
      d="M90.62 12.12c1.1 1.49 1.44 3.38 2.2 5.04.2.46.46.89.75 1.27.39.48.84.6 1.44.55l3.48-.24 3.89-.28c.65-.05.12-1.08-.38-1.04l-6.56.46-.76.05-.34.02h-.17c.03.03.07.05.03 0a9.58 9.58 0 0 1-.63-1.13c-.36-.81-.62-1.65-.93-2.47a10.8 10.8 0 0 0-1.44-2.76c-.15-.19-.48-.36-.7-.19-.22.17-.02.55.12.72z" />
    <path fill="var(--b, white)" d="M86.18 19.46a43.85 43.85 0 0 1 6.24-3.67l-6.24 3.67z" />
    <path fill="#002780"
      d="M86.64 19.85c.96-.72 1.99-1.37 3.04-1.97a81.89 81.89 0 0 1 3.2-1.73c.24-.12 0-.48-.15-.57-.19-.2-.48-.27-.74-.2a58.77 58.77 0 0 0-3.2 1.73 24.38 24.38 0 0 0-3.04 1.97c-.4.34.53 1.03.89.77z" />
    <path fill="var(--b, white)" d="M97.6 19a204.88 204.88 0 0 1-.19 6.66l.2-6.65z" />
    <path fill="#002780"
      d="M97.32 18.5c-.03 2.24-.1 4.44-.2 6.65 0 .2.22.5.32.67.02.05.26.39.26.34.1-2.2.17-4.44.2-6.65 0-.21-.22-.5-.32-.67-.02-.07-.26-.38-.26-.34z" />
    <path fill="var(--b, white)" d="m15.53 82.06-5.47 8.35 11.54 7.56 5.47-8.35-11.54-7.56z" />
    <path fill="#002780"
      d="m21.3 97.56-3.9-2.57-6.22-4.08-1.44-.93.72.86 4.8-7.32.67-1.03-.1-.03 3.92 2.57 6.21 4.08 1.42.94-.72-.87-4.8 7.32-.67 1.04c-.12.19.77.93.81.88l4.8-7.32.68-1.03c.04-.1-.2-.36-.22-.38a2.28 2.28 0 0 0-.5-.46l-3.9-2.59-6.2-4.08-1.45-.94c-.02-.02-.05-.02-.1-.02l-4.8 7.34-.67 1.04c-.04.1.2.36.22.38.14.17.31.34.5.46l3.9 2.56 6.2 4.08 1.45.94c.21.14-.03-.22-.05-.24a1.88 1.88 0 0 0-.55-.6z" />
    <path fill="var(--b, white)"
      d="M15.62 82.51c1.27 1.92 1.32 4.42 2.47 6.41a.9.9 0 0 0 .31.36c.15.07.32.1.48.1h7.56" />
    <path fill="#002780"
      d="M15.1 82.54c1.05 1.63 1.26 3.62 1.96 5.4.14.45.38.88.65 1.27.38.48.96.55 1.53.55h7.4c.21 0 .45-.14.33-.38s-.5-.36-.74-.36h-7.66l.15.07-.05-.07c-.07-.2-.2-.39-.29-.58-.1-.22-.2-.4-.26-.62-.32-.84-.53-1.7-.8-2.55a11.58 11.58 0 0 0-1.15-2.76.84.84 0 0 0-.74-.36c-.2 0-.5.15-.34.39z" />
    <path fill="var(--b, white)" d="M10.39 89.78a48.01 48.01 0 0 1 6.48-3.24l-6.48 3.24z" />
    <path fill="#002780"
      d="M10.68 90.29c1-.65 2.06-1.25 3.16-1.73a51.5 51.5 0 0 1 3.32-1.49c.19-.07-.34-1.15-.6-1.03-1.13.46-2.24.96-3.32 1.49a25.21 25.21 0 0 0-3.16 1.73c-.22.14.43 1.17.6 1.03z" />
    <path fill="var(--b, white)" d="M21.81 90.12a309.1 309.1 0 0 1-.65 6.62l.65-6.62z" />
    <path fill="#002780"
      d="M21.24 90.22a309.1 309.1 0 0 1-.65 6.62c-.05.38 1.1.12 1.15-.22.26-2.2.48-4.41.65-6.62.02-.38-1.13-.12-1.15.22z" />
    <path fill="var(--b, white)" d="m106.86 76.3-8.97 5.62 4.07 6.5 8.97-5.63-4.07-6.49z" />
    <path fill="#002780"
      d="m110.5 82.42-3.03 1.9-4.83 3.02-1.12.7.86.69-3.58-5.69-.5-.8.02.1 3.03-1.9 4.82-3.02 1.13-.7-.86-.69 3.57 5.69.5.8c.17.2.37.42.6.57.05.05.39.24.25.05l-3.58-5.72-.48-.79a2.27 2.27 0 0 0-.48-.48c-.07-.05-.31-.29-.38-.21l-3.03 1.9-4.82 3.02-1.1.7c0 .02 0 .06.02.09l3.57 5.69.5.79c.15.19.3.33.49.48.07.05.31.26.38.21l3.03-1.9 4.82-3.02 1.13-.7c0-.02-.75-.93-.94-.78z" />
    <path fill="var(--b, white)"
      d="M98.25 82.03c1.75-.26 3.5.48 5.26.34a1 1 0 0 0 .36-.1.73.73 0 0 0 .21-.3l2.43-5.29" />
    <path fill="#002780"
      d="M98.23 82.49c1-.14 2.01.07 3.02.22.48.07.96.12 1.44.14.53.02 1.15.05 1.59-.29.38-.31.55-.91.74-1.32l.67-1.44 1.4-3.02c.11-.27-.15-.48-.39-.5a.73.73 0 0 0-.74.38l-1.23 2.69-.62 1.34c-.05.12-.63 1.3-.6 1.32.19-.07.21-.1.12-.07-.05 0-.1 0-.15.02h-.33l-.63-.02c-.48-.05-.96-.12-1.44-.2a9.7 9.7 0 0 0-2.76-.11c-.26.04-.6.21-.62.5-.02.29.26.38.53.36z" />
    <path fill="var(--b, white)" d="M101.64 88a32.95 32.95 0 0 1-.17-5.53l.17 5.54z" />
    <path fill="#002780"
      d="M102.19 88.18a21.34 21.34 0 0 1-.2-2.76 35.9 35.9 0 0 1 .03-2.79c.02-.43-1.1-.84-1.1-.36-.03.94-.05 1.85-.03 2.79 0 .93.05 1.84.2 2.78a.77.77 0 0 0 .55.53c.12.05.57.1.55-.2z" />
    <path fill="var(--b, white)" d="M105.5 80.16c1.49.84 2.95 1.7 4.4 2.57l-4.4-2.57z" />
    <path fill="#002780"
      d="M105.43 80.28c1.49.84 2.95 1.7 4.39 2.57.07.05.5.31.6.17.1-.15-.38-.41-.43-.44-1.47-.88-2.93-1.72-4.4-2.56-.07-.05-.5-.32-.6-.17-.09.14.39.4.44.43z" />
    <path fill="var(--b, white)" d="M37.3 10.51h-9.97v7.2h9.96v-7.2z" />
    <path fill="#002780"
      d="M36.84 17.45h-9.96l1 .5v-7.2l-.1.03h9.97l-1.01-.5v7.2c0 .16.38.3.5.35.05.03.6.22.6.12v-7.2c0-.12-.26-.24-.36-.29a1.48 1.48 0 0 0-.64-.21h-9.96c-.03 0-.08 0-.1.02v7.2c0 .12.26.24.36.29.2.12.4.2.65.22h9.96c.24 0-.07-.22-.12-.24a1.77 1.77 0 0 0-.8-.3z" />
    <path fill="var(--b, white)"
      d="M27.55 10.75c1.51.65 2.54 2.14 4.03 2.9a.55.55 0 0 0 .34.1.63.63 0 0 0 .3-.14l4.57-3" />
    <path fill="#002780"
      d="M27.26 11.11c.77.34 1.4.91 2.02 1.47.62.55 1.36 1.27 2.2 1.5.6.2 1.06-.11 1.52-.42l1.39-.92 2.83-1.84a.34.34 0 0 0 .12-.44.29.29 0 0 0-.12-.12.81.81 0 0 0-.84.03l-2.57 1.68-1.3.84-.64.43-.12.07c.31.03.4.03.26-.02-.07-.05-.14-.1-.24-.12-1.39-.82-2.4-2.16-3.89-2.83a.74.74 0 0 0-.81.16c-.22.22-.03.41.19.53z" />
    <path fill="var(--b, white)" d="M27.26 17.2c.5-1.22 1.9-3.4 2.62-4.5l-2.62 4.5z" />
    <path fill="#002780"
      d="M27.84 17.04c.36-.8.76-1.58 1.22-2.33.43-.74.91-1.46 1.4-2.18.04-.1-.42.02-.44.05l-.43.14a.75.75 0 0 0-.24.12c-.5.72-.96 1.46-1.42 2.23a21.16 21.16 0 0 0-1.22 2.3c.19-.02.4-.04.6-.09.12-.05.45-.1.53-.24z" />
    <path fill="var(--b, white)" d="M34.27 12.89c.77 1.41 1.49 2.83 2.23 4.25l-2.23-4.25z" />
    <path fill="#002780"
      d="M33.74 12.82c.77 1.41 1.49 2.83 2.23 4.25.12.24.48.36.72.38.17.02.46-.02.34-.24a143.66 143.66 0 0 0-2.21-4.27 1.02 1.02 0 0 0-.72-.39c-.17 0-.46.03-.36.27z" />
  </g>
</svg>
