<svg xmlns="http://www.w3.org/2000/svg" fill="none" viewBox="0 0 120 120">
  <g id="doc">
    <path fill="var(--c, black)"
      d="M20.71 29.98c-1.05-2.43-2.08-4.95-2.2-7.64-.1-2.18.45-4.58 2.04-6.19a6.22 6.22 0 0 1 5.64-1.73c2.04.44 3.62 1.97 4.8 3.6.67.99 1.3 2.04 1.8 3.12a24.8 24.8 0 0 1 1.65 4.06c.15.53 1.32.31 1.15-.29a22.78 22.78 0 0 0-1.58-3.89A26.77 26.77 0 0 0 32.33 18c-1.25-1.87-2.9-3.58-5.11-4.25a7.77 7.77 0 0 0-6.82 1.18c-1.97 1.46-2.93 3.89-3.07 6.29-.2 3.16 1 6.19 2.26 9.05.21.5 1.39.28 1.12-.3z" />
    <path fill="var(--b, white)"
      d="M41.9 21.58s7.88 15.96 9.17 24.7c1.3 8.73-11.88 10.8-18.21 11.7-6.34.92-16.8-18.79-16.95-20.18-.14-1.4.7-5.78 1.8-6.94 1.1-1.15 24.2-9.28 24.2-9.28z" />
    <path fill="var(--c, black)"
      d="M41.33 21.67c.38.77.72 1.51 1.08 2.28a151.7 151.7 0 0 1 2.54 5.69 151.75 151.75 0 0 1 2.93 7.37 64.38 64.38 0 0 1 2.23 7.32c.29 1.05.46 2.13.48 3.24a6.5 6.5 0 0 1-.67 2.83c-.89 1.78-2.54 3.02-4.25 3.94a27.28 27.28 0 0 1-6.33 2.25 70.2 70.2 0 0 1-6.05 1.13l-.63.1c-.16.02.1 0-.07 0h-.19c.07 0-.1 0-.14-.03l-.1-.02c-.12 0 .07.02-.02 0a3.74 3.74 0 0 1-.48-.12c-.1-.03.07.02-.03 0l-.14-.05a.82.82 0 0 1-.24-.1l-.5-.21a9.85 9.85 0 0 1-.94-.58 21.98 21.98 0 0 1-4.1-3.93 56.2 56.2 0 0 1-3.92-5.33 77.4 77.4 0 0 1-3.14-5.23c-.67-1.2-1.3-2.4-1.85-3.68a4.33 4.33 0 0 1-.2-.5c.03.07-.02-.07-.02-.12-.02-.07-.02-.14-.02-.22-.05-1.08.17-2.2.4-3.26.25-1.1.54-2.33 1.2-3.26a.97.97 0 0 1 .32-.32c.02 0 .07-.04 0 0l.1-.04.24-.12c1.12-.58 2.3-1.04 3.48-1.5a201.53 201.53 0 0 1 5.3-2.03c1.94-.72 3.94-1.47 5.86-2.16l5.18-1.87c1.06-.39 2.11-.77 3.2-1.13l.42-.17c.17-.05.41-.2.22-.36a.97.97 0 0 0-.82-.07l-1.8.65-4.48 1.6-5.93 2.16c-1.95.72-3.89 1.44-5.83 2.21a92.3 92.3 0 0 0-4.5 1.83c-.45.19-.88.4-1.31.62a2.15 2.15 0 0 0-.96.89c-.6 1.05-.91 2.3-1.15 3.48-.12.6-.22 1.2-.3 1.82a5.23 5.23 0 0 0-.04 1.23c.07.3.2.62.34.9.24.56.5 1.11.76 1.64a62.3 62.3 0 0 0 2.7 4.78 71.76 71.76 0 0 0 3.69 5.54 34.99 34.99 0 0 0 4.2 4.82c1.2 1.1 2.59 2.19 4.2 2.6a5.97 5.97 0 0 0 2.35.02c.98-.14 1.97-.29 2.95-.48a43 43 0 0 0 6.72-1.68 17.46 17.46 0 0 0 5.86-3.12 7.28 7.28 0 0 0 2.61-5.16c.05-1.1-.19-2.18-.43-3.26a49.9 49.9 0 0 0-.96-3.6 98.15 98.15 0 0 0-2.73-7.66 172.88 172.88 0 0 0-2.9-6.86 138.06 138.06 0 0 0-2-4.28l-.29-.57c-.1-.34-1.27-.22-1.1.14z" />
    <path fill="var(--c, black)"
      d="M39.62 44.64s-2.54-5.16-2.56-5.9c-.03-.75.6-3.84-1.88-4.7-2.47-.87-4.87.33-3.93 2.87.93 2.55 3.26 2 4.3 3.05 1.03 1.06 1.87 5.06 2.56 5.54.7.48 1.87-.1 1.51-.86z" />
    <path fill="var(--c, black)"
      d="M40.17 44.78c-.79-1.63-1.6-3.26-2.25-4.94a2.9 2.9 0 0 1-.29-.91c-.02-.36.05-.72.05-1.08.02-1.1-.14-2.33-.98-3.12a4.87 4.87 0 0 0-2.26-1.03 5.02 5.02 0 0 0-2.23-.05c-.6.12-1.1.48-1.47.98-.3.6-.36 1.3-.14 1.92a3.37 3.37 0 0 0 1.2 1.78 5.79 5.79 0 0 0 1.82.86c.27.1.53.17.82.27h-.02l.1.04c.09.03-.03-.02.06.03l.24.14c.41.3.65.82.84 1.25.53 1.18.87 2.45 1.4 3.65.21.46.4.8.86 1 .62.3 1.6.54 2.14-.06.21-.15.24-.46.12-.72-.08-.17-.5-.24-.68-.3-.04-.02-.5-.11-.45 0a.63.63 0 0 1-.17.75c-.12.1-.24.17-.38.22l-.2.04h-.1c-.14.05.42.08.42.15 0-.03-.22-.26-.24-.34a3.62 3.62 0 0 1-.3-.62c-.45-1.13-.78-2.28-1.26-3.39a3.42 3.42 0 0 0-.77-1.22 3.83 3.83 0 0 0-1.5-.77c-.23-.07-.47-.14-.71-.24a2.81 2.81 0 0 1-.58-.21 2.84 2.84 0 0 1-1.2-1.18c-.62-1.13-.67-2.64.6-3.31.99-.53 2.43-.53 3.17.36.67.81.77 1.92.72 2.9-.02.32-.05.65-.05.96.05.29.12.56.24.82.65 1.7 1.47 3.34 2.26 4.97l.05.12c.1.16.5.26.67.3.07 0 .53.1.46-.01zM17.21 31.06c.67 1.34 1.39 2.66 2.11 3.98a192.8 192.8 0 0 0 4.78 8.38c1.58 2.56 3.21 5.2 5.23 7.46a8.76 8.76 0 0 0 3.84 2.5c1.65.48 3.36.7 5.09.6a26.43 26.43 0 0 0 6.96-1.18l.12-.02a.43.43 0 0 0 .33-.5l-.02-.1a.73.73 0 0 0-.8-.3c-.55.2-1.1.32-1.65.46-.29.08-.55.12-.84.2l-.46.1c-.02 0-.12.02-.02 0l-.12.02-.29.04c-.74.12-1.46.22-2.2.3-2.98.26-6.41.04-8.62-2.22a22.63 22.63 0 0 1-2.35-2.9c-.94-1.27-1.78-2.62-2.62-3.96-1.7-2.74-3.31-5.57-4.85-8.4-.84-1.56-1.63-3.14-2.5-4.68l-.04-.07c-.27-.58-1.4-.34-1.08.29zm76.75 71.16-1.87.02s-5.3 2.11-4.83 3.1c.48.98 4.59.79 8.23.62 4.35-.22 3.84-1.2 2.57-3.7l-4.1-.04z" />
    <path fill="var(--c, black)"
      d="M93.5 101.95c-.6 0-1.22-.02-1.82.03a24.94 24.94 0 0 0-3.14 1.42c-.6.33-1.28.69-1.7 1.22-.44.52.19.96.67 1.17.98.46 2.13.5 3.21.53 1.42.05 2.83-.02 4.25-.1 1.15-.04 2.38-.04 3.5-.38.6-.17 1.1-.53 1.06-1.2-.05-.8-.55-1.56-.89-2.26-.12-.26-.65-.4-.91-.4l-4.1-.08c-.22 0-.27.1-.1.24.24.17.5.27.81.3l4.1.06-.9-.4c.3.62.7 1.27.84 1.94a.94.94 0 0 1-.46 1.13c-.72.4-1.68.43-2.5.48a58.6 58.6 0 0 1-4.1.14 13.1 13.1 0 0 1-3.24-.19c.05 0-.14-.02-.17-.05-.1-.02.12.05-.02 0-.03 0-.12-.05.02 0-.07-.02.03.03-.02 0 .05.05-.05-.07-.05-.07a.37.37 0 0 1 .07-.43c.34-.5.99-.84 1.52-1.13.67-.38 1.34-.7 2.03-1 .27-.13.56-.25.85-.37l.24-.1c.07-.02.07 0 0 0 .62-.02 1.22-.02 1.84-.02.27 0-.04-.26-.12-.29a2.58 2.58 0 0 0-.76-.19z" />
    <path fill="var(--b, white)"
      d="M89.04 77.64s4.68 22.73 4.58 23.26c-.1.52-4.68 2.64-4.22 2.9.45.26 1.56.12 4.77-.36 2.98-.43 3.99-.34 4.04-.98.04-.65-1.23-22.18-1.23-22.18l-7.94-2.64z" />
    <path fill="var(--c, black)"
      d="M88.44 77.69c.22 1.1.46 2.18.67 3.26.5 2.45 1.01 4.92 1.49 7.37l1.56 7.8c.29 1.54.65 3.05.84 4.6l.02.18v.04c.03-.07-.07.1-.02.05-.31.34-.82.58-1.2.82l-1.75 1c-.39.22-.94.49-1.2.85-.27.36.38.45.6.48a7.7 7.7 0 0 0 1.73-.05 67.5 67.5 0 0 0 3.07-.43c.96-.15 1.92-.22 2.88-.36.48-.08 1.22-.15 1.56-.58a.72.72 0 0 0 .12-.5c0-.58-.05-1.16-.07-1.73-.12-2.33-.24-4.66-.39-6.99l-.45-8.08-.3-4.95-.02-.24c0-.07-.14-.12-.19-.14l-6.98-2.33-.99-.34a1.14 1.14 0 0 0-.84.1c-.21.12-.19.24.03.31l6.98 2.33.99.34-.2-.15.2 3.43.43 7.56.43 7.61c.05.84.1 1.7.12 2.55l.02.74a.9.9 0 0 1 0 .36l-.04.07c-.05.07 0 0-.03.03s-.1.07-.02.02c-.03 0-.03.02-.05.02-.1.05.1-.02 0 0l-.14.05c.14-.05-.03 0-.08 0l-.19.03c-.12.02-.02 0 0 0l-.17.02c-.98.14-1.99.24-3 .38-1 .15-1.92.3-2.9.39-.14.02-.29.02-.43.05-.15.02.02 0-.07 0h-.39l-.12-.03c.15.03.03 0-.02 0s.1.03 0 0c-.03 0-.05-.05-.07-.05.02 0 .07.05.04.05-.02 0-.04.03.03 0 .07-.02-.03.03 0-.02s.05-.05.07-.07c.07-.08.17-.12.24-.2.48-.3.98-.6 1.49-.88a38.48 38.48 0 0 0 1.68-.99c.24-.14.7-.38.72-.7 0-.38-.07-.74-.17-1.1-.14-.84-.31-1.65-.46-2.47l-1.44-7.34c-.5-2.55-1.03-5.1-1.56-7.63l-.9-4.47-.06-.22c.03-.3-1.15-.14-1.1.15zm-10.3 23.83-1.87.02s-5.3 2.12-4.82 3.1c.48.98 4.58.8 8.23.62 4.34-.21 3.84-1.2 2.57-3.7l-4.1-.04z" />
    <path fill="var(--c, black)"
      d="m78.5 101.14-1.84.02c-.41 0-.9.29-1.28.46-.76.33-1.5.7-2.25 1.1-.68.36-1.42.77-1.92 1.37a.97.97 0 0 0-.34.72c.02.29.31.48.55.57.92.41 2.04.39 3 .41 1.44.03 2.9-.05 4.35-.12 1.12-.05 2.32-.05 3.4-.45.72-.27 1.54-.8 1.5-1.66-.06-.82-.56-1.6-.92-2.3-.02-.05-.1-.08-.14-.08l-4.1-.04c-.3 0-.56.14-.75.33-.1.1-.27.41 0 .43l4.1.08-.14-.08c.31.56.57 1.16.8 1.76.06.19.09.38.06.57a.45.45 0 0 1-.05.2c-.02.09.03-.05-.02.04 0 .03-.05.1.02-.02 0 .02-.04.05-.04.05s.1-.08.02-.03c-.02.03-.1.05.05-.02-.12.07.05 0-.03.02-.02.03-.19.07-.07.03l-.24.07c-.36.1-.72.14-1.08.19-1.15.12-2.33.14-3.48.2-1.1.04-2.2.06-3.33 0-.68-.06-1.5-.06-2.12-.42-.07-.04-.14-.1-.21-.16-.07-.1-.07-.1-.05-.17.02-.07 0 0 0-.03s.05-.12 0-.02l.07-.1c-.07.12.03-.02.08-.07l.04-.05c.08-.07.1-.1.17-.12l.15-.12c-.1.05.07-.04 0 0l.12-.1c.26-.18.55-.33.84-.5.02 0 .1-.04.02 0l.12-.07.26-.14.5-.24a37.5 37.5 0 0 1 .97-.43c.33-.15.65-.3.98-.41l-.36.1 1.87-.03c.3-.02.56-.14.75-.36.07-.07.26-.4-.03-.38z" />
    <path fill="var(--b, white)"
      d="M78.1 75.48s-.2 24.17-.3 24.7c-.09.52-4.67 2.64-4.21 2.9.45.26 1.55.12 4.77-.36 2.98-.43 3.98-.34 4.03-.98.05-.65 3.17-25.18 3.17-25.18l-7.46-1.08z" />
    <path fill="var(--c, black)"
      d="m77.5 75.38-.03 3.7-.07 8.14a985.8 985.8 0 0 1-.1 8.42c0 .98-.02 1.97-.04 2.95 0 .48-.08.96-.05 1.44v.05l.02-.07c.05-.03.07-.17 0 0l-.07.07-.02.02a4.1 4.1 0 0 1-.34.22c-.58.38-1.2.72-1.8 1.06-.55.28-1.06.6-1.56.96a1 1 0 0 0-.46.57c-.04.34.22.55.5.67.49.2 1.06.15 1.57.1.98-.1 1.97-.24 2.97-.38 1.08-.15 2.19-.27 3.3-.44.52-.07 1.17-.14 1.53-.6.26-.33.24-.93.29-1.34l.3-2.54c.34-2.67.68-5.33 1-7.97l1.07-8.52.63-5.04.02-.24c0-.31-.22-.58-.53-.6l-6.5-.96-.94-.15a.54.54 0 0 0-.65.36c-.07.27.08.58.36.65.05.03.1.03.17.03l6.5.96.94.14-.53-.6a1386.35 1386.35 0 0 0-.43 3.48l-1 7.9c-.37 2.8-.7 5.59-1.06 8.4a334.08 334.08 0 0 0-.63 5.13c-.02.12-.04.24-.04.39 0 .07.04-.12 0 0 0-.03.07-.1 0-.03-.03.03.12-.07 0 0-.08.05.12-.05-.03 0-.05.03-.1.03-.14.05-.05.02-.17.05-.05.02-.17.03-.34.08-.5.1-1.08.14-2.16.26-3.22.43-.98.15-1.97.31-2.98.39l-.4.02h-.2c-.16 0 .1.02-.04 0l-.27-.02c-.14-.03.12.02.03 0-.03-.03-.08-.03-.1-.05.22.02.38.5.22.62l.07-.07c.1-.05-.12.07.02-.02l.65-.44c.6-.36 1.22-.7 1.82-1.05a7.61 7.61 0 0 0 1.5-.99c.35-.33.28-.76.3-1.22.03-.82.03-1.6.05-2.42l.1-7.83.07-8.42.05-5.02v-.24a.6.6 0 0 0-.53-.6c-.34-.02-.74.12-.74.43z" />
    <path fill="var(--b, white)"
      d="M77.66 57.62s-4.6 34.68-1.17 39.6c3.43 4.92 9 3.15 10.65-2.78.5-1.82-1.56-14.06-1.56-14.06s.84 14.52 4.73 17.76c3.89 3.24 9.07 2.59 9.89-3.32.81-5.9-4.92-37.8-4.92-37.8l-17.62.6z" />
    <path fill="var(--c, black)"
      d="m77.19 57.26-.3 2.3c-.23 1.98-.47 3.94-.66 5.94a313.36 313.36 0 0 0-.77 8.04c-.24 2.9-.46 5.8-.58 8.7a95.7 95.7 0 0 0-.1 7.88c.08 1.87.15 3.82.7 5.6.27.83.72 1.62 1.32 2.27 1.1 1.27 2.64 2.35 4.35 2.47a5.33 5.33 0 0 0 3.95-1.41 7.85 7.85 0 0 0 1.56-2c.44-.74.77-1.55.96-2.4.17-.83.03-1.77-.02-2.61a81.43 81.43 0 0 0-.48-4.15c-.31-2.28-.65-4.56-1.03-6.84l-.07-.46c-.03-.21-.34-.45-.5-.55-.06-.02-.44-.24-.44-.05.1 1.49.24 3 .43 4.49.36 2.88.84 5.8 1.73 8.6a15 15 0 0 0 1.54 3.57 8.07 8.07 0 0 0 3.16 2.85 6.86 6.86 0 0 0 4.4.9 4.82 4.82 0 0 0 3.33-2.31c1.1-1.85 1.13-3.99 1.01-6.07-.12-2.36-.38-4.7-.67-7.04a490.28 490.28 0 0 0-2.52-17.2l-1.15-6.87c-.22-1.17-.41-2.35-.63-3.5l-.02-.15a1.17 1.17 0 0 0-.87-.7l-5.95.2-9.43.36-2.18.07c-.22 0 .12.43.14.46.17.21.38.33.65.38l5.95-.19 9.48-.31 2.18-.07-.86-.68c.14.8.29 1.56.4 2.36a518.36 518.36 0 0 1 2.34 14.08c.45 2.86.86 5.74 1.24 8.62.34 2.52.63 5.04.84 7.56.12 1.63.32 3.31.12 4.94a6.4 6.4 0 0 1-1.87 4.1 4.68 4.68 0 0 1-3.72 1.16 7.24 7.24 0 0 1-3.84-1.75c-.12-.1.07.07-.02-.03-.05-.04-.07-.1-.12-.12l-.1-.1c.05.06 0-.02-.02-.02l-.07-.1c-.15-.18-.3-.38-.41-.6a9.64 9.64 0 0 1-.77-1.58 35.32 35.32 0 0 1-2.04-8.3 82.72 82.72 0 0 1-.67-5.98l-.03-.3-.93-.6c0 .02 0 .06.02.09.03.02.03.14 0 .05 0 .07.03.12.03.19l.19 1.1.55 3.55c.36 2.57.8 5.16.84 7.76.02.36 0 .72-.05 1.05a7.44 7.44 0 0 1-.86 2.23 6.74 6.74 0 0 1-3.39 3.2c-1.3.5-2.76.36-3.96-.36a5.87 5.87 0 0 1-1.63-1.64c-.14-.19.03.08-.07-.12l-.1-.16-.04-.1c-.05-.1.02.05 0-.02-.03-.08-.05-.15-.1-.22-.6-1.56-.7-3.31-.8-4.97a80.7 80.7 0 0 1 0-7.46c.1-2.83.3-5.67.51-8.52a310.32 310.32 0 0 1 1.47-14.52l.38-3.2.02-.14c.05-.29-.9-.91-.96-.65z" />
    <path fill="var(--c, black)"
      d="m81.77 61.78.5 3.04 1.2 7.32 1.44 8.81 1.25 7.61.4 2.52c.06.4.1.8.2 1.18v.04c.05.3 1.22.22 1.2.03l-.5-3.05-1.2-7.32-1.44-8.8-1.25-7.62-.41-2.52a9.24 9.24 0 0 0-.2-1.17v-.05c-.04-.29-1.22-.22-1.2-.02zm4.58-28.28s-.26-1.44-4.44.75c0 0-22.85 13.73-5.52 25.25l19.97-1.2c15.77 2.5 4.78-19.7-10-24.8z" />
    <path fill="var(--c, black)"
      d="M86.74 33.94a2.08 2.08 0 0 0-.9-1.18c-.5-.34-1.2-.2-1.74-.05a10.88 10.88 0 0 0-3.17 1.47 37.08 37.08 0 0 0-6.12 4.99c-2.38 2.4-4.61 5.37-5.16 8.8a8.89 8.89 0 0 0 .74 5.17c1.01 2.18 2.67 4 4.51 5.5.27.2.53.42.82.62l.43.3c.17.15.34.27.53.37.07.02.14.05.22.02l.98-.05 4.2-.24 11.04-.64 3.29-.2c.36 0 .7.03 1.05.08a11 11 0 0 0 2.81 0 4.72 4.72 0 0 0 3.41-1.83c.72-1.05.89-2.4.77-3.65a14.4 14.4 0 0 0-1.49-4.84 28.05 28.05 0 0 0-3.36-5.33 32.58 32.58 0 0 0-10.56-8.93 19.4 19.4 0 0 0-3-1.27c-.12-.05.14.38.14.4.12.17.32.46.5.53a25.51 25.51 0 0 1 7.02 3.82 35.4 35.4 0 0 1 3.02 2.6 27.27 27.27 0 0 1 2.5 2.75 23.84 23.84 0 0 1 2.01 2.88c.55.94 1.06 1.9 1.47 2.9.67 1.64 1.17 3.49.93 5.26a4.14 4.14 0 0 1-2.4 3.29c-.84.36-1.73.53-2.64.55a11 11 0 0 1-1.77-.07 5.58 5.58 0 0 0-.9-.1c-1.07.03-2.18.12-3.26.2l-6.26.38-6.46.38-3.74.22H76l.1.02a19.82 19.82 0 0 1-2.54-1.94c-.34-.29-.65-.62-.96-.94l-.36-.43a5.39 5.39 0 0 0-.31-.38 8.62 8.62 0 0 1-1.59-3.77c-.4-2.64.5-5.23 1.88-7.44s3.24-4.15 5.2-5.86a37.98 37.98 0 0 1 4.3-3.24c.58-.38 1.2-.7 1.85-.96.67-.28 1.44-.6 2.18-.57.2 0 .36.02.53.1 0 0 .1.07.12.07-.02.02-.34-.39-.38-.48 0 .02-.1-.17-.05-.12.05.04 0-.05 0-.03.07.24.21.46.38.63.05.04.41.36.39.24z" />
    <path fill="var(--c, black)"
      d="M91.27 28.13c.15-7.32-4.63-8.83-7.9-8.74-3.26.1-5.28 1.54-5.73 2.93-.36 1.06 2.66 6.74 2.66 6.74l6.08 4.44c-.03 0 4.77.22 4.9-5.37z" />
    <path fill="var(--b, white)"
      d="M77.5 32.42c-2.19-2.1.43-8.9.43-8.9 1.17-.26 3.07-1.46 3.07-1.46-.46 3.6 3.8 4.44 3.8 4.44.76-1.97 3.06-1.37 3.02.52-.05 1.9-1.88 2.19-1.88 2.19s1.13 4.63.99 5.4c0 0-3 2.28-5.04-.39.02.03-2.9-.36-4.4-1.8z" />
    <path fill="var(--c, black)"
      d="M78.02 32.18c-.98-.96-.9-2.64-.76-3.88.16-1.37.47-2.74.93-4.04l.29-.86-.65.38c1.25-.3 2.43-.96 3.5-1.63l-.9.07a3.67 3.67 0 0 0 1.07 3.15 5.92 5.92 0 0 0 2.86 1.44c.29.05.89-.1 1-.41a2 2 0 0 1 .6-.8c-.04.03-.02.03.03 0-.02.03-.05.03-.1.03h.08c.1 0 .21.03.31.05.6.2.91.77.96 1.37a2.06 2.06 0 0 1-.7 1.77c-.02.03-.07.05-.1.08l-.06.04c.04-.02.07-.02 0 0l-.12.05c.16-.07 0 0-.03 0-.19.07.1-.02-.1.03-.14.02.05 0 .05 0-.16.02-.86.19-.79.48a47.38 47.38 0 0 1 .89 4.18c.1.38.12.76.1 1.14l.12-.14c-.08.05-.03 0 .02-.02-.07.04-.12.1-.2.12a1.43 1.43 0 0 0-.26.14c.12-.05-.04.02-.07.05a.72.72 0 0 1-.24.1c-.1.02-.02 0 0 0l-.1.04-.21.07-.14.03c-.08.02-.15.02-.24.05a2.51 2.51 0 0 1-1.04-.08 2.58 2.58 0 0 1-1.13-.67c-.21-.19-.33-.48-.62-.53a20.6 20.6 0 0 1-1.65-.38 6.63 6.63 0 0 1-2.6-1.4c-.24-.2-1.3.27-1.05.51.77.75 1.8 1.15 2.8 1.47.56.16 1.1.3 1.68.38l-.12-.07a3.38 3.38 0 0 0 3.1 1.34 6.03 6.03 0 0 0 2.62-.93c.17-.1.4-.22.45-.41.03-.29.03-.6-.05-.87-.12-.9-.3-1.8-.5-2.68l-.43-1.88-.8.48c1.04-.16 2.17-.81 2.53-1.84.24-.65.21-1.47-.24-2.02a1.78 1.78 0 0 0-1.68-.6 2.61 2.61 0 0 0-2.07 1.58l1.01-.4c-1.32-.27-2.76-1.08-3.38-2.33a3.5 3.5 0 0 1-.32-1.97c.05-.34-.79 0-.9.07-.75.48-1.52.89-2.36 1.2-.29.1-.81.17-.98.55l-.22.63a16.8 16.8 0 0 0-1.05 5.52c0 .98.16 2.06.9 2.78.22.17 1.28-.31 1.06-.53z" />
    <path fill="var(--c, black)"
      d="m83.02 29.2.1.42-.03-.12c.02.21.02.4 0 .62l.02-.12a.86.86 0 0 1-.1.26l.08-.12a.64.64 0 0 1-.12.15l.1-.1c-.03.03-.08.07-.13.07l.12-.07a.34.34 0 0 1-.14.05l.14-.02a.53.53 0 0 1-.19.02h.17c-.1 0-.2-.02-.29-.05l.17.05h-.05a.74.74 0 0 0-.45 0 .52.52 0 0 0-.3.26.56.56 0 0 0 .42.65c.36.12.74.12 1.1 0 .26-.12.48-.33.58-.6.12-.4.12-.81 0-1.22l-.08-.24a.72.72 0 0 0-.26-.34.75.75 0 0 0-.46-.1.54.54 0 0 0-.36.2.51.51 0 0 0-.07.38l.03-.02z" />
    <path fill="var(--b, white)"
      d="M79.3 27.14a8.28 8.28 0 0 1-2.16 1.32c-2.62 1.18-2.67 2.21-1.68 2.52.98.32 4.58-1.08 4.58-1.08" />
    <path fill="var(--c, black)"
      d="M78.84 26.86c-.07.07.1-.08.07-.05-.02.02-.1.07-.14.12l-.5.36c-.58.36-1.18.67-1.8.96a6.42 6.42 0 0 0-1.62 1.05c-.28.27-.5.6-.57.99-.12.79.7 1.22 1.37 1.25.9.02 1.82-.3 2.68-.56a24.02 24.02 0 0 0 1.85-.64c.24-.1.48-.41.36-.67-.12-.27-.48-.32-.74-.22-.43.17-.89.33-1.35.48l-.6.2-.14.04h-.05l-.3.1c-.4.09-.8.19-1.19.24l-.12.02h-.3c-.1 0-.03-.03.02 0-.08-.03-.12-.03-.2-.03-.02 0 .1.05 0 0l-.07-.04-.07-.05c.07.05.07.07.02 0a.05.05 0 0 0-.04-.05c-.03 0 .1.07.02.02-.02 0 0-.04-.02-.07.02.03-.03.1 0 .03v-.05c0-.02.02-.12 0-.02-.03.09 0-.03.02-.05l.05-.1c-.07.07.05-.07 0 0l.2-.22c.01-.02.09-.1.01-.02a.42.42 0 0 1 .12-.1l.32-.21c.24-.17.5-.31.76-.43.96-.48 1.95-.94 2.76-1.68a.43.43 0 0 0 .03-.63l-.07-.07a.69.69 0 0 0-.82.14l.05-.04zm2.02-.5a.4.4 0 0 0-.34.42c0 .03 0 .05.02.05.12.41.63.27.65-.12.03-.17-.1-.36-.26-.38l-.07.02zm-2.88-.13a.4.4 0 0 0-.34.43c0 .03 0 .05.02.08.12.4.63.26.65-.12a.34.34 0 0 0-.29-.39h-.04zm10.68 3.99c.64 1.44 2.42 4.12 4.24 2.61.9-.74 1.56-2.28.72-3.29-.62-.76-1.92-.93-2.61-.19-.94 1.01-.1 2.67.55 3.58a5.95 5.95 0 0 0 3.36 2.4 1.86 1.86 0 0 0 1.58-.29c.41-.38.6-.96.5-1.54-.11-.98-.98-1.6-1.89-1.82-.79-.2-1.82-.12-2.4.5-.8.87-.17 2.07.43 2.84.27.33.56.62.84.9a.7.7 0 0 0 .84.15.45.45 0 0 0 .17-.65c-.02-.02-.05-.04-.05-.07a7.23 7.23 0 0 1-1.17-1.39l-.15-.29a.34.34 0 0 1-.04-.14c.02.1 0-.03 0-.05-.03-.07-.03-.14-.03-.24-.02.1 0-.02 0 0 0-.02 0-.07.03-.12l.02-.1c-.02.08-.02.1 0 0l.05-.07c-.05.05.05-.1 0 0 .05-.05.07-.1.12-.12-.12.12.02 0 .07-.05.05-.04.14-.04 0 0l.1-.02.21-.05c-.12.03.03 0 0 0l.12-.02h.36c.07 0 .17.02.24.05l.12.02c-.12-.05.1.02 0 0 .12.05.17.05.24.1l.1.04c-.1-.07.1.05 0 0l.19.15.1.07c-.08-.1.02.02 0 0 .07.1.12.12.16.2-.04-.1.03.02 0 0 .03.02.03.06.05.09.03.02.03.07.05.1.02.02 0-.08 0 .02.02.17.02.33 0 .5 0 .05-.02.15 0 .05l-.05.12c-.03.05-.05.1 0 .02-.02.03-.05.08-.1.1h-.02c-.1.05.1-.02 0 0-.02.02-.07.02-.12.02.12-.02.05 0-.02 0h-.12c-.03 0 .1.03-.03 0s-.21-.02-.33-.04h.02l-.07-.03-.14-.05-.36-.14a5.74 5.74 0 0 1-1.25-.91 5.08 5.08 0 0 1-1.06-1.42 2.87 2.87 0 0 1-.31-.79 1.88 1.88 0 0 1-.05-.34v-.07c0-.05 0-.12.03-.17l.02-.14c.02-.1-.02.07 0-.02.02-.03.02-.08.05-.1.02-.07-.07.05.02-.02l.07-.08c-.02.03.08-.07 0 0l.1-.04c.05-.05-.12.04-.05.02l.07-.02.1-.03h-.02.1c.06.03.23.07.09 0 .05.03.26.15.12.05.07.05.12.07.17.12-.12-.1.04.05.07.1.02.04-.03-.08 0 .02.02.05.05.07.05.12.04.1 0-.07 0 .02l.02.15v.19c0 .12-.05.24-.07.34l-.05.12-.07.16c-.05.15-.12.3-.2.41-.11.2-.28.36-.47.48l-.05.03-.12.04c.12-.02.02.03-.03 0-.07-.04.1.03-.02 0-.02 0-.17-.02-.07 0l-.07-.02c-.03 0-.1-.05-.15-.07-.1-.05.05.05-.05-.03-.1-.07-.14-.12-.24-.16l-.07-.08-.1-.1-.43-.5a.91.91 0 0 1-.16-.24c-.03-.04-.05-.1-.08-.12l-.04-.07a8.92 8.92 0 0 1-.46-.81l-.07-.15c-.27-.6-1.42-.31-1.1.36l-.05-.1z" />
    <path fill="#002780"
      d="M79.51 34.87c-4.05 0-8.25 4.78-8.25 4.78a13.9 13.9 0 0 0-1.7-.82c-.9-.33-1.64.58-1.64.58s-27.4-19.75-29.04-20c-1.63-.23-2.6 1.78-2.42 2.36.16.57 3.81 2.42 3.81 2.42s-2.35 2.93-2.35 3.34c0 .4.65 1.3 1.47 1.37.81.07 3.4-2.6 3.4-2.6L44.9 28s-1.3 2.2-1.36 3c-.08.82.48 1.06.98 1.23.5.17 2.66-2.5 2.66-2.5L66.6 42.37s-.89.65-.57 1.46c.3.82 2.66 1.13 2.66 1.13-1.87 3.55-1.97 11.98 4.99 14.81s14.26-5.18 14.98-12.96c.72-7.78-5.1-11.93-9.15-11.93zm5.76 15.55c-3.48 8.84-12.36 8.96-14.8 1.54C68.02 44.54 76.06 39 76.06 39c5.16-3.8 12.7 2.6 9.21 11.42z" />
    <path fill="#002780"
      d="M79.97 34.54c-1.78.02-3.46.84-4.92 1.77a23.26 23.26 0 0 0-3.6 2.9 8.9 8.9 0 0 0-.65.7l.96-.57a5.55 5.55 0 0 0-.84-.44c-.43-.21-.96-.5-1.47-.43-.74.1-1.5.67-1.99 1.23l.96-.58c-.36-.26-.72-.5-1.05-.77-.96-.67-1.9-1.37-2.86-2.04-1.37-.96-2.71-1.94-4.08-2.9a590.3 590.3 0 0 1-4.8-3.41 488.92 488.92 0 0 0-5-3.5c-1.55-1.08-3.09-2.16-4.65-3.22a128.66 128.66 0 0 0-3.76-2.52c-.77-.5-1.56-1-2.38-1.44a1.53 1.53 0 0 0-.8-.24c-.69 0-1.34.43-1.86.84-.46.36-.82.8-1.06 1.32-.12.26-.29.67-.14.96.14.29.5.48.74.65a25.85 25.85 0 0 0 2.5 1.44c.16.1.33.19.52.26l.03-.1c-.39.46-.75.94-1.1 1.42l-.8 1.08c-.2.24-.36.5-.48.8-.1.33.22.74.43.95.32.32.82.65 1.28.53a3.7 3.7 0 0 0 1.17-.62 24.69 24.69 0 0 0 2.83-2.47l-.88.52 1.72 1.42.32.26c.02.03.04.05.04 0 0 .03-.04.08-.04.1-.22.36-.44.72-.6 1.1-.39.77-1.3 2.24-.22 2.86.17.12.36.2.55.22.17-.03.36-.1.5-.2a6.91 6.91 0 0 0 1.35-1.03c.6-.6 1.18-1.22 1.7-1.87l-.96.58 1.92 1.24 4.66 3.03 5.6 3.65 4.86 3.16 1.61 1.04c.24.19.48.36.77.5l.02.02.32-.33c-.58.43-1.4 1.41-.65 2.09.57.52 1.53.7 2.28.81l.21.03c-.02-.05-.21.36-.24.4a7.5 7.5 0 0 0-.36 1.04c-.24.79-.38 1.6-.45 2.44-.31 3.9 1.08 8 4.5 10.16a8.47 8.47 0 0 0 6.54 1.12c2.4-.6 4.6-2.13 6.29-3.9 3.45-3.63 5.61-9.13 4.41-14.14-.89-3.75-3.91-7.06-7.8-7.7a2 2 0 0 0-1.1-.22c-.22 0-.46.21-.65.33-.05.03-.38.34-.26.34 3.12.02 6.04 2.11 7.6 4.7 2.26 3.75 1.85 8.45.1 12.29-1.63 3.6-4.68 7.25-8.83 7.68-3.82.4-7.4-2.11-8.88-5.54a12.27 12.27 0 0 1-.24-8.96c.1-.26.21-.55.36-.81.02-.03 0-.05-.03-.05a6.34 6.34 0 0 1-1.96-.55c-.36-.2-.72-.43-.75-.89 0-.24.1-.5.24-.7l.17-.19c-.07.07-.02 0 0 0s-.12.1-.07.05.36-.29.3-.34l-1.91-1.24-4.68-2.96-5.6-3.62-4.86-3.17-1.59-1.03c-.24-.2-.48-.36-.77-.5l-.02-.03c-.1-.07-.36.12-.43.17a2.31 2.31 0 0 0-.53.43c-.22.29-.46.55-.7.82-.24.26-.4.45-.62.67-.1.12-.22.22-.34.34l-.12.1-.14.11c.05-.02-.12.07.02 0l.17-.1c.05-.04.07 0 .03-.02l-.22-.07a1.1 1.1 0 0 1-.72-.7c-.2-.62.26-1.39.55-1.94.24-.5.5-.98.8-1.46v-.05l-2.12-1.7c-.17-.15-.8.4-.89.5-.33.36-.7.7-1.08 1.03-.28.26-.62.55-.9.77l-.13.1c-.1.07.12-.08-.02.02l-.1.07c.12-.07-.02.02-.05.02-.07.05.03 0-.02.03s-.1.05-.14.05c-.44.04-.9-.3-1.16-.6-.16-.22-.45-.56-.33-.84a12.8 12.8 0 0 1 1.15-1.68c.38-.48.74-.99 1.13-1.47.02-.02.05-.05.02-.1-.57-.28-1.15-.6-1.7-.9a18.78 18.78 0 0 1-1.3-.8 2.75 2.75 0 0 1-.77-.62c-.16-.27.03-.67.15-.94l.33-.57c.08-.08.12-.15.22-.22-.07.07-.07.05.02 0 .36-.12.75-.07 1.06.1.77.4 1.51.86 2.23 1.34 1.2.77 2.4 1.58 3.58 2.38a644.46 644.46 0 0 1 9.33 6.48c2.98 2.1 5.96 4.2 8.93 6.33l3.05 2.19c.31.24.65.45.98.7.17.11.34.26.5.35l.08.05c.1.07.36-.12.43-.17a2.31 2.31 0 0 0 .53-.43l.02-.02c.08-.08-.04 0 .05-.05-.02.02-.14.12-.14.1a.96.96 0 0 1 .36-.08c.19 0 .38.05.57.15a8.5 8.5 0 0 1 1.5.72c.09.04.35-.12.42-.17a2.31 2.31 0 0 0 .53-.43l.03-.03.02-.02c.1-.1.2-.22.31-.31.36-.36.7-.7 1.08-1.01 1-.91 2.14-1.68 3.39-2.23a6.6 6.6 0 0 1 2.52-.56c.21 0 .48-.21.64-.33.05 0 .41-.31.27-.31z" />
    <path fill="#002780"
      d="M84.77 50.71c-.77 1.92-1.95 3.89-3.63 5.09a13.33 13.33 0 0 1-.38.24c-.12.07-.29.17-.46.24-.36.17-.74.31-1.12.4a6.48 6.48 0 0 1-2.36.2c-3.76-.4-6.16-4.18-6.3-7.73-.18-3.6 1.96-6.86 4.53-9.21-.07.04.07-.08.1-.1l.14-.14.31-.27.12-.1.05-.04c.05-.05-.12.1-.03.02l.22-.17c.07-.04.36-.24.12-.1l.55-.35a5.29 5.29 0 0 1 4.66.02 7.35 7.35 0 0 1 3.55 3.72c.91 2 .98 4.27.5 6.39a10.95 10.95 0 0 1-.57 1.9c-.05.11.4-.13.43-.13.17-.1.48-.26.58-.48a11.1 11.1 0 0 0 .52-7.1 7.81 7.81 0 0 0-3.3-4.54 5.84 5.84 0 0 0-4.93-.65c-.48.17-.96.39-1.39.65a5.07 5.07 0 0 0-.74.5 14.6 14.6 0 0 0-.91.72c-2.67 2.21-5.1 5.31-5.43 8.86-.38 3.77 1.8 8.14 5.74 8.95 4.03.84 7.84-2.35 9.67-5.66.31-.55.57-1.13.81-1.73.05-.14-.4.1-.43.12-.24.12-.55.29-.62.48z" />
    <path fill="var(--b, white)"
      d="M88.4 49.06s-3.2-2.7-4.52-3.34c-1.32-.65-1.8.62-.6 2.2 0 0-1.15-1.02-1.44.42-.29 1.44 1.4 3.38 1.4 3.38s-2.72-1.4-2.96-.31c-.24 1.08 14.88 7.08 16.1 6.89 1.23-.2 1.73-7.9 1.28-8.4-.46-.5-7.4-1.08-7.4-1.08l-.45-1.56" />
    <path fill="var(--c, black)"
      d="M88.8 48.84a100.79 100.79 0 0 0-2.5-2 18.5 18.5 0 0 0-1.8-1.24c-.6-.36-1.56-.8-2.18-.22-.74.7 0 2.02.46 2.67l.9-.31a2.13 2.13 0 0 0-1.31-.58c-.8 0-1.13.74-1.13 1.44 0 .77.36 1.51.74 2.16.22.38.48.74.77 1.08l.77-.4a8.48 8.48 0 0 0-1.82-.73 2.63 2.63 0 0 0-1.3-.1c-.34.08-.7.32-.7.7 0 .34.32.6.56.77.4.31.84.58 1.27.82a76.97 76.97 0 0 0 9 3.96 59.42 59.42 0 0 0 4.1 1.46c.46.14.91.26 1.37.36.4.07.82.1 1.13-.22.38-.4.55-1.05.67-1.58a26.62 26.62 0 0 0 .6-5.09 6 6 0 0 0-.12-1.73c-.14-.55-.72-.7-1.2-.81a15.87 15.87 0 0 0-2.14-.36 71.54 71.54 0 0 0-4.56-.48l-.28-.03.72.44-.46-1.56c-.14-.48-1.3-.63-1.1 0l.45 1.56c.1.28.46.4.72.43l.27.02.28.03.2.02c-.17-.02.1 0 .14.02l2.18.22 2.4.31c.32.05.65.1.96.17l.36.1c-.21-.05.1.04.15.04.12.03-.15-.1-.05-.02 0 0-.12-.12-.14-.12-.03 0-.03-.12-.03-.02 0 .04.03.07.03.12-.03-.15.02.1.02.16a19.75 19.75 0 0 1-.02 2.45c-.1 1.49-.22 3.07-.75 4.49l-.14.34-.08.14c-.04.1.03-.05 0 0l-.04.07-.1.1c-.07.07.07-.03 0 0-.12.05.15-.03.07 0-.16.02.1.02 0 0-.07-.03-.12-.03-.19-.03a3.84 3.84 0 0 1-.5-.12c-.05-.02-.24-.07-.03 0l-.16-.04-.37-.1c-.26-.1-.55-.17-.81-.26a62.9 62.9 0 0 1-1.95-.7 104.3 104.3 0 0 1-8.78-3.67c.14.07-.1-.05-.12-.07l-.22-.1-.4-.22-.72-.38c-.24-.12-.41-.24-.6-.36l-.22-.14c-.07-.05.12.1 0 0l-.1-.08-.12-.12c.15.12.05.08.03.03-.05-.1.02.05 0 .02-.03-.1.02.12 0 .03.02.14 0 .02.05-.05-.05.07.02 0 .02-.03-.05.05 0 0 .02 0-.12.05.17-.02.03 0h.21c.1 0-.14-.02.03 0l.1.03.33.07c.17.05-.07-.02.05 0l.14.05a.86.86 0 0 1 .27.1c.16.04.33.11.48.19a2.83 2.83 0 0 1 .36.16.72.72 0 0 0 .7.08c.14-.08.2-.27.11-.41 0-.03-.02-.05-.04-.07a5.97 5.97 0 0 1-1.3-2.36 1.77 1.77 0 0 1-.03-.79 1.06 1.06 0 0 1 .15-.38c.02-.03.1-.1.07-.1-.02 0 .03-.02.05 0s-.03 0-.07 0h.04c-.1-.02-.1-.02-.02 0 .03.03.07.03.1.05.02.02.04.05.1.05.09.05-.1-.07-.03-.03l.07.05a.8.8 0 0 0 .77.2.3.3 0 0 0 .22-.39c-.03-.05-.03-.07-.08-.12a2.91 2.91 0 0 1-.55-1.13c-.05-.21-.05-.55.1-.7.02-.02.04-.04.07-.04h.07l.2.07c.14.07.42.24.6.36a33.98 33.98 0 0 1 2.94 2.23l.77.63a.8.8 0 0 0 .82.16.38.38 0 0 0 0-.62z" />
    <path fill="var(--c, black)"
      d="m85.56 50.64-1.78-2.66-.26-.39c-.14-.21-.5-.38-.74-.26s-.17.48-.03.67l1.78 2.66.26.39c.15.21.5.38.75.26s.14-.48.02-.67z" />
    <path fill="var(--b, white)"
      d="M67.13 48.26s3.86-.98 4.41 0c.34.6-.38 1.56-.38 1.56s1.6.48.2 1.68c-1.26 1.04-3.94 1.42-3.94 1.42s3.7 1.06 3.26 2.26c-.53 1.5-4.73-.15-5.26-.63-1.24-1.17-3.19-4.6 2.36-9.53" />
    <path fill="var(--c, black)"
      d="m67.3 48.34.26-.08.26-.04.08-.03.19-.05a9.19 9.19 0 0 1 1.6-.19c.37 0 .94 0 1.2.31.37.46-.04 1.2-.33 1.59a.05.05 0 0 0 0 .07c.29.07.55.26.7.5.26.63-.6 1.2-1.06 1.44-.6.32-1.22.56-1.87.7-.15.02-.27.07-.41.1l-.07.02-.15.02c-.07.03-.52.1-.19.03a2.44 2.44 0 0 0-.6.14c-.1.05-.17.1-.02.15l.05.02.28.1c.3.1.58.19.84.3.63.25 1.32.56 1.8 1.06a.8.8 0 0 1 .24.63.63.63 0 0 1-.14.31l-.12.12c-.02.02-.05.02-.07.05l.1-.03c-.08.03.09 0-.03 0h-.05c-.17 0-.33 0-.5-.02a9.83 9.83 0 0 1-1.15-.24 8.06 8.06 0 0 1-1.9-.77c-.31-.21-.6-.48-.8-.79a4.56 4.56 0 0 1-.76-3.14c.26-2.3 2.02-4.23 3.67-5.72.12-.1-.4-.07-.43-.07a1.27 1.27 0 0 0-.72.22c-1.63 1.44-3.26 3.29-3.65 5.5A4.64 4.64 0 0 0 64.3 54c.21.34.52.65.88.86.68.36 1.37.63 2.1.82.83.26 1.74.31 2.6.2.56-.1 1.6-.4 1.4-1.18-.17-.7-1.18-1.13-1.75-1.4a9.9 9.9 0 0 0-1.61-.57l-.62.29a15.8 15.8 0 0 0 2.92-.72c.63-.2 1.18-.5 1.7-.9.37-.28.87-.83.51-1.31a1.8 1.8 0 0 0-.67-.43c.05.02-.02.07.05.02.02-.02.05-.05.05-.1l.19-.3c.14-.27.24-.58.21-.87-.1-.99-1.77-.8-2.44-.75-.96.08-1.9.24-2.84.48-.07.03-.48.1-.38.22.1.12.62 0 .7-.02z" />
    <path fill="var(--c, black)"
      d="M71.02 49.37a1.29 1.29 0 0 0-.68.05c-.3.07-.6.14-.9.24l-2.1.57c-.19.05-.36.12-.55.15a.37.37 0 0 0-.31.4c0 .05.02.1.05.15a.76.76 0 0 0 .76.36c.15-.03.3-.07.44-.12l.9-.27a64.27 64.27 0 0 1 2.05-.55c.12-.02.24-.07.38-.1l.12-.02h.05c-.07.03-.17 0-.24-.02.24.07.58 0 .6-.29.03-.29-.31-.48-.57-.55z" />
    <path fill="#002780"
      d="M36.84 41.66c-4.1 2.5-6.17 7.56-5.5 12.24a16.13 16.13 0 0 0 8.81 11.86c2.43 1.15 5.16 1.49 7.66.38a13.35 13.35 0 0 0 3.29-2.25 18 18 0 0 0 2.59-2.81 11.54 11.54 0 0 0 1.7-3.34c.17-.6.27-1.2.29-1.82.02-.6-.02-1.22-.48-1.7a1.43 1.43 0 0 0-1.82-.22 3.2 3.2 0 0 0-1.1 1.51 5.73 5.73 0 0 0-.15 3.7 8.48 8.48 0 0 0 1.99 3.45c.89.99 1.92 1.85 3.05 2.52A6.64 6.64 0 0 0 61 66.24a4.42 4.42 0 0 0 2.93-1.46c.33-.41.57-.92.67-1.44.1-.5-.96-1.06-1.08-.48-.2.98-.89 1.7-1.78 2.1a4 4 0 0 1-3.07.08 8.44 8.44 0 0 1-2.9-1.85 9.67 9.67 0 0 1-2.16-2.66 5.79 5.79 0 0 1-.63-3.29c.07-.55.24-1.1.5-1.58.17-.32.58-.99 1.04-.92-.1-.02-.05-.1-.03.05 0 .1.05.2.05.27.03.26.03.52 0 .76a8.11 8.11 0 0 1-.33 1.66 10.43 10.43 0 0 1-1.59 2.98A18.14 18.14 0 0 1 50.28 63a13.52 13.52 0 0 1-2.95 2.11c-2.14 1.08-4.54.91-6.7-.02a14.56 14.56 0 0 1-8.09-10.1c-.86-4.16.5-8.77 3.8-11.53.4-.33.84-.64 1.3-.93.52-.31-.34-1.13-.8-.87zM65.3 61.1v-1.36a.47.47 0 0 0-.21-.34.69.69 0 0 0-.84.07.53.53 0 0 0-.15.36v1.35a.47.47 0 0 0 .22.33c.12.1.29.12.43.12a.72.72 0 0 0 .4-.19c.1-.07.15-.22.15-.34z" />
  </g>
</svg>
