<svg xmlns="http://www.w3.org/2000/svg" viewBox="0 0 120 120" fill="none">
  <g id="doc">
    <path fill="var(--b, white)"
      d="M79.967 48.917s4.133-2.142 9.725 1.291c5.583 3.434 20.516 32.042 19.725 44.9-.792 12.867-33.484 5.425-33.484 5.425l13.634-15.025-9.6-36.591Z" />
    <path fill="var(--c, black)"
      d="M80.417 49.267a7.267 7.267 0 0 1 3.266-.617c1.225 0 2.45.233 3.6.667.725.266 1.392.6 2.067.983.142.075.267.167.383.25l.117.067.05.041a4.667 4.667 0 0 1 .5.434l.083.05.142.141.283.292c.217.217.417.433.6.667l.317.366.142.167.116.142a43.542 43.542 0 0 1 2.742 3.891c2.183 3.434 4.167 7 5.95 10.7a111.917 111.917 0 0 1 5.233 12.5c1.267 3.7 2.4 7.542 2.809 11.434.141 1.433.258 3-.05 4.433a6.1 6.1 0 0 1-1.634 2.958c-1.875 1.867-4.7 2.617-7.275 3.025-3.233.5-6.575.5-9.833.284a94.175 94.175 0 0 1-9.075-1.034 89.138 89.138 0 0 1-5.042-.933l-.241-.05.775.725 2.583-2.883 5.45-6 4.667-5.134.641-.7c.117-.091.217-.216.284-.333.075-.142-.042-.433-.092-.583l-1.008-3.834-1.75-6.7L85.1 66.65l-2.083-7.917-1.667-6.341-.833-3.242-.05-.142c-.067-.241-.409-.458-.642-.533-.167-.042-.433-.067-.367.192l.967 3.65 2.3 8.758 2.758 10.542 2.4 9.141.792 3c.125.484.217.959.383 1.442 0 .025.025.05.025.067v-.142l-4.633 5.117-7.317 8.083-1.683 1.85c-.092.117.125.333.192.408.166.142.366.267.583.309a96 96 0 0 0 12.258 1.875c3.384.291 6.792.433 10.175.116 2.834-.258 5.909-.791 8.284-2.416a6.917 6.917 0 0 0 2.375-2.617c.6-1.225.7-2.55.666-3.892-.066-3.766-1.05-7.533-2.15-11.133a104.217 104.217 0 0 0-4.95-12.675 113.467 113.467 0 0 0-6.041-11.475 66.117 66.117 0 0 0-2.909-4.392 22.75 22.75 0 0 0-2.591-3.091 11.833 11.833 0 0 0-4.85-2.784 10.633 10.633 0 0 0-6.117-.191 4.3 4.3 0 0 0-.833.308c-.367.167.541.917.883.75Z" />
    <path fill="var(--c, black)"
      d="M51.217 88.15s4.583-41.758 25.008-41.3c14.883.333 19.917 36.667 16.917 39.383-6.117 5.584-38.084 10.267-41.917 1.917Z" />
    <path fill="var(--c, black)"
      d="M51.767 88.417a78.575 78.575 0 0 1 1.033-6.409c.425-2.208.908-4.391 1.458-6.575a90.043 90.043 0 0 1 2.259-7.533 62.75 62.75 0 0 1 3.191-7.533 36.1 36.1 0 0 1 4.275-6.6A19.75 19.75 0 0 1 69.4 49.1a13.867 13.867 0 0 1 6.675-1.767c.55 0 1.108.042 1.658.117l.092.025.192.05.416.092a9.425 9.425 0 0 1 .834.266l.191.075c.125.042.267.117.384.167l.725.358.041.025.167.092c.125.075.25.15.367.25a6.8 6.8 0 0 1 .716.525c.05.042.125.092.167.142a14.767 14.767 0 0 1 1.25 1.15l.15.166.092.125c.216.217.408.45.6.667a28.333 28.333 0 0 1 2.133 3.05 40.517 40.517 0 0 1 3.483 7.533 62.275 62.275 0 0 1 2.3 8.284 62.251 62.251 0 0 1 1.184 7.658c.208 1.867.233 3.767.066 5.633a6.558 6.558 0 0 1-.241 1.375c-.025.042-.025.117-.042.167l-.025.092c.025-.05.025-.05 0 .025a2.075 2.075 0 0 1-.292.483c0 .025-.025.025-.05.05-.041.042.075-.083 0 0l-.208.183c-.15.125-.317.25-.483.367-1.775 1.25-3.917 2.017-5.975 2.667A63.1 63.1 0 0 1 77.3 91.25a75.34 75.34 0 0 1-9.55 1.033 45.17 45.17 0 0 1-8.808-.358c-.584-.1-1.175-.192-1.8-.333a13.966 13.966 0 0 1-1.684-.484l-.191-.075-.092-.025c.025 0 .117.05 0 0l-.383-.141c-.25-.1-.484-.217-.7-.309l-.309-.166-.05-.025-.166-.1a7.95 7.95 0 0 1-.584-.384c-.016-.025-.183-.141-.041-.025-.05-.025-.075-.05-.125-.091a2.083 2.083 0 0 1-.234-.217l-.216-.192-.025-.025-.1-.125a5.533 5.533 0 0 1-.334-.45l-.025-.05a.546.546 0 0 0-.075-.125l-.141-.25a.908.908 0 0 0-.692-.483c-.15-.025-.292.075-.317.192a.18.18 0 0 0 .05.191c.892 1.9 2.859 2.975 4.725 3.65 2.5.884 5.234 1.2 7.875 1.317a75.142 75.142 0 0 0 19.1-1.967 43.695 43.695 0 0 0 7.75-2.466A16.774 16.774 0 0 0 92.8 87.35c.483-.317.967-.65 1.183-1.2.55-1.325.525-2.883.5-4.3a48.417 48.417 0 0 0-.625-6.958 72.75 72.75 0 0 0-1.75-8.234 55.333 55.333 0 0 0-2.95-8.25 30.783 30.783 0 0 0-4.2-6.916c-1.533-1.825-3.416-3.434-5.641-4.3a11.875 11.875 0 0 0-7.084-.284 15.896 15.896 0 0 0-6.333 3.284 26.2 26.2 0 0 0-5.017 5.791 45.6 45.6 0 0 0-3.816 7.267 73.975 73.975 0 0 0-2.809 7.825 108.475 108.475 0 0 0-3.575 16.942c-.05.366 1.009.891 1.084.416Z" />
    <path fill="var(--b, white)" d="M89.692 82.158s2.4-3.25 4.533-6.458c2.133-3.217 5.708 1.508 1.633 6.025" />
    <path fill="var(--c, black)"
      d="M90.25 82.4a168.5 168.5 0 0 0 4.217-5.983c.166-.284.358-.55.583-.817.142-.142.283-.283.475-.383.025-.017.242-.092.142-.067.05-.025.316-.05.166-.05h.125c.142 0-.125-.025.025 0l.117.025c-.142-.025-.025 0 .025 0l.117.05c-.117-.075 0 0 .025.025l.125.092c.116.1-.084-.075.041.025.15.116.25.266.334.433.25.408.366.883.391 1.367.117 1.583-.7 3.116-1.733 4.291-.45.5.558 1.084.942.65 1.083-1.225 1.941-2.708 1.991-4.391.025-1.1-.316-2.3-1.225-3-.866-.667-2.083-.575-2.883.191-.6.584-1.033 1.367-1.483 2.067-.534.792-1.084 1.558-1.634 2.333-.65.909-1.3 1.792-1.941 2.709-.392.45.716.883 1.05.433Z" />
    <path fill="var(--b, white)"
      d="M73.7 54.775s-2.275-9.867-11.233-2.55C55.1 58.25 42 97.183 52.892 103.492 63.792 109.8 92.058 91.2 96.258 90.6c4.2-.6 6.984 1.392 7.75 0 .775-1.383-.141-2.95-1.7-3.717 0 0 2.167-2.166-.933-3.266 0 0 1.083-1.867-2.958-2.784-4.025-.916-28.367 2.642-33.475 6.192-.025 0 9.458-18.667 8.758-32.25Z" />
    <path fill="var(--c, black)"
      d="M74.25 54.7a8.423 8.423 0 0 0-1.075-2.6c-.917-1.533-2.333-2.8-4.175-3.067a6.7 6.7 0 0 0-3.433.55 13.733 13.733 0 0 0-6.55 5.95 48.533 48.533 0 0 0-2.909 5.4 88.65 88.65 0 0 0-2.833 6.817c-.908 2.475-1.7 4.967-2.417 7.517a77.783 77.783 0 0 0-1.775 7.7c-.458 2.45-.75 4.9-.891 7.366-.142 2.142-.025 4.3.291 6.417.284 1.7.792 3.4 1.725 4.867a7.617 7.617 0 0 0 3.867 3c1.917.691 4.025.816 6.042.666a35.5 35.5 0 0 0 7.083-1.366 69.75 69.75 0 0 0 7.508-2.667c2.5-1 4.95-2.133 7.375-3.308 2.184-1.05 4.367-2.159 6.55-3.259 1.675-.841 3.359-1.733 5.067-2.525.575-.258 1.167-.55 1.775-.766.217-.075.433-.167.642-.217.025 0 .05 0 .075-.025.075-.025-.142.025-.05.025.1 0 .1-.025.15-.025.258-.042.525-.092.816-.092 1.65-.141 3.234.192 4.842.475a4.417 4.417 0 0 0 1.583.075c.559-.1.984-.5 1.159-1.033.691-1.7-.65-3.383-2.092-4.125l.117.867c.433-.417.75-.967.866-1.542.242-1.367-.916-2.233-2.066-2.642l.366.817c.384-.667.192-1.483-.291-2.058a4.417 4.417 0 0 0-2.067-1.275 8.565 8.565 0 0 0-1.7-.409c-.917-.075-1.85-.1-2.783-.025a65.23 65.23 0 0 0-3.817.267c-3.217.308-6.417.767-9.583 1.317-3.284.55-6.542 1.225-9.759 2.066a41.59 41.59 0 0 0-3.916 1.175c-.984.309-1.942.75-2.834 1.25l-.575.359.917.75a129.75 129.75 0 0 0 3.217-7.25c.958-2.409 1.841-4.85 2.633-7.325a77.475 77.475 0 0 0 2.183-8.417c.584-2.817.842-5.65.842-8.5l-.025-1.008c-.025-.65-1.167-.867-1.15-.15a36.31 36.31 0 0 1-.6 8.283 66.672 66.672 0 0 1-2.042 8.4A106.442 106.442 0 0 1 66.1 83.258c-.2.434-.267.625-.483 1.034-.359.808-.75 1.6-1.125 2.4l-.025.025c-.267.55.433 1.1.916.766l.209-.15.116-.066.05-.025.584-.317c.45-.208.908-.433 1.383-.6a37.79 37.79 0 0 1 3.6-1.167c2.958-.825 6.025-1.466 9.075-2.025 3.167-.575 6.358-1.05 9.583-1.416 1.334-.142 2.659-.284 4-.359.55-.05 1.125-.066 1.684-.091.233 0 .475 0 .741-.025h.55c.984 0 1.967.191 2.884.6.141.066.283.141.433.241.067.042.117.092.192.117l.116.1c-.075-.05-.025-.025 0 .017l.117.15a.333.333 0 0 1 .083.091s-.083-.116-.033-.025l.1.125.025.067c-.05-.117.042.1 0 0l.067.25c-.042-.175 0 .067 0 .133 0 .05 0 .125 0 0 0 .025 0 .084-.025.1-.017.025-.017.1-.042.142-.05.167.067-.092 0 0a.583.583 0 0 0 .283.792c.025.025.05.025.075.025.284.1.55.216.792.383.142.1.242.217.333.333 0 0 .075.15.05.084-.025-.084.025.041.025.066s.025.092.025.142c-.025-.067 0-.025 0 .025v.142a.95.95 0 0 1-.05.25l-.075.208c-.025.075.025-.05 0 0l-.041.1a3.15 3.15 0 0 0-.217.358c-.05.067-.125.167-.192.234-.075.083.092-.092 0 0a.533.533 0 0 0 0 .775.417.417 0 0 0 .117.091c.667.334 1.342.867 1.583 1.609.117.316.117.65.05.958-.025.167-.1.317-.166.458l-.075.125c-.025.042.025-.025.025-.025l-.075.042c-.05.025-.117.075-.025.025l-.117.05c-.025.025-.167.05-.025.025l-.167.025h-.216l-.359-.025c-.625-.075-1.25-.217-1.9-.333a12.5 12.5 0 0 0-4.633-.125c-.475.125-.933.266-1.392.458-1.416.575-2.783 1.292-4.15 1.967-1.941.983-3.916 2-5.858 2.95a142.768 142.768 0 0 1-6.933 3.291 98.675 98.675 0 0 1-7.342 2.975 55.066 55.066 0 0 1-7.108 2.017c-1.1.217-2.209.358-3.334.458-.266.025-.525.025-.791.042-.267.025-.459 0-.667 0a13.858 13.858 0 0 1-2.883-.317l-.05-.016-.167-.05-.333-.092c-.217-.075-.434-.125-.625-.217-.192-.1-.417-.166-.6-.241l-.125-.05-.067-.05.042.025c-.042-.025-.192-.092-.284-.167a8 8 0 0 1-.458-.283l-.217-.15c-.05-.042-.258-.217-.116-.092a5.433 5.433 0 0 1-.75-.75c-.042-.067-.117-.142-.167-.208l-.067-.1c.067.1.025.025-.025-.025l-.316-.45c-.192-.334-.384-.65-.525-1.009l-.05-.125c-.025-.05.025.025.025.05l-.025-.075c-.042-.091-.067-.191-.117-.283l-.217-.6a11.671 11.671 0 0 1-.333-1.225l-.15-.667a1.417 1.417 0 0 1-.042-.316l-.025-.167c-.025-.1 0-.025 0 0l-.025-.1a24.458 24.458 0 0 1-.266-2.975c-.05-2.233.075-4.483.358-6.692.333-2.5.775-4.975 1.375-7.416a101.858 101.858 0 0 1 4.65-14.55 64.083 64.083 0 0 1 2.783-5.975 35.916 35.916 0 0 1 2.784-4.484c.216-.266.433-.558.675-.816l.075-.1c-.075.075-.025.05 0-.025.025-.067.116-.117.166-.167l.309-.308a13.063 13.063 0 0 1 3.291-2.259 7.133 7.133 0 0 1 1.7-.583c.25-.042.5-.067.767-.083h.267c.125 0 .241 0 .358.016l.333.05.1.025.125.025c.217.042.409.142.6.217l.117.042c-.142-.067 0 0 .025.025.092.05.192.1.267.166.066.084.166.1.233.167l.125.1.05.05a6.792 6.792 0 0 1 .817.833c0 .034.116.15.041.084l.05.066.167.242.292.45c.166.292.308.583.45.892-.042-.117 0 .025.05.1.05.066.05.141.075.208a24.875 24.875 0 0 1 .333 1.058c.125.534 1.25.484 1.083-.258Z" />
    <path fill="var(--b, white)"
      d="M67.792 77.283s-4.992-9.125-1.675-10.008c3.308-.892 4.991 4.442 5.666 8.333.667 3.884-2.766 5.009-3.991 1.667Z" />
    <path fill="var(--c, black)"
      d="M68.35 77.017a38.292 38.292 0 0 1-1.508-3.167 19.083 19.083 0 0 1-.942-2.708 8.325 8.325 0 0 1-.258-1.35 4.075 4.075 0 0 1 .025-1.317c0-.025.041-.142.016-.1-.016.05.025-.042.025-.067a.717.717 0 0 1 .1-.191l.05-.1c-.05.1-.025.025.017-.025.05-.042.15-.167.1-.117l.05-.05.092-.067c-.117.042.025-.025 0 0 .025-.025.075-.025.1-.05-.05 0 .091-.05 0 0 .05 0 .116-.025.191-.05.384-.1.817-.05 1.175.117.434.192.792.5 1.084.867a10.167 10.167 0 0 1 1.675 3.333c.433 1.3.766 2.642.933 4.008.1.584.05 1.175-.142 1.75a1.568 1.568 0 0 1-.308.584c-.025.041-.075.066-.1.116l-.05.05s.05-.05 0-.025a.361.361 0 0 1-.117.1c-.025.017-.141.092-.05.042l-.141.075-.075.025c.075-.025-.042.025-.067.025s-.167.025-.05.025h-.267c.15 0-.191-.05-.141-.05a1.875 1.875 0 0 1-.934-.767 3.25 3.25 0 0 1-.416-.816.6.6 0 0 0-.692-.334c-.217.042-.6.309-.475.592.425 1.158 1.267 2.258 2.617 2.333 1.15.05 2.108-.816 2.441-1.9.434-1.416.025-2.95-.308-4.366a17.054 17.054 0 0 0-1.517-4.175c-.6-1.084-1.433-2.109-2.683-2.5-.958-.284-2.283-.117-2.908.75-.525.691-.525 1.65-.425 2.466.141 1.034.408 2.017.791 2.975.359.992.767 1.917 1.2 2.859.234.533.475 1.058.792 1.558l.042.075c.266.6 1.375.167 1.058-.433Z" />
    <path fill="var(--b, white)"
      d="M71.567 80.542s.116-3.259-3.384-5.184c-3.5-1.916-6.416-.716-5.566 1.084.833 1.8 4.1 1.916 4.225 4.1l-1.092 2.791s3.883 2.067 5.808-2.783Z" />
    <path fill="var(--c, black)"
      d="M72.167 80.667a5.458 5.458 0 0 0-.917-3 8.15 8.15 0 0 0-6.183-3.55c-.917-.075-2 .025-2.692.666-.55.509-.525 1.25-.167 1.85.459.75 1.225 1.2 1.967 1.609.667.358 1.492.75 1.892 1.441.15.242.291.6.216.867-.066.258-.233.6-.358.883l-.692 1.8c-.05.125.192.242.234.267 1.608.833 3.775.75 5.166-.458a6.067 6.067 0 0 0 1.534-2.375c.116-.284-1-.6-1.175-.217-.484 1.2-1.3 2.45-2.567 2.883-.125.05-.25.067-.333.092-.1.025-.2.05-.292.05-.125 0-.217.025-.333.025h-.217c-.05 0-.1 0-.15-.025-.042-.025.125.025-.025 0l-.258-.05-.125-.025-.217-.067-.092-.025c-.116-.025.117.05.025 0l-.141-.05-.125-.05.241.267.55-1.392.359-.933c.075-.15.125-.292.166-.458 0-.384-.116-.767-.333-1.059-.217-.308-.5-.6-.817-.816-.641-.475-1.391-.792-2.058-1.25-.558-.359-1.183-.934-1.158-1.65.025-.667.65-1.059 1.25-1.175a4.667 4.667 0 0 1 2.95.525 6.825 6.825 0 0 1 2.575 2.016 5.175 5.175 0 0 1 1.125 3.192c-.025.358 1.15.525 1.175.192Z" />
    <path fill="var(--b, white)"
      d="M70.442 84.333s-.484-3.641-3.984-5.583-6.416-.717-5.566 1.083c.833 1.8 4.1 1.917 4.216 4.1l-1.05 3.5 6.384-3.091Z" />
    <path fill="var(--c, black)"
      d="M71.042 84.242a7.917 7.917 0 0 0-1.367-3.317 8.45 8.45 0 0 0-2.542-2.417 8.133 8.133 0 0 0-3.991-1.275c-.934 0-2.009.192-2.609.984-.6.791-.316 1.725.234 2.4.558.666 1.466 1.125 2.258 1.558.358.192.7.417 1.008.7.267.242.459.55.525.917l.025.116c-.116-.05.05-.216.025-.125 0 .025-.025.05-.025.1-.05.117-.066.234-.116.359l-.359 1.225-.533 1.8c-.142.475.417.858.842.65l5.566-2.742.792-.383c.7-.334.1-1.25-.55-.934l-5.567 2.734-.791.383.833.65 1.017-3.358c.208-.7-.15-1.442-.625-1.967-.6-.625-1.417-1.008-2.167-1.442a6.351 6.351 0 0 1-.958-.666 1.533 1.533 0 0 1-.5-.85.667.667 0 0 1 .166-.6c.025-.017.1-.092.025-.017l.075-.083c.017-.017.209-.134.142-.084.167-.1.333-.166.525-.2a5.208 5.208 0 0 1 3.217.5 7.458 7.458 0 0 1 4.058 4.45c.142.359.242.742.283 1.15 0 .625 1.175.475 1.084-.216Zm32.375 7.058c.625.05 1.25.167 1.841.358a7.521 7.521 0 0 1 1.609.767c.166.125.558.267.7.025.141-.242-.142-.5-.317-.625a8.861 8.861 0 0 0-4.267-1.433.275.275 0 0 0-.316.208c0 .083 0 .15.05.192a.833.833 0 0 0 .7.508Z" />
    <path fill="var(--b, white)"
      d="M59.067 50.25s32.566 2.167 38.808-6.117c0 0-5.667-23.275-10.658-26.3-8.9-5.375-22.917-.05-24.834 6.042-3.941 12.458-3.316 26.383-3.316 26.383Z" />
    <path fill="var(--c, black)"
      d="m58.508 50.475 1.492.067c1.317.083 2.617.1 3.933.15a149.8 149.8 0 0 0 12.367-.217c2.3-.142 4.583-.333 6.858-.65a53.417 53.417 0 0 0 6.434-1.25 27.417 27.417 0 0 0 5.708-2.158c.725-.359 1.4-.817 2.017-1.317a7.28 7.28 0 0 0 .775-.75c.091-.117.358-.333.358-.475a.834.834 0 0 0-.05-.242l-.117-.5-.433-1.633a158.833 158.833 0 0 0-3.55-11.758c-.75-2.167-1.567-4.3-2.525-6.367a20.525 20.525 0 0 0-2.708-4.65 5.4 5.4 0 0 0-1.542-1.325 15.658 15.658 0 0 0-3.958-1.558c-2.834-.7-5.834-.65-8.684-.1a24.733 24.733 0 0 0-8.141 3.05C64.9 19.9 63.05 21.358 62.133 23.35c-.258.65-.5 1.325-.666 2.017-.267.941-.5 1.875-.75 2.833a73.5 73.5 0 0 0-1.084 5.567 96.458 96.458 0 0 0-1.1 16.633c.192-.025.384-.067.584-.142.066-.025.55-.166.525-.266a88.133 88.133 0 0 1 .408-11.134c.308-3.55.858-7.083 1.658-10.558.209-.917.425-1.833.692-2.717.192-.791.433-1.558.717-2.333a7.367 7.367 0 0 1 1.666-2.442 16.175 16.175 0 0 1 6.017-3.766 21.958 21.958 0 0 1 8.167-1.2c1.433.05 2.85.291 4.241.666 1.3.342 2.517.892 3.625 1.617 1.2.817 1.992 2.208 2.667 3.425a44.6 44.6 0 0 1 2.567 5.667c.833 2.133 1.558 4.325 2.25 6.5.625 1.975 1.2 3.941 1.75 5.916a95.854 95.854 0 0 1 1.041 3.909c.042.166.092.333.117.5l.075.266c0 .142-.217.309-.333.434-.25.233-.484.475-.725.691a10.283 10.283 0 0 1-2.934 1.725l-.041.025-.15.05-.334.142-.05.025-.166.075-.142.05c-.025.017-.075.017-.1.017-.833.291-1.675.558-2.617.775-1 .258-2.033.45-3.041.641-2.184.384-4.417.65-6.625.842-2.209.192-4.467.317-6.7.383-2.017.075-4.034.075-6.042.075-1.567-.025-3.15-.05-4.708-.1-.884-.016-1.775-.066-2.667-.116l-.333-.025c-.242.025-.484.1-.692.216a.75.75 0 0 0-.317.142c-.025.025-.141.075-.075.1Z" />
    <path fill="var(--c, black)"
      d="M68.833 40.75c-.025 2.767-.125 5.55-.333 8.308 0 .284.117.55.333.75.092.084.359.284.384.017.216-2.758.333-5.517.358-8.308a1.192 1.192 0 0 0-.333-.742c-.125-.067-.417-.283-.417-.025Zm-3.958-7.942c2.158-1.058 4.292-2.166 6.258-3.55a16.8 16.8 0 0 0 4.392-4.35 10.567 10.567 0 0 0 1.417-3.191c.075-.284-.217-.525-.5-.525a.692.692 0 0 0-.667.525c-.967 3.841-4.475 6.458-7.708 8.308-1.2.667-2.4 1.292-3.65 1.892a.583.583 0 0 0-.334.725c.192.216.525.308.792.166Zm-1.583-1.583c2.783-2.308 5.666-4.7 7.558-7.825a13.267 13.267 0 0 0 1.267-2.708c.2-.6-.834-1.2-1.05-.559-1.134 3.317-3.6 5.909-6.192 8.184-.75.675-1.542 1.325-2.308 1.975a.5.5 0 0 0-.067.716l.017.025c.15.167.533.384.775.192Z" />
    <path fill="var(--b, white)"
      d="M93.192 42.025c3.675-5.667-5.442-18.958-5.442-18.958-2.667 0-7.367-1.584-7.367-1.584 2.834 7.559-5.958 11.5-5.958 11.5-2.683-3.866-7.317-1.391-6.233 2.667 1.083 4.05 5.108 3.758 5.108 3.758s-.1 10.584.6 12.15c0 0 7.583 3.409 10.683-3.333 0-.025 6.117-2.358 8.609-6.2Z" />
    <path fill="var(--c, black)"
      d="M93.742 42.25c1.083-1.683 1.058-3.825.716-5.692a26.425 26.425 0 0 0-2.183-6.533 53.367 53.367 0 0 0-2.783-5.233l-.934-1.484-.291-.458c-.234-.308-.6-.283-.959-.283-1.25-.05-2.641-.392-3.916-.7l-.909-.242-.383-.117-.192-.05-.116-.025h-.025l-1.034-.308-.141-.05c-.384-.142-.984.05-.792.583a7.425 7.425 0 0 1 .433 3.809 7.742 7.742 0 0 1-1.225 3.025c-.583.833-1.25 1.583-2.041 2.208l-.525.433c-.1.067-.167.142-.267.192l-.125.067-.067.05c-.316.216-.6.416-.933.6a20.04 20.04 0 0 1-1.008.55l.833.15c-.917-1.275-2.325-2.259-3.958-2.167a3.717 3.717 0 0 0-3.142 2.092c-.667 1.441-.383 3.141.358 4.491a5.242 5.242 0 0 0 2.975 2.417c.725.25 1.467.367 2.234.333l-.65-.45v3.65c.025 2.109.05 4.225.25 6.334.016.7.133 1.391.308 2.066a.833.833 0 0 0 .45.525 11.442 11.442 0 0 0 5.208.834 7 7 0 0 0 5.667-3.484c.192-.3.358-.608.5-.95l-.333.242a22.917 22.917 0 0 0 6.791-4.033 10.442 10.442 0 0 0 2.209-2.4c.358-.55-.767-.959-1.084-.459-1.166 1.784-2.975 3.125-4.775 4.2a29.283 29.283 0 0 1-3.575 1.8l.075-.016c-.358.141-.433.475-.6.791a5.975 5.975 0 0 1-5.133 3.359c-.392.025-.75.025-1.133 0H77.4c-.1 0 .142.025-.025 0l-.242-.025-.525-.075A6.423 6.423 0 0 1 75.6 51.6l-.433-.117c-.117-.025.116.025.025 0l-.125-.025-.167-.05c-.242-.066-.475-.166-.692-.258l.309.283-.05-.116c-.017-.05.025.116 0 .025l-.017-.1c-.025-.142-.083-.267-.1-.409-.075-.358-.1-.716-.142-1.1a62.892 62.892 0 0 1-.191-3 165.417 165.417 0 0 1-.1-5.975v-1.325c0-.283-.434-.475-.667-.458h-.392c-.066 0-.233-.017-.066 0l-.267-.017a4.433 4.433 0 0 1-.55-.1l-.317-.075c.1.025.025 0-.016-.016l-.192-.084-.317-.108-.166-.083c-.05-.017-.192-.084-.117-.042a4.017 4.017 0 0 1-1.2-1 4.542 4.542 0 0 1-.942-3.7c.125-.5.359-.983.725-1.375.167-.192.359-.333.575-.45.192-.125.409-.217.642-.267a2.308 2.308 0 0 1 1.583.142c.7.333 1.275.867 1.709 1.492.216.241.55.283.833.141 1.067-.5 2.05-1.125 2.933-1.891 1.734-1.417 3.192-3.292 3.65-5.5a8.338 8.338 0 0 0-.458-4.659l-.792.559c.942.308 1.9.6 2.859.833 1.558.417 3.216.8 4.85.8l-.559-.217.084.092c-.084-.092-.059-.075 0 0 .016.05.066.1.083.167a60.133 60.133 0 0 1 2.592 4.441c1.541 2.909 2.983 6.075 3.366 9.359.167 1.541.092 3.15-.75 4.441-.358.484.775.892 1.109.384Z" />
    <path fill="var(--c, black)"
      d="M81.025 30.242s.983-.025.933.933c-.041.958-1.216.892-1.433.075-.217-.817.5-1.008.5-1.008Zm6.167-.742s.983-.025.933.917c-.05.933-1.225.883-1.433.066-.217-.816.5-.983.5-.983Zm-23.5 14.95-2.109 4.2c-.1.192.409.142.475.117.217-.025.584-.117.675-.334l2.109-4.2c.1-.191-.409-.141-.475-.125-.217.025-.584.125-.667.334Zm-1.342-6c.933.092 1.867-.167 2.758-.433a11.262 11.262 0 0 0 3.292-1.559s-.533-.166-.583-.166c-.117-.025-.475-.15-.6-.05a9.993 9.993 0 0 1-3.092 1.483 10.1 10.1 0 0 1-2.067.483l-.241.025h-.042c-.075 0-.417-.075-.217.05.242.092.5.142.792.167Z" />
    <path fill="var(--b, white)"
      d="M86.475 31.225s2.25.333 5.583-.242c6.25-1.058 7.634.75 6.225 2.542-1.416 1.8-9.775 3.7-9.775 3.7" />
    <path fill="var(--c, black)"
      d="M86.592 31.75c1.966.292 4.058.033 6-.283a15.021 15.021 0 0 1 3.866-.217c.384.025.792.1 1.15.25l.092.017c.15.05-.092-.05.025 0l.192.091c.075.05.191.15.075.025l.191.167c-.116-.092-.05-.017.025.025 0 .025.075.1 0 .025-.075-.067 0 0 0 .025s.05.217.025.05l.05.192c-.025-.117 0 0 0 .05v.141c0 .1.017-.1 0 0 0 .025 0 .05-.025.075l-.075.217c-.025.092-.075.167-.116.258-.075.125-.167.25-.267.359l-.117.125c-.025.025-.166.141-.1.066a1.978 1.978 0 0 1-.433.292c-1.508.933-3.308 1.467-5.017 1.967-1.25.383-2.541.725-3.816 1.008-.667.142-.042 1.133.5 1.008a57.438 57.438 0 0 0 3.466-.916c1.842-.525 3.767-1.1 5.417-2.059a3.5 3.5 0 0 0 1.442-1.391c.291-.525.316-1.15.05-1.709-.359-.666-1.109-1.083-1.8-1.266a9.583 9.583 0 0 0-3.409-.192c-1.775.142-3.5.55-5.283.6-.767.025-1.508 0-2.275-.1a.375.375 0 0 0-.417.317v.141c0 .384.275.6.584.65Zm3.741 8.933.025-.05-.041.117c.091-.217.241-.408.408-.575l-.1.1c.142-.15.292-.267.458-.383l-.125.066.05-.025c.125-.041.217-.166.267-.283.05-.125 0-.267-.075-.358a.458.458 0 0 0-.358-.192.75.75 0 0 0-.459.042 2.342 2.342 0 0 0-.408.291 2.825 2.825 0 0 0-.792 1.059c-.041.116 0 .258.075.358a.683.683 0 0 0 .359.192.93.93 0 0 0 .458-.05l.117-.075a.5.5 0 0 0 .15-.234Z" />
    <path fill="var(--b, white)"
      d="M30.867 16.875s-5.834 7.417.425 18.333c0 0-9.809-.691-16.15 7.9l17.883 11.159s5.058-6.717-.217-18.167c0 0 8.859 2.067 15.692-8.233L30.867 16.875Z" />
    <path fill="#002780"
      d="M30.408 16.492a10.925 10.925 0 0 0-1.608 3.216 16.4 16.4 0 0 0-.5 8.542 22.35 22.35 0 0 0 2.583 6.692v-.117c-1.25-.05-2.5.05-3.691.292a19.682 19.682 0 0 0-7.917 3.191 19.533 19.533 0 0 0-4.567 4.434c-.116.15.55.583.65.65l1.775 1.108 4.225 2.642 5.159 3.208 4.466 2.792c.717.45 1.434.908 2.184 1.366l.025.025c.016.017.233.167.283.092.65-.867 1.083-1.967 1.417-2.975a18.233 18.233 0 0 0 .525-8.35 26.558 26.558 0 0 0-2.159-6.867l-.091.025c1.125.217 2.3.267 3.45.092a15.294 15.294 0 0 0 7.633-3.167 21.383 21.383 0 0 0 4.708-5.158c.092-.142-.55-.575-.65-.65l-1.75-1.1-4.225-2.642-5.083-3.166-4.375-2.717c-.717-.45-1.442-.908-2.158-1.333l-.025-.034c-.092-.066-.334-.216-.267 0 .075.217.458.434.625.534l1.75 1.1 4.225 2.641 5.092 3.167 4.416 2.733c.717.459 1.417.917 2.167 1.35l.017.025-.65-.65c-2.059 3.067-4.8 5.784-8.25 7.25a14.479 14.479 0 0 1-6.25 1.125c-.284-.025-.567-.05-.859-.1l-.241-.041c-.05 0-.117-.025-.025 0 0 0-.142-.05-.092.025 1.583 3.45 2.617 7.25 2.375 11.083a15.417 15.417 0 0 1-1.583 6.1 5.657 5.657 0 0 1-.584.933l.317.092-1.775-1.1-4.275-2.667-5.183-3.241-4.459-2.775c-.725-.45-1.441-.934-2.183-1.367l-.025-.025.642.65a19.417 19.417 0 0 1 16.108-7.875c.075 0 .025-.092 0-.117-1.9-3.308-3.075-7.058-2.833-10.891a14.917 14.917 0 0 1 1.775-6.317c.191-.358.416-.692.65-1.033.116-.092-.817-.834-.917-.692Z" />
    <path fill="var(--b, white)"
      d="M30.933 15.192s18.992 11.95 18.8 12.333c-.2.383-.216 1.225-.7 1.1-.483-.117-18.025-11.35-18.55-12-.533-.642.45-1.433.45-1.433Z" />
    <path fill="#002780"
      d="m30.917 15.7 1.866 1.167c1.509.966 3 1.9 4.484 2.858 1.833 1.158 3.625 2.333 5.425 3.483 1.583 1 3.15 2.042 4.708 3.092.525.367 1.033.7 1.533 1.083l.267.192c.05.05-.1-.075.025.025l.092.075.15.117c.016.025.016.05.041.05.075.05-.091-.125-.041-.075a.792.792 0 0 1-.167-.384c0-.05.067-.333-.033-.191-.017.075-.067.166-.067.241-.05.142-.075.284-.125.434a.833.833 0 0 1-.142.216c-.025.017-.025 0-.025 0s.15.067.05.017l-.141-.067-1.134-.666c-1.458-.892-2.9-1.834-4.333-2.75a589.893 589.893 0 0 1-5.6-3.592 344.15 344.15 0 0 1-6.525-4.317l-.5-.366-.083-.042c-.042-.05-.084-.15-.042-.025-.05-.075.092.142.067.092.05.075-.017.075.025 0 .05-.117.1-.217.166-.309.084-.1.15-.166.217-.266l.083-.075c.209-.167.134-.475.017-.692-.075-.142-.383-.525-.6-.358-.433.283-.7.766-.75 1.291 0 .459.225.892.558 1.175.359.292.75.559 1.1.817 1.442 1.008 2.934 1.967 4.392 2.933a482.27 482.27 0 0 0 5.767 3.717c1.675 1.083 3.358 2.133 5.033 3.192.533.333 1.058.666 1.608.983.267.142.625.433.942.433.308 0 .5-.308.6-.6.042-.141.067-.291.117-.433.05-.117.1-.242.125-.383a.96.96 0 0 0-.392-.767 7.985 7.985 0 0 0-1.025-.792c-1.35-.958-2.742-1.85-4.108-2.758-1.85-1.2-3.692-2.4-5.567-3.6l-5.108-3.267-2.859-1.8-.141-.075a.267.267 0 0 0-.392.05c-.042.05-.067.125-.042.192.067.267.217.55.475.725Zm.716 21.6c.434-.417 1.225-1.975 1.225-1.975 3.55.192 7.225-1.583 7.225-1.583-2.283-1.292-4.541-3.642-6.166-6.717-1.634-3.075-4.275-3.6-4.275-3.6-1.367 5.567 2.416 11.542 2.416 11.542s-2.275 3.125-1.816 2.933c.458-.192 1.083-1.108.958-.675-.117.433.217.267.433.075Z" />
    <path fill="#002780"
      d="M32.083 37.558c.342-.383.634-.791.85-1.225.167-.283.309-.583.475-.866l-.625.383c1.734.05 3.459-.192 5.092-.742.833-.241 1.658-.55 2.417-.916.341-.167.558-.692.15-.934a15.692 15.692 0 0 1-5.134-5.058c-.7-1.058-1.2-2.233-2.066-3.192a7.333 7.333 0 0 0-2.109-1.633 4.967 4.967 0 0 0-1.25-.483.667.667 0 0 0-.816.483c-.892 3.692.241 7.7 1.991 10.992.142.283.292.55.484.816l.091-.533c-.383.533-.766 1.058-1.125 1.608-.266.392-1.516 1.95-.433 2.142.333.05.65-.15.892-.358.141-.125.258-.267.4-.392l.083-.067c-.058.05-.033.025 0 0 .117-.141.133 0-.15.025l-.433-.075-.192-.216c0-.217-.025-.267-.05-.167l-.025.1v.25c.025.217.192.383.383.458.367.117.725-.075.967-.316a.538.538 0 0 0 .117-.742v-.025a.592.592 0 0 0-.817-.025.633.633 0 0 0-.142.125c-.05.067.192-.05.067-.05l.292.025h-.025l.241.142c.117.1.05.316.092.1V37a.517.517 0 0 0-.233-.383.725.725 0 0 0-.817.091c-.1.075-.167.142-.25.242l-.133.142c-.075.075-.167.15-.267.216-.05.05-.05.1-.05.025l-.05.025a.892.892 0 0 1 .267-.05l.266.075a.508.508 0 0 1 .217.434c0-.075-.075.091-.025.066l.067-.141c.083-.117.15-.267.216-.384-.066.092.05-.1.075-.116l.167-.25c.125-.167.242-.334.333-.5.317-.434.609-.859.942-1.292.117-.15.167-.358.092-.533a15.81 15.81 0 0 1-1.167-2.275 17.133 17.133 0 0 1-1.45-5.425c-.117-1.2-.017-2.4.25-3.584l-.825.484.267.075c.1.025.191.075.291.1l.142.041.092.05.05.025c.75.359 1.416.834 1.966 1.442.867.917 1.35 2.042 2.017 3.067a18.525 18.525 0 0 0 2.425 3.05c.917.933 1.942 1.75 3.075 2.4l.142-.934c-.7.334-1.417.6-2.134.817a13.594 13.594 0 0 1-4.8.717c-.266 0-.5.141-.625.383-.333.625-.65 1.342-1.15 1.85a.465.465 0 0 0 .017.667c.025.025.05.05.083.05a.583.583 0 0 0 .834-.117Zm-3.116 4.375c.025.834.075 2.925 1.033 6.575.6 2.334.933 4.417.933 4.417l-13.891-8.642a22.492 22.492 0 0 1 5.225-1.658c3.866-.717 5.016-.55 6.166-1.85 0 0 .817-1.367 1.009-1.217.2.142-.475 2.375-.475 2.375Z" />
    <path fill="#002780"
      d="M28.358 42c.025 1.1.15 2.183.317 3.283.333 2.067.933 4.084 1.342 6.125.125.575.216 1.15.316 1.725l1-.525-4.7-2.975-7.441-4.666-1.725-1.075-.142.725c.117-.075.258-.125.408-.192l.192-.1.192-.075.666-.258c1.3-.459 2.642-.817 3.984-1.059 1.158-.216 2.308-.333 3.433-.583a4.983 4.983 0 0 0 2.208-.908c.267-.209.484-.45.667-.742l.367-.525c.075-.1.141-.167.191-.267.025-.025.075-.141.025-.025l.05-.05a.5.5 0 0 1-.316.125l-.284-.025c-.075-.025-.25-.166-.216-.241v.1c0 .091-.025.191-.05.308-.05.242-.092.483-.167.7l-.292 1.033c-.191.642.967.617 1.134.092.116-.383.216-.75.308-1.125.075-.292.142-.583.192-.842.05-.191.05-.416.025-.6-.142-.383-.667-.358-.959-.191-.241.141-.433.358-.6.575l-.433.625a.417.417 0 0 0-.092.166l-.05.05c-.075.067 0 .025 0 0l-.075.067-.241.217-.117.1.025-.025s-.05.05-.1.05l-.258.141c-.025.025-.192.075-.05.025l-.167.075c-.217.067-.458.142-.675.192l-.092.092c.017 0 .092-.025.017 0l-.192.05-.475.091c-1.833.317-3.666.559-5.475 1.084a16.917 16.917 0 0 0-3.241 1.2c-.234.116-.475.5-.142.716l4.708 2.934 7.434 4.65 1.733 1.083c.383.242 1.083-.05 1-.55-.475-3.192-1.583-6.267-1.867-9.5-.05-.458-.075-.942-.075-1.4-.041-.625-1.225-.433-1.225.125Z" />
    <path fill="var(--b, white)"
      d="M14.758 41.75S33.75 53.717 33.55 54.1c-.192.383-.217 1.225-.692 1.108-.483-.125-18.025-11.35-18.558-12-.525-.65.458-1.441.458-1.441Z" />
    <path fill="#002780"
      d="m14.833 42.142 1.867 1.175c1.517.966 3.025 1.916 4.517 2.883 1.825 1.15 3.625 2.3 5.416 3.483l1.234.792 1.25.817 2.133 1.416c.5.334 1.025.692 1.533 1.05l.475.359c.167.125-.141-.092.025.025.025.025.025.05.05.05-.075-.025-.075-.092-.116-.117-.05-.025-.15-.333-.125-.333-.042.083-.067.208-.117.333-.05.142-.075.283-.117.425l-.083.15c-.017.025-.108.092-.108.117 0 .025.141.075.066.05l-.141-.075c-.384-.217-.767-.45-1.15-.692l-4.375-2.742c-1.867-1.166-3.717-2.375-5.567-3.575-1.533-1-3.217-2.083-4.8-3.166-.525-.359-1.083-.717-1.608-1.1l-.475-.334-.15-.125c.083.025.15.117.083.05-.083-.075.083.092.083.092-.016.05.05-.025 0 0 .034-.05 0-.05 0-.067 0-.075.034-.15.05-.191.05-.125.125-.25.192-.334.1-.125.217-.25.333-.341.267-.217-.55-1.084-.858-.817-.358.292-.692.75-.65 1.225.1.408.333.767.667 1 .341.275.7.508 1.066.775 1.434 1.008 2.925 1.967 4.417 2.925a630.7 630.7 0 0 0 5.833 3.775c1.675 1.083 3.359 2.133 5.034 3.192.533.333 1.058.666 1.608.983.267.167.625.425.958.45.334.025.484-.283.559-.575.091-.217.166-.45.216-.692 0-.25-.25-.483-.391-.625-.334-.291-.667-.55-1.05-.816a127.851 127.851 0 0 0-4.134-2.784 456.092 456.092 0 0 0-5.666-3.65 372.617 372.617 0 0 0-5.134-3.266l-2.833-1.8-.117-.092c-.166-.1-.433-.142-.408.117.025.266.317.483.5.6Z" />
    <path fill="var(--b, white)"
      d="M29.75 25.75a3.635 3.635 0 0 0-.042 2.067c.05.141.117.258.217.383a.797.797 0 0 0 .383.217c.117.025.217 0 .309-.075a.363.363 0 0 0 .075-.309.967.967 0 0 1-.075-.358c-.025-.05-.025-.125-.025-.167 0 .017 0 .117 0 0v-.083c0-.233 0-.475.05-.717l-.025.1.1-.383c.091-.267-.125-.583-.334-.725-.166-.117-.533-.233-.625.05Zm-.017 3.533c.025.259.092.525.167.767.025.05.192 0 .192 0l.416-.075c.134-.025.25-.067.4-.117.025 0 .167-.05.167-.1a2.75 2.75 0 0 1-.167-.766c0-.05-.191 0-.191 0a4.5 4.5 0 0 0-.817.191l-.092.05c-.025 0-.05.025-.075.05Z" />
    <path fill="#002780"
      d="M50.133 32.975a6 6 0 0 0 2.759-5.883c-.092-.617-1.292-.475-1.2.15a5.033 5.033 0 0 1-2.25 4.991c-.217.117-.317.384-.2.6l.05.067c.241.192.583.25.841.075Zm2.042 1.692.6-1.067c.025-.042-.05-.142-.075-.192-.067-.116-.167-.216-.283-.333a1.808 1.808 0 0 0-.334-.267c-.025-.016-.166-.091-.2-.041l-.6 1.05c-.016.05.05.15.084.191.066.125.166.217.283.334.092.1.217.2.333.266.05.025.167.1.192.05Zm-38.758 3.708c-1.609 1.658-2.5 3.917-2.4 6.217 0 .316.458.383.666.358a.583.583 0 0 0 .509-.575 7.5 7.5 0 0 1 2.208-5.5.442.442 0 0 0-.025-.592c-.025-.025-.075-.05-.092-.075a.825.825 0 0 0-.866.167Zm-1.975-1.317a5.367 5.367 0 0 0-1.434 2.325c-.075.267.192.484.384.584.116.066.283.083.433.083.092 0 .233-.017.258-.142.192-.625.484-1.2.892-1.725l.05-.05.017-.025c.05-.041.083-.091.125-.116.075-.1.141-.167.241-.242.192-.192-.025-.458-.191-.55a.867.867 0 0 0-.434-.167.408.408 0 0 0-.333.025Z" />
  </g>
</svg>