<svg xmlns="http://www.w3.org/2000/svg" viewBox="0 0 120 120" fill="none">
  <g id="doc">
    <path
      d="M18.841 37.08l29.232-.096a3.908 3.908 0 0 1 3.912 3.888l.216 63.648a3.908 3.908 0 0 1-3.888 3.912l-29.232.096a3.908 3.908 0 0 1-3.912-3.888l-.216-63.648c0-2.16 1.728-3.912 3.888-3.912z"
      fill="var(--a, blue)" />
    <path
      d="M18.936 108.793h2.16l5.4-.024 7.032-.024 7.032-.024 5.4-.024h2.208c1.656-.024 3.288-.768 4.104-2.256a4.375 4.375 0 0 0 .504-2.064v-1.632l-.024-3.432-.024-4.872-.024-5.976-.024-6.744-.024-7.152-.024-7.272-.024-7.032-.024-6.432-.024-5.496-.024-4.224V41.52c0-.888-.048-1.704-.456-2.544-.744-1.44-2.304-2.256-3.912-2.256h-.624l-4.008.024-6.432.024-7.224.024-6.408.024-3.96.024h-.624c-1.704.024-3.384.84-4.152 2.424-.408.816-.408 1.632-.408 2.496v2.616l.024 4.2.024 5.496.024 6.432.024 7.008.024 7.272.024 7.176.024 6.744.024 5.976.024 4.872v5.04c.024 2.424 2.016 4.176 4.392 4.2.168 0 .624-.024.72-.24.096-.216-.288-.312-.456-.312-1.632-.024-3-1.272-3.36-2.832a4.781 4.781 0 0 1-.096-1.008v-5.376l-.024-4.944-.024-6-.024-6.696-.024-7.128-.024-7.152-.024-6.936v-6.312l-.024-5.424-.024-4.152v-2.616c0-.816 0-1.584.36-2.352.504-1.08 1.584-1.944 2.808-1.968h.768l4.224-.024 6.432-.024 7.152-.024 6.24-.024 3.84-.024h.72c1.584.072 2.904 1.44 3.168 2.976.072.528.096 1.056.072 1.584v2.76l.024 4.32.024 5.496.024 6.408.024 6.984.024 7.176.024 7.104.024 6.648.024 5.904.024 4.8v5.064c0 1.776-1.248 3.648-3.168 3.696-.864.024-1.704 0-2.568 0l-5.568.024-6.984.024-6.888.024-5.208.024H19.2c-.192 0-.648.024-.72.24-.072.216.312.312.456.312z"
      fill="var(--a, blue)" />
    <path d="M49.397 44.826l-31.416.11.18 51.696 31.416-.11-.18-51.696z" fill="var(--b, white)" />
    <path
      d="M18.262 96.984h3.144l7.488-.024 9.048-.024 7.872-.024c1.272 0 2.544.024 3.792 0h.048c.144 0 .504-.072.504-.264v-1.392l-.024-3.768-.024-5.568-.024-6.768-.024-7.416-.024-7.512-.024-6.984-.024-5.928-.024-4.248v-2.112c0-.336-.432-.456-.696-.456h-3.144l-7.488.024-9.048.024-7.872.024c-1.272 0-2.544-.024-3.792 0h-.048c-.144 0-.48.072-.48.264v5.136l.024 5.568.024 6.768.024 7.416.024 7.512.024 7.008.024 5.928.024 4.248v2.112c0 .264.288.408.528.456.168.024.648 0 .648-.264v-5.136l-.024-5.592-.024-6.768-.024-7.416-.024-7.512-.024-6.984-.024-5.952-.024-4.248c0-.672.048-1.344 0-2.016V45l-.48.264h3.144l7.488-.024 9.048-.024 7.872-.024h2.568c.408 0 .816.024 1.224 0h.048l-.696-.456v1.392l.024 3.744.024 5.568.024 6.768.024 7.416.024 7.512.024 6.984.024 5.928.024 4.248c0 .672-.048 1.344 0 2.016v.096l.48-.264h-3.144l-7.488.024-9.048.024-7.872.048c-1.272 0-2.544-.024-3.792.024h-.048c-.216 0-.528.096-.48.36.048.264.456.36.672.36z"
      fill="var(--a, blue)" />
    <path
      d="M31.008 102.6a2.654 2.654 0 0 0 1.824 2.472 3.189 3.189 0 0 0 3.384-1.056 2.674 2.674 0 0 0 .264-3.144 2.773 2.773 0 0 0-3-1.152c-1.344.312-2.448 1.464-2.472 2.88 0 .504 1.128.12 1.128-.336 0-.408.12-.816.36-1.176.096-.12.192-.24.312-.336l.096-.072c.144-.12-.096.048.072-.048l.12-.048c.072-.024.072-.024.024 0l.096-.024c.144-.048.312-.072.48-.072.216 0 .408.024.624.096.384.12.744.384.984.696.528.672.6 1.584.192 2.328a1.495 1.495 0 0 1-.336.432c-.048.048-.096.072-.168.144a.75.75 0 0 1-.24.12h-.024a.452.452 0 0 1-.192.048c.024 0 .072-.024-.048 0-.048 0-.096.024-.168.024a1.4 1.4 0 0 1-.552-.048 2.155 2.155 0 0 1-1.632-2.088c-.024-.48-1.152-.096-1.128.36zM38.232 41.904a.744.744 0 1 0 0-1.488.744.744 0 0 0 0 1.488z"
      fill="var(--b, white)" />
    <path
      d="M38.423 41.065v.096l.024-.12a.463.463 0 0 1-.072.24l.048-.12a.373.373 0 0 1-.144.192l.096-.096c-.048.048-.12.096-.192.144l.12-.048c-.072.024-.144.072-.216.072l.144-.024c-.072 0-.12.024-.192.024h.144c-.072 0-.12-.024-.192-.024l.144.048c-.048-.024-.096-.024-.144-.072l.144.072c-.048-.024-.096-.048-.12-.096l.12.096c-.048-.048-.096-.072-.12-.12l.096.12c-.024-.048-.072-.096-.096-.144l.048.144a.445.445 0 0 1-.048-.168l.024.144v-.216l-.024.12c0-.072.024-.168.072-.24l-.048.12a.373.373 0 0 1 .144-.192l-.096.096c.048-.048.12-.096.192-.144l-.12.048c.072-.024.144-.072.216-.072l-.144.024c.072-.024.12-.024.192-.024h-.144c.072 0 .12.024.192.024l-.144-.048.144.072-.144-.072c.048.024.096.048.12.096l-.12-.096.12.12-.096-.12c.024.048.072.096.096.144l-.048-.144c.024.048.048.12.048.168l-.024-.144v.12c0 .144.072.288.168.384.096.12.24.192.408.216a.51.51 0 0 0 .384-.072.458.458 0 0 0 .168-.336c-.048-.792-.72-1.416-1.512-1.368-.096 0-.192.024-.288.048-.48.144-.816.552-.84 1.056-.024.264.048.504.192.72.168.264.384.48.672.6.24.12.504.144.744.12a1.187 1.187 0 0 0 1.032-1.176.689.689 0 0 0-.576-.624.51.51 0 0 0-.384.072c-.12.096-.192.216-.168.36zM29.953 41.568l3.816.048h.552c.216 0 .552-.168.48-.432-.072-.264-.432-.384-.696-.384l-3.816-.048h-.552c-.24 0-.552.168-.48.432.072.264.456.384.696.384zM25.03 69.337s15.217 2.736 18.769-.6c0 0-3.456-11.136-5.04-13.344s-8.664-1.128-11.352 1.152c-2.688 2.28-2.376 12.792-2.376 12.792z"
      fill="var(--b, white)" />
    <path
      d="M25.007 69.6c1.8.336 3.648.552 5.472.744 3.288.336 6.672.552 9.96.048 1.368-.216 2.88-.552 3.936-1.536.024-.048.048-.096.024-.144a176.824 176.824 0 0 0-1.992-6.024 101.886 101.886 0 0 0-1.68-4.512c-.24-.6-.504-1.2-.792-1.776a5.748 5.748 0 0 0-.744-1.224c-.456-.528-1.152-.816-1.8-.984a8.43 8.43 0 0 0-2.568-.264 15.735 15.735 0 0 0-5.544 1.104c-1.296.528-2.592 1.2-3.24 2.496-.648 1.296-.96 2.76-1.152 4.2a45.358 45.358 0 0 0-.408 7.44v.12c.024.408 1.2.504 1.2.144-.072-2.04 0-4.08.216-6.096.12-1.512.408-3 .84-4.44a5.521 5.521 0 0 1 .768-1.608c.36-.48.84-.864 1.368-1.152a12.917 12.917 0 0 1 4.944-1.536 11.24 11.24 0 0 1 2.376-.048 3.454 3.454 0 0 1 1.656.528c.336.264.6.6.768.984.264.504.504 1.032.744 1.584.6 1.392 1.128 2.832 1.632 4.272a158.38 158.38 0 0 1 2.232 6.744c.024.048.024.072.048.12l.024-.144c-.792.72-1.992 1.032-3.024 1.2-1.512.24-3.024.336-4.536.288a64.313 64.313 0 0 1-4.8-.264 73.338 73.338 0 0 1-3.936-.48l-1.872-.288c-.168-.024-.6-.024-.624.192-.024.216.36.288.504.312z"
      fill="var(--c, black)" />
    <path d="M28.177 62.425s-.648-1.992-1.488-1.44c-.816.552.408 4.344 1.704 3.48 1.296-.864-.216-2.04-.216-2.04z"
      fill="var(--b, white)" />
    <path
      d="M28.777 62.377c-.192-.576-.48-1.296-1.032-1.608-.48-.288-1.272-.264-1.68.216-.192.264-.264.6-.24.936.024.816.288 1.608.768 2.28.216.336.576.6.96.696.552.12 1.152-.024 1.56-.432a1.174 1.174 0 0 0 .216-1.488 2.734 2.734 0 0 0-.648-.744.894.894 0 0 0-.816-.048c-.192.072-.384.288-.168.456.048.048.096.072.144.12l.048.048.024.024c.072.072.096.12.144.192l.144.216c.024.048.048.072.072.12 0 .024.024.048.024.048v.024a.98.98 0 0 1 .024.456.847.847 0 0 1-.36.408c-.096.048.024 0 .024 0-.096.048.024 0 .024 0-.096.024.144-.024.048 0-.096.024.096 0 .096 0h-.024c-.024 0 .072.024.072.024l-.048-.024c-.096-.072-.024-.024 0 0a.182.182 0 0 0-.096-.048c-.024 0-.096-.096-.144-.12-.048-.024.048.048-.024-.024-.072-.072-.048-.072-.072-.096a3.688 3.688 0 0 1-.744-1.848c-.024-.168-.024-.312-.024-.48 0-.072 0-.12.024-.192v-.024c0-.024.024-.072.024-.096.024-.048.024-.096.048-.144 0-.024.024-.024.024-.024s-.048.072-.024.024l.048-.048c.024-.048-.048.024-.048.048l.048-.024s-.12.048-.048.024c.048-.024.096-.024-.072.024.072-.024-.192.024-.192.024.072 0-.144-.024-.072 0s-.12-.048-.048-.024-.048-.048.024.024c.072.072.072.048.096.072.024.024.096.096.048.024l.096.096c.12.144.216.312.288.48.072.144.144.288.192.456a.341.341 0 0 1 .048.144c0 .048-.024-.096 0-.024.072.24.408.288.624.264.168-.048.672-.168.6-.408z"
      fill="var(--c, black)" />
    <path d="M39.434 62.593s.984-1.848 1.704-1.176c.72.696-1.128 4.224-2.256 3.168s.552-1.992.552-1.992z"
      fill="var(--b, white)" />
    <path
      d="M39.983 62.4c.096-.168.192-.336.312-.48.096-.144.192-.264.288-.384a.647.647 0 0 1 .192-.168c.024 0 .048-.048 0 0l.048-.024c.072-.024-.024.024-.024.024h-.024l-.144.072c-.096.048-.192.072-.288.096.072-.024-.024 0-.024 0h.048.024c.072.024.144.048.192.096a.621.621 0 0 1 .168.264c.048.264.048.528-.048.792a4.14 4.14 0 0 1-.96 1.776c-.048.048-.096.12-.168.168l-.072.072c.096-.096-.048.024-.048.024l.048-.024c-.048.024.072-.024.072-.024-.072.048.096-.048.096-.024-.096.048.12-.048.144-.048l.072-.024c.024 0 .072-.024 0 0-.024 0 .096-.024.024 0h-.048c-.048 0 .048 0 0 0h-.048c-.024 0-.048 0-.096-.024s-.12-.048-.144-.072a1.072 1.072 0 0 1-.384-.48.745.745 0 0 1-.048-.6 1.74 1.74 0 0 1 .264-.456c.048-.072.12-.12.192-.192l.096-.072c.048-.048-.024 0-.024.024l.048-.024c.048-.024.096-.072.144-.096l-.048.024c.096-.048.384-.24.144-.24a1.63 1.63 0 0 0-.768.264c-.552.312-1.32.888-1.152 1.608.096.384.408.696.792.792a1.57 1.57 0 0 0 .744-.12c.312-.096.6-.24.864-.432a3.992 3.992 0 0 0 1.368-1.992c.12-.312.168-.648.12-.984-.048-.312-.36-.528-.696-.48h-.024c-1.032.12-1.776.888-2.256 1.752-.072.144.408 0 .456-.024.144-.048.288-.12.432-.192 0-.048.072-.096.144-.168zM34.992 55.585a16.992 16.992 0 0 1-1.776 2.16c-1.2 1.272-2.616 2.448-4.272 3.048a5.232 5.232 0 0 1-2.976.24c-.144-.048-.312.024-.36.168a.265.265 0 0 0 0 .192.886.886 0 0 0 .624.576c3.624.864 6.912-2.136 9-4.752.216-.264.432-.552.624-.84.144-.24 0-.504-.192-.672-.096-.072-.504-.336-.672-.12z"
      fill="var(--c, black)" />
    <path
      d="M27.41 60.89c2.448-.72 5.376-1.705 6.504-4.225.216-.504-.672-1.248-.96-.6-.456 1.032-1.392 1.776-2.352 2.328-1.152.624-2.376 1.08-3.648 1.416-.624.168-.096 1.248.456 1.08z"
      fill="var(--c, black)" />
    <path
      d="M26.928 59.881c1.824-1.056 3.768-2.184 4.8-4.08.168-.312-.768-1.032-.888-.816-1.032 1.896-3 3.024-4.8 4.08-.168.12.576 1.008.888.816zM36.023 57.313a7.269 7.269 0 0 0 3.456 2.04.678.678 0 0 0 .768-.36c.12-.216.024-.48-.192-.6-.024-.024-.072-.024-.096-.024l-.432-.144-.216-.072c.048.024 0 0-.024 0l-.12-.048a5.306 5.306 0 0 1-.816-.432 5.415 5.415 0 0 1-1.344-1.104c-.48-.432-1.464.264-.984.744z"
      fill="var(--c, black)" />
    <path d="M31.32 66.984l-.984 2.76s1.968 3.12 5.112.528L35.4 67.92l-4.08-.936z" fill="var(--b, white)" />
    <path
      d="M30.817 67.297l-.456 1.296-.336.936a3.425 3.425 0 0 0-.192.528c-.024.192.288.456.432.576a3.36 3.36 0 0 0 1.464.912c.792.192 1.632.096 2.328-.288.6-.312 1.176-.672 1.68-1.128.216-.168.168-.288.144-.528l-.048-1.824c0-.144.024-.144-.072-.168a4.18 4.18 0 0 0-.528-.12l-3.456-.792c-.144-.024-.432.192-.528.264-.12.072-.24.168-.336.264 0 0-.144.144-.12.144l2.688.624c.432.096.864.168 1.272.288.096.024.072 0 .096.12.024.24.024.48.024.72l.024 1.56.216-.216c-1.152.936-2.736.624-3.768-.336a3.689 3.689 0 0 1-.408-.456c-.024-.048-.072-.096-.096-.144-.024-.048-.048-.096-.048-.024.024-.144.072-.288.144-.408l.312-.864.528-1.488c.024-.096-.384.144-.408.168-.12.072-.264.168-.384.264-.024-.024-.144.048-.168.12z"
      fill="var(--c, black)" />
    <path
      d="M28.057 61.609s-.336 5.976 4.032 7.512c5.424 1.92 8.232-4.176 7.968-8.808 0 0-4.224-.936-4.992-3.6 0 .024-4.536 5.328-7.008 4.896z"
      fill="var(--b, white)" />
    <path
      d="M27.481 61.776c-.024.816.048 1.656.216 2.448.288 1.536.936 3.024 2.136 4.08 1.44 1.272 3.528 1.656 5.352 1.2a6.653 6.653 0 0 0 4.176-3.36 11.56 11.56 0 0 0 1.296-6l-.024-.024a9.175 9.175 0 0 1-2.184-.792c-1.2-.576-2.376-1.44-2.784-2.784-.072-.24-1.032.192-1.152.288-.48.576-1.008 1.104-1.536 1.632-.984.96-2.016 1.896-3.216 2.568-.144.072-.264.144-.408.216l-.072.024c-.168.072.096-.024-.072.024l-.096.024c-.12.048.048-.024-.024 0-.144.048.048 0-.12.024.096-.024-.096 0-.048 0-.12 0-.24 0-.36-.024-.288 0-.552.048-.792.192-.096.048-.408.192-.144.24.744.12 1.536-.144 2.208-.408a9.873 9.873 0 0 0 1.992-1.176 22.981 22.981 0 0 0 3.192-2.928l.648-.72-1.152.288c.576 1.92 2.736 2.952 4.512 3.48.096.024.456.072.504.144V61.08c0 .312-.024.6-.048.912-.096 1.176-.36 2.352-.816 3.432a8.144 8.144 0 0 1-1.824 2.76c-.336.336-.744.6-1.176.792-.144.072-.312.12-.48.144-.24.048-.48.048-.72.048a5.664 5.664 0 0 1-3.336-1.2 6.125 6.125 0 0 1-1.776-2.496 9.79 9.79 0 0 1-.696-4.128c-.024.024-1.152.144-1.176.432z"
      fill="var(--c, black)" />
    <path
      d="M30.456 63.529a1.305 1.305 0 0 0 0 .432c.024.12.072.264.143.36.096.12.216.216.36.264.216.072.457.12.672.12.264.024.553 0 .816-.048.024 0 .168-.024.192-.096.024-.072-.144-.096-.168-.096a1.995 1.995 0 0 0-.84-.024h-.047c-.049 0 .143-.024.047 0h.241c-.096 0 .144.024.096 0h-.049c-.047 0 .144.024.072.024h-.023c-.073-.024.095.024.048.024-.048-.024-.072-.024-.096-.048l.047.024a.578.578 0 0 1-.24-.24l.024.024a1.336 1.336 0 0 1-.12-.672v-.048c0-.048-.168-.096-.168-.096a2.645 2.645 0 0 0-.431-.048c-.145 0-.288 0-.433.024-.023.048-.143.048-.143.12z"
      fill="var(--c, black)" />
    <path d="M35.305 64.392s3.144-.48 3.84-2.256c.696-1.776-1.488-1.872-3.408 0" fill="var(--b, white)" />
    <path
      d="M35.568 64.897a7.04 7.04 0 0 0 2.976-1.128c.648-.456 1.2-1.104 1.272-1.92.072-.864-.696-1.512-1.512-1.536-1.128-.024-2.208.696-2.976 1.464-.192.192.024.552.192.696.168.144.504.312.72.096.36-.36.768-.648 1.2-.888.312-.168.648-.312 1.008-.36.072-.024.168-.024.24-.024h.096l.096.024c-.144-.024-.048-.024 0 0 .12.048-.024-.024-.024-.024s.144.096.024.024c-.12-.072-.024 0 0 0-.144-.144-.072-.072-.048-.024-.096-.144-.048-.072-.024-.024l.024.024c-.024-.072-.024-.096-.024-.048 0 0 .024.12 0 .024s0 .024 0 .048V61.49c0-.048 0-.048 0 0-.024.168-.096.312-.144.456-.024.024-.024.072-.048.096.048-.072-.024.048-.024.048-.048.072-.096.144-.144.192-.096.12-.192.216-.312.336l-.36.288c-.528.336-1.104.6-1.704.768l-.096.024c-.12.024.024 0-.048.024l-.168.048-.336.072c-.096.024-.192.048-.312.048-.288.048-.312.336-.192.552.12.264.408.432.696.432l-.048.024z"
      fill="var(--c, black)" />
    <path
      d="M24.791 56.616V54.6l-1.008.504 1.752-.216.24-.024c.12-.024.24-.072.337-.12.144-.048.288-.12.408-.192.047-.024.215-.096.24-.168.023-.072-.025-.048-.073-.024l-1.752.216-.24.024a.86.86 0 0 0-.264.096c-.12.048-.24.096-.36.168-.12.072-.168.072-.24.12-.023.024-.143.072-.143.12v1.992c0 .048.552-.144.576-.168.12-.048.264-.12.384-.192.072-.024.168-.072.143-.12zM40.656 55.105l1.392-.12-.72-.408.096 1.464.024.216c.024.264.336.384.576.408.144.024.288 0 .432-.072.072-.048.216-.12.192-.24l-.096-1.464-.024-.216c-.024-.312-.456-.432-.72-.408l-1.392.12a.725.725 0 0 0-.384.12c-.072.072-.12.168-.096.264.12.24.504.336.72.336zM23.736 70.225l-.216 1.632-.024.24c0 .096.096.12.144.12l1.512.096.216.024c.12 0 .24-.048.36-.12.144-.072.264-.168.384-.264.096-.12.264-.36 0-.384l-1.512-.12-.216-.024.144.12.216-1.632.024-.24c0-.096-.096-.12-.144-.12-.12 0-.24.048-.36.12-.192.12-.48.312-.528.552zM41.88 69.289v2.04l.432-.336h-1.44c-.12-.024-.24.024-.336.12a.486.486 0 0 0-.096.36.74.74 0 0 0 .624.576h1.44a.57.57 0 0 0 .288-.072c.072-.072.144-.144.144-.264v-2.04a.691.691 0 0 0-.504-.672.53.53 0 0 0-.384 0 .333.333 0 0 0-.168.288z"
      fill="var(--a, blue)" />
    <path
      d="M33.383 60.576c-.168.048-.288.24-.24.408 0 .024 0 .024.024.048.145.336.552.168.529-.168 0-.144-.12-.288-.264-.288h-.049zM36.29 60.385c-.168.048-.288.24-.24.408 0 .024 0 .024.024.048.144.336.552.168.528-.168 0-.144-.12-.288-.264-.288h-.048zM26.305 74.545c.192-1.152 1.104-2.112 1.848-2.976.744-.864 1.584-1.608 2.688-1.848.264-.048-.024-.312-.12-.36a1.196 1.196 0 0 0-.816-.144c-1.152.264-2.064 1.056-2.832 1.92-.408.456-.792.936-1.152 1.416a4.237 4.237 0 0 0-.792 1.656c-.024.36 1.128.624 1.176.336zM35.617 70.585c.6.48 1.128 1.056 1.584 1.68.12.168.24.312.336.48l.072.12c0 .024.072.12.024.048.048.096.096.168.144.264.096.168.192.336.264.528.048.096.096.168.12.264.024.048.024.072.048.12 0 0 .072.168.048.096.096.216.264.552.552.552.288 0 .288-.384.216-.576a10.886 10.886 0 0 0-3.168-4.392c-.168-.144-.432-.24-.552.024 0 .288.096.6.312.792z"
      fill="var(--c, black)" />
    <path
      d="M29.641 88.776c1.368-1.704-.72-3.96.504-5.664.576-.792 1.728-1.224 2.664-1.296.936-.072 1.728.624 2.064 1.44.216.6.288 1.224.264 1.848a9.21 9.21 0 0 1-.216 1.992c-.048.216 1.128.432 1.176.192.24-1.2.384-2.592-.024-3.768-.384-1.104-1.416-1.704-2.496-1.944a5.413 5.413 0 0 0-3.672.504c-.456.24-.84.6-1.08 1.032a3.068 3.068 0 0 0-.216 1.728c.144 1.152.72 2.616-.096 3.648-.12.144.312.24.384.24.144.072.648.192.744.048z"
      fill="var(--a, blue)" />
    <path
      d="M31.61 89.832a3.72 3.72 0 0 0 .168-2.64c-.024-.096-.192-.144-.264-.168a.992.992 0 0 0-.456-.048c-.144 0-.504.048-.432.288.24.792.192 1.632-.144 2.376-.096.216.24.312.408.336.144.024.312.024.456 0 .072-.024.216-.072.264-.144zM31.825 85.8c-.096-.552.12-1.224.672-1.44.144-.048.288-.072.432-.072.408.024-.168.168-.384-.264.048.072.12.144.168.24.168.336.288.696.336 1.08.216 1.344-.552 2.88.264 4.104.168.168.384.312.624.384.048.024.456.168.408.12-.48-.72-.36-1.608-.264-2.448.12-.888.096-1.776-.264-2.616-.216-.384-.528-.696-.936-.864a1.943 1.943 0 0 0-1.152-.312c-.744.096-1.104.84-.984 1.536.024.144.384.288.504.36.192.096.384.168.576.192zM37.247 89.28a3.94 3.94 0 0 0 1.056-2.76c0-.264-.336-.48-.576-.528-.168-.048-.576-.072-.552.216a3.47 3.47 0 0 1-.912 2.424c-.192.192.024.456.192.576.12.096.288.144.432.168a.46.46 0 0 0 .36-.096zM38.16 84.362a7.734 7.734 0 0 0-1.488-3.84c-.408-.553-.912-1.105-1.56-1.369a5.59 5.59 0 0 0-2.088-.312.528.528 0 0 0-.528.505v.047a.668.668 0 0 0 .648.552 4.885 4.885 0 0 1 1.56.193c.48.191.816.623 1.104 1.055a6.386 6.386 0 0 1 1.176 3.169c.072.672 1.248.744 1.176 0zM30.696 79.105c-1.56.216-2.832 1.416-3.696 2.664a3.455 3.455 0 0 0-.648 2.304c.096.84.336 1.68.696 2.448.24.624 1.368.192 1.128-.432-.504-1.248-1.032-2.664-.168-3.888.648-.912 1.608-1.92 2.76-2.088a.643.643 0 0 0 .576-.6.53.53 0 0 0-.576-.456c-.048.024-.072.048-.072.048z"
      fill="var(--a, blue)" />
    <path d="M102.909 25.176s-5.352 19.896-13.032 17.88c-7.68-2.016 7.344-19.728 7.344-19.728l5.688 1.848z"
      fill="var(--b, white)" />
    <path
      d="M102.313 25.15a68.846 68.846 0 0 1-.624 2.089c-.24.792-.456 1.368-.744 2.16-.336.888-.672 1.776-1.032 2.64a41.153 41.153 0 0 1-2.808 5.64 18.177 18.177 0 0 1-1.68 2.352c-.288.36-.6.696-.936 1.008l-.24.216-.12.096-.072.072c-.168.144-.336.264-.504.384-.168.12-.336.24-.504.336-.048.024-.264.144-.144.072l-.264.144c-.168.072-.36.144-.528.216l-.144.048c.072-.024.096-.024 0 0-.072.024-.192.048-.288.072l-.264.048-.144.024h-.024c-.192 0-.384 0-.576-.024h-.12c-.096 0 .096.024-.048 0-.144-.024-.192-.024-.312-.048s-.168-.048-.264-.072l-.12-.024c-.048-.024-.168-.048-.048-.024a1.817 1.817 0 0 1-.432-.216c-.048-.024-.216-.144-.096-.048l-.192-.144-.288-.288c-.048-.072.048.072 0 0-.024-.024-.024-.048-.048-.072-.048-.048-.072-.12-.12-.192-.024-.048-.072-.12-.096-.192-.024-.072-.096-.24-.048-.12a3.667 3.667 0 0 1-.168-.864v-.216-.024-.144c.048-1.656.696-3.12 1.392-4.56.888-1.776 1.872-3.504 3-5.136a83.932 83.932 0 0 1 3.096-4.296c.6-.768 1.2-1.536 1.848-2.304l.096-.096-.696.192 4.968 1.608.696.24c.6.192 1.2-.648.456-.888l-4.968-1.68-.696-.24a.673.673 0 0 0-.696.192c-.48.552-.912 1.128-1.368 1.68a75.65 75.65 0 0 0-3.096 4.2 45.459 45.459 0 0 0-3.24 5.256c-.816 1.56-1.608 3.264-1.896 5.016-.192 1.296-.048 2.784 1.08 3.624 1.344 1.008 3.264 1.032 4.752.384 1.728-.744 3.072-2.184 4.128-3.672 1.248-1.776 2.328-3.648 3.192-5.64a55.286 55.286 0 0 0 2.136-5.424 47.69 47.69 0 0 0 .984-3.144c.024-.048.024-.096.048-.144.072-.288-.264-.48-.504-.48a.59.59 0 0 0-.672.408z"
      fill="var(--c, black)" />
    <path
      d="M62.544 29.952s16.872-1.536 19.632-6.072c0 0-6.864-10.752-9.168-12.624-2.304-1.872-9.48 1.32-11.664 4.488-2.184 3.168 1.2 14.208 1.2 14.208z"
      fill="var(--b, white)" />
    <path
      d="M62.927 30.311a84.22 84.22 0 0 0 5.952-.792c3.48-.576 7.056-1.296 10.296-2.736 1.296-.576 2.76-1.344 3.528-2.592.024-.048.024-.096-.024-.12a174.816 174.816 0 0 0-3.72-5.616c-.984-1.44-1.968-2.856-3.024-4.248-.792-1.032-1.584-2.136-2.592-2.976-1.296-1.104-3.024-1.032-4.608-.672a16.459 16.459 0 0 0-5.544 2.568c-1.248.888-2.52 1.992-2.904 3.552-.36 1.56-.24 3.192-.048 4.752.336 2.736.936 5.424 1.728 8.04.024.048.024.096.048.144.12.24.312.408.552.528.048.024.552.216.48.024a51.704 51.704 0 0 1-1.56-6.6c-.264-1.632-.48-3.336-.384-4.992a5.943 5.943 0 0 1 .384-1.92 5.06 5.06 0 0 1 1.224-1.68 14.711 14.711 0 0 1 5.016-3.12c.864-.36 1.776-.6 2.688-.744.672-.096 1.536-.144 2.088.072l.096.048c.144.048-.096-.048.048.024.024.024.048.024.072.048-.12-.072-.048-.024-.024 0 .12.096-.096-.072.024.024 0 0 .048.024.048.048l.048.048c-.144-.12-.024-.024 0 0 .072.072.168.144.24.24l.12.12.12.12c.432.48.84.96 1.224 1.464 1.008 1.296 1.968 2.64 2.928 4.008a282.23 282.23 0 0 1 4.176 6.24l.072.12v-.12c-.672 1.08-1.872 1.776-3 2.304a26.724 26.724 0 0 1-4.824 1.68 73.057 73.057 0 0 1-9.624 1.8c-.504.072-1.032.12-1.536.192l-.432.048h-.12c-.24.024-.072.24.024.336.168.096.504.36.744.336z"
      fill="var(--c, black)" />
    <path
      d="M43.438 36.624c-4.272-2.304 21.408-9.888 27.528-10.488 6.12-.6 16.008 5.424 17.904 6.96 2.808 2.328 6.168 27.072-21.912 27.072 0 0-7.584-1.128-11.304-6C51.934 49.296 52.51 41.4 52.51 41.4l-8.832-5.04"
      fill="var(--c, black)" />
    <path
      d="M66.96 60.287c-.097-.024-7.68-1.176-11.4-6.048-3.529-4.608-3.217-11.952-3.193-12.768l-8.76-5.016.12-.216 8.88 5.088v.072c0 .072-.528 7.896 3.12 12.672 3.648 4.776 11.16 5.928 11.232 5.952 14.808 0 20.352-6.84 22.416-12.576 2.328-6.504.72-13.2-.6-14.28-1.68-1.368-11.64-7.56-17.808-6.936-6.024.6-27.36 7.008-27.888 9.672-.024.096-.072.336.408.6l-.12.216c-.408-.216-.6-.504-.528-.864.6-3 22.68-9.336 28.104-9.864 6.264-.624 16.32 5.616 18 6.984 1.392 1.152 3.096 7.824.672 14.544-2.088 5.832-7.704 12.768-22.656 12.768z"
      fill="var(--c, black)" />
    <path d="M63.862 21.744s-1.272-1.92-1.968-1.08c-.696.84 1.704 4.464 2.808 3.192 1.104-1.272-.84-2.112-.84-2.112z"
      fill="var(--b, white)" />
    <path
      d="M64.367 21.408a4.1 4.1 0 0 0-.504-.624c-.288-.312-.672-.672-1.128-.744-.648-.024-1.248.36-1.464.96-.072.36-.024.744.12 1.104.288.84.84 1.584 1.56 2.112.312.24.696.336 1.08.288.672-.168 1.224-.648 1.44-1.296.288-.84-.48-1.56-1.176-1.848-.24-.096-.552.072-.72.24-.096.096-.384.432-.144.528.168.072.36.168.504.288l.096.072.048.024v.048l.192.192.144.216c.024.048.048.072.048.12-.024-.048.024.048.024.072 0 .048.024.096.024.144V23.376c0 .072-.024.096-.024.144l-.024.096c.024-.072 0 0-.024.024l-.048.072c-.072.12.048-.048 0 .024a.421.421 0 0 0-.096.12c0-.024.12-.12.048-.048s-.096.072.072-.048c-.12.072.144-.072.024-.024-.048.024.168-.048.024 0 .168-.048.072-.024.024 0-.072.024.096 0 0 0-.048 0-.096 0-.12-.024h-.048c-.072 0 .048.024.024 0l-.096-.024c-.072-.024-.144-.072-.216-.096l-.216-.144c-.072-.048-.12-.096-.192-.144a2.243 2.243 0 0 1-.384-.432 4.161 4.161 0 0 1-.648-1.032c-.048-.072-.072-.168-.12-.264l-.072-.216a1.397 1.397 0 0 1-.072-.456v-.096-.048-.048l.024-.048c.024-.072.048 0-.024.024.024-.024.024-.024.024-.048-.024.072-.096.096-.024.048 0 0-.12.096-.048.048a.498.498 0 0 1-.24.144c.072-.024-.024.024-.048 0s.048-.024.072 0c.024.024-.12-.024-.024 0h.096c.024 0 .048.024-.024 0l.072.024c.096.048.192.096.264.144.048.024.096.072.12.096.024.024.072.048.096.072.072.072.168.144.24.24a4.1 4.1 0 0 1 .504.624c.12.192.528 0 .672-.096.144-.096.408-.36.288-.576z"
      fill="var(--c, black)" />
    <path d="M75.792 18.671s.504-2.232 1.44-1.728c.936.504.025 4.776-1.463 3.984-1.489-.792.023-2.256.023-2.256z"
      fill="var(--b, white)" />
    <path
      d="M76.391 18.695c.024-.048.024-.12.048-.168 0-.024.024-.048.024-.072l.024-.048c.024-.072-.024.048-.024.048.024-.072.048-.168.072-.24.048-.168.12-.336.216-.48.024-.048.048-.072.048-.12.072-.12-.072.096.024-.024.048-.072.12-.144.168-.216.048-.072-.048.048-.048.048l.048-.048c.024-.024.12-.096.024-.024-.096.072.12-.048-.024 0-.096.024-.048.024-.024 0 .096-.024-.12 0-.048 0h-.024s.168.096.024 0l.048.048c-.168-.144-.048-.024-.024-.024s.072.12 0 0 0 0 0 .024c.024.048.048.12.072.192-.024 0-.024-.144-.024-.048v.048c0 .024.024.072.024.096a.816.816 0 0 1 .024.24V18.36c-.024.192-.048.36-.072.552l-.072.288c0 .048-.024.096-.024.12l-.024.072c.024-.072.024-.048 0 0-.048.168-.12.36-.216.528a.973.973 0 0 1-.12.216c-.048.072.072-.096 0 .024l-.072.096c-.024.024-.048.072-.072.096l-.024.024-.024.024c-.024.024-.072.048-.096.072-.024.024.144-.072.048-.024-.024 0-.048.024-.072.048-.024 0 .168-.048.024-.024-.144.024.024 0 .024 0s-.144-.024-.048 0c.096.024 0 0-.024 0s-.12-.048-.048-.024 0 0-.024 0-.096-.048-.12-.072l-.096-.072c.024.024.048.024 0 0l-.072-.072c0-.024-.096-.12-.048-.048s0-.024-.024-.024l-.048-.096c-.024-.072 0-.024 0 0 .024.072 0-.024 0-.048v-.072c-.024-.096-.024.048 0 0s0-.096.024-.144c.024-.048.024-.048.024-.072-.048.096 0-.024 0 0a.341.341 0 0 0 .048-.144c0-.048.048-.096.072-.144.048-.12-.072.096.024-.048l.144-.216c.048-.072.312-.336.072-.096.216-.192.336-.528.12-.768a.622.622 0 0 0-.816-.048c-.672.648-1.248 1.704-.624 2.592.336.504.936.768 1.536.696.456-.096.84-.384 1.104-.768a5.066 5.066 0 0 0 .792-2.76 2.171 2.171 0 0 0-.216-1.104c-.264-.504-.864-.72-1.416-.504-.528.192-.864.744-1.056 1.224-.144.312-.24.648-.312 1.008-.048.288.168.528.432.576h.048a.7.7 0 0 0 .696-.528zM69.119 12.623c-.336.96-.744 1.872-1.224 2.76-.912 1.704-2.064 3.336-3.624 4.488a5.54 5.54 0 0 1-2.952 1.08c-.24 0-.504.12-.408.408.12.288.384.456.696.456 4.128-.144 6.768-4.2 8.232-7.632.144-.36.288-.72.408-1.08.144-.528-.96-.984-1.128-.48z"
      fill="var(--c, black)" />
    <path
      d="M62.568 20.303c2.256-1.392 5.016-3.216 5.448-6.072.024-.192-.264-.504-.384-.648-.048-.048-.36-.384-.384-.216-.432 2.808-3.216 4.608-5.424 5.976-.144.096.552 1.08.744.96z"
      fill="var(--c, black)" />
    <path
      d="M61.606 19.583c1.68-1.68 3.432-3.504 3.984-5.88.096-.432-.768-1.2-.912-.6-.528 2.232-2.256 3.96-3.816 5.52-.192.192-.048.504.096.696.096.144.456.456.648.264zM70.609 13.632a8.865 8.865 0 0 0 4.656 1.248c.144 0 .456-.096.264-.288a1.154 1.154 0 0 0-.792-.24 9.3 9.3 0 0 1-.816-.048 3.398 3.398 0 0 1-.48-.096c-.096-.024-.216-.048-.36-.096-.552-.168-1.104-.384-1.584-.696a1.264 1.264 0 0 0-.84-.144c-.216.072-.264.24-.048.36z"
      fill="var(--c, black)" />
    <path d="M68.494 25.655l-.24 3.192s3 2.736 5.544-.936l-.744-2.448-4.56.192z" fill="var(--b, white)" />
    <path
      d="M67.92 25.51l-.192 2.377-.048.6a.817.817 0 0 0-.024.24c.048.12.312.264.408.312.936.624 2.04.96 3.168.96.6 0 1.2-.168 1.704-.504.312-.192.576-.408.816-.672l.432-.504c.048-.072.168-.192.168-.288a1.992 1.992 0 0 0-.144-.504l-.24-.792-.336-1.128c-.024-.096-.336-.168-.408-.192a2.083 2.083 0 0 0-.672-.12l-4.56.192c-.24 0 .144.144.192.168.264.096.528.144.816.168l4.56-.192-1.08-.312.624 2.088c.048.12.096.216.096.336 0 .096-.12.192-.168.264-.144.168-.264.336-.432.504-.432.48-1.008.84-1.632 1.032-.24.072-.504.096-.768.096-.072 0-.216-.024-.216-.024-.144 0 .096.024.024 0-.072-.024.024 0 .024 0-.048-.024-.048 0 0 0l-.216-.072c-.072-.024-.144-.072-.24-.096a2.073 2.073 0 0 1-.384-.24 1.464 1.464 0 0 1-.384-.288c.024-.072.024-.12.024-.192l.048-.528.192-2.472c.024-.12-1.152-.288-1.152-.216z"
      fill="var(--c, black)" />
    <path
      d="M63.504 20.903s1.368 6.408 6.432 6.768c6.288.456 7.488-6.792 5.856-11.592 0 0-4.728.216-6.312-2.352 0 0-3.24 6.936-5.976 7.176z"
      fill="var(--b, white)" />
    <path
      d="M62.904 20.856c.216.936.552 1.848.984 2.688.816 1.608 2.04 3.072 3.72 3.816 1.944.864 4.464.864 6.312-.24 1.608-.96 2.496-2.712 2.88-4.488.432-2.184.288-4.44-.432-6.552-.072-.216-.552-.24-.72-.24h-.528c-.12 0 .12 0 0 0l-.288-.024c-.216 0-.432-.024-.624-.048l-.336-.048H73.8l-.216-.048c-.264-.048-.528-.096-.816-.168a6.41 6.41 0 0 1-1.416-.552 3.404 3.404 0 0 1-1.296-1.248.781.781 0 0 0-.552-.24c-.144 0-.504-.024-.6.144-.36.792-.792 1.56-1.224 2.304-.792 1.344-1.656 2.688-2.784 3.768a4.934 4.934 0 0 1-.888.696c-.12.072-.24.144-.384.192a1.13 1.13 0 0 1-.384.096c-.168.024-.408.144-.24.336.168.192.576.192.816.168C65.28 21 66.408 19.68 67.248 18.6a24.559 24.559 0 0 0 2.376-3.864c.144-.288.312-.6.456-.888l-1.152-.096c1.248 2.016 4.056 2.52 6.264 2.592.264 0 .504.024.768 0l-.72-.24c.6 1.776.768 3.672.552 5.52-.216 1.704-.84 3.48-2.136 4.656-.6.552-1.368.912-2.16 1.08a4.939 4.939 0 0 1-2.64-.144c-1.608-.552-2.784-1.896-3.576-3.336-.36-.648-.648-1.32-.888-2.016a7.06 7.06 0 0 1-.192-.672c-.024-.072-.024-.12-.048-.192-.024-.144-.024-.072 0 0-.144-.432-1.296-.432-1.248-.144z"
      fill="var(--c, black)" />
    <path
      d="M66.625 22.128c.024.168.072.312.144.456a.95.95 0 0 0 .24.36c.192.144.408.24.648.264.456.048.912-.024 1.32-.216.048-.024.168-.072.168-.168 0-.096-.144-.12-.192-.12-.144-.024-.288-.048-.432-.024a1.13 1.13 0 0 0-.408.096c-.048.024-.096.048-.144.048h-.024s.12-.048.072-.024l-.048.024c-.096.024.12-.024.072-.024h-.048c-.024 0 .192-.024.12-.024h.096-.048c-.072 0 .168.024.096 0-.096-.024-.024 0 0 0s.096.024 0 0c-.072-.024-.024 0 0 0 .072.024 0 0-.024-.024s-.048-.024-.072-.048l.072.048a1.263 1.263 0 0 1-.288-.336l.024.048a1.593 1.593 0 0 1-.144-.48c0-.072-.12-.12-.192-.12a1.311 1.311 0 0 0-.432-.024 1.13 1.13 0 0 0-.408.096c-.048.024-.168.072-.168.168v.024z"
      fill="var(--c, black)" />
    <path d="M71.95 21.743s3.168-1.416 3.408-3.504c.24-2.088-2.112-1.536-3.6.984" fill="var(--b, white)" />
    <path
      d="M72.166 21.815c.432-.192.84-.432 1.224-.696a7.312 7.312 0 0 0 1.944-1.704c.264-.336.432-.696.552-1.104.096-.36.096-.744 0-1.104-.312-.792-1.32-.504-1.92-.264-1.176.456-2.088 1.392-2.712 2.472-.096.144.432.024.456 0 .192-.072.528-.168.648-.384a7.37 7.37 0 0 1 .912-1.224c.144-.144.288-.264.456-.408l.12-.096.048-.048c-.072.048-.024 0 0 0l.096-.048c.096-.048 0 0-.024 0l.072-.024c-.12.048.096-.048 0 0-.096.024-.072.024 0 0s-.048 0-.048 0h.168c.048 0 .096 0 .144.024.24.072.408.24.48.456.24.672-.096 1.44-.48 1.992a5.939 5.939 0 0 1-1.56 1.44l-.072.048-.072.048-.216.12-.192.096c-.072.024-.24.12-.072.048-.12.048-.216.12-.336.168-.072.024-.456.216-.312.312.048.048.24-.024.288-.024.12.024.264-.024.408-.096zM68.71 18.504c.216.024.36.216.336.408 0 .024 0 .048-.024.072-.12.408-.6.264-.624-.096-.024-.168.072-.336.24-.36.024-.024.048-.024.072-.024zM71.71 17.566c.216.024.36.216.336.432 0 .024 0 .048-.024.048-.12.408-.6.264-.624-.096-.024-.168.072-.336.24-.36.048-.024.072-.024.072-.024z"
      fill="var(--c, black)" />
    <path
      d="M97.102 29.016s-.937.336-1.56-.912c-.624-1.248-6.672-11.904-6.745-12.792-.072-.912 6.313-4.392 7.657-4.272 1.344.12 7.679 13.056 7.631 13.872-.048.816-6.983 4.104-6.983 4.104z"
      fill="var(--a, blue)" />
    <path
      d="M96.621 28.68c-.096.023-.168.047-.264.047s-.168 0-.264-.024c-.024 0-.12-.048-.144-.048.024 0 .48.408.384.264-.024-.048-.072-.096-.12-.144-.144-.24-.288-.48-.408-.72-.336-.624-.672-1.248-1.032-1.872-1.032-1.872-2.064-3.72-3.072-5.592-.792-1.464-1.656-2.952-2.304-4.488a1.182 1.182 0 0 1-.144-.408c0-.216.216-.408.336-.528a11.84 11.84 0 0 1 2.208-1.56c.96-.576 1.944-1.08 2.952-1.536.672-.288 1.392-.624 2.112-.624h.024a1.826 1.826 0 0 0-.456-.288l-.024-.024c-.024-.024.048.048 0 0l.072.072c.192.216.36.432.504.648.48.672.912 1.368 1.32 2.064 1.056 1.8 2.04 3.672 2.976 5.544.72 1.464 1.464 2.952 2.064 4.464.096.264.312.624.12.864a2.214 2.214 0 0 1-.624.528c-.36.24-.72.48-1.104.696-1.56.912-3.192 1.728-4.824 2.52l-.288.144c-.048.024.408.384.456.408.096.072.408.336.528.288a65.86 65.86 0 0 0 4.104-2.088 17.05 17.05 0 0 0 2.376-1.464c.144-.12.408-.288.48-.504 0-.12 0-.264-.072-.36a19.232 19.232 0 0 0-.648-1.632 82.563 82.563 0 0 0-1.2-2.544c-.96-1.968-1.968-3.936-3.072-5.832-.456-.768-.912-1.56-1.416-2.28a6.836 6.836 0 0 0-1.296-1.464c-.264-.192-.6-.48-.936-.504-.312 0-.624.072-.912.192a18.365 18.365 0 0 0-2.904 1.272c-.984.504-1.92 1.08-2.832 1.728-.312.24-1.08.696-.984 1.2a7.99 7.99 0 0 0 .648 1.464c.432.864.888 1.728 1.344 2.568a471.41 471.41 0 0 0 3.264 5.952c.384.696.768 1.392 1.152 2.112.096.192.216.384.312.576a3.534 3.534 0 0 0 1.704 1.536c.264.12.576.144.864.072-.144-.144-.288-.288-.456-.408-.072-.096-.36-.336-.504-.288z"
      fill="var(--a, blue)" />
    <path
      d="M97.32 28.535s-.695.216-1.295-.984-6.264-11.352-6.408-12.192c-.144-.84 4.44-3.36 5.496-3.12 1.056.24 7.176 12.504 7.224 13.248.048.744-5.016 3.048-5.016 3.048z"
      fill="var(--b, white)" />
    <path
      d="M96.961 28.08c.264-.073.024 0 .024-.025l-.024.024c.12 0 0-.024 0 0l-.072-.024c-.024 0-.12-.072-.048-.024l-.144-.144a6.104 6.104 0 0 1-.384-.672c-.264-.504-.552-1.008-.816-1.512-.864-1.584-1.728-3.144-2.568-4.728-.792-1.488-1.608-2.952-2.352-4.464l-.168-.36-.096-.192c-.024-.048-.096-.24-.024-.072-.048-.144-.12-.288-.168-.408-.048-.096 0 .048 0 .048 0-.048.024-.024 0 .048 0-.024 0-.048.024-.072 0-.024.024-.048.024-.072 0 0-.048.072 0 .024.048-.072.096-.12.12-.168a4.2 4.2 0 0 1 .792-.672 13.902 13.902 0 0 1 2.472-1.392c.384-.168.768-.336 1.176-.432.12-.024.264-.048.384-.072.024 0 .216-.024.072 0 .096 0 .144.048 0 0 .024 0-.168-.096-.048-.024-.048-.024-.168-.096-.048-.024.12.072.048.144-.024-.024.024.048.072.072.096.12.048.072.12.144.168.216.048.072.072.096.12.144.048.048.024.048.048.048.048.072-.072-.12.024.024.384.552.72 1.128 1.08 1.704 1.728 2.928 3.288 6 4.704 9.072 0 .024.072.144.024.024.024.048.024.072.048.12l.072.168.168.384c.072.168.144.336.216.528.024.048.024.12.048.168.024.096 0-.048 0-.072l-.024.048c-.024.048-.048.072-.072.096-.096.096-.192.192-.312.288-.648.456-1.344.888-2.064 1.224-.672.36-1.368.696-2.04 1.008l-.408.12c-.48.216.336 1.104.744.888 1.32-.576 2.568-1.248 3.816-1.968.336-.192.648-.408.936-.672a.847.847 0 0 0 .36-.624 2.545 2.545 0 0 0-.36-1.008c-.624-1.464-1.344-2.88-2.064-4.296-.864-1.704-1.752-3.408-2.712-5.064-.384-.648-.768-1.32-1.176-1.944-.264-.48-.6-.912-1.008-1.296-.528-.456-1.104-.36-1.728-.168-.912.312-1.776.72-2.592 1.224-.408.24-.816.504-1.176.792a2.658 2.658 0 0 0-.744.72c-.288.432-.072.816.12 1.248.648 1.416 1.416 2.784 2.136 4.152.936 1.728 1.872 3.432 2.808 5.16.336.6.672 1.2.984 1.824.36.696.72 1.44 1.44 1.824.288.168.624.216.96.144.264-.072.072-.48-.024-.624a.716.716 0 0 0-.72-.312z"
      fill="var(--a, blue)" />
    <path
      d="M91.294 14.28s-.312.192-.192.408c.12.216.24.216.768-.024s1.464-.672 1.536-.936c.072-.264-.144-.504-.504-.336-.36.168-1.608.888-1.608.888z"
      fill="var(--a, blue)" />
    <path
      d="M90.913 13.823a.792.792 0 0 0-.384.816c.12.432.504.72.936.72.288-.048.576-.144.84-.288.288-.12.576-.264.84-.408.24-.12.456-.288.648-.48a.806.806 0 0 0-.072-1.056 1.035 1.035 0 0 0-.768-.336c-.192.024-.36.072-.528.168-.192.096-.36.192-.528.288-.336.192-.672.384-.984.576-.12.048-.168.192-.168.312 0 .144.048.288.144.384.192.24.528.312.792.168.528-.288 1.032-.6 1.56-.864h.024l-.072.048.072-.024h-.072.048-.096c-.096-.048-.12-.048-.096-.024a.373.373 0 0 1-.192-.144c.072.072-.072-.144-.024-.048l-.024-.096v-.072-.024c-.024.048-.048-.024.048-.072 0 0-.024.024-.024.048l-.024.024c-.048.072.12-.096.048-.048-.072.072-.168.12-.24.168-.192.12-.384.24-.6.336-.12.048-.024.024 0 0l-.096.048-.144.072-.336.144-.192.072a.445.445 0 0 1-.168.048s.144-.024.072-.024.144.024.072 0l.12.048c-.048-.024-.024 0 .096.072-.048-.048 0-.048.072.072 0-.024-.024-.024-.024-.048.072.096.096.12.048.072s-.024-.024 0 .024c.024.072.048.144.024.216.024-.072-.072.12 0 .024.024-.048.072-.048-.024.024.024 0 .024-.024.048-.048l.048-.048c.264-.144.192-.552.024-.744-.168-.168-.504-.24-.744-.096z"
      fill="var(--a, blue)" />
    <path
      d="M103.03 16.991s.36-.84-1.248-2.064c-1.68-1.248-3.672-2.688-4.152-1.896-.48.792-.84 2.16 3.408 4.224l1.992-.264z"
      fill="var(--b, white)" />
    <path
      d="M103.63 17.112a1.069 1.069 0 0 0-.096-.768c-.312-.768-1.056-1.272-1.68-1.752-.744-.6-1.56-1.128-2.424-1.56a3.834 3.834 0 0 0-1.152-.384c-.336-.048-.768-.12-1.056.072-.216.192-.36.456-.408.744-.072.288-.048.6.072.888.192.432.48.816.84 1.104a9.21 9.21 0 0 0 1.968 1.344c.528.288 1.152.696 1.776.648.192-.024.384-.048.552-.072l1.44-.192c.216-.024.24-.144.048-.24a1.474 1.474 0 0 0-.84-.168l-1.992.264.84.168c-1.032-.504-2.136-1.056-2.928-1.92-.36-.384-.648-.864-.6-1.416.024-.192.072-.384.168-.552.024-.072.072-.144.12-.216.048-.048.12-.072.144-.12.024-.048.024.024.024 0s-.24-.024-.096 0c-.144-.024.072.024-.024 0 .048.024.12.048.192.072.072.024.192.096.264.144.312.168.624.36.912.552.6.408 1.2.816 1.752 1.272.432.336.864.792 1.032 1.32a.9.9 0 0 1 0 .504c-.12.216 1.032.552 1.152.264z"
      fill="var(--c, black)" />
    <path d="M104.016 19.535s.576-2.688-1.416-3.24-5.04 4.944-2.208 4.68c2.832-.264 3.624-1.44 3.624-1.44z"
      fill="var(--b, white)" />
    <path
      d="M104.52 19.87c.192-.911.072-1.967-.48-2.711-.456-.648-1.296-1.272-2.112-1.272-.504.048-.984.24-1.344.576a5.119 5.119 0 0 0-1.776 2.928 1.521 1.521 0 0 0 .456 1.392c.264.264.6.456.96.576.336.072.696.072 1.032 0a6.484 6.484 0 0 0 2.568-.84c.264-.144.504-.36.696-.6.168-.24-.792-.96-.936-.744-.408.6-1.272.936-1.92 1.128-.432.12-.888.216-1.32.264-.168.024-.36.048-.528.048h-.12c-.024 0-.192-.048-.096-.024-.072-.024-.096-.048-.024 0-.096-.048.096.048.096.072 0 .024.192.168.096.096 0 0 .096.12.048.048.096.096.048.072.024.048-.048-.072.024.048 0 0l-.024-.072c-.024-.072-.048-.12-.048-.192v-.288c.048-.984.72-1.992 1.368-2.688.312-.36.72-.648 1.152-.816.168-.072.36-.096.552-.072.12.024.216.048.312.096.024.024.096.048.024.024 0 0 .144.072.048.048-.048-.024-.024-.024 0 0-.048-.048-.072-.048-.024-.024.048.072-.072-.096 0 .024.048.072-.024-.048.024.048.024.048.072.096.096.144.072.144.12.288.168.432.072.264.12.552.12.816.024.312 0 .648-.072.96-.024.072.12.216.144.264.096.12.216.216.36.312.096-.024.432.192.48 0z"
      fill="var(--c, black)" />
    <path
      d="M103.943 22.991s2.448-2.376.048-4.032c-2.4-1.656-4.632 2.448-3.84 3.48.792 1.032 2.688-1.056 2.688-1.056l1.104 1.608z"
      fill="var(--b, white)" />
    <path
      d="M104.422 23.35c.624-.6 1.152-1.487 1.2-2.375.072-1.608-1.608-2.976-3.144-2.856-1.2.096-2.16 1.128-2.664 2.16-.24.456-.36.96-.384 1.488 0 .648.432 1.2 1.056 1.368.696.192 1.368-.168 1.92-.576.336-.24.624-.504.912-.816l-.984-.288 1.104 1.608a.824.824 0 0 0 .768.384.35.35 0 0 0 .312-.384.445.445 0 0 0-.048-.168l-1.104-1.608c-.12-.168-.288-.312-.48-.36-.168-.072-.36-.024-.504.072a4.508 4.508 0 0 1-.6.576c-.096.072-.168.144-.264.216-.048.048-.096.072-.144.096l-.072.048c-.072.048.048-.024-.024.024-.096.072-.192.12-.312.168a.341.341 0 0 1-.144.048l-.096.024c-.048 0 .096-.024-.024 0-.048 0-.096 0-.144.024.096-.024.096 0 .048 0h-.024-.024l.072.024c-.144-.048.096.072-.024-.024.12.096.048.048.024.024-.096-.096.048.024.024.024s-.048-.072-.048-.072c-.048-.072.024.096.024.048 0-.024 0-.048-.024-.048 0-.048-.024-.072-.024-.12-.024-.12 0 .072 0-.048v-.12c0-.096.024-.216.024-.312 0-.048.024-.096.024-.144 0-.048 0-.048.024-.072-.024.096 0 .024 0 0 .024-.12.072-.24.12-.36.096-.216.192-.432.312-.648.072-.096.144-.216.216-.312l.024-.024.048-.072a.43.43 0 0 0 .12-.168c.168-.192.36-.36.576-.504l.048-.024.048-.024.144-.072.36-.144c-.12.048.048 0 .072-.024l.168-.024h.072c-.12 0-.048 0 0 0l.216.024c-.12 0 0 0 .048.024s.264.096.096.024c.048.024.12.048.168.072l.096.048c.12.048 0-.024.024 0s.144.096.216.168c.048.048.12.096.168.144.096.096.192.216.264.336.12.192.192.432.216.648 0 .144 0 .312-.024.456 0 .024 0 .048-.024.072-.024.024-.024.144 0 .048-.024.072-.048.12-.072.192a3.365 3.365 0 0 1-.36.72l-.12.168-.048.048c-.072.096.048-.072 0 0s-.12.144-.168.216c-.048.072-.12.12-.168.192-.48.48.528 1.128.912.768zM92.997 18.48c-.096.336-.048.696.144.984.192.312.504.576.84.72a2.333 2.333 0 0 0 1.752.096c.6-.264.96-.864.888-1.488a2.073 2.073 0 0 0-2.208-1.944 2.007 2.007 0 0 0-.744.192.372.372 0 0 0-.24.288.45.45 0 0 0 .096.384c.144.216.504.432.792.288l.144-.072c.024 0 .12-.024.144-.048.024-.024-.12.024-.024 0h.072c.048 0 .096 0 .144-.024h-.024.072l.144.024c.096.024-.048 0-.048 0l.072.024.072.024c.024 0 .12.048.024 0s.024.024.048.048.048.024.048.048c.096.048-.024-.024-.048-.024.024.048.072.072.096.096.024.024.024.048.048.048-.024 0-.072-.096-.024-.024.024.048.048.072.072.12.024.048-.048-.096-.024-.024l.024.072c.024.048.024.072.048.12 0 0 .024.048.024.072 0-.072-.024-.072 0-.048v.048c.024.096.024.192.024.264v-.024.072c0 .048-.024.096-.024.168 0 .024-.024.048-.024.072 0-.024.048-.096 0 0-.024.048-.048.096-.072.12l-.048.072c-.048.048.072-.048.024-.024l-.12.096c-.072.048.024 0 .024 0-.024.024-.048.024-.048.024a.405.405 0 0 1-.12.048c-.024 0-.048 0-.072.024 0 0 .096-.024.048 0s-.096.024-.168.024c-.072 0-.144.024-.144 0s.12 0 .024 0h-.072c-.048 0-.096 0-.144-.024-.024 0-.048 0-.072-.024-.096-.024.072.024 0 0l-.168-.048c-.024 0-.048-.024-.072-.024.048 0 .12.048.024 0l-.048-.024-.048-.024c-.048-.024-.024-.024.048.048l-.048-.048c-.072-.072.048.072 0 .024-.048-.048-.024-.048-.048-.048l-.024-.024c-.024-.048-.024-.024.024.048-.024 0-.048-.192-.048-.096v-.024c0-.024-.024-.072 0-.096.024-.024-.024.12 0 .024 0-.048.024-.072.024-.096a.45.45 0 0 0-.096-.384c-.096-.12-.216-.24-.36-.288a.481.481 0 0 0-.648.216c.072-.048.048-.048.048-.024z"
      fill="var(--c, black)" />
    <path
      d="M96.193 22.464a6.758 6.758 0 0 1-.24-1.392v-.144-.072c0-.048 0-.12.024-.168 0-.024 0-.024 0 0 .024-.048.024-.048 0 0-.072.072-.024 0 .024-.024-.072.048-.072.048-.048.024l.048-.024c.12-.072-.096.024.024 0l.144-.048h-.048.072l.144-.024H96.505c.048 0 .096.024.12.024-.096-.024.048.024.072.024.048.024.096.024.144.048.024 0 .12.072.048.024.312.216.6.48.792.816.168.24.504.192.72.072.168-.096.504-.408.336-.648a3.173 3.173 0 0 0-1.104-1.08c-.504-.24-1.08-.264-1.632-.096-.288.096-.576.24-.792.432-.264.24-.408.576-.408.936 0 .552.072 1.128.24 1.656.072.216.336.336.552.264.024 0 .024-.024.048-.024.264-.024.648-.288.552-.576z"
      fill="var(--c, black)" />
    <path
      d="M95.04 16.68l.265-.168c.072-.048.144-.096.24-.144l-.096.024h.024-.096l-.12-.024-.456-.264.024.024.072.072.12.144.24.288c.12.12.24.192.384.264.12.048.24.072.36.072.072-.024.168-.048.144-.144A.572.572 0 0 0 96 16.56l-.264-.312a2.063 2.063 0 0 0-.48-.432c-.12-.072-.24-.12-.36-.144a.333.333 0 0 0-.216 0 .719.719 0 0 0-.24.096l-.36.216a.156.156 0 0 0-.048.216c.048.12.144.216.24.288.12.096.264.168.408.216.12.024.24.024.36-.024zM92.661 17.447l-.336.24a1.98 1.98 0 0 0-.6.504c-.072.072-.096.168-.048.264.024.048.072.096.12.168l.24.336c.048.048.168.024.216.024.144-.048.264-.096.384-.192.12-.072.216-.192.312-.288.024-.048.12-.144.072-.216l-.192-.264-.096-.12c-.024-.048-.048-.072-.072-.12v0l-.024.072.024-.024-.048.072-.144.144c-.12.072-.144.096-.096.072h.024l.072-.048.144-.096.264-.216c.12-.072.24-.168.336-.288.024-.024.12-.168.072-.216-.048-.048-.168-.024-.216-.024a6.32 6.32 0 0 0-.408.216zM94.27 22.872c.047.144.12.288.216.432.047.072.12.144.191.216.192.144.432.192.672.144.144-.048.288-.12.408-.216l.168-.144.36-.288a.383.383 0 0 0 .193-.336c0-.12-.048-.264-.144-.336-.264-.168-.6-.168-.84.024l-.313.24c-.096.072-.191.168-.287.24l.12-.072s-.024 0-.024.024l.144-.048h-.025l.169-.024h-.025.144-.023l.144.048-.049-.024.12.072c-.023-.024-.072-.048-.096-.072l.097.096c-.073-.072-.12-.168-.169-.264l.048.12-.023-.096c-.025-.12-.12-.216-.24-.288-.145-.072-.288-.072-.457-.024a.66.66 0 0 0-.383.24c-.073.072-.097.216-.097.336zM97.702 20.808l.216.36c.024.048.072.12.096.192.024.072.072.12.072.192v-.048.048l.024-.072c.12-.24.48-.384.264-.24l-.096.048-.12.072-.312.192c-.12.072-.24.168-.336.288-.024.024-.12.144-.096.192.024.048.168 0 .216 0 .144-.048.264-.12.384-.192l.408-.264.216-.144.288-.216c.072-.072.192-.168.192-.264 0-.072-.024-.144-.048-.216-.024-.072-.072-.144-.096-.192a2.073 2.073 0 0 0-.24-.384c-.024-.048-.168 0-.216 0-.144.048-.264.12-.384.192-.12.072-.24.168-.336.264-.048.048-.144.144-.096.192z"
      fill="var(--a, blue)" />
    <path
      d="M48.598 34.895a6.197 6.197 0 0 1 5.136 3.503c2.784 5.496.912 9.816-.288 9.792-1.2-.023-.504-1.68-.648-3.264-.144-1.584-.072-1.392-.072-1.392s-.36 5.712-3.528 3.624c0 0-1.44.12-1.032-1.032 0 0-.912.145-.744-.887.168-1.032 1.056-2.352.12-3.552-.408-.529-4.368-3.576-3.888-5.304.408-1.489 4.944-1.489 4.944-1.489z"
      fill="var(--b, white)" />
    <path
      d="M48.67 35.471h.167l.192.024c.12.024.024 0 .024 0l.168.024c.24.048.48.096.72.192.12.048.24.096.384.144.144.048.264.12.408.168a5.857 5.857 0 0 1 1.776 1.392c.672.792 1.104 1.776 1.464 2.736.624 1.728.912 3.624.552 5.448a3.6 3.6 0 0 1-.264.864c-.048.12-.096.264-.168.384-.024.048-.048.12-.096.168-.048.096.024-.024-.048.096-.048.096-.12.168-.192.264l-.096.096c-.024.024.096-.048-.024.024l-.096.072c-.096.072-.024.024 0 0-.024 0-.048.024-.096.024-.12-.024.096.048 0 0-.048 0-.096-.024-.144-.024.024 0 .096.048.048.024 0 .072.024.072 0 0-.048-.168 0 .12-.024-.072 0-.072-.024-.168-.024-.24-.024-.48.072-.984.096-1.488 0-.576-.024-1.128-.072-1.704 0-.144-.024-.288-.024-.408s-.024.12 0 .024-.096.216-.096.216l-.24.144h-.264a.664.664 0 0 1-.432-.408l-.024-.288a8.91 8.91 0 0 1-.096.792c-.048.264-.096.504-.144.744-.024.072-.024.144-.048.216-.024.096 0 .024 0 0 0 .024-.024.048-.024.096l-.144.432a2.928 2.928 0 0 1-.168.408.719.719 0 0 1-.096.192l-.048.096c-.024.024.048-.072-.024.024a1.54 1.54 0 0 1-.24.312l-.096.096c.048-.048-.096.072-.144.096-.048.024-.096.048-.144.096.216-.096.336-.336.24-.552-.096-.216-.336-.336-.552-.24-.216.096-.336.336-.24.552a.423.423 0 0 0 .48.264c-.072.024-.12.024-.192.048.12-.024-.072 0-.12 0h-.12c-.096 0 .12.024-.024 0-.072-.024-.12-.024-.192-.048-.072-.024-.096-.024-.144-.048h-.024a2.618 2.618 0 0 1-.264-.144 1.293 1.293 0 0 0-.504-.192h-.144c-.048 0-.24-.024-.096 0-.072-.024-.144-.024-.192-.048-.12-.048.096.048-.024-.024-.12-.072.048.096 0 0s.024.024.024.024c0 .048.048.072.024.096 0-.072 0-.144.024-.216a.632.632 0 0 0-.384-.816c-.096-.024-.216-.048-.312-.024.264-.024.072-.024 0-.024-.096 0-.072 0 0 0-.024 0-.048 0-.072-.024-.024-.048-.048.024.024.024-.024 0-.048-.024-.072-.048l.096.096c0-.048.048.072 0 0v-.12c0-.096.024-.216.048-.312.216-.912.648-1.776.432-2.736-.24-1.176-1.344-1.872-2.16-2.64a14.85 14.85 0 0 1-1.32-1.416c-.192-.264-.384-.528-.552-.792-.024-.024-.096-.168-.072-.144l-.048-.12c-.024-.048-.048-.12-.072-.168-.024-.048-.072-.24-.048-.12-.024-.048-.024-.096-.024-.168v-.048c0-.048.024-.096.024-.144 0-.12-.024.048.024-.072 0-.024.024-.024.024-.048.024-.072-.048.072-.024.024a.187.187 0 0 1 .096-.096l.048-.048c-.096.072-.024.024 0 0 .048-.048.096-.072.144-.096.192-.12.384-.216.6-.288.264-.096.552-.168.84-.216a14.63 14.63 0 0 1 2.712-.264c.744 0 .552-1.152-.12-1.152-.912 0-1.824.072-2.712.24-1.056.192-2.664.6-2.736 1.896-.096 1.392 1.152 2.688 2.04 3.624.456.48.96.936 1.44 1.392.168.144.312.288.48.432l.144.144c-.024.024-.168-.264-.024 0a.73.73 0 0 0 .12.168.782.782 0 0 1 .096.312c.216 1.056-.672 1.992-.528 3.048.096.696.72 1.176 1.416 1.104.024 0 .048 0 .072-.024l-.696-.864c-.216.672-.096 1.368.576 1.704.312.144.672.216 1.008.192l-.264-.072c.864.576 1.968.792 2.808.048.696-.6 1.008-1.512 1.224-2.376a8.103 8.103 0 0 0 .24-1.68.654.654 0 0 0-.216-.576c-.192-.216-.504-.216-.72-.024a.567.567 0 0 0-.144.216c-.12.408 0 .96.048 1.368.072.816-.048 1.632-.048 2.448 0 .672.24 1.392.96 1.584.936.24 1.584-.6 1.944-1.344.552-1.176.696-2.52.624-3.816a13.43 13.43 0 0 0-1.536-5.448c-1.056-2.064-3.144-3.624-5.496-3.792h-.12c-.816-.048-.624 1.128.048 1.128z"
      fill="var(--c, black)" />
    <path
      d="M49.44 41.616a9.354 9.354 0 0 1-.311 1.824 8.36 8.36 0 0 1-.504 1.488c-.096.24-.24.456-.384.648-.072.096-.144.216-.24.312l-.096.096c-.024 0-.144.12-.096.072-.096.072-.336.288-.096.336.288 0 .552-.096.768-.264.96-.696 1.416-1.8 1.704-2.904.168-.648.288-1.32.336-1.992.048-.264-1.056.072-1.08.384z"
      fill="var(--c, black)" />
    <path
      d="M50.926 42.287a8.268 8.268 0 0 1-.432 1.848c-.312.984-.816 2.088-1.728 2.664-.504.312.48.912.864.672 1.44-.912 2.04-2.736 2.352-4.32.024-.144.048-.312.072-.48.024-.264-.216-.456-.456-.528-.12-.048-.648-.144-.672.144zM78.141 103.56l1.968.432s5.16 2.328 4.44 3.288c-.72.96-2.28 1.512-6.144.72-3.864-.792-6.528-2.832-4.656-5.232l4.392.792z"
      fill="var(--c, black)" />
    <path
      d="M77.88 103.918l1.656.36.288.072c.12 0-.168-.095-.048-.023.12.072.264.119.408.191 1.152.552 2.448 1.177 3.384 1.969.096.096.192.167.288.263.024.024.048.073.096.097-.024-.024.048.096.072.12.024.024.048.143.048.071V107.063c0 .024 0 .047-.024.047.24-.216.6-.216.816.024.216.24.216.6-.024.816-.24.216-.6.217-.816-.023a.585.585 0 0 1-.024-.769.29.29 0 0 1-.12.12l-.048.049c-.048.048-.096.072-.144.12-.048.048-.216.143-.096.071a2.43 2.43 0 0 1-.36.169c-.144.072.024-.001-.12.047a3.895 3.895 0 0 0-.264.073l-.216.047c-.192.024.072 0-.048 0l-.144.024a6.327 6.327 0 0 1-.672.049c-.504 0-1.008-.025-1.512-.097a16.333 16.333 0 0 1-3.672-.863c-.912-.36-1.968-.865-2.52-1.729-.504-.792-.312-1.631.24-2.351l-.672.24 4.392.791c.24.048.624-.071.72-.335.096-.264-.24-.408-.456-.456l-4.392-.793a.725.725 0 0 0-.672.24c-.576.744-.888 1.681-.504 2.593.384.912 1.248 1.535 2.088 1.991a13.268 13.268 0 0 0 3.936 1.272c1.176.264 2.4.336 3.6.264a4.492 4.492 0 0 0 2.208-.744c.432-.312.864-.791.576-1.343-.288-.552-.96-.984-1.512-1.32a17.397 17.397 0 0 0-2.064-1.153 7.472 7.472 0 0 0-1.176-.551c-.624-.192-1.296-.289-1.944-.433-.264-.048-.624-.047-.816.217a.372.372 0 0 0 .264.551z"
      fill="var(--c, black)" />
    <path
      d="M77.278 98.998s.48 2.76.623 3.336c.145.576 4.537 3.072 4.056 3.408-.48.336-1.391.792-4.727-.336-3.337-1.128-3.337-1.68-3.457-2.376-.12-.696-.167-4.632-.167-4.632l3.672.6z"
      fill="var(--b, white)" />
    <path
      d="M76.896 98.567c.144.888.312 1.776.48 2.64a2.5 2.5 0 0 0 .432 1.152c.288.384.648.744 1.056 1.032.816.624 1.68 1.176 2.496 1.8.168.12.36.264.504.408.048.024 0 0 .072.048s.072.048.048.048c-.024 0-.144-.168-.216-.24-.024-.024-.144-.24-.144-.24.024 0-.12.12-.12.144-.096.048-.192.12-.288.144-.912.36-2.016.096-2.928-.144a21.326 21.326 0 0 1-2.64-.888 6.893 6.893 0 0 1-1.512-.768l-.096-.072c.024.024-.072-.096-.024-.024.096.12.192.216.264.336.048.048.024.048.024.072-.024-.096-.048-.144-.096-.264-.048-.264-.072-.552-.096-.816-.072-1.08-.072-2.16-.096-3.24v-.576a.493.493 0 0 1 0-.264c0 .024-.048.024 0 .024s.096.024.144.024l.504.096 2.76.48.216.024c.12.024-.168-.36-.192-.384-.096-.12-.312-.504-.504-.528l-3.648-.648c-.024 0-.048 0-.024.024 0 .648.024 1.296.048 1.968.024.864.024 1.728.12 2.592.192 1.704 1.92 2.544 3.36 3.096 1.272.48 2.616.96 3.984 1.032.48.024 1.152 0 1.56-.36.192-.168-.096-.48-.216-.648-.264-.36-.6-.672-.936-.96-.696-.552-1.464-1.056-2.184-1.56-.192-.144-.384-.264-.576-.408a9.709 9.709 0 0 0-.408-.312l-.072-.072c-.048-.024.024.024.048.072-.216-.24.312.36.312.456 0-.024 0-.048-.024-.096l-.144-.648c-.168-.864-.312-1.728-.48-2.592a1.877 1.877 0 0 0-.408-.624c-.048-.12-.36-.408-.36-.336zM54.503 104.687l-1.872.288s-4.992 1.968-4.44 2.976c.552 1.008 1.944 1.68 5.616 1.152 3.672-.528 6.336-2.376 4.848-4.896l-4.152.48z"
      fill="var(--c, black)" />
    <path
      d="M54.237 104.279l-1.728.264a3.219 3.219 0 0 0-.912.336c-.672.288-1.344.6-1.992.96-.576.312-1.224.648-1.68 1.152a.93.93 0 0 0-.312.648c.048.288.192.576.408.768.456.528 1.08.888 1.752 1.08a8.82 8.82 0 0 0 3.072.192 14.799 14.799 0 0 0 3.816-.792c1.008-.384 2.064-.96 2.664-1.896.552-.912.36-1.944-.144-2.808a.921.921 0 0 0-.744-.384l-4.2.48c-.24.024-.36.192-.216.432.168.24.456.384.744.384l4.152-.48-.744-.384c.408.624.456 1.416.12 2.088-.384.72-1.152 1.224-1.872 1.56a10.498 10.498 0 0 1-3.192.864 10.303 10.303 0 0 1-3.096.048 2.51 2.51 0 0 1-.408-.096l-.216-.072-.096-.024c.144.048 0 0-.024-.024l-.168-.096c-.12-.072.072.048 0 0l-.072-.048c-.048-.024-.096-.072-.144-.12.12.096-.024-.024-.072-.072l-.072-.096c.048.048-.048-.072-.072-.096-.024-.024-.048-.072-.072-.12-.024-.048 0 .024.024.024-.024-.072 0-.048 0 0 .024-.12-.024-.048.048-.168l.144-.216a5.77 5.77 0 0 1 1.56-1.056 23.462 23.462 0 0 1 1.752-.84c.216-.096.432-.192.672-.288.024 0 .12-.024.144-.048-.168.024.024-.024 0 0l1.752-.264c.648-.072-.144-.864-.576-.792z"
      fill="var(--c, black)" />
    <path
      d="M53.47 94.008s1.584 8.928 1.392 9.48c-.192.552-4.512 2.76-4.104 3.12.408.36 1.2.888 4.416-.024s3.264-1.44 3.432-2.136c.168-.696 2.352-10.944 2.352-10.944l-7.488.504z"
      fill="var(--b, white)" />
    <path
      d="M52.87 93.96c.408 2.304.816 4.632 1.152 6.96.096.6.168 1.176.216 1.776.024.24.12.624-.024.84a1.643 1.643 0 0 1-.504.408c-.264.192-.552.384-.84.552-.648.408-1.296.816-1.92 1.248-.168.12-.912.552-.792.816.048.12.24.216.336.264.216.12.432.192.672.24a7.245 7.245 0 0 0 2.784.024c1.2-.216 2.4-.528 3.528-.984.528-.216 1.152-.456 1.488-.96.144-.24.24-.504.264-.792.24-1.032.456-2.064.672-3.096.528-2.52 1.08-5.04 1.608-7.536l.024-.144c.024-.144-.912-.168-1.008-.144l-6.552.432-.936.048c-.216.024-.192.096-.024.144.288.072.552.096.84.072l6.552-.432.936-.072-1.008-.144a599.853 599.853 0 0 0-1.344 6.36c-.264 1.248-.528 2.52-.816 3.768-.12.576-.168 1.296-.624 1.68-.576.504-1.416.744-2.112.984-1.056.336-2.184.696-3.312.72-.12 0-.024-.024-.168 0 .048 0 .096-.024 0 0 .024 0 .144 0 0 0-.024 0 .072.024 0 0l-.072-.024c-.12-.024.072.024-.048 0a1.02 1.02 0 0 1-.408-.24c-.096-.096-.144-.096-.072-.24.12-.168.288-.312.456-.408 1.08-.816 2.352-1.368 3.36-2.256a.616.616 0 0 0 .264-.672c-.024-.48-.096-.984-.168-1.464-.336-2.496-.768-4.992-1.2-7.488 0-.048-.024-.12-.024-.168-.024-.192-1.2-.12-1.176-.072z"
      fill="var(--c, black)" />
    <path
      d="M59.04 57.31s-2.256 1.56-3.888 6.313c-4.104 12.024-3.192 36.24-.144 38.496 3.048 2.256 5.712.912 7.416-3.817 1.704-4.728 7.2-28.68 7.2-28.68s1.656 26.856 2.736 29.88c.984 2.761 5.424 4.153 7.296-.983 1.92-5.257 3.6-41.905.024-40.92-11.304 3.096-20.64-.288-20.64-.288z"
      fill="var(--b, white)" />
    <path
      d="M58.633 56.88c-.672.456-1.2 1.151-1.68 1.8-1.224 1.68-2.016 3.6-2.64 5.568-1.056 3.431-1.608 7.031-1.992 10.584a96.189 96.189 0 0 0-.504 11.76c0 3.335.264 6.671.744 9.96.168 1.2.432 2.375.768 3.528.24.744.552 1.584 1.104 2.16.552.504 1.2.912 1.896 1.152.744.288 1.584.36 2.352.192 1.872-.456 3.024-2.208 3.768-3.865.96-2.135 1.488-4.44 2.064-6.695a559.45 559.45 0 0 0 2.28-9.097c.72-2.952 1.416-5.928 2.112-8.88.408-1.68.792-3.36 1.176-5.04.024-.072.024-.168.048-.24l-1.128-.263c.024.551.072 1.103.096 1.655.096 1.44.192 2.856.288 4.272.144 1.945.264 3.913.432 5.856.168 2.136.336 4.272.504 6.384.168 1.944.336 3.912.552 5.856.144 1.465.312 2.904.552 4.368.072.48.168.937.288 1.392.192.721.6 1.393 1.152 1.897 1.464 1.44 3.768 1.728 5.424.408 1.296-1.032 1.944-2.665 2.28-4.248.264-1.272.432-2.544.6-3.84.216-1.776.384-3.553.528-5.329.168-2.04.288-4.08.384-6.12.12-2.136.192-4.272.24-6.408.048-2.064.048-4.128.024-6.192-.024-1.8-.072-3.6-.216-5.424a30.172 30.172 0 0 0-.504-4.152c-.168-.816-.36-1.776-.936-2.423a1.275 1.275 0 0 0-1.056-.457c-.168.024-.312.072-.48.12-.456.12-.936.24-1.392.337-.936.215-1.872.383-2.808.503-3.144.432-6.36.48-9.528.12a32.51 32.51 0 0 1-3.408-.551c-.24-.048-.456-.096-.696-.145.096.024-.144-.024-.192-.047l-.288-.072a13.652 13.652 0 0 1-.936-.265c-.24-.072-.504-.144-.744-.24a.5.5 0 0 0-.672.264s0 .024-.024.024c-.048.313.144.6.432.697a25.5 25.5 0 0 0 3.024.816c2.496.527 5.04.816 7.608.816a35.632 35.632 0 0 0 5.064-.288c.912-.12 1.824-.264 2.736-.432.456-.096.912-.192 1.344-.288l.696-.169.336-.096c.072-.023.384-.096.12-.023h0c-.168-.072.096 0 0 0-.072.023-.144-.145-.048-.048l.072.072c.096.096-.072-.12-.024-.024.024.023.024.047.048.072.048.072.072.143.12.191 0-.024.072.12 0 0 0 .024.024.072.048.12.048.096.072.193.096.264.144.433.264.889.336 1.345-.024-.12.024.12 0 0 0 .023 0 .072.024.095l.024.216c.024.145.048.313.072.456.048.313.096.648.12.985.192 1.584.264 3.168.336 4.776.144 4.032.096 8.064-.048 12.096-.144 3.936-.384 7.992-.744 11.808a72.394 72.394 0 0 1-.552 4.584c-.12 1.008-.336 1.992-.6 2.976a5.995 5.995 0 0 1-1.536 2.568 3.16 3.16 0 0 1-1.2.696c-.36.12-.744.144-1.128.072a3.11 3.11 0 0 1-1.896-1.08s-.12-.144-.024-.048c-.024-.048-.072-.072-.096-.12-.048-.096-.12-.168-.168-.264a1.732 1.732 0 0 1-.216-.48c-.048-.145-.096-.288-.12-.433-.024-.096-.048-.191-.048-.263l-.024-.145c.024.193 0-.047-.024-.095-.048-.264-.096-.528-.12-.792-.096-.673-.192-1.345-.264-2.017a200.327 200.327 0 0 1-.552-5.328c-.36-4.08-.672-8.183-.984-12.287-.192-2.665-.36-5.329-.528-8.017 0-.12-.024-.264-.024-.384-.024-.504-.984-.912-1.128-.264-.264 1.153-.528 2.305-.816 3.457a981.05 981.05 0 0 1-1.92 8.063c-.744 3.072-1.488 6.144-2.28 9.216-.6 2.353-1.2 4.68-1.896 6.984-.432 1.416-.984 2.857-1.92 4.033a3.769 3.769 0 0 1-1.728 1.32 2.712 2.712 0 0 1-1.896-.048 5.516 5.516 0 0 1-1.056-.552l-.288-.216c-.048-.024.12.12.048.048l-.144-.144c-.144-.144.072.12-.048-.048l-.144-.192-.12-.192c-.024-.048-.144-.312-.072-.144a13.02 13.02 0 0 1-.84-2.809 27.75 27.75 0 0 1-.312-1.8c-.096-.72-.192-1.44-.264-2.16a86.504 86.504 0 0 1-.36-5.016c-.144-3.768-.072-7.56.192-11.328.24-3.672.768-7.296 1.584-10.871a27.256 27.256 0 0 1 1.752-5.28c.384-.84.864-1.657 1.416-2.4.192-.265.408-.529.624-.793.048-.072-.072.096.024-.024l.048-.072.12-.12c.072-.096.168-.168.24-.24.12-.12.264-.24.432-.36.624-.36-.264-1.175-.768-.816z"
      fill="var(--c, black)" />
    <path
      d="M70.465 63.624l-1.249 5.832-.191.84c-.12.552 1.007.936 1.127.312l1.248-5.832.192-.84c.12-.552-.983-.936-1.127-.312z"
      fill="var(--c, black)" />
  </g>
</svg>
