<svg xmlns="http://www.w3.org/2000/svg" viewBox="0 0 120 120" fill="none">
  <g id="doc">
    <path d="M80.7 108.4h-41a5 5 0 0 1-5-4.3L19.2 18a5 5 0 0 1 5-5.8h41c2.6 0 4.7 1.8 5.1 4.1l15.3 86.2a5 5 0 0 1-5 6z"
      fill="var(--c, black)" />
    <path
      d="M81 108H40a5 5 0 0 1-4.8-4.2l-.4-2.2L34 97l-1.2-6.6-1.4-7.9-1.7-9-1.6-9.7-1.8-9.7-1.6-9.6-1.6-8.7-1.3-7.5-1-5.8-.7-3.7c-.2-.9-.3-1.7-.2-2.5.2-2.2 1.9-4 4.1-4h41c1.4 0 3 .7 3.8 1.9.8.9.9 2 1.2 3.2l.6 3.5 1 5.6 1.4 7.4 1.5 8.6 1.7 9.4 1.7 9.7 1.8 9.7 1.5 9.2 1.4 8 1.2 6.8 1 4.8.3 2.3v1.6c-.1 2.1-1.8 4-4.1 4-.3 0-.5 0-.7.4-.2 0-.2.2 0 .2 3.5 0 6.5-3 6-6.5l-.4-2.1-1-4.6-1-6.6-1.5-8-1.6-9.3-1.7-9.7-1.8-10-1.8-9.5-1.5-8.8-1.3-7.4-1-5.7-.7-3.5a6.6 6.6 0 0 0-1.3-3.4 5.3 5.3 0 0 0-4-1.8H24.2a6.2 6.2 0 0 0-5.3 3.4 6.4 6.4 0 0 0-.1 3.9l.6 3.5 1 5.6 1.3 7.4 1.6 8.8 1.7 9.5 1.7 10 1.8 9.6 1.6 9.2 1.4 8.1 1.2 6.7 1 4.6c0 .8 0 1.5.2 2.3a5.4 5.4 0 0 0 5.3 4.4h41l.9-.3c.2-.2 0-.4-.2-.4"
      fill="var(--c, black)" />
    <path
      d="M84.7 108.3H43.6a5 5 0 0 1-5-4.3L23.2 17.6a5 5 0 0 1 5-5.8h41c2.5 0 4.7 1.8 5 4.2l15.4 86.4a5 5 0 0 1-4.9 6z"
      fill="var(--b, white)" />
    <path
      d="M84.4 107.6H43.5c-1.4 0-3-.5-3.8-1.6-.4-.6-.7-1.2-.9-1.9l-.3-2.4-1-4.7-1-6.6-1.5-8-1.6-9.2-1.8-9.7-1.6-9.7-1.8-9.5-1.5-8.7-1.3-7.4-1-5.7-.7-3.5c-.1-1-.3-2 0-3a5 5 0 0 1 4.7-3.7h41c1.5 0 3 .6 4 2 .5.6.6 1.7.7 2.6l.7 3.5 1 5.7 1.3 7.5 1.6 8.7 1.6 9.4 1.8 9.7 1.7 9.7 1.6 9.1 1.4 8.1L88 95l.9 4.7.3 2.3a5 5 0 0 1-4.8 5.8c-.3 0 0 1.2.4 1a5.3 5.3 0 0 0 5-6.3l-.3-2.3-1-4.6-1-6.7-1.6-8.2-1.5-9.1-1.7-9.7-1.8-10-1.7-9.5-1.6-8.8-1.2-7.4-1-5.6-.7-3.6c-.2-1.3-.5-2.6-1.4-3.7a5.5 5.5 0 0 0-4.2-2H27.7a5.2 5.2 0 0 0-4.7 3.7c-.3 1.2 0 2.3 0 3.5l.7 3.6 1.1 5.7 1.3 7.5 1.6 8.7 1.7 9.6 1.7 9.9L33 73l1.5 9.3 1.4 8.1 1.3 6.6.8 4.6.3 2.2c.5 2.7 2.7 5 5.6 5h41c.3 0 0-1-.4-1z"
      fill="var(--c, black)" />
    <path d="M83.6 96.5H40.4L26 15.4h43.3z" fill="var(--b, white)" />
    <path
      d="M83.8 96.2H40.6l.3.2-.3-2.3-1-5.9-1.7-8.7-1.8-10.6L34 57.2l-2.1-11.8-1.9-11-1.7-9.3-1.1-6.7-.6-3.2V15l-.7.6H69l-.4-.3.4 2.2 1 6 1.6 8.8L73.5 43l2.1 11.7 2.1 11.8 2 11 1.7 9.2 1.2 6.7.5 3.2v.2c.1.4 1.3 0 1.2-.4l-.4-2.3-1-5.9-1.6-8.7-1.9-10.6-2.1-11.7-2.1-11.8-2-11-1.7-9.3-1.2-6.7-.6-3.2V15c0-.2-.3-.2-.3-.2H26c-.2 0-.9.2-.8.5l.5 2.2 1 6 1.5 8.8 2 10.6 2.2 11.7 2 11.8 2 11 1.6 9.2 1.2 6.7.5 3.2v.2l.4.2h43.2c.3 0 .6-.2.8-.4 0-.3-.2-.4-.5-.4z"
      fill="var(--c, black)" />
    <path d="M58.6 21.6H41.3c-.9 0-1.7-.6-1.8-1.5-.2-1 .4-2 1.4-2.3h17.7c.9 0 1.8.6 1.8 1.5.3 1-.4 2-1.4 2.3z"
      fill="var(--c, black)" />
    <path
      d="M58.6 21.7H41.3c-1 0-2-.9-2.1-2 0-1 .9-2 2-2h17.4c1.1 0 2 .8 2.1 2 0 1-.9 2-2 2zM41.3 18a1.8 1.8 0 0 0-1.8 1.8v.3a1.8 1.8 0 0 0 1.8 1.4h17.3c1 0 1.8-.8 1.8-1.7a1.8 1.8 0 0 0-1.8-1.8zM66 103a2 2 0 0 1-1.3 2h-1.2a1.8 1.8 0 0 1-.9-.6c-.6-.6-.7-1.5-.2-2.2a2 2 0 0 1 2-1h.3l.2.2.6.3c.2.5.4 1 .4 1.4 0 .6 1.2.8 1.2 0a3 3 0 0 0-5.5-1.9c-.8.9-.9 2.3-.2 3.4a3.2 3.2 0 0 0 3.2 1.5 3 3 0 0 0 2.5-3c0-.6-1.2-.8-1.2 0z"
      fill="var(--c, black)" />
    <path d="M57.4 20.6a.9.9 0 1 0 0-1.8.9.9 0 0 0 0 1.8" fill="var(--b, white)" />
    <path
      d="M61.8 26.4h4.6l.7-.3.2-.2s.1 0 0 0h-4.5l-.7.1c-.2 0-.2.1-.3.3zm1.3 2H66s.6 0 .6-.3L66 28h-3s-.5 0-.5.2.5.2.6.2m-28.6 1.9l-.4-2.7-.2.5 2.1-2h-.5l2.5 1.7-.3-.5.5 3 .5-.7h-1.5l.7.6c0-.8-.2-1.8-.8-2.3-.4-.5-1-.5-1.5-.3-.6.4-.7.9-.7 1.5v1.2l.6-.7-1 .1c-.9 0-.6 1.3 0 1.2l1-.1c.3 0 .6-.3.6-.5v-.4l-.1-.3v-.7c0 .1.2-.2 0-.1l.2-.1v-.1h.2s0-.1 0 0c0 0 0-.1 0 0l.1.3v.3q.2 0 0 0h.1l.1.9c0 .3.4.6.7.6h1.4q.6 0 .6-.4l-.6-2.7v-.3c0-.3-.3-.5-.5-.7l-1.3-.8-1.2-.7a.5.5 0 0 0-.5 0L33.4 27l-.2.2c-.2.2-.3.3-.2.6l.3 1.4.1 1.3c0 .2.3.5.7.5.2 0 .5-.3.4-.5zm12.3 14.9c-2.8-6.5.8-9.5 3.8-10.6 3-1 5.3-.5 6.2.5.6.9 0 7 0 7L53 48s-4.1 2-6.1-3z"
      fill="var(--c, black)" />
    <path
      d="M60.5 44c1.2-2.6-3.6-7.6-3.6-7.6-1.1.1-3.3-.3-3.3-.3 1.8 3-1.7 5.3-1.7 5.3-1.3-1.4-3.2 0-2.5 1.6.8 1.6 2.5 1.2 2.5 1.2s.6 4.5 1 5.2c0 0 3.6.9 4.4-2.2 0 0 2.3-1.4 3.2-3.2"
      fill="var(--b, white)" />
    <path
      d="M61 44.1c.4-.8.2-1.7 0-2.5-.4-1-.8-1.8-1.4-2.7L58 36.8c-.4-.4-.7-1-1.4-.9h-1.8l-.9-.2c-.3 0-1 0-.8.5.4.6.5 1.3.5 2-.1.5-.4 1-.7 1.5l-1.5 1.4 1 .2c-.6-.6-1.4-1-2.2-.9a1.8 1.8 0 0 0-1.5 1.2c-.4 1.4.9 2.8 2.2 3h1.2l-.8-.4a41.5 41.5 0 0 0 .8 4.5c0 .4.2.8.5 1l.6.2a5 5 0 0 0 2.3 0 3.4 3.4 0 0 0 2.4-2.5l-.2.2c1.3-1 2.7-2 3.4-3.4.1-.3-.3-.5-.5-.6a.6.6 0 0 0-.7.3c-.3.8-1 1.5-1.8 2l-1.3 1a1 1 0 0 0-.2.6l-.3.5-.9.7-.7.3h-1.4s.2 0 0 0H53l.5.2-.2-.3v-.4l-.2-.3-.2-1.8a76.8 76.8 0 0 1-.5-2.2c0-.3-.4-.5-.8-.5h-.2s-.1 0 0 0h-.8v-.1c-.4-.2-.6-.5-.7-.7-.2-.5-.3-1.2.1-1.6.5-.4 1-.2 1.3.2.2.2.6.3.8.1.8-.4 1.3-1 1.8-1.6a4 4 0 0 0 .2-4l-.7.4c1.1.2 2.4.4 3.5.2l-.6-.2 1.5 1.7c.8 1.2 1.6 2.4 2 3.6a2.6 2.6 0 0 1 0 2c-.2.2.2.5.5.6s.6 0 .7-.2z"
      fill="var(--c, black)" />
    <path
      d="M53.6 43.5l.1.6c0 .4.3.7.7.7h.3l.9-.5V44l-.2.1-.3.2h.1s.1 0 0 0h.1-.3a.9.9 0 0 1-.4-.5 2.6 2.6 0 0 1-.2-.7v-.1l-.5.1-.2.2z"
      fill="var(--c, black)" />
    <path d="M57 40l2.4.4c2.7 0 3.2.9 2.4 1.6-.7.7-4.4.7-4.4.7" fill="var(--b, white)" />
    <path
      d="M56.8 40.4c1 .3 1.8.4 2.7.5a6.5 6.5 0 0 1 1.6.1h.1l.2.1.1.2s0-.2 0 0c0 0 0-.2 0 0v.3c0-.2 0 0 0 0h-.2l-.2.2c-.2 0 0 0 0 0h-.5l-.5.2h-1q-.1 0 0 0H59l-1.6.2c-.2 0-.5.2-.4.5 0 .3.4.4.6.4h1.6c.9 0 1.8-.2 2.7-.5.5-.2 1.2-.7 1-1.3-.2-.9-1.5-1.2-2.3-1.3-.8 0-1.6 0-2.3-.2l-.8-.2h-.1q.2 0 0 0c-.2 0-.6-.2-.7.1-.1.3.1.5.3.7zm-1.5-.5c.2 0 .5 0 .5.2 0 .5-.5.5-.7.2l.1-.4zm2.6-1.2c.2 0 .3 0 .4.3 0 .4-.4.5-.6.2v-.5zM48.5 43l-.1 1.4c-.1.6-.4 1.4-1 1.7h-.1s.2 0 0 0L47 46c-.4-.3-.9-.6-.9-1.2a1 1 0 0 1 .7-1.1s-.1 0 0 0c.1-.1 0 0 0 0h-.3s.3 0 .3.2l.2.7a4.4 4.4 0 0 1 0 1.8c-.3 1-1 2.3-1.8 2.8l-.4.2s.1 0 0 0h.3s-.2 0-.2-.2c-.2-.2-.3-.6-.3-.8a1.8 1.8 0 0 1 1-1.4h.2v-.1h.3v-.1c.2 0 0 0 0 0 .3 0 0 0 0 0 .1 0-.1 0 0 0-.1 0 0 0 0 0-.1 0 0 0 0 0h.1l.1.1c.2.4.3.7.2 1.1 0 .6-.3 1.2-.5 1.8 0 .1 1 .4 1.2 0 .4-.7.9-2 .4-3-.6-.6-1.8-.6-2.5-.3-.6.2-1.3.7-1.5 1.4-.2.4-.1.7 0 1 .3.7.9 1 1.6 1 1.3 0 2.2-1.4 2.6-2.4.4-.7.6-1.5.6-2.3 0-.6 0-1.3-.6-1.6-.7-.6-2.2-.5-2.6.3-.6 1.1.6 2.2 1.5 2.5.6.2 1.3.3 1.8 0 .4-.3.6-.6.8-1 .3-.7.5-1.5.5-2.3 0-.4-1.3-.4-1.3 0zm.4 10.3a8.8 8.8 0 0 1 3.3-3.8c.3-.2.3-.4.1-.6a.7.7 0 0 0-.9-.1 9.7 9.7 0 0 0-3.8 4.1c0 .3.2.6.5.7s.6 0 .7-.3zm8.5-5c1.5.5 2.8 1.5 3.7 2.7.2.4 1.4 0 1-.4a8 8 0 0 0-4.1-3 .9.9 0 0 0-1 .2c0 .2 0 .4.3.5zM49 61.9q.6-1.3 1.6-2.6a6.2 6.2 0 0 1 2.4-1.8c.5-.1.9 0 1.3.2.4.4.6.7.7 1.2a3.5 3.5 0 0 1-.5 2.7c0 .2-.2.3-.3.4l-.2.3H54c-.4-.2 0-.9 0-1 .4-.8 1-1.5 1.9-1.6.7 0 1.5.7 1.5 1.5v.7c0 .2.1.1.5-.1l-.2-.2c-.3-.4-.2-.9 0-1.2.3-.4.7-.6 1.2-.7l1.8-.5c1-.4 2-1.2 2-2.5l-.1-.1c-1-.3-1.7.3-2.2 1a3 3 0 0 0-.1 2.1c.1.7.7 1.3 1.3 1.5s1.4.2 2-.1c.8-.4 1.3-1.1 1.3-1.8 0-.4-.4-.4-.6-.3l-.5.6c0 .5-.3.8-.7 1-.5 0-1-.2-1.3-.6s-.6-.9-.6-1.5c0-.4.2-1.2.7-1.1l-.2-.2c0 1.3-1.9 1.5-2.8 1.7-1.2.4-2.6 1.3-2.4 2.7 0 .6.5 1.1 1.1 1.1.7-.1 1-.8 1-1.5 0-1.1-.8-2-2-2.3-1.3-.1-2.4.7-3.1 1.8a3.5 3.5 0 0 0-.7 1.7c0 .7.7 1 1.3.8 1.1-.5 2-1.9 2.2-3.1.2-1 0-2.7-1.1-3.2-1.5-.8-3.3.5-4.4 1.4a10.1 10.1 0 0 0-2.6 3.6c-.4.7.8.5.9 0zm-3 11.2c1.8 0 3.3-1.5 3.3-3.2s-1.5-3.2-3.3-3.2c-1.8 0-3.3 1.4-3.3 3.2S44.3 73 46 73"
      fill="var(--c, black)" />
    <path
      d="M48.9 69.7c0 1.2-.8 2.2-1.9 2.7s-2.3.2-3-.6c-.8-.9-.9-2.2-.2-3.2.6-1 1.7-1.6 3-1.5s2 1.3 2 2.5c0 .3.3.5.5.6.2.1.6.2.6 0 0-1.6-1-3-2.4-3.6a3.8 3.8 0 0 0-4.4.8 3.4 3.4 0 0 0-.2 4.2 4.4 4.4 0 0 0 4 1.9 3.5 3.5 0 0 0 3-3.4c0-.3-.1-.5-.4-.7-.2 0-.6 0-.6.2zm8.8 3c1.8 0 3.3-1.5 3.3-3.3s-1.5-3.1-3.3-3.1a3.2 3.2 0 1 0 0 6.4"
      fill="var(--c, black)" />
    <path
      d="M60.4 69.7c0 1-.5 2.2-1.5 2.6a3 3 0 0 1-3.3-1.2 3 3 0 0 1-.3-3.3 2.4 2.4 0 0 1 2.8-1c1.4.3 2.3 1.5 2.3 3 0 .3 1.2-.2 1.1-.5 0-1.4-.9-2.8-2.4-3.2a4.4 4.4 0 0 0-4.4 1.3 3.4 3.4 0 0 0-.3 4c.8 1.4 2.4 1.8 4 1.5 1.6-.5 3.1-1.8 3.1-3.6 0-.3-1 0-1 .4m8.1 3c1.8 0 3.3-1.4 3.3-3.2s-1.4-3.1-3.3-3.1c-1.7 0-3.2 1.4-3.2 3.1s1.4 3.2 3.2 3.2"
      fill="var(--c, black)" />
    <path
      d="M71.4 69.4a2.8 2.8 0 0 1-5 1.8 2.6 2.6 0 0 1 0-3c.6-.9 1.7-1.5 2.9-1.2a2.6 2.6 0 0 1 2 2.4c0 .7 1.2 1 1.1.2a4 4 0 0 0-6.8-2.5 3.5 3.5 0 0 0-.3 4.3 4 4 0 0 0 4.1 1.7c1.8-.2 3-1.7 3-3.5 0-.6-1-.9-1-.2M48.6 83.6c1.9 0 3.4-1.5 3.4-3.2s-1.5-3.2-3.4-3.2a3.3 3.3 0 0 0-3.2 3.2c0 1.7 1.5 3.2 3.2 3.2"
      fill="var(--c, black)" />
    <path
      d="M51.4 80.5a2.6 2.6 0 0 1-1.8 2.4c-1 .4-2.3 0-3-.8a2.6 2.6 0 0 1-.3-3.1 2.6 2.6 0 0 1 2.8-1.2c1.3.3 2.3 1.4 2.3 2.7 0 .7 1.1.4 1.1-.2 0-1.5-1-3-2.5-3.4-1.5-.5-3.1 0-4.3 1.2a3.7 3.7 0 0 0-.3 4.3 4 4 0 0 0 4 1.7c1.7-.5 3.1-2 3.1-3.8 0-.7-1.1-.4-1.1.2m8.4 2.7c1.8 0 3.3-1.4 3.3-3.2S61.7 77 59.8 77c-1.7 0-3.2 1.4-3.2 3.1s1.5 3.2 3.2 3.2"
      fill="var(--c, black)" />
    <path
      d="M62.6 80c0 1-.8 2.1-1.9 2.6a2.6 2.6 0 0 1-3.4-1.4 2.6 2.6 0 0 1 .2-2.5 3 3 0 0 1 3-1.3 2.6 2.6 0 0 1 2 2.6c0 .5 1.2.8 1.2.1 0-1.6-1.1-3-2.6-3.5a3.9 3.9 0 0 0-4.3 1 3.5 3.5 0 0 0-.2 4.3 4 4 0 0 0 4 1.7 3.5 3.5 0 0 0 3.1-3.5c0-.5-1.1-.9-1.1-.2zm8.6 3.3c1.8 0 3.3-1.4 3.3-3.2S73 77 71.2 77 68 78.4 68 80.1s1.5 3.2 3.3 3.2"
      fill="var(--c, black)" />
    <path
      d="M74.1 79.9a3 3 0 0 1-2 2.6c-1 .4-2.5.3-3.3-.6-.7-.9-.7-2.1 0-3a3.3 3.3 0 0 1 3-1.4c1.3.1 2.2 1.1 2.2 2.4 0 .2.2.5.5.7s.4 0 .3-.2c0-1.6-1-3.1-2.4-3.7a3.6 3.6 0 0 0-4.1.9 3.7 3.7 0 0 0-.3 4.3 3.9 3.9 0 0 0 4 2 3.5 3.5 0 0 0 2.8-3.6.9.9 0 0 0-.3-.6c-.2-.2-.5 0-.5.2z"
      fill="var(--c, black)" />
    <path d="M61.8 92.6c1.7 0 3.2-1.4 3.2-3.1s-1.5-3.2-3.3-3.2c-1.8 0-3.3 1.4-3.3 3.2s1.5 3.1 3.3 3.1z"
      fill="#002780" />
    <path
      d="M64.5 89.4c0 1.1-.9 2.1-2 2.5-1 .4-2.2.1-3-.8-.7-.8-.8-2-.2-2.9.7-1 1.8-1.6 3-1.3 1.3.2 2.2 1.2 2.2 2.5 0 .2.3.5.5.6.4 0 .5-.2.5-.4 0-1.6-1-3-2.6-3.6-1.8-.9-4 0-4.7 2-.5 1-.3 2.4.3 3.3.9 1.3 2.4 2.1 4 1.8 1.7-.3 3-1.8 3-3.5 0-.7-1-1-1-.2z"
      fill="#002780" />
    <path
      d="M61.2 90l-.8.5H60v-.1c-.2-.5 0-1 .1-1.4.5-.8 1.7-.9 2.6-.7 1 0 1.5 1.3 1.5 1.7 0 .3-.6.4-.6.4l-.9-.8s.2-.4-.2-.5c-.4 0-1.3 0-1.3.4l.1.2zM48 79l.4.7.1.6v1.4l-.2-.6-.2-.7v-1.4z"
      fill="var(--b, white)" />
    <path
      d="M46.8 80.5l.7-.2c.4-.2.9-.2 1.4-.2l.7.1-.7.3H47.6zm11.6-1.3l.2 1 .2.4v.2h1.7v-.2-1.3l-.1-.2h-1zm0 0a6 6 0 0 1 2-.3h.1l.1.2.2.1v.6l.2.5v.5l-.3.2h-.3a6.7 6.7 0 0 1-1.5 0h-.4V79.2z"
      fill="var(--b, white)" />
    <path
      d="M61.4 78.9l-.6.6-.3.3v.2c-.1 0 0 0 0 0h-.1.2l.5.1.8.2-.2.2-.2-.8v-1zm0 0l.3.7.3.9v.1H62l-1-.1h-.4l-.1-.2H60v-.5l.3-.2.3-.3.7-.4zm8.1 2.9c0-.4 0-.9.2-1.2l.3-.7.2-.2.4-.2h.4l.4.4.3.5c.3.3.4.7.5 1.1l-.7-1a6.2 6.2 0 0 0-.4-.4.7.7 0 0 0-.4-.2l-.4.2-.2.5a6.2 6.2 0 0 0-.6 1.2"
      fill="var(--b, white)" />
    <path
      d="M70.9 80.2l.4-.4v-.6c0-.3-.4-.5-.8-.4-.2 0-.3 0-.4.3l-.1.5c0 .2 0 .3.2.4.2.2.4.2.7.2m0 0h-.7a.6.6 0 0 1-.3-.3.9.9 0 0 1-.1-.3v-.7c.2-.3.4-.5.7-.5s.4 0 .7.2c.2 0 .4.4.4.6v.4l-.2.3zM56 68.2l-.1.3c0 .1.3.2.5 0v-.3H56zm1.4 0l-.2.3c0 .1.3.2.5 0v-.3h-.3zm1.4 0c-.1 0-.2 0-.1.3 0 .1.2.2.4 0v-.3a.3.3 0 0 0-.3 0zm-2.5 1.2c-.2 0-.2.1-.2.2 0 .3.3.3.5.2s.1-.4 0-.4zm1.3 0l-.2.2c0 .3.4.3.6.2v-.4zm1.4 0l-.1.2c0 .3.2.3.4.2s.2-.4 0-.4zm-2.5 1.2l-.1.3c0 .1.3.2.4 0 .2 0 .2-.2 0-.4h-.3zm1.4 0c-.1 0-.2 0-.2.3s.4.2.5 0v-.3H58m1.4 0s-.2 0-.2.3.4.2.5 0v-.3zM45.9 68l-.3.1c-.2 0-.2.2-.2.4v.7l.3.7.2.2.2.1h.3l.1-.2v-1.5l-.3-.3s-.1-.3-.2-.2zm0 0h.2l.2.1.3.4.3.8v1l-.3.2H46a.9.9 0 0 1-.5-.1l-.2-.4-.2-.8v-1l.3-.2h.5z"
      fill="var(--b, white)" />
    <path d="M44.8 70l.6.5c.2.2.5.2.7.2h.7q.4-.2.5-.6c0 .4 0 .7-.4.8-.2.2-.5.2-.8.2s-.7-.2-1-.3l-.3-.7"
      fill="var(--b, white)" />
    <path
      d="M46.4 71.6l-.2-.1-.1-.2V71l.1-.2.2.1v.2c.1 0 .1.2 0 .2zm21.2-2s.9-.7.9-.5c0 .2.4 1 .2 1.2 0 .3-1 0-1 0zm1.2-.8l.6.2.2.5v.6l-.3.3v-.8l-.4-.8zm.7-.4l.6.3c.1.2.3.4.3.7a1.2 1.2 0 0 1-.5 1.3v-1.3c0-.3-.2-.8-.4-1"
      fill="var(--b, white)" />
    <path
      d="M64.4 43.3a10.6 10.6 0 0 1-7.1 10c-4.4 1.4-9.2 0-12.2-3.4a10.6 10.6 0 0 1-1-12.3 11 11 0 0 1 11.4-4.8 11 11 0 0 1 8.8 10.5c0 .7 1.2.4 1.2-.2a11.5 11.5 0 0 0-7.9-10.8A12.5 12.5 0 0 0 44.1 36a11.4 11.4 0 0 0-.9 13.3C46 53.6 51 55.5 56 54.6a12.2 12.2 0 0 0 9.7-11.5c0-.7-1.2-.3-1.2.2m32.4-10.5h-23a2.8 2.8 0 0 0-2.9 2.8v18.2a1 1 0 0 0 1.6 1L76 52h20.8c1.6 0 2.8-1.3 2.8-2.9V35.6c0-1.5-1.2-2.8-2.8-2.8"
      fill="#002780" />
    <path
      d="M96.7 32.6H75.2c-1.3 0-2.8 0-3.8.8-.8.7-1 1.5-1 2.5v17.8c0 1 .8 1.3 1.7 1.3.4 0 .9-.2 1.2-.6l2.6-1.8.6-.5h-.4 21.3a3 3 0 0 0 2.7-2.3v-14c0-1-.5-2-1.4-2.6a3.5 3.5 0 0 0-2-.6s-.5 0-.4.2c0 .3.6.3.7.3.6 0 1.1.4 1.5.9s.6 1 .6 1.7v13.4c0 1-.5 2-1.5 2.5-.8.4-1.8.3-2.7.3H75.8c-.2 0-.4 0-.6.2l-1 .8-2.1 1.5-.4.2h.1l-.2-.4V35.7c0-1.2.8-2.3 2-2.6H97s.5 0 .4-.2-.6-.3-.7-.3"
      fill="#002780" />
    <path d="M79 44.1a1.2 1.2 0 1 0 0-2.4 1.2 1.2 0 0 0 0 2.4" fill="#002780" />
    <path
      d="M79.7 42.9c0 .2 0 .4-.2.6v.2h-.2v.2H79c-.1 0 0 0 0 0s-.1 0 0 0 .1 0 0 0c0 0 .1 0 0 0h-.2v-.1h-.1v-.2c-.4-.5-.4-1 0-1.5l.3-.1c.1 0 0 0 0 0s.1 0 0 0c0 0-.1 0 0 0-.1 0 0 0 0 0s.1 0 0 0h.3l.1.2c.2.2.3.4.3.7l.1.2a1.3 1.3 0 0 0 1 0s.1 0 .1-.2c0-.6-.4-1.2-1-1.3-.8-.2-1.8-.1-2.4.4-.3.4-.4 1.1 0 1.6.4.6 1.3.8 2 .7s1.3-.6 1.3-1.4l-.2-.2a1.3 1.3 0 0 0-.8 0l-.1.2z"
      fill="var(--b, white)" />
    <path d="M85.2 44.3a1.2 1.2 0 1 0 0-2.5 1.2 1.2 0 0 0 0 2.5" fill="#002780" />
    <path
      d="M85.9 43.2v.1s0 .2 0 0v.4h-.1l-.1.2s0-.1 0 0h-.1q.1 0 0 0s-.1 0 0 0h-.1c-.2 0 0 0 0 0h-.3s.1 0 0 0H85l-.3-.3v-.3c-.2-.2 0 0 0 0l-.2-.2v-.5q.2-.1 0 0l.2-.2s0 .1 0 0c0 0 .2 0 0 0h.2s-.1 0 0 0h.2c-.1 0 0 0 0 0h.1s.2 0 0 0l.4.3v.5c.2.7 1.3.3 1.3-.2 0-.6-.4-1.2-1-1.4-.9-.2-1.7 0-2.2.7-.4.5-.5 1.2-.2 1.7a1.8 1.8 0 0 0 1.8.7c.9-.1 1.6-.8 1.6-1.7 0-.3-.4-.3-.6-.2-.2 0-.5.2-.5.4"
      fill="var(--b, white)" />
    <path d="M91 44.2a1.2 1.2 0 1 0 0-2.4 1.2 1.2 0 0 0 0 2.4" fill="#002780" />
    <path
      d="M91.7 43.1v.4s-.1 0 0 0l-.2.2-.2.2h-.2c.2 0 .1 0 0 0q.2 0 0 0c-.1 0 0 0 0 0H91l-.2-.1s0-.1 0 0V43.5s-.2-.2-.2 0v-1.1h.2s0-.2 0 0v-.2c.2 0 .1 0 0 0h.3s-.2 0 0 0c0 0-.2 0 0 0q.1 0 0 0 .2 0 0 0h.4v.2l.1.1v.6l.4.1h.4c.3 0 .5-.1.5-.4 0-.6-.4-1.2-1-1.4a2 2 0 0 0-2.2.6c-.4.5-.5 1.1-.1 1.8a1.8 1.8 0 0 0 1.8.7c.5 0 .9-.4 1.2-.6l.3-1.1-.2-.2a.9.9 0 0 0-.4 0c-.3 0-.5.1-.5.5z"
      fill="var(--b, white)" />
    <path
      d="M96.6 56.2a8.8 8.8 0 0 1 2.4 3.4c.5 1.1.9 2.3 1.1 3.7.1 1.1.1 2.4-.4 3.5-.5.9-1.6 1.8-2.8 1.8-1.3-.1-2.4-1.6-2.7-2.9l-.5.2c.8.1 1.5.8 2 1.4.5.8.7 1.7.7 2.6a6 6 0 0 1-2.4 4.6 9.4 9.4 0 0 1-5.6 2c-2 0-4-.3-5.9-.7a12 12 0 0 1-5.6-3h-1s-.3 0-.1.2c1.5 1.6 3.5 2.4 5.6 3 2.2.6 4.5.9 6.7.9s4.7-.5 6.6-1.8a6.8 6.8 0 0 0 2.9-5c0-1-.3-2-.9-3a4.5 4.5 0 0 0-3-1.6l-.6.1a4 4 0 0 0 2.6 3.1 4.4 4.4 0 0 0 4.4-.8c2-1.8 1.3-5.3.4-7.5-.6-1.6-1.5-3.2-3-4.4h-.7s-.4 0-.2.2"
      fill="#002780" />
  </g>
</svg>
