<svg xmlns="http://www.w3.org/2000/svg" viewBox="0 0 120 120" fill="none">
  <g id="doc">
    <path fill="var(--c, black)"
      d="M50.1 80.2s5.64-15.73 16.18-18.85c10.54-3.12 21.31 1.87 25.06 14.69 3.74 12.81 2.66 26.3 2.66 26.3l-38.9 1.78-5-23.93Z" />
    <path fill="var(--c, black)"
      d="M50.7 80.26a48.01 48.01 0 0 1 4.3-8.45 31.71 31.71 0 0 1 5.23-6.35 16.8 16.8 0 0 1 7.3-4.08c1.44-.39 2.9-.6 4.39-.65a17.54 17.54 0 0 1 11.88 4.1 21.33 21.33 0 0 1 5.71 7.78c.8 1.82 1.4 3.72 1.85 5.66.55 2.19.96 4.4 1.3 6.6a87.46 87.46 0 0 1 .76 17.19c0 .1 0 .19-.02.26l.31-.17-3.89.17-9.3.43-11.24.5-9.7.44c-1.56.07-3.14.1-4.7.21h-.07l.86.24-.5-2.4-1.18-5.7-1.44-6.94-1.25-5.96-.4-1.96c-.05-.32-.12-.63-.2-.92v-.04c-.07-.32-1.24-.41-1.17-.03l.5 2.4 1.18 5.71 1.44 6.94 1.25 5.95.4 1.97c.05.31.1.62.2.94v.04c.04.27.7.27.86.24l3.89-.16 9.31-.44 11.23-.5 9.7-.43c1.56-.07 3.14-.1 4.7-.22h.07c.1 0 .32-.05.32-.17a92.03 92.03 0 0 0-.4-14.93 65.06 65.06 0 0 0-1.04-6.47c-.41-2.16-.99-4.3-1.68-6.39a23.47 23.47 0 0 0-5.28-8.73 19.07 19.07 0 0 0-7.7-4.76 21.12 21.12 0 0 0-13.8.39A16.23 16.23 0 0 0 61 63.63a27.7 27.7 0 0 0-5.93 6.15 44.24 44.24 0 0 0-3.81 6.4 41.31 41.31 0 0 0-1.76 3.99c-.1.21 1.06.45 1.2.1Z" />
    <path fill="var(--b, white)"
      d="M90.33 63.92s-.5-12.62-.38-14.92c.12-2.3 2.3-2.55 2.3-2.55-.86-1.27 1.1-1.58 1.1-1.58s-3.52-4.18.3-2.88c2.92.98 4.6 6.65 4.6 6.65s5.5-3.39 6.46-2.5c.96.89-7.35 9.84-7.35 9.84s.48 3.1 1.97 7.75a53.96 53.96 0 0 1 2.09 9.12c1.34 9.72 2.42 27-9.22 16.37-4.99-4.51-1.87-25.32-1.87-25.3Z" />
    <path fill="var(--c, black)"
      d="M90.76 64.16c-.07-2.09-.17-4.17-.24-6.26-.1-2.79-.24-5.62-.17-8.4.03-.77.27-1.54.94-2.02a2.5 2.5 0 0 1 1.2-.48c.34-.02.14-.55.05-.7l-.05-.09-.02-.07c0-.05.02-.1.04-.15.1-.14.24-.26.41-.36.22-.12.46-.19.7-.24.38-.07.1-.67-.05-.84l-.34-.4-.14-.22c-.07-.1.07.1 0 0l-.1-.14c-.12-.17-.24-.34-.33-.5l-.15-.25c-.04-.07.05.1.03.03l-.03-.05-.07-.15c-.02-.04-.02-.1-.05-.12-.02-.02-.04-.14-.02-.04l-.02-.1v-.1c0-.02 0-.07.02-.1-.05.1 0 0 .02-.02l.03-.02c.02-.02.05-.02.07-.05.07-.05.07-.02.2-.05a3 3 0 0 1 1.5.36c.48.27.9.6 1.23.99.74.89 1.34 1.9 1.8 2.97.21.48.38.94.57 1.42.03.05.03.1.05.14-.05-.12.03.1 0 0l.07.2.05.16c.07.22.39.82.72.63.99-.6 2-1.18 3.03-1.66.67-.36 1.39-.65 2.13-.86.27-.07.55-.12.84-.1-.1 0 .05.03.07.03.1.02-.04-.05.05.02a.87.87 0 0 1-.3-.5c0 .04-.03.12 0-.03 0 .03 0 .07-.03.1l-.03.1-.02.04c-.03.1.02-.02 0 .03l-.29.6a13.9 13.9 0 0 1-1.06 1.58c-.96 1.3-1.99 2.54-3.04 3.74-.84.96-1.68 1.92-2.55 2.86-.12.14-.38.31-.43.5-.02.15 0 .32.05.46.05.24.1.48.12.72.45 2.3 1.05 4.58 1.77 6.84a54.22 54.22 0 0 1 2.1 9.14c.47 3.48.83 7.01.76 10.54 0 1.56-.17 3.14-.48 4.68a6.57 6.57 0 0 1-1.44 3.2c-.67.69-1.68.98-2.64.74-1.6-.34-3.05-1.44-4.3-2.5l-.64-.58-.17-.16c-.1-.1.07.07 0 0-.07-.08-.05-.08-.1-.1-.1-.1-.17-.2-.24-.31-.07-.12.05.07-.05-.07l-.14-.22-.22-.36c-.07-.12.03.05-.04-.1l-.12-.21c-.15-.29-.27-.6-.36-.91l-.05-.15-.07-.24c-.05-.19-.12-.36-.15-.55a24.23 24.23 0 0 1-.6-3.48c-.36-3.5-.26-7.06-.02-10.56.17-2.28.38-4.58.7-6.84l.04-.34a.89.89 0 0 0-.33-.76c-.15-.12-.46-.24-.48.04a109.3 109.3 0 0 0-.89 9.8c-.15 2.66-.1 5.35.14 8.01.22 2.28.6 4.66 1.73 6.67a9.04 9.04 0 0 0 2.38 2.6 12.7 12.7 0 0 0 3.48 2.13c.79.3 1.68.46 2.52.2a3.2 3.2 0 0 0 1.77-1.4c.5-.79.84-1.68 1.06-2.59.24-1.1.4-2.23.48-3.38.14-2.67.07-5.33-.22-7.97a69.89 69.89 0 0 0-1.6-10.2c-.56-2.26-1.33-4.44-1.93-6.7-.36-1.37-.7-2.73-.96-4.1l-.07-.43c0-.05 0-.08-.02-.12v.07l-.05.21c1.85-1.99 3.62-4.03 5.3-6.16.5-.63.99-1.28 1.42-1.95.31-.43.58-.9.72-1.44a1.2 1.2 0 0 0-.89-1.39c-.72-.14-1.5.22-2.16.46-1.46.6-2.85 1.34-4.2 2.18l.72.62c-.21-.7-.45-1.36-.74-2.04a14.23 14.23 0 0 0-2.16-3.62c-.87-1-2.09-1.87-3.46-1.9-1.13-.02-.81 1.23-.5 1.88.38.74.84 1.44 1.4 2.08l-.06-.84c-.38.05-.74.2-1.05.41-.65.48-.48 1.27-.1 1.9l.05-.7a2.8 2.8 0 0 0-2.43 2.3c-.07.53-.1 1.04-.07 1.57 0 .62 0 1.24.03 1.87.04 3.2.16 6.38.28 9.57l.1 2.45c.02.3.2.58.46.72.21.12.38.03.38-.24l-.05.12Z" />
    <path fill="var(--c, black)"
      d="M95.59 49.5a8.93 8.93 0 0 0-1.8-4.73c-.2-.22-.44-.36-.72-.4-.12-.03-.5 0-.34.2a8.23 8.23 0 0 1 1.73 4.6c.02.33 1.15.71 1.13.33ZM96.19 50.58l3.1-1.97.43-.26c.19-.12-.34-.3-.39-.3-.24-.06-.5-.06-.74.03l-3.1 1.97-.43.27c-.2.12.34.28.38.28.24.1.5.08.75-.02Z" />
    <path fill="var(--c, black)"
      d="M67.75 50s-.84-11.4 9-12.94c9.84-1.53 19.44 8.4 16.94 20.14s-17 9.36-17 9.36L67.76 50Z" />
    <path fill="var(--c, black)"
      d="M68.3 50.15c-.02-.27-.02-.5-.02-.75 0-.24 0-.57.02-.86 0-.17.02-.36.05-.53l.02-.26.03-.15c0-.02.02-.17 0-.1.24-1.9.74-3.81 1.72-5.44a9.37 9.37 0 0 1 5.5-4.25c2.86-.77 5.88-.55 8.6.65a15.34 15.34 0 0 1 6.66 5.73 16.7 16.7 0 0 1 2.67 9.22c-.03 2.9-.72 5.95-2.57 8.26a11.3 11.3 0 0 1-5.35 3.62 17.88 17.88 0 0 1-4.4.86c-.23.03-.3.03-.6.05l-.62.03a22.2 22.2 0 0 1-3.33-.17l-.17-.03.6.39-3.03-5.62-4.8-8.88-1.1-2.04a.73.73 0 0 0-.74-.38c-.3.07-.3.36-.2.57l2.62 4.83 4.56 8.45 1.49 2.73c.1.17.17.36.29.5.16.27.45.44.76.44 1.88.24 3.77.24 5.64 0 3.03-.36 6.05-1.42 8.3-3.53 3.08-2.9 4-7.49 3.6-11.57a17.79 17.79 0 0 0-6.26-11.9c-3.36-2.81-7.84-4.23-12.19-3.41a10.42 10.42 0 0 0-5.04 2.42 10.59 10.59 0 0 0-2.64 3.84 16.17 16.17 0 0 0-1.15 6.94c.05.29.26.55.55.62.24.1.55 0 .53-.28Z" />
    <path fill="var(--b, white)"
      d="M65.47 59.5c-2.16-4.9 4.75-18.43 4.75-18.43 3.34-3.05 14.88 2.6 14.88 2.6-2.71 3.21-1.15 9.64-1.15 9.64 2.33-2.9 5.78-.43 4.7 2.74-1.08 3.17-5.13 3.1-5.13 3.1s-3.46 6.9-4.1 8.13c-.65 1.22-7.18 1.4-9.37-3.12-.02-.02-2.68-.38-4.58-4.66Z" />
    <path fill="var(--c, black)"
      d="M66.02 59.5c-.44-1-.46-2.18-.36-3.28.14-1.42.4-2.81.81-4.18.8-2.76 1.8-5.45 3-8.04l1.08-2.33c.05-.14.12-.26.2-.38-.05.05 0 .02.07-.02a3.83 3.83 0 0 1 .89-.46 5.7 5.7 0 0 1 1.55-.22c.63 0 1.28.05 1.9.15 1.42.21 2.78.57 4.13 1.03 1.9.62 3.72 1.42 5.54 2.2l.1.06-.36-.65c-1.1 1.34-1.51 3.1-1.63 4.77a17.78 17.78 0 0 0 .43 5.14c.07.29.81.6 1.05.31.36-.48.87-.86 1.44-1.08a1.65 1.65 0 0 1 1.1 0c.37.15.66.41.87.72.27.41.43.89.43 1.4A3.7 3.7 0 0 1 87 57.48c-.65.55-1.44.91-2.28 1.08-.33.07-.7.12-1.05.17.16-.03-.05 0-.08 0h-.26a.35.35 0 0 0-.38.19c-.63 1.27-1.28 2.52-1.9 3.8-.46.93-.94 1.84-1.42 2.78-.16.33-.33.67-.52 1l-.2.36-.07.15c-.05.12.05-.03-.05.05l-.1.1c-.09.06-.02.02 0 0l-.06.04c-.12.07-.27.12-.39.17-.12.05.1-.03-.02 0l-.12.02a4.48 4.48 0 0 1-.84.14c-.4.03-.84.03-1.25 0a8.68 8.68 0 0 1-2.71-.72 6.06 6.06 0 0 1-2.38-2.06c-.17-.24-.26-.6-.48-.81a.9.9 0 0 0-.45-.22l-.1-.02h-.05c-.12-.03.15.04.05.02-.1-.02-.24-.1-.36-.14l-.1-.05c-.16-.07.08.05-.02 0l-.26-.15c-.1-.04-.2-.12-.3-.16l-.11-.1c-.05-.05-.05-.05 0 0l-.1-.07a9.2 9.2 0 0 1-2.61-3.55c-.12-.27-.41-.41-.7-.41-.22 0-.5.14-.38.4.9 2.05 2.4 4.18 4.6 4.93.17.07.34.12.53.14l-.57-.4a7.44 7.44 0 0 0 4.17 3.64c1.5.58 3.07.74 4.63.5.5-.04 1.01-.24 1.42-.55.29-.26.46-.72.62-1.08.72-1.39 1.42-2.8 2.14-4.2l1.56-3.12-.38.2c1.5.02 3.19-.49 4.34-1.47a4.17 4.17 0 0 0 1.42-3.36 3.5 3.5 0 0 0-2.07-2.86c-1.44-.62-2.97-.02-3.93 1.16l1.05.3c-.02-.06.03.13 0 .06l-.02-.15-.1-.48c-.1-.55-.17-1.1-.21-1.65-.15-1.56-.15-3.17.26-4.68.22-.9.62-1.73 1.18-2.45.24-.29-.15-.55-.36-.65A45.1 45.1 0 0 0 76 40.11a12.57 12.57 0 0 0-4.13-.24c-.55.08-1.1.24-1.6.5-.27.13-.5.34-.68.6-.3.6-.57 1.2-.86 1.8a63.7 63.7 0 0 0-3.05 7.78 31.74 31.74 0 0 0-1.06 4.47 9.48 9.48 0 0 0 .05 3.77c.07.24.15.48.24.7.15.26.43.42.72.42.22 0 .5-.14.39-.4Z" />
    <path fill="var(--b, white)" d="M70.94 54.15s-7.9-1.34-7.97-5.69c-.07-4.34 5.93-4.46 9.12.17" />
    <path fill="var(--c, black)"
      d="M70.63 53.72a17.13 17.13 0 0 1-4.1-1.3c-.34-.14-.68-.33-1-.5-.14-.07-.23-.14-.38-.24l-.24-.17c-.12-.07-.12-.1-.19-.14l-.2-.17s-.11-.12-.06-.05c.05.08-.07-.07-.07-.07l-.15-.14-.05-.07-.1-.12c-.06-.1-.02-.03 0-.03l-.06-.1-.15-.19-.2-.38a3.67 3.67 0 0 1-.16-2.2c.36-1.5 1.75-2.24 3.2-2.22a6.41 6.41 0 0 1 5.03 2.9c.15.2.39.49.63.54.24.04.1-.22.02-.34-1.27-1.82-3.2-3.46-5.42-3.89-1.51-.29-3.34.03-4.1 1.54-.8 1.58-.22 3.36.9 4.6a11.07 11.07 0 0 0 4.42 2.8c.99.35 2 .64 3.03.83.24.05.1-.22.02-.34-.12-.19-.38-.5-.62-.55ZM78.4 56.41c-.24-.29-.55-.5-.89-.65-.6-.26-1.3-.3-1.92-.14-.17.05.12.31.17.33.14.1.36.24.53.2.29-.1.57-.12.86-.1.03 0 .1.02.03 0l.1.02.14.03c.07.02-.08-.03.02 0l.07.02.07.03c.03.02-.1-.05-.02 0 .05.02.17.12.02 0l.1.04c.07.05-.1-.07-.05-.02l.03.02c.02.03.12.12 0 0l.1.1c.04.02-.08-.1-.03-.02.14.16.33.28.55.33.05 0 .14.03.17-.02.02-.05 0-.15-.05-.17ZM71.37 44.89s.62.43.17.98c-.46.56-1.18 0-.94-.6a.56.56 0 0 1 .67-.4l.1.02ZM75.95 46.57s.63.43.17.98c-.46.56-1.18 0-.94-.6a.57.57 0 0 1 .68-.4c.04 0 .07 0 .1.02Z" />
    <path fill="var(--b, white)"
      d="M61.94 112.14s24.07-1.49 32.8-4.73c0 0 5.89-6.4-1.24-43.68 0 0-30.48 6.67-30.91 6.84-.43.17 4.46 25.34-.65 41.57Z" />
    <path fill="var(--c, black)"
      d="M62.37 112.43c1.3-.08 2.62-.2 3.91-.3 3.1-.23 6.2-.52 9.27-.86 3.62-.4 7.27-.86 10.87-1.46 1.63-.29 3.26-.6 4.9-.98.71-.17 1.41-.34 2.1-.56l.94-.28c.29-.08.6-.17.87-.3.16-.16.3-.38.4-.62.34-.7.63-1.44.82-2.18.38-1.44.65-2.9.8-4.37.23-2.4.33-4.8.28-7.2-.05-3.53-.29-7.05-.67-10.58-.5-4.87-1.23-9.75-2.09-14.57-.24-1.42-.5-2.8-.77-4.22-.02-.15-.36-.3-.48-.36a.94.94 0 0 0-.57-.15L90.4 64l-6.31 1.4-8 1.77c-2.54.55-5.08 1.13-7.65 1.68-1.75.39-3.5.77-5.25 1.18-.36.07-.72.14-1.08.26-.22.07-.12.41-.1.6.14 1.8.43 3.58.62 5.35.36 3.17.68 6.36.84 9.56.24 3.9.3 7.82.12 11.73-.16 3.94-.6 7.9-1.53 11.76-.22.89-.46 1.78-.75 2.64-.07.24 1.04.7 1.08.53A51.67 51.67 0 0 0 64.46 101c.31-3.96.36-7.92.19-11.9-.12-3.41-.38-6.84-.74-10.23-.24-2.2-.53-4.44-.8-6.64-.04-.44-.1-.84-.12-1.28 0-.07-.02-.04.08-.07.14-.02.26-.07.4-.1 1.47-.33 2.93-.67 4.37-.98 2.43-.53 4.85-1.08 7.27-1.6l8.07-1.78 6.89-1.51 3.64-.8.17-.02-1.03-.5c.98 5.18 1.87 10.39 2.5 15.62.48 3.82.84 7.66.96 11.5.12 2.61.07 5.25-.12 7.87a34.73 34.73 0 0 1-.72 4.99c-.2.91-.48 1.8-.84 2.66-.12.3-.3.72-.53.94l-.03.02c-.28.15-.57.24-.86.3l-.96.28c-1.46.43-2.98.74-4.46 1.06-3.56.7-7.13 1.2-10.7 1.63-3.3.4-6.6.74-9.94 1-1.83.15-3.68.32-5.52.44l-.27.02c-.24.03.03.22.1.29.33.1.62.2.91.22Z" />
    <path fill="#002780"
      d="m75.55 101.46 4.7-.75c2.57-.4 5.16-.84 7.7-1.3.46-.09.94-.16 1.4-.26.24-.02.45-.1.67-.16.2-.1-.2-.36-.27-.39-.14-.1-.5-.33-.7-.24a19.64 19.64 0 0 1-1.68.38c-1.14.22-2.3.41-3.47.6-2.52.44-5.07.85-7.59 1.25l-1.72.27c-.2.02.24.36.26.38.2.15.46.24.7.22ZM75.29 99.8l4.87-.96c2.64-.5 5.25-1.03 7.9-1.56.66-.1 1.34-.24 1.98-.4.17-.05-.28-.32-.3-.34-.18-.1-.51-.29-.73-.22-.55.15-1.08.27-1.63.36l-3.53.72c-2.59.5-5.2 1.04-7.8 1.54l-1.75.34c-.17.02.29.3.31.33.17.15.41.22.68.2Z" />
    <path fill="var(--c, black)"
      d="M67.43 99.68a111.1 111.1 0 0 0-.28 3.98c-.03.22-.03.46 0 .7.04.4.4.72.84.72.74-.05 1.46-.14 2.18-.31.8-.12 1.56-.31 2.3-.53a.6.6 0 0 0 .46-.29c.12-.31.2-.65.2-.98.06-.87.04-1.75-.06-2.62-.07-.67-.24-1.56-1.08-1.6-.76 0-1.5.09-2.25.26l-2.02.36-.12.02c-.5.1 0 1.18.43 1.1.82-.16 1.66-.3 2.48-.45.52-.1 1.08-.17 1.63-.2h.38c-.05-.04.05 0 0 0l-.07-.04c-.1-.1-.2-.2-.24-.34.05.12-.02-.1 0-.02l.02.14c.03.1.03.2.05.3v.09l.03.24.04.96c.03.33 0 .6 0 .9 0 .25-.02.49-.04.7 0 .1-.03.17-.05.27-.03.1 0 .1 0 .02 0 .03-.03.05-.05.08.1-.1 0-.03-.05 0l-.21.07a29.39 29.39 0 0 1-3.4.7l-.76.09h-.33c.05 0 .1.02.12.05l.21.19c.1.14.17.31.2.5V104.5l.02-.57c.02-.5.07-1.01.1-1.54.04-.72.12-1.44.16-2.16a.91.91 0 0 0-.4-.74c-.27-.2-.41-.05-.44.19Z" />
    <path fill="#002780"
      d="M75.3 90.42c1.6-.24 3.15-.5 4.74-.77 2.56-.43 5.16-.84 7.72-1.32.46-.1.92-.17 1.37-.27.24-.02.48-.1.7-.16.19-.1-.43-1.08-.75-.96-.16.07-.33.12-.5.14-.38.07-.77.14-1.15.24-1.15.22-2.33.4-3.48.6-2.52.43-5.04.84-7.56 1.25l-1.73.26c-.24.05.34 1.03.65.99ZM75.19 88.6l4.9-.96 7.89-1.56c.67-.1 1.34-.24 2-.44l-.51-.33c-.15-.07-.41-.27-.58-.22-.46.15-1.1.24-1.63.34l-3.55.72c-2.6.5-5.19 1.03-7.78 1.53l-1.77.34c-.1.02.3.24.33.26.17.12.5.36.7.32Z" />
    <path fill="var(--c, black)"
      d="M67.24 88.5c-.12 1.31-.21 2.66-.28 3.98-.03.21-.03.45.02.67.14.4.55.65.98.6a13.3 13.3 0 0 0 2.19-.31c.79-.12 1.56-.31 2.33-.53.21-.07.4-.12.5-.34.1-.28.14-.6.14-.9.08-.87.05-1.76-.04-2.62-.03-.32-.1-.65-.24-.94-.22-.36-.6-.55-1.01-.55-.77.02-1.51.1-2.26.26l-2.01.36-.08.05c-.6.12.12 1.03.56.94 1.2-.24 2.42-.48 3.64-.6.17-.03.32-.03.48-.05h.27c.05 0 .12.05.05 0l-.05-.03c.14.08.02-.02-.31-.24-.12-.14-.08-.12-.05-.07-.1-.17-.03-.02 0 .03 0 .02.02.12 0 0 0 .02 0 .07.02.1.12.76.15 1.55.12 2.34 0 .34-.02.68-.07 1.01l-.07.3c.05-.13.02-.06 0-.03l.05-.03c-.03.03-.05.03-.1.05-.58.2-1.15.34-1.75.46-.77.14-1.54.28-2.3.38-.13.02-.27.02-.41.02h-.12c-.1 0-.1-.02-.03 0 .17.05.63.36.6.63v-.39c.05-1.39.17-2.76.29-4.15 0-.4-.98-1.03-1.06-.4Z" />
    <path fill="#002780"
      d="m74.76 79 4.73-.77c2.59-.44 5.16-.84 7.72-1.32.46-.1.92-.17 1.37-.27.27-.05.53-.12.77-.21.22-.12.31-.39.22-.6l-.05-.08a.67.67 0 0 0-.82-.19c-.1.05.15-.02.05-.02l-.12.02c-.12.03-.24.05-.36.1-.38.1-.77.14-1.15.24-1.15.21-2.33.4-3.48.6-2.52.43-5.04.84-7.56 1.25l-1.73.26a.47.47 0 0 0-.38.55c0 .03 0 .05.02.05.14.31.46.46.77.38ZM74.18 77.24l4.99-.98c2.64-.53 5.28-1.03 7.9-1.56.67-.1 1.34-.24 2.01-.43.2-.05.55-.22.48-.48-.07-.27-.5-.22-.67-.15-.53.15-1.08.27-1.63.34-1.18.24-2.35.48-3.53.7-2.6.5-5.18 1.03-7.8 1.53l-1.3.27h.03l-.1.02-.14.02-.12.03c-.22.05-.6.14-.65.4-.05.27.36.34.53.3Z" />
    <path fill="var(--c, black)"
      d="M66.89 76.98a78.57 78.57 0 0 0-.3 4.1c-.02.24-.02.48.03.7.1.4.5.7.91.62.72-.05 1.44-.14 2.16-.29.77-.12 1.54-.28 2.3-.5.22-.02.42-.14.54-.34.12-.28.16-.6.16-.9.08-.9.05-1.8-.02-2.7-.07-.67-.24-1.53-1.08-1.56-.8.03-1.56.1-2.35.27l-2.02.36-.12.02c-.53.12.05 1.15.5 1.06.82-.17 1.66-.31 2.48-.46.53-.1 1.05-.17 1.6-.2h.2c.07 0 .12.03.19.03-.07 0-.1-.02-.17-.07-.12-.07-.19-.2-.26-.31l.02.02c.03.05-.02-.16 0-.02 0 .05.03.1.03.14.02.12 0-.1 0 .05l.02.2c.02.14.02.26.05.4.02.29.02.6.05.89.02.29 0 .62 0 .94 0 .24-.03.48-.05.7 0 .09-.03.16-.05.23-.02.07-.02.07 0 .03 0 .02-.07.1 0 .04-.14.05.07-.04 0 0l-.22.08a28.93 28.93 0 0 1-4.2.8l-.14-.01h-.05.03-.1c.05-.05.38.24.31.17l.2.26c.02.02.04.26.07.22v-.25c0-.16 0-.35.02-.52V80.89l.02-.38.05-.82.17-2.14a.84.84 0 0 0-.36-.74c-.24-.07-.6-.12-.62.17ZM75.93 100.9a8.68 8.68 0 0 1 1.2-1.63c.05-.05.1-.1.14-.12-.04.05.05-.02 0 0l.08-.05c.07-.05-.1 0-.03 0 .03 0 .1 0 0 0l-.17.03c-.04 0-.07 0-.1-.03h.03c-.05.03-.05-.05-.02 0 0 .03.05.05.05.05.04.07.1.14.14.24.07.17.1.34.1.53a1 1 0 0 1-.1.38c-.05.12-.12.1.02.03.15-.08.68.04.53-.03-.05-.02.03.07 0 0 .03.1.05-.05 0 .05 0-.05.03-.07.03-.12 0-.05.02-.07 0 0l.02-.07a3.54 3.54 0 0 1 .7-.8 3.96 3.96 0 0 1 .86-.6c-.05.03.1-.02.12-.04.12-.05-.02 0-.02 0 .02 0 .04-.03.07-.03-.12.03-.07-.02-.17-.02.05 0 .02.07-.02-.02l.1.07.11.17c.07.14.15.3.17.45.02.12.02.27.02.39 0 .07-.02.12-.04.19v.02c-.05.05-.03.05.02-.02.17-.15.38-.2.58-.1.04.03 0 .07.07.1-.03 0 0-.15 0-.05 0-.1.05-.2.1-.26.16-.27.38-.5.62-.72.19-.17.43-.32.67-.41-.1.05-.05 0 0 0h-.02c-.1 0 0 0 .02.02.12.07.22.17.29.29.1.12.14.26.17.4.02.06.02.13.02.2v.07l.07.05.36-.2c.1-.02.22-.02.31.03.05.03.03.05.03 0l.02-.1c.03-.04.03-.09.05-.11.17-.32.38-.58.65-.8a3.53 3.53 0 0 1 .5-.33s.2-.03-.02 0c-.1 0-.1 0 0 0 .24.02.62-.12.7-.39.07-.26-.3-.36-.49-.36-.98-.04-2.01.92-2.42 1.7-.2.37-.26.82.2 1 .45.16 1.24 0 1.34-.58.02-.48-.17-.96-.53-1.28a1.61 1.61 0 0 0-1.63-.26c-.5.2-.99.5-1.35.89-.29.29-.67.7-.74 1.13-.1.6.62.76 1.1.62.53-.17.67-.67.65-1.18-.02-.5-.29-1.08-.77-1.27-.48-.19-1.03-.02-1.46.17a4.5 4.5 0 0 0-2.02 1.82c-.21.41-.07.8.41.9.58.11 1.15-.27 1.27-.85.15-.57-.05-1.37-.62-1.65-.53-.24-1.15 0-1.59.36-.6.52-1.1 1.17-1.46 1.9-.31.6.86.64 1.08.23ZM86.16 99.08l.14-.28.17-.32.1-.16c.02-.05-.03.02-.03.02s.02-.02.02-.05l.05-.1c.15-.21.31-.43.5-.64l-.04.05.05-.03c.02-.02.04-.02.04-.05 0 0 .05-.02.05-.04 0-.03-.12.04-.07.04.02 0 .02-.02.05-.02.07-.05-.15.02-.07.02h-.08c.1 0-.16-.02-.07 0-.17-.02-.12-.02-.1-.02l-.07-.02c.08.04-.02 0-.02-.03 0 .03.02.03.05.05.02.02.07.1.02.02-.05-.07 0 .03.03.03l.07.14.02.07c0 .03.03.1 0 0 .03.12.05.24.05.36V98.41c0-.07 0 .05-.02.07l-.03.05c-.02.07.03-.05.03-.05s-.05.05.02 0c.07-.07.17-.1.26-.12a.74.74 0 0 1 .46.03l.05.02s-.05-.02.02.03c.07.04-.02-.03.05.04 0 .03.07.08 0 0-.02-.07 0 .1 0 .03v-.12c-.02.07 0-.1 0 0 0-.03 0-.05.02-.07l.08-.17a.74.74 0 0 1 .1-.2l.02-.04c-.05.1.02-.05 0 0l.04-.1.15-.19c.05-.07.1-.14.14-.14.05 0-.1.07-.05.04.05-.02.03-.02.05-.04l.07-.05c.1-.07-.1.02-.02 0l.02-.03.03-.02-.1.02c.03 0 .15-.02 0 0-.14.03-.07 0-.05 0 .03 0-.16-.02-.1 0h-.02c-.02 0-.1 0-.12-.04 0 .02.08.04.08.04.26.17.6.15.84-.02.14-.1.19-.31.1-.46a.28.28 0 0 0-.13-.12c-.4-.33-.98-.24-1.41.03-.32.21-.58.5-.75.81-.17.27-.24.56-.24.87.07.55.82.74 1.25.43.22-.22.34-.5.31-.82.03-.3-.05-.64-.19-.93a1.1 1.1 0 0 0-1.13-.58c-.4.07-.77.29-1 .63-.39.48-.7 1-.94 1.56-.12.26.21.45.43.48.36.14.7.07.82-.2ZM75.86 89.6a8.76 8.76 0 0 1 1.22-1.66c.07-.07.15-.12.24-.19.07-.05-.1.03-.02 0l-.12.03h-.15c-.07 0-.04-.03-.04 0 .1.12.16.24.24.36.07.16.1.36.1.55 0 .14-.06.29-.1.43-.08.14-.15.07.28 0l.34-.05s0-.1-.02-.05l.02-.12c.02-.1.07-.19.14-.26.17-.24.36-.43.58-.62a4 4 0 0 1 .72-.53c.02-.03.2-.1.14-.07-.04.02.1-.03.12-.05-.14.05.1.02-.07.02h-.02c-.03 0-.07 0-.07-.02.02.07.19.19.24.29a1.64 1.64 0 0 1 .19.88c0 .08-.03.12-.05.2-.02.12 0 .02 0 .02-.02.02-.02.05 0 .02a.66.66 0 0 1 .65-.16c.1-.05 0 .07.02 0v-.03c0-.1.05-.17.07-.26.15-.29.36-.53.6-.75.12-.1.22-.19.36-.28.05-.03.12-.08.2-.1.07-.02.04 0 .14-.07-.1.05-.05 0 0 0-.17.02-.02 0-.02 0-.08.05-.12-.05-.03.02.15.1.27.2.36.31.15.24.24.5.22.8 0 .02 0 .07 0 0 .24-.24.48-.3.67-.2.02-.02 0 .08.02-.02 0-.1.05-.2.08-.29.14-.29.36-.55.6-.77.12-.12.24-.21.36-.28l.1-.05c.02-.03.04 0 .04-.03 0-.02.17 0-.02 0h-.1c.24.03.62-.07.77-.28.14-.22-.1-.34-.29-.34-1.03-.07-2.06.84-2.54 1.7-.17.32-.32.72.1.92.45.21 1.31 0 1.38-.58.03-.46-.14-.89-.5-1.2-.46-.4-1.1-.4-1.66-.22-.5.2-.96.5-1.34.9-.29.28-.67.66-.74 1.1-.1.6.7.62 1.08.48.52-.2.67-.63.62-1.16-.02-.45-.24-.98-.7-1.2-.48-.21-1.08 0-1.53.22a5.15 5.15 0 0 0-2.04 1.87.46.46 0 0 0 .17.65l.19.07c.62.15 1.22-.24 1.37-.86.12-.53-.03-1.3-.56-1.56-.52-.27-1.22.02-1.63.38a6.68 6.68 0 0 0-1.46 1.9c-.27.48.89.38 1.08.05v.14ZM86.04 88.04c.14-.33.33-.67.52-.98.15-.24.32-.46.5-.65l.27-.2.12-.04h.1c.02 0 .02 0 0 0l-.77-.38.02.02.05.05.1.14a1.82 1.82 0 0 1 .1 1.03c0 .08-.05.15-.08.22-.02.02-.05.02-.05.05l.94.45a.8.8 0 0 1 .05-.52 1.9 1.9 0 0 1 .79-.99c.05-.02.1-.05.14-.05h.1a.9.9 0 0 1-.4-.19c-.4-.21-.51-.29-.4-.19.22.17.46.29.73.38.05.03.4.17.24.03a4.21 4.21 0 0 0-1.1-.55.78.78 0 0 0-.41.02c-.3.14-.5.38-.65.65-.17.21-.27.5-.24.77.02.16.14.24.29.33a4 4 0 0 0 .72.36c.07.05.16.05.24.05.16-.07.16-.4.16-.53a1.7 1.7 0 0 0-.16-.84.93.93 0 0 0-.39-.36c-.21-.12-.43-.24-.65-.33-.12-.08-.24-.1-.38-.12-.26-.03-.5.19-.67.38-.39.46-.67.96-.91 1.51-.05.05 1.03.55 1.08.48ZM75.45 78.39c.2-.34.39-.65.63-.94.19-.26.4-.5.62-.72a.86.86 0 0 1 .24-.16c.02-.03.05-.03.07-.03-.02.05.05-.02 0 0 .03-.05.12 0 .03 0-.03 0-.17-.02-.1 0l-.17-.07c-.12-.02-.05-.07 0 0s.05.1.07.14c.08.17.1.36.08.56-.03.14-.05.26-.12.38.02-.02-.08.02-.03.02.2 0 .12-.07.31 0 .15.05.27.12.32.27-.03-.05 0 .02 0 .05v-.05c.02 0-.03.07.02-.05l.14-.26c.2-.24.39-.46.63-.65.24-.22.48-.39.77-.55l.19-.1.1-.05c-.08.03-.03 0 0 0 .04-.02.11-.02.16-.02h-.02c.07 0-.07 0-.1-.03-.02-.02-.19-.07-.12-.04-.02-.05.03 0 0 0 .03.04.05.04.07.12.08.12.12.26.15.43.02.12.02.26 0 .38a.44.44 0 0 0-.05.17c0-.07.05.02 0 0l.05-.02a.33.33 0 0 1 .21 0 .4.4 0 0 1 .3.12c-.03-.03.14.16.11.16v.03-.05s.03-.1 0-.02c-.02.07.03-.08.05-.1.02-.07.07-.14.12-.22.2-.26.4-.48.65-.7.21-.18.45-.33.72-.42.02 0 .07 0 .1-.03-.08-.02 0 0 .02.03.05.04.1.1.12.14l.1.17.04.19v.19s.36-.07.22-.07c.1 0 .17.05.24.1.02 0 .26.24.19.19.02 0-.02.05 0 .02.02-.05.02-.02 0 0l.05-.12a3.6 3.6 0 0 1 .8-.98c.11-.1.23-.2.37-.27l.15-.07.1-.02c-.1.02-.03 0 .02 0a.4.4 0 0 0 .43-.31v-.15c-.07-.29-.43-.43-.7-.45-.48-.03-.93.26-1.3.57-.38.31-.69.7-.9 1.13-.22.38-.1.86.28 1.1l.15.08c.5.21 1.1.02 1.13-.58.04-1.13-1.2-2.06-2.26-1.7-.5.19-.96.5-1.32.9-.29.3-.62.73-.65 1.16-.02.58.67.96 1.18.82.5-.15.57-.77.5-1.2-.07-.58-.38-1.2-.96-1.44-.45-.15-.93-.1-1.34.14-.43.22-.82.5-1.15.84-.32.26-.58.6-.77.98-.2.46.05.9.5 1.06.6.24 1.08-.14 1.2-.72.17-.67-.1-1.37-.65-1.8-.52-.34-1.08-.17-1.53.22-.6.55-1.08 1.2-1.44 1.92-.39.43.72.9.98.38ZM85.4 76.84c.15-.36.34-.7.54-1.01.14-.24.3-.46.52-.67a.57.57 0 0 1 .53-.22l.05.02c.02.03.02 0 .02.03 0-.03-.36-.43-.19-.22-.1-.12-.17-.21-.24-.36.03.05-.02-.05 0 .03.05.1.07.21.07.3.05.22.03.46-.02.68a.38.38 0 0 1-.1.17c-.02.02-.04.02-.07.02h-.02c-.05 0-.03 0 0 0 .05 0 .57.77.57.8v-.08c0-.05 0-.1.03-.14.02-.12.07-.24.12-.36.12-.27.31-.5.53-.7.1-.1.21-.14.33-.17h.15c.02 0 .04.03.07.03.02 0 .07.05.05.02.19.15-.03-.19-.05-.24a3.34 3.34 0 0 0-.5-.65c-.53-.43-1.09.3-1.3.72-.15.22-.2.5-.12.77.07.15.14.29.26.43.12.2.27.36.43.5.08.06.15.1.22.06.14-.12.14-.46.14-.63 0-.31-.1-.65-.24-.91-.16-.34-.4-.65-.7-.91a.47.47 0 0 0-.33-.15c-.26 0-.48.24-.65.41-.36.46-.64.94-.86 1.47-.02.04.05.14.05.16.07.12.14.24.24.36.07.12.17.22.26.34.1.02.22.14.22.1Z" />
    <path fill="#002780"
      d="m68.63 79.52.48.63c.22.29.48.53.89.5.29-.05.55-.21.72-.48l.43-.6c.6-.84 1.13-1.7 1.59-2.61.3-.63-.82-1.04-1.1-.46a19.07 19.07 0 0 1-2.02 3.2c-.1.09 0 .09.28.04.3.1.36.1.27-.02-.07-.1-.12-.2-.2-.27l-.4-.53a.66.66 0 0 0-.84-.12.5.5 0 0 0-.15.68l.05.04ZM68.66 91.06l.48.63c.14.2.26.43.48.53.24.07.48.1.72.04a.93.93 0 0 0 .48-.19c.17-.17.29-.38.38-.6.53-.84 1.13-1.63 1.8-2.37.15-.17-.36-.22-.43-.22-.21 0-.57-.02-.72.17-.4.45-.81.93-1.17 1.44-.2.24-.36.5-.53.77-.1.12-.17.26-.24.38-.05.07-.07.14-.12.2-.03.02-.03.04-.05.06-.05.05-.05.05 0 0l.43-.07h-.05l.44.03h-.05l.17.07a1.55 1.55 0 0 1-.2-.22l-.21-.29-.43-.57c-.05-.07-.22-.1-.3-.1a1.44 1.44 0 0 0-.45 0c-.12.07-.55.15-.43.31ZM69.6 101.82c.04.02.12.04.16.1l.1.04.02.02c.1.08.22.17.3.27.2.24.88.19 1.02-.12a20.04 20.04 0 0 1 1.83-3c.17-.22-.05-.46-.29-.5a.8.8 0 0 0-.8.23c-.69.94-1.31 1.95-1.82 3l1.04-.12a2.41 2.41 0 0 0-.8-.57.81.81 0 0 0-.84.1c-.14.09-.16.3-.07.45.03.05.07.07.15.1Z" />
    <path fill="var(--b, white)"
      d="M78.19 97.86c-.22-1.18-5.12 1.4-5.12 1.4s.65-1.62 2.24-4.8c1.58-3.2-1.5-2.89-1.5-2.89s.97-2.88-.42-3.31c-1.4-.43-8.96 6.93-8.96 6.93l-.12-4.7-4.7 4.27 3.67-11.88-13.2-2.68s-8.78 19.75-3.93 27.3c2.83 4.42 12.9 1.95 12.9 1.95a25.79 25.79 0 0 0 10.9-3.82c5.36-3.4 8.45-6.6 8.24-7.77Z" />
    <path fill="var(--c, black)"
      d="M78.74 98.03c-.1-.5-.7-.75-1.15-.82-.46-.05-.94.02-1.37.17-1 .31-2 .72-2.95 1.2l-.7.36 1.03.55c.56-1.4 1.23-2.74 1.9-4.08.4-.82 1.06-1.85.77-2.8-.22-.68-.87-1.09-1.51-1.28-.44-.12-.9-.17-1.35-.12l.96.6c.12-.38.22-.8.27-1.2.1-.62.12-1.34-.24-1.9a1.77 1.77 0 0 0-1.7-.79c-.4.1-.78.27-1.11.48a27.46 27.46 0 0 0-3.03 2.26 79.84 79.84 0 0 0-4.65 4.25l1.05.48-.1-4.7c0-.32-.8-.7-1.05-.49l-4.1 3.75-.58.52 1.03.56 1.25-4.04 2-6.38.45-1.46c.1-.32-.5-.56-.72-.58l-4.46-.91-7.1-1.44-1.64-.34c-.1-.02-.31-.02-.36.1a79.97 79.97 0 0 0-2.95 7.97c-.77 2.4-1.4 4.87-1.87 7.34a28.8 28.8 0 0 0-.53 7.32c.17 2.02.67 4.3 2.18 5.74 1.78 1.7 4.44 2.1 6.8 2.16a25.59 25.59 0 0 0 6.26-.7c.1-.02 0 0-.05 0l.26-.02c.9-.1 1.76-.24 2.62-.46 1.63-.38 3.24-.91 4.78-1.56 1.9-.86 3.72-1.92 5.4-3.14 1.44-.99 2.8-2.1 4.08-3.3a9.12 9.12 0 0 0 2.01-2.46c.15-.27.2-.56.17-.84-.05-.36-1.18-.72-1.1-.34.02.26-.05.53-.2.74-.21.39-.45.77-.76 1.1a20.7 20.7 0 0 1-3.1 2.89c-3.02 2.42-6.34 4.51-10.08 5.66a24.91 24.91 0 0 1-4.68 1.01c-.07 0 .12 0 0 0h-.05c-.05 0-.1 0-.17.02-1.39.3-2.8.5-4.22.6-1.13.1-2.26.08-3.38-.04-.56-.08-1.08-.17-1.61-.32-.12-.02-.24-.07-.39-.12l-.19-.07-.1-.02c-.07-.03.05.02-.04-.03l-.34-.14-.2-.1-.09-.04c-.4-.22-.76-.5-1.08-.87a5.43 5.43 0 0 1-.74-1.17 9.6 9.6 0 0 1-.82-2.84c-.33-2.3-.16-4.68.17-6.96a54.8 54.8 0 0 1 1.68-7.32 88.1 88.1 0 0 1 2.02-6c.4-1.05.81-2.1 1.27-3.14l.07-.14-.36.1 4.47.9 7.1 1.44 1.63.34-.72-.6-1.25 4.03L59.52 93l-.46 1.46c-.1.36.8.77 1.03.55l4.1-3.74.58-.53-1.05-.48.1 4.7c0 .32.8.7 1.05.48a89.95 89.95 0 0 1 3.86-3.55 40.7 40.7 0 0 1 2.98-2.4c.38-.29.79-.53 1.22-.77.12-.07.27-.12.4-.16l.2-.05c-.12.02-.05 0 0 0l-.1-.03-.07-.02c.1.02-.07-.05-.07-.05l.05.07c.07.12.12.27.14.41.05.34.08.7.03 1.03-.05.46-.15.9-.3 1.3-.11.38.73.62.97.6-.24.02.1 0 .14 0h.27l.17.02c.12.03-.1-.04.04 0 .03 0 .2.08.1.03s.14.12-.02-.03c.02.03.04.03.04.03-.1-.03.1.05 0 0a2.64 2.64 0 0 0 .05.05l.05.04c.07.1.1.22.12.34.14.96-.53 1.92-.94 2.74-.45.9-.88 1.82-1.3 2.76-.14.36-.3.7-.45 1.05-.07.2.24.39.36.46.2.14.46.17.67.1.48-.25.96-.49 1.47-.7.81-.41 1.68-.72 2.57-.91l.14-.03h.26c-.07 0-.02 0 0 0l-.04-.02c.02 0 .07.02-.03 0a.74.74 0 0 1-.2-.1c-.04-.05-.09-.12-.11-.12.02 0 .02.03 0 .03.05.24.36.4.6.48.2.16.65.24.6 0Z" />
    <path fill="var(--c, black)"
      d="m51.76 96.3 6.82-1.08.96-.15c.21-.02.62-.14.65-.38.02-.24-.34-.27-.5-.24l-6.82 1.08-.96.14c-.22.03-.63.15-.68.39-.04.24.39.26.53.24ZM70.63 98.93l3.21-6.19.46-.86c.14-.27-.89-.87-1-.65l-3.22 6.2-.46.86c-.12.26.91.86 1 .64Z" />
    <path fill="#002780"
      d="M31.34 24.1c.22-.67.58-1.31 1-1.87l-.09.12c.58-.7 1.3-1.24 2.09-1.63l.31-.14.17-.05c-.12.05-.12.05-.02 0 .21-.07.43-.12.67-.17.29-.07-.31.03-.05 0l.34-.02c-.34 0-.44.02-.24 0 .19-.03.12 0-.32 0 .53.05-.6-.07-.21-.03-.48-.07-.63-.1-.39-.04.24.04.12.02-.3-.08l.16.05c.2.05.12.03-.22-.07.1.05.2.07.3.1a4.72 4.72 0 0 1 .6.31l.14.1c-.12-.08-.1-.08 0 0l.28.19a6.2 6.2 0 0 1 1.66 2.04l-.07-.15c.9 1.92.57 4.13-.03 6.1-.93 3-2.42 5.76-4.41 8.18l.1-.12c-1.35 1.63-3.08 3-4.18 4.85-.96 1.6-1.23 3.8.02 5.33.2.24.82.36 1.06.43.6.14 1.2.24 1.82.26.22.03 2.11.05 1.73-.4a3.8 3.8 0 0 1-.43-.65l.07.14c-.96-2.04.1-4.25 1.4-5.83l-.1.12c.79-.94 1.68-1.75 2.47-2.66.84-.92 1.58-1.9 2.28-2.93 1.37-2.04 2.4-4.3 3.07-6.67.34-1.25.55-2.6.38-3.9A5.74 5.74 0 0 0 41.08 22a7.27 7.27 0 0 0-2.95-1.96c-.93-.34-1.92-.58-2.9-.68-.99-.14-2-.16-2.98-.1-1.32.1-2.57.58-3.62 1.38a6.08 6.08 0 0 0-2.04 2.9c-.07.2.62.43.65.43.55.17 1.1.29 1.68.34.55.07 1.12.1 1.7.05.22 0 .67 0 .72-.24ZM35.37 53.96l-2.73-.12c-.17-.02-.34.07-.36.24-.08.5-.08 1.03.04 1.54a7.64 7.64 0 0 0 1.78 3.12c.48.48 1.1.93 1.82.96.44 0 .87-.1 1.23-.3.36-.18.62-.45.81-.8.1-.22.12-.46.1-.68a3.96 3.96 0 0 0-.55-1.7c-.72-1.37-2.09-3.05-3.84-2.79-.53.07-1.03.27-1.47.58a2.2 2.2 0 0 0-.81 1.1c-.12.39.05.87.17 1.2.21.58.52 1.13.93 1.61l.39.43c.21.22.45.41.72.58.21.1.57.2.67-.15.05-.16.14-.33.24-.45l-.15.2c.41-.51.96-.85 1.61-.97l-.24.05c.39-.07.77-.05 1.13.05l-.29-.1c.15.05.3.12.43.2l-.36-.22c.05.02.08.04.12.1l-.3-.27-.13-.15c-.19-.19-.36-.43-.48-.67-.21-.29-.38-.6-.5-.93 0 0-.15-.6-.12-.32l-.07-.4v.16l.02-.3a.95.95 0 0 1-.14.35l.14-.19c-.29.36-.72.6-1.18.7l.24-.05c-.26.05-.55.05-.81-.03l.29.1-.32-.14.34.21c-.26-.19.34.34.2.2.23.26.45.52.64.81l-.02-.02c.14.21.28.45.38.7.2.4.12.26.07.16-.05-.17.15.53.12.36 0-.07-.02-.12-.05-.2l.05.42c-.02-.22-.02-.41 0-.63l-.02.31v-.04l-.36.24 2.73.12c.34.02.41-.27.41-.56-.05-.5-.19-.98-.45-1.41a5.92 5.92 0 0 0-1.06-1.51c-.26-.3-.62-.68-1-.7Z" />
    <path fill="var(--c, black)"
      d="m44 35.31 5.29 2.81c.19.07.43.07.62-.02.1-.05.31-.15.12-.24l-5.28-2.81a.93.93 0 0 0-.62.02c-.07.05-.29.15-.12.24ZM46.36 26.91c2.02-.38 4.06-.65 6.1-.86.14-.03.28-.1.19-.24-.1-.15-.46-.15-.6-.12-2.04.2-4.08.48-6.1.86-.14.03-.29.1-.19.24.1.15.46.15.6.12ZM44.8 16.74a21.5 21.5 0 0 1 2.53-4.97c.02-.02-.75-.38-.9-.19a21.12 21.12 0 0 0-2.54 4.97c-.02.12.84.36.92.19ZM31.05 15.1l-.94-5.73c-.02-.17-.26-.31-.4-.4-.05-.03-.36-.2-.34-.08l.94 5.74c.02.16.26.3.4.4.05.03.36.22.34.08ZM21.02 21.18l-5.79-2c-.19-.07-.24.17-.21.32.05.21.2.38.38.48l5.79 2.01c.19.08.24-.16.21-.3a.8.8 0 0 0-.38-.51ZM20.59 31.23l-4.1 2.09c-.17.07-.22.26-.15.43 0 .03.02.05.02.05a.6.6 0 0 0 .63.07l4.08-2.06a.3.3 0 0 0 .14-.41c0-.02-.02-.05-.05-.07a.42.42 0 0 0-.57-.1ZM45.93 31.24h1.2c.12 0 .24-.03.34-.1.1-.05.17-.14.2-.24.02-.1 0-.2-.06-.26-.07-.08-.16-.12-.26-.1h-1.2a.55.55 0 0 0-.34.1c-.1.04-.14.14-.19.24-.02.1 0 .19.05.26.07.05.17.1.26.1ZM45.86 22.02c.77-.34 1.53-.58 2.35-.75.14-.02-.17-.26-.2-.29a1.3 1.3 0 0 0-.3-.16.7.7 0 0 0-.22-.05c-.82.17-1.58.43-2.35.77-.15.04.14.26.19.28.1.08.2.12.31.17.05 0 .15.05.22.03ZM37.22 14.8v-1.47c0-.02-.15.03-.15.03-.1.05-.19.07-.28.12-.1.05-.2.1-.27.17-.02.02-.1.04-.1.1v1.46c0 .02.15-.03.15-.03.1-.05.2-.07.29-.12a1 1 0 0 0 .26-.17c.05-.02.1-.04.1-.1ZM26.03 17a3.83 3.83 0 0 0-1.48-.77c-.05-.02-.12 0-.17.05a.28.28 0 0 0 .02.24c.05.12.1.22.2.29.07.07.14.12.23.17.12.02.24.07.34.1l.07.02.05.02c.05.03 0 0-.02 0 .02.03.04.03.07.05l.1.05c.09.05.21.12.3.19l.05.02-.02-.02.07.05.15.12c.04.05.14.1.21.1.07 0 .12-.08.1-.15.02-.2-.1-.4-.27-.53ZM21.88 26.6h-1.73c-.21 0-.45.15-.43.39.03.24.22.4.46.43h1.73c.21 0 .45-.15.43-.39-.03-.24-.22-.4-.46-.43Z" />
    <path fill="#002780"
      d="M38.28 62.34a11.23 11.23 0 0 0 6.4 9.58 6.84 6.84 0 0 0 4.7.64c1.26-.33 2.6-1.3 2.62-2.7 0-.68-.33-1.28-.86-1.66-.58-.41-1.3-.41-1.97-.2-1.44.46-2.09 1.88-1.87 3.3a5.64 5.64 0 0 0 2.38 3.57c.74.53 1.53.96 2.35 1.3.79.35 1.6.67 2.42.93 1.7.55 3.55.62 5.14-.38.19-.12.12-.24-.07-.27-.3 0-.58.07-.82.24-.98.63-2.42.2-3.43-.14-1.32-.41-2.62-.99-3.82-1.68A6.26 6.26 0 0 1 48.8 72c-.46-1.05-.58-2.5.26-3.4.1-.1.2-.17.29-.25.26 0 .53.1.74.27.46.33.75.84.8 1.41.1 1.08-.87 2.12-1.9 2.21-1.27.12-2.62-.43-3.72-1.03A11.14 11.14 0 0 1 39.48 62c-.05-.19-1.23 0-1.2.34Z" />
  </g>
</svg>