<svg xmlns="http://www.w3.org/2000/svg" fill="none" viewBox="0 0 120 120">
  <g id="doc">
    <path fill="var(--a, blue)"
      d="M85.94 102.14s-1.99-2.06.7-6.86c2.69-4.8 9.31-9 10.85-6.77 1.53 2.23-2.81 9.84-6.53 12.36-3.72 2.52-4.22 1.92-5.02 1.27Zm-1.08 4.08s-3.4 1.83-6.88-2.16c-3.48-3.98-.82-4.82 1.9-4.84 2.7-.03 6.9 5.04 4.98 7Z" />
    <path fill="var(--c, black)"
      d="M93.22 91.25c-.53.21-1.04.67-1.47 1a19.8 19.8 0 0 0-2.64 2.62 16.87 16.87 0 0 0-4.05 9.91c-.1 1.16-.03 2.33.19 3.48.07.3 1.2.22 1.2.17a10.2 10.2 0 0 1-.22-2.76c.03-1.99.41-3.93 1.15-5.78a18.69 18.69 0 0 1 6.39-8.02c.19-.14.38-.26.6-.36.14-.05-.39-.21-.39-.21-.26-.1-.52-.12-.76-.05Z" />
    <path fill="var(--c, black)"
      d="M78.2 100.3c.69.38 1.36.81 2 1.3 1.4.98 2.6 2.2 3.56 3.57.6.89 1.06 1.87 1.32 2.93.1.43 1.3.38 1.18-.15-.82-3.33-3.6-5.93-6.41-7.68-.24-.14-.5-.31-.77-.45a.87.87 0 0 0-.84-.03c-.22.12-.29.36-.05.5Z" />
    <path fill="var(--a, blue)"
      d="M90.17 106.3s3.4 1.82 6.89-2.16c3.48-3.99.81-4.83-1.9-4.85-2.71-.03-6.94 5.04-5 7Z" />
    <path fill="var(--c, black)"
      d="M96.22 100.13a18.04 18.04 0 0 0-6.05 5.2 9.2 9.2 0 0 0-1.37 3s.53-.16.58-.19c.12-.04.48-.16.5-.3.77-3.2 3.43-5.74 6.12-7.4l.29-.2.12-.06c.12-.08-.07.04.02 0l.1-.05c.05-.03.43-.22.36-.24-.12-.07-.55.19-.67.24Z" />
    <path fill="var(--c, black)"
      d="m80.5 109 4.08-.09 6.52-.14 1.52-.03c.24 0 .33-.14.21-.36a1 1 0 0 0-.72-.43l-4.08.1-6.53.14-1.5.03c-.25 0-.34.14-.22.36.14.24.43.38.72.43Z" />
    <path fill="var(--a, blue)"
      d="M16.34 32.98s1.78-.08 1.88-.22c.1-.14.07-2.4 1.53-2.8 1.47-.42 2.47 1.2 1.95 2.44-.53 1.25-1.5 3.31-.12 4.8 0 0 1.44-.43 1.58-.62.14-.2-.86-.9-.05-1.97.82-1.08 2.43-4.08.05-5.83-2.38-1.76-6.96-.36-6.82 4.2Z" />
    <path fill="var(--a, blue)"
      d="m21.55 37.34-.05-.04c-1.34-1.47-.52-3.41 0-4.7l.1-.22c.24-.63.12-1.35-.31-1.85a1.4 1.4 0 0 0-1.49-.43c-1.1.3-1.3 1.77-1.4 2.42 0 .12-.02.24-.06.34-.05.04-.12.19-1.97.26h-.12V33c-.07-2.02.81-3.65 2.4-4.49a4.45 4.45 0 0 1 4.63.22c.7.48 1.15 1.22 1.27 2.04.2 1.41-.57 3-1.3 3.96-.55.72-.23 1.22-.04 1.56.1.17.17.31.07.4-.14.2-1.2.51-1.63.65h-.1Zm-1.34-7.56c.48 0 .93.22 1.25.58.5.58.64 1.4.36 2.11l-.1.22c-.5 1.22-1.27 3.05-.1 4.39.5-.14.99-.31 1.44-.53l-.07-.17c-.19-.33-.57-.98.07-1.82.7-.91 1.44-2.42 1.25-3.77a2.72 2.72 0 0 0-1.17-1.87 4.19 4.19 0 0 0-4.37-.2c-1.49.78-2.3 2.29-2.28 4.16.55 0 1.13-.07 1.68-.17l.02-.21c.1-.68.29-2.26 1.56-2.62.15-.07.29-.1.46-.1Zm1.59 8.28s-.54 1.37.42 1.54c.96.17 1.85-.7 1.35-1.54-.5-.84-1.63-.52-1.78 0Z" />
    <path fill="var(--a, blue)"
      d="M22.49 39.74c-.1 0-.17 0-.27-.02a.78.78 0 0 1-.57-.36c-.27-.48 0-1.22.05-1.32a.91.91 0 0 1 .79-.6c.48-.07.96.14 1.2.55a1 1 0 0 1 0 1.15c-.29.39-.75.6-1.2.6Zm.19-2.08h-.17a.75.75 0 0 0-.6.43v.02s-.29.72-.05 1.1c.1.15.24.25.41.27.46.07.94-.1 1.2-.48.2-.26.2-.62 0-.89a.93.93 0 0 0-.79-.45Zm53.3 28.94s1.56 1.37 1.78 1.32c.22-.05 1.97-1.97 3.53-1.15 1.56.81 1.13 2.97-.29 3.62-1.42.65-3.89 1.63-3.91 3.99 0 0 1.58.76 1.82.74.24-.02-.02-1.44 1.56-1.7 1.59-.27 5.3-1.52 4.68-4.9a5.2 5.2 0 0 0-9.17-1.92Z" />
    <path fill="var(--a, blue)"
      d="M78.86 75.24c-.3 0-1.5-.58-1.87-.77l-.07-.02v-.07c.02-2.3 2.26-3.32 3.74-3.96l.24-.12a2.12 2.12 0 0 0 1.23-1.85 1.64 1.64 0 0 0-.94-1.56c-1.2-.63-2.54.45-3.12.93-.19.15-.26.22-.31.22-.05 0-.24.05-1.87-1.34l-.1-.08.07-.1c1.56-1.74 3.6-2.44 5.62-1.86a5.18 5.18 0 0 1 3.74 3.86c.2.94 0 1.92-.55 2.71-.96 1.35-2.88 2.09-4.22 2.3-1.03.17-1.2.9-1.32 1.3-.05.22-.1.39-.24.41h-.03Zm-1.68-.94c.53.3 1.1.53 1.68.7l.08-.22c.12-.45.3-1.3 1.5-1.48 1.33-.22 3.18-.94 4.09-2.21.53-.75.7-1.66.5-2.55a4.95 4.95 0 0 0-3.57-3.67c-1.9-.53-3.82.1-5.28 1.7.48.46 1 .85 1.56 1.2l.21-.16c.63-.5 2.04-1.68 3.39-.96a1.93 1.93 0 0 1 1.05 1.8 2.35 2.35 0 0 1-1.37 2.06l-.26.12c-1.4.63-3.5 1.59-3.58 3.67Zm-.64.96s-1.56.72-.84 1.66c.72.94 2.13.86 2.35-.24.21-1.1-.96-1.78-1.51-1.42Z" />
    <path fill="var(--a, blue)"
      d="M76.94 77.69a1.74 1.74 0 0 1-1.34-.7.93.93 0 0 1-.2-.74c.15-.63 1-1.03 1.09-1.08a1 1 0 0 1 1.13.12c.45.31.7.86.57 1.41-.07.48-.43.84-.91.96-.12 0-.22.03-.34.03Zm-.04-2.4a.6.6 0 0 0-.3.07s-.8.38-.93.91c-.05.2 0 .41.15.55.3.46.86.68 1.41.58a.92.92 0 0 0 .72-.77c.1-.45-.07-.9-.45-1.17-.2-.1-.39-.17-.6-.17ZM26.66 55.06s1.78.79 1.95.7c.17-.1 1.2-2.29 2.83-1.98 1.63.32 1.82 2.36.72 3.32s-3.05 2.5-2.42 4.6c0 0 1.6.27 1.82.17.22-.1-.4-1.3.91-1.94 1.32-.65 4.32-2.79 2.86-5.62a4.82 4.82 0 0 0-8.67.75Z" />
    <path fill="var(--a, blue)"
      d="M31.37 62.02c-.55-.03-1.1-.1-1.66-.2h-.07l-.02-.07c-.6-2.06 1.12-3.57 2.25-4.56l.2-.17c.55-.5.76-1.24.57-1.96a1.58 1.58 0 0 0-1.25-1.16c-1.22-.24-2.13 1.1-2.52 1.68-.14.2-.17.27-.24.3-.07.02-.21.11-2.04-.7l-.12-.05.05-.12c.91-2 2.54-3.15 4.51-3.2a4.79 4.79 0 0 1 4.4 2.45c.43.8.52 1.73.23 2.6-.48 1.46-1.99 2.64-3.14 3.21-.86.43-.84 1.08-.82 1.51.03.22.03.36-.12.44h-.21Zm-1.54-.41c.55.12 1.1.17 1.68.17v-.22c-.02-.43-.07-1.22.94-1.73 1.1-.55 2.57-1.68 3.02-3.07a3.1 3.1 0 0 0-.21-2.4 4.59 4.59 0 0 0-4.18-2.3c-1.82.04-3.36 1.1-4.25 2.95.55.26 1.13.48 1.73.65.02-.05.1-.12.14-.22.41-.62 1.4-2.04 2.76-1.78.7.12 1.28.63 1.44 1.32.22.8-.04 1.66-.64 2.21l-.2.17c-1.1.94-2.73 2.38-2.23 4.25Zm-.31 1.03s-1.18 1.06-.31 1.7c.86.65 2.13.22 2.04-.86-.1-1.08-1.35-1.3-1.73-.84Z" />
    <path fill="var(--a, blue)"
      d="M30.1 64.75c-.34 0-.68-.12-.96-.3a.75.75 0 0 1-.36-.63c-.03-.6.6-1.18.67-1.25a.97.97 0 0 1 1.03-.2c.5.15.86.6.89 1.11.05.46-.17.89-.55 1.1-.22.12-.46.17-.72.17Zm0-2.2c-.17 0-.36.04-.48.19 0 0-.63.57-.6 1.05.02.2.12.34.26.46.4.31.96.36 1.42.12a.86.86 0 0 0 .43-.87 1 1 0 0 0-1.03-.96Zm43.46-43.06s5.4 1.8 5.83 1.49c.43-.32 2.88-7.04 7.7-6.58 4.83.46 5.98 6.34 3.05 9.46-2.92 3.12-8.13 8.16-5.73 14.13 0 0 4.8.34 5.4-.02.6-.36-1.56-3.63 2.13-5.93 3.7-2.3 11.79-9.38 6.72-17.26-5.06-7.87-20.42-9-25.1 4.7Z" />
    <path fill="var(--a, blue)"
      d="M87.94 38.26c-1.47 0-3.24-.12-3.56-.15h-.07l-.02-.07c-2.3-5.69 2.23-10.51 5.23-13.7l.53-.56a6 6 0 0 0 1.17-6.14 4.75 4.75 0 0 0-4.15-3.12c-3.84-.36-6.12 3.91-7.1 5.74-.29.52-.41.74-.5.81-.46.31-4.66-1.05-5.96-1.49l-.12-.04.05-.1c2.04-5.98 6.43-9.8 12.02-10.46 5.3-.65 10.66 1.65 13.28 5.76a9.31 9.31 0 0 1 1.41 7.3c-.98 4.34-5.01 8.15-8.16 10.12-2.57 1.58-2.23 3.65-2.04 4.87.1.55.15.91-.1 1.06-.23.14-1 .17-1.91.17Zm-3.46-.36c1.92.12 4.85.21 5.26-.03.1-.05.04-.45-.03-.81-.19-1.2-.55-3.44 2.14-5.12 3.12-1.94 7.1-5.7 8.06-9.98.55-2.45.1-4.82-1.39-7.1-2.6-4.01-7.82-6.3-13.06-5.64-5.47.67-9.74 4.36-11.78 10.2 2.57.84 5.33 1.63 5.62 1.46.16-.24.3-.48.43-.74 1-1.88 3.36-6.24 7.34-5.86a5.06 5.06 0 0 1 4.37 3.26 6.28 6.28 0 0 1-1.22 6.39l-.53.55c-2.93 3.14-7.37 7.87-5.21 13.42Zm.52 2.61s-3.14 3.46-.4 5.04c2.74 1.59 6.29-.02 5.71-3.07-.57-3.05-4.3-3.46-5.3-1.97Z" />
    <path fill="var(--a, blue)"
      d="M86.88 46.27c-.82 0-1.63-.21-2.35-.62a2.2 2.2 0 0 1-1.15-1.56c-.24-1.66 1.41-3.53 1.53-3.65.5-.72 1.61-1.06 2.76-.82 1.42.3 2.5 1.4 2.74 2.84a3.03 3.03 0 0 1-1.23 3.14c-.67.46-1.48.7-2.3.67Zm.05-6.48c-.77 0-1.47.3-1.8.8v.02c-.03.02-1.73 1.9-1.49 3.45.1.6.48 1.1 1.03 1.4 1.42.81 3.2.81 4.4-.05a2.75 2.75 0 0 0 1.1-2.9 3.25 3.25 0 0 0-2.55-2.65 1.7 1.7 0 0 0-.7-.07Zm11.73-28.92c.41-.65.9-1.25 1.44-1.8.05-.05-.07-.17-.07-.19a1.2 1.2 0 0 0-.31-.29c-.1-.1-.22-.17-.36-.24-.05-.02-.14-.07-.2-.05a9.33 9.33 0 0 0-1.43 1.78c-.03.05.05.17.07.2.1.11.2.2.31.28.1.1.22.17.36.24.03.05.15.12.2.07Zm1.74 2.16 3.83-2.37c.1-.08-.36-.17-.4-.17a2.94 2.94 0 0 0-.46-.05.6.6 0 0 0-.29.02l-3.84 2.38c-.1.07.36.17.4.17.15.02.32.05.46.05.12 0 .22 0 .3-.03Zm1.1 1.77h1.1c.05 0 .12 0 .1-.06-.03-.03-.05-.08-.08-.08a.5.5 0 0 0-.14-.1c-.14-.06-.26-.14-.43-.18a2 2 0 0 0-.36-.1h-1.1c-.05 0-.13 0-.1.07.02.03.05.07.07.07.05.05.1.08.14.1.15.07.27.14.44.2l.36.09ZM36.89 29.74c-.63-4.04 1.73-8.19 5.37-9.94 3.7-1.78 8.02-.22 10.5 2.86a9.37 9.37 0 0 1 1.84 4.03c.07.45.2 1.17-.24 1.51a.77.77 0 0 1-.12.07c-.1.05-.07.03-.02 0-.17.05.04 0-.05 0a.62.62 0 0 1-.36-.1c-.36-.16-.6-.5-.67-.88-.24-1.23.72-2.4 1.5-3.22 1.52-1.5 3.73-2.7 5.94-2.1 1.94.54 3.36 2.27 4.27 4 .48.93.89 1.92 1.22 2.93.29.93.72 1.84 1.27 2.66.5.8 1.35 1.37 2.28 1.54 1.2.19 2.28-.3 3.15-1.1.38-.4.74-.8 1.08-1.23.38-.5-.75-.77-1.03-.4-.63.78-1.47 1.93-2.6 2.03-.84.07-1.53-.7-1.96-1.4-.56-.9-.87-1.91-1.23-2.9a15.01 15.01 0 0 0-1.46-3.07c-1.2-1.9-2.95-3.55-5.23-3.9-2.6-.42-5.14.83-6.87 2.7-.86.91-1.75 2.16-1.51 3.5.2 1.01 1.22 1.66 2.23 1.66 2.86-.02 1.35-3.96.55-5.37-2.23-3.9-7-6.17-11.42-5.1a10.42 10.42 0 0 0-7.7 9.56c-.03.53.02 1.06.1 1.56.04.26.33.38.57.38.14.05.65-.02.6-.28Z" />
    <path fill="var(--c, black)"
      d="M78.94 109.08V90.05c0-.89.04-1.78 0-2.64v-.05c0-.29-.39-.91-.72-.91h-34.4a1.45 1.45 0 0 0-.45 0h-.05c-.05 0-.07.02-.07.07v19.03c0 .9-.03 1.78 0 2.64v.03c.02.26.17.5.36.67.02.02.45.38.45.17V87.67c0-.07.03-.24 0-.29v-.04l-.07.07h33.48c.46 0 .91.02 1.37 0h.05l-.72-.91v19.03c0 .89-.03 1.78 0 2.64v.05c.02.26.17.5.36.67 0 .05.4.4.4.2Z" />
    <path fill="var(--c, black)" d="M82.27 86.28H39.5v3.5h42.77v-3.5Z" />
    <path fill="var(--c, black)"
      d="M82.73 89.45h-42.7c-.12.02-.02-.03-.02.05.02-.34.02-.7 0-1.04v-2.44l-.96.64h42.69c.12-.02.03.03.03-.04-.03.33-.03.7 0 1.03v2.45c0 .16.38-.05.45-.1.12-.07.56-.31.56-.48v-3.53c0-.02 0-.05-.03-.05H39.94c-.2.03-.39.12-.53.24-.1.08-.43.27-.43.41v3.5c0 .05 0 .05.04.08h42.8c.24-.05.48-.15.67-.34.02-.02.4-.38.24-.38ZM66.74 77.52S63.26 51.65 55.4 52.7c-7.87 1.06-10.13 23.04-9.6 24.24.53 1.2 19.25 3.53 20.95.58Z" />
    <path fill="var(--c, black)"
      d="M67.3 77.3a99.8 99.8 0 0 0-2.81-13.05c-.89-2.98-1.95-6.05-3.65-8.67-1.22-1.9-3.1-3.74-5.54-3.3-2.86.5-4.73 3.2-5.93 5.63a39.66 39.66 0 0 0-3.12 9.87c-.58 2.61-.91 5.3-1.06 7.96a8.1 8.1 0 0 0 0 1.08c0 .24.07.46.24.6.27.2.55.32.84.41.48.15.96.27 1.44.39 3.22.64 6.46 1.03 9.72 1.15 1.66.1 3.34.07 5-.05 1.2-.1 2.51-.24 3.62-.77.45-.19.84-.5 1.1-.91.12-.22.17-.48-.12-.58a.8.8 0 0 0-.77.32.18.18 0 0 0-.04.1c-.08.04-.08.09 0 0l-.1.09c-.17.07-.07.07 0 0-.07.05-.14.1-.24.14-.14.1.05-.02 0 0l-.17.07c-.1.05-.21.1-.31.12l-.17.05c-.14.05-.02 0 0 0l-.12.03c-.29.07-.55.14-.84.19-1.44.24-2.88.33-4.34.29a65.51 65.51 0 0 1-9.91-.84 23.3 23.3 0 0 1-3.27-.72c-.07-.03-.14-.05-.21-.1l-.1-.05c-.1-.05.1.05 0 0l-.14-.07c-.1-.05-.05-.05-.03 0-.07-.1 0 .05 0 .02 0-.02 0-.07-.02-.1-.03-.09-.03-.2-.03-.33v-.38c0-.2 0-.41.03-.6a57.42 57.42 0 0 1 .65-5.62c.55-3.26 1.3-6.53 2.52-9.62a20.51 20.51 0 0 1 2.04-4.03 10.2 10.2 0 0 1 .76-1.01c-.1.1.05-.05 0 0l.08-.1c.1-.12.21-.24.33-.33l.34-.32.17-.14c.02-.02.14-.12 0 0l.1-.07c.23-.17.47-.34.74-.48-.17.1.04-.03.07-.03l.19-.07.4-.14c-.16.05.06-.03.1-.03l.2-.04.43-.08c-.17.03.02 0 .07 0h.17l.36.03c.12 0-.05-.03.07 0l.17.02.36.1c.12.02.21.07.31.12.1.05-.02-.03.1.05l.19.1a5.58 5.58 0 0 1 1.75 1.56c1.82 2.22 2.9 5.06 3.8 7.74a78.26 78.26 0 0 1 2.34 9.05c.36 1.83.7 3.67.99 5.52.02.1.02.2.05.27.19.57 1.27.07 1.2-.44Zm-33.44 23.6-1.99-.68s-5.88-.64-5.78.68c.1 1.32 2.8 2.92 6.7 4.3 3.88 1.36 5.73.66 5.42-2.62l-4.35-1.68Z" />
    <path fill="var(--c, black)"
      d="m33.53 100.51-1.85-.62c-.34-.1-.67-.12-1-.12-.78-.05-1.57-.1-2.34-.1-.72 0-1.48.03-2.16.29-1.77.7 1.25 2.88 1.88 3.29 1.2.74 2.47 1.37 3.79 1.87 1.25.48 2.52.96 3.84 1.13.81.1 1.8.05 2.42-.6.67-.7.67-1.8.6-2.71-.02-.27-.5-.6-.72-.7l-4.34-1.68c-.2-.07-.27 0-.15.17.17.24.39.43.65.53l4.35 1.68-.72-.7c.07.8.07 1.7-.39 2.4-.4.58-1.08.8-1.77.82a9.1 9.1 0 0 1-3.08-.63 28.8 28.8 0 0 1-3.86-1.65 9.7 9.7 0 0 1-1.34-.84 2.28 2.28 0 0 1-.58-.6.95.95 0 0 1-.17-.63c.05-.19.27-.31.43-.38a5.63 5.63 0 0 1 2-.27c.74-.02 1.48 0 2.23.08l.84.07c.07 0 .14 0 .19.02.05.03-.1-.02.02.03.63.26 1.3.43 1.92.64.24.1.03-.24-.02-.3-.17-.22-.4-.4-.67-.49Z" />
    <path fill="var(--b, white)"
      d="M35.3 95.62s-.07 3.81-.52 4.27c-.46.45-5.84.07-5.28.36.4.21 1.05 1.51 4.5 2.54 3.54 1.06 3.56.6 4.04-.02.48-.63 2.3-4.83 2.3-4.83l-5.04-2.32Z" />
    <path fill="var(--c, black)"
      d="M34.94 95.33c-.02.74-.04 1.51-.12 2.25-.02.48-.1.96-.19 1.44l-.07.24c-.02.1 0 0-.02.05l-.05.07c-.05.08.02 0-.05.03-.05.02-.1.05-.17.05-.33.07-.7.1-1.05.1-.5.02-1.04.02-1.54.02h-1.46c-.32-.03-.63 0-.92.04-.57.12-.02.96.27 1.16-.1-.05-.03-.03 0 0 .1.05-.05-.05.02.02l.29.27a9.1 9.1 0 0 0 2.78 1.75c.87.33 1.76.62 2.64.84.56.17 1.1.26 1.68.3.3.03.58-.02.84-.16.17-.14.34-.29.46-.48.5-.65.82-1.46 1.18-2.2.38-.85.76-1.69 1.12-2.55l.08-.15a.87.87 0 0 0-.44-1l-4.39-2.04-.65-.3c-.24-.11-.28.22-.26.37a1 1 0 0 0 .46.7l4.39 2.03.65.3-.44-1.02c-.64 1.52-1.27 3.08-2.08 4.52-.12.21-.27.4-.41.57l-.1.1c-.07.07 0 0-.07.05-.1.07-.2.12-.29.14-.12.02-.24.05-.38.05-.22 0-.43-.03-.65-.07-.74-.15-1.49-.31-2.2-.55a10.01 10.01 0 0 1-3.7-1.9l-.03-.03-.1-.1-.26-.23c-.1-.1-.17-.17-.29-.24l-.12-.07c.2.07.17.33.24.5l.17.46-.05.05s.12-.03.03-.03c.77-.05 1.56-.02 2.33-.02.86 0 1.77.05 2.64-.15a.64.64 0 0 0 .52-.45c.12-.39.22-.8.24-1.23.12-.93.17-1.87.2-2.78v-.2a1 1 0 0 0-.39-.76c-.12-.1-.29 0-.29.24Zm14.98 9.93-1.85 1.01s-4.44 3.91-3.4 4.73c1.03.82 4.05-.1 7.67-2.04 3.63-1.94 4.37-3.8 1.73-5.76l-4.15 2.06Z" />
    <path fill="var(--c, black)"
      d="m49.46 104.88-1.63.89c-.24.14-.48.33-.67.53-.53.5-1.06 1-1.54 1.53-.52.53-1 1.15-1.39 1.8-.31.55-.4 1.15.15 1.59.7.52 1.63.52 2.44.4 1.2-.21 2.36-.6 3.46-1.1a22 22 0 0 0 4.03-2.16c.87-.6 1.85-1.49 1.9-2.62.05-1.2-.94-2.16-1.83-2.83-.14-.12-.48-.29-.67-.17l-4.15 2.1c-.58.28.29 1.05.72.83l4.15-2.09-.67-.16c.6.45 1.34 1.08 1.34 1.92 0 .84-.7 1.53-1.3 2.01a16.84 16.84 0 0 1-3.54 2.04c-1.08.53-2.19.94-3.34 1.25-.4.1-.82.17-1.22.2-.15 0-.3 0-.44-.03-.04 0-.24-.05-.1-.03-.04-.02-.23-.07-.09-.02-.02-.02-.07-.02-.1-.05-.07-.05.13.1.03.03l.05.04c-.07-.07.07.1.02.05.05.07-.02.05 0-.02-.02.12 0-.03 0-.05 0-.07.03-.17.07-.24.05-.12.12-.24.2-.36.67-1.15 1.7-2.11 2.66-3.02.22-.24.46-.44.72-.6l1.68-.92c.24-.14 0-.5-.14-.6a.81.81 0 0 0-.8-.14Z" />
    <path fill="var(--b, white)"
      d="M46.97 100.63s2.78 2.64 2.8 3.27c.03.62-3.88 4.34-3.28 4.15.43-.14 1.82.24 4.92-1.6 3.17-1.88 2.83-2.22 2.71-3-.12-.8-2.02-4.98-2.02-4.98l-5.13 2.16Z" />
    <path fill="var(--c, black)"
      d="M46.73 101.04c.02.02.07.07 0 0l.05.05.38.38c.36.36.72.75 1.08 1.1.2.22.38.42.55.63l.22.27c.02.04.05.07.1.11l.04.08c-.02-.03-.05-.1-.02-.03.02.08.07.15.12.2.07.1 0-.03 0-.03.02.1 0 .03 0-.05 0 .08.02-.14 0-.07-.03.07.02-.05.02-.02 0 .02-.05.12-.1.17-.45.76-1.1 1.36-1.7 2.03a40.13 40.13 0 0 0-1.51 1.73c-.26.53.29 1.1.82.94.07-.03-.12 0-.05 0h.21l.41-.03a9 9 0 0 0 3.31-1c.84-.44 1.64-.9 2.4-1.42.44-.26.84-.6 1.2-.96.22-.22.39-.53.44-.84.02-.26 0-.55-.08-.81l-.02-.1-.02-.07-.08-.22c-.04-.2-.12-.36-.19-.55-.19-.53-.4-1.06-.62-1.56-.36-.84-.72-1.68-1.1-2.52l-.08-.15a.68.68 0 0 0-.72-.36l-4.49 1.88-.64.26c-.6.27 0 1.27.55 1.06l4.46-1.88.65-.26-.72-.36c.34.72.65 1.47.96 2.19.24.57.46 1.08.65 1.58.07.22.17.43.24.62l.07.24.02.1v.05c-.04-.15 0-.05 0 .05l.03.16c.02.15 0-.12 0 .05v.14c.02.1.02-.1 0-.02l-.03.1c0 .02-.04.12 0 .02l-.02.05-.12.2-.02.02s-.08.07-.1.12c-.1.1-.2.16-.26.23a16.8 16.8 0 0 1-4.47 2.52c-.53.2-1.05.32-1.6.34l-.49.02c-.04 0-.12 0-.16.03a.44.44 0 0 0-.17.05h-.03c.17-.03.34 0 .46.12l.22.24c0-.03.14.38.02.48l.02-.05c0-.03.05-.05.05-.1l.1-.12.07-.07c-.07.1 0 0 .02-.02l.72-.8c.58-.64 1.18-1.27 1.73-1.94.34-.43.87-.96.67-1.53-.14-.36-.33-.7-.6-.99a8.9 8.9 0 0 0-.88-1c-.5-.53-1.01-1.06-1.56-1.57a.48.48 0 0 0-.68 0l-.04.05c-.08.36.12.65.3.84Z" />
    <path fill="var(--b, white)"
      d="M41.83 73.66c2.09-1.2 8.4 1.53 11.74 2.92l13.2.92s2.5 5.78-2.64 8.47c-3.05 1.6-13.3-.31-13.3-.31s6.07 12.96 1.87 16.58c-2.78 2.42-6.72 1.78-9.48-2.66-.21.26-.48.5-.74.72-2.83 2.16-8.86.33-10.68-5.67-1.82-6 5.04-18.12 10.03-20.97Z" />
    <path fill="var(--c, black)"
      d="M42.36 73.87c.74-.4 1.7-.26 2.45-.12 1.22.24 2.42.58 3.57 1.01 1.25.43 2.48.94 3.7 1.44.62.26 1.25.6 1.94.67l9.58.65 3.4.24-.8-.36c1.07 2.52.78 5.78-1.42 7.6a5.4 5.4 0 0 1-2.3 1.16c-.85.14-1.71.24-2.55.22a43.3 43.3 0 0 1-5.81-.41l-2.38-.34-.98-.17c-.05 0-.55-.07-.48.12a40.65 40.65 0 0 1 2.74 7.8c.45 1.9.79 3.92.5 5.86a5.1 5.1 0 0 1-.8 2.2 4.86 4.86 0 0 1-4.02 1.95c-.53 0-1.04-.14-1.52-.38a8.63 8.63 0 0 1-3.38-3.31.9.9 0 0 0-.5-.3c-.12-.02-.5-.14-.6-.02a4.24 4.24 0 0 1-2.84 1.54c-.24.02-.48.02-.72.02a4.7 4.7 0 0 1-2.06-.5c-2.38-1.06-4.13-3.48-4.78-6-.57-2.33.03-4.9.77-7.1.91-2.72 2.21-5.3 3.8-7.68 1.34-2.02 2.9-4.06 4.91-5.45.2-.12.39-.27.58-.36.2-.1-.29-.34-.34-.34-.19-.07-.55-.19-.74-.07-.94.58-1.8 1.27-2.54 2.06-.94.99-1.8 2.02-2.57 3.15a32.9 32.9 0 0 0-4.13 7.94c-.82 2.33-1.49 5-.94 7.47a9.73 9.73 0 0 0 5.04 6.45c2 .99 4.76 1.5 6.7.15.34-.24.65-.53.91-.84l-1.1-.32c1.51 2.43 3.93 4.44 6.93 4.42 2-.02 4.08-1.2 4.78-3.12.65-1.82.4-3.94.07-5.8a36.9 36.9 0 0 0-1.7-5.98c-.27-.72-.55-1.42-.84-2.14a5.85 5.85 0 0 0-.46-1.06l-.02-.04-.46.12c2.98.6 6 .93 9.03 1 1.7.03 3.57 0 5.08-.88a5.84 5.84 0 0 0 2.88-4.92 8.54 8.54 0 0 0-.6-3.46c-.1-.24-.6-.34-.81-.36l-4.44-.31-7.1-.48-1.64-.12.46.12c-1.66-.7-3.34-1.42-5.04-2.02-1.7-.6-3.5-1.2-5.33-1.32a3.97 3.97 0 0 0-2.11.31c-.2.1.29.34.33.34.17.07.5.2.7.07Z" />
    <path fill="var(--c, black)"
      d="M43.75 99.89a14.2 14.2 0 0 0 1.42-3.1 26.7 26.7 0 0 0 1.49-8.78 33 33 0 0 0-.7-7.03l-.36.5 7.92-1.56 1.13-.22c.24-.04.4-.28.36-.55 0-.02-.03-.05-.03-.1a.7.7 0 0 0-.74-.4l-7.92 1.56-1.13.21c-.24.05-.38.27-.38.5.81 3.7.91 7.54.33 11.29a22.04 22.04 0 0 1-2.44 7.13c-.36.52.7 1.1 1.05.55Zm2.14-48.12c-4.1-7.13-.2-11.21 3.07-12.89 3.26-1.68 6.02-1.34 7.25-.2.91.85 1 8.07 1 8.07l-3.6 7.66s-4.6 2.78-7.72-2.64Z" />
    <path fill="var(--b, white)"
      d="M61.8 48.55c1.03-3.26-5.23-8.54-5.23-8.54-1.3.36-3.82.21-3.82.21 2.4 3.32-1.34 6.44-1.34 6.44-1.83-1.54-3.77.3-2.69 2.16 1.08 1.84 3.02 1.15 3.02 1.15s1.4 5.18 1.95 5.85c0 0 4.17.63 4.77-3.1-.04.03 2.64-1.96 3.34-4.17Z" />
    <path fill="var(--c, black)"
      d="M62.38 48.67a4.1 4.1 0 0 0-.44-2.9 13.45 13.45 0 0 0-1.96-2.9c-.68-.8-1.4-1.54-2.14-2.26-.48-.46-.96-1.06-1.7-.89-1.16.22-2.33.29-3.48.2-.2 0-.65.04-.46.35.5.67.77 1.51.74 2.35-.04.7-.24 1.37-.57 1.97a6.52 6.52 0 0 1-1.54 1.9l1.01.1c-.72-.58-1.73-.97-2.66-.7-.7.19-1.25.77-1.37 1.49-.27 1.7 1.46 2.97 3 3.07.43.02.86-.03 1.27-.15l-.96-.33c.43 1.75.96 3.45 1.58 5.16.17.4.32.89.8 1.03a6.2 6.2 0 0 0 3.2-.31 3.66 3.66 0 0 0 2.27-2.93l-.12.12c1.49-1.13 2.95-2.62 3.53-4.37.12-.38-1.06-.67-1.18-.26a7.53 7.53 0 0 1-1.97 2.9c-.31.31-.62.6-.96.89l-.29.24-.02.02c-.05.05-.1.08-.12.15-.02.12-.07.26-.07.38l-.1.36a2.97 2.97 0 0 1-1.13 1.54 3.83 3.83 0 0 1-1.87.62c-.17.03-.31.03-.48.03h-.26l-.36-.03.62.29a11.93 11.93 0 0 1-.36-.8 58.81 58.81 0 0 1-1.34-4.34l-.17-.64c-.07-.32-.7-.44-.96-.34l-.26.07-.1.03c.12-.03-.05 0-.07 0h-.24c-.22 0-.41-.05-.6-.15a2 2 0 0 1-.72-.7c-.41-.62-.53-1.48 0-2.08.19-.22.43-.39.72-.43.33-.05.62.14.89.36.26.21.74.3 1 .1 1.28-1.06 2.3-2.8 2.19-4.47a4.22 4.22 0 0 0-.84-2.19l-.46.36c1.35.08 2.79.12 4.1-.24l-.81-.19c.7.6 1.37 1.23 2 1.9a13.84 13.84 0 0 1 2.87 4.08c.29.74.48 1.53.24 2.3-.19.36.99.65 1.1.24Z" />
    <path fill="var(--b, white)"
      d="M57.17 44.3c.93.2 1.9.24 2.83.15 3.22-.24 3.82.74 3.02 1.58-.79.84-5.1 1.42-5.1 1.42" />
    <path fill="var(--c, black)"
      d="M56.76 44.54c.98.22 2 .27 3 .17.65-.07 1.3-.05 1.94.03.34.02.65.16.92.38.14.17.16.38.07.58a.86.86 0 0 1-.2.28c-.02.03-.14.12-.07.08l-.24.14-.14.07c-.1.05-.2.07-.29.12.07-.02-.14.05-.19.05-.12.02-.24.07-.36.1-.5.14-.84.21-1.34.3-.65.15-1.32.25-1.97.34-.15.03-.58.12-.55.34.02.22.5.14.62.12l1.85-.31c1-.2 2.06-.41 3.02-.84.5-.24 1.32-.77 1.08-1.44-.14-.31-.4-.53-.74-.63a5.19 5.19 0 0 0-1.7-.28c-1.3-.05-2.62.21-3.92-.1a1.3 1.3 0 0 0-.84.14c-.19.15-.17.3.05.36Zm-1.56-.16c.24-.1.48.02.58.26l.02.07c.1.48-.48.6-.7.24a.4.4 0 0 1 .05-.53c0-.02.03-.02.05-.04Zm2.78-1.68c.24-.1.48.02.58.26l.02.07c.1.48-.48.6-.7.22-.11-.17-.09-.41.08-.53-.02 0 0 0 .02-.02Zm-10.2 6.4c.05.53.03 1.06-.02 1.59-.07.74-.2 1.77-.82 2.25 0 0-.02.05-.04.03-.03-.03.24-.1.28-.12.17-.05.03 0 .03 0h.02-.14c-.24-.03-.48-.1-.7-.22-.55-.26-1.13-.67-1.37-1.25a1.3 1.3 0 0 1 .12-1.22c.05-.07.1-.14.17-.2.03-.02.07-.04.1-.09.02-.05.02 0 .02 0 .1-.05-.19.07-.14.05l-.17.05.26.02c.5.17.77.7.92 1.18.19.74.21 1.53.07 2.3-.22 1.25-.77 2.74-1.85 3.53-.02.02-.12.1-.05.05-.02 0-.07.02-.02 0 .05-.03.14-.05.21-.07.12-.03 0 0-.1-.03a.82.82 0 0 1-.52-.36 1.7 1.7 0 0 1-.4-1.1c0-.67.45-1.27.98-1.66l.14-.1c.07-.04-.05.03.02-.02.08-.05.15-.07.03-.02.02 0 .14-.07.05-.03-.1.05.1-.02-.08.03.12-.03-.07 0 .03 0h.14a.4.4 0 0 1 .17.02c.14.03.26.07.38.17.72.5.58 1.68.44 2.4-.08.38-.17.77-.3 1.15-.04.15.4.03.46.03.15-.05.63-.15.68-.34.26-.72.4-1.49.43-2.26.02-.43-.12-.88-.39-1.22-.64-.72-1.87-.29-2.59.05a3 3 0 0 0-1.68 1.82c-.21.94.43 2.07 1.47 1.92 1.68-.21 2.66-1.65 3.19-3.14.29-.84.43-1.7.38-2.6-.05-.67-.19-1.5-.77-1.94-.52-.38-1.22-.21-1.77.03-.5.21-.99.55-1.18 1.08-.4 1.27 1.15 2.37 2.28 2.44.7.05 1.4-.19 1.92-.62.34-.34.58-.74.67-1.22.22-.84.3-1.7.24-2.6v-.16c0-.1-1.15.12-1.12.38l-.08.02Zm6.87-.57c.14.02.26.07.36.14h.1l.11-.02.15-.07a.5.5 0 0 0 .14-.1l.1-.07c.05-.03.1-.07.12-.12l.02-.05c0-.02 0-.05-.02-.07a.9.9 0 0 0-.48-.17c-.05 0-.07 0-.12.02-.05 0-.1.03-.15.05-.04.03-.12.05-.16.07-.05.03-.1.05-.15.1l-.07.05-.07.1v.02c.05.1.07.12.12.12Z" />
    <path fill="var(--b, white)"
      d="M61.25 73.54c.14.21 6.84 11.3 6.84 11.3s-3.27.72-2.81 2.62c.17.67 13.97.84 13.73.12-.24-.72-1.8-1.06-1.8-1.06s3.31 1.87 3 .24c-.31-1.63-6.89-2.18-6.89-2.18S64.15 57.6 61.68 55.94c-3.38-2.25-10.87.7-.43 17.6Z" />
    <path fill="var(--c, black)"
      d="m60.82 73.8 2.37 3.91 3.65 6.03.84 1.36.24-.84c-1.44.34-3.48 1.32-3.14 3.1.12.6.6.77 1.1.84.67.12 1.34.2 2.02.22 1.82.12 3.67.16 5.52.16 1.6.03 3.21-.02 4.8-.19.43-.05 1.15-.07 1.34-.53.26-.62-.5-1.22-.96-1.48a4.7 4.7 0 0 0-1.27-.46c-.67-.14-.82.77-.29 1.06a8.8 8.8 0 0 0 2.02.86c.4.12.96.22 1.34-.05.43-.29.48-.89.31-1.32-.33-.89-1.41-1.3-2.23-1.56a24.86 24.86 0 0 0-5.18-.96l.57.43-.7-2.04c-.6-1.7-1.17-3.38-1.8-5.08a375.84 375.84 0 0 0-5.08-13.47 88.2 88.2 0 0 0-2.45-5.54c-.29-.6-.6-1.2-.96-1.75-.24-.44-.58-.8-.96-1.08a4.47 4.47 0 0 0-3.17-.68 3.79 3.79 0 0 0-2.71 2.07c-.82 1.56-.72 3.5-.38 5.16.6 3.19 2.04 6.19 3.57 9 .46.98 1.01 1.92 1.59 2.83a.53.53 0 0 0 .96-.43c-.03-.05-.05-.1-.08-.12-1.87-3.03-3.62-6.22-4.63-9.65a14.41 14.41 0 0 1-.6-3.2c0-.11 0-.2-.02-.33v-.27c0-.09 0 .15 0 0l.02-.62c0-.21.05-.38.07-.57.03-.1.03-.17.05-.27 0-.04.03-.07.03-.12 0-.04-.03.05-.03.05s.03-.05.03-.1c.1-.3.21-.6.38-.88.07-.15-.05.05.05-.1.05-.05.07-.12.12-.19.07-.12.17-.22.26-.31l.15-.15c.12-.1-.08.05.07-.04.1-.08.19-.15.31-.22l.34-.2c.12-.06-.1.03.04-.02l.17-.07a2 2 0 0 1 .36-.1l.17-.02h.1c.1-.02 0 0-.03 0 .24-.02.48-.02.72 0l.17.03c.2.02-.1-.03.07 0a2 2 0 0 1 .36.1c.12.04.24.06.34.11.02.03.19.07.1.05-.1-.02.07.05.11.05l.32.17c.04.02.07.04.12.1.07.02-.1-.1-.08-.06.03.05.03.03.05.03l.17.19c-.1-.12.1.1 0 0l.1.12a13.52 13.52 0 0 1 1.12 2l.08.11c-.05-.1-.03-.05 0 .03l.14.28c.2.39.36.8.55 1.18.41.94.82 1.85 1.2 2.78.89 2.16 1.75 4.35 2.57 6.53a681.02 681.02 0 0 1 4.4 12.12l.95 2.79.05.12c.1.24.31.4.58.43 1.36.12 2.73.33 4.08.67.43.1.88.24 1.3.4l.14.06.04.02.27.12c.1.05.14.1.21.14l.1.08c-.14-.1 0 0 .02.02l.12.12c-.14-.12 0 0 .03.05-.1-.12-.05-.1-.03-.03.03.12 0-.19 0-.02 0 .05 0 .1.03.14v-.07l.02-.02c-.1.07.12-.05.03 0l-.1.02c.14-.02-.07 0-.12 0-.05 0-.17-.02-.02 0a7.15 7.15 0 0 1-2.06-.82l-.3 1.06c.3.07.56.15.82.27.2.07.36.19.5.33.03.03.08.1 0 0 .08.1.03-.07.03.05-.03-.2-.05-.36.07-.48-.05.07.14-.12.05-.05-.1.07.1-.02.05-.02-.08.02-.15.02-.2.05l-.26.04-.14.03h-.1c-.12.02.02 0 0 0a39 39 0 0 1-4.32.17 95.69 95.69 0 0 1-7.25-.27l-.33-.05-.1-.02c-.12-.02.12.02.02 0l-.16-.02c-.08-.03-.17-.03-.24-.05-.08-.03-.24-.1-.08 0-.07-.03-.1-.1.05.05 0 0 .22.24.17.3l-.02-.16v-.12c0 .05 0 .05 0 0s0-.1.02-.12c.02-.07.02-.07 0-.02l.02-.1c.17-.36.46-.65.8-.82.5-.3 1.08-.55 1.65-.67.39-.1.41-.57.24-.84l-2.25-3.81-3.68-6.05c-.28-.48-.6-.99-.88-1.49a.53.53 0 0 0-.96.43c.16.1.21.15.24.17Z" />
    <path fill="var(--b, white)"
      d="M43.46 70.4c-.12 5.56 6.27 5.15 7.88 1.91 1.6-3.24 4.53-13.34 4.53-13.34s1.66 1.22 2.35-.17c.7-1.4 0-2 0-2 1.66-1.12-.14-2.8-.14-2.8 3.29-.53 4.15-2.26 2.38-2.69-1.78-.43-6.63 1.13-8.12 1.13-1.48 0-4.03-2.74-5.32-1.78-1.3.96.96 2.7 1.5 3.22l1.11 4.03c.03-.02-6.05 6.22-6.17 12.48Z" />
    <path fill="var(--c, black)"
      d="M42.98 70.22c-.02 2.04.92 4.08 2.96 4.76a4.9 4.9 0 0 0 6.14-2.93c.38-.87.72-1.75 1.03-2.64.75-2.09 1.42-4.2 2.09-6.31.38-1.3.8-2.57 1.15-3.87l-.57.17c.67.5 1.84.89 2.54.22.8-.77 1-2.4.12-3.22l.14.84c.75-.5 1.04-1.46.65-2.3a3.86 3.86 0 0 0-.93-1.37l.04.89a5.9 5.9 0 0 0 2.93-1.16c.55-.5.8-1.2.31-1.87-.48-.67-1.24-.81-1.99-.81-.91.02-1.85.12-2.73.3-.99.2-1.97.42-2.93.63-.39.07-.8.17-1.18.22-.24.05-.5.07-.77.02-.84-.17-1.58-.77-2.32-1.17-.75-.41-1.61-.92-2.48-.75-.45.1-.84.41-.98.87-.12.48-.02.96.24 1.36.46.84 1.2 1.42 1.9 2.07l-.24-.39 1.1 4.06.1-.46a28.1 28.1 0 0 0-2.16 2.6 24.4 24.4 0 0 0-3.34 6.04 14.17 14.17 0 0 0-.82 4.2c0 .53.96 1.06.99.34.1-3.67 2.11-7.18 4.27-10.03.38-.5.77-.99 1.15-1.44l.22-.24.1-.1.04-.05c.07-.07.17-.16.24-.26.24-.26.15-.5.07-.82l-.45-1.68-.46-1.68a1.38 1.38 0 0 0-.1-.33c-.09-.34-.38-.53-.64-.75l-.36-.3-.2-.2-.09-.12-.07-.07c-.12-.12-.22-.27-.34-.41a2.2 2.2 0 0 1-.19-.31l-.02-.1v-.12a.55.55 0 0 1 .14-.29.8.8 0 0 1 .7-.24c.64.05 1.34.5 1.92.84.64.39 1.34.84 2.08 1.04.6.14 1.18.04 1.78-.05a96.3 96.3 0 0 0 2.33-.48c.84-.2 1.68-.36 2.54-.48.34-.05.7-.07 1.03-.1h.48c.08 0 .15 0 .22.03a2.36 2.36 0 0 1 .5.14l.12.07c.08.05-.07-.07-.02-.02s0 .02-.02-.03c0 .03.02.05.04.05-.14-.19 0 .03-.04-.1-.05-.11 0-.02 0 0 0 .03.02-.09 0-.04-.05.1.02-.07 0 .05 0 .02-.05.16-.03.07-.24.53-.93.86-1.49 1.08-.5.17-1 .31-1.53.38-.46.07-.12.72.05.89l.04.07c.1.1-.04-.07-.02-.02l.1.1.19.26c.05.07-.05-.07.02.05l.1.19c.1.17.12.38.1.57-.08.32-.3.6-.58.75-.29.21-.05.67.14.84.07.05-.07-.07-.07-.07.07.07.05.1.02 0 .03.02.03.07.05.1-.02-.08.05.09 0 0 .03.06.03.11.03.18.02.46-.2 1.16-.6 1.42-.3.14-.65.14-.94 0l-.14-.07c.02 0 .04.02 0 0l-.2-.12a.73.73 0 0 1-.16-.12c-.15-.12-.39-.12-.5.02-.03.05-.06.07-.08.12a189.3 189.3 0 0 1-2.78 8.86c-.32.91-.63 1.82-.99 2.73-.24.72-.57 1.42-.96 2.07a4.4 4.4 0 0 1-5.06 1.53l-.05-.02a.5.5 0 0 1-.17-.1l-.26-.16c-.03 0-.15-.12-.05-.03l-.12-.1c-.1-.07-.17-.14-.26-.23l-.03-.03-.12-.14-.1-.12c-.09-.12.03.07-.02-.05a3.13 3.13 0 0 0-.19-.36c-.05-.07-.07-.17-.1-.24a5.12 5.12 0 0 1-.21-1.7c-.03-.5-.99-1.04-.99-.32Z" />
    <path fill="var(--c, black)"
      d="M56.35 55.7h.05c.05.03-.22-.04-.1-.02l.12.05c.08.02.27.12.05.02l.41.22c.05.02-.07-.05-.07-.05l.02.02.05.05.12.1c.1.07.17.14.24.21l.07.08c.03.02.1.1.12.16.1.12.17.27.24.39.07.12.2.2.34.21.14.05.31.08.45.05.24-.05.44-.21.3-.48a3.61 3.61 0 0 0-2-1.68l-.29-.07a.68.68 0 0 0-.43.05c-.1.05-.22.12-.22.24-.04.24.3.38.53.45Zm-.38-1.96h.09-.02.38c-.04 0 .03 0 0 0h.08l.14.02a2.82 2.82 0 0 1 .94.46l-.05-.03.05.05a.2.2 0 0 0 .21.02c.29-.07.53-.19.77-.38.02-.02.14-.14.1-.2a2.51 2.51 0 0 0-2.02-.54c-.29.04-.55.19-.77.38-.05.02-.14.12-.1.2.05.06.15.02.2.02Zm.17 3.93c-.12.17-.24.34-.39.48l-.1.1-.04.05-.03.02.05-.05-.21.2-.12.07-.05.02-.03.02-.04.03c-.05.02-.1.02-.15.05l.1-.03h-.19c.19-.02.1 0 .04 0h-.07c-.05 0 .1.03.1.03s-.03 0-.05-.03l-.1-.02c-.02 0-.07-.03.03.02.02 0 .1.05 0 0a1 1 0 0 0-.46-.12.51.51 0 0 0-.36.17.5.5 0 0 0 .15.67 1.93 1.93 0 0 0 1.08.26c.28-.02.57-.11.81-.26.36-.21.67-.5.91-.84l.15-.21c.07-.1.1-.24.07-.36a.62.62 0 0 0-.26-.34c-.24-.12-.68-.2-.84.07Z" />
  </g>
</svg>
