<svg xmlns="http://www.w3.org/2000/svg" viewBox="0 0 120 120" fill="none">
  <g id="doc">
    <path d="M113.9 21.8s.6 2.8.6 3.6-3.6 25.9-5.3 26.5z" fill="var(--b, white)" />
    <path
      d="m113.3 22 .3 1.4q.3 1 .3 2l-.1 1.2-.8 5.8-1.4 8.3a137 137 0 0 1-2.3 10.3l-.1.2-.2.4h-.1q-.1.2 0 .1l-.1.1.2-.1q.2 0-.1 0l-.3.2h-.3c-.1 0-.5.3-.4.6q.2.2.7 0l.7-.3.5-.4.4-3 1-7.2 1.4-8.7 1.2-7.5.4-2.5.2-1.2c0-.4-1.1-.1-1.2.3l-.4 3-1.1 7.2-1.4 8.7-1.1 7.5-.4 2.5-.2 1.2.5-.4-.8.3.3.5 1.2-.6.4-.6.7-2.2q.9-3.7 1.5-7.4l2.6-16.3-.1-1.3-.4-2.1-.1-.4c0-.4-1.2 0-1.1.4"
      fill="var(--c, black)" />
    <path d="M107.9 54.8a4 4 0 0 1-1.6 2.2c-3.7 2.8-14.9 11-15.5 11.2-.8.2-30.6-12.8-30.4-15.5l47.6 1.6z"
      fill="var(--b, white)" />
    <path
      d="M107.4 54.5a4 4 0 0 1-1.6 2.1l-1 .8-2.8 2-6.6 4.8-4.7 3.3-.1.1h-.2q.2 0 0 0 .2 0 0 0l-1-.3-1.6-.6-1-.5h-.2l-.3-.2-.6-.2a285 285 0 0 1-18-8.4L65 55.9l-1.1-.7h-.2l-.3-.2-.5-.3-.8-.6-.4-.3h-.1l-.1-.2-.5-.4-.1-.1c-.1-.2 0 .1 0 0V53q0 .1 0 0 0-.2 0 0l-.2.1H62l3.5.1 5.1.2 6.3.2 6.8.2 6.9.3 6.5.2 5.4.2 3.9.2h1.9l-.8-.8zc-.2.4.8 1 1 .7v-.5c.1-.4-.5-.8-.8-.8h-1.2l-3.5-.2-5.1-.2-6.2-.2-6.9-.2-6.8-.2-6.5-.2-5.4-.3h-4l-1.8-.1h-.1l-.1.1q0 .7.5 1.1.6.7 1.3 1.2l4.3 2.6a135 135 0 0 0 12.3 6.1l6 2.7L89 68l1.4.5.8.2.4-.3.7-.5 2.4-1.6 6.6-4.8 3.2-2.3 2.5-1.8a4 4 0 0 0 1.3-2.2c.1-.4-.8-1.1-1-.7"
      fill="var(--c, black)" />
    <path d="M108.7 52s5.6-30 5.2-30.3-31.9-6-32.9-5.5-2.3 24.4-1.8 25.4 29.4 11.1 29.5 10.5" fill="var(--b, white)" />
    <path
      d="m109.2 52.2.6-2.8 1.2-6.8 1.5-8.4q.8-3.8 1.3-7.6l.6-4.4v-.4q-.2-.4-.6-.5l-1.3-.3-5.7-1.1-16.6-3-6.7-1-2-.2q-.7-.1-1.2.4-.3.6-.4 1.4l-.4 2.9a189 189 0 0 0-1 16.6v4.5q.2.6.9.9l1.8.8 6.4 2.4 15.6 5.5q2.3.8 4.7 1.4c.3 0 1.2.3 1.3-.3s-1-.8-1.2-.2q.2-.4.5-.3h-.2q.2 0 0 0h-.1l-.4-.1-2-.6-6.5-2.1-.5-.2h-.2l-.2-.1-1-.4-1.9-.7-4-1.4-7.3-2.7q-2.2-.7-4.3-1.8h-.1q0-.2 0 0v-.2q-.3 0-.1 0v.1l.2-7 .6-8.6q.2-3.2.7-6.4l.3-1q0-.1 0 0h-.2.1c.1 0-.2 0 0 0h.6l2.1.2 1.4.2.4.1h.2l.9.2 7.8 1.2 8.4 1.5 7 1.3 3.4.8c.1 0-.2 0 0 0l-.2-.1-.2-.3v.2q0 .1 0 0v.2h-.2l-1 6.5-1.5 8.2-1.4 7.6-1 5-.1.6c0 .6 1.1.9 1.2.4"
      fill="var(--c, black)" />
    <path d="M107.4 49.4s3.9-24.3 3.7-24.8-27.5-5.9-28.1-5.5c-.5.5-2.5 20.4-2 21.3s25.2 8.9 26.4 9"
      fill="var(--b, white)" />
    <path
      d="m107.9 49.2.4-2.4.9-6 1.1-7.1 1-6.2.3-2.1v-1q0-.4-.4-.4l-1.4-.3-5.2-1.2-6.9-1.4-7-1.3-5.3-1-1.5-.1q-.8-.1-1.4.5l-.3 1.2-.3 2.3-.8 6.9-.6 7-.1 2.5v1.4q.1.4.6.5l1.5.7 5.5 2a399 399 0 0 0 19 6q.4 0 .7-.4.3-.2 0-.3h-.1l-.1-.1-.6-.2-2-.5L92.3 44l-10.3-3.8-.4-.2h-.1v-1.4q0-2.8.3-5.7l.7-7.3q.3-2.8.8-5.5l.1-.8V19l-.5.5h.5l4 .6 6.5 1.1 7 1.4 6 1.3 3.5.8.3.1h-.1l-.1 1.2-.1.9-.2 1.2-.4 2.9-1.1 6.8-1 6.7-.7 4.3-.1.6c0 .6 1 .1 1-.3"
      fill="var(--c, black)" />
    <path d="M108 54.3S91.6 67.2 90.3 67.2 60 53.6 60.5 52.7A133 133 0 0 1 79 43.6c1 0 28.9 10.7 28.9 10.7"
      fill="var(--b, white)" />
    <path
      d="m107.6 53.9-2.4 1.8-5.3 4.1-5.9 4.4-3.5 2.3h-.1l-.1.1H90h.2c-.2 0 .2 0 0 0H90l-1.3-.5-4.7-2-6.3-3-3.4-1.6-1.7-.8-1.6-.8L65 55l-3.7-2.1-.5-.3q.2 0 0 0v.4c-.1 0 .2-.2 0 0l.5-.4 2-1.2 1.4-.7 1.4-.7 12-5.6.8-.3c.2 0-.1 0 0 0 .2 0-.2 0 0 0s-.2-.1 0 0h.2l.5.2 4.3 1.5 6.4 2.4 7 2.7 6 2.3 3.8 1.4.5.2q.5.2.7-.3a1 1 0 0 0-.3-.6L106 53l-5.2-2-6.8-2.6-7-2.6-5.4-2-1.7-.5-1-.3-1.4.4-2.3 1-6.6 3.1-8.1 4.4c-.3.3-.9.6-.6 1q.3.5.8.8l1.4.9 5 2.6a421 421 0 0 0 22.6 10.4q.5.3 1 0 .9-.4 1.6-1 2.7-1.7 5.2-3.6l10.2-7.8.6-.5c.7-.5-.1-1.3-.7-.9M96 19.4s.6.2.5.8c-.2.6-1 .2-1-.2-.1-.4.2-.9.5-.6"
      fill="var(--c, black)" />
    <path
      d="m100.1 55.6-2.3-1-5.5-2.3-6.6-2.9-5.9-2.5-2.8-1.1q-.5-.3-.6.1.1.5.5.7l2.3 1 5.5 2.2 6.6 3 5.8 2.4 2.8 1.2q.5.2.7-.1-.1-.5-.5-.7m-2.8 2.3-2.4-1-5.8-2.4-6.9-3-6-2.4-3-1.3q-.4-.2-.5.2.2.4.5.6l2.5 1 5.7 2.4 7 2.9 6 2.5 3 1.3q.4.2.4-.2t-.5-.6m-2.8 2.3-2.4-1-5.8-2.4-7-2.9-6-2.5-3-1.2q-.5-.2-.8.1-.2.2 0 .4l.1.1 2.4 1 5.8 2.4 7 2.9 6 2.5 3 1.3q.5.2.8-.2.2-.1 0-.4z"
      fill="var(--c, black)" />
    <path
      d="M97.5 52.6 93.8 55l-6 3.8-1.4.9q-.2.2 0 .6.5.4.9 0l3.8-2.3 5.9-3.8 1.4-.9q.2-.3 0-.7-.6-.3-.9 0m-5.9-2.5-3.4 2-5.4 3.1-1.3.8c-.4.2.2 1.2.7 1l3.4-2 5.4-3.2 1.3-.7c.4-.3-.2-1.3-.7-1m-6.4-2.8-3.6 2-5.6 3.3-1.4.8c-.5.3 0 1.3.5 1.1l3.6-2.1 5.7-3.3 1.3-.7c.5-.3 0-1.4-.5-1"
      fill="var(--c, black)" />
    <path d="m102 41.1-15.7-4.6 1.2-9.6 15.4 3.3z" fill="var(--a, blue)" />
    <path
      d="m102.5 40.8-5.3-1.5-8.3-2.5-2-.5h.1l1-8.4.2-1.2-1 .5 5.2 1.1 8.3 1.7 1.9.5-.1-.1-.4 3.6-.6 5.9-.1 1.4c0 .2 1-.1 1.1-.4l.4-3.6.6-6 .1-1.3-.1-.1-5.2-1.1L90 27l-2-.4-.5.1-.4.3-1 8.5-.2 1.2v.1l5.2 1.6 8.4 2.4 1.9.6q.4 0 .7-.2c.1 0 .5-.4.3-.4"
      fill="var(--a, blue)" />
    <path
      d="m90.9 29.5 3 3.6q.3.5.8.9.4.3.8-.1l1.9-1 2.2-1c.4-.2 0-1-.4-.9l-2.3 1.1-1.1.6-.6.3-.2.1-.2.1-.2-.3-.2-.2-.5-.6-.8-1-1.9-2.3q-.2-.2-.5 0 0 .4.2.7"
      fill="var(--b, white)" />
    <path
      d="m98.4 37.5-3-3.6-.8-.9q-.4-.2-.9.1l-1.9 1-2.2 1c-.3.2 0 1 .4.9l2.3-1.1 1.1-.5.6-.4.3-.1h.1v-.1l.2.3.2.3.5.5.9 1 1.8 2.3q.3.3.5 0 .1-.4-.2-.6"
      fill="var(--b, white)" />
    <path d="M74.8 94.3s12.5 2.5 7.4-8.1-36.8-35.2-47-35.4S9.6 67.3 6.3 81.4s5.1 19.2 5.1 19.2l9.3-5.5z"
      fill="var(--a, blue)" />
    <path
      d="M74.5 94.4q1.3.2 2.7.2 2.4.2 4.5-.6c4-1.8 1.9-6.9.1-9.5a36 36 0 0 0-3.6-4.7q-2.5-2.7-5.2-5.3a147 147 0 0 0-26.7-19.8q-2.9-1.6-5.8-2.8a14 14 0 0 0-11.5 0 31 31 0 0 0-7.4 4.8A55 55 0 0 0 9.1 72.5c-3 5.7-5.1 12.5-3.8 19a15 15 0 0 0 5 8.8l.5.2c.2.2.9.3 1.1.2l8.1-4.8 1.2-.7H21h5.4l5.8-.1 7.1-.1 7.8-.2h7.8l7.4-.2 6.2-.1H75q.3 0 .2-.2l-.8-.1h-2l-5.5.1-8 .1-9.1.1-9.5.2-8.6.2H20.4l-.7.3-1.2.8-7.2 4.2-.5.3 1.2.1q-.9-.5-1.6-1.3a14 14 0 0 1-2.8-4.2C5 89.6 6 83 8 77.4a51 51 0 0 1 17.7-22.8 22 22 0 0 1 8.7-3.8H36c.2 0-.1 0 0 0h.2l1 .3q2.6.8 5.1 2a96 96 0 0 1 12.9 7.9q7 4.9 13.2 10.5 5.5 4.7 10.2 10.3a23 23 0 0 1 2.8 4.1c.9 1.8 1.9 4.3.9 6.3-.7 1.3-2.2 1.8-3.5 2l-1.1.1h-2.2l-.4-.1q.1 0 0 0h-.9z"
      fill="var(--a, blue)" />
    <path d="M49.3 41.5S50.7 29.1 40 27s-21.7 8.3-19.4 21.2 18.1 11 18.1 11z" fill="var(--b, white)" />
    <path
      d="M49.6 42q.2-2.8-.4-5.5c-.8-3.6-2.7-7-6-8.8-4-2.3-9-1.9-13 .1a18.5 18.5 0 0 0-10 18.3q.2 3.6 2 6.7 1.4 2.5 3.7 4.1a16 16 0 0 0 4.5 2 24 24 0 0 0 7.5.9h1l.1-.1.4-.7.7-1.2 5-8.5 4.2-7zl-.3-.7c0-.1-.2-.5-.3-.3l-2.9 4.9-5.2 8.8-1.9 3.1-.4.8q-.1 0 0 0h-.8a22 22 0 0 1-4.9-.1 16 16 0 0 1-8.6-3.7 11 11 0 0 1-2.8-4.1 19 19 0 0 1 6-19.7c3.5-2.9 8.1-4.4 12.6-3.5q3.1.5 5.5 2.5l1.6 1.9.2.3v.2l.2.2.1.2.5 1v.2l.1.3.2.5.3 1 .3 2v3.1q0 .4.2.7z"
      fill="var(--a, blue)" />
    <path
      d="M51.4 52C54 46.7 47 31.7 47 31.7c-3.5-3.6-16.3 2.1-16.3 2.1a27 27 0 0 1 3.7 10.5c-2.4-3.4-6.3-.8-5.2 2.7s5.4 3.6 5.4 3.6.5 7.8 1.2 9.2 7.8 1.8 10.4-3c0 0 2.9-.3 5.2-4.9"
      fill="var(--b, white)" />
    <path
      d="M51.7 52.5q.7-1.8.5-3.7-.1-2.4-.7-4.8a62 62 0 0 0-4.1-11.7l-.2-.5a3 3 0 0 0-1.6-1.4 9 9 0 0 0-4-.3q-2.4.2-4.8.9a50 50 0 0 0-6.4 2.2h-.1c-.2.1.3.8.4.9q1.4 2.1 2.1 4.6.7 2.1 1 4.2l.2.9.2.1c-.8-1.1-2-2-3.4-1.6a3 3 0 0 0-2.1 2.5c-.3 1.5.5 3 1.4 4.1a6 6 0 0 0 2.8 1.9q1 .3 2 .3l-.6-1 .9 8q0 1.4 1 2.4.9.6 2 .6a10 10 0 0 0 6.3-1.6 7 7 0 0 0 1.7-1.7l.2-.5h.1q.9-.2 1.7-.7a9 9 0 0 0 2.7-3l.7-1.1q0-.2-.2-.5l-.4-.5c-1 2-2.6 4.1-4.8 4.8h-.4l-.3.6-.5.6a8 8 0 0 1-3 2q-1.5.6-3.1.7-1.3 0-2.5-.4l-.4-.1-.2-.2.2.5v-.1l-.1-.5-.5-3-.5-5.2V51l-.2-.6q-.2-.3-.5-.4-2 0-3.8-1.3l-.5-.5-.3-.4a4 4 0 0 1-.3-1.9 3 3 0 0 1 1.7-2.5c1.2-.6 2.6 0 3.4 1l.3.2a30 30 0 0 0-2.4-8.1q-.6-1.6-1.8-3.1l.5.8q2.1-1 4.4-1.6a26 26 0 0 1 8.4-1.7q1.9-.1 3.5 1l-.5-.6q0-.2 0 0l.1.3.5 1.2 1.5 3.8a42 42 0 0 1 2.7 10.1c0 1.5.1 3.2-.6 4.6l.3.6z"
      fill="var(--a, blue)" />
    <path d="M45.6 45.9s8.7-1.1 9-5.9c.3-4.7-6.3-5.1-10-.2" fill="var(--b, white)" />
    <path
      d="m45.4 46.2 3-.6q2.7-.7 4.9-2.4 2.3-1.9 1.8-4.7c-.6-1.8-2.4-2.6-4.2-2.5a9 9 0 0 0-6.8 3.8q-.1.4.3.3.4 0 .7-.4 1.1-1.4 2.5-2.3a6 6 0 0 1 2.5-.8c1.5-.1 3.1.5 3.7 2a4 4 0 0 1-1.3 4.3 10 10 0 0 1-4 2l-.3.1h-.1c-.2 0 .1 0 0 0l-.6.2-1 .2-.6.2q-.5 0-.8.3-.1.4.3.3m3.4 1.7v-.2zl.1-.2.1-.1h.1l.1-.1.3-.2.1-.3v-.2h-.4q-.8.2-1.2 1v.1q-.1.2 0 .4h.2l.3-.1zm-5.1-10.6s-.8.4-.3 1 1.3 0 1-.6q-.1-.5-.7-.5zm-5.2 1.6s-.6.4-.2 1 1.3.1 1-.6q-.1-.5-.7-.5z"
      fill="var(--a, blue)" />
    <path
      d="M23.4 63s-5.8-8.7-1.2-10.5c0 0 .5-4 1.4-5.7s2.2-1.3 2.5-.5c0 0 2.1-1.9 2.7.5 0 0 1.6-1.4 2.5.9.7 1.8 0 4.6.8 6.5.6 1.5 2.4 4.6 1.4 9.7s-1.8 43.2-18.5 38.6C-1.9 97.9 23.4 63 23.4 63"
      fill="var(--b, white)" />
    <path
      d="m24 62.8-.1-.2-.4-.6a26 26 0 0 1-2.1-4.9 6 6 0 0 1-.3-2.6 3 3 0 0 1 1.6-2h.2l.5-2.7q.1-1 .5-2 .2-1.1 1-1.9l.2-.1q.1 0 0 0-.5 0 0 0l.4.6c0 .2.5.1.6.1l.6-.2.9-.5.2.1q.5.4.6 1c0 .2.5.1.6.1l.6-.2h.2v-.1h.2-.1q-.1 0 0 0l.3.1q.4.3.6.9.5 1.2.4 2.5v2.7l.6 2 .6 1.3a14 14 0 0 1 .8 7.1l-.2 1.2-.1 1.3-.4 4.1-.7 5.5a112 112 0 0 1-2.4 12.8q-.8 3-2.1 6a22 22 0 0 1-2.8 4.8q-1.5 2-3.6 3.1l-.5.2-.3.1H20l-.1.1-.3.1H19l-.1.1h-1l-1.2-.1q-2.5-.4-4.5-2-1.5-1.6-2-3.9-.5-2.5-.1-5 .5-3 1.5-5.8A63 63 0 0 1 17 74.1l3-5 2.5-3.9 1.5-2.1.2-.3-.5-.1q-.4 0-.7.2l-.8 1.2-2.1 3.2a135 135 0 0 0-6 10.3q-1.5 3-2.8 6.1t-2 6a19 19 0 0 0-.5 5.5q.1 2.4 1.3 4.4 1.4 2 3.8 2.8a11 11 0 0 0 5.7.5q2.5-.6 4.5-2.3 2-1.8 3.3-4.2 1.5-2.7 2.4-5.7a89 89 0 0 0 2.9-13l.8-6 .5-4.9q0-1.5.3-3a15 15 0 0 0-1.1-9q-.4-.7-.5-1.5l-.2-2.8-.2-2.6q-.2-1-1.2-1.7c-.8-.3-2 0-2.6.5h1.2q-.2-.8-.8-1.2-.8-.3-1.6 0t-1.6.8l1.3-.1q-.6-1-1.6-.8-1.4 0-2.1 1.3a25 25 0 0 0-1.2 4.5l-.2 1.3.2-.1q-1.4.5-1.8 1.7a5 5 0 0 0 0 2.7 18 18 0 0 0 2.8 6.2c0 .2 1.2 0 1-.2"
      fill="var(--a, blue)" />
    <path
      d="m29 56-.7-3.2q-.2-2.2.6-4.2l.7-1.6c.2-.2-.9-.7-1.1-.4q-.5.5-.6 1.3l-.7 2.2a11 11 0 0 0 .3 4.3l.3 1.4c.1.3 1.3.5 1.2.2m-6.2-1.6v-2q0-.4-.6-.4-.7.1-.6.5v2.1q.1.5.6.3.5 0 .6-.5m2.8-8.1q-.5.9-.8 1.9-.8 2.1-.8 4.3 0 1.5.7 3c.1.3 1.2-.3 1-.7-1-2.5-.5-5.5.6-7.9l.3-.6q.2-.3-.2-.4-.5 0-.8.4"
      fill="var(--a, blue)" />
    <path
      d="M52 97.4c-1.7 1-.7 3.8-3.1 5.6-2 1.6-3-.4-3-.4-1.9 2.8-3.8 0-3.8 0-3.8 2.4-2.5-7.6-2.5-7.6-1 1.1-4.2 7.3-6.2 6.4-2-1 2.2-15.1 13.2-16.8s28.3-.8 35.6 1.6c0 0 7 8.3-2.2 13.2-9.1 5-28-2-28-2"
      fill="var(--b, white)" />
    <path
      d="M51.7 96.9c-1.3.7-1.3 2.3-1.7 3.5a4 4 0 0 1-1.3 2q-.6.5-1.2.6h-.7v-.1q-.2-.1-.1 0l-.1-.2q-.1-.1 0 0l-.2-.2c-.1-.2-.5-.6-.8-.3-.5.8-1.3 1.4-2.2.9l-.4-.2-.1-.1-.2-.2-.2-.2q.1.1 0 0-.2-.4-.7-.3-.3.3-.8.4h-.3v-.1q-.2 0 0 0l-.2-.1q.1 0 0 0v-.1l-.1-.1q0 .1 0 0l-.1-.2-.1-.2v-.2l-.2-.5v-4.6l.1-1.2c0-.4-.5-1-.9-.6l-1.4 2a25 25 0 0 1-3 3.8q-.4.4-1 .5h-.3q0 .2 0 0 0-.1 0 0v-.3q0-.2 0 0v-1.2q0-.1 0 0v-.2l.1-.5q0-.5.3-1.1a20 20 0 0 1 6.7-9.8q2.9-2.2 6.5-2.7a79 79 0 0 1 8.5-.8 120 120 0 0 1 18.2.7q3.6.4 7.2 1.3l1.2.4-.2-.2.2.3.7 1 .2.4.2.2.3.9.2.5v.2l.1.1c0 .2 0-.1 0 0l.3 1a7 7 0 0 1-.6 4.3 10 10 0 0 1-4.5 3.8 22 22 0 0 1-10.6 1.3A61 61 0 0 1 52.2 97H52q-.3 0-.5.2v.1q0 .5.5.7 3 1.2 6.3 2 6.3 1.6 13 1.9c4.4 0 9.4-.9 12.3-4.5a7 7 0 0 0 1.5-5.4q-.3-2.5-1.6-4.5l-.8-1.2-.3-.4-.8-.3q-3-.9-6.1-1.3a108 108 0 0 0-24.6-.7l-3.7.4-3.4.8a20 20 0 0 0-11 12.5q-.6 1.7-.4 3.5.1.7.7 1.1 1 .5 1.9-.1 1.1-.9 2-2l1.7-2.5 1.3-1.7-1-.6a27 27 0 0 0 0 6 4 4 0 0 0 1 2.2q1 1 2.3.1l-.6-.3q.6.9 1.5 1.4.8.3 1.5.1a3 3 0 0 0 1.6-1.2l-.8-.4c.5 1 1.6 1.7 2.7 1.3a5 5 0 0 0 2.2-2q.5-1.1.8-2.3.2-1.1 1.1-1.8c.4-.4-.2-1.4-.7-1.1"
      fill="var(--a, blue)" />
    <path
      d="M43.4 92.1q-.6 1.1-1 2.3-.8 2.4-1 5.1 0 1.6.5 3.1c.2.5 1.4.4 1.2-.2a10 10 0 0 1-.2-5.3q.5-2 1.3-4l.3-.7c.3-.6-.9-.8-1.1-.3m4.1-.2q-.6 1.1-1 2.3a18 18 0 0 0-1.3 5q-.1 1.5.4 3 .1.4.5.5l.3.3q-.6-2.7.1-5.4.6-2 1.5-4l.5-.9c0-.2-1-.9-1-.8"
      fill="var(--a, blue)" />
  </g>
</svg>