<svg xmlns="http://www.w3.org/2000/svg" viewBox="0 0 120 120" fill="none">
  <g id="doc">
    <path fill="var(--b, white)"
      d="M84.917 37.183s-14.017 7.559-10.809 13.1c3.225 5.55 11.725 7.884 11.725 7.884l-.916-20.975Z" />
    <path fill="var(--c, black)"
      d="M84.55 36.767a42.75 42.75 0 0 0-3.333 2.041 30.367 30.367 0 0 0-5.875 4.9c-1.417 1.6-2.809 3.809-2.067 6.017a6.667 6.667 0 0 0 1 1.75c.483.65 1.042 1.25 1.642 1.808a20.267 20.267 0 0 0 3.958 2.85 27.325 27.325 0 0 0 5.667 2.4l.233.075c.292.075.583-.1.65-.383.025-.05.025-.1.025-.142L86.35 56l-.217-5.025-.258-6.05-.242-5.225-.075-1.733c0-.259 0-.55-.025-.817v-.042c-.016-.625-1.216-.6-1.166.067l.083 2.083.225 5.025.258 6.042.25 5.233.067 1.709a9 9 0 0 0 .025.816v.042l.667-.525.05.025-.284-.1c-.333-.092-.675-.217-1.008-.333a32.083 32.083 0 0 1-3.25-1.392c-2.558-1.292-5.317-3.167-6.783-5.783a2.625 2.625 0 0 1-.384-1.275v-.234c0-.083 0 .067 0 0 0-.125 0-.25.025-.366.025-.234.067-.45.117-.692.025-.05.025-.125.05-.192 0-.025.025-.1 0 0 0-.025.025-.05.025-.1l.142-.358.358-.717c.267-.458.583-.916.917-1.325a25.167 25.167 0 0 1 5.516-4.825c1.25-.858 2.517-1.608 3.817-2.375l.05-.025a.467.467 0 0 0 .167-.625c-.025-.016-.025-.041-.05-.066a.758.758 0 0 0-.867-.075Z" />
    <path fill="var(--b, white)"
      d="M81.6 96.142c0 .266-.767 4.25-.333 4.25s5.416.166 6.358-.092c.933-.267-.833-4.25-.833-4.25l-5.192.092Z" />
    <path fill="var(--c, black)"
      d="M81.025 95.958a9.462 9.462 0 0 1-.192 1.25c-.091.667-.216 1.334-.258 2.009-.05.483-.125 1.108.283 1.441.217.167.5.25.767.217h.558c1.459.025 2.9.075 4.367.025.45-.025 1 .025 1.433-.167.509-.241.434-.933.367-1.391-.25-1.15-.6-2.25-1.108-3.309a.783.783 0 0 0-.75-.416l-4.5.083h-.65c-.192 0-.334.167-.334.35 0 .05.017.125.042.167a.845.845 0 0 0 .75.433l4.5-.067h.658l-.75-.416c.367.775.65 1.583.892 2.408a4.717 4.717 0 0 1 .192 1.033c.025.067 0-.025 0 .067v.142c0 .05-.025.191 0 .05 0 .025-.025.05-.05.1.075-.075-.025 0 .025-.025.1-.075-.05.025-.05 0s.125-.025.05 0H87.2l-.675.066c-1.325.084-2.667.05-3.983.025l-.75-.025-.642-.016H81c.217.066.433.191.625.308.025.05 0 .05.025.075s0 .025 0-.05v-.167c0-.125 0-.266.025-.383.05-.667.142-1.35.242-2.042.091-.433.166-.891.191-1.325a.692.692 0 0 0-.5-.616c-.15-.15-.558-.125-.583.166Z" />
    <path fill="var(--b, white)"
      d="M95.592 95.55s.833 3.717 1.2 3.717c.358 0 9-2.884 8.641-3.317-.358-.425-6.191-1.867-6.191-1.867l-3.65 1.459Z" />
    <path fill="var(--c, black)"
      d="M95.108 95.233c.192.842.384 1.667.65 2.475.1.434.267.842.459 1.225.191.317.666.817 1.1.75.7-.166 1.366-.366 2.016-.633 1.084-.358 2.134-.717 3.192-1.1.917-.333 1.833-.667 2.717-1.083.233-.067.45-.192.625-.359.233-.283-.484-.716-.675-.816-.767-.459-1.75-.667-2.617-.917a118.367 118.367 0 0 0-3.717-.975c-.216-.025-.533.167-.725.233l-2.808 1.109-.217.091c-.091.05.367.459.384.484.125.1.391.333.558.266l3.642-1.441H99.6c1.275.308 2.517.65 3.767 1.008l1.225.358.475.167.366.15c.05.025.067.042.117.042-.117-.042-.067-.042-.025-.017-.192-.15-.333-.333-.525-.483-.075-.05.025-.075-.075 0a1.917 1.917 0 0 1-.433.266c-1.367.692-2.85 1.167-4.292 1.675-.767.267-1.533.534-2.333.792-.45.142-.934.317-1.384.433-.05 0-.083 0-.125.025l.75.525.017.025a.192.192 0 0 1-.042-.091c0-.025-.05-.125-.083-.192-.167-.433-.283-.867-.4-1.3a25.761 25.761 0 0 1-.5-1.992c-.05-.216-.367-.408-.533-.525-.075-.075-.5-.333-.459-.166Z" />
    <path fill="var(--c, black)"
      d="M81.192 57.7 79.75 97.225l10.083-.167.484-25.275 4.166 25.134 8.959-3.534-7.684-37.125L81.192 57.7Z" />
    <path fill="var(--c, black)"
      d="M80.642 57.533 80.5 61.45l-.333 9.425-.417 11.4-.358 9.867c-.042 1.608-.142 3.191-.167 4.8v.066c-.025.417.417.667.792.65l8.858-.141 1.225-.025a.333.333 0 0 0 .333-.292l.05-2.517.117-6.025.142-7.291.125-6.317.05-2.083c0-.334.05-.675.025-.992v-.042l-1.109-.25.417 2.5.975 6 1.2 7.225 1.033 6.267c.167 1 .284 2.042.5 3.075v.042c.1.383.5.625.892.5h.025l7.85-3.084 1.1-.433c.142-.05.242-.217.217-.392l-.767-3.666-1.825-8.859-2.208-10.725-1.917-9.266c-.317-1.509-.583-3.025-.942-4.509l-.016-.083c-.1-.333-.434-.567-.775-.517l-4.917.475L82.85 57l-1.8.167c-.192 0-.333.166-.333.366 0 .042.025.092.041.142.15.267.434.433.75.408l4.917-.483 7.825-.767 1.8-.166-.767-.525.767 3.691 1.825 8.859 2.208 10.725L102 88.683l.625 3.075c.075.475.167.959.292 1.434 0 .025 0 .05.025.075l.208-.384-7.842 3.1-1.108.425.917.5-.417-2.491-.975-6-1.2-7.225-1.033-6.259c-.167-1.008-.292-2.041-.5-3.075v-.05a.725.725 0 0 0-.584-.525c-.191-.05-.55 0-.55.267l-.05 2.517-.116 6.025-.142 7.291-.125 6.317-.05 2.083c-.025.334-.042.65-.025.992v.042l.333-.284-8.85.134-1.225.025.792.65.15-3.942.333-9.425.409-11.425.358-9.867c.05-1.608.142-3.216.167-4.8v-.075a.667.667 0 0 0-.5-.625c-.25.025-.667.025-.667.334Z" />
    <path fill="var(--b, white)"
      d="M97.942 19.783c-.234-1.108-3.934-.333-4.317-2.358-.383-2.017-.142-3.192.833-3.042.509.092.892.475.967.984.242 1.416 1.342 2.333 2.708.816 1.134-1.225 0-2.858-1.025-2.641-.941.191-2.233-.5-1.466-1.559 1.1-1.491 3-.7 3-.7 2.058-1.083 2.758.867 2.758.867-.1-.942 1.008-3.075 2.017-2.375 1 .692-.384 6.233-.292 7.892 0 0 6.583 20.333-8.5 25.516l-4.7-6.291c-.017.025 10.683-4.917 8.017-17.109Z" />
    <path fill="var(--c, black)"
      d="M98.4 20.042c-.092-.434-.55-.767-.917-.984a3.75 3.75 0 0 0-1.025-.358c-.383-.075-.791-.142-1.175-.242l-.583-.141a1.727 1.727 0 0 1-.45-.217c-.025 0 .117.05 0 0l.05.05c-.05-.05-.05-.05 0 0 0 0-.025-.025-.05-.083a1.386 1.386 0 0 1-.167-.642 5.833 5.833 0 0 1-.075-1.825c.05-.333.192-.717.55-.817.075-.016.167-.016.25-.016l.117.016.067.025c.1.05.05 0-.117-.116 0 .025.117.283.142.333.025.167.05.317.125.458.283.959 1.383 2.209 2.516 1.825a2.4 2.4 0 0 0 1.392-1.341 1.855 1.855 0 0 0-.167-1.542c-.333-.575-.841-1-1.441-1.25-.484-.167-.984.05-1.467-.117-.092-.025-.217-.116-.025.025.125.092.025.025 0-.1 0-.283.125-.575.333-.766a2.166 2.166 0 0 1 1.442-.717c.392-.025.8.025 1.183.142-.1-.025 0 0 .025.025.067.05.167.05.234.025a3.417 3.417 0 0 1 .966-.292c.209-.025.425 0 .617.1.15.067-.067-.025.075.05-.117-.05.075.042-.05-.05.125.092-.092-.075.025.025.125.092-.05-.075.025.025.1.117.167.233.217.383.116.234.283.434.5.55.05.025.433.242.416.05a2.783 2.783 0 0 1 1.05-2.258.734.734 0 0 1 .459-.167c.116 0 .166.067.05-.025l-.25-.216c-.067-.075 0 0-.017-.025.075.241.117.483.142.75.025.858-.025 1.7-.167 2.541-.117.917-.267 1.825-.383 2.734-.05.358-.1.716-.117 1.083-.025.167-.025.358.017.525.025.117.083.217.1.333a34.1 34.1 0 0 1 1.3 9c.016 2.975-.392 6.025-1.634 8.742a13.575 13.575 0 0 1-6.866 6.767c-.459.191-.917.383-1.367.525l.75.5-4.133-5.492-.625-.767.075.334A14.192 14.192 0 0 0 93.867 35a15.067 15.067 0 0 0 4.658-7.75c.475-2.333.45-4.758-.1-7.067a1.133 1.133 0 0 0-.483-.575c-.017-.025-.5-.283-.475-.091.816 3.766.475 7.725-1.534 11.058a16.425 16.425 0 0 1-6.1 5.833l-.266.15c-.025 0-.025.017-.042.017-.15.083 0 .267.067.333l4.133 5.5.6.792c.092.15.525.583.742.5a14.817 14.817 0 0 0 4.866-2.733 13.774 13.774 0 0 0 3.084-3.809c1.458-2.766 2.008-5.908 2.058-9a33.637 33.637 0 0 0-.792-7.583 25.353 25.353 0 0 0-.533-2.117c-.042-.141-.092-.266-.117-.408v-.025c.025.075 0 0 .025-.05v-.233c.025-.367.05-.725.092-1.084l.392-2.833c.141-.867.183-1.725.166-2.583a1.983 1.983 0 0 0-1.225-1.834c-.916-.383-1.566.584-1.85 1.3-.166.384-.266.792-.241 1.2l.941.6a3.1 3.1 0 0 0-1.033-1.325c-.333-.283-.767-.5-1.2-.55a2.45 2.45 0 0 0-1.467.334l.217.025c-.5-.217-1.083-.284-1.633-.234-.792.092-1.992.792-1.8 1.75.125.525.625.959 1.058 1.2a2.23 2.23 0 0 0 1.367.309c.166-.025.333-.025.525 0 .075 0 .075.05.025-.025a1.417 1.417 0 0 1-.05 1.608c-.284.433-.809.917-1.367.967a.5.5 0 0 1-.258 0c-.05 0-.1-.084-.075-.025-.167-.417.1.091.1.091s-.05-.075-.084-.091a1.458 1.458 0 0 1-.166-.334c-.084-.25-.117-.483-.167-.7a1.974 1.974 0 0 0-.5-.791c-.383-.384-.917-.767-1.492-.725-.791.05-.883 1.033-.858 1.633 0 .958.117 1.967.817 2.667.666.666 1.558.958 2.45 1.125.358.075.741.125 1.1.216l.216.075s.217.067.092.05c.025 0 .05.017.075.042a.525.525 0 0 1-.192-.167c-.116-.116-.116-.191-.091-.05.066.25.375.484.575.584.066 0 .333.116.283-.125Z" />
    <path fill="var(--c, black)"
      d="M101 13.733s.067.117.042.05a.054.054 0 0 0-.05-.05 21.833 21.833 0 0 1-.067-.216c-.083-.192-.15-.384-.25-.584a4.75 4.75 0 0 0-.883-1.383 2.183 2.183 0 0 0-.884-.583.833.833 0 0 0-.816.15c-.167.216 0 .408.216.5.025 0 .042.025.067.025s-.092-.042-.042-.025l.042.025.15.1.017.025-.042-.025.067.075c.025.016.1.091.15.116a2.525 2.525 0 0 1 .233.284c.025.025.05.05.05.1s.075.116.1.166c.217.417.408.817.575 1.25.05.142.117.267.192.409a.653.653 0 0 0 .358.166c.142.025.317 0 .458-.05.334-.091.475-.283.309-.525Zm1.292-.216L102 12.458l-.042-.141a.525.525 0 0 0-.216-.242 1.46 1.46 0 0 0-.417-.192c-.117-.05-.233-.05-.35-.05-.083.025-.15.05-.125.15l.292 1.05.041.15c.05.092.125.192.217.234.125.1.267.15.417.191.116.05.233.05.35.05.083-.025.15-.05.125-.141Z" />
    <path fill="var(--b, white)"
      d="M86.358 26.475s1.892 1.225 3.434.717c1.533-.5 4.333-1.917 5.133-.475.792 1.441-1.125 2.566-2.517 2.708 0 0 1.534 3.967-.533 5.742-2.058 1.775-3.358 1.458-3.05 3.141 0 0-2.133 3.692-3.333.667-.192-.45-3.117-6.117 0-9.092-.025 0 1.8-1.558.866-3.408Z" />
    <path fill="var(--c, black)"
      d="M85.9 26.833a5.594 5.594 0 0 0 1.75.725 3.77 3.77 0 0 0 1.558.092 9 9 0 0 0 1.3-.408c.834-.309 1.725-.692 2.642-.767.767-.05 1.5.358 1.433 1.225-.066.867-1.125 1.275-1.891 1.342-.242.025-.917.358-.792.666.217.584.358 1.184.45 1.784.15 1.058.167 2.283-.45 3.191-.725 1.034-2.042 1.367-2.975 2.167-.383.283-.65.717-.675 1.192-.025.125 0 .241.025.383.025.1.05.1.067 0a.802.802 0 0 1-.167.267l-.233.358c-.1.142-.217.292-.367.417a1.75 1.75 0 0 1-.383.333c.125-.1 0 0-.025 0-.142.067.125-.05-.017 0-.15.042.117-.025-.025 0h-.1c-.333-.025-.65-.333-.833-.675-.15-.267-.267-.55-.392-.817-.817-1.8-1.442-3.816-1.2-5.808.075-.625.267-1.25.583-1.8l.284-.433.116-.142c.025-.025.25-.267.125-.125l.309-.283c.916-.984 1.416-2.284.816-3.55-.141-.292-1.2.283-1.033.625.317.616.317 1.316.05 1.941-.1.242-.242.459-.383.667l-.1.125-.042.067c-.05.05-.1.125-.167.166-.083.05-.083.05-.1.084-.025.016.217-.2.05-.034-.1.075-.166.167-.25.25a4.883 4.883 0 0 0-1.266 2.584c-.384 2.083.291 4.325 1.15 6.216.291.667.608 1.559 1.416 1.684 1.009.141 1.95-.792 2.525-1.492.192-.242.359-.475.525-.75a.467.467 0 0 0 .1-.375 1.583 1.583 0 0 1 .025-.667.275.275 0 0 1 .117-.175.5.5 0 0 1 .05-.05c-.1.075.067-.041.092-.041-.092.041.025-.025.05-.025l.141-.1.384-.217c.75-.408 1.441-.917 2.083-1.458 1.642-1.5 1.35-4.009.7-5.909-.017-.05-.017-.1-.042-.141l-.791.666a4.758 4.758 0 0 0 3-1.508c.333-.358.525-.833.475-1.317a1.333 1.333 0 0 0-.667-1.033c-.817-.458-1.975-.125-2.783.142a31.64 31.64 0 0 0-1.492.525 4.549 4.549 0 0 1-1.367.366 4.983 4.983 0 0 1-2.525-.816c-.233-.25-1.166.45-.858.666Z" />
    <path fill="var(--c, black)"
      d="M83.142 36.167s-1.659 1.583-2.55.7c-.884-.884.483-1.292.483-1.292s-2.617-1.35-.867-2.808c0 0-2.516-.725-2.058-2.959.45-2.225 3.55-2.666 3.55-2.666s-1.342-2.275.817-3.084c2.166-.825 2.45.859 2.45.859s1.366-.525 1.841.241c.484.767-.308 1.634-.308 1.634s.917 2.5-1.033 3.116l-.092 3.817a2.525 2.525 0 0 1 1.125 2.158c-.05 1.417-2.642 1.825-3.358.292Z" />
    <path fill="var(--c, black)"
      d="M82.633 35.833c-.458.434-1.108.917-1.775.959-.1 0-.191 0-.266-.025-.167 0 .408.416.308.191l-.092-.166a.5.5 0 0 1 .117-.475 1.54 1.54 0 0 1 .6-.384c.167-.05-.575-.583-.65-.625l-.092-.05c.192.092-.166-.116-.025-.025l-.075-.05c-.041-.041.1.075 0 0l-.066-.041c.025.016.05.016 0 0-.1-.084-.167-.15-.242-.25-.483-.617-.242-1.292.333-1.767.125-.125-.766-.675-.883-.7l-.075-.025-.075-.025h.025l-.067-.025c-.075-.017-.216-.092-.216-.092l-.125-.075c-.067-.041.075.05 0 0l-.092-.066c.025.025.067.041.025 0-.05-.05-.025-.025 0 0l-.075-.075a2.19 2.19 0 0 1-.242-.309c-.166-.266-.258-.583-.308-.916-.142-1.534 1.175-2.584 2.5-3.05a8.53 8.53 0 0 1 1.075-.284c.075 0 .025-.075 0-.125l-.075-.141a2.858 2.858 0 0 1-.192-.475 2.25 2.25 0 0 1-.041-1.325c.208-.625.791-.959 1.391-1.15a2.583 2.583 0 0 1 .959-.125l.308.083-.142-.1c-.05-.025-.1-.075-.125-.1-.016-.05-.016-.025 0 0 .025.05.15.217.2.333.025.075.042.125.042.192.025.167.358.367.483.458.117.1.334.267.484.192.166-.05.308-.092.475-.117.266-.05.533-.05.816 0-.383-.358-.525-.433-.358-.216.025.05.05.075.05.116.025.1.042.192.042.292 0 .192-.042.383-.117.55a1.583 1.583 0 0 1-.358.55v.05c.408 1.125.283 2.617-.984 3.075H85l-.1 3.55v.217c.025.191.217.308.367.433l.208.142c-.208-.142-.117-.075-.067-.05l-.075-.05c-.091-.092.1.083 0 0l.075.05.117.15c.533.641.767 1.775.05 2.375a2.136 2.136 0 0 1-1.25.408c-.192-.025-.408-.05-.6-.1-.192-.025.142.025.1.1 0 0-.192-.267-.192-.292a1.558 1.558 0 0 0-.558-.483c-.042-.017-.475-.233-.425-.117a3.25 3.25 0 0 0 1.65 1.442 2.224 2.224 0 0 0 1.633.092 1.442 1.442 0 0 0 1.034-.959c.166-.625-.1-1.316-.459-1.825a4.566 4.566 0 0 0-1.2-1.1l.559.525.041-2.016.025-1.317v-.383c.025-.15.125-.125.267-.192.917-.433 1.058-1.492.917-2.4-.034-.15-.05-.292-.1-.433a21.833 21.833 0 0 0-.075-.217c-.025.075.075-.05.075-.075l.166-.258c.167-.267.242-.584.192-.892a1.491 1.491 0 0 0-.65-.958 2.367 2.367 0 0 0-1.1-.525 2.667 2.667 0 0 0-1.225.166l.983.642a1.5 1.5 0 0 0-.333-.667 2.833 2.833 0 0 0-1.85-1.033 2.725 2.725 0 0 0-2.117.767 1.8 1.8 0 0 0-.333 1.583c.075.358.217.725.408 1.058v-.116a4.967 4.967 0 0 0-2.925 1.416c-.583.592-.816 1.459-.675 2.275.167.817.817 1.417 1.492 1.875.45.334.958.575 1.483.742l-.866-.7c-.359.317-.617.7-.6 1.183.05.384.25.742.5 1a5.612 5.612 0 0 0 1.641 1.25l-.65-.625c-.291.1-.666.267-.791.584-.267.641.791 1.316 1.25 1.533.916.433 1.866-.192 2.516-.817.142 0-.75-.791-.916-.625Z" />
    <path fill="var(--b, white)" d="M86.017 30.167s-1.134-1.417-2.084-.475c-.966.933.567 4.7 2.517 3.475" />
    <path fill="var(--c, black)"
      d="M86.55 30.1a2.933 2.933 0 0 0-1.542-1.033c-.766-.217-1.675.125-1.916.933a2.72 2.72 0 0 0 .166 1.708 3.75 3.75 0 0 0 1.2 1.659c.717.525 1.684.55 2.45.091.242-.141.067-.433-.1-.55a.808.808 0 0 0-.833-.025l-.1.05c.1-.05 0 0-.025 0l-.192.067c-.1.05.117-.017 0 0l-.05.025s-.091.025-.091 0h.041-.041c-.1 0-.05-.042.041 0-.016 0-.041-.025-.091-.025h-.05c-.117-.017.141.05.05 0l-.075-.017c-.117-.05.025 0 .025.017l-.167-.092s-.075-.05-.05-.05.1.1 0 0c-.042-.05-.092-.066-.142-.116-.05-.05-.075-.1-.116-.125-.075-.092-.05-.017 0 0-.025-.017-.05-.067-.075-.092a3.6 3.6 0 0 1-.359-.667l-.025-.1-.075-.191c-.05-.125-.066-.267-.091-.384-.025-.125-.05-.25-.05-.333v-.292c0-.1.025-.191.05-.291 0-.05.066-.167.025-.075l.066-.117a.317.317 0 0 1 .075-.092c-.075.067.05-.025.05-.05s.042-.05.092-.075.1-.05.025-.025c.025-.025.075-.025.117-.041-.117.041-.017 0 .025 0 .1-.025-.117 0 .025 0s-.142-.025-.025 0c.075.016.1.041 0 0 .025.016.075.016.1.041l.066.025c.05.025.05.025-.016-.025 0 .05.166.1.208.125l.05.042c.075.05-.092-.067.025.025.1.075.167.15.267.25.05.042.191.233.05.042a.78.78 0 0 0 .766.283c.142-.067.434-.283.242-.5Zm3.45.983c.192.242.408.434.65.625.475.384 1.025.6 1.625.65.367 0 .725-.075 1.033-.266.217-.117-.116-.409-.216-.459a.917.917 0 0 0-.409-.191.358.358 0 0 0-.308 0c-.075.05-.167.075-.242.125a.45.45 0 0 1-.166.05c-.075.016-.142.016-.217.016h-.083c.091.025 0 0-.025 0h-.1c-.142-.016.075.025 0 0l-.067-.016c-.15-.05.092.041 0 0l-.083-.025c-.134-.05.125.041.033.025-.1-.025-.1-.05-.142-.1.209.116.017.025-.025-.025l-.075-.05c-.05-.017.117.1.05.025l-.191-.167c-.075-.05.091.125.025.025l-.025-.025-.05-.05-.05-.042a1.275 1.275 0 0 0-.75-.416c-.067 0-.184-.017-.234.083-.05.083.025.167.05.208Zm-1.658-2.566c.166-.025.316.066.358.208v.05c.025.317-.383.358-.475.075-.075-.125-.05-.267.067-.333 0 .016.025.016.05 0Z" />
    <path fill="var(--b, white)"
      d="M80.167 61.008s16.65-1.291 17.133-2.783c.475-1.492-4.567-23.233-11.258-21.767-6.7 1.467-5.884 24.55-5.884 24.55Z" />
    <path fill="var(--c, black)"
      d="M80.475 61.492c1.775-.15 3.55-.317 5.3-.5 3-.317 6-.634 8.95-1.234.55-.091 1.083-.233 1.608-.383.367-.092.725-.217 1.034-.408.458-.259.358-.742.333-1.2a20.536 20.536 0 0 0-.45-2.734 57 57 0 0 0-1.008-3.983 47.483 47.483 0 0 0-3.334-8.808 19.583 19.583 0 0 0-2.308-3.667 8.117 8.117 0 0 0-2.758-2.358 3.333 3.333 0 0 0-2.717-.075 4.733 4.733 0 0 0-2.083 1.975c-1.467 2.3-2.042 5.133-2.45 7.8a69.7 69.7 0 0 0-.792 8.916 81.533 81.533 0 0 0-.05 5.525v.267c.05.292.217.525.433.7.1.092.359.258.359 0a87.617 87.617 0 0 1 .483-12.117c.333-2.833.792-5.766 1.867-8.408.7-1.725 1.95-3.883 4.058-3.933.433 0 .867.066 1.25.241.217.067.408.192.6.309.092.075.217.141.308.216l.125.092c-.075-.042.092.083.117.1l.292.267c.025.025.05.041.066.041-.041-.041.1.1 0 0l.167.167c.1.1.2.2.267.317.025.025.191.216.075.1l.141.191c.192.234.384.5.55.767l.1.117c.05.075.092.125.117.191l.292.459c.383.625.65 1.125.983 1.825.333.691.65 1.366.933 2.058.6 1.417 1.109 2.883 1.584 4.35a51.828 51.828 0 0 1 1.85 7.392c.05.358.116.716.141 1.1l.025.383v.075c0 .05 0 .075-.025.117l-.025.1c.025-.05-.016.05-.066.075-.1.066-.192.141-.317.191-.333.167-.717.284-1.083.384-1.217.308-2.442.55-3.692.716a94.415 94.415 0 0 1-4.583.6c-2.3.267-4.609.484-6.934.667l-.358.033c-.25.017.308 1 .625.984Z" />
    <path fill="var(--b, white)" d="M92.117 46.183s10.2-3.291 12.241-11.616l-8.016-5.184s-5.334 7.7-9.892 7.7" />
    <path fill="var(--c, black)"
      d="M92.217 46.617a19.917 19.917 0 0 0 3.791-1.709c2.492-1.366 4.817-3.141 6.55-5.416a13.533 13.533 0 0 0 2.4-4.95c.025-.117-.05-.242-.141-.309L97.8 29.692l-1-.667a.708.708 0 0 0-.942.142 25.775 25.775 0 0 1-2.016 2.516 19.042 19.042 0 0 1-4.609 4.059c-.45.266-.916.483-1.416.65.125-.025-.092.025-.092.025l-.242.066-.358.075-.167.025c.092-.025-.05 0-.075 0-.141 0-.266.025-.408.025-.258 0-.625.167-.65.45-.017.292.292.434.533.434 2.134-.025 4.1-1.317 5.667-2.667a28.083 28.083 0 0 0 4.75-5.275l-.942.117 7.009 4.541 1.008.642-.142-.308c-.716 2.925-2.591 5.4-4.875 7.291-.525.434-1.05.842-1.625 1.2-.266.2-.533.367-.816.534-.292.166-.459.283-.675.408a26.75 26.75 0 0 1-2.642 1.292c-.308.125-.625.266-.933.366l-.267.092c-.067.025.192-.075.05-.025-.242.075-.55.267-.483.55.075.292.458.367.7.292l.075.075Zm-17.434 4.65a25.007 25.007 0 0 0 5.617-1.1c.217-.075.433-.25.267-.484a.808.808 0 0 0-.792-.241 24.714 24.714 0 0 1-5.308 1.083c-.217.025-.525.117-.484.383.05.267.484.359.7.359Z" />
    <path fill="var(--a, blue)"
      d="m24.958 70.8 2.584 34.8s-1.359.475-1.267.792c.1.308.217 1.341.75 2.058.525.725 11.667 3.1 21.833 1.2 10.175-1.892 11.45-3.717 11.45-4.2 0-.475.5-2.708 0-3.45-.5-.75-.766-.792-.766-.792s2.3-28.833 1.7-32.016c0 0 1.033-.6 1.033-1.275a61.667 61.667 0 0 0-.5-4.942c-.15-.767-14.717-4.467-26.858-2.4-12.142 2.058-12.075 5.617-12.075 5.9 0 .292.483 2.958.483 3.25 0 .283 1.633 1.075 1.633 1.075Z" />
    <path fill="var(--a, blue)"
      d="m24.642 70.317.216 2.908.534 7.15.666 9.05.65 8.617.434 5.85.05.775c.025.141.025.258.025.408v.042c.016-.042-.2.05-.217.05l-.5.216c-.25.117-.583.267-.533.584.066.4.166.808.308 1.191.192.65.533 1.25.958 1.75.075.1.167.15.292.192.408.2.833.333 1.275.433 1.675.434 3.358.725 5.083.917a51.5 51.5 0 0 0 15.725-.383 54.508 54.508 0 0 0 6.767-1.667 15.25 15.25 0 0 0 3.217-1.358c.358-.217.816-.534.983-.942.067-.283.117-.575.117-.858.125-.842.291-1.8.025-2.592a4.642 4.642 0 0 0-.984-1.567 1.189 1.189 0 0 0-.5-.383l.617 1.008.292-3.791.65-8.85c.233-3.367.45-6.75.625-10.109.141-2.541.283-5.083.233-7.658 0-.358 0-.717-.025-1.083 0-.117-.017-.234-.042-.375v-.125c.042-.092.284-.192.384-.259.308-.266.625-.6.65-1.033a52.858 52.858 0 0 0-.334-3.6c-.058-.358-.1-.75-.15-1.108a2.367 2.367 0 0 0-.525-1.1 1.5 1.5 0 0 0-.75-.459 21.958 21.958 0 0 0-3.716-1.058 67.583 67.583 0 0 0-13.9-1.583 50.083 50.083 0 0 0-8.034.5 39.033 39.033 0 0 0-7.391 1.783 13.967 13.967 0 0 0-3.775 1.917 4.283 4.283 0 0 0-1.334 1.583 1.873 1.873 0 0 0-.175.817c.075.75.192 1.466.334 2.183l.15.942c.091.45.308.858.641 1.2.417.433 1.059.691 1.584.933.1.05-.117-.383-.142-.408-.092-.167-.242-.525-.433-.6-.284-.117-.55-.267-.817-.409a5.408 5.408 0 0 1-.5-.308l-.192-.15c.025 0 .459.842.475.792V70.2c-.041-.817-.233-1.658-.383-2.45-.067-.475-.142-.858.025-1.317.317-.666.792-1.275 1.392-1.708 1.25-.983 2.758-1.583 4.25-2.083a42.333 42.333 0 0 1 8.233-1.775 53.644 53.644 0 0 1 8.808-.267 67.2 67.2 0 0 1 7.967.817c1.942.283 3.892.691 5.783 1.225.55.141 1.125.333 1.659.525.141.05.308.125.45.216.025.025.05.025.083.05.017.025.042 0 .017 0a1.958 1.958 0 0 1-.292-.483c-.45-.817-.233-.525-.208-.358l.016.216a54.617 54.617 0 0 1 .459 4.175c.025.384.05.7-.167 1.034-.217.283-.5.525-.817.716v.025c.075.534.117 1.084.1 1.634a209.458 209.458 0 0 1-.433 10.558c-.167 2.95-.358 5.908-.583 8.858-.167 2.475-.359 4.917-.525 7.392a81 81 0 0 1-.284 3.525v.05c-.025.167.217.458.284.6.075.142.191.383.333.408.15.025.333.242.433.359.1.125.167.266-.041-.092-.217-.358-.1-.217-.1-.125 0 .1.025.15.05.192.025.191.05.416.025.6 0 .725-.15 1.416-.217 2.116a.948.948 0 0 1-.317.692c-.425.417-.933.725-1.458.967a24.97 24.97 0 0 1-3.358 1.25 52.525 52.525 0 0 1-13.084 2.158 54.06 54.06 0 0 1-11.641-.892 14.725 14.725 0 0 1-3.025-.766c-.092-.05-.192-.125-.309-.142-.025 0-.025-.025-.05-.025s.025.042.025.025c0-.083.242.475.167.233-.075-.233-.167-.433-.217-.65-.05-.166-.066-.333-.116-.5-.025-.1-.075-.216-.05-.308.1-.217.5-.367.7-.458.191-.1.358-.142.525-.217v-.025l-.242-3.458-.625-8.3-.75-10.034-.642-8.708-.216-2.858c-.025-.459-.05-.917-.092-1.342v-.05a1.93 1.93 0 0 0-.333-.667c.066-.166-.2-.508-.2-.441Z" />
    <path fill="var(--c, black)"
      d="M24.958 66.333s7.917 2.692 21.434 1.567c13.508-1.133 13.941-3.383 13.725-4.75-.217-1.375-13.225-3.775-22.2-2.142-8.975 1.634-15.767 3.625-12.959 5.334Z" />
    <path fill="var(--b, white)"
      d="M27.592 106.275a72.85 72.85 0 0 0 12.1 1.367 48.417 48.417 0 0 0 10.033-.625 23.25 23.25 0 0 0 6.5-2.134 13.667 13.667 0 0 0 2.233-1.441 3.1 3.1 0 0 0 .959-1.134c.05-.091-.384.1-.409.125-.166.067-.525.217-.625.409-.166.333-.425.65-.716.883-.192.167-.409.333-.625.5-.217.15-.434.275-.65.392a.75.75 0 0 1-.234.116c.117-.066-.025.025-.05.025l-.15.075-.091.05c-.167.067.091-.05-.075.042l-.334.15a27.217 27.217 0 0 1-4.775 1.367c-3.166.6-6.433.716-9.666.625a75.817 75.817 0 0 1-8.409-.7c-1.341-.192-2.708-.384-4.033-.692-.192-.05-.525.208-.667.283-.05.05-.416.292-.316.317ZM25.25 71.3c1.267.367 2.583.65 3.883.917a78.167 78.167 0 0 0 9.725 1.316c3.984.317 7.992.217 11.95-.308a34.376 34.376 0 0 0 7.609-1.9 18.14 18.14 0 0 0 1.966-.883 3.64 3.64 0 0 0 .817-.484l.025-.025c.242-.166-.458-1.15-.667-.983-.7.458-1.45.842-2.241 1.15a32.167 32.167 0 0 1-6.984 1.975c-3.866.6-7.775.792-11.666.575a73.367 73.367 0 0 1-13.434-1.9c-.5-.117-1.008-.283-1.516-.383l-.067-.025c-.217-.05.017.458.042.483.125.192.316.383.558.475Z" />
    <path fill="var(--c, black)"
      d="M28.317 74.283c0 1.05.066 2.084.091 3.117l.25 6.55c.084 2.592.209 5.183.309 7.8.091 2.283.191 4.583.258 6.867.05 1.225.1 2.45.125 3.666v.125c0 .267.283.484.5.584.117.041.55.208.55-.059 0-1.025-.067-2.083-.092-3.116a573.46 573.46 0 0 0-.266-6.55 813.107 813.107 0 0 0-.309-7.8c-.1-2.284-.166-4.584-.266-6.867a187.583 187.583 0 0 1-.117-3.667v-.125c0-.266-.292-.483-.5-.583-.1-.067-.558-.208-.533.058Zm7.491.784c0 1.008 0 2 .025 3l.05 6.458.042 7.7c.025 2.233.025 4.492.05 6.725 0 1.175-.025 2.375.025 3.55v.117c0 .416 1 1.033 1 .433 0-1 0-1.992-.017-3 0-2.158-.025-4.292-.025-6.45l-.05-7.708c0-2.234-.025-4.484-.041-6.717 0-1.175.016-2.375-.025-3.558V75.5c-.025-.408-1.034-1-1.034-.433Zm6.425.583v26.5c0 .4-.016.833 0 1.242v.116c0 .292 1.2.25 1.2-.091V76.892c0-.4.025-.834 0-1.25v-.117c0-.258-1.2-.217-1.2.125Zm6.767 0v26.758c0 .292 1.083-.116 1.083-.433V75.25c0-.308-1.083.1-1.083.408Zm6.333-1.2v27.067c0 .125 1.209.05 1.209-.142V74.3c0-.117-1.2-.042-1.2.15Z" />
    <path fill="var(--a, blue)"
      d="M22.033 90.7s-7.441 7.342-7.441 9.667c0 2.333.916 7.75 2.708 8.166 1.8.409 8.742.409 13.633-5.333 4.9-5.733 8.209-18.525 6.917-22.333-1.3-3.825-6.025-4.45-6.025-4.45s-7.392 3.125-8.283 5.958c-.892 2.833-1.509 8.325-1.509 8.325Z" />
    <path fill="var(--a, blue)"
      d="M21.6 90.267a72.75 72.75 0 0 0-4.375 4.7 21.192 21.192 0 0 0-2.542 3.483 3.9 3.9 0 0 0-.525 1.317c-.1.625.025 1.325.092 1.941.192 1.709.533 3.484 1.25 5.042.317.75.817 1.392 1.442 1.875.408.267.883.408 1.366.433a15.833 15.833 0 0 0 13.634-6.141 27.233 27.233 0 0 0 2.783-4.709 42.975 42.975 0 0 0 3.5-10.916c.292-1.467.417-2.959.392-4.442a7.025 7.025 0 0 0-.25-1.583 6.433 6.433 0 0 0-1.292-2.309 9.542 9.542 0 0 0-5.3-2.95.608.608 0 0 0-.458.05 34.85 34.85 0 0 0-3 1.484c-1.417.766-2.834 1.633-3.984 2.758a4.717 4.717 0 0 0-1.125 1.542c-.291.816-.5 1.633-.65 2.5-.333 1.666-.6 3.4-.816 5.108-.05.308-.075.625-.117.917-.025.233.258.475.425.616.075.05.458.334.483.117.117-1.05.267-2.083.409-3.117.266-1.75.525-3.55 1.1-5.233.216-.55.583-1.05 1.008-1.458a13.416 13.416 0 0 1 1.775-1.442 30.71 30.71 0 0 1 3.942-2.258c.408-.217.833-.409 1.266-.6.1-.05.15-.025.217-.092.05-.025-.092 0-.042 0h.092c.983.167 1.917.5 2.808.983.292.142.55.334.817.525a4.5 4.5 0 0 1 1.658 2.542c.284 1.15.192 2.425.067 3.6a39.708 39.708 0 0 1-2.667 10.367c-1.333 3.416-3.083 6.891-5.833 9.391a15.792 15.792 0 0 1-11.325 3.984c-.192-.025-.358-.025-.55-.084l-.242-.041-.091-.025c-.025-.025-.025-.05-.05-.067.05.025.025 0-.025-.025-.042-.025.075.05.025 0s.05.067-.05-.05a5.825 5.825 0 0 0-.067-.075l-.125-.167a5 5 0 0 1-.45-.958 20.733 20.733 0 0 1-1.033-4.875c-.05-.5-.125-1.083.025-1.583.141-.475.383-.934.641-1.342.367-.583.75-1.125 1.184-1.658a64.508 64.508 0 0 1 5.158-5.809l.333-.333c.142-.292-.716-1.125-.916-.933Z" />
    <path fill="var(--c, black)"
      d="M15.75 106.2c.95.333 2.058.333 3.042.217a13.55 13.55 0 0 0 7.1-3.15 23.15 23.15 0 0 0 4.083-4.434 37 37 0 0 0 3.525-6.025c1.417-3.05 2.475-6.433 2.333-9.841-.1-2.167-.725-4.509-2.4-6-.166-.142-.333-.292-.533-.409a.792.792 0 0 0-.767.025c-.091.05-.5.334-.283.484 1.7 1.15 2.5 3.166 2.733 5.133.409 3.05-.358 6.217-1.491 9.025a34.633 34.633 0 0 1-2.875 5.642 28.517 28.517 0 0 1-3.917 5.058 15.15 15.15 0 0 1-3.6 2.692c-.5.258-1.033.5-1.583.666-.117.05-.242.075-.359.125l-.166.05h-.05l-.075.017c-.234.05-.475.125-.717.15l-.308.05-.167.017h.017-.067c-.192.025-.417.025-.6.05-.192.025-.367 0-.558 0h-.117c-.1 0 .1 0 0 0l-.242-.025c-.241-.025-.475-.042-.716-.092l-.217-.05c-.075-.025.092.025.025 0l-.075-.025-.05-.025a.917.917 0 0 0-.817.167c-.166.15-.383.416-.116.5Z" />
    <path fill="var(--c, black)"
      d="M23.108 96.192A25.409 25.409 0 0 1 21 93.958c-.458-.5-.833-1.083-1.15-1.675a2.442 2.442 0 0 1-.167-1.366 12.721 12.721 0 0 1 1.367-4.184c.283-.616.692-1.2 1.2-1.7.5-.458 1.125-.55 1.775-.6 1.25-.05 2.5.075 3.717.334.291.05.55.075.841.05.192 0 .242-.05 0-.092a25.817 25.817 0 0 0-4.083-.458 8.507 8.507 0 0 0-2.608.191c-.584.167-1.034.625-1.4 1.1A12.517 12.517 0 0 0 18.625 90c-.125.5-.267 1.083-.167 1.608.092.6.525 1.175.917 1.684.783 1 1.65 1.966 2.583 2.833.142.117.55.092.75.092.042.025.475.025.4-.025Z" />
    <path fill="var(--b, white)"
      d="M17.083 108.742c.584.191 1.15.316 1.75.333 1.375.125 2.767 0 4.084-.333 3.833-.984 7.225-3.625 9.55-6.767a35.333 35.333 0 0 0 4.775-9.267c1.083-3.025 1.95-6.308 1.9-9.55-.025-2.233-.584-4.8-2.909-5.691a4.882 4.882 0 0 0-.816-.217c-.167-.017-.6-.067-.642.167-.05.25.383.366.525.391.075 0 .117.025.192.025.141.017-.092-.05.075.017l.141.05.075.025c-.125-.05.117.05 0 0l.284.142.075.05c.075.05.091.075.141.1.167.116.317.233.434.408.141.167.266.333.383.525.55.958.75 2.083.817 3.167.191 3.05-.55 6.166-1.492 9.05a37.24 37.24 0 0 1-4.367 9.216c-2.108 3.142-5.016 5.834-8.583 7.2a10.883 10.883 0 0 1-3.267.75l-.458.017h-.358c-.25 0-.5-.025-.75-.05l-.142-.025c-.167-.017.025 0-.05 0l-.283-.042c-.15-.025-.317-.05-.459-.1-.141-.05.142.05 0 0l-.116-.05-.1-.025c-.192-.066-.625-.141-.767.05-.142.192.242.384.358.434Z" />
    <path fill="var(--c, black)"
      d="M22.725 92.333c.283.142.6.334.883.5l.05.025c.025 0 .075.05 0 0l.05.025.192.142c.142.1.267.217.408.308a.417.417 0 0 0 .359.125.425.425 0 0 0 .291-.216.75.75 0 0 0-.216-.817 11.51 11.51 0 0 0-1.85-1.2.355.355 0 0 0-.5.117c-.025.05-.05.1-.05.166a.833.833 0 0 0 .383.817Z" />
    <path fill="var(--c, black)"
      d="M22.967 91.292h2.4a.505.505 0 0 0 .408-.117.458.458 0 0 0 .192-.358.617.617 0 0 0-.584-.6h-2.4a.6.6 0 0 0-.425.116c-.125.1-.191.217-.191.359a.626.626 0 0 0 .6.6Z" />
    <path fill="var(--a, blue)"
      d="M84.625 18.433c-3.075-.316-6.242-.6-9.267.067a11.65 11.65 0 0 0-4.175 1.75c-1.366.967-2.5 2.258-3.6 3.5a93.042 93.042 0 0 0-3.891 4.758c-.309.417.625 1.15.941.75a96.226 96.226 0 0 1 3.359-4.158c1.083-1.25 2.166-2.567 3.458-3.6 2.375-1.892 5.417-2.45 8.4-2.45 1.7.025 3.408.125 5.108.317a.32.32 0 0 0 .359-.217.25.25 0 0 0-.017-.192.817.817 0 0 0-.675-.525ZM58.533 34.292c-1.941 1.175-3.666 2.666-5.475 4.058-1.65 1.267-3.45 2.5-5.516 3.042-.525.15-1.059.25-1.609.266-.5.075-1.033.025-1.533-.091a1.343 1.343 0 0 1-.967-.992c-.041-.258 0-.808.217-.933-.067.05.217-.025.267-.025.191-.025.383 0 .583.05a2.15 2.15 0 0 1 1.05.766c.55.75.717 1.734.717 2.642-.025 1.967-1.034 4.083-2.784 5.083-.091.05-.525.317-.433.459.1.15.533-.092.625-.142a7.125 7.125 0 0 0 3.583-5.133c.259-1.775-.341-4.75-2.741-4.417-.917.142-2.167.833-2.167 1.892 0 .5.267.983.7 1.225.483.291 1.108.291 1.667.291 2.558-.05 4.983-1.225 7.075-2.616 2.4-1.584 4.458-3.625 6.916-5.117.084-.042.5-.308.417-.45-.067-.15-.517.092-.592.142Zm-6.075-.334c.075-.883.6-1.675 1.084-2.375.475-.691.983-1.366 1.533-2.016a18.825 18.825 0 0 1 3.867-3.309c.241-.141-.434-1.15-.7-.983a18.942 18.942 0 0 0-5.5 5.442c-.475.725-.975 1.5-1.05 2.358.025.258.125.5.316.692.042.05.425.416.45.191Zm7.059 8.934a29.375 29.375 0 0 0 8.066-9.125c.167-.284-.775-1-.841-.834-2.017 3.575-4.775 6.667-8.067 9.117-.192.117.6 1.033.833.833Z" />
    <path fill="var(--b, white)"
      d="m33.717 57.075 1.833-2.067v-1.991s2.517-1.417 3.117-1.342c.6.067 1.416 1.292 1.416 1.292s2.225-1.942 3.525-1.825c1.292.125 2.925 2.641 2.925 2.641l.75 2.592-1.058 1.417 1.825 2-2.525 4.05-1.65-.359-4.033 1.459L36 62.95v-1.825s-2.35-3.233-2.283-4.05Z" />
    <path fill="var(--c, black)"
      d="m34.167 57.092 1.758-1.967c.1-.067.142-.167.192-.283a2.613 2.613 0 0 0 0-.625v-1.325l-.334.316c.242-.141.5-.266.767-.416l.717-.35.383-.167.125-.05.167-.075c.1-.05.216-.067.308-.117l.1-.025c-.075.025-.1.025-.05.025.125-.05.075.025.025-.025h.05-.05l.075.025c.092.067.217.142.308.217.317.283.6.6.817.958.217.309.817-.025 1.033-.191.459-.417.959-.75 1.467-1.059a3.225 3.225 0 0 1 1.025-.433.792.792 0 0 1 .333 0 1.667 1.667 0 0 1 .559.267c.7.5 1.3 1.125 1.775 1.85.1.116.191.258.291.408.067.217.142.408.192.625l.575 1.942.025-.142-1.058 1.417c-.05.066-.05.141.025.208l1.825 2-.025-.217-2.525 4.05.991-.358-1.3-.267a1.575 1.575 0 0 0-.666-.066c-.15.025-.267.066-.417.116l-2.917 1.059-.966.333.6-.025-3.817-1.992.05.125v-1.225c0-.241.067-.55-.075-.75-.525-.858-1.15-1.65-1.658-2.541-.217-.384-.575-.959-.575-1.342 0-.383-1.125-.075-1.125.267-.025.408.216.816.408 1.166.283.534.6 1.059.933 1.567l.792 1.175.167.217c-.025-.025 0-.1 0 .025v1.725c-.025.05 0 .1.05.125l3.416 1.775.4.216c.292.117.584 0 .834-.125l2.075-.75 1.75-.616-.534.05 1.667.358c.35.075.733-.075.975-.358l2.525-4.059c.042-.05.042-.141 0-.216l-1.833-1.992v.217l.7-.917c.15-.183.458-.45.383-.717-.092-.383-.233-.791-.333-1.166-.1-.392-.242-.85-.359-1.25a1.917 1.917 0 0 0-.291-.484 12.44 12.44 0 0 0-1.084-1.3 3.733 3.733 0 0 0-1.416-1c-.567-.225-1.242-.05-1.817.167a10.501 10.501 0 0 0-2.933 1.842l1.033-.192a4.583 4.583 0 0 0-1-1.15c-.508-.383-1.058-.267-1.633-.05-.942.358-1.834.792-2.692 1.3-.1.042-.333.167-.333.308v2l.091-.175-1.825 2.067c-.141.167-.116.308.125.333.259 0 .55-.1.767-.291Z" />
    <path fill="var(--c, black)"
      d="m44.733 56.133.05.025c.075.05-.075-.041-.05-.025l.05.025.1.075-.05-.05.05.025.067.075.05.042s.05.05.025 0c-.025-.042 0 0 0 .025l.025.05c.092.1.167.217.258.333 0-.016.025.05 0 0l.025.05c.025.025.025.075.05.1s.075.117.1.192c.042.067.117.142.192.217.117.091.233.191.383.258a.808.808 0 0 0 .334.15c.025 0 .116.017.1-.05a4.7 4.7 0 0 0-1.634-1.733c-.125-.067-.241-.142-.383-.209-.025 0-.167-.083-.192-.025-.025.042.092.142.092.167.1.092.217.192.358.283Zm-6.358.242c.308.217.625.458.933.625.267.142.559.167.817.05.217-.1.417-.242.533-.433l1.484-1.8c.166-.167.191-.459.025-.625-.025-.025-.05-.05-.075-.05a.683.683 0 0 0-.817.15l-1.267 1.533-.291.358c-.025.025-.092.075-.025.05a.383.383 0 0 1 .216-.075.15.15 0 0 1 .15 0c.017 0 .017 0 0 0-.025-.025-.05-.05-.083-.05l-.833-.575c-.5-.333-1.367.434-.767.842Zm-.167 5.733 1.7.192c.267.05.55.05.817-.025.333-.092.625-.283.892-.525.791-.792 1.508-1.633 2.25-2.45.191-.192-.217-.117-.284-.092a1.42 1.42 0 0 0-.7.434l-1.841 1.991c-.084.067-.15.167-.217.234-.025.025-.05.083-.1.1.5-.167.65-.242.383-.242l-.65-.067-1.416-.166c-.234-.034-.575.183-.767.308-.092.067-.333.258-.067.308Zm-1.541-1.125c.166-.675.416-1.35.7-2 .041-.083-.05-.258-.1-.308a.9.9 0 0 0-.334-.333.95.95 0 0 0-.358-.142c-.1 0-.167.042-.192.142a11.07 11.07 0 0 0-.7 1.991c0 .117.025.217.1.309.067.15.192.25.334.333.116.1.475.267.55 0Z" />
  </g>
</svg>