<svg viewBox="0 0 120 120" fill="none" xmlns="http://www.w3.org/2000/svg">
  <g id="doc">
    <path
      d="M33.572 37.776a5.497 5.497 0 0 0 1.488-1.08c2.16-2.304-.192-7.488-4.824-6.48 0 0-3.312.504-2.664 4.8.288 1.848 1.32 2.856 2.568 3.192-1.032 4.056-1.512 10.944-1.512 10.944s8.136.936 8.136 0c.024-.672-1.536-7.584-3.192-11.376z"
      fill="var(--c, black)" />
    <path
      d="M34.004 38.16c.888-.456 1.752-1.104 2.136-2.064.24-.672.288-1.416.144-2.112-.36-1.704-1.68-3.144-3.24-3.84a5.051 5.051 0 0 0-3.744-.168 3.499 3.499 0 0 0-2.208 2.736c-.216 1.224-.048 2.496.528 3.6.6 1.104 1.632 1.896 2.832 2.256l-.768-.696c-.816 3.288-1.152 6.72-1.44 10.08-.024.312-.048.624-.072.912 0 .144.24.336.336.408.144.144.336.24.528.264 2.232.264 4.512.504 6.768.408.408-.024.912-.024 1.296-.216.288-.144.216-.408.168-.672-.24-1.512-.648-3.024-1.032-4.512a44.253 44.253 0 0 0-2.16-6.528 1.223 1.223 0 0 0-.624-.528c-.096-.048-.432-.144-.312.096a40.235 40.235 0 0 1 1.896 5.664c.432 1.584.864 3.216 1.176 4.824.048.192.072.408.096.6 0 .048.024.096.024.168 0 .048.024.024-.024.096-.192.192-.696.216-.984.24a25.473 25.473 0 0 1-4.056-.12c-.984-.072-1.944-.168-2.928-.264l.864.672c.192-2.64.48-5.28.888-7.896.168-1.008.36-2.016.6-3 .072-.288-.528-.648-.768-.696a1.879 1.879 0 0 1-.84-.432 3.225 3.225 0 0 1-.672-1.008 5.476 5.476 0 0 1-.336-2.976 3.36 3.36 0 0 1 1.92-2.616 4.42 4.42 0 0 1 2.832-.24c.312.072.624.216.912.36.024.024.144.096.048.024l.096.072.096.072.024.024c.12.096.24.192.336.312.432.48.744 1.08.912 1.704.192.696.192 1.44-.024 2.136-.336.96-1.176 1.656-2.064 2.112-.264.096.576.888.84.744z"
      fill="var(--c, black)" />
    <path
      d="M68.372 38.136c-.192-.264-.912-2.952-3.168-3.936-2.256-.984-2.88 1.104-1.368 1.968 1.512.864 1.944 2.688 1.944 2.688l1.8.912.792-1.632z"
      fill="var(--b, white)" />
    <path
      d="M68.852 38.185c-.048-.072.048.096-.024-.024l-.096-.216c-.096-.192-.168-.408-.264-.6a9.704 9.704 0 0 0-.936-1.608 5.907 5.907 0 0 0-1.776-1.584c-.672-.384-1.512-.744-2.304-.576a1.174 1.174 0 0 0-.984.936c-.096.552.24 1.104.624 1.464.264.264.624.432.912.648.24.216.48.456.648.72.24.384.456.816.576 1.248.144.456.696.624 1.08.84l1.272.648c.12.048.432.144.528-.024l.792-1.632c.192-.384-.864-.96-1.032-.624l-.792 1.632.528-.024-1.8-.912.504.456a5.136 5.136 0 0 0-2.232-3.048c-.048-.024-.12-.072-.168-.096.096.048-.024-.024-.024-.024-.072-.072.096.096-.048-.024l-.048-.048a.913.913 0 0 1-.192-.408c-.048-.288.024-.576.24-.768a1.23 1.23 0 0 1 1.08-.144c.912.264 1.608.984 2.112 1.824.216.36.432.744.6 1.152.096.264.192.504.336.744.168.24.432.408.72.432.192 0 .312-.144.168-.36z"
      fill="var(--c, black)" />
    <path
      d="M92.084 27.456c-4.704 2.712-6.432 11.064-6.432 11.064-.84 0-1.68.048-2.52.192-1.248.216-1.512 1.752-1.512 1.752s-45.144-4.704-47.184-3.888c-2.04.816-1.824 3.816-1.272 4.344.552.528 6.048.288 6.048.288s-.792 4.968-.528 5.424c.264.456 1.608 1.08 2.616.624 1.008-.456 2.232-5.28 2.232-5.28l3.576.576s-.048 3.408.408 4.416c.456 1.008 1.272.912 1.944.768.672-.144 1.44-4.704 1.44-4.704l31.056 1.728s-.6 1.344.312 2.088c.912.744 3.864-.456 3.864-.456.216 5.4 5.736 15.24 15.744 13.896 10.008-1.344 13.128-15.552 8.808-25.08-4.32-9.528-13.896-10.44-18.6-7.752zm17.064 14.28c1.824 12.6-8.424 18.672-16.224 11.688-7.8-6.984-2.136-18.816-2.136-18.816 3.48-7.896 16.512-5.472 18.36 7.128z"
      fill="var(--a, blue)" />
    <path
      d="M91.82 26.928c-1.968 1.152-3.36 3.072-4.392 5.064a26.442 26.442 0 0 0-1.992 5.232c-.096.384-.192.744-.288 1.128l.504-.36c-.456 0-.912 0-1.344.024-.672.048-1.464.072-2.04.456a2.792 2.792 0 0 0-1.128 1.8l.504-.36-1.776-.192-4.704-.48-6.744-.672c-2.64-.264-5.28-.504-7.92-.768a931.283 931.283 0 0 0-8.136-.744c-2.52-.216-5.04-.432-7.56-.624a168.096 168.096 0 0 0-6.072-.408c-1.248-.096-2.52-.12-3.792-.096-2.112.096-2.952 2.496-2.592 4.32.096.504.312 1.056.816 1.296.456.168.96.264 1.44.264 1.32.072 2.664.096 3.984.024.264 0 .528-.024.792-.024l-.648-.792c-.12.768-.24 1.536-.336 2.304-.12 1.008-.336 2.088-.24 3.12.144 1.416 2.424 1.992 3.504 1.392.408-.24.648-.696.864-1.08a10.93 10.93 0 0 0 .72-1.728c.312-.912.6-1.824.84-2.76l-.504.36 3.576.576-.528-.648c0 .744 0 1.488.048 2.232.072 1.032.096 2.352.864 3.144.624.624 2.088.864 2.64.024.456-.696.624-1.656.816-2.472.168-.72.312-1.416.432-2.136l-.528.36 3.096.168 7.416.408 8.976.504 7.752.432 2.544.144c.408.048.816.072 1.224.072h.048l-.456-.936c-.552 1.296-.12 3.12 1.512 3.24 1.152.096 2.352-.312 3.408-.72l-.792-.624c.096 2.16.816 4.296 1.8 6.192a16.801 16.801 0 0 0 4.896 5.88c4.368 3.24 10.728 3.672 15.096.192 4.128-3.288 5.712-9.024 5.712-14.112 0-5.784-2.04-11.928-6.648-15.672-3.648-2.976-8.952-4.176-13.44-2.448-.432.096-.84.288-1.224.504-.576.336-.048 1.416.528 1.08 3.648-2.064 8.52-1.512 12 .6 4.752 2.856 7.176 8.376 7.608 13.728.408 4.848-.6 10.344-3.96 14.04a10.282 10.282 0 0 1-5.856 3.288c-2.664.48-5.424.024-7.8-1.248-3.912-2.112-6.768-6.408-7.536-10.752a6.771 6.771 0 0 1-.12-1.2c-.024-.408-.384-.792-.792-.624a8.74 8.74 0 0 1-2.472.648c-.432.048-.888.048-1.056-.336a1.144 1.144 0 0 1-.024-.696l.072-.288c0-.048.024-.072.048-.12s-.048.12-.024.072c.144-.336 0-.912-.456-.936l-3.096-.168-7.416-.408-8.976-.504-7.752-.432c-1.248-.072-2.52-.168-3.768-.216H50.9a.453.453 0 0 0-.504.36 21.778 21.778 0 0 1-.912 3.888c-.048.12-.096.24-.144.336-.024.048-.048.096-.096.144.096-.12.024-.024.024-.024l-.024.024c-.024.024-.024.024.048-.024-.024.048-.168-.048.072-.024-.048 0-.096.024-.168.024-.096.024-.216.024-.336.048a1.07 1.07 0 0 1-.552-.072 1.173 1.173 0 0 1-.336-.432c.024.048-.048-.144-.048-.192-.024-.096-.048-.216-.072-.312-.072-.456-.12-.912-.144-1.368-.048-.744-.048-1.488-.048-2.232 0-.312-.216-.6-.528-.648l-3.576-.576a.453.453 0 0 0-.504.36c-.168.648-.36 1.296-.552 1.944-.312.936-.624 2.016-1.2 2.832a.523.523 0 0 1-.096.12c-.024.024-.048.048-.072.048-.096.096.096-.048-.024 0a1.705 1.705 0 0 1-1.032.096 1.933 1.933 0 0 1-.792-.336c-.072-.048-.168-.216-.096-.072.12.216.048.096.024.048-.048-.072 0 .144 0 .024-.024-.888.048-1.8.216-2.664.096-.792.216-1.584.336-2.376a.68.68 0 0 0-.48-.792c-.048-.024-.096-.024-.168-.024-.864.048-1.752.072-2.616.072-.648 0-1.296 0-1.944-.048a8.39 8.39 0 0 1-.768-.096l-.144-.024c-.024 0-.168-.048-.096-.024.072.024-.048-.024-.048-.024-.096-.024-.072-.072 0 0-.048-.072.12.096.024.024-.096-.072.048.096 0 0l-.048-.12c-.024-.096 0 .048-.024-.072a2.808 2.808 0 0 1-.096-.768 2.92 2.92 0 0 1 .528-1.776c.192-.264.456-.456.744-.576.144-.048.216-.048.048-.024.024 0 .048-.024.072-.024.12-.024.264-.024.384-.048.192-.024.384-.024.576-.024h.696l2.04.072c1.92.096 3.84.24 5.76.384 2.424.192 4.848.384 7.272.6l7.968.72c2.616.24 5.208.48 7.824.744 2.28.216 4.56.456 6.816.672l5.064.504c.816.072 1.632.192 2.448.24h.12c.24.024.456-.12.504-.36.072-.48.336-.936.72-1.224.456-.312 1.176-.288 1.704-.312.264-.024.528-.024.792-.024h.288c.24.024.456-.12.504-.36.216-.984.48-1.968.84-2.904.672-1.92 1.536-3.816 2.76-5.448a8.849 8.849 0 0 1 2.592-2.4c.504-.264-.024-1.344-.6-1.008z"
      fill="var(--a, blue)" />
    <path
      d="M108.62 41.808c.432 2.952.24 6.12-1.08 8.832-1.032 2.112-2.736 3.84-4.944 4.656a8.34 8.34 0 0 1-3.168.48 9.429 9.429 0 0 1-3.432-.888 11.761 11.761 0 0 1-5.808-6.216c-.96-2.424-1.056-5.232-.672-7.776.168-1.104.408-2.184.72-3.24.12-.408.264-.84.408-1.248.048-.168.12-.336.192-.504l.048-.096c.024-.072.048-.144.072-.192.552-1.344 1.224-2.472 2.352-3.384.36-.288.744-.528 1.128-.744.216-.12.432-.216.648-.288l.336-.12c.168-.048.144-.048.264-.096.48-.144.96-.216 1.44-.264.24-.024.48-.048.744-.048h.264c.144 0 .264 0 .384.024a9.996 9.996 0 0 1 5.688 2.448c1.896 1.632 3.24 3.96 3.936 6.432.216.72.384 1.464.48 2.232.072.312.336.528.648.504.336-.048.408-.384.384-.648-.432-2.952-1.56-5.832-3.528-8.088a11.682 11.682 0 0 0-6.072-3.792 8.985 8.985 0 0 0-6.168.624c-1.632.864-2.904 2.28-3.648 3.96-.648 1.464-1.152 3-1.464 4.56-.6 2.712-.744 5.544-.12 8.256.744 3.168 2.664 5.928 5.352 7.776 2.16 1.488 4.8 2.304 7.44 1.872 2.472-.408 4.608-1.896 6.048-3.912 1.752-2.448 2.424-5.568 2.352-8.544-.024-.912-.096-1.8-.24-2.688a.606.606 0 0 0-.648-.504c-.264.024-.36.336-.336.624z"
      fill="var(--a, blue)" />
    <path
      d="M85.34 39.936c-.672-3.456-11.52-3.36-11.52-3.36-2.208-1.344-3.624-.672-3.624-.672s-.576-1.128-2.088-.48c-1.512.648-1.536 3.504-.456 5.136 1.08 1.632 1.824-.48 1.824-.48s.048 1.32.84 1.584c.792.264 1.704.048 1.728-1.368.024-1.416 1.392-1.32 1.392-1.32"
      fill="var(--b, white)" />
    <path
      d="M85.892 39.768c-.168-.792-.744-1.368-1.44-1.752-.888-.48-1.848-.84-2.832-1.032a32.781 32.781 0 0 0-6.12-.72c-.456-.024-.912-.024-1.392-.024l.192.048c-1.2-.72-2.856-1.272-4.224-.624h.672a1.629 1.629 0 0 0-1.512-.792 2.884 2.884 0 0 0-2.616 1.776 4.826 4.826 0 0 0-.024 3.024c.24.816.816 2.088 1.872 1.896.768-.144 1.32-.84 1.56-1.536l-1.08.264c0 .384.096.768.264 1.104a1.51 1.51 0 0 0 1.392.792c.696.024 1.344-.336 1.728-.912.168-.312.264-.672.288-1.032 0-.264.072-.528.192-.768l.024-.024c.024-.024.072-.048 0 0s.024-.024.024-.024l-.048.024.072-.024c.024 0 .096-.024 0 0s.024 0 .048 0l.12-.024c-.12 0 .024 0 0 0h.096c.288 0 .576-.144.768-.384.144-.216.048-.384-.192-.384-.48 0-.96.12-1.392.384a1.915 1.915 0 0 0-.72.792c-.168.384-.096.792-.192 1.2-.048.144-.096.288-.192.408.024-.024 0-.024-.024.024.024-.024.048-.048.072-.048-.072.024-.072.024 0 0-.072.024-.072.024-.024 0-.12 0-.216 0-.336-.024a.913.913 0 0 1-.408-.192c-.36-.288-.48-.864-.48-1.296-.024-.504-.984.024-1.08.264l-.144.36c-.024.048-.072.12-.144.216s0 .024-.048.072l-.072.072c.096-.096-.024 0 .048-.024.048-.024.096-.048.12-.048l.048-.024c-.024 0-.072 0-.096-.024-.168-.096-.288-.24-.408-.384a3.762 3.762 0 0 1-.528-1.08 4.613 4.613 0 0 1-.168-2.424c.072-.336.192-.648.384-.912a.828.828 0 0 1 .216-.192c.096-.048-.072.024.024 0 .024-.024.048-.024.072-.024.096-.048.216-.072.336-.096.456-.048.888.168 1.104.552.12.24.528.096.672 0l-.072.024.096-.024c.12-.048-.12.024.048-.024.048 0 .096-.024.144-.024.048 0 .168-.024.096-.024h.48c.432.048.84.144 1.224.288.288.12.552.24.816.384.096.072.24.12.36.144.576.024 1.152.024 1.728.048 2.4.096 4.944.312 7.224 1.176.912.336 2.064.936 2.28 1.92.048.264.36.216.552.144.192-.072.6-.216.552-.456zM89.396 98.424s.096 6.936-.096 6.936-2.952-.192-2.952-.192l.096-2.76-1.44 3-9.192-.84s-.264-1.008 1.848-2.064 5.496-2.496 5.496-2.496l.192-4.104 6.048 2.52zM100.46 91.416l4.992 4.272-.672 2.376-1.704-.144 1.44 1.704s-.72 5.88-1.152 6c-.432.12-5.328.816-5.688.12-.36-.696 2.904-2.328 2.904-2.328L99.068 98.4l-4.44-2.208 5.832-4.776z"
      fill="var(--c, black)" />
    <path d="M95.756 62.04s-4.224 37.968-4.608 37.968c-.384 0-9.576-.624-9.576-.624l.024-37.2 14.16-.144z"
      fill="var(--b, white)" />
    <path
      d="M95.204 61.944c-.048.504-.12 1.008-.168 1.512-.144 1.344-.312 2.688-.456 4.056-.216 1.92-.432 3.84-.648 5.736-.264 2.232-.504 4.464-.768 6.696l-.792 6.768c-.24 2.04-.48 4.056-.744 6.096-.192 1.536-.384 3.096-.6 4.632 0 .024.024-.096 0 0v.096c0 .072-.024.144-.024.24-.024.12-.024.264-.048.384-.024.216-.072.456-.096.672-.048.264-.096.552-.144.816 0 .024-.024.048-.024.096s.048-.096.048-.096.288-.24.312-.144c-.168-.024-.36-.024-.528-.024-.888-.048-1.8-.12-2.688-.168-1.992-.12-3.984-.264-5.976-.408l-.384-.024.696.624V63.792c.024-.48.024-.96 0-1.44v-.072l-.408.408 4.8-.048 7.632-.072 1.752-.024c.24 0 .408-.192.408-.432 0-.048 0-.072-.024-.12a.751.751 0 0 0-.696-.504l-4.8.048-7.632.072-1.752.024a.42.42 0 0 0-.408.408v32.64c0 1.512-.048 3.024 0 4.512v.072c0 .384.36.6.696.624l4.704.312 3.312.216 1.104.072c.192.024.408.024.6 0 .288-.096.336-.384.384-.648.072-.36.12-.744.192-1.128.216-1.368.384-2.76.552-4.152l.72-5.808.792-6.72.792-6.84c.24-2.04.456-4.104.696-6.144l.528-4.584c.072-.744.192-1.488.24-2.256v-.096c.024-.552-1.08-.888-1.152-.168z"
      fill="var(--c, black)" />
    <path
      d="M84.332 25.584s-1.848 1.944-3.792 1.824c-1.944-.12-5.64-.936-6.12.936-.48 1.872 2.064 2.64 3.72 2.376 0 0-.624 4.968 2.304 6.432 2.928 1.464 4.344.696 4.488 2.736 0 0 4.08 1.368 4.608-2.448.072-.6 1.32-5.664-3.192-8.184 0 0-2.568-1.248-2.016-3.672z"
      fill="var(--b, white)" />
    <path
      d="M83.924 25.152l-.048.048-.096.096-.504.432a5.863 5.863 0 0 1-1.68.96c-1.152.384-2.448.048-3.624-.048-1.056-.072-2.448-.192-3.36.456-1.008.744-.888 2.232-.096 3.072.936 1.008 2.52 1.296 3.84 1.104l-.672-.768c-.144 1.344-.048 2.712.336 4.008.264 1.032.84 1.944 1.632 2.664.936.792 2.232 1.152 3.384 1.464.24.072.48.12.672.192.096.024.192.072.288.12l.096.048.072.048c-.048-.024-.048-.024 0 0s.072.048.096.072c-.096-.072.12.096 0 0 .024.024.096.144 0 0 .024.024.096.192.024.048.072.168.12.336.12.528 0 .312.168.576.456.72.864.288 1.776.36 2.664.192a2.997 2.997 0 0 0 1.752-1.08c.264-.36.456-.768.552-1.2.072-.216.096-.432.12-.672 0-.096-.024.144 0 .048 0-.024 0-.072.024-.096.24-1.2.264-2.448.072-3.672a7.275 7.275 0 0 0-3.096-4.8c-.192-.144-.408-.264-.624-.384-.072-.048-.192-.12-.072-.048a4.095 4.095 0 0 1-.336-.216.647.647 0 0 1-.192-.168l-.072-.072-.072-.072c.048.048.048.048 0 0a7.968 7.968 0 0 1-.432-.456c-.072-.096.072.12-.024-.048l-.096-.168a2.712 2.712 0 0 1-.12-.216 2.313 2.313 0 0 1-.144-1.392.793.793 0 0 0-.312-.768c-.168-.12-.528-.192-.6.12-.36 1.752.624 3.384 2.088 4.296a9.239 9.239 0 0 1 1.608 1.128 5.4 5.4 0 0 1 1.344 2.112c.216.672.336 1.368.36 2.088.024.576-.024 1.128-.096 1.704 0 .048-.048.336-.024.192a.7.7 0 0 1-.048.216c-.048.312-.12.6-.192.912a2.232 2.232 0 0 1-1.32 1.464 3.46 3.46 0 0 1-1.776.192c-.24-.024-.456-.072-.696-.12l-.216-.048c-.12-.024.12.048.024 0l.456.72c-.072-.984-.456-1.824-1.416-2.208-.432-.168-.888-.288-1.344-.408a11.466 11.466 0 0 1-1.8-.648A3.597 3.597 0 0 1 79.58 36a3.732 3.732 0 0 1-.624-1.08 7.753 7.753 0 0 1-.456-2.448c-.024-.504 0-1.032.048-1.536.048-.336-.312-.816-.672-.768a4.405 4.405 0 0 1-1.584-.072 3.14 3.14 0 0 1-.672-.216 2.27 2.27 0 0 1-.576-.336c-.024-.024-.192-.216-.144-.144-.024-.048-.072-.096-.096-.144.048.12-.024-.048-.024-.072-.024-.072-.024-.12-.024-.192 0-.12 0-.24.048-.336.12-.36.384-.648.768-.768.936-.384 2.112-.24 3.096-.144.552.048 1.08.12 1.632.168a4.228 4.228 0 0 0 1.896-.24 6.665 6.665 0 0 0 2.472-1.68c.408-.336-.312-1.272-.744-.84z"
      fill="var(--c, black)" />
    <path
      d="M90.932 35.784s2.376 1.32 3.168.072c.792-1.248-.96-1.368-.96-1.368s2.64-2.304.168-3.48c0 0 2.736-1.56 1.56-3.984-1.176-2.424-4.92-2.016-4.92-2.016s.912-3.024-1.848-3.312c-2.76-.288-2.592 1.704-2.592 1.704s-1.752-.216-2.088.816c-.336 1.032.84 1.776.84 1.776s-.312 3.12 2.112 3.288l1.248 4.344c-.696.744-.936 1.8-.672 2.784.456 1.608 3.576 1.344 3.984-.624z"
      fill="var(--c, black)" />
    <path
      d="M90.428 35.688a6.37 6.37 0 0 0 1.008.432 6.238 6.238 0 0 0 2.088.432c.6-.024 1.104-.264 1.32-.864.192-.504-.144-.816-.576-1.008a5.105 5.105 0 0 0-1.584-.384l1.08.312c.432-.384.792-.84 1.032-1.344.192-.36.24-.768.144-1.152-.144-.504-.624-.816-1.08-1.056l.048.072c1.152-.648 2.112-1.944 1.824-3.312-.456-2.112-2.856-2.808-4.704-3a6.994 6.994 0 0 0-1.584-.024l1.128.312c.264-.864.24-2.016-.432-2.712a2.477 2.477 0 0 0-1.056-.624 6.123 6.123 0 0 0-1.848-.336c-.72-.024-1.56.12-1.992.744a1.653 1.653 0 0 0-.288 1.008h.192a3.068 3.068 0 0 0-1.728.216c-.864.456-.648 1.488-.072 2.088.096.096.192.192.288.264a.182.182 0 0 0 .096.048c-.024-.048 0 .024 0 0v.456c0 .624.144 1.248.456 1.8.552.96 1.728 1.248 2.76 1.32l-1.08-.312.552 1.944.408 1.44c.12.288.192.6.264.888 0 .168-.192.312-.288.48a2.909 2.909 0 0 0-.48 1.824c0 .528.264 1.032.696 1.344a4.305 4.305 0 0 0 1.872.528c1.152.12 2.448-.456 2.712-1.68.024-.12-1.152-.408-1.176-.288-.216.984-1.128 1.608-2.088 1.656h-.288c-.192 0 .264.024.24.072-.024.048-.456-.336-.48-.384-.36-.456-.384-1.152-.312-1.68.072-.504.288-.96.6-1.368.12-.168.168-.144.12-.336l-.624-2.184-.576-2.016c-.024-.096-.336-.168-.408-.192a3.039 3.039 0 0 0-.672-.144c-.072 0-.312-.024.12.048.072 0 .096.048 0 0-.072-.048-.168-.096-.24-.144a2.343 2.343 0 0 1-.408-.432 3.57 3.57 0 0 1-.456-1.08 5.007 5.007 0 0 1-.096-1.344l-.024-.024c-.624-.408-1.2-1.296-.696-2.016.24-.36.72-.48 1.128-.528.168-.024.312-.024.48-.024h.168c-.12 0-.024 0 0 0-.024 0 .192.024.192 0-.024-.792.528-1.512 1.32-1.656.192-.048.384-.072.576-.072h.384c.072 0 .36.072.168 0-.192-.072-.024 0 .024.024.072.024.12.072.192.12.12.096.24.216.336.36.312.456.48 1.008.432 1.56 0 .336-.048.672-.144.984-.048.144 1.008.336 1.128.312a7.065 7.065 0 0 1 1.008 0c.288.024.552.048.816.096h.048c.12.024-.144-.048.048.024l.096.048c.192.072.36.168.552.264a3.043 3.043 0 0 1 1.464 2.112 2.859 2.859 0 0 1-.696 2.208c-.216.24-.456.48-.72.672-.096.072-.168.12-.264.192-.024.024-.144.096-.096.072-.048.024 0 .048.048.072.456.216.864.552.96 1.056a1.77 1.77 0 0 1-.216 1.104c-.24.48-.576.888-.984 1.248-.024.024.408.192.408.192.216.072.432.12.672.144-.144 0-.048.024 0 0-.096-.024.048-.024 0 0l-.12-.024-.168-.048c.024 0 .048.024.072.048.072.048.144.096.192.168.288.384-.048 1.008-.408 1.248a1.092 1.092 0 0 1-.72.192c-.072 0-.216-.024-.264-.024-.048 0-.072-.024.024 0-.024 0-.072-.024-.096-.024-.24-.072-.48-.192-.72-.312a2.77 2.77 0 0 0-.792-.24c-.072.072-.456.024-.24.144z"
      fill="var(--c, black)" />
    <path d="M85.34 29.736s1.392-1.968 2.76-1.152c1.368.816.72 5.544-1.92 4.728" fill="var(--b, white)" />
    <path
      d="M85.892 29.856l.024-.024c-.12.168-.024.048 0 0 .096-.096.168-.192.264-.312.216-.24.456-.432.744-.6-.072.048.072-.048.072-.024.048-.024.096-.048.144-.048.144-.048-.12 0 .048 0l.096-.024c.144-.024-.12-.024.048 0 0 0 .192.024.072 0 .048 0 .096.024.12.024.024 0 .024 0 0 0l.12.048c.024.024.192.12.048.024l.048.048c.048.048.072.072.12.096-.096-.096 0 .024.024.048.048.072.072.12.12.192 0 .024.072.192.048.072.024.048.048.12.048.192.048.144.072.288.096.432.024.144.024.288.024.432V30.576c0 .096 0 .192-.024.264a3.854 3.854 0 0 1-.192.912s-.048.144-.024.048c-.024.048-.024.072-.048.12s-.048.12-.096.192c-.072.144-.144.288-.24.408.072-.096-.072.072-.096.096-.048.072-.12.12-.192.192.12-.096-.072.024-.096.072-.144.072-.024.048 0 0l-.096.048-.096.024c.048 0 .168-.072 0 0l-.096.024c-.096.024.144 0-.024 0h-.12c-.12 0 .096.024-.024 0a6.315 6.315 0 0 1-.312-.072.734.734 0 0 0-.768.288c-.144.264.072.456.312.528a2.436 2.436 0 0 0 2.424-.576 3.674 3.674 0 0 0 .96-2.04 3.715 3.715 0 0 0-.216-2.16c-.408-.888-1.464-1.128-2.352-.864a4.002 4.002 0 0 0-1.992 1.56c-.168.24.096.48.312.528.288.072.6-.048.768-.288v-.024zM80.396 31.873c0 .024-.024.024-.024.048s-.024.024-.024.048c-.024.072.048-.072.024-.048l-.024.048a2.378 2.378 0 0 1-.264.408c-.072.072-.144.168-.216.24l-.12.12c-.048.048.072-.048 0 0l-.072.048a2.002 2.002 0 0 1-.288.192c-.048.024-.12.048-.168.072-.072.024.096-.024 0 0l-.096.024a.7.7 0 0 1-.216.048c-.024 0-.144.024-.072 0s-.048 0-.072 0h-.288c-.12-.024.096.024.024 0l-.144-.024c-.24-.048-.552.024-.528.336a.746.746 0 0 0 .552.624 2.49 2.49 0 0 0 2.016-.288 3.137 3.137 0 0 0 1.104-1.344.712.712 0 0 0-.048-.384.708.708 0 0 0-.336-.312c-.312-.12-.6-.12-.72.144zM82.503 28.966c.224-.026.385-.218.36-.428-.024-.211-.226-.36-.45-.335-.223.027-.385.219-.36.43.025.21.226.36.45.333z"
      fill="var(--c, black)" />
    <path
      d="M54.596 50.784c-1.92-2.112-6.288-1.008-6.768-2.184-.48-1.176 1.92-1.824 2.856-1.512 0 0-1.824-1.152-.264-3 0 0-.48-.528-.864-2.136s.504-2.184.504-2.184c.888-.456 1.488-.024 2.016 1.44s3.48 3.288 3.48 3.288c1.488-.864 1.224-1.728.384-2.376-.84-.648-1.536-.456-1.488-1.536.048-1.08 1.32-1.056 3.288-.24 1.968.816 2.928 4.56 2.16 5.448 0 0 3.768 3.312 5.544 3.312 1.776 0 10.68-5.328 10.68-5.328l2.736 8.208s-7.392 4.656-12.864 4.92c-5.472.264-11.4-6.12-11.4-6.12z"
      fill="var(--b, white)" />
    <path
      d="M55.028 50.4c-1.152-1.248-3.024-1.416-4.608-1.56-.624-.048-1.248-.048-1.824-.288-.072-.024-.024 0 0 0l-.072-.024c-.048-.024-.072-.048-.12-.072-.096-.072 0 0-.048-.048a.525.525 0 0 1-.072-.12c-.024-.072-.024-.12-.024-.192 0 0 .024-.096.024-.072 0-.024.048-.096.024-.048s.024-.024.024-.048.096-.096.024-.024c.024-.024.072-.048.096-.096-.072.048.072-.048 0 0l.144-.096c.096-.048-.072.024.024-.024.048-.024.096-.048.144-.048.168-.072.36-.12.528-.144a2.16 2.16 0 0 1 .96 0 .814.814 0 0 0 .72-.24c.12-.144.288-.432.072-.576a1.725 1.725 0 0 1-.6-.648c-.36-.648-.096-1.296.336-1.824a.402.402 0 0 0 .024-.528c.144.168.024.024-.024-.024-.072-.12-.144-.24-.216-.384a7.273 7.273 0 0 1-.528-1.536c-.144-.456-.12-.936.024-1.392.024-.024.12-.24.048-.12a.636.636 0 0 1 .12-.144c-.096.096.048-.048 0 0 .096-.096-.024-.024-.072.048-.048.072.072-.024.12-.048-.024 0 .144-.024.072-.024.168 0 .312.072.408.192.384.36.528.912.72 1.368.36.84 1.152 1.512 1.872 2.088.528.432 1.08.816 1.656 1.176.216.096.456.096.648-.048.576-.336 1.248-.84 1.392-1.536.072-.48-.096-.96-.456-1.296-.384-.408-.888-.576-1.368-.864a.787.787 0 0 1-.264-.936c.024-.072-.048 0 .024-.024l-.048.048-.024.024c.072-.144-.024.048-.024 0s.024 0 .048-.024c.216-.024.456-.024.672.024a5.305 5.305 0 0 1 1.824.624c.864.48 1.392 1.464 1.728 2.352.192.48.288 1.008.336 1.536.024.192 0 .408-.024.6 0 .048-.072.24-.048.168-.024.024-.024.072-.048.096-.048.096.072-.072-.024.024-.144.144-.144.36-.024.528a25.241 25.241 0 0 0 2.88 2.184c.672.48 1.392.84 2.184 1.104.528.144 1.104.12 1.608-.048 1.296-.384 2.52-1.032 3.696-1.656 1.392-.72 2.784-1.488 4.152-2.28.792-.456 1.56-.912 2.352-1.368l-.744-.144 2.4 7.176.336 1.032.36-.528c-.912.576-1.848 1.08-2.784 1.584a37.338 37.338 0 0 1-6.072 2.544 16.538 16.538 0 0 1-3.24.672c-1.056.096-2.088-.048-3.096-.36-2.04-.624-3.888-1.824-5.568-3.144-.936-.768-1.896-1.608-2.76-2.544-.192-.192-.624 0-.768.144-.192.168-.312.408-.12.624.744.792 1.56 1.536 2.4 2.232 1.656 1.368 3.504 2.616 5.544 3.36a9.41 9.41 0 0 0 3.264.648c1.152-.024 2.304-.168 3.408-.48a33.628 33.628 0 0 0 6.72-2.616c1.2-.6 2.4-1.224 3.552-1.944.144-.096.432-.336.36-.528l-2.4-7.176-.336-1.032c-.12-.336-.504-.288-.744-.144a135.821 135.821 0 0 1-5.76 3.24c-.672.36-1.344.696-2.04 1.032l-.096.048-.024.024-.216.096-.456.216c-.264.12-.528.216-.816.336-.12.048-.216.072-.336.12l-.144.048c-.168.048.048 0-.048 0l-.24.048c-.168 0-.048 0 0 0h-.168c-.576-.048-1.32-.456-1.872-.792a23.604 23.604 0 0 1-3.312-2.448l-.024.528c.576-.696.408-1.824.192-2.64-.288-1.08-.816-2.184-1.68-2.904a5.222 5.222 0 0 0-1.848-.864c-.576-.216-1.2-.264-1.824-.192a1.606 1.606 0 0 0-1.248 1.056c-.144.528-.024 1.152.432 1.464.504.336 1.128.48 1.512 1.008.408.576-.024.96-.528 1.248l.648-.048a15.914 15.914 0 0 1-1.656-1.176 7.84 7.84 0 0 1-1.128-1.056 4.276 4.276 0 0 1-.768-1.368c-.216-.504-.528-1.056-1.056-1.296a1.828 1.828 0 0 0-1.536.192c-.72.432-.984 1.344-.936 2.136a6.21 6.21 0 0 0 .624 2.16c.12.264.264.504.456.72l.024-.528c-.6.72-.984 1.656-.576 2.544.168.384.456.72.816.96l.792-.816c-.768-.24-1.728-.048-2.472.264s-1.68 1.08-1.224 1.992c.264.552 1.056.648 1.608.744.864.12 1.728.144 2.592.288.984.168 1.944.504 2.664 1.248.24.408 1.2-.288.792-.72z"
      fill="var(--c, black)" />
    <path
      d="M52.148 47.568l-1.008-.528-.144-.072a3.205 3.205 0 0 0-.432-.168 1.03 1.03 0 0 0-.384 0c-.072.024-.144.072-.12.168a.47.47 0 0 0 .216.216l1.008.528.144.072c.144.072.288.12.432.168.12.024.264.024.384 0 .072-.024.144-.072.12-.144a.43.43 0 0 0-.216-.24zM52.652 45.744c.312.144 0 0-.072-.048-.192-.12-.072-.048 0 0l-.144-.072c-.096-.072-.192-.12-.288-.192l-.072-.048-.168-.12c-.12-.096-.24-.192-.36-.312l-.096-.096-.024-.024c-.072-.072-.12-.144-.192-.216-.12-.144-.24-.264-.336-.432a.828.828 0 0 0-.288-.216c-.144-.072-.288-.12-.432-.168-.12-.024-.456-.048-.288.144a7.128 7.128 0 0 0 2.64 2.136c.12.072.264.096.408.12.048 0 .192.024.216-.048.072-.168-.408-.36-.504-.408zM76.412 54.288l3.936-1.344.144 9s13.944.648 15.816.264c0 0-.12-21.312-6.12-24.072-6-2.76-12.288 3.48-15.192 6.072l1.416 10.08z"
      fill="var(--c, black)" />
    <path
      d="M76.628 54.72l3.936-1.32-.816-.36.12 7.872.024 1.104c0 .24.288.384.504.408 1.608.072 3.216.144 4.848.192 2.76.096 5.52.192 8.304.192.936 0 1.92.048 2.832-.12.288-.048.528-.216.528-.552 0-.624-.024-1.272-.048-1.896a78.858 78.858 0 0 0-.288-4.752 73.552 73.552 0 0 0-.744-6.072 40.226 40.226 0 0 0-1.416-6.048c-.528-1.56-1.2-3.168-2.304-4.44-1.488-1.656-3.912-2.136-6.048-1.896-2.832.336-5.4 1.872-7.632 3.576-1.008.768-1.968 1.608-2.928 2.472l-.576.504c-.216.192-.528.384-.528.72 0 .096.024.192.048.288l.672 4.776.672 4.728.048.264c.096.624 1.272.48 1.2-.144l-1.248-8.808-.168-1.248-.144.36c2.76-2.472 5.64-5.184 9.312-6.24 1.728-.504 3.792-.48 5.328.408.096.048.192.12.264.168l.12.096.072.048c.024.024-.072-.072 0 .024.192.168.36.336.528.504.36.384.648.816.888 1.272 1.392 2.424 1.992 5.232 2.496 7.968.504 2.904.84 5.832 1.008 8.76a70.48 70.48 0 0 1 .144 3.144c.024.504 0 1.032.024 1.536v.072l.528-.552a5.247 5.247 0 0 1-.864.072c-.216 0-.432.024-.648.024h-.648c-1.296 0-2.592-.024-3.888-.048a287.388 287.388 0 0 1-7.872-.264l-1.728-.072.48.408-.096-7.872-.024-1.104c0-.384-.552-.456-.816-.36l-3.936 1.344a.46.46 0 0 0-.36.576c0 .024 0 .048.024.072.216.24.528.336.816.216z"
      fill="var(--c, black)" />
    <path d="M84.068 50.64s-2.496 1.993-4.248 2.497l4.248-2.496z" fill="var(--c, black)" />
    <path
      d="M83.54 50.352c-.456.36-.96.72-1.44 1.056-.84.552-1.752 1.152-2.712 1.416-.24.072-.048.264.072.36.168.12.552.336.792.264a10.51 10.51 0 0 0 2.832-1.44 21.293 21.293 0 0 0 1.488-1.08c.216-.192-.768-.768-1.032-.576zM81.596 62.185s-2.568 24.288 15.216 37.752l7.872-7.368s-12.744-8.904-8.4-30.36l-14.688-.024z"
      fill="var(--b, white)" />
    <path
      d="M80.996 62.064c-.096.84-.12 1.704-.12 2.544a52.433 52.433 0 0 0 2.112 15.528 42.196 42.196 0 0 0 4.272 9.768 36.597 36.597 0 0 0 7.848 9.12c.408.336.816.672 1.248.984.216.168.768.312 1.008.096l2.664-2.496 4.224-3.96.984-.912c.096-.096-.024-.216-.096-.264-.12-.072-.216-.168-.336-.264-.072-.048-.12-.096-.192-.144-.072-.048.096.072.024.024l-.048-.048-.12-.096a8.653 8.653 0 0 1-.504-.456 22.675 22.675 0 0 1-2.808-3.24c-1.224-1.728-2.256-3.576-3.024-5.544a30.415 30.415 0 0 1-1.992-8.112c-.336-3.576-.192-7.2.432-10.752.096-.504.192-1.008.288-1.536.072-.312-.672-.384-.84-.384h-4.992l-7.872-.024h-1.824c-.168 0-.432.096-.288.288.144.192.552.24.792.24h4.992l7.872.024h1.824l-.84-.384a41.844 41.844 0 0 0-.816 11.208c.192 2.904.792 5.76 1.776 8.496a27.61 27.61 0 0 0 3.024 5.928 24.533 24.533 0 0 0 2.928 3.552c.336.336.696.672 1.08.984.144.144.312.288.504.384l.024.024-.096-.264-2.664 2.496-4.224 3.96-.984.936 1.008.096a34.85 34.85 0 0 1-8.184-8.808 40.633 40.633 0 0 1-4.584-9.744 53.247 53.247 0 0 1-2.016-9.024 53.96 53.96 0 0 1-.432-6.84c0-.696.024-1.416.048-2.112.024-.312.072-.648.072-.96v-.048c.072-.408-1.104-.6-1.152-.264z"
      fill="var(--c, black)" />
    <path d="M62.636 44.232l-7.008-.552-2.712-3.312v-1.992l6.72-.12 3.216 5.304" fill="var(--a, blue)" />
    <path
      d="M62.612 44.352l-7.056-.576-2.76-3.384v-2.136l6.912-.12 3.24 5.352-.192.144-3.192-5.256-6.528.12v1.824l2.64 3.24 6.96.552-.024.24z"
      fill="var(--a, blue)" />
    <path
      d="M69.86 39.984c0-.264.024-.552.072-.816.072-.408.168-.816.288-1.224.12-.408.216-.792.36-1.2.072-.264.192-.528.336-.744.096-.144-.432-.024-.456 0-.192.048-.552.144-.672.336-.144.24-.264.528-.336.792a9.905 9.905 0 0 0-.36 1.2c-.096.408-.192.816-.264 1.2a3.533 3.533 0 0 0-.096.864c0 .12.552-.072.6-.096.096-.048.552-.168.528-.312z"
      fill="var(--c, black)" />
    <path
      d="M51.38 53.4c-.48.84-1.032 1.655-1.656 2.375a19.803 19.803 0 0 1-5.376 4.512 21.205 21.205 0 0 1-9.696 2.664c-3.96.12-7.872-.648-11.472-2.28-2.976-1.344-5.688-3.216-8.04-5.472-1.68-1.608-3.312-3.456-4.296-5.568-.24-.528-.528-1.2-.432-1.776.12-.792 1.368-.888 1.992-.888.72 0 1.44.12 2.112.36.144.048.312.096.432.144.168.072.384.144.456.192.072.048.168.072.24.12l.12.048c-.072-.048.024.024.024.024.144.072.264.168.384.264.48.312.84.792 1.032 1.32.168.576-.048 1.152-.312 1.656-.744 1.416-2.112 2.568-3.432 3.432a10.22 10.22 0 0 1-2.112 1.056c-.312.12-.648.192-.984.24-.144.024-.264.024-.408.024-.072 0-.12 0-.192-.024H9.74c-.096-.024-.048-.024-.048 0s-.168-.072.024.024l.144.072c-.096-.048.024.024.024.024-.072-.024 0-.024 0 0-.072-.096-.12-.12-.192-.216a2.659 2.659 0 0 1-.336-.696 7.141 7.141 0 0 1-.336-1.872 20.33 20.33 0 0 1 .096-3.624l.072-.648c.048-.312-1.056-.672-1.056-.552a21.43 21.43 0 0 0-.192 2.496c-.048 1.32-.048 2.808.48 4.056.552 1.296 1.992 1.824 3.312 1.536 1.608-.36 3.12-1.368 4.32-2.448a8.749 8.749 0 0 0 1.656-1.872c.336-.528.648-1.152.576-1.8-.072-.648-.456-1.152-.888-1.584a7.92 7.92 0 0 0-2.16-1.392c-1.392-.648-3.096-1.104-4.632-.84-.384.072-.936.216-1.176.576-.12.192-.144.432-.12.648.048.744.408 1.464.744 2.112a18.463 18.463 0 0 0 2.016 2.904 29.85 29.85 0 0 0 7.464 6.408c3.408 2.16 7.224 3.576 11.208 4.224 3.96.576 8.064.336 11.832-1.08a19.937 19.937 0 0 0 7.008-4.536 16.915 16.915 0 0 0 2.832-3.552c.024-.072.072-.12.096-.192.048-.264-1.032-.816-1.128-.6zM12.572 23.784c.48-.84 1.032-1.656 1.656-2.377a20.241 20.241 0 0 1 5.376-4.512 21.22 21.22 0 0 1 9.72-2.663c3.96-.12 7.872.671 11.472 2.28a29.256 29.256 0 0 1 8.04 5.471c1.656 1.608 3.312 3.456 4.296 5.569.24.527.528 1.2.432 1.752-.12.792-1.344.888-1.992.888-.72 0-1.44-.12-2.136-.36-.144-.049-.312-.097-.432-.145-.168-.072-.384-.168-.456-.192l-.24-.12-.12-.072c.072.049-.024 0-.024-.024a2.656 2.656 0 0 1-.384-.264 2.497 2.497 0 0 1-1.008-1.32c-.168-.576.048-1.151.312-1.655.744-1.416 2.112-2.569 3.432-3.409a10.039 10.039 0 0 1 2.088-1.055c.312-.12.648-.192.984-.24h.408c.072 0 .12 0 .192.024h.024c.096.024.048.024.048 0s.144.072-.024 0l-.144-.072c.096.047-.024 0-.024-.024 0 .024.072.024 0 0 .072.096.12.12.192.216.144.215.264.456.336.695.192.6.312 1.248.336 1.872a20.33 20.33 0 0 1-.096 3.625l-.072.648c-.048.311 1.056.671 1.056.552.12-.817.168-1.657.192-2.497.048-1.32.048-2.808-.48-4.032-.576-1.296-1.992-1.823-3.312-1.535-1.608.36-3.12 1.392-4.32 2.448-.624.552-1.2 1.175-1.656 1.872-.336.527-.648 1.151-.576 1.8.072.648.456 1.151.888 1.584a7.92 7.92 0 0 0 2.16 1.392c1.392.648 3.096 1.104 4.632.84.384-.072.936-.216 1.176-.552.12-.192.144-.433.12-.648-.048-.745-.408-1.489-.744-2.113a18.463 18.463 0 0 0-2.016-2.904 30.794 30.794 0 0 0-7.464-6.408 29.417 29.417 0 0 0-11.208-4.2c-3.936-.6-8.064-.335-11.808 1.08a20.313 20.313 0 0 0-7.032 4.513 17.179 17.179 0 0 0-2.784 3.527.719.719 0 0 0-.096.192c-.072.192.984.768 1.08.552z"
      fill="var(--a, blue)" />
  </g>
</svg>
