<svg xmlns="http://www.w3.org/2000/svg" viewBox="0 0 120 120" fill="none">
  <g id="doc">
    <path d="M50.396 4.286s-5.42-.51-5.963 6.345c-.542 6.855 0 17.25-5.484 18.334l22.447 3.57 2.997-17.79-13.997-10.46z"
      fill="var(--b, white)" />
    <path
      d="M50.268 3.617c-.893-.063-1.817.064-2.646.415-1.818.733-2.997 2.36-3.508 4.209-.286 1.275-.478 2.582-.478 3.921l-.191 3.922c-.16 2.52-.319 5.102-.989 7.557-.542 1.945-1.594 4.209-3.762 4.655-.829.192-.191 1.276.383 1.371l7.588 1.212 12.085 1.913 2.773.446c.224.064.479-.063.543-.287v-.063l1.02-6.027 1.626-9.533.383-2.2c0-.32-.16-.638-.447-.83l-4.75-3.538-7.525-5.612L50.65 3.84c-.255-.192-.702-.287-.861.063-.16.351.16.766.414.957l4.751 3.54 7.525 5.61 1.722 1.308-.447-.829-1.02 6.058-1.594 9.534-.383 2.2.574-.35-7.588-1.212-12.085-1.914-2.774-.446.383 1.371c2.04-.415 3.316-1.977 4.05-3.826.892-2.264 1.18-4.783 1.37-7.238.192-2.55.255-5.102.447-7.652.16-2.041.924-4.241 2.71-5.261.35-.192.701-.351 1.084-.479.16-.063.35-.095.51-.127-.127.032.064 0 .128-.032l.191-.032c.223-.032.446-.064.67-.064.095 0 .478.032.127 0 .925.032.415-1.339-.287-1.403z"
      fill="var(--c, black)" />
    <path
      d="M85.626 109.092s7.397-8.896 4.623-21.013c-3.858-16.93-19.96-28.536-19.768-34.148.191-5.612-6.664-7.493-14.89 6.058l9.756 23.02S43.697 35.917 34.77 36.395c-8.928.479-4.305 11.032.319 20.375 0 0-11.415 4.017-4.464 14.571 0 0-5.803 4.623.733 17.855 6.537 13.233 23.563 26.369 23.563 26.369"
      fill="var(--b, white)" />
    <path
      d="M86.108 109.73c.478-.606.892-1.212 1.275-1.882a27.816 27.816 0 0 0 2.455-5.101 26.324 26.324 0 0 0 1.53-7.684c.096-3.061-.35-6.09-1.275-8.992-1.626-5.325-4.4-10.203-7.556-14.73-1.435-2.073-2.966-4.05-4.528-5.995-.702-.893-1.435-1.786-2.136-2.678-.32-.415-.638-.797-.957-1.212l-.446-.574c-.064-.096-.128-.16-.192-.255l-.095-.128-.064-.063c-.287-.351-.542-.734-.829-1.084l-.383-.51-.191-.256-.16-.223-.127-.191c-.032-.064-.096-.16-.127-.223a3.026 3.026 0 0 1-.32-.542l-.063-.096c.032.032.064.128 0 0l-.128-.223c-.095-.16-.159-.319-.255-.479-.095-.159 0-.031 0 0l-.064-.127a1.554 1.554 0 0 1-.095-.223 2.21 2.21 0 0 1-.16-.415c-.063-.223-.127-.478-.19-.733-.097-.542-.033-1.148-.097-1.722a5.869 5.869 0 0 0-2.072-3.635 3.777 3.777 0 0 0-3.38-.605c-1.817.446-3.38 1.657-4.719 2.933a28.621 28.621 0 0 0-2.774 3.093c-.51.637-.988 1.307-1.435 1.977-.255.35-.478.733-.733 1.116-.096.159-.223.35-.319.51-.16.16-.255.382-.35.574-.032.16.159.446.19.574l.447 1.052 1.594 3.73 4.369 10.3 3.06 7.205.16.383.86.765-.956-2.009a283.461 283.461 0 0 0-2.614-5.42 415.562 415.562 0 0 0-3.794-7.525 278.13 278.13 0 0 0-4.624-8.609 199.883 199.883 0 0 0-5.101-8.705c-1.627-2.582-3.284-5.165-5.134-7.62a37.743 37.743 0 0 0-4.942-5.612c-1.084-.956-2.519-2.136-4.05-2.168-1.434-.032-3.092.383-4.113 1.403-1.02 1.02-1.307 2.55-1.275 3.954.064 1.913.606 3.826 1.212 5.643.797 2.232 1.69 4.4 2.71 6.505.51 1.116 1.052 2.2 1.594 3.284l-.095-.414a12.474 12.474 0 0 0-3.508 2.04c-2.04 1.69-3.38 4.081-3.188 6.76.16 2.295 1.211 4.432 2.423 6.345l-.191-.574c-1.084.86-1.722 2.455-2.04 3.762-1.085 4.305.382 8.992 2.104 12.914 2.231 4.974 5.452 9.438 8.991 13.551 3.188 3.666 6.6 7.11 10.203 10.362a101.765 101.765 0 0 0 5.644 4.783l.095.064c.224.159.32.127.224-.16a2.1 2.1 0 0 0-.67-.924 82.765 82.765 0 0 1-4.432-3.699 119.789 119.789 0 0 1-9.534-9.342c-3.316-3.667-6.44-7.62-8.704-12.053-2.073-4.017-3.858-8.864-3.093-13.455a8.808 8.808 0 0 1 1.116-3.22c.191-.287.383-.574.606-.861.127-.128.287-.255.383-.415l.031-.032c.128-.095-.16-.51-.191-.574-1.754-2.71-2.806-6.09-1.212-9.119.989-1.88 2.71-3.316 4.592-4.272.414-.224.86-.415 1.307-.606.096-.032-.095-.383-.095-.415-1.053-2.136-2.073-4.272-2.998-6.44-.86-1.913-1.498-3.922-1.977-5.963-.318-1.53-.51-3.22.032-4.719.51-1.37 1.69-2.232 3.061-2.582.957-.255 1.913-.351 2.87-.032.67.255 1.307.637 1.881 1.084l.064.032.127.095.287.224c.192.159.351.318.542.478l.255.223.032.032.16.16.542.541c.191.192.382.415.574.606l.16.16.031.063.287.351c.415.478.797.957 1.18 1.435l.287.35c.127.16 0 0 .063.096l.16.224c.191.286.414.542.606.829l1.243 1.721c.191.287.415.574.606.861l.16.223.095.128.319.478c.415.638.829 1.276 1.244 1.945 1.753 2.742 3.347 5.452 4.91 8.226a307.244 307.244 0 0 1 4.623 8.514c1.34 2.55 2.647 5.101 3.89 7.652.51 1.052 1.052 2.136 1.562 3.189l.67 1.37.064.16.032.096c-.032-.096.031.063.031.095l.096.192.287.573c.447.925.893 1.882 1.307 2.806l.064.128c.16.35.383.67.67.925.191.159.319.127.223-.16l-3.316-7.812-5.261-12.403-1.212-2.838.032.255c1.977-3.22 4.305-6.568 7.43-8.768 1.466-1.02 3.507-2.04 5.292-1.275.287.095.51.287.734.478-.128-.127-.032 0 0 0-.096-.127.127.096 0 0 .127.16-.096-.16.063.064-.127-.16-.032-.032.032.032-.127-.192-.032-.064 0 0 .064.16 0-.032.032.063.16.32.255.67.287 1.02.064.415.064.83.064 1.244.032 1.85 1.275 3.603 2.264 5.07 1.498 2.2 3.22 4.273 4.91 6.345 2.04 2.519 3.985 5.038 5.803 7.748 4.145 6.186 7.652 13.487 7.397 21.108a26.333 26.333 0 0 1-2.295 9.757 24.694 24.694 0 0 1-2.743 4.687c-.063.063-.095.159-.159.223-.223.414.829 1.562.925 1.435z"
      fill="var(--c, black)" />
    <path
      d="M39.363 93.245l8.418-65.906a4.46 4.46 0 0 1 5.006-3.858l29.876 3.795a4.46 4.46 0 0 1 3.858 5.006l-8.386 65.906a4.46 4.46 0 0 1-5.006 3.858l-29.876-3.827c-2.455-.287-4.177-2.518-3.89-4.974z"
      fill="var(--c, black)" />
    <path
      d="M72.811 101.375L65 100.387l-14.38-1.818c-2.583-.319-5.198-.605-7.78-.988a3.349 3.349 0 0 1-2.838-2.902 5.09 5.09 0 0 1 .032-1.211l.223-1.881 1.116-8.769 1.69-13.2 1.881-14.795 1.754-13.742 1.275-9.916.35-2.71c.129-.861.224-1.658.734-2.424a4.263 4.263 0 0 1 4.05-1.88l.637.063 4.177.542 13.998 1.786L82.44 27.88c.255.032.542.064.797.095a3.323 3.323 0 0 1 2.71 3.061c0 .606-.032 1.18-.127 1.786l-.925 7.301-1.563 12.34-1.88 14.667-1.818 14.252-1.403 11.096-.67 5.261c-.35 2.264-2.455 3.89-4.75 3.635-.351-.032-.351.415-.256.638.16.351.479.606.861.701 2.647.287 5.038-1.594 5.325-4.24.064-.574.16-1.116.223-1.658l1.084-8.61 1.69-13.168 1.913-15.017 1.786-13.902 1.275-10.076.351-2.678a6.233 6.233 0 0 0-.127-2.87 5.726 5.726 0 0 0-3.89-3.698 7.195 7.195 0 0 0-1.148-.192l-3.986-.478-14.061-1.785-10.81-1.403-.764-.096a4.782 4.782 0 0 0-4.369 2.168c-.542.83-.701 1.786-.829 2.742l-.892 7.015-1.563 12.371-1.88 14.795-1.85 14.475-1.403 11.256c-.223 1.753-.447 3.475-.67 5.229-.287 2.806 1.563 5.356 4.305 5.994.829.191 1.69.255 2.55.351l12.85 1.626 12.85 1.626 2.104.255c.383.032.35-.382.255-.637-.223-.415-.542-.67-.925-.734z"
      fill="var(--c, black)" />
    <path d="M49.97 31.468l-6.892 54.087 32.895 4.191 6.892-54.087-32.895-4.191z" fill="var(--b, white)" />
    <path
      d="M76.253 89.07l-3.284-.415-7.844-.989-9.533-1.211-8.195-1.052-2.71-.351c-.414-.064-.86-.128-1.275-.16h-.064l.478.638.192-1.435.51-3.953.733-5.803.893-7.11.988-7.749.989-7.875.924-7.302.797-6.217.574-4.432c.096-.702.224-1.403.255-2.105v-.096l-1.02.702 3.284.414 7.844.989 9.502 1.212 8.194 1.052 2.71.35c.415.096.861.128 1.276.16h.063l-.478-.638-.191 1.435-.478 3.954-.734 5.803-.893 7.11-.988 7.748-.988 7.876-.925 7.301-.797 6.218-.574 4.432a47.286 47.286 0 0 0-.255 2.104v.096c-.128.956 1.435.733 1.53-.064l.192-1.435.51-3.954.733-5.802.893-7.11.988-7.749.989-7.875.924-7.302.797-6.217.574-4.432.287-2.105v-.096a.57.57 0 0 0-.478-.637l-3.284-.415-7.844-.988-9.533-1.212-8.195-1.052c-1.339-.16-2.678-.35-4.017-.51h-.032c-.478-.096-.925.223-1.052.701l-.192 1.435-.51 3.954-.733 5.803-.893 7.11-.988 7.748-.989 7.876-.924 7.301-.797 6.218-.574 4.432-.287 2.104v.096a.57.57 0 0 0 .478.638l3.252.446 7.844.988 9.533 1.212 8.195 1.052c1.339.16 2.678.351 4.017.51h.064c.415.064.83-.159.989-.51.127-.287.031-.637-.256-.765-.095-.064-.127-.096-.19-.096zM58.687 96.305a2.519 2.519 0 1 0 0-5.038 2.519 2.519 0 0 0 0 5.038z"
      fill="var(--c, black)" />
    <path
      d="M60.406 94.33a2.342 2.342 0 0 1-.574 1.275 2.198 2.198 0 0 1-.414.35l-.128.065c.096-.064-.16.063.032 0-.128.063-.032 0 0 0s.096-.032.127-.032h-.063a2.383 2.383 0 0 1-2.169-1.276 2.433 2.433 0 0 1 .192-2.614c.127-.16.287-.319.446-.447a.514.514 0 0 1 .223-.127c-.063.032 0 0 .032 0-.063.032-.063.032 0 0l-.16.032c-.127 0-.031 0 0 0h.352c.223.032.446.095.67.191.988.478 1.53 1.53 1.434 2.583-.032.16.733-.032.797-.032.16-.064.67-.16.702-.415.127-1.147-.542-2.232-1.595-2.678a3.586 3.586 0 0 0-2.008-.096 4.565 4.565 0 0 0-2.041.925 2.59 2.59 0 0 0-.638 3.093c.574 1.116 1.786 1.562 2.998 1.403 1.498-.192 3.029-1.052 3.252-2.647.032-.159-.765.032-.83.064-.095.032-.605.128-.637.383zM70.77 31.102a.797.797 0 1 0 0-1.594.797.797 0 0 0 0 1.594zM66.658 28.998l-4.017-.447-.574-.063c-.255-.032.064.542.096.605.095.192.223.351.382.479.096.095.191.191.32.223l4.017.446.573.064c.255.032-.063-.542-.095-.606a1.41 1.41 0 0 0-.383-.478.539.539 0 0 0-.319-.223zM34.008 67.132S45.36 69.524 46.03 64.04c.797-6.792-8.545-9.247-13.424-5.804"
      fill="var(--b, white)" />
    <path
      d="M33.625 67.45c1.307.255 2.647.447 4.018.51 2.263.128 4.814.096 6.887-.924a4.04 4.04 0 0 0 2.04-2.009 5.656 5.656 0 0 0 0-3.699c-.829-2.487-3.188-3.953-5.611-4.591-2.998-.765-6.505-.415-9.056 1.371-.287.191.128.415.287.478a1.42 1.42 0 0 0 1.084-.16 7.72 7.72 0 0 1 3.093-1.243 8.925 8.925 0 0 1 3.316.064c2.168.447 4.24 1.69 5.166 3.763.797 1.817.67 4.304-1.148 5.388a6.685 6.685 0 0 1-2.455.765c-.479.064-.957.096-1.435.128H38.408a21.803 21.803 0 0 1-2.902-.287l-.287-.032h-.095l-.383-.064-.319-.064c-.319-.063-.829-.095-1.084.16-.255.255.064.383.287.446z"
      fill="var(--c, black)" />
    <path d="M33.402 78.61s8.227 4.05 12.563-.765C50.3 73.03 38.759 66.717 30.66 71.34" fill="var(--b, white)" />
    <path
      d="M32.761 79.056a16.692 16.692 0 0 0 4.432 1.403c2.806.51 5.867.255 8.227-1.562.988-.765 1.913-1.754 2.168-3.03.16-.892-.064-1.817-.606-2.582-1.34-2.04-3.922-3.188-6.218-3.73-3.475-.83-7.174-.351-10.298 1.37-.224.128-.67.447-.51.734.159.287.701.064.892-.032 2.424-1.371 5.293-1.722 8.035-1.243 2.232.382 4.624 1.275 6.186 2.997a4.033 4.033 0 0 1 1.116 2.232 2.98 2.98 0 0 1-.893 2.232c-.829.86-1.881 1.434-3.029 1.626-1.18.223-2.391.223-3.571.032a15.733 15.733 0 0 1-4.655-1.403c-.319-.16-.734.032-.989.223-.16.16-.574.606-.287.733z"
      fill="var(--c, black)" />
    <path
      d="M38.025 69.395c-1.307 1.85-.638 4.4.797 5.93a5.241 5.241 0 0 0 5.867 1.18c.765-.318 1.626-.892 1.69-1.817 0-.319-.287-.67-.542-.86-.096-.065-.67-.447-.67-.128-.032.637-.574 1.116-1.116 1.403a5.51 5.51 0 0 1-2.36.605c-.414 0-.828-.031-1.243-.159l-.574-.191c-.127-.064-.255-.16-.383-.224a.973.973 0 0 1-.255-.255 4.809 4.809 0 0 1-.478-.892 3.618 3.618 0 0 1-.223-1.658 3.52 3.52 0 0 1 .606-1.786c.287-.414-.893-1.467-1.116-1.148zM36.91 56.993c-.638 1.211-.861 2.837-.351 4.145.574 1.37 1.849 2.232 3.156 2.774 1.308.542 2.902.701 4.241.032a3.317 3.317 0 0 0 1.817-2.87c0-.574-1.466-1.148-1.466-.51-.032.892-.447 1.69-1.18 2.2-.893.606-1.977.733-2.997.382-.957-.319-1.85-.892-2.2-1.88-.255-.734-.255-1.531-.064-2.297.096-.446.255-.86.446-1.243.287-.51-1.148-1.275-1.402-.733z"
      fill="var(--c, black)" />
    <path
      d="M55.242 36.362l1.53.192c.192.032.383-.032.542-.128a.574.574 0 0 0 .224-.478c-.032-.415-.351-.765-.766-.797l-1.53-.192c-.191-.031-.383.032-.542.128-.128.127-.223.287-.223.478 0 .415.35.734.765.797zM55.275 38.085l1.53.192c.096 0 .255.032.35-.064.096-.096 0-.255-.031-.35a1.194 1.194 0 0 0-.383-.415l-.19-.128c-.097-.064-.224-.096-.32-.127L54.701 37c-.096 0-.255-.032-.351.064-.096.096 0 .255.032.35.096.16.223.32.383.415l.19.128c.096.032.224.095.32.127z"
      fill="var(--a, blue)" />
    <path d="M78.998 41.879s-26.145-3.699-26.56-3.412c-.414.287-3.38 26.56-3.38 26.56l26.529 3.667 3.411-26.815z"
      fill="var(--b, white)" />
    <path
      d="M61.554 56.227l.191-1.53c0-.096 0-.128-.095-.16l-1.53-.19c-.065 0-.097-.033-.097-.128.032-.255.064-.479.096-.734 0-.063 0-.095-.064-.095l-.287-.032-.51-.064v-.16c.064-.51.128-1.02.191-1.562 0-.095 0-.127-.095-.127-.223-.032-.415-.064-.638-.064-.127-.032-.127-.032-.16.127l-.19 1.563c0 .032 0 .096-.032.16l-.893-.128c-.032.287-.064.542-.096.829 0 .063-.032.095-.096.095-.51-.063-1.02-.127-1.562-.19-.095 0-.095-.033-.095-.128.063-.543.127-1.085.19-1.595 0-.095 0-.127-.095-.127a4.755 4.755 0 0 0-.67-.064c-.063 0-.095-.032-.095-.128 0-.095.032-.19.032-.287.032-.19.032-.35.063-.541l.128.031c.51.064.988.128 1.499.192.095 0 .127 0 .127-.128a4.79 4.79 0 0 0 .064-.638c0-.127.032-.127.16-.127l4.144.51.128.032v.128l-.096.669c0 .064 0 .096.064.096l1.594.191c.064 0 .096-.032.096-.096l.096-.67c0-.031 0-.063.032-.127l.86.128v.032l-.063.574c0 .095-.064.223-.032.286.032.064.16.032.255.064l.606.064c0 .064 0 .16-.032.223-.16 1.116-.287 2.2-.447 3.316 0 .096 0 .128.096.128.223.032.446.032.67.096.095 0 .127 0 .127-.096l.096-.67c0-.095.032-.095.127-.095.224.032.415.032.638.063.096 0 .128 0 .128-.127.063-.51.127-1.02.19-1.563l.033-.159h.127l1.371.16c.224.031.224.031.192.255-.032.223-.064.414-.064.637h-.064c-.223-.032-.478-.063-.701-.095-.064 0-.096 0-.096.095-.032.255-.064.479-.096.734 0 .095 0 .127.096.127l.67.064c.063 0 .095.032.063.127-.031.224-.063.415-.095.638-.032.128-.032.128-.16.128-.51-.064-.988-.128-1.498-.192-.096 0-.128 0-.128.096l-.096.67c0 .095-.031.127-.127.095-.797-.095-1.562-.191-2.36-.287-.095 0-.127-.032-.095-.16.064-.51.127-1.051.191-1.562 0-.095 0-.127-.096-.127-.223-.032-.446-.032-.701-.096-.096 0-.127 0-.127.096-.064.51-.128 1.02-.192 1.562 0 .032 0 .096-.032.128l-.829-.096c.096.032.096-.032.096-.063zm1.371-3.38c-.064 0-.096 0-.096.064l-.095.766c0 .063 0 .095.063.095l.734.096c.063 0 .095 0 .095-.064l.096-.765c0-.064 0-.096-.064-.096-.127 0-.255-.032-.382-.032l-.351-.063zm-1.913.447c-.032.255-.032.255.223.287l.574.064c.064 0 .096 0 .096-.064l.095-.765a.321.321 0 0 0-.032-.096 7.447 7.447 0 0 1-.829-.127c-.063.255-.095.478-.127.701zM55.305 49.022c.255-2.073.478-4.177.733-6.282 0-.095.032-.127.128-.095l5.962.733c.096 0 .128.032.096.128l-.765 6.217c0 .032 0 .064-.032.128l-6.122-.734v-.095zm5.452-.797l.478-3.827c.032-.223.032-.19-.16-.223l-4.144-.51c-.128-.032-.128-.032-.16.128-.159 1.466-.35 2.933-.51 4.432 0 .063 0 .127.096.127l4.24.51h.096c.032-.223.032-.446.064-.637zM74.627 44.94c0 .063-.032.127-.032.19l-.829 6.058c-.032.192 0 .16-.16.128l-5.834-.701c-.096 0-.128-.032-.096-.128.287-2.073.542-4.145.829-6.218 0-.031 0-.063.032-.095l6.09.765zM68.6 49.816l4.368.574c0-.063.032-.127.032-.19l.574-4.305c0-.096 0-.128-.096-.128l-4.177-.542h-.127l-.574 4.591zM69.814 57.374l.733.096c.734.096 1.467.16 2.2.255.096 0 .128.032.096.127-.032.096-.032.224-.064.351-.255 1.85-.542 3.699-.797 5.58 0 .096-.032.128-.127.128l-1.244-.16-4.464-.51c-.128 0-.128 0-.128-.16l.766-5.93c0-.096.032-.128.127-.128.957.16 1.913.255 2.902.351zm-2.168.638c-.128 0-.128 0-.16.127l-.574 4.21c-.032.127 0 .159.128.159l4.081.478c.128 0 .128 0 .16-.128.19-1.403.382-2.805.573-4.208.032-.128 0-.16-.127-.16l-2.04-.255v.032l-2.041-.255zM63.98 57.598c.031 0 .031.064.031.096-.064.51-.127 1.052-.191 1.562 0 .096-.032.096-.128.096-.191-.032-.414-.032-.638-.064-.095 0-.127.032-.127.128-.032.223-.064.446-.096.637 0 .096-.032.128-.127.096a3.924 3.924 0 0 0-.638-.064c-.128 0-.16 0-.16.128 0 .127-.031.382-.063.574-.032.191-.032.191.16.223.764.096 1.562.191 2.327.287.096 0 .127.032.096.127-.032.192-.064.415-.096.606 0 .096-.032.128-.128.096l-.637-.064c-.096 0-.128.032-.16.128a3.917 3.917 0 0 0-.063.605c0 .096-.032.128-.128.128-.191-.032-.383-.064-.574-.064-.096 0-.096-.032-.096-.127.032-.192.064-.415.064-.606 0-.128 0-.16-.127-.16-.224-.031-.447-.031-.67-.063-.096 0-.127.032-.16.127a3.905 3.905 0 0 0-.063.606c0 .096-.032.128-.128.096a3.905 3.905 0 0 0-.605-.064c-.064 0-.096-.032-.096-.128.032-.19.064-.382.064-.605 0-.224 0-.16-.128-.192a20.63 20.63 0 0 0-1.467-.16c-.095 0-.127-.031-.127-.159.064-.51.127-.988.191-1.498.032-.16 0-.16-.127-.16-.51-.063-.989-.127-1.499-.159-.064 0-.096-.032-.096-.128.032-.19.064-.414.064-.637.032-.16.032-.16.16-.128l2.327.287c.128 0 .128 0 .16-.127.031-.224.063-.447.063-.67 0-.064.032-.096.096-.096.223.032.446.064.67.064.063 0 .095.032.095.128l-.096.67c0 .095 0 .127.096.159.223.032.447.032.67.064.095 0 .127-.032.127-.128.032-.223.064-.446.064-.638 0-.095.032-.127.128-.095.223.032.446.063.67.063.095 0 .127-.032.127-.127 0-.096.032-.191.032-.287.031-.16.031-.319.063-.51.383.064.638.095.893.127zm-3.668 2.264c-.063 0-.095 0-.127.096-.032.255-.064.478-.096.733 0 .064 0 .096.096.128l.733.095c.064 0 .096-.032.128-.095.032-.224.063-.479.095-.702 0-.095-.032-.127-.095-.127l-.351-.032c-.16-.064-.287-.064-.383-.096z"
      fill="var(--c, black)" />
    <path
      d="M71.855 52.083l-.16-.032c-1.371-.16-2.71-.319-4.081-.51-.096 0-.128 0-.128.128-.032.223-.032.414-.095.637 0 .096 0 .128.095.128l3.125.382c.287.032.287.032.223.32-.032.19-.064.35-.064.541 0 .096-.031.128-.127.128l-1.499-.191c-.127 0-.127 0-.16.127-.031.255-.063.478-.095.733h.128c.51.064.988.128 1.498.16.096 0 .128.032.128.16-.032.223-.064.478-.096.7 0 .096-.063.128-.127.096-.224-.032-.415-.063-.638-.063l-.128-.032c0 .095-.031.191-.031.255-.032.16-.032.319-.064.478 0 .096 0 .128.095.128l2.105.255c.096 0 .16 0 .255.032.096.032.127 0 .127-.096l.192-1.34c0-.063 0-.159.032-.222.032-.064 0-.096-.096-.096l-.638-.064c-.127 0-.127 0-.095-.16.127-.828.223-1.625.35-2.454-.031 0-.031-.064-.031-.128zM54.542 55.526l.255.032.51.064c.064 0 .096.032.096.127a5.212 5.212 0 0 0-.064.702c0 .096-.032.127-.127.096a28.668 28.668 0 0 1-.638-.096c-.064 0-.096 0-.127.096-.032.223-.032.446-.064.67 0 .095 0 .127.095.127.224.032.415.063.638.063.096 0 .128.064.128.16-.032.191-.032.414-.064.606 0 .095 0 .16.127.16.192.031.415.031.606.063.064 0 .128 0 .128-.096.032-.191.032-.414.064-.637.032-.224.032-.16.159-.16.478.064.988.128 1.467.191.095 0 .127 0 .127-.127.032-.223.032-.447.064-.638 0-.064 0-.127-.096-.127-.223-.032-.446-.064-.67-.064-.095 0-.127-.064-.095-.16.064-.51.128-1.052.191-1.562 0-.096 0-.127-.095-.127l-2.392-.287c-.063 0-.095 0-.127.095-.032.287-.064.542-.096.83zM65.443 46.598l.096-.797v-.128l-.319-.032c-.16-.031-.287-.031-.446-.063-.096 0-.128-.032-.096-.128.032-.255.064-.51.096-.797l-.128-.032-.67-.096c-.063 0-.095-.031-.095-.127.032-.223.064-.478.096-.702v-.127c-.032 0-.064-.032-.096-.032l-.67-.096c-.063 0-.095 0-.095.096-.096.861-.224 1.754-.32 2.615v.063l.607.064c.255.032.255.032.223.319-.032.223-.064.446-.096.638l.893.127.127-.924.893.159zM65.444 46.599l-.128.924.638.064c.255.032.255.032.223.319l-.414 3.252c0 .032 0 .096-.032.128.287.032.542.063.797.095 0 0 .064-.032.064-.063.032-.128.032-.256.064-.383.223-1.626.414-3.284.637-4.91v-.096a.069.069 0 0 0-.064-.064c-.255-.032-.478-.064-.733-.096-.064 0-.064.032-.064.064l-.095.734v.127l-.893-.096zM56.74 59.48v.128c-.033.191-.033.383-.065.606 0 .16-.032.16-.16.127l-.573-.063c-.128 0-.128 0-.16.127-.031.191-.031.415-.063.606 0 .096 0 .096.095.127l1.499.192c.127 0 .16.032.127.16-.031.19-.031.414-.063.605 0 .096 0 .128.095.128.192.032.415.032.606.063.064 0 .128 0 .128-.095.063-.51.127-.989.191-1.499 0-.096-.032-.127-.096-.127a3.923 3.923 0 0 0-.637-.064c-.096 0-.128-.064-.128-.16.032-.223.064-.414.096-.637 0-.064 0-.128-.096-.128a56.33 56.33 0 0 1-.797-.096zM63.436 48.256l-.127.925.67.095c.19.032.19.032.159.224l-.064.542v.16l.86.095.352-2.742-.861-.096-.128.925-.86-.128zM65.54 59.576c.063-.542.127-1.084.222-1.626 0-.096 0-.128-.095-.16-.192 0-.415-.032-.606-.063-.064 0-.096 0-.096.095-.127 1.116-.287 2.232-.414 3.348 0 .064 0 .096.064.096.19.032.414.032.605.064.096 0 .096-.032.128-.096l.191-1.658zM73.606 52.305a55.087 55.087 0 0 1-.797-.096c-.032 0-.064.032-.064.064l-.095.574c-.096.637-.16 1.275-.256 1.913v.127l.096.032c.223.032.415.032.638.064.064 0 .096 0 .127-.096.064-.51.128-.988.224-1.498.031-.32.095-.638.127-.925-.032-.064 0-.096 0-.16zM58.908 56.037l.765.095c.064 0 .127 0 .127-.095.032-.224.064-.447.096-.702 0-.064 0-.096-.064-.096l-1.594-.159c-.064 0-.096 0-.096.064-.031.255-.063.478-.095.733 0 .064.032.096.064.096l.765.096.032-.032zM66.56 44.876l.096-.861c0-.032-.032-.064-.032-.064l-.83-.096c0 .128-.031.256-.031.383 0 .128-.032.287-.064.447 0 .031.032.063.032.063.287.032.542.064.83.128zM64.87 51.254l-.128.893.319.032.478.063c.064 0 .096 0 .096-.063.032-.256.064-.479.096-.702 0-.032-.032-.096-.032-.096-.287-.063-.574-.095-.83-.127z"
      fill="var(--c, black)" />
    <path
      d="M63.311 49.181l-.574-.063c-.255-.032-.255-.032-.287.255a3.906 3.906 0 0 0-.063.605l.67.096c.19.032.19.032.222-.16l.064-.605c-.032-.064-.032-.096-.032-.128zM63.438 48.257l.096-.766c0-.032 0-.095.032-.159a56.628 56.628 0 0 1-.797-.096.069.069 0 0 0-.064.064c-.032.287-.064.542-.096.83l.128.031.701.096zM68.855 54.506l-.829-.096-.128.893.383.032c.128 0 .255.032.383.032.032 0 .063-.032.095-.064.032-.223.064-.51.096-.797zM59.229 57.024c-.128 0-.223-.032-.319-.032-.064 0-.096 0-.096.096-.032.223-.063.478-.095.701 0 .064 0 .096.063.096.224.032.447.064.67.064.064 0 .096 0 .096-.096l.095-.67c0-.063 0-.127-.095-.127-.096 0-.192-.032-.32-.032zM63.15 57.47l.096-.86-.861-.096c-.032.287-.064.542-.096.797 0 .032.032.064.032.064.287.032.574.063.829.095zM61.077 56.354l-.35-.032c-.064 0-.064 0-.096.064l-.096.701c0 .064 0 .064.064.096l.701.096c.064 0 .064 0 .096-.064.032-.223.064-.478.096-.701 0-.064 0-.064-.064-.064l-.35-.096zM56.006 58.459c-.032.287-.064.542-.096.829 0 .032.032.064.064.064.223.032.478.064.701.095a.069.069 0 0 0 .064-.063c.032-.255.064-.479.096-.734a.069.069 0 0 0-.064-.063 7.669 7.669 0 0 0-.765-.128zM55.213 61.106l-.32-.032c-.063 0-.095 0-.095.096-.032.223-.032.446-.064.638 0 .063 0 .095.064.095.223.032.447.064.67.064.063 0 .095-.032.095-.096.032-.223.032-.446.064-.637 0-.064 0-.096-.064-.096-.063 0-.223-.032-.35-.032zM64.744 62.253l-.319-.032c-.064 0-.096 0-.096.064a4.79 4.79 0 0 0-.063.637c0 .064 0 .096.063.096.224.032.415.032.638.064.064 0 .096-.032.096-.096.032-.223.063-.415.095-.638 0-.063-.032-.095-.095-.095h-.32zM63.308 52.88l-.351-.032c-.064 0-.096 0-.096.063l-.095.766c0 .063 0 .095.063.095l.734.096c.063 0 .095 0 .095-.064l.096-.765c0-.064 0-.096-.064-.096-.16 0-.287-.032-.382-.063zM61.11 52.625l-.096.67c-.031.255-.031.255.224.286l.574.064c.063 0 .095 0 .095-.064l.096-.765a.32.32 0 0 0-.032-.095c-.319-.032-.574-.064-.86-.096zM60.664 59.926c-.128 0-.223-.032-.351-.032-.064 0-.096 0-.128.096-.031.255-.063.478-.095.733 0 .064 0 .096.095.128l.734.096c.064 0 .096-.032.127-.096.032-.223.064-.478.096-.701 0-.096-.032-.128-.096-.128l-.382-.096zM57.285 47.49l.16.032 2.36.287c.127 0 .127 0 .159-.128l.318-2.487c0-.127 0-.127-.127-.159l-2.36-.287c-.127 0-.127 0-.16.128l-.318 2.519c-.032 0-.032.031-.032.095zM72.618 46.566l-.096-.032-2.423-.32c-.064 0-.096 0-.096.065-.127.86-.223 1.753-.35 2.614v.064l.095.032 2.391.287c.096 0 .128 0 .128-.096.096-.829.223-1.658.319-2.487.032-.032.032-.064.032-.127zM69.56 59.193c-.383-.032-.766-.096-1.18-.16-.096 0-.128 0-.128.096-.095.797-.223 1.594-.318 2.391 0 .064 0 .128.095.128l2.36.255c.064 0 .095 0 .127-.096.096-.797.224-1.594.32-2.391 0-.096 0-.128-.128-.16-.383.032-.766-.032-1.148-.063zM65.446 53.677l-1.18-.16c-.095 0-.127 0-.127.096-.096.797-.223 1.595-.319 2.392 0 .063 0 .127.096.127.797.096 1.562.16 2.36.255.063 0 .095 0 .127-.095.096-.798.223-1.595.319-2.392 0-.096 0-.127-.128-.16-.382 0-.765-.063-1.148-.063z"
      fill="var(--c, black)" />
    <path
      d="M66.4 82.851L52.34 81.066c-2.328-.287-3.986-2.424-3.667-4.751.287-2.328 2.423-3.954 4.75-3.667l14.062 1.786c2.328.287 3.986 2.423 3.667 4.75-.319 2.296-2.423 3.954-4.75 3.667z"
      fill="var(--a, blue)" />
    <path
      d="M66.945 83.041c-.191 0-.383 0-.574-.031L52.31 81.224c-2.424-.255-4.177-2.423-3.922-4.815.255-2.423 2.423-4.177 4.815-3.922.063 0 .159.032.223.032l14.06 1.786a4.392 4.392 0 0 1 3.795 4.942c-.287 2.136-2.136 3.763-4.336 3.794zM52.852 72.775a4.112 4.112 0 0 0-4.177 3.985 4.098 4.098 0 0 0 3.667 4.145l14.06 1.786c2.233.287 4.273-1.308 4.56-3.54.287-2.231-1.307-4.272-3.539-4.56l-14.061-1.785c-.16-.031-.35-.031-.51-.031z"
      fill="var(--a, blue)" />
    <path
      d="M63.977 77.717c.446.35.51.86-.096 1.116a2.67 2.67 0 0 1-1.499.064c-.478-.096-.924-.32-1.243-.67a.997.997 0 0 1-.16-.319.306.306 0 0 1 .064-.287.453.453 0 0 1 .191-.063c.32.063.192-.128-.446-.606-.032.127 0 .255-.032.382a1.181 1.181 0 0 1-.16.351c-.159.191-.318.35-.541.478a1.665 1.665 0 0 1-1.594-.063 1.829 1.829 0 0 1-.702-1.116c-.064-.287-.319-1.722.255-1.595l-.223-.095c-.319-.574-.478-.702-.478-.351l-.032.191c-.032.128-.064.287-.096.415-.064.223-.16.478-.255.701-.223.51-.574.957-1.02 1.308-.606.478-1.945.828-2.551.159-.096-.128-.478-.478-.606-.223-.127.255.319.733.478.892.702.798 1.818 1.148 2.838.83 1.052-.32 1.722-1.212 2.073-2.2.19-.51.382-1.18.16-1.722-.16-.415-.862-1.435-1.436-1.148-.414.191-.319.988-.319 1.37a5.21 5.21 0 0 0 .542 1.818c.543 1.02 1.499 2.105 2.679 2.296.924.16 2.04-.446 2.072-1.467a2.108 2.108 0 0 0-.956-1.658c-.351-.255-.957-.319-1.053.224-.095.51.32 1.147.574 1.53.32.478.734.925 1.212 1.275.893.638 2.073.989 3.157.606 1.562-.574-.287-2.742-.989-3.284-.16-.127-.478-.319-.478 0s.478.702.67.86z"
      fill="var(--b, white)" />
    <path
      d="M78.995 103.608s-9.279-8.29-7.238-21.3c0 0-9.884-1.753-12.69-6.695-2.806-4.942 15.751-9.597 25.093-1.85 12.148 10.076 5.676 26.688 5.676 26.688"
      fill="var(--b, white)" />
    <path
      d="M79.761 103.544a19.994 19.994 0 0 1-2.997-3.57 25.41 25.41 0 0 1-4.145-9.853 23.978 23.978 0 0 1-.064-7.844c0-.064-.223-.095-.223-.095l-.383-.064c-.095-.032.128.032 0 0l-.095-.032-.223-.032c-.192-.032-.383-.096-.574-.127a36.467 36.467 0 0 1-3.189-.925c-2.582-.893-5.325-2.136-7.174-4.209-.574-.638-1.212-1.435-1.116-2.328a2.64 2.64 0 0 1 .925-1.658c1.53-1.434 3.73-2.072 5.74-2.487a21.964 21.964 0 0 1 8.034-.223c2.933.415 5.867 1.403 8.29 3.157 2.774 2.009 4.942 4.719 6.345 7.843 1.18 2.71 1.786 5.58 1.85 8.546a29.256 29.256 0 0 1-1.627 10.745l-.063.159c-.032.128.733.128.797.128.16 0 .701.032.797-.16.319-.892.606-1.817.829-2.742.542-2.232.829-4.495.893-6.791.095-2.934-.383-5.835-1.34-8.61-1.211-3.251-3.22-6.153-5.898-8.385-4.91-4.24-11.925-5.006-18.047-4.24-2.423.318-5.006.892-7.11 2.2-1.148.701-2.52 1.976-1.882 3.475.479 1.148 1.53 2.104 2.52 2.838a17.285 17.285 0 0 0 3.89 2.168 34.05 34.05 0 0 0 6.28 1.945l.351.064-.223-.096a23.882 23.882 0 0 0 1.594 12.913 26.58 26.58 0 0 0 4.56 7.27c.35.415.733.797 1.148 1.18.191.159.733.095.988.064.096-.032.702-.096.542-.224z"
      fill="var(--c, black)" />
    <path d="M53.143 52.707l-1.225 9.615 21.192 2.7 1.225-9.615-21.192-2.7z" fill="var(--b, white)" opacity=".74" />
    <path
      d="M52.63 53.007l7.397.988 11.702 1.563 2.71.35c.16.032.797.064.829-.16.032-.222-.638-.318-.765-.318l-7.398-.989-11.701-1.562-2.71-.35c-.16-.033-.798-.064-.83.159-.031.255.638.319.766.319z"
      fill="var(--a, blue)" />
    <path
      d="M78.676 26.957s3.635-9.406-.032-15.974c-3.666-6.568-28.25-6.696-28.25-6.696s8.769 3.412 3.412 19.514l24.87 3.156z"
      fill="var(--b, white)" />
    <path
      d="M79.409 27.243c.35-.957.637-1.913.86-2.902.543-2.2.798-4.432.766-6.664-.064-2.327-.542-4.91-1.818-6.919-.733-1.116-1.849-1.945-2.997-2.582-2.997-1.659-6.44-2.424-9.788-2.998-3.476-.574-7.015-.988-10.554-1.18-1.882-.127-3.763-.223-5.612-.223h-.096c-.223 0-.51.032-.51.32 0 .286.383.478.606.573.223.096-.191-.095.032.032.223.128.383.223.606.35-.255-.159-.032 0 .031.033l.224.16c.16.095.287.222.414.35.064.064.287.255.128.095l.255.256c.16.159.319.35.478.51l.223.287.128.16.096.127c.159.255.318.478.446.733.319.574.574 1.212.797 1.85a15.58 15.58 0 0 1 .67 5.133c-.064 2.965-.797 5.898-1.722 8.736-.16.479.67.734.988.765l8.386 1.084 13.392 1.722 3.092.383c.287.032.606-.128.479-.447-.128-.318-.638-.478-.957-.541l-8.417-1.085-13.392-1.721-3.093-.383.989.765c1.434-4.336 2.486-9.31 1.18-13.806-.638-2.2-1.914-4.272-3.827-5.612a5.795 5.795 0 0 0-1.371-.765l.096.893c1.466 0 2.965.064 4.432.16 3.252.159 6.6.446 9.725.924 1.753.255 3.507.574 5.229 1.02.414.096.829.192 1.211.32.192.063.383.127.606.159.032 0 .16.031 0 0l.16.031.318.096c.734.223 1.435.51 2.137.797l.255.096c-.128-.064.127.064 0 0l.127.064c.16.063.32.16.479.255.286.16.573.319.86.51l.096.064c-.032 0-.127-.096-.032 0l.192.127c.127.096.255.192.35.287.096.096.223.192.32.287-.097-.095.031.032.063.064l.16.16c.095.095.19.19.254.318l.128.16.064.063c-.032-.063-.032-.032 0 0 .255.415.478.861.67 1.34.477 1.147.796 2.39.924 3.634.446 3.603-.16 7.398-1.371 10.81-.032.063-.032.127-.064.19-.191.543 1.307 1.117 1.499.575z"
      fill="var(--c, black)" />
    <path
      d="M60.183 13.055c.638-.957 1.754-1.627 2.933-1.499.51.064.989.319 1.084.86.032.192 0 .383-.127.511-.096.096-.191.032-.096.096l.064.797c.478-.702 1.275-.989 2.073-1.148.414-.064.86-.064 1.275-.128h.096c-.096-.127-.192-.19-.287-.127v.16c0 .063-.032.159-.032.223-.096.318-.192.063.223.095l.383.128c.159.095.19.191.127.319.032-.032.064-.032.096-.032a6.22 6.22 0 0 0 .446-.192c.255-.095.542-.223.83-.287.541-.19 1.147-.223 1.72-.159a2.17 2.17 0 0 1 1.818 1.498c.224.798 1.786.638 1.563-.255-.32-1.275-1.499-2.168-2.742-2.455-1.499-.35-3.189.064-4.528.766-.638.35-1.116 1.147-.447 1.753.67.606 1.595.16 1.945-.542.256-.542.288-1.307-.159-1.753-.51-.542-1.34-.383-2.009-.32-1.403.128-2.901.575-3.762 1.754-.191.255-.16.606.064.797.829.67 2.04.543 2.678-.286.032-.032.032-.064.064-.064.67-.989.064-2.264-.893-2.838-1.913-1.148-4.623-.096-5.803 1.626-.51.765.925 1.403 1.403.702zM60.12 19.113c.766-.605 1.85-1.275 2.87-1.243.51.064.893.414 1.02.925a1.31 1.31 0 0 1 0 .701 1.95 1.95 0 0 1-.159.383c-.032.063-.096.127-.16.191-.159.128-.127.128.064.064l.766-.032c.095 0 0-.064-.032-.128a.442.442 0 0 1 0-.287.756.756 0 0 1 .287-.478c.287-.223.606-.319.956-.287.766-.064 1.563.191 1.818.989.127.382 1.658.063 1.594-.192-.478-1.307-2.072-1.37-3.252-1.275-.893.064-3.157.287-2.965 1.658.095.733 1.307.51 1.753.319.542-.223.925-.734.957-1.308a1.48 1.48 0 0 0-.67-1.339c-.574-.382-1.307-.382-1.945-.319a7.86 7.86 0 0 0-4.304 1.627c-.255.19.16.287.319.287.382 0 .765-.064 1.084-.256zM71.981 20.58c.383 0 .35-.574.255-.797-.096-.383-.446-.638-.829-.67-.382 0-.35.574-.255.797.128.383.447.67.83.67z"
      fill="var(--c, black)" />
  </g>
</svg>