<svg xmlns="http://www.w3.org/2000/svg" fill="none" viewBox="0 0 120 120">
  <g id="doc">
    <path fill="var(--b, white)" d="M55.92 72.58H36.43l-1.58 10.77H57.5l-1.58-10.77Z" />
    <path fill="var(--c, black)"
      d="M55.92 72.05H36.43a.68.68 0 0 0-.57.43l-.53 3.65-.87 5.8-.19 1.33c-.05.38.2.62.58.62h19.87c.91 0 1.85.05 2.76 0h.05c.26 0 .62-.29.6-.58l-.53-3.64-.86-5.81-.2-1.32a.58.58 0 0 0-.62-.48c.02 0 .02 0 0 0-.24.02-.62.26-.58.57l.53 3.65.87 5.81.19 1.32.6-.58H35.78c-.28 0-.6-.02-.88 0h-.05l.57.63.53-3.65.87-5.8.19-1.33-.58.43h19.49c.31 0 .58-.26.6-.57 0-.31-.31-.48-.6-.48Z" />
    <path fill="var(--b, white)"
      d="M10.8 17.02h70.6a3.01 3.01 0 0 1 3.03 3.02v49.7a3.01 3.01 0 0 1-3.02 3.03H10.8a3.01 3.01 0 0 1-3.02-3.03v-49.7a3.03 3.03 0 0 1 3.02-3.02Z" />
    <path fill="var(--c, black)"
      d="M10.3 17.33h70.58a3 3 0 0 1 3 3v49.61c0 .33-.05.67-.14.98a2.7 2.7 0 0 1-.84 1.25c-.32.19-.65.29-1.01.26H11.3a3.03 3.03 0 0 1-3-3V19.82a2.77 2.77 0 0 1 .82-2.06 1.6 1.6 0 0 1 1.18-.43c.26-.03.5-.12.72-.27.02-.02.4-.33.26-.33-1.97.02-4 1.56-4.03 3.62v49.71a3.08 3.08 0 0 0 3.05 3.04h70.77c1.92-.07 3.84-1.63 3.87-3.62v-49.7a3.1 3.1 0 0 0-3.08-3.05H11.28c-.24.02-.48.12-.7.26-.02.03-.4.34-.28.34Z" />
    <path fill="var(--c, black)"
      d="M10.8 16.4h70.6a3.03 3.03 0 0 1 3.03 3.02v41.64H7.78V19.42a3.01 3.01 0 0 1 3.02-3.03Z" />
    <path fill="var(--c, black)"
      d="M11.18 16.6h70.59c1.2.03 2.04 1.4 2.09 2.5.02.72 0 1.42 0 2.14v39.65l.19-.07H10.5c-.98 0-1.99-.03-2.97 0h-.12l.96.36V20.2c0-1.06.12-2.07.96-2.83a2.74 2.74 0 0 1 1.84-.77c.22 0 .22-.12.05-.24a1.6 1.6 0 0 0-.81-.22 3.2 3.2 0 0 0-3.12 2.28c-.1.34-.12.7-.12 1.03V59c0 .6-.05 1.23 0 1.83v.07c0 .29.76.36.96.36H81.7c.98 0 1.99.02 2.97 0h.12c.03 0 .2 0 .2-.07V19.92c.02-.46-.03-.89-.15-1.34-.5-1.61-2.26-2.4-3.84-2.43H10.42c-.24 0-.22.12-.05.24.24.15.53.24.81.22Z" />
    <path fill="var(--a, blue)"
      d="M46.3 66c.14 0-.12-.02.02 0h.1l.12.02h-.03l.2.08.02.02c.05.02.05.02-.03-.02.03 0 .08.04.1.07l.07.07c.1.07-.02-.02-.02-.02s.12.14.14.14c.03.02.03.05.05.07l.02.07c0 .03.08.17.03.08-.05-.1 0 .04 0 .04l.02.1c0 .02 0 .07.03.1-.03-.12 0-.03 0 0 0 .02 0 .14-.03.21-.02.07.03-.12 0 0l-.02.12c0 .05-.1.22-.03.1-.02.07-.07.12-.1.17-.04.04-.06.12-.11.16.02-.02.07-.1 0 0l-.1.1c-.02.02-.21.14-.07.07l-.2.1-.18.07c.02 0 .1-.02 0 0l-.15.02h-.1l-.21-.02h-.02l-.08-.02-.12-.05-.02-.03c-.05-.02-.05-.02.02.03-.04 0-.14-.1-.16-.12-.03-.03-.12-.07-.03-.03.1.05 0 0-.02-.02-.05-.05-.1-.1-.12-.17l.02.03-.07-.15-.02-.07c-.03-.07-.03-.12-.03-.2 0-.06 0 .13 0 0v-.22c0-.12-.02.07 0-.03l.07-.24c-.04.05.05-.12 0 0 .05-.04.05-.1.08-.12l.14-.19c-.02.03-.07.07 0 .03l.1-.08.1-.07c.02-.02.14-.07.02-.02.07-.05.14-.07.21-.1l.1-.02c.12-.05-.05 0 .05 0s.14-.05.24-.05a.46.46 0 0 0 .4-.55c0-.03 0-.05-.02-.07a.67.67 0 0 0-.67-.53c-.84.02-1.61.57-1.87 1.37-.3.86 0 1.82.72 2.4.7.55 1.68.62 2.44.14a2.07 2.07 0 0 0 .9-2.18 2.2 2.2 0 0 0-.78-1.28 2.3 2.3 0 0 0-1.41-.48c-.27.03-.46.3-.43.56 0 .02 0 .04.02.07.1.36.38.57.7.55Z" />
    <path fill="var(--b, white)" d="M81.26 19.56H10.78v38.5h70.48v-38.5Z" />
    <path fill="var(--c, black)"
      d="M10.92 20.11h67.6c.92 0 1.83.05 2.74 0h.12l-.62-.72V56.3c-.02.5-.02 1.01 0 1.52v.07l.36-.36h-67.6c-.92 0-1.83-.05-2.74 0h-.12l.62.72V24.48c0-1.56.05-3.12 0-4.68v-.07a.82.82 0 0 0-.5-.7c-.17-.07-.39 0-.46.17-.02.05-.02.12-.02.17V53.1c0 1.56-.05 3.12 0 4.68v.07c0 .3.28.72.62.72h70.49c.19 0 .33-.14.36-.33V24.48c0-1.56.05-3.12 0-4.68v-.07c0-.29-.29-.72-.63-.72H10.66c-.68 0-.27 1.1.26 1.1Z" />
    <path fill="var(--a, blue)"
      d="M16.1 24.74a.91.91 0 1 0 0-1.82.91.91 0 0 0 0 1.82Zm3.32-.04a.91.91 0 1 0 0-1.83.91.91 0 0 0 0 1.83Zm3.33.04a.91.91 0 1 0 0-1.82.91.91 0 0 0 0 1.82Z" />
    <path fill="var(--c, black)"
      d="M42.05 31.32c.26-1.56 1.1-3.2 2.59-3.89.43-.19.89-.29 1.37-.29.1 0 .19 0 .29.03.1.02.38.02.43.1l-.15-.05.15.07a4.27 4.27 0 0 1 1.66 2.33c.04.14.4.24.52.28.05.03.58.17.58.17a4.65 4.65 0 0 0-3.53-3.21 3.64 3.64 0 0 0-4.06 1.5 6.06 6.06 0 0 0-1 2.53c.02.14 1.15.45 1.15.43Z" />
    <path fill="var(--a, blue)"
      d="M40.7 42.48s-2.25-11.35-2.04-11.52c.22-.17 11.74-2.23 12.53-1.97.8.27 2.02 11.47 1.68 12.1-.33.62-12.07 1.9-12.17 1.39Z" />
    <path fill="var(--a, blue)"
      d="M41.33 42.72c-.15 0-.31 0-.46-.02-.1-.03-.26-.05-.29-.17-2.28-11.43-2.06-11.6-1.99-11.64.17-.15 4.06-.82 6.1-1.18 2.23-.38 6.05-.98 6.53-.81.12.04.21.19.3.45.78 2.04 1.78 11.19 1.45 11.81-.36.67-9.31 1.56-11.64 1.56Zm-.53-.29c.8.34 11.54-.91 11.95-1.39.24-.46-.6-9.05-1.39-11.42-.14-.44-.22-.48-.24-.48-.67-.24-11.45 1.6-12.38 1.92 0 .67 1.22 7.1 2.06 11.37Z" />
    <path fill="var(--b, white)"
      d="m44.3 40.92.84-4.46s-2.2-1.56-1.1-3.41 3.2-1.23 4.22 0c1.04 1.22-.6 3.36-.6 3.36l1.85 3.91-5.2.6Z" />
    <path fill="var(--c, black)"
      d="m44.16 41.06.86-4.56c-.36-.28-2.1-1.77-1.08-3.52a2.3 2.3 0 0 1 1.83-1.23c.91-.07 1.92.41 2.59 1.2.98 1.18-.29 3.1-.55 3.46l1.9 3.98-5.55.67Zm1.8-9.07h-.17c-.7.07-1.32.48-1.63 1.1-1.03 1.73.98 3.2 1.06 3.27l.07.05-.82 4.39 4.87-.58-1.8-3.81.05-.05c.03-.02 1.56-2.06.6-3.22A3.1 3.1 0 0 0 45.96 32ZM36.77 45.5h18.67a3.03 3.03 0 0 1 0 6.05H36.77a3.03 3.03 0 0 1 0-6.05Z" />
    <path fill="var(--c, black)"
      d="M55.44 51.67H36.77a3.15 3.15 0 0 1-3.15-3.14 3.15 3.15 0 0 1 3.15-3.15h18.67a3.15 3.15 0 0 1 3.14 3.15 3.15 3.15 0 0 1-3.14 3.14Zm-18.67-6.05a2.9 2.9 0 1 0 0 5.81h18.67a2.9 2.9 0 1 0 0-5.8H36.77Z" />
    <path fill="var(--b, white)"
      d="M38.26 49.49a.91.91 0 1 0 0-1.83.91.91 0 0 0 0 1.83Zm3.96.02a.91.91 0 1 0 0-1.82.91.91 0 0 0 0 1.82Zm3.91 0a.91.91 0 1 0 0-1.82.91.91 0 0 0 0 1.82Zm3.93 0a.91.91 0 1 0 0-1.82.91.91 0 0 0 0 1.82Zm3.94 0a.91.91 0 1 0 0-1.82.91.91 0 0 0 0 1.82Z" />
    <path fill="var(--c, black)"
      d="M49.7 49.03a.38.38 0 1 0 0-.77.38.38 0 0 0 0 .77Zm-3.12-.05a.38.38 0 1 0 0-.76.38.38 0 0 0 0 .76Z" />
    <path fill="var(--a, blue)"
      d="m34.56 31.51.2.07c-.2-.04-.06-.02 0 0l.06.03.39.14-.07-.02.04.02.1.05.17.1.17.1-.08-.06.05.03.1.05c.14.07.26.14.43.19.1.02.2.05.29.02.19-.1-.2-.38-.27-.4a9.69 9.69 0 0 0-1.96-.9.46.46 0 0 0-.32-.02c-.07.05-.04.12-.02.17.2.22.46.38.72.43Zm.04-3.17 2.46 2.45c.24.2.57.17.81-.05.22-.19.31-.5.1-.72l-2.45-2.44c-.24-.2-.58-.17-.82.04-.21.17-.28.48-.12.7.03 0 .03 0 .03.02Z" />
    <path fill="var(--b, white)"
      d="M93.38 103.6s6.87-3.16 7.5-10.65c.62-7.49 4.67-7.75 6.09-10.85 1.41-3.1-.27-8.28-8.04-2.61L93.1 81.9s-6.03-28.99-11.14-30.79c-5.11-1.8-5 5.16-4.56 11.47 0 0-7.32-.4-5.9 7.1 0 0-4.32 1.23-3.77 10.18.55 8.95 6.98 20.26 6.98 20.26" />
    <path fill="var(--c, black)"
      d="M93.77 104.02c.67-.32 1.3-.7 1.9-1.16a14.59 14.59 0 0 0 3.52-3.55 12.76 12.76 0 0 0 2.26-6.19c.19-2.18.72-4.34 2.04-6.14.84-1.16 1.99-2 2.93-3.03a5.55 5.55 0 0 0 1.56-3.48c.07-1.25-.36-2.57-1.42-3.31-1.51-1.06-3.43-.62-5 .07-.62.29-1.22.63-1.8.99-.42.26-.83.6-1.24.84l-.5.21-.9.36-4.12 1.7-.29.13.91.5c-.33-1.58-.7-3.17-1.05-4.75-.84-3.5-1.73-7.01-2.74-10.49a83.26 83.26 0 0 0-3.72-10.63 19.38 19.38 0 0 0-1.99-3.58c-.34-.45-.7-.89-1.13-1.25a4.2 4.2 0 0 0-1.82-.81 3.29 3.29 0 0 0-2.6.38c-.69.5-1.1 1.32-1.36 2.11-.75 2.36-.63 4.95-.5 7.4.02.67.07 1.34.11 2.01l.32-.24a7.58 7.58 0 0 0-2.55.34 5.14 5.14 0 0 0-3.5 3.05 7.75 7.75 0 0 0-.17 4.05l.17-.31a4.3 4.3 0 0 0-1.92 1.42c-1.49 1.75-1.95 4.2-2.07 6.43-.16 3.38.5 6.74 1.5 9.98a70.4 70.4 0 0 0 3.38 8.67 42.11 42.11 0 0 0 2.18 4.27l.02.07c.17.26.44.4.75.4.14 0 .29-.09.29-.26a.45.45 0 0 0-.05-.19 70.79 70.79 0 0 1-5.06-11.42 32.82 32.82 0 0 1-1.93-9.6c-.04-2.45.2-5.19 1.64-7.27a4.95 4.95 0 0 1 1.84-1.66l.12-.05c.03 0 .03 0 .05-.02a.26.26 0 0 0 .2-.29v-.02c-.37-1.9-.22-4.08 1.34-5.43a4.9 4.9 0 0 1 1.8-.98c.29-.1.6-.17.91-.24l.12-.03.22-.02c.12-.02.24-.02.36-.05.28-.02.57-.05.86-.02.12 0 .31-.1.31-.24-.17-2.55-.36-5.19.03-7.73.14-.94.33-1.87.84-2.69a2.2 2.2 0 0 1 1.68-1.1c.43-.03.84.02 1.24.17.1.02.2.07.27.1.12.04-.15-.08-.03-.03l.24.14c-.21-.12.08.05.12.1l.12.1c.15.11-.07-.08.05.04.17.17.34.36.5.55.03.05.08.1.1.15l.07.1c-.1-.13 0-.03 0 0 .1.11.17.23.24.35.17.27.34.5.48.8.36.6.68 1.24.96 1.87 1.5 3.19 2.62 6.7 3.63 10.13a226.1 226.1 0 0 1 3.6 14.13 48.11 48.11 0 0 0 .4 1.87c.08.32.6.63.92.5l3.19-1.31 2.02-.84.52-.22c.34-.17.65-.38.94-.6 1-.72 2.11-1.27 3.29-1.68.38-.12.79-.21 1.2-.24h.43c.07 0 .14.03.24.03.05 0 .31.07.17.02l.21.07.08.03c-.12-.08.14.04 0 0l.16.1.08.04c-.17-.1 0 0 .02.02l.14.12c-.12-.12.03.03.05.08.03.04.1.1.12.14-.1-.12.05.07.07.12l.1.17.05.1.14.38a4.88 4.88 0 0 1-1 4.13c-.82 1-1.95 1.84-2.81 2.83-1.28 1.46-2 3.24-2.36 5.13-.24 1.25-.26 2.52-.55 3.77-.24 1.03-.6 2.02-1.1 2.95a13.97 13.97 0 0 1-5.81 5.57c-.12.07.07-.02-.05.03-.48.28.41 1.03.82.84Z" />
    <path fill="var(--a, blue)"
      d="M69.12 90.74 83.9 54.72a3.34 3.34 0 0 1 4.4-1.82l15.67 6.43a3.34 3.34 0 0 1 1.82 4.39L91.01 99.74a3.34 3.34 0 0 1-4.4 1.83l-15.67-6.43a3.4 3.4 0 0 1-1.82-4.4Z" />
    <path fill="var(--a, blue)"
      d="m86.98 101.14-4.42-1.83-7.87-3.24-2.69-1.1c-.74-.31-1.44-.6-1.94-1.3a3.2 3.2 0 0 1-.36-3.07l.45-1.1 2.02-4.92 3-7.32 3.36-8.16 3.07-7.47 2.16-5.28c.4-.98.74-2.3 1.68-2.88.77-.45 1.7-.5 2.52-.14l.36.14 2.35.96 7.78 3.2 5.11 2.08a3.12 3.12 0 0 1 1.78 3.84c-.08.24-.2.46-.27.7l-1.68 4.13-2.83 6.88-3.34 8.12-3.19 7.77-2.45 5.95c-.36.87-.7 1.76-1.08 2.62-.19.53-.55.96-1.03 1.27a2.7 2.7 0 0 1-2.5.15c-.43-.17-1.27.62-.69.84 2 .79 4.4-.3 5.23-2.26.1-.22.2-.43.27-.65l1.77-4.34 2.93-7.13 3.38-8.26 3.2-7.8 2.35-5.76.67-1.6c.17-.36.29-.72.4-1.08a3.68 3.68 0 0 0-2.2-4.25l-1.68-.7-7.51-3.07-6.15-2.52-.43-.17c-1-.36-2.11-.29-3.07.2a4.45 4.45 0 0 0-2.14 2.3l-1.41 3.45-2.69 6.58-3.34 8.11-3.28 8.09-2.62 6.38-1.3 3.15c-.5 1.2-.45 2.57.34 3.67.43.58.98 1 1.66 1.27l.55.24 6.62 2.71 7.2 2.96 1.23.5c.45.17 1.32-.62.72-.86Z" />
    <path fill="var(--b, white)" d="M84.81 56.86 72.26 87.44l18.59 7.62 12.54-30.57-18.58-7.63Z" />
    <path fill="var(--c, black)"
      d="M80.93 95.38c-.1.26-.29.48-.53.64l-.07.05s-.12.05-.05.03c-.05.02-.12.02-.02 0h.02l.12-.03c.22-.02-.07 0 .07 0h-.17a1.47 1.47 0 0 1-.64-2.59.4.4 0 0 0 .12-.1s.12-.04.04-.02c.03-.02.12-.02.03-.02h-.03l-.12.02c-.21.02.08 0-.07 0h.05c.29.02.55.14.8.34.47.43.64 1.1.4 1.7-.02.1.58.02.6 0 .14-.02.29-.07.4-.12.08-.02.13-.05.15-.12.24-.65.05-1.37-.5-1.8a1.84 1.84 0 0 0-1.06-.34c-.55 0-1.13.12-1.63.36-.8.36-1.13 1.3-.77 2.07.24.53.75.89 1.32.91a3.2 3.2 0 0 0 1.78-.34c.36-.16.67-.48.81-.84.05-.14-.38-.07-.43-.07-.14.03-.31.05-.45.1.02.05-.15.1-.17.17Zm15.89-35.64a.48.48 0 1 0 0-.96.48.48 0 0 0 0 .96Zm-4.66-2.04 2.26.96.3.14c.13.05-.11-.38-.11-.4-.07-.15-.17-.27-.27-.4a.73.73 0 0 0-.19-.18l-2.25-.96-.32-.15c-.12-.05.12.39.12.41.08.14.17.26.27.38.05.05.12.15.19.2Z" />
    <path fill="var(--b, white)" d="M74.33 68.09s5.78 3.98 7.44 1.08c2.04-3.6-2.62-7.15-6.15-6.39" />
    <path fill="var(--c, black)"
      d="M73.87 68.33c.65.43 1.32.84 2.02 1.17a9 9 0 0 0 3.98 1.16c.65.02 1.3-.17 1.83-.56.6-.43.93-1.2 1.08-1.9.36-1.65-.53-3.23-1.78-4.26a6.81 6.81 0 0 0-5.66-1.5c-.24.06-.44.3-.3.54.15.24.54.28.8.24 1.34-.3 2.8.14 3.94.96 1.12.81 1.99 2.06 1.84 3.5a2.86 2.86 0 0 1-.76 1.75 1.4 1.4 0 0 1-.5.31c-.2.08-.42.1-.6.1h-.32a2.1 2.1 0 0 1-.43-.05l-.2-.02a2.9 2.9 0 0 1-.55-.14c-.55-.17-1.08-.39-1.58-.63a21.41 21.41 0 0 1-1.87-1.06c-.07-.04-.24-.16-.05-.02a.82.82 0 0 0-.84-.1.34.34 0 0 0-.17.44c.05-.03.07.02.12.07Z" />
    <path fill="var(--b, white)" d="M71.3 74.38s3.65 4.17 7.2 2.52c3.56-1.66-1.44-7.92-7.03-7.23" />
    <path fill="var(--c, black)"
      d="M70.92 74.38c.74.84 1.63 1.56 2.6 2.16 1.53.93 3.42 1.53 5.18.84.6-.2 1.08-.63 1.34-1.2.2-.56.22-1.13.02-1.68a7.29 7.29 0 0 0-2.95-3.63 8.95 8.95 0 0 0-6-1.65c-.5.04.31.88.67.84a7.3 7.3 0 0 1 6.2 2.28c.38.4.72.88.93 1.41.41.94.31 2.02-.62 2.6-1.35.81-3.03.55-4.35-.17a6.23 6.23 0 0 1-.93-.6l-.46-.36-.07-.05c-.14-.12.1.07-.05-.05l-.17-.14c-.16-.17-.36-.34-.52-.5l-.1-.1c.02.02.1.1 0 0-.17-.2-.46-.44-.72-.41-.26.02-.12.29 0 .4Z" />
    <path fill="var(--c, black)"
      d="M75.94 70.49c-1.04.65-1.42 1.99-1.13 3.14.33 1.37 1.9 2.14 3.21 2.11.63 0 1.4-.19 1.68-.81.22-.43-.67-.65-.86-.24l-.02.07c0 .02.04-.07 0-.02-.05.04-.05.07-.1.1.07-.08-.02.02-.05.02l-.05.02c-.02.02-.02 0 .03-.02l-.05.02-.14.05-.08.02c.03 0 .1-.02 0 0l-.16.03c-.05 0-.22.02-.12.02h-.39l-.19-.02c.02 0 .1 0 0 0l-.17-.03a2.45 2.45 0 0 1-.7-.26l-.16-.1h-.03l-.1-.07a1.83 1.83 0 0 1-.65-.94 2.44 2.44 0 0 1 .25-1.9c.07-.09.12-.18.2-.26.06-.1.14-.16.23-.24-.07.08 0 0 .03-.02l.07-.05.07-.05c.14-.1.2-.28.1-.43l-.08-.07c-.21-.17-.45-.2-.64-.07Zm2.42-7.37a3.1 3.1 0 0 0-1.18 2.62c.12.98.75 1.77 1.52 2.32.6.48 1.36.68 2.1.58a2.08 2.08 0 0 0 1.52-1.15.52.52 0 0 0-.14-.58c-.1-.1-.41-.24-.5-.02-.44.98-1.64 1.22-2.53.7-.57-.34-1.13-.94-1.22-1.61-.05-.5.1-.99.38-1.4.07-.12.15-.21.24-.3l.12-.13.05-.05c.07-.07.14-.14.22-.19.26-.33-.27-1.05-.58-.79Z" />
    <path fill="var(--a, blue)"
      d="m84.98 60.8.87.35c.14.07.29.07.43.05.12-.02.24-.1.29-.22.1-.26-.12-.55-.39-.64l-.86-.36a.68.68 0 0 0-.43-.05.4.4 0 0 0-.29.21c-.1.3.14.56.38.65Zm-.09.98.86.36c.05.02.12.04.17.04h.12c.07-.02.07-.1.02-.16-.07-.1-.14-.2-.24-.27-.12-.1-.26-.17-.4-.24l-.87-.36a.44.44 0 0 0-.17-.05h-.12c-.07.03-.07.1-.02.17.05.1.14.2.24.27.12.1.26.16.4.24Z" />
    <path fill="var(--c, black)" d="M87.67 82.34a6.22 6.22 0 1 0 0-12.43 6.22 6.22 0 0 0 0 12.43Z" />
    <path fill="var(--c, black)"
      d="M87.67 82.46a6.33 6.33 0 0 1-5.85-8.73 6.32 6.32 0 0 1 11.69 4.8 6.33 6.33 0 0 1-5.84 3.93Zm0-12.43a6.1 6.1 0 1 0 5.64 8.43 6.09 6.09 0 0 0-3.33-7.95 5.92 5.92 0 0 0-2.3-.48Z" />
    <path fill="var(--b, white)"
      d="M84.31 75.5c.22.92.46 1.8.6 2.72.07.36.55.5.87.55.45.07.96 0 1.36-.24a56.27 56.27 0 0 1 4.92-2.9c.15-.08.36-.2.36-.39 0-.2-.19-.34-.33-.4a2.1 2.1 0 0 0-1.7-.03c-1.83.93-3.6 1.99-5.31 3.12l2.23.31c-.17-.91-.38-1.82-.6-2.71-.12-.48-.77-.58-1.2-.58-.29 0-.57.05-.84.15-.14.07-.4.24-.36.4Z" />
    <path fill="var(--a, blue)"
      d="M107.86 58.34a6.4 6.4 0 0 1 .26 6.1c-.07.12 1.06.46 1.2.17.94-2 .84-4.32-.31-6.2-.12-.19-.53-.21-.72-.21-.05 0-.53-.02-.43.14Zm3.72 3.77a8.75 8.75 0 0 1-1.47 6.12c-.02.05.5.22.55.24.1.03.53.2.6.07a8.52 8.52 0 0 0 1.47-6.12c-.03-.12-.48-.21-.55-.24-.05 0-.63-.12-.6-.07Zm-7.56-13.27a10.73 10.73 0 0 0-10.73-10.78c-.94-.02-2.02.03-2.79.6-.5.41-.84.99-.93 1.61-.24 1.54.86 3.05 2.52 2.81.89-.12 1.39-.94 1.56-1.78a3.67 3.67 0 0 0-.36-2.2c-.82-1.68-2.6-2.45-4.32-2.81a19.2 19.2 0 0 0-2.93-.34c-1.08-.07-2.18-.1-3.26-.05-3.63.2-7.73 1.54-9.39 5.07-.17.38-.31.77-.43 1.17-.05.2 1.1.32 1.2-.02.84-3.14 3.86-5.04 6.91-5.6 1.78-.33 3.63-.26 5.4-.11 1.61.14 3.36.38 4.61 1.49 1 .88 1.68 2.37 1.3 3.72-.1.36-.3.67-.53.93-.1.1-.29.15-.07.15.21 0 0-.05-.1-.1a1.81 1.81 0 0 1-.34-.26 2.57 2.57 0 0 1-.17-3.14c.44-.58 1.06-.75 1.73-.75 1.61 0 3.2.43 4.61 1.22a10.44 10.44 0 0 1 5.26 7.97c.05.4.07.8.05 1.2 0 .29 1.2.29 1.2 0Zm-32.6-2.54.77-.77a.5.5 0 0 0 .1-.15.4.4 0 0 0 .05-.14c0-.1-.08-.14-.17-.14a.88.88 0 0 0-.36.07c-.15.07-.27.17-.39.26l-.76.77a.5.5 0 0 0-.1.14c-.02.05-.05.1-.05.15 0 .1.07.14.17.14a1 1 0 0 0 .74-.34Z" />
  </g>
</svg>