<svg xmlns="http://www.w3.org/2000/svg" fill="none" viewBox="0 0 120 120">
  <g id="doc">
    <path fill="var(--b, white)"
      d="M62.74 78.84s5.66 18.05 13.8 17.35c8.13-.7 29.1-15.96 29.1-15.96l-5.18-12.31-20.23 7.8-3.89-5.16z" />
    <path fill="var(--c, black)"
      d="M62.42 78.82a57.74 57.74 0 0 0 3.24 7.8 32.65 32.65 0 0 0 3.75 5.95c1.27 1.56 2.85 3.12 4.8 3.81a6 6 0 0 0 2.66.36c.84-.1 1.66-.28 2.45-.52a36.6 36.6 0 0 0 6-2.55 98.64 98.64 0 0 0 6.67-3.72c2.16-1.3 4.27-2.61 6.36-4 1.66-1.11 3.31-2.21 4.95-3.34.84-.58 1.65-1.15 2.47-1.75l.12-.08c.14-.1.1-.36.02-.5l-1.75-4.18-2.78-6.6-.65-1.53c-.07-.17-.29-.67-.55-.58l-2.02.77-4.82 1.87-5.86 2.26-5.06 1.94-1.68.65c-.27.07-.53.17-.8.31 0 0-.02 0-.02.03l.34.16-3.39-4.53-.48-.65c-.05-.07-.21-.24-.33-.17l-4.61 2.81-7.32 4.44-1.68 1.03c-.34.2.24 1.25.53 1.08l4.6-2.8 7.32-4.47 1.68-1.03-.33-.17 3.4 4.54.49.64c.07.1.21.22.33.17l2.02-.77 4.82-1.87 5.86-2.25 5.06-1.95 1.66-.65c.26-.1.53-.19.79-.3 0 0 .02 0 .02-.03l-.55-.58 1.75 4.18 2.79 6.6.65 1.53.02-.5a277.02 277.02 0 0 1-6.02 4.18c-2 1.32-3.99 2.61-6.03 3.88a121.64 121.64 0 0 1-6.62 3.84 59.26 59.26 0 0 1-6.24 2.96c-1.56.6-3.34 1.24-5.04 1.1-1.9-.14-3.53-1.32-4.8-2.6a19.46 19.46 0 0 1-2.93-3.86l-.46-.74-.19-.34-.17-.28a47.92 47.92 0 0 1-2.23-4.64c-.02-.04-.07-.16-.02-.07l-.07-.19-.27-.62a58.95 58.95 0 0 1-1.2-3.24l-.05-.15c-.04-.19-.26-.57-.48-.57-.21 0-.14.36-.12.48z" />
    <path fill="var(--a, blue)"
      d="M92.38 53.5s7.46 32.04 13.05 32.92c5.6.9 4.2-2.95 1.7-8.97-2.49-6.03-11.63-24.99-11.63-24.99z" />
    <path fill="var(--a, blue)"
      d="M91.8 53.4c.22.98.48 1.94.72 2.9a227.23 227.23 0 0 0 4.63 16.06 77.8 77.8 0 0 0 3.2 8.23 25.56 25.56 0 0 0 1.65 3.1c.46.74 1 1.44 1.63 2.01.84.72 1.85.84 2.93.94 1.13.1 2.76.07 3.22-1.22.16-.58.19-1.2.04-1.8-.14-.82-.36-1.64-.67-2.43a75.61 75.61 0 0 0-1.94-4.85c-1.25-2.85-2.57-5.68-3.89-8.52a1129.2 1129.2 0 0 0-4.44-9.4l-2.69-5.64-.12-.27c-.05-.12-.4-.14-.5-.17a1.57 1.57 0 0 0-.67-.02l-3.1 1.03c-.1.03.38.17.4.17.25.07.51.1.75.05l3.1-1.03-1.15-.2 1.87 3.94c1.39 2.93 2.78 5.83 4.15 8.76 1.42 3 2.8 6.02 4.18 9.05.5 1.1.98 2.23 1.46 3.36.74 1.8 1.56 3.65 2 5.54.2 1.01.4 2.47-.66 3.1a3.1 3.1 0 0 1-1.8.31c-.16 0-.36-.02-.5-.05l-.1-.02c.22.05-.19-.05.15.02.12.03-.12-.02 0 0-.07 0-.05-.02-.03 0l-.1-.02-.16-.1a5.68 5.68 0 0 1-1.58-1.53 17.52 17.52 0 0 1-1.64-2.74 63.48 63.48 0 0 1-3.19-7.7 164.77 164.77 0 0 1-2.8-8.86c-.73-2.52-1.42-5.04-2.07-7.58-.34-1.35-.7-2.7-1-4.06l-.06-.2c-.02-.11-.48-.16-.57-.16-.1 0-.67-.07-.65 0z" />
    <path fill="var(--b, white)"
      d="M108.05 74.71c.45.2 3.86.46 2.9 3.05-.96 2.6-3.1 3.96-4.65 2.74-1.56-1.23 1.75-5.79 1.75-5.79z" />
    <path fill="var(--c, black)"
      d="M107.98 74.93c.19.07.38.12.6.17l.26.04.05.03c.07.02-.1-.03-.03 0l.2.05c.12.02.21.04.3.1l.13.04.14.05c.05.02.22.1.07.02l.15.07.1.05c.07.05-.08-.05 0 0l.16.12c-.07-.05.07.07.07.07l.08.08c.07.1.14.19.19.3.1.27.14.56.1.82a5.3 5.3 0 0 1-1.11 2.33 3.65 3.65 0 0 1-1.8 1.32c-.14.03-.26.05-.4.05h-.18l-.12-.02c.08 0-.1-.03-.02 0l-.07-.03c-.05-.02-.1-.07-.15-.1-.04-.04-.1-.09-.12-.16-.21-.39-.14-.91-.04-1.32.14-.6.38-1.15.64-1.7.41-.82.9-1.61 1.44-2.36.15-.21-.88-.77-1.1-.45-.53.72-1 1.5-1.42 2.3-.3.58-.55 1.2-.7 1.85-.11.53-.14 1.13.2 1.56a3.1 3.1 0 0 0 2.26 1.05c.81 0 1.58-.33 2.16-.9a5.88 5.88 0 0 0 1.56-2.53c.24-.6.14-1.3-.24-1.82a4.04 4.04 0 0 0-1.97-1.23c-.31-.1-.63-.16-.94-.24l-.31-.07c.07.03-.14-.02 0 0-.07-.02-.2-.07.05.03-.12-.05-.55-.22-.65-.03-.1.2.34.41.46.46z" />
    <path fill="var(--b, white)"
      d="M105.96 69.82c.6.24 4.94.7 3.82 3.74-1.13 3.05-3.8 4.58-5.86 3.07-2.06-1.51 2.04-6.81 2.04-6.81z" />
    <path fill="var(--c, black)"
      d="M105.48 70.15c.38.15.82.2 1.2.31.62.15 1.2.41 1.75.75.55.33.91.89 1.01 1.51.07.94-.48 1.92-.98 2.66-.27.39-.58.75-.96 1.04-.24.19-.56.33-.87.4a2.63 2.63 0 0 1-2.28-.6c-.96-.9-.17-2.66.29-3.62a21.98 21.98 0 0 1 1.63-2.69l.15-.19c.12-.14.02-.05 0 0 .12-.17.1-.29-.15-.24-.29.05-.55.22-.74.43a18.6 18.6 0 0 0-1.75 2.76c-.39.7-.68 1.47-.87 2.26-.12.6-.12 1.32.29 1.8.55.65 1.56.91 2.4.81a5.22 5.22 0 0 0 2.93-1.44 7 7 0 0 0 1.87-3c.24-.72.1-1.48-.38-2.06a4.5 4.5 0 0 0-2-1.15c-.5-.17-1.05-.22-1.56-.4-.21-.08-.55.11-.72.23-.07.07-.45.36-.26.43z" />
    <path fill="var(--b, white)"
      d="M102.31 64.3s3.22.24 4.06 3.1c.84 2.85-2.35 6.2-4.32 5.06-1.97-1.16 1.15-5.12 1.15-5.12" />
    <path fill="var(--c, black)"
      d="M102.5 64.8c.75.07 1.47.31 2.12.72.55.31.96.82 1.2 1.4.28.71.3 1.5.07 2.25-.41 1.32-1.54 2.78-2.98 3-.26.05-.55.02-.79-.07l-.14-.08c-.03 0-.1-.07-.05-.02l-.03-.02c-.07-.08 0 0 0 .02-.07-.14-.02.02-.04-.1l-.03-.1c-.02-.04-.02-.11-.02-.16 0-.12 0-.24.02-.36.05-.29.1-.55.22-.84.24-.65.55-1.25.93-1.82.2-.32.39-.6.56-.82.28-.36-.53-1.22-.75-.94-.65.82-1.17 1.73-1.56 2.7a3.1 3.1 0 0 0-.21 1.96c.24.82.9 1.46 1.75 1.63 1.63.31 3.12-1.25 3.74-2.59.41-.86.53-1.82.34-2.76a5.1 5.1 0 0 0-1.47-2.5 5.86 5.86 0 0 0-3.3-1.5c-.56-.06.02.95.4 1z" />
    <path fill="var(--b, white)"
      d="M67.7 103.49s1.3-13.06.63-26.43l11.76-4.72S67.44 50.42 58.32 49.08a6.22 6.22 0 0 0-3.62-.14c-17.74-1.3-32.9 15.38-32.9 15.38l10.38 11.14C25.97 86.74 21.5 97.32 21.5 97.32" />
    <path fill="var(--c, black)"
      d="M68.3 103.49a220.1 220.1 0 0 0 .84-17.78c0-2.88-.04-5.76-.19-8.67l-.19.2 3.98-1.61 6.3-2.55 1.46-.6c.1-.05.21-.14.14-.26-.43-.77-.91-1.51-1.37-2.26a117.94 117.94 0 0 0-3.6-5.42 91.81 91.81 0 0 0-5.09-6.65 47.42 47.42 0 0 0-5.76-5.86c-1.75-1.44-3.74-2.73-5.97-3.21-.36-.07-.7-.2-1.06-.27a7.2 7.2 0 0 0-3.12.03l-.17.02c.24-.02-.02-.02-.07-.02a28.85 28.85 0 0 0-6.72.38 37.8 37.8 0 0 0-9.93 3.2 52.64 52.64 0 0 0-8.1 4.77 61.43 61.43 0 0 0-8.32 7.1l-.17.2c-.07.07 0 .16.05.21l3.53 3.8 5.57 5.97 1.3 1.4-.06-.22A257.62 257.62 0 0 0 21.53 95.8l-.63 1.44c-.16.4 1.01.5 1.16.17.6-1.42 1.24-2.83 1.87-4.25a242.65 242.65 0 0 1 8.8-17.62c.05-.1 0-.14-.04-.21l-3.53-3.8-5.57-5.97-1.3-1.4.05.22.08-.07.36-.36 1.32-1.3A62.12 62.12 0 0 1 29 58.5a55.26 55.26 0 0 1 7.36-4.77c2.9-1.59 6-2.83 9.2-3.67 1.65-.44 3.35-.72 5.08-.87.84-.07 1.7-.1 2.54-.07.46 0 .92.02 1.35.05.55.02 1.13-.17 1.68-.2.55 0 1.08.08 1.58.25.2.04.36.1.55.14l.15.02c.1.03.02 0 0 0l.12.03c.24.05.45.12.7.19l.6.22c.98.43 1.94.98 2.8 1.63a36.88 36.88 0 0 1 5.74 5.37 84.02 84.02 0 0 1 5.16 6.5 127.14 127.14 0 0 1 5.83 8.89l.07.14.17-.26-3.98 1.6-6.3 2.55-1.46.6c-.07.02-.19.12-.16.2a190.45 190.45 0 0 1-.46 24.66l-.14 1.78c-.1.36 1.1.4 1.12 0z" />
    <path fill="var(--b, white)"
      d="M32.62 80.35s14.06-3.3 21.1-2.18c7.02 1.13 8.51 7.85 7.2 9.12-1.33 1.27-4.93-4.42-4.93-4.42s-.8 7.8-3.7 6.48c0 0-.98 3.84-3.9 1.95 0 0-3.3 2.9-4.37 1.22-1.08-1.68 1.15-3.2 1.15-3.2S20.9 105.7 12.12 94.88C.89 81.02 22.49 65.21 22.49 65.21l15.36 10.46z" />
    <path fill="var(--c, black)"
      d="M32.86 80.9c1.9-.45 3.6-.76 5.54-1.12a74.75 74.75 0 0 1 11.06-1.28c1.68-.04 3.36-.02 5.02.36a8.91 8.91 0 0 1 3.55 1.68c.29.22.53.46.8.72.26.3.5.58.71.9l.15.18.07.12.02.03c.1.14.17.29.24.43a6.22 6.22 0 0 1 .44 1l.07.22c.05.15.1.3.12.44l.07.4.02.2.03.1c.02.11 0-.1 0 .02.02.24.02.45 0 .7 0 .04-.03.09-.03.14 0 .04.03-.12 0-.03v.07l-.07.3-.05.11c.08-.1-.02.05 0 0-.04.07-.1.12-.12.2-.04.07.05-.05.05-.05l-.05.04c-.02.03-.16.1-.02.03l-.12.05c-.1.02.1 0 .02 0h-.1c-.02.02-.14-.03.03 0h-.07l-.1-.03c.1.03-.1-.02-.1-.05-.06-.02-.11-.07-.18-.1-.15-.06.02.03-.08-.04l-.16-.12-.36-.31-.17-.17-.07-.07a22.86 22.86 0 0 1-2.54-3.29c-.06-.05-.08-.12-.13-.2a.5.5 0 0 0-.67-.18.43.43 0 0 0-.24.38l-.02.2-.03.2c0 .08-.02.1-.02.15 0 .05-.03.22-.03.12s0 .07-.02.12c-.02.05-.02.12-.02.2l-.08.43c-.04.3-.12.62-.19.96a11.87 11.87 0 0 1-.98 2.83l-.22.33-.14.17-.05.07-.02.03c-.1.1-.2.17-.32.24-.02.02-.1.05 0 0-.02.02-.07.02-.1.05l-.18.07c-.08.02-.12.02 0 0-.03 0-.08 0-.1.02h-.1a.54.54 0 0 1-.21-.05l-.07-.02c.14.05-.05-.02-.08-.02a.46.46 0 0 0-.62.16l-.05.08a3.43 3.43 0 0 1-.24.62c-.05.14.03-.02-.02.05l-.15.26c-.1.2-.21.36-.33.53a1.71 1.71 0 0 1-.96.65l-.1.02h-.17c-.1 0-.21 0-.3-.02a2.9 2.9 0 0 1-.87-.36c-.2-.12-.46-.22-.65-.05a8.07 8.07 0 0 1-2.3 1.49c-.24.12-.5.17-.77.19h-.07l-.2-.02c-.02 0-.1-.03 0 0l-.1-.05-.11-.1c.1.1-.03-.05-.05-.07a1.09 1.09 0 0 1-.17-.58c.03-.3.12-.62.31-.86.27-.4.6-.74.99-.98.53-.36-.22-1.3-.75-.94-.74.5-1.48.96-2.25 1.42l-1.18.7c-.5.28-.79.45-1.3.71a81.8 81.8 0 0 1-3.21 1.68 57.92 57.92 0 0 1-7.68 3.15 27.87 27.87 0 0 1-8.04 1.5 13.46 13.46 0 0 1-5.28-.9c-.26-.12-.55-.24-.8-.39l-.35-.21c-.03-.03-.12-.08 0 0l-.1-.05-.21-.15c-.24-.16-.48-.36-.72-.55l-.34-.29c-.05-.04-.1-.1-.17-.14l-.12-.12c-.53-.58-1-1.18-1.44-1.82a12.77 12.77 0 0 1-1.82-4.13 14.2 14.2 0 0 1 .67-8.16 26.84 26.84 0 0 1 4.2-7.27 45.57 45.57 0 0 1 8.06-7.97l.15-.12-.65-.05 5.23 3.55 8.26 5.62 1.9 1.3-.1-.9-4.59 4.09-.67.6c-.48.43.27 1.36.75.93l4.58-4.08.65-.57a.6.6 0 0 0-.03-.84c-.02-.03-.04-.05-.07-.05l-5.2-3.55-8.26-5.62-1.9-1.27a.54.54 0 0 0-.65-.05c-.79.58-1.53 1.22-2.28 1.85a49.25 49.25 0 0 0-4.99 5.01 31.7 31.7 0 0 0-4.73 7.08 17.1 17.1 0 0 0-1.75 8.5 14.58 14.58 0 0 0 3.89 8.57 11.15 11.15 0 0 0 6.82 3.21c2.78.32 5.56-.1 8.25-.76 2.79-.75 5.5-1.7 8.11-2.93a73.87 73.87 0 0 0 9.92-5.43l.14-.1-.74-.93c-1.2.82-2.12 2.38-1.3 3.77.96 1.66 2.88.82 4.1 0 .41-.26.8-.55 1.16-.86l-.65-.05c.65.4 1.39.74 2.18.65.6-.1 1.15-.41 1.54-.87.48-.55.81-1.2.98-1.9l-.67.27c.6.31 1.32.26 1.9-.12.5-.38.9-.91 1.17-1.51a14.7 14.7 0 0 0 1.15-4.13c.05-.36.12-.74.15-1.1l-.94.19a24 24 0 0 0 1.73 2.37c.48.6.98 1.16 1.56 1.66.46.38 1.03.82 1.68.8 1.1 0 1.37-1.33 1.34-2.2a7.58 7.58 0 0 0-1.2-3.71 9.46 9.46 0 0 0-3.79-3.48 13.31 13.31 0 0 0-5.52-1.23c-3.89-.16-7.8.36-11.61.99-1.59.26-3.17.55-4.73.86-.84.17-1.7.34-2.55.55l-.12.03c-.28.07-.33.48-.21.72a.8.8 0 0 0 .77.33z" />
    <path fill="var(--c, black)"
      d="M49.2 85.66c.02.04.05.1.05.14.02.02.07.17.02.07l.07.22c.12.4.2.84.2 1.27a5.01 5.01 0 0 1-1.7 3.67c-.37.34.71.82 1.05.5a5.38 5.38 0 0 0 1.8-3.95c0-.68-.15-1.32-.41-1.95a.84.84 0 0 0-.74-.36c-.22 0-.46.15-.34.39zm3.34-1.78c.48 1.73.21 3.6-.75 5.14-.19.28.8.96.99.67 1-1.63 1.27-3.6.74-5.43a.97.97 0 0 0-.62-.52c-.15-.1-.46-.12-.36.14zm-31.4-1.87a7.9 7.9 0 0 1 1.54-.29l2.86-.36c2.08-.24 4.2-.46 6.28-.65l1.9-.17c.24-.02-.29-1-.6-.98-1.49.07-3 .26-4.49.4-2.11.22-4.2.44-6.31.73-.65.05-1.27.17-1.87.33-.2.08.36 1.1.7.99zm48.17-6.07L69 65.09c-.02-.63-1.2-.67-1.2 0l.31 10.85c.03.62 1.2.67 1.2 0z" />
    <path fill="var(--b, white)" d="M96.24 74.35s4.51-14.59.67-15c-3.84-.4-5.4 8.9-5.8 10.1 0 0-2.36 1.42-2.36 4.23" />
    <path fill="var(--c, black)"
      d="M96.77 74.28a54.7 54.7 0 0 0 1-3.77 41.3 41.3 0 0 0 1.2-7.05 8.8 8.8 0 0 0-.19-2.9c-.16-.66-.55-1.3-1.24-1.52-1.06-.31-2.24.22-3 .94a8.52 8.52 0 0 0-2 3.02 38.38 38.38 0 0 0-1.63 5.18l-.14.63-.07.24-.03.12c-.02.05-.02.1-.02.05-.03.1-.05.21-.1.3l.27-.28a5.59 5.59 0 0 0-2.64 4.58c0 .48 1.12.1 1.12-.33a4.69 4.69 0 0 1 1.64-3.53l.12-.1c.04-.02.19-.14.04-.04l.24-.17c.2-.12.32-.31.34-.55.12-.41.22-.82.31-1.25a35.4 35.4 0 0 1 1.08-3.7 11.1 11.1 0 0 1 1.83-3.55 3 3 0 0 1 .55-.55l.07-.05c-.02.02-.1.07 0 0l.14-.1.08-.04c.12-.08-.1.04 0 0l.19-.1c.1-.05 0 0-.03 0l.1-.02c.05 0 .07-.03.12-.03.05 0 .1 0 .14-.02h.34c.02 0 .17.02.05 0l.24.07.05.02.1.08c.06.04.14.1.18.16.05.05.1.1.12.15l.15.24c.17.36.29.77.33 1.17.12 1.16.1 2.33-.04 3.5-.15 1.35-.41 2.7-.7 4.04-.38 1.75-.84 3.5-1.34 5.23 0 .03-.03.05-.03.1-.17.5.96.19 1.06-.17zM48.05 42.72s-7.68.65-8.57-2.54c-.89-3.2 3.86-1.92 3.86-1.92s-4.9-6.87 2.88-7.16c0 0-5.85-5.42-.33-9.28 5.52-3.87 15.17.1 15.17.1s.48-6.85 8.18-5.12c7.7 1.73 5.38 5.6 5.38 5.6s4.94 1.02 4.82 3.4c-.12 2.38-3.96 2.86-3.96 2.86s-2.14 6.52-8.83 4.8l-7.47 7.68s2 3.3-.86 6.19c-2.86 2.88-11.09-.31-10.27-4.61z" />
    <path fill="var(--c, black)"
      d="M48.02 42.6h-.4l-.58.02h-.65c-1.22 0-2.42-.14-3.6-.43-1.03-.26-2.2-.79-2.66-1.82-.2-.48-.31-1.15-.05-1.63.1-.2.26-.34.46-.46.07-.05.16-.07.24-.12.07-.02.14-.05.21-.05.1-.02 0 0-.02 0 .02 0 .19-.02.02 0h.5l.2.03.38.04.72.15c.22.05.46.05.67 0 .03 0 .48-.1.44-.15a8.96 8.96 0 0 1-1.16-2.23c-.43-1.2-.62-2.73.39-3.72a4.3 4.3 0 0 1 2.9-1c.07 0 .84-.1.72-.2-2.09-1.92-3.77-5.35-1.77-7.92 1.39-1.8 3.74-2.69 5.95-2.85a20.3 20.3 0 0 1 6.12.64c1.15.3 2.3.65 3.4 1.08.15.05 1.16.1 1.18-.12a5.91 5.91 0 0 1 3.03-4.75 4.76 4.76 0 0 1 2.25-.48c1.35.07 2.69.39 3.94.89 1.39.53 3.05 1.42 3.38 3a2.8 2.8 0 0 1-.26 1.92c.02.02.05.05.1.05 1.31.29 2.7.77 3.76 1.6.67.53 1.13 1.28.91 2.17-.21.88-1.08 1.48-1.92 1.84-.38.17-.79.3-1.2.39l-.12.02c-.1.03.08-.02-.04 0l-.17.03-.12.02c-.07.02.17-.02.1-.02-.08 0-.39.02-.44.14-.24.7-.6 1.37-1.03 1.97a6.97 6.97 0 0 1-3.55 2.76c-.24.07-.48.12-.72.17-.2.02-.39.04-.58.04a7.99 7.99 0 0 1-1.85-.26 2.5 2.5 0 0 0-.6 0c-.12.02-.38.02-.48.12l-2.52 2.6-4.03 4.12-.93.96-.03.02c.46.8.67 1.7.67 2.62 0 1.6-.88 3.38-2.35 4.13-.24.12-.5.21-.79.29l-.12.02c-.02 0-.22.02-.14.02-.03 0-.24.03-.15.03h-.17a8.33 8.33 0 0 1-5.4-2.06c-1-.92-1.72-2.19-1.46-3.58.02-.07-1.15-.15-1.2.1-.46 2.49 1.97 4.34 4.03 5.13 1.27.5 2.64.72 4.01.65 1.2-.07 2.47-.34 3.36-1.2a5.1 5.1 0 0 0 1.06-5.9l-.15-.3c-.02-.04-.05.05 0-.02.12-.17.27-.31.43-.45l.84-.87 2.33-2.4c1.25-1.27 2.55-2.52 3.75-3.84l.07-.07-1.08.1c2.23.57 4.8.45 6.79-.82a8.22 8.22 0 0 0 3.17-4.13l-.43.15c.62-.1 1.22-.24 1.8-.44.86-.28 1.8-.76 2.28-1.58 1.2-1.97-1.25-3.31-2.79-3.89-.57-.21-1.2-.4-1.8-.55l.1.05c.29-.53.4-1.15.31-1.73-.24-1.63-1.87-2.6-3.24-3.17-2.38-.96-5.23-1.46-7.73-.72a5.5 5.5 0 0 0-3.33 2.79 6.06 6.06 0 0 0-.72 2.42l1.17-.12a26.84 26.84 0 0 0-9.7-1.82c-2.49.04-5.1.55-7.07 2.16A4.88 4.88 0 0 0 43.03 25a5 5 0 0 0 .31 2.78 9.5 9.5 0 0 0 2.33 3.39l.72-.2c-1.82.08-4.58.36-5.09 2.52-.3 1.32.27 2.74.9 3.87.16.31.35.6.54.91l1.1-.14a8.75 8.75 0 0 0-2.49-.27c-1.1.05-2.66.29-2.59 1.73.07 1.32 1.13 2.11 2.28 2.54 1.32.48 2.76.65 4.18.7.93.05 1.9.02 2.83-.05.07 0 .6-.02.6-.14 0-.12-.58-.05-.63-.05z" />
    <path fill="var(--b, white)"
      d="M74.52 51.12c5-5.28.24-21.34.24-21.34-5.47.68-13.75-5.4-13.75-5.4 2.23 5.26-3.22 14.19-3.22 14.19-1.87-4.7-6.77-4.87-6.62-.34.14 4.54 4.46 5.21 4.46 5.21s-2.01 7.66-1.65 9.46c.36 1.8 9.5 11.06 12.79 2.44a14.57 14.57 0 0 0 7.75-4.22z" />
    <path fill="var(--c, black)"
      d="M75.05 51.2a8.52 8.52 0 0 0 1.97-4.2c.33-1.78.45-3.58.36-5.4a50.76 50.76 0 0 0-1.5-9.87c-.16-.7-.33-1.4-.52-2.07-.07-.24-.43-.24-.65-.24-.5.05-1 .05-1.49 0-.6-.07-1.2-.16-1.77-.3a20.55 20.55 0 0 1-3.46-1.26 35.98 35.98 0 0 1-6.48-3.79c-.26-.19-1.25-.07-1.05.39.9 2.18.48 4.77-.15 6.96a29.67 29.67 0 0 1-2.88 6.69l-.14.24c-.03.05-.1.2 0 0h1.13a6.17 6.17 0 0 0-3.17-3.55 3.48 3.48 0 0 0-3.75.55c-1.08 1.06-1.08 2.93-.72 4.3a5.4 5.4 0 0 0 2.38 3.14c.67.43 1.42.72 2.18.84l-.3-.3a90.73 90.73 0 0 0-1.04 4.4 30.38 30.38 0 0 0-.58 3.3c-.07.62-.21 1.41 0 2.03.24.58.6 1.08 1.01 1.54.6.7 1.25 1.34 1.97 1.92 1.49 1.25 3.34 2.4 5.3 2.62a5.31 5.31 0 0 0 2.96-.5 5.44 5.44 0 0 0 2.25-2.46c.17-.3.29-.62.43-.93l-.55.31c.63-.1 1.25-.24 1.87-.46a15.49 15.49 0 0 0 6.4-3.98c.2-.2-.08-.36-.25-.38a.94.94 0 0 0-.8.21 13.84 13.84 0 0 1-6.83 3.91l-.12.03c.07-.03-.15.02 0 0l-.17.02-.15.03c-.19.02-.45.1-.55.3a6 6 0 0 1-1.82 2.72c-.15.12-.31.22-.48.29-.1.05-.2.1-.29.12-.14.07.1-.03-.05.02a.45.45 0 0 1-.19.05l-.14.05c-.17.05.12-.03-.05 0-.1.02-.2.02-.29.05h-.6c-.17 0 .12.02-.05 0l-.14-.03c-.1-.02-.22-.02-.31-.05-.2-.02-.41-.1-.6-.14a9.33 9.33 0 0 1-1.23-.5 16.38 16.38 0 0 1-4.27-3.36 8.3 8.3 0 0 1-1.06-1.5l-.02-.06c.02.07-.02-.08 0 0-.02-.08-.02-.08-.05-.12a5.59 5.59 0 0 1 0-1.46c.1-1.04.29-2.05.5-3.06.34-1.65.73-3.28 1.16-4.9.05-.18-.17-.28-.31-.3l-.12-.03-.12-.02c-.1-.03.1.02.02 0l-.12-.03a3.8 3.8 0 0 1-.48-.16c-.17-.08-.43-.17-.5-.22a4.9 4.9 0 0 1-2.3-2.28c-.58-1.2-.78-2.9-.15-4.13.12-.24.26-.43.45-.62.15-.15.32-.24.48-.31.1-.05-.04 0 .08-.03.04-.02.1-.02.16-.05-.14.03.05 0 .08 0h.1c-.06 0-.08 0 0 0h.28c.14.03.26.05.34.08 1.5.45 2.56 1.9 3.14 3.3.14.37.94.32 1.13 0 .65-1.1 1.25-2.25 1.75-3.42.98-2.24 1.8-4.61 2.02-7.06a8.45 8.45 0 0 0-.53-3.94l-1.06.39a33.8 33.8 0 0 0 3.22 2.06 27.8 27.8 0 0 0 6.86 3.03c1.37.38 2.79.52 4.18.38l-.63-.24c.56 1.87.99 3.8 1.3 5.71.31 1.75.55 3.53.67 5.3.15 1.83.1 3.65-.17 5.45-.26 1.68-.79 3.44-1.99 4.7-.19.22.1.37.27.4a.8.8 0 0 0 .79-.13z" />
    <path fill="var(--c, black)"
      d="M63.17 43.78c-.1-.03.19.1.1.02l-.15-.07c-.07-.05-.14-.07-.22-.12l-.04-.03-.03-.02c-.07-.05.1.05.07.05l-.14-.1-.26-.21-.03-.03.05.05-.05-.05a.64.64 0 0 1-.12-.14c-.02-.03-.05-.05-.05-.07 0-.03-.07-.1-.02-.03s0-.02-.02-.02l-.05-.1-.07-.17c0-.02 0-.02-.03-.04-.02-.05.03.04 0 .04-.02 0-.02-.1-.02-.12-.03-.07-.03-.16-.03-.24v-.16c.03-.2.1-.39.2-.56.02-.12 0-.24-.1-.3a.74.74 0 0 0-.36-.25c-.24-.07-.58-.07-.7.2-.16.33-.24.7-.21 1.07.05.34.17.65.36.94.33.46.74.82 1.25 1.06.14.07.28.14.43.19.21.07.6.07.7-.2.09-.26-.27-.52-.46-.6zm9.89-6.24s-.12.86.74.9c.86.06.91-1 .2-1.26-.73-.27-.94.36-.94.36zm-4.01-.8a2 2 0 0 0-.48-.72 2.43 2.43 0 0 0-.84-.55.9.9 0 0 0-.43-.05c-.15 0-.3.03-.44.08-.04.02-.19.07-.16.14.02.07.12.12.16.14-.04-.02-.12-.04 0 0l.08.03.12.07.24.17-.08-.05c.3.24.5.53.65.89.03.07.22.12.29.12.14.02.31.02.46.02.12 0 .24-.05.36-.1l.04-.04c.05-.05.05-.1.03-.15z" />
    <path fill="var(--b, white)" d="M98.95 49.39a15.5 15.5 0 1 0-21.92-21.93A15.5 15.5 0 0 0 98.95 49.4z" />
    <path fill="var(--a, blue)"
      d="M101.4 44.16c-.31.74-.65 1.49-1.08 2.18l-.14.24-.08.1c.03-.02.12-.2 0-.02a12.22 12.22 0 0 1-1.03 1.42l-.36.42c-.07.08-.12.15-.2.22l.06-.05-.12.12c-.27.27-.55.55-.84.8l-.43.35-.22.17-.1.07-.07.05.1-.07c-.07-.02-.39.26-.46.34l-.45.3a7.1 7.1 0 0 1-.99.58c-.26.15.17-.1-.02.03l-.24.12c-.17.1-.36.17-.53.26-.36.17-.7.29-1.06.43l-.26.1-.12.05c-.14.05.22-.07.05-.03l-.58.17c-.36.1-.72.2-1.08.27-.2.02-.36.07-.55.1l-.26.04-.17.02c-.15.03.17-.02.02 0-.77.08-1.53.12-2.33.1l-.57-.02-.3-.03h-.04c.1 0-.12-.02-.12-.02-.38-.05-.77-.1-1.13-.17-.79-.14-1.58-.36-2.32-.65l-.56-.21-.12-.05-.04-.03-.32-.14c-.36-.17-.72-.36-1.08-.55a15.2 15.2 0 0 1-6.67-7.56 2.9 2.9 0 0 0-.2-.46c-.04-.07-.11-.36-.16-.5a16 16 0 0 1-.74-4.51 15.8 15.8 0 0 1 .81-4.95l.22-.6a20.16 20.16 0 0 1 1.06-2.16l.14-.24.05-.07c-.07.1 0 0 .02-.02l.34-.5c.21-.32.45-.63.72-.94l.36-.44c.02-.02.24-.26.12-.12-.12.15.12-.12.14-.14.27-.29.55-.55.84-.8l.39-.33.21-.17.12-.1c.15-.11-.05.06-.07.06.07.02.38-.3.46-.34l.5-.34c.34-.21.65-.4.98-.57.2-.1-.24.12.03-.03l.24-.12c.17-.1.36-.16.53-.24.36-.16.7-.3 1.05-.43l.22-.07c.05-.02.1-.05.14-.05l-.1.03.58-.17a15.52 15.52 0 0 1 1.68-.36l.27-.05.12-.02c.12-.03-.2.02 0 0a14.45 14.45 0 0 1 2.32-.1l.53.02.29.03c.17.02.02 0 0 0l.17.02c.79.1 1.58.24 2.35.46.38.1.77.24 1.15.36l.5.19.17.07c-.02 0-.1-.05 0 0l.32.15c.74.33 1.44.72 2.1 1.17a13.34 13.34 0 0 1 3.36 3.02 16.36 16.36 0 0 1 3.01 5.96 18 18 0 0 1 .36 2.23c.02.38.05.77.05 1.15v.72c0 .1 0 .22-.03.34a15.42 15.42 0 0 1-.62 3.43c-.03.1-.05.2-.1.29l-.05.17s-.04.14-.02.04l-.02.1-.05.12c.07.14.02.26-.05.36-.17.24-.1.6.14.77.12.1.3.12.44.1.52-.03 1.22-.39 1.44-.92a16.02 16.02 0 0 0-13.5-22 17.22 17.22 0 0 0-16.82 9.52 16.03 16.03 0 0 0 2.78 18.29 16.1 16.1 0 0 0 8.86 4.66c3.36.55 6.82.1 9.92-1.35a17.6 17.6 0 0 0 8.76-9.12.62.62 0 0 0 .02-.62.67.67 0 0 0-.58-.24c-.55 0-1.24.38-1.46.91z" />
    <path fill="var(--c, black)"
      d="M87.8 35.8s-2.98-1.62-4.3 1.35c-1.32 2.98 2.35 4.63 4.3 2.45 1.94-2.18 0-3.8 0-3.8z" />
    <path fill="var(--a, blue)"
      d="M96.74 33.5c.56 2.38.27 4.85-.81 7.04-.12.24.36.26.48.26.24-.02.57-.1.7-.34 1.1-2.23 1.39-4.77.83-7.2-.12-.38-1.27-.16-1.2.24zm-1.92 10.92.63-1.05c.02-.05.05-.12-.03-.15-.04 0-.07 0-.12.03a.44.44 0 0 0-.16.05c-.15.07-.27.14-.41.24-.1.07-.2.14-.27.26l-.62 1.06c-.02.04-.05.12.02.14h.12c.05-.02.12-.02.17-.05.15-.07.27-.14.41-.24.1-.1.2-.19.26-.29z" />
    <path fill="var(--b, white)" d="M68.33 46.63s8.85 6.29 13.1 2.21-2.4-10.22-9.9-8.86" />
    <path fill="var(--c, black)"
      d="M67.9 47.04c.98.7 2.01 1.3 3.1 1.82 1.98.99 4.2 1.8 6.42 1.83 2.3 0 4.76-1.23 5.6-3.46.81-2.16-.46-4.25-2.14-5.59a11.6 11.6 0 0 0-9.26-2.04c-.3.07-.53.26-.6.55-.05.29.24.31.43.27 2.71-.5 5.52.02 7.85 1.46 1.58 1 3.26 2.8 2.9 4.85-.07.45-.24.86-.5 1.25a3.93 3.93 0 0 1-2.16 1.58 6.96 6.96 0 0 1-1.42.22c-2.04.04-4.08-.7-5.9-1.56a22.6 22.6 0 0 1-3.46-2c-.36-.24-1.3.5-.86.82z" />
  </g>
</svg>
