<svg xmlns="http://www.w3.org/2000/svg" viewBox="0 0 120 120" fill="none">
  <g id="doc">
    <path
      d="M38.6 15h39c1.8 0 3.4 1.6 3.4 3.4v81.3c0 1.9-1.5 3.4-3.4 3.4h-39a3.5 3.5 0 0 1-3.3-3.4V18.5c0-1.8 1.6-3.3 3.3-3.3z"
      fill="var(--b, white)" />
    <path
      d="M77.4 102.9H38.9c-.6 0-1.1 0-1.7-.4A3.3 3.3 0 0 1 36 100V18.5c0-1.6 1.3-3.1 3-3.1h36.9c1.1 0 2.6-.3 3.4.4 1 .9 1.2 2 1.2 3.3v80.6c0 1.7-1.3 3.2-3 3.2-.2 0-.5 0-.4.3.1.2.6.4.8.4 2 0 3.7-1.5 3.7-3.6V18.6c0-1.4-.8-2.6-2-3.2-1.2-.8-2.6-.7-4-.7H38.2a3.8 3.8 0 0 0-3.5 3.6v81.4a4 4 0 0 0 2.3 3.4 5 5 0 0 0 2.3.4h38.5c.3 0 .5 0 .4-.3s-.6-.3-.8-.3"
      fill="var(--c, black)" />
    <path d="M77.3 24.7H38.5v63.8h38.8z" fill="var(--b, white)" />
    <path
      d="M77 88H38.4l.7.6V24.9l-.5.3h38.8l-.6-.5v63.8c0 .5 1.1.9 1.1.2v-64c0-.3-.4-.5-.8-.5H38.4c-.3 0-.5.2-.5.4v63.8c0 .4.5.5.7.5h38.8c.2 0 .4-.1.4-.3v-.2a.8.8 0 0 0-.8-.5z"
      fill="var(--c, black)" />
    <path d="M57.8 98.6a3 3 0 1 0 0-5.8 3 3 0 0 0 0 5.8" fill="var(--b, white)" />
    <path
      d="M60.3 95.5c0 1-.7 2-1.7 2.6-.9.3-2 .3-2.7-.4a2.6 2.6 0 0 1-.1-3 3 3 0 0 1 2.6-1.4c.5 0 .9.1 1.2.5.5.4.7 1 .7 1.7l.5.5s.4.3.4 0c0-2.8-4-4.9-6-2.6a3 3 0 0 0-.3 3.7 4 4 0 0 0 3.6 1.9 3 3 0 0 0 2.7-3c0-.3-1-.8-1-.5"
      fill="var(--c, black)" />
    <path d="M61.7 21.2a.9.9 0 1 0 0-2 .9.9 0 0 0 0 1.9z" fill="var(--b, white)" />
    <path
      d="M62 20c0 .4-.1.6-.4 1v-.2l-.3.1c-.2 0-.2 0 0 0H61l.3.1h.3l-.3-.2a.9.9 0 0 1 .4-1.2l.2-.1h.1c.1 0 .2 0 0 0h.1l-.3-.2h-.2c-.1 0 0 0 0 0l.2.3zl.2.1.4.2h.6c0-.2 0-.4-.2-.5-.2-.3-.4-.4-.7-.5l-.9-.2H61l-.6.2a.9.9 0 0 0 0 1.3c0 .1.3.3.5.3l.9.3h.5c.5 0 .9-.4.9-.8l-.1-.2h-.5s-.6-.3-.6 0zm-10.8.6h5.4c.3 0 .6-.1.7-.4s-.2-.4-.5-.4l-4.7-.1h-.7c-.2 0-.5.2-.6.4 0 .4.2.5.4.5"
      fill="var(--c, black)" />
    <path d="M64.6 38.5a7 7 0 1 0-14.1-2.3 7 7 0 0 0 14 2.3" fill="var(--b, white)" />
    <path
      d="M58.8 44.1c-2.7.5-5.5-.7-7-3a7 7 0 0 1 .5-8c1.8-2.2 4.9-3.2 7.5-2.2s4.4 3.5 4.4 6.4c0 3.3-2.2 6.2-5.4 6.8-.2 0-.2.2 0 .3 0 .2.3.2.6.2a7.3 7.3 0 0 0 1.5-13.7A7.8 7.8 0 0 0 52 32a7.3 7.3 0 0 0-1.5 8.4 7.9 7.9 0 0 0 8.7 4.1c.2 0 .2-.2 0-.3 0 0-.4-.2-.6 0z"
      fill="#002780" />
    <path d="M66 38.5a7 7 0 1 0-14.2-2.3 7 7 0 0 0 14.1 2.3" fill="#002780" />
    <path
      d="M60.2 44c-2.8.5-5.7-.6-7-3a6.8 6.8 0 0 1 .4-7.8A7 7 0 0 1 61 31c2.7.9 4.5 3.4 4.5 6.1 0 3-1.8 5.5-4.5 6.5zc-.5 0 0 .8.3.6 3.1-.6 5.3-3.1 5.8-6.2a8 8 0 0 0-4.2-7.8A7.4 7.4 0 0 0 52 40.3a7.8 7.8 0 0 0 8.5 4.4c.5-.1 0-.8-.3-.8z"
      fill="#002780" />
    <path d="M52.4 32.5l.7.3-.7-.4z" fill="var(--b, white)" />
    <path d="M52.1 32.6l1 .4h.5v-.2l-.3-.2-.4-.2h.1l-.3-.1a.9.9 0 0 0-.4-.2h-.2v.5z" fill="#002780" />
    <path d="M51.4 34c.3 0 .6.1.8.3l-.8-.3z" fill="var(--b, white)" />
    <path d="M51.7 34.3l.4.1.2.1h.2s0 .2 0 0l-.3-.4-.1-.2c-.3-.2-.6-.3-1-.3l.3.3.1.2h.2z" fill="#002780" />
    <path d="M51.7 35.7h-1.1z" fill="var(--b, white)" />
    <path d="M51.4 35.5h-1.3v.2l.4.3H52c0-.2-.1-.2-.2-.3a.9.9 0 0 0-.5-.2z" fill="#002780" />
    <path d="M51.6 37.8l-1 .2z" fill="var(--b, white)" />
    <path d="M51.4 37.4l-1 .2-.3.2v.2c0 .3.3.5.5.4l1.3-.2.2-.3v-.2c0-.2-.2-.3-.3-.3h-.4" fill="#002780" />
    <path d="M52 39.6c-.4 0-.6.2-1 .3l1-.3z" fill="var(--b, white)" />
    <path d="M51.9 39.3a15.9 15.9 0 0 0-1.3.4v.3c.1.2.3.2.6.2l1-.3.2-.2v-.3a.5.5 0 0 0-.5-.1" fill="#002780" />
    <path d="M52.9 41.4l-.8.4z" fill="var(--b, white)" />
    <path d="M52.4 41.2l-.7.4v.1l.4.2h.2l.2.1.7-.4v-.1a4.4 4.4 0 0 0-.7-.3z" fill="#002780" />
    <path d="M54 42.7l-.5.4z" fill="var(--b, white)" />
    <path d="M53.8 42.5a2.6 2.6 0 0 0-.8.6v.1h.8l.1-.1.3-.2H54v-.2-.2z" fill="#002780" />
    <path
      d="M60.9 35.1c-.6-.5-1.4-1-2.2-1a1.8 1.8 0 0 0-1.5 1.4c-.2.9.7 1.3 1.3 1.7.5.6 1 1.4.6 2-.2.3-.5.6-.9.6a.9.9 0 0 1-.8-.4c-.1-.2-.4-.4-.7-.4-.1 0-.5 0-.3.3.5.7 1.3 1.1 2.2 1.2.7 0 1.5-.3 1.8-1 .2-.8-.2-1.6-.8-2l-1-1c-.3 0-.4-.5-.3-.9.2-.3.5-.7 1-.8.2-.1.4.2.6.4.3.2.5.4.9.3.2 0 .3-.2 0-.4z"
      fill="var(--b, white)" />
    <path d="M58.9 33.4v.7l.4.3.4.1h.2v-.8l-.4-.2H59zm-1.4 6.7l-.1 1h.1l.5.2h.5l.2-.9h-.1l-.5-.2h-.4z"
      fill="var(--b, white)" />
    <path
      d="M43.2 45.7c-.5.2-1 .4-1.3 1-.2.5 0 1 .5 1.3.3.4 1 .5 1.5.5s1-.4 1.1-.9c.2-.2.4-.8 0-1.1a1 1 0 0 0-.6 0c-.2 0-.4 0-.4.4 0 .5 0 1 .4 1.3.5.2 1.1.2 1.6 0 .9-.6 1.5-1.6 1.5-2.7 0-.4-.3-.9-.7-1a.9.9 0 0 0-1.2.6c-.2.6 0 1.3.2 1.8s.4.8.9 1.1c.8.6 2 .7 2.8-.2.3-.3.4-1 0-1.4-.3-.4-1-.5-1.4 0-.3.5 0 .9.5 1.2.5.3 1.3.3 2 .2.1 0 .2-.2.1-.3a.6.6 0 0 0-.5-.2c-.3 0-.9 0-1.2-.2v-.5h-.3l.2.3a.9.9 0 0 1-1.5.8c-.4-.2-.6-.6-.7-1a2.6 2.6 0 0 1-.3-1.3l.1-.2V45v.5c0 .7-.4 1.4-.9 2 0 0-.3.3-.5.3s-.2-.2-.2-.3V47c0-.2.1-.2 0-.1h-.3l-.2-.1v.3l-.4.5a.9.9 0 0 1-.3.2h-.5c-.3-.2-.6-.5-.4-1s.6-.6 1-.7c.1 0 .2-.2.1-.3a.6.6 0 0 0-.7 0zm5.8 9.6l.4-.3.3-.4c.2-.2.2-.6.2-1v-.2l-.3-.3c-.2 0-.4 0-.5.2-.2.3-.3.6-.2.9 0 .4.3.9.6 1h.4c.1 0 0 0 0-.1l-.1-.1-.2-.2a1.3 1.3 0 0 1-.1-1v-.2h.2l-.2-.1v-.1.2a1.9 1.9 0 0 1-.5 1.1.9.9 0 0 1-.5.3v.2zm9-1.7l.2-.1h-.1c-.2 0 0 0 0 0v.9l-.1.6-.2.1-.2.1h.2c.2.1 0 .1 0 0V54.6l.7-.6h.2c.2-.2-.1-.2-.1 0h.2l.2.5.1.5.4.1h.2l-.2-.8a.9.9 0 0 0-.6-.6h-.7a.9.9 0 0 0-.3.2l-.5.5a.9.9 0 0 0-.2.8l.3.3h.6c.5-.3.6-.9.6-1.3v-.6l-.3-.2h-1l.2.2h.3zm8.2.1c-.3.3-.5.6-.5 1l.1.3.5.1c.3 0 .7-.1.8-.3.3-.2.6-.5.5-.8-.2-.4-.7-.2-.9 0-.3.4-.3.7 0 1l.7.4c.5.1.9 0 1-.4.4-.6.4-1.3 0-1.8 0-.2-.5 0-.5.3.2.3.3.7.2 1.1 0 .2 0 .4-.2.5h.1l-.2-.1a.9.9 0 0 1-.6-.5v-.4h-.1v.5l-.1.1c-.1 0 0 0 0 0h-.1q-.1 0 0 0h-.4v-.3c0-.2 0-.4.2-.6v-.2z"
      fill="var(--c, black)" />
    <path d="M52.6 67.2h-5v11.6h4.9V67.2z" fill="var(--b, white)" />
    <path
      d="M52 67h-4.7v11.5l.3.4.7.2H53V67.6c0-.3-.3-.4-.4-.5zv11.4s0 .1 0 0h-4.8l1 .7V67.6s0-.1 0 0H53l-.2-.4a1.8 1.8 0 0 0-.7-.2z"
      fill="#002780" />
    <path d="M61.1 64.4h-4.8v14.4H61z" fill="var(--b, white)" />
    <path
      d="M61 64.1h-4.8s-.4 0-.4.2v14.4c0 .3.5.4.7.4h4.7c.1 0 .6 0 .6-.2V64.4c0-.4-1.3-.5-1.3-.2v14.4l.6-.2h-4.9l.7.4V64.4l-.4.2h4.7c.2 0 .6 0 .6-.3-.1-.2-.7-.2-.8-.2m8.5-2.8h-4.7v17.2h4.7z"
      fill="#002780" />
    <path
      d="M69.7 60.9H65c-.4 0-.8.2-.8.5v17.3c0 .2.4.3.6.3h4.7c.3 0 .7-.1.7-.5V61.2c0-.3-.4-.3-.6-.3-.2 0-.5.2-.5.5v17.3l.7-.5H65l.5.3V61.2l-.7.5h4.7c.3 0 .7-.1.7-.4.1-.3-.2-.4-.5-.4zm-12.4 6.3l3.6-2.5h-.5c-.1 0-.4 0-.7.2l-3.6 2.4h.5zM57 71l4.1-2.9c.3-.2-.3-1.1-.6-1a130.6 130.6 0 0 1-4.1 2.9c-.3.1.3 1.1.6 1m.3 3.3c1.2-1.2 2.6-2.2 4-3.3l-.5-.2-.5-.1h-.1a67 67 0 0 0-4.2 3.2 2.3 2.3 0 0 0 1 .4h.2zm-.3 4.2c1.2-1.5 2.6-2.8 4.1-4 .3-.1.2-.5 0-.7-.1-.2-.5-.3-.8 0a29.4 29.4 0 0 0-4.2 3.8c-.2.2-.2.6 0 .8.2.2.6.3.9 0z"
      fill="#002780" />
    <path d="M47.1 52.9h-2.6v2.6H47z" fill="var(--b, white)" />
    <path
      d="M47 55.1h-2.6l.3.7V53l-.1.2h2.6l-.3-.6v2.6c0 .2 0 .5.2.6l.3-.1V53c0-.2-.1-.6-.4-.6h-2.6c-.2 0-.3 0-.3.2v2.6c0 .3.2.6.5.6h2.6c.4 0 0-.8-.2-.8z"
      fill="#002780" />
    <path d="M55.5 52.7h-2.6v2.6h2.6z" fill="var(--b, white)" />
    <path
      d="M55.2 55.2h-2.6l.7.2v-2.6h-.4 2.7l-.7-.2v2.6c0 .2.4.2.4.2h.5v-2.6l-.2-.2h-3.4v2.6c0 .2.2.2.2.2H56a.9.9 0 0 0-.7-.2m9-2.3h-2.6v2.6h2.6z"
      fill="#002780" />
    <path
      d="M64.2 55.1h-2.6l.4.4v-2.6l-.4.2h2.6l-.4-.3v2.6c0 .3.3.4.5.5.2 0 .4-.1.4-.4v-2.6c0-.2-.3-.4-.5-.4h-2.6c-.3 0-.5 0-.5.3v2.6c0 .3.3.5.5.5h2.6c.3 0 .6-.1.5-.4 0-.2-.3-.4-.5-.4M53.7 55c.6-.7 1-1.4 1.8-2l-.4-.2h-.6l-1.7 2 .3.2h.5zm11.9-24.1l.2-.4v.1l.4-.2V30l-.1-.4a.7.7 0 0 0-.4-.1h-.4l-.5.4a1.8 1.8 0 0 0-.4.6v.2l.1.2.2.2.2.1h.5l.2-.2zm.5 2a4 4 0 0 0 2-.5l.3-.3v-.3a.8.8 0 0 0-.9 0h-.2l-.2.1-.4.1c-.2 0 0 0 0 0h-.3l-.5.1-.3.4.1.2z"
      fill="#002780" />
    <path
      d="M23.5 66.9a8.6 8.6 0 0 1-1.6-8.2c.3-1 .9-2 1.6-2.7.3-.2.9-.5 1.3-.5.3 0 .8 0 .9.3.5.6 0 1.7-.9 1.6-.4-.2-.6-.6-.7-1-.2-.5-.2-1-.2-1.6.2-1 .5-2.1 1.2-3a14 14 0 0 1 6.1-4.5c.5-.3-.3-1-.8-.9a13.9 13.9 0 0 0-6.3 4.7 6.9 6.9 0 0 0-1.2 3.6c0 1.3.5 2.8 1.8 3.4.5.2 1.2.2 1.8-.1.3-.4.5-1 .4-1.4 0-1.2-1.3-2-2.5-2s-2.3 1-2.8 2c-.6 1-1 2.2-1.1 3.3-.3 2.7.5 5.3 2.4 7.3 0 .2.4.5.7.3.2 0 0-.4-.1-.6"
      fill="var(--c, black)" />
    <path d="M74.3 59.8s1.8-1 2.5-.7c.6.2 3.6 4.9 3.6 4.9l-3.5.4z" fill="var(--b, white)" />
    <path
      d="M74.8 59.8a6.2 6.2 0 0 1 1.4-.6h.2l.4.6a39.7 39.7 0 0 1 2.4 3.3l.7.9.5-.2-3.5.4.7.1-2.4-4-.3-.7c-.2-.2-1.2.2-1.2.2l2.4 4 .3.7h.6l3.5-.4s.6-.1.5-.2L79.1 61a22 22 0 0 0-1.7-2c-.4-.3-.9-.2-1.3 0-.8 0-1.6.3-2.3.7l.2.1h1z"
      fill="var(--c, black)" />
    <path d="M70 53.2l1.5-.4 7.1 10.6-1.4.3z" fill="#002780" />
    <path
      d="M70.1 53.8l1.5-.5-.7-.3 2.4 3.6 4 5.8.8 1.3.3-.8-1.4.3.7.2-2.4-3.5-4-5.6-.8-1.3c-.4-.6-1.4-.1-1 .5l2.4 3.5 4 5.6.9 1.4c.1.2.4.3.7.2l1.4-.2c.2 0 .4-.3.4-.6l-.2-.2-2.3-3.6-3.8-5.8-1-1.3a.7.7 0 0 0-.6-.3l-1.5.6c-.7.1-.3 1.1.3 1z"
      fill="#002780" />
    <path
      d="M79.9 63.3c.3 0 4.9 6.4 4.9 6.4l-5.3 1.5-2.6-5a20 20 0 0 1-3.2-3.3 18 18 0 0 1-2-6c0-1.7 1.4 1.2 1.4 1.2s.1-2.4 1-1.5l.8 3.5s1.4-.7 1.8-.5c.3.2-1 1.9-1 1.9s1.3 2.2 1.5 2.2"
      fill="var(--b, white)" />
    <path
      d="M79.4 63.5l.2.3.4.4 1.2 1.6 2.4 3.4.7.9.5-.7-4.5 1.2-.6.3h.5l-1.7-2.3-.9-1.8-.5-.9c-.8-.5-1.4-1.2-2-2-.5-.5-1-1-1.2-1.7A19 19 0 0 1 72 57V56.6s.3-.1 0 0l-.7.2c0 .1 0 0 0 0l.3.4.7 1.2c.2.5 1.1 0 1.1-.3l.2-1v-.4s.2 0 0 0l-.3.2.3 1 .2 1.7.3.8c0 .5.7.1.8 0h.2l.5-.2.3-.1h.1V60l-1 1.7v.2l.7 1.2.5.7.5.4c.2 0 .5 0 .8-.2 0-.1.2-.4 0-.5l-.3-.3-.5-.7-.7-1v.3l.5-1c.3-.3.7-.8.5-1.2-.2-.6-1.1-.2-1.4 0l-1.2.5h.9l-.7-2.8c0-.5-.1-1-.5-1.1-.6-.3-1.3.4-1.6.9a6.2 6.2 0 0 0-.2 1.3l1.1-.4-.7-1.2-.5-.5c-.4-.3-1 0-1.2.3-.2.3-.2.7-.2 1l.3 1.2a21.4 21.4 0 0 0 1.8 4.4 23.8 23.8 0 0 0 3 3.4l.1.2 1 1.5 1.7 3.3.6.1 4.6-1.3.6-.2c.2 0 .8-.3.6-.6L81 64l-.5-.6-.3-.3a.9.9 0 0 0-.9.3s-.2.3 0 .4z"
      fill="var(--c, black)" />
    <path d="M72.8 57.2v1.5c0 .9 0 1.7.2 2.4 0 .2.1.5.4.7l.2.2c-.1-.9-.2-1.6-.1-2.4v-1.4l-.4-.5-.2-.3-.1-.1z"
      fill="var(--c, black)" />
    <path
      d="M74.6 59.6a2 2 0 0 0-1.5 1.6v1.4c0 .2.3.4.6.5.2 0 .3-.2.2-.5v-.8c0-.1 0 0 0 0v-.1l.2-.3.2-.2.3-.2.3-.2h.1c.3 0 .3-.4.2-.6l-.4-.4h-.2zm18.2-8.5c-.2-6.2-4.1-7.2-6.9-7s-4.4 1.4-4.6 2.6c-.3.9 2.3 5.5 2.3 5.5l5.3 3.6s4 0 4-4.7"
      fill="var(--c, black)" />
    <path d="M82 75.4s-2.5-13.6 4-18.7c8.9-6.8 11.7 20 11.7 20z" fill="var(--c, black)" />
    <path
      d="M82.7 75.4a24.7 24.7 0 0 1-.6-5.3l.1-3.3a18 18 0 0 1 1.8-6.5c.4-1 1.1-1.9 2-2.7a7 7 0 0 1 1-.9h.3l.1-.1.5-.2.4-.1s.1 0 0 0h1.4c-.1 0 0 0 0 0l.3.2.4.1c-.1 0 0 0 0 0l.2.2.4.4.1.2.8.8.6 1c0-.2 0 0 0 0l.1.4.3.5a25.6 25.6 0 0 1 1.5 3.5l.2.7v.1s0 .2 0 0v.1l.2.4a63.5 63.5 0 0 1 2 9.5l.3 2.2v.2l.6-.7-5.3-.4L84 75h-2c-.3 0-.6 0-.7.4 0 .3.2.6.6.7l5.3.4 8.3.7h1.9c.3 0 .5 0 .6-.3v-.1L98 75a74.8 74.8 0 0 0-3.7-14.6 13.2 13.2 0 0 0-2.6-4 4.5 4.5 0 0 0-3.4-1.4c-1.7.2-3.3 1.6-4.4 3a15 15 0 0 0-2.5 6.7 30.9 30.9 0 0 0 .1 10.6v.1c0 .4.4.6.7.6s.5-.2.5-.5zm-4 22.5a5 5 0 0 1 1.4 2.2c.5 1.5-2.8 3.8-6.2 4.2-3.6.3-2.7-1.8.8-3.8 3.6-2.1 4-2.6 4-2.6"
      fill="var(--c, black)" />
    <path
      d="M78.3 98.2c.4.4.7.9.8 1.2l.4.7v.4c0 .3 0 .5-.2.7-.4.6-1.1 1-1.7 1.4A11.2 11.2 0 0 1 73 104h-.5l-.2-.1-.2-.2s0-.1 0 0c0-.1 0-.2 0 0v-.4l.2-.4c.7-.7 1.5-1.2 2.3-1.8a68 68 0 0 0 4-2.6c.2 0 .3-.2.4-.3v-.6H79a.7.7 0 0 0-.8.2s.2-.1 0 0l-.2.2-.4.3h-.1l-.2.2-.5.4-3.1 1.8c-.9.6-1.8 1.2-2.3 2.1-.4.5-.6 1.3 0 1.8.6.6 1.8.4 2.6.3 2-.3 4.4-1.2 6-2.9a2 2 0 0 0 .4-2.5c-.3-.7-.7-1.3-1.3-1.9-.3-.4-1.3.4-.8.7m-15.6-8.6c0 .8-.3 1.7-.8 2.4-1 1.3-4.7.1-7.2-2.4-2.5-2.4-.3-3 3.5-1.5s4.5 1.5 4.5 1.5"
      fill="var(--c, black)" />
    <path
      d="M62.2 89.7a4.5 4.5 0 0 1-.9 2.3v.2s.2 0 0 0c0 0 .2 0 0 0h-.9c-.8 0-1.5-.3-2.3-.7-1-.5-1.8-1-2.6-1.8-.5-.4-1.3-1-1.4-1.7v-.5H54l-.2.2h.5c.8 0 1.7.2 2.6.4 1 .4 2.1 1 3.2 1.2l1.8.5h.4c.3 0 .5 0 .7-.2 0 0 .4-.4 0-.4h-.4l-1.7-.6-3.5-1.2c-1-.3-1.8-.6-2.8-.5-.6.2-1.6.5-1.7 1.2 0 .8.7 1.5 1.3 2a9.4 9.4 0 0 0 5.4 2.8c1 0 2-.2 2.5-.9.6-.9 1-1.7 1-2.7 0-.3-.9.2-1 .4z"
      fill="var(--c, black)" />
    <path d="M79.2 95.8s.4 3.1.3 3.6c-.4 1.8-6 4.1-6.6 3.3-.7-.7 3.2-2.8 3.3-4v-2.4z" fill="var(--b, white)" />
    <path
      d="M78.6 96a240 240 0 0 0 .3 3.3c0 .5-.4.8-.7 1.2-.6.4-1.2.9-1.8 1.1-.6.4-1.2.7-2 .8h-.3l-.2.1c.1 0 0 0 0 0h-.3c.2 0 0 0 0 0s-.1 0 0 0h-.2v-.2c0-.2.2-.4.4-.6l1.6-1.3c.5-.5 1.1-1 1.3-1.6.2-.5 0-1.1 0-1.7v-1l-.7.6 3-.4c.2 0 .7-.1.8-.4s-.2-.3-.4-.3l-3 .5c-.2 0-.8.2-.7.4v2.6c-.3.5-1 1-1.4 1.4l-1.7 1.5c-.2.3-.6.9-.2 1.1.5.4 1.2.1 1.7 0a11.5 11.5 0 0 0 2.3-.7l2.2-1.3c.5-.4 1-.9 1.4-1.6v-2l-.2-1.7c0-.3-1.2 0-1.2.4z"
      fill="var(--c, black)" />
    <path d="M64.7 88.7S62.5 90.9 62 91c-1.7.8-6.9-2.2-6.7-3.1.1-1 4.2.7 5.2 0 .6-.4 1.4-.8 2-1.4z"
      fill="var(--b, white)" />
    <path
      d="M64.1 88.8l-2.3 2c-.2 0 0 0 0 0 .1 0 0 0 0 0 .2 0 0 0 0 0h-1.1a12.4 12.4 0 0 1-4-2c-.2-.2-.8-.6-.8-1v-.2l-.2.1h-.3.6l2.1.5c1 .2 1.6.2 2.4 0 .6-.3 1-.7 1.5-1.1l1-.6-1.1.2 2 2c.3.3 1.4-.2 1.2-.3L63 86.3h-.5l-.5.3-.8.6-.7.5-.3.3.2-.1c-.1 0 0 0 0 0h-.7l-1.2-.3c-.7 0-1.5-.3-2.2-.2-.4 0-1.6.1-1.6.7 0 .5.6 1 .9 1.1l2 1.2c1.4.7 3 1.3 4.4.8a64.4 64.4 0 0 0 3.1-2.6c.3-.3 0-.3-.2-.2-.2 0-.5 0-.7.3z"
      fill="var(--c, black)" />
    <path d="M82.9 81.4s1.4 17.7-6.2 16c-7.4-1.6-1-18.7-1-18.7z" fill="var(--b, white)" />
    <path
      d="M82.2 81.3a44.1 44.1 0 0 1-.5 10.4c-.3 1.4-.7 2.8-1.5 4a4.2 4.2 0 0 1-1.7 1.4l-.3.1H78c-.2 0 0 0 0 0h-.4c-.1 0 .1 0 0 0H77c.2 0 0 0 0 0h-.2s-.2 0 0 0h-.3l-.2-.1s-.2 0 0 0h-.2l-.2-.2-1.3-1.3c-.7-1.4-.8-3-.8-4.5a44.1 44.1 0 0 1 1.7-9.7l1-2.5v-.1h-1l6.2 2.4.8.3c.2.1.6.2.9 0 .2-.1-.1-.2-.3-.3l-6-2.3-1-.4c-.1 0-.7-.1-.8.1a47.1 47.1 0 0 0-2.7 11.5c0 1.7 0 3.3.6 4.8a4.5 4.5 0 0 0 3.2 2.7 4.4 4.4 0 0 0 4-.8c1.1-.9 1.7-2.3 2.1-3.5a39.4 39.4 0 0 0 .9-11.8v-.1c0-.4-1.2-.4-1.2-.1"
      fill="var(--c, black)" />
    <path
      d="M98 76.4s-.3 5.7-2.9 5.7c-7.5 0-16.4-1.3-16.4-1.3s-10.1 12.3-15 9.4c-5-3-2.3-7.8 4-13.7 6.2-6 9.6-6.8 12.7-5.3s17.5 5.3 17.5 5.3z"
      fill="var(--b, white)" />
    <path
      d="M97.3 76.8a9.2 9.2 0 0 1-1.3 4.6l-.2.3h-.2.1a122.6 122.6 0 0 1-14.5-.9l-1.7-.2h-.3c-.4 0-.8.1-1 .5l-1 1.1a44.7 44.7 0 0 1-8 7l-1 .4-.3.2c-.1 0 0 0 0 0h-.1l-.2.2-1.8.4c-.4 0-1-.2-1.5-.4-1.4-.7-2.6-2-2.6-3.5-.2-1.9.9-3.6 1.7-5a38.8 38.8 0 0 1 10.8-9.8l.9-.4c.3 0 .6-.3 1-.3a4 4 0 0 1 1.7 0c1.2 0 2 .6 3 1a368 368 0 0 0 16 4.6h.5l.7-.2.4-.3-3.5-1a372.4 372.4 0 0 1-7.5-2c-2-.6-4.1-1.2-6.1-2-.8-.3-1.5-.7-2.4-.8-1 0-2.1 0-3.1.5-1.4.4-2.7 1.1-4 2a39.5 39.5 0 0 0-8.8 8.5 11.5 11.5 0 0 0-2.3 4c-.3 1.2-.2 2.3.5 3.4.3.5.8 1 1.3 1.3s.9.6 1.4.7c.9.3 2 .2 2.7 0 1.2-.5 2.3-1 3.4-1.7a50 50 0 0 0 9-8.2l.2-.2-1 .5A127 127 0 0 0 95 82.3a3.5 3.5 0 0 0 2-1.1c.5-.6.8-1.2 1-1.8.3-1 .5-2.2.5-3.3l-.5.2c-.2 0-.6.2-.6.4z"
      fill="var(--c, black)" />
    <path
      d="M81.5 55.1c-2-1.7 0-7.5 0-7.5 1-.2 2.6-1.3 2.6-1.3-.3 3.1 3.3 3.6 3.3 3.6.6-1.6 2.5-1.2 2.6.4 0 1.6-1.5 1.8-1.5 1.8s1 4 1 4.5c0 0-2.4 2-4.3 0 0 0-2.4-.3-3.7-1.5"
      fill="var(--b, white)" />
    <path
      d="M82 55c-.8-.7-.8-2.1-.7-3.2 0-1.2.3-2.3.6-3.4l.2-.8-.2.2a11 11 0 0 0 2.6-1.4h-1c-.2 1.3.5 2.4 1.6 3a5.3 5.3 0 0 0 1.8.7h.6s.4 0 .4-.2l.5-.8h.3-.2c.4.1.8.6.9 1.1a1.8 1.8 0 0 1-.7 1.5 1.8 1.8 0 0 1-.5.3s.1 0 0 0-.4 0-.4.2l.6 2c0 .5.2 1 .4 1.5v1a4 4 0 0 1-1.2.6H87l-.9-.7c-.2 0-.2-.3-.5-.3H85l-.8-.3q-1.2-.2-2.1-1h-1s-.5 0-.3.2c1 1 2.7 1.4 4 1.4a3 3 0 0 0 2.7 1 4 4 0 0 0 2.2-.8l.4-.2v-.7l-.6-2.3L89 52l-.3.2c.9-.2 1.6-.7 1.7-1.6a1.8 1.8 0 0 0-.3-1.6c-.5-.5-1.2-.5-1.8-.4-.7 0-1.3.5-1.5 1.2l1-.1-.5-.2H87l-.4-.2-.6-.2a3 3 0 0 1-1.5-3h-.4l-.7.1c-.6.5-1.4 1-2 1.2-.2 0-.5 0-.6.3l-.2.6c-.4 1.5-.8 3-.7 4.5 0 1 .3 1.8 1 2.3 0 .2.4.1.6 0 .1 0 .6 0 .5-.2"
      fill="var(--c, black)" />
    <path d="M86.2 52v.9c0 .2-.3.3-.5.3h-.1v.4l.3.2.1.2h.6l.2-.4v-1.1l-.4-.5-.1-.1v.2z" fill="var(--c, black)" />
    <path d="M82.8 50.6A9 9 0 0 1 81 52c-2.1 1-2.1 2-1.2 2.1s3.8-1 3.8-1" fill="var(--b, white)" />
    <path
      d="M82.3 50.3c-.5.5-1.2.9-2 1.2l-1.2 1c-.2.2-.4.4-.4.8 0 .8.9 1.2 1.5 1.2l.9-.1a29.1 29.1 0 0 0 2.6-1c.7-.2 0-1.2-.6-.9l-1 .4-1.1.4h-.3l-.6.2h-.5c-.2 0 0 0 0 0-.2 0 0 .1 0 0 0 0 0 .1 0 0 0 0 0 .2 0 0v.1s0 .2 0 0l.2-.1.1-.3 1.2-.7 2.1-1.4c.4-.5-.4-1.2-.9-.9zm1.8-.4c-.2 0-.3.3-.3.4.2.4.6.3.6 0 0-.2-.1-.4-.3-.4"
      fill="var(--c, black)" />
    <path
      d="M81.6 50s-.2.1-.2.3c.1.3.6.3.6 0 0-.2-.1-.4-.3-.4zm9 2.6l1 1.6 1.2.7c.6 0 1.2.2 1.7 0 .7-.5 1.2-1.8.5-2.4-.2-.4-.9-.5-1.2-.5-.4 0-.9-.1-1.2.1-.7.7 0 2 .5 2.6.7.9 1.8 1.6 2.8 1.9.5 0 1.2.2 1.7 0 .3-.2.4-.6.4-1 0-.7-.9-1.2-1.5-1.2-.6-.2-1.7-.5-2.4.1-.6.6 0 1.4.4 1.9l.8.8.7.2h.4c-.6-.6-1.4-1.4-1.4-2.2.1-.5.6-.7 1-.8.3 0 0 0 0 0 .3.1.5.3.6.6.3.3.3 1.2-.2 1.4h-.2.2l-.4-.1a5.3 5.3 0 0 1-1.1-.9c-.7-.5-1.4-1.4-1.4-2.4 0-.2.1-.5.4-.7h.2-.3c-.2-.2 0-.2 0 0 .6.3.4 1 .2 1.7l-.6.5-.3.2c-.5.3.3 0 .4 0h-.2l-.5-.5-1-1.4-.6-.2z"
      fill="var(--c, black)" />
    <path
      d="M86.8 75.4s11.2 1.4 12.4-.7c1-2-2.5-11-4.7-14.6s-4.4-5.1-5.6-2.3c-1.4 3 4.4 13.3 4.4 13.3l-6.4.5-4.2-1.5c-1.9-.7-3.6-.4-3 .2 0 0-1 0-1.5.5l.9.4s4 3.3 7.7 4.2"
      fill="var(--b, white)" />
    <path
      d="M86.5 75.8a53 53 0 0 0 11 0c.6 0 1.3-.2 1.8-.6.6-.5.7-1 .7-1.8a43.7 43.7 0 0 0-6.2-15.6C93 57 92 56 91 55.9c-1.2 0-2.1.7-2.7 1.8-.2.5-.3 1.2-.2 1.9A44.2 44.2 0 0 0 92.6 71l.2.2.7-.6-5.6.4-.8.1h.3l-4.1-1.5c-1-.3-2-.5-3-.3-.5 0-1.8.5-1 1.1l.6-.6c-.7 0-1.5.2-2 .6-.3.2-.4.4-.2.5l.7.3.2.2c.1 0 0-.1 0 0l.8.6a25.6 25.6 0 0 0 7 3.7c.3 0 .7 0 .9-.3s0-.4-.2-.4c-2.8-.8-5.2-2.5-7.4-4.2a6.2 6.2 0 0 0-1-.5l-.2.5c.3-.2.6-.3 1-.2.3 0 1-.4.8-.7H80s0 .1 0 0h.8c1 .1 1.8.5 2.6.8l2.1.8.9.3H88l3-.3 2-.1c.2 0 .3 0 .5-.2.1 0 .3-.3.2-.4a56.8 56.8 0 0 1-4.3-10c-.2-.6-.4-1.3-.4-2.1l.1-1c0 .2 0 0 0 0l.2-.3.5-.6.2-.2c-.1 0 0 0 0 0s-.1 0 0 0c.3 0 0 0 0 0h.3c.5.1 1 .4 1.2.7 1 .8 1.8 2 2.5 3.3l1.3 2.6a51.2 51.2 0 0 1 3.2 9.3 4.7 4.7 0 0 1 0 2v.2c0-.2 0 0 0 0h-.1s-.2.2 0 0l-.2.2c-.2 0 0 0 0 0h-.5c0 .2.1 0 0 0v.2h-.6l-.5.2h-.5a36.2 36.2 0 0 1-9-.3h-.1a.9.9 0 0 0-.9.3c0 .1 0 .3.3.4"
      fill="var(--c, black)" />
    <path d="M82.4 71l-2.9-.7z" fill="var(--b, white)" />
    <path d="M82.4 70.8l-1.2-.4-1.8-.3c-.3 0-.3.4 0 .5a21.5 21.5 0 0 1 3 .7c.2 0 .3 0 .3-.2s-.1-.3-.3-.3"
      fill="var(--c, black)" />
    <path
      d="M75.4 51.4l-.7 1.1v.3l.4.2.4.2h.2l.7-1.1v-.2l-.3-.4-.5-.1zm1.4 2.2a4.4 4.4 0 0 0-1 .5v.7l.2.3h.2l1.1-.4V54l-.3-.4z"
      fill="#002780" />
    <path d="M29.1 105a12.6 12.6 0 1 0 0-25.2 12.6 12.6 0 0 0 0 25.1z" fill="var(--b, white)" />
    <path
      d="M31.4 104.3A11.6 11.6 0 0 1 19 98.9c-2.7-4.4-2.3-10.1.9-14.1s8.5-5.7 13.2-4c4.9 1.7 8.1 6.4 8.1 11.4a12.5 12.5 0 0 1-9.7 12c-.3.2-.3.4 0 .5.2.2.5.3.8.2a12.8 12.8 0 0 0 3-24 14.7 14.7 0 0 0-8-1.3 12.7 12.7 0 0 0-10 18 13.5 13.5 0 0 0 15 7.3c.2 0 .2-.3 0-.3-.2-.3-.5-.3-.8-.3"
      fill="#002780" />
    <path d="M31.4 104.8a12.6 12.6 0 1 0 0-25.1 12.6 12.6 0 0 0 0 25.1" fill="#002780" />
    <path
      d="M33.8 104.1A12 12 0 0 1 21 98.8a12.3 12.3 0 0 1 14.4-18c4.8 1.6 8 6.2 8 11.2a12.4 12.4 0 0 1-9.7 12c-.5.1 0 1.2.6 1 5.3-1.1 9.3-5.5 10-11S42 83.2 37.2 80.7a13 13 0 0 0-15 2.2 13 13 0 0 0-2.7 14.6 13.4 13.4 0 0 0 15 7.7c.4-.2-.3-1.2-.7-1z"
      fill="#002780" />
    <path d="M20.1 83.6l1.3.8z" fill="var(--b, white)" />
    <path d="M19.7 84l1.4.7h.4c.2 0 .3 0 .4-.3v-.2l-.3-.2h.1l-1.2-.7a.7.7 0 0 0-.5 0 .9.9 0 0 0-.4 0l-.1.4z"
      fill="#002780" />
    <path d="M18.4 86.4c.5 0 1 .2 1.4.5z" fill="var(--b, white)" />
    <path d="M18 86.7l.4.1.7.3H19l.2.2h.8l.3-.4v-.3a4 4 0 0 0-1.8-.7.9.9 0 0 0-.4 0l-.4.4v.3z" fill="#002780" />
    <path d="M18.8 89.6h-2z" fill="var(--b, white)" />
    <path d="M18.4 89.1c-.7.1-1.3.2-2 .1l.1.4.8.3h2c.2 0 0-.3 0-.3l-.5-.3a.9.9 0 0 0-.4 0z" fill="#002780" />
    <path d="M18.7 93l-2 .4z" fill="var(--b, white)" />
    <path
      d="M18.5 92.6h-.3l-.1.1c-.2 0 0 0 0 0l-.5.1-1 .2c-.3 0-.5.2-.5.5.1.3.4.5.8.4a9 9 0 0 0 2-.5c.2 0 .4-.2.3-.4a.7.7 0 0 0-.8-.4z"
      fill="#002780" />
    <path d="M19.3 96.2l-1.7.6 1.7-.5z" fill="var(--b, white)" />
    <path d="M19.5 96a25.6 25.6 0 0 0-2.3.8l-.3.2h.5l.4-.2h.4l.9-.4.4-.1.3-.2v-.2z" fill="#002780" />
    <path d="M20.8 99.4c-.4.3-.9.7-1.3.8z" fill="var(--b, white)" />
    <path
      d="M20.3 99.5c0 .1 0 0 0 0 0 .1-.2.3 0 .1l-.2.2c.2-.2 0 0 0 0s.1-.1 0 0h-.2c-.1.2 0 0 0 0l-.1.2a77.6 77.6 0 0 1-.7.5c.8-.3 1.5-.8 2-1.3 0 0 .3 0 .2-.1h-.1l-.7.4z"
      fill="#002780" />
    <path d="M23 101.8c-.5.1-.8.4-1.1.6l1-.6z" fill="var(--b, white)" />
    <path d="M22.3 101.5l-.9.6.1.2.4.1.3.3h.2l.9-.6v-.1l-.4-.3-.4-.1z" fill="#002780" />
    <path
      d="M34.1 88.1c-1-.8-2.2-1.8-3.5-1.3-1.1.6-2 2-1.5 3.3.5 1.4 2.2 2 3.1 3 .8.9.7 2.3-.3 3l-.1.3a2.6 2.6 0 0 1-3.6-.7c-.1 0-.4-.5-.6-.3l.2.5c.9 1 2 2 3.5 1.8a2.5 2.5 0 0 0 2.2-2.3c0-1.5-1-2.8-2.2-3.7l-.8-.6-.4-.4-.2-.2c-.3-.3 0-.7 0-1 0-.3.2-.6.5-1 .4-.4 1-.9 1.7-.8.9 0 1.5.5 2 1 .1.2.4.3.4 0s-.3-.5-.4-.6"
      fill="var(--b, white)" />
    <path
      d="M31.8 85.6V87l.4.3h.4l.3-.2.1-1.3v-.2l-.5-.3H32l-.1.1zm-2.2 11.7v.6c0 .4 0 .7-.2 1v.4l.2.3.4.2.3-.3.2-1.6v-.4l-.4-.4h-.3zM17.1 76.8l-8.5 26 5 1.7 8.5-26z"
      fill="var(--b, white)" />
    <path
      d="M21.5 78.3l-.9 2.6-1.9 6.2-2.5 7.5-2 6.5-.8 2.1-.3 1h.6L9.3 103l-.7-.2.6.3.9-2.6 2-6.2 2.4-7.6 2.2-6.5.6-2.1.3-1H17l4.4 1.3.7.2s.6.2.6 0-.5-.2-.6-.3l-4.4-1.4-.6-.2s-.5-.2-.6 0l-.8 2.6-2 6.2-2.5 7.5-2.1 6.5-.7 2.2-.2.7-.2.3c0 .3.6.4.6.4l4.4 1.4.6.2s.5.2.6 0l.9-2.5 2-6.2 2.3-7.7 2.2-6.5.7-2.1.2-.7v-.4c.2-.2-1-.6-1-.3z"
      fill="#002780" />
    <path d="M10.6 98.2l4 1.3z" fill="var(--b, white)" />
    <path d="M10.9 98.7l4 1.3-.3-.4-.1-.4-.2-.2-4-1.3.1.4.3.4z" fill="#002780" />
    <path d="M12 93l4.5 1.3z" fill="var(--b, white)" />
    <path d="M12.4 93.2l4.4 1.4h.2l-.1-.1-.8-.4-4.4-1.5h-.2l.1.2z" fill="#002780" />
    <path d="M13.7 87.4l4.4 1.3-4.4-1.4z" fill="var(--b, white)" />
    <path d="M13.1 87.4l4.4 1.3h1.1l-4.4-1.4h-1z" fill="#002780" />
    <path d="M15.7 82.6l4 1.4z" fill="var(--b, white)" />
    <path d="M15.2 82.8l4 1.4 1-.1s.3-.2 0-.3l-4-1.4c-.3 0-.6 0-1 .2 0 0-.3.2 0 .2" fill="#002780" />
    <path d="M108.5 98.1H81.2v5.3h27.3z" fill="var(--b, white)" />
    <path
      d="M108.4 102.9H80.9l.7.7v-5.3l-.2.3h27.4l-.7-.7v5.2c0 .2.3.5.5.7.2 0 .5 0 .5-.2v-5.3a.9.9 0 0 0-.7-.7H80.9s-.3 0-.3.2v5.3c0 .4.4.7.8.8h27.4c.6 0 0-1-.4-1"
      fill="#002780" />
    <path
      d="M85.8 98.1v4.2c0 .3.1.6.4.7 0 0 .4.2.4 0v-4a1 1 0 0 0-.5-.9s-.3-.2-.3 0m5.4-.2v4.7c0 .4.2.6.5.7.2.1.4.2.4-.2v-4.6a.9.9 0 0 0-.4-.7l-.5.1m5.8.2v4.6c0 .4 1.1.4 1.1 0V98c0-.4-1.1-.4-1.1 0zm5 .4v4.3c0 .3.4.3.5.3s.6 0 .6-.2v-4.4c0-.2-.3-.3-.5-.3s-.6 0-.6.3"
      fill="#002780" />
    <path d="M110.7 92.6H83.3V98h27.4v-5.3z" fill="var(--b, white)" />
    <path
      d="M110.3 97.5H82.9l1 .5v-5.3l-.3.2h27.6l-1-.5v5.3c0 .2 1.2.7 1.2.3v-5.3l-.4-.3-.6-.2H82.8v5.4c0 .2.1.3.3.3l.5.3h27.6c.2 0 0-.3 0-.4q-.3-.3-.8-.3z"
      fill="#002780" />
    <path
      d="M87.7 93.2v4c0 .6 1.2.2 1.2-.2v-4.2c0-.5-1.2-.2-1.2.4m5.6-.7V97c0 .3.3.4.4.5 0 0 .6.2.6 0v-4.7c0-.2-.3-.3-.4-.3 0 0-.6-.2-.6 0zm5.8-.1V97c0 .3.3.5.5.6.3 0 .6 0 .6-.4v-4.6c0-.2-.2-.5-.5-.6-.3 0-.6 0-.6.4m5 .7v4.3c0 .2 1.3 0 1.3-.2v-4.4s-1.3 0-1.3.3"
      fill="#002780" />
    <path d="M110.6 87H82.9v5.3h27.6V87z" fill="var(--b, white)" />
    <path
      d="M110.5 91.8H82.9l.7.4V87l-.6.5h27.5l-.6-.4v5.3c0 .6 1.1.6 1.1 0v-5.4c0-.3-.4-.4-.6-.4H83q-.5 0-.5.5v5.3c0 .3.4.4.6.4h27.5c.2 0 .5-.1.5-.5 0-.3-.4-.5-.6-.4"
      fill="#002780" />
    <path
      d="M87.5 87.5v4.2c0 .6 1 .2 1-.3v-4c0-.7-1-.3-1 .2zM93 87v4.7c0 .2.3.3.5.4.1 0 .6 0 .6-.2v-4.6c0-.3-.2-.5-.5-.5 0 0-.6 0-.6.2m6-.4v4.6c0 .3.4.5.4.6.1 0 .6.2.6 0v-4.4c0-.3-.4-.5-.6-.6 0 0-.5-.2-.5 0zm5 .8v4.4c0 .6 1 .8 1 0v-4.4c0-.6-1-.8-1 0z"
      fill="#002780" />
    <path d="M111.4 81.6H84V87h27.4z" fill="var(--b, white)" />
    <path
      d="M111.9 86.6H84.7a.9.9 0 0 0-.3 0v-5.2l-1 .4h27.5V87s1-.2 1-.5v-5.2H84.5l-.7.1-.3.3V87h27.5c.4 0 .6-.1.9-.3l.2-.2z"
      fill="#002780" />
    <path
      d="M88.3 81.9V86c0 .4 1.3.6 1.3.3V82c0-.4-1.3-.6-1.3-.3zm5.6 0v4.7c0 .2.3.1.4 0 .2 0 .7-.1.7-.4v-4.7h-.5s-.6.2-.6.4m5.8-.4v4.6c0 .3.4.4.6.4.2 0 .6 0 .6-.3v-4.6c0-.2-.3-.4-.6-.4-.2 0-.6 0-.6.3m5 .6v4.4c0 .2 1.3.1 1.3-.3v-4.3c0-.3-1.3-.2-1.3.2"
      fill="#002780" />
  </g>
</svg>
