<svg viewBox="0 0 120 120" fill="none" xmlns="http://www.w3.org/2000/svg">
  <g id="doc">
    <path d="M71.043 80.76h-22.2l-1.8 12.288h25.8l-1.8-12.288z" fill="var(--b, white)" />
    <path
      d="M71.04 80.712H48.842c-.048 0-.576 0-.6.072l-.6 4.152-.96 6.6-.216 1.536c0 .048.6.048.6.048h25.8c.048 0 .6 0 .6-.072l-.6-4.152-.96-6.6-.216-1.536c-.024-.144-1.2-.024-1.2.024l.6 4.152.96 6.6.216 1.536.6-.072H50.233c-1.056 0-2.088-.024-3.12 0h-.072l.6.048.624-4.152.96-6.6.216-1.536-.6.072H71.04c.048 0 .6 0 .6-.072s-.576-.048-.6-.048z"
      fill="var(--c, black)" />
    <path
      d="M19.631 17.448h80.473a3.431 3.431 0 0 1 3.431 3.432v56.64a3.431 3.431 0 0 1-3.431 3.432H19.632a3.431 3.431 0 0 1-3.433-3.432V20.88c-.024-1.872 1.512-3.432 3.432-3.432z"
      fill="var(--b, white)" />
    <path
      d="M20.019 17.88h80.448c.6 0 1.296.144 1.776.552.6.504.816 1.392.816 2.136v56.616a3.432 3.432 0 0 1-3.384 3.408H19.25c-.648 0-1.392-.144-1.872-.624-.528-.528-.72-1.344-.72-2.064V21.288a3.411 3.411 0 0 1 3.36-3.408c.192 0-.168-.384-.192-.408-.12-.144-.384-.432-.6-.432-1.944.024-3.48 1.584-3.504 3.528v56.616c.024 2.184 2.136 4.176 4.296 4.224h80.712a3.535 3.535 0 0 0 3.264-3.528V23.568c0-.816.048-1.68 0-2.496-.12-2.112-2.208-4.008-4.296-4.032H19.227c-.192 0 .168.384.192.408.12.144.384.432.6.432z"
      fill="var(--c, black)" />
    <path
      d="M19.632 16.727h80.448c1.896 0 3.432 1.537 3.456 3.433v47.448h-87.36V20.183a3.457 3.457 0 0 1 3.456-3.456c-.024 0-.024 0 0 0z"
      fill="var(--c, black)" />
    <path
      d="M19.49 17.016h80.447c1.56.024 2.832 1.296 3 2.856.048.84.048 1.704.024 2.568v45.24l.744-.312H19.873c-1.128 0-2.28-.048-3.408 0h-.144l.456.24V20.952c0-1.104.048-2.136.864-3.024.264-.288.552-.504.912-.672.288-.144.6-.216.936-.24.192 0 .648 0 .72-.24.072-.24-.288-.312-.432-.312-2.304 0-4.176 1.584-4.176 3.936v45.072c0 .672-.096 1.44 0 2.112v.096c0 .168.336.24.456.24h87.36c.168 0 .744-.024.744-.312V20.592c.024-.48-.024-.96-.144-1.44-.504-1.656-2.064-2.664-3.768-2.688H19.801c-.192 0-.648 0-.72.24-.072.24.24.312.408.312z"
      fill="var(--c, black)" />
    <path d="M61.697 74.69a1.776 1.776 0 1 0-3.506-.568 1.776 1.776 0 0 0 3.506.569z" fill="var(--b, white)" />
    <path
      d="M60.194 72.936c.168 0-.096-.024.048 0l.096.024c-.144-.024 0 0 .024 0-.024 0-.12-.048-.024 0 .024 0 .168.072.048 0l.096.048s.144.096.048.024a.421.421 0 0 1 .12.096c.096.096.192.192.264.288.072.12.144.264.192.408.192.624-.024 1.296-.528 1.728-.12.096-.24.168-.36.216a.445.445 0 0 1-.168.048c-.024 0-.072.024-.096.024l-.096.024h-.12c-.048 0-.096 0-.144-.024.12.024.048 0 .024 0-.144-.048.12.048-.024 0l-.096-.024c.12.048-.024 0-.024-.024s-.144-.072-.048-.024a1.023 1.023 0 0 1-.288-.264 1.405 1.405 0 0 1-.24-.408 1.63 1.63 0 0 1 .456-1.8c.12-.12.288-.192.432-.264a.928.928 0 0 1 .408-.096c.168 0 .456-.096.288-.312a.916.916 0 0 0-.768-.288 2.08 2.08 0 0 0-2.016 1.344c-.264.84.024 1.752.744 2.28.792.576 2.016.792 2.88.264a1.967 1.967 0 0 0 .936-2.136c-.264-1.128-1.464-1.728-2.544-1.752-.168 0-.456.096-.312.312.192.216.48.312.792.288z"
      fill="var(--c, black)" />
    <path d="M99.937 20.352H19.61v43.872h80.328V20.352z" fill="var(--b, white)" />
    <path
      d="M19.706 20.711H96.77c1.032 0 2.088.048 3.12 0h.144l-.696-.48v43.2a2.507 2.507 0 0 0 0 .6v.072l.504-.264H22.778c-1.032 0-2.088-.048-3.12 0h-.144l.696.48V25.871c0-1.776.024-3.552 0-5.328v-.072c0-.504-1.176-.672-1.176-.216v38.448c0 1.776-.024 3.552 0 5.328v.072c0 .336.408.48.696.48h80.328c.144 0 .504-.048.504-.264V25.871c0-1.776.024-3.552 0-5.328v-.072c0-.336-.408-.48-.696-.48H19.514c-.216 0-.552.096-.48.36.072.264.456.36.672.36z"
      fill="var(--c, black)" />
    <g opacity=".5" fill="#002780">
      <path
        d="M50.57 29.976a9 9 0 0 1 2.063.528l1.512-1.272 2.592 1.968-.816 1.8a8.7 8.7 0 0 1 1.08 1.824l1.968.168.456 3.216-1.823.696a9 9 0 0 1-.528 2.064l1.248 1.512-1.969 2.592-1.8-.816a8.7 8.7 0 0 1-1.823 1.08l-.168 1.968-3.216.456-.696-1.848a9 9 0 0 1-2.064-.528l-1.512 1.272-2.616-1.944.816-1.8a8.7 8.7 0 0 1-1.08-1.824l-1.969-.168-.456-3.24 1.849-.696a9 9 0 0 1 .527-2.064l-1.272-1.512 1.969-2.592 1.8.816a8.7 8.7 0 0 1 1.823-1.08l.168-1.968 3.216-.456.72 1.848zM49.01 33.6a4.406 4.406 0 0 0-3.744 4.968 4.406 4.406 0 0 0 4.968 3.744 4.406 4.406 0 0 0 3.743-4.968A4.406 4.406 0 0 0 49.01 33.6z" />
      <path
        d="M49.272 47.904l-.696-1.872a8.906 8.906 0 0 1-1.944-.504l-1.512 1.296-2.76-2.088.816-1.824a7.844 7.844 0 0 1-1.032-1.728l-1.992-.168-.48-3.408 1.872-.72c.096-.672.264-1.32.504-1.944l-1.296-1.536 2.088-2.76 1.824.816c.528-.408 1.128-.744 1.728-1.032l.168-1.992 3.408-.48.696 1.872c.672.096 1.32.264 1.944.504l1.536-1.296 2.76 2.064-.816 1.824c.408.528.744 1.128 1.032 1.728l1.992.168.48 3.408-1.872.696a8.906 8.906 0 0 1-.504 1.944l1.296 1.512-2.088 2.76-1.824-.816a8.897 8.897 0 0 1-1.728 1.032l-.168 1.992-3.432.552zm-2.712-2.64l.072.024a8.32 8.32 0 0 0 2.016.528h.072l.696 1.824 3.048-.432.168-1.944.072-.024a7.54 7.54 0 0 0 1.8-1.056l.048-.048 1.776.792 1.848-2.448-1.248-1.488.024-.072a8.32 8.32 0 0 0 .528-2.016v-.072l1.824-.696-.432-3.048-1.944-.168-.024-.072a7.54 7.54 0 0 0-1.056-1.8L55.8 33l.792-1.776-2.448-1.848-1.488 1.248-.072-.024a7.955 7.955 0 0 0-1.968-.528l-.096.096-.744-1.944-3.048.432-.168 1.944-.072.024a7.54 7.54 0 0 0-1.8 1.056l-.048.048-1.776-.792-1.848 2.448 1.248 1.488-.024.072a8.32 8.32 0 0 0-.528 2.016v.072l-1.824.696.432 3.024 1.944.168.024.072a7.54 7.54 0 0 0 1.056 1.8l.048.048-.792 1.776 2.448 1.848 1.512-1.2zm3.048-2.784a4.522 4.522 0 0 1-4.512-4.512c0-.984.312-1.92.912-2.712.72-.96 1.8-1.584 2.976-1.752h.024a4.514 4.514 0 0 1 5.088 3.84c.336 2.472-1.368 4.752-3.84 5.088a5.885 5.885 0 0 1-.648.048zm-.576-8.76c-2.328.336-3.96 2.496-3.624 4.824.336 2.328 2.496 3.96 4.824 3.624 2.328-.336 3.96-2.496 3.624-4.824-.168-1.128-.744-2.136-1.656-2.808a4.173 4.173 0 0 0-3.168-.816z" />
    </g>
    <g opacity=".5" fill="#002780">
      <path
        d="M68.979 34.848a6.355 6.355 0 0 1 1.512.384l1.104-.936 1.92 1.44-.6 1.32c.312.408.576.864.768 1.344l1.44.12.336 2.376-1.344.504a6.355 6.355 0 0 1-.384 1.512l.936 1.104-1.44 1.92-1.32-.6a6.824 6.824 0 0 1-1.344.792l-.12 1.44-2.376.336-.504-1.344a6.355 6.355 0 0 1-1.512-.384l-1.104.936-1.92-1.44.6-1.32a5.823 5.823 0 0 1-.792-1.344l-1.44-.12-.336-2.376 1.344-.504a6.355 6.355 0 0 1 .384-1.512l-.936-1.104 1.44-1.896 1.32.6c.408-.312.864-.6 1.344-.792l.12-1.44 2.376-.336.528 1.32zm-1.176 2.664c-1.776.24-3 1.872-2.736 3.648.264 1.776 1.872 3 3.648 2.736a3.21 3.21 0 0 0 2.736-3.648 3.193 3.193 0 0 0-3.648-2.736c.024 0 .024 0 0 0z" />
      <path
        d="M67.994 48.024l-.528-1.368a6.584 6.584 0 0 1-1.392-.36l-1.128.96-2.064-1.56.6-1.344a6.594 6.594 0 0 1-.744-1.248l-1.464-.12-.36-2.568 1.368-.528c.072-.48.192-.96.36-1.392l-.96-1.128 1.56-2.064 1.344.6a5.92 5.92 0 0 1 1.248-.744l.12-1.464 2.568-.36.528 1.368c.48.072.96.192 1.392.36l1.128-.936 2.064 1.56-.6 1.344c.288.384.552.792.744 1.248l1.464.12.36 2.568-1.368.528c-.072.48-.192.96-.36 1.392l.96 1.128-1.56 2.064-1.344-.6a5.92 5.92 0 0 1-1.248.744l-.12 1.464-2.568.336zm-1.968-2.016l.072.024c.48.192.96.312 1.488.384h.072l.504 1.32 2.184-.312.12-1.416.072-.024c.48-.192.912-.456 1.32-.768l.048-.048 1.296.576 1.32-1.752-.912-1.08.024-.072c.192-.48.312-.96.384-1.488v-.072l1.32-.504-.288-2.16-1.416-.12-.024-.072a5.582 5.582 0 0 0-.768-1.32l-.048-.048.576-1.296-1.752-1.32-1.08.912-.072-.024a5.9 5.9 0 0 0-1.416-.384l-.096.12-.552-1.464-2.184.312-.12 1.416-.072.024c-.48.192-.912.456-1.32.768l-.048.048-1.296-.576-1.32 1.752.912 1.08-.024.072c-.192.48-.312.96-.384 1.464v.072l-1.32.504.312 2.184 1.416.12.024.072c.192.48.456.912.768 1.32l.048.048-.576 1.296 1.752 1.32 1.056-.888zm2.232-1.968a3.356 3.356 0 0 1-3.312-2.88 3.365 3.365 0 0 1 2.856-3.768h.024a3.365 3.365 0 0 1 3.768 2.856c.24 1.824-1.032 3.504-2.856 3.792h-.48zm-.432-6.408a3.093 3.093 0 0 0-2.64 3.504 3.093 3.093 0 0 0 3.504 2.64 3.102 3.102 0 1 0 1.44-5.544 3.045 3.045 0 0 0-2.304-.6z" />
    </g>
    <path d="M32.372 14.16H10.484v17.448h21.888V14.16z" fill="#002780" />
    <path
      d="M32.182 31.056H11.206c-.288 0-.576-.024-.864 0h-.048l.624.792V14.424l-.216.288h20.976c.288 0 .576.024.864 0h.048l-.624-.792v17.448a.91.91 0 0 0 .408.744c.216.12.432.024.432-.24V14.424c0-.312-.264-.792-.624-.792H11.206c-.288 0-.576-.024-.864 0h-.048c-.144 0-.216.168-.216.288v17.448c0 .312.24.792.624.792h20.976c.288 0 .576.024.864 0h.048c.504 0 .072-1.104-.408-1.104z"
      fill="#002780" />
    <path
      d="M21.696 17.136a.71.71 0 0 0-.456.888c.024.048.024.096.072.144.36.744 1.2.264 1.224-.216.024-.48-.288-.936-.84-.816z"
      fill="var(--b, white)" />
    <path
      d="M21.478 26.52a.71.71 0 0 0-.456.887c.024.048.024.096.072.144.36.744 1.2.24 1.224-.216.024-.456-.288-.96-.84-.816z"
      fill="var(--b, white)" opacity=".84" />
    <path
      d="M27.022 22.464a.706.706 0 0 0-.888-.432c-.048.024-.096.024-.12.048-.744.36-.264 1.2.216 1.224.48.024.936-.312.792-.84z"
      fill="var(--b, white)" />
    <path d="M17.663 22.248c-.12-.36-.504-.576-.864-.456l-.144.072c-.744.36-.264 1.2.216 1.224.48.024.912-.312.792-.84z"
      fill="var(--b, white)" opacity=".46" />
    <path
      d="M17.88 18.767c-.168.336-.048.768.288.936a.341.341 0 0 0 .144.048c.792.264 1.032-.672.72-1.008-.312-.336-.864-.456-1.152.024z"
      fill="var(--b, white)" opacity=".14" />
    <path
      d="M24.36 25.56c-.168.335-.047.767.288.935a.341.341 0 0 0 .145.048c.791.264 1.032-.672.72-1.008-.313-.336-.865-.456-1.153.024zm1.053-6.792a.69.69 0 0 0-.936.312.341.341 0 0 0-.048.144c-.264.792.672 1.032 1.008.72.336-.312.456-.912-.024-1.176z"
      fill="var(--b, white)" />
    <path
      d="M18.624 25.223a.69.69 0 0 0-.936.312.341.341 0 0 0-.048.144c-.264.792.672 1.032 1.008.72.336-.312.456-.888-.024-1.176z"
      fill="var(--b, white)" opacity=".71" />
    <path
      d="M73.295 57.744l-.024-8.952s-3.96-1.872-5.28-4.776c0 0-1.704-.624-1.44-1.488s1.176-.552 1.176-.552.6-.552 1.608.648c0 0 6.96.312 7.2.144.24-.168 1.176-1.512 2.616-2.016 1.44-.504 1.968.576 1.248 1.248a22.163 22.163 0 0 0-1.44 1.56s1.128 2.136-.528 3.672c0 0 1.92 4.752 2.376 6.024"
      fill="var(--b, white)" />
    <path
      d="M73.897 57.672l-.024-7.848V48.72c0-.096-.12-.144-.192-.192l-.072-.024c-.096-.048.096.048 0 0l-.12-.072c-.24-.12-.456-.24-.672-.384a15.152 15.152 0 0 1-2.016-1.416 9.071 9.071 0 0 1-1.92-2.136c-.096-.216-.216-.408-.336-.624a.702.702 0 0 0-.288-.168 3.24 3.24 0 0 1-.792-.456c-.288-.24-.504-.6-.264-.96.024-.048.12-.144.096-.12-.024.024-.072.024-.096.024.144-.048-.12 0 .024 0h-.024c.024 0 .072.024.096.024.096 0-.12-.048-.024 0 .312.096.672.048.936-.144.024-.024-.12.072-.048.048.072-.024.096-.024-.024.024.12-.024-.048 0-.024 0-.072.024-.144.024-.192 0 .024.024.048 0 .12.024a.523.523 0 0 1 .192.12c.216.144.36.384.552.528.192.144.624.12.888.12 1.104.048 2.232.096 3.336.12 1.08.024 2.16.096 3.216.024.384 0 .744-.144.984-.432a6.96 6.96 0 0 1 1.68-1.464c.216-.12.432-.216.672-.288.144-.024.168-.048.288.024a.525.525 0 0 1 .168.624c-.072.168-.192.288-.312.408-.216.216-.432.432-.624.648-.24.264-.48.528-.696.792-.072.072-.096.168-.024.24.6 1.128.408 2.52-.48 3.432a.186.186 0 0 0-.048.24c.792 1.968 1.608 3.936 2.352 5.952.144.408 1.32.216 1.2-.12-.696-1.848-1.44-3.648-2.16-5.472a6.655 6.655 0 0 1-.24-.624l-.048.24c1.032-1.032 1.248-2.616.552-3.912l-.048.24c.456-.576.984-1.08 1.488-1.608.384-.432.48-1.08-.024-1.464-.72-.528-1.824-.24-2.544.12a6.37 6.37 0 0 0-1.92 1.488l-.432.48c-.024-.024.312-.144.288-.144-.072.024.192 0 .096-.024s-.12 0-.168.024h-1.008c-1.152-.024-2.304-.048-3.48-.096-.768-.024-1.56-.048-2.328-.096l.432.168c-.432-.504-.96-.912-1.632-.936a1.51 1.51 0 0 0-1.056.336l.936-.144c-.792-.288-2.304-.024-2.184 1.104.072.744 1.056 1.224 1.656 1.44l-.168-.12c.672 1.464 1.92 2.616 3.216 3.528.696.528 1.464.96 2.256 1.344l-.192-.192.024 7.848v1.104c0 .384 1.2.312 1.2-.12v.024z"
      fill="var(--c, black)" />
    <path d="M71.977 44.953s-1.92-1.224-2.665-2.352l2.665 2.352z" fill="var(--b, white)" />
    <path
      d="M72.289 45.024c-.096-.072-.192-.12-.288-.192l-.336-.24-.024-.024-.096-.072-.192-.144c-.144-.12-.288-.216-.432-.336-.144-.12-.216-.192-.384-.336a5.645 5.645 0 0 1-.72-.792 1.413 1.413 0 0 0-.6-.408 1.388 1.388 0 0 0-.336-.12c-.024 0-.144-.024-.096.048.384.528.816.984 1.32 1.392.408.36.864.672 1.296.984.096.048.168.12.264.168.216.168.48.288.744.36.048 0 .096.024.096-.048 0-.072-.192-.216-.216-.24z"
      fill="var(--c, black)" />
    <path d="M67.68 41.952s-.48.456.287 2.064l-.288-2.064z" fill="var(--b, white)" />
    <path
      d="M67.346 41.736c-.432.408-.408 1.08-.264 1.608.096.336.216.696.384 1.008.048.096.216.144.288.144a.652.652 0 0 0 .408-.144c.216-.144.408-.384.288-.648-.048-.12-.12-.264-.168-.384l.048.096c-.096-.264-.192-.528-.24-.792-.024-.096-.024-.192-.024-.288v-.12c0-.024 0-.072.024-.096v-.024c.024-.072-.048.12-.024.072l.048-.096c.024-.072-.096.144-.048.072l.024-.024c.048-.072-.12.12-.072.096a.684.684 0 0 0 .192-.336c.024-.12-.024-.216-.12-.288-.24-.144-.576 0-.768.168l.024-.024z"
      fill="var(--c, black)" />
    <path d="M72.72 43.824s-2.832-.84-3.24-1.128l3.24 1.128z" fill="var(--b, white)" />
    <path
      d="M72.674 43.536a47.453 47.453 0 0 1-2.616-.84l-.048-.024c-.072-.024.168.072.048.024l-.096-.024-.168-.072-.12-.048c-.072-.024.168.096.072.048l-.048-.024c-.168-.12-.552-.264-.744-.144-.192.12.168.384.264.456.192.12.384.216.6.288.288.12.6.216.912.336.552.192 1.08.36 1.632.528l.36.12c.12.024.528.12.504-.12-.024-.24-.384-.432-.552-.504zm1.031 1.776l.168-.024h.048c.072-.024-.096 0-.096 0h.552s-.168-.024-.072 0c.048 0 .12.024.168.024.048 0 .12.024 0 0s0 0 .024 0 .096.048.144.048c0 0-.12-.048-.072-.024l.048.024.072.024.072.048.024.024c.024.024.024.048-.024-.024a.636.636 0 0 0 .144.12.636.636 0 0 1 .12.144c-.048-.072 0 .024.024.024l.048.096a.852.852 0 0 1 .096.216c.144.36 1.32.336 1.176-.048-.456-1.176-1.848-1.416-2.976-1.272a.853.853 0 0 0-.24.048.548.548 0 0 0-.288.144.156.156 0 0 0 .048.216.815.815 0 0 0 .792.192zm26.616 55.584s-2.688 4.296-1.608 4.488c1.08.192 9.096.6 9.096-1.104 0-1.704-2.304-2.904-2.304-2.904l-5.184-.48z"
      fill="var(--c, black)" />
    <path
      d="M102.313 105.696c-1.2.024-2.4-.048-3.6-.192a.409.409 0 0 1-.312-.24c-.384-.864 1.608-4.08 1.824-4.44l.048-.072 5.304.528c.096.048 2.376 1.248 2.376 3 0 .216-.12.432-.288.576-.816.672-3.216.84-5.352.84zm-1.92-4.68c-.864 1.392-2.016 3.6-1.776 4.152a.162.162 0 0 0 .144.096c1.128.216 7.464.48 8.736-.6a.624.624 0 0 0 .216-.384c0-1.536-1.992-2.664-2.208-2.784l-5.112-.48zm-3.671-.695s.264 5.352.096 5.352-2.544-.072-2.544-.072v-2.136l-1.152 2.376-7.944-.432s-.264-.768 1.536-1.632c1.8-.864 4.68-2.064 4.68-2.064l.072-3.192 5.256 1.8z"
      fill="var(--c, black)" />
    <path
      d="M96.17 100.177c.048 1.032.096 2.04.12 3.072.024.624.048 1.224.024 1.848v.36c0 .048.048-.12 0-.048.144-.288.528-.192.312-.24h-.552l-1.92-.048.696.648v-2.136c0-.504-.816-.96-1.08-.408l-1.176 2.352.384-.24-6.96-.384-.984-.048.672.528c-.024-.096.024.12 0 .048v-.12c-.024.072-.024.096 0 .048a.935.935 0 0 1 .312-.48c.6-.6 1.536-.936 2.304-1.272 1.152-.528 2.28-1.008 3.432-1.488a.41.41 0 0 0 .168-.312l.072-3.192-.552.36 4.632 1.584.672.24a.429.429 0 0 0 .528-.216c.024-.048.024-.072.024-.12a.74.74 0 0 0-.576-.648L92.09 98.28l-.672-.24a.429.429 0 0 0-.528.216c-.024.047-.024.072-.024.12l-.072 3.192.168-.312c-.864.36-1.752.744-2.616 1.128-.648.288-1.32.576-1.944.888-.576.288-1.248.648-1.608 1.224a1.13 1.13 0 0 0-.192.912c.096.288.36.504.672.528l6.96.384.984.048a.344.344 0 0 0 .384-.24l1.176-2.352-1.08-.408v2.136c.024.36.312.648.672.648l1.752.048c.264 0 .528.024.768.024.336 0 .432-.216.456-.504.024-.552.024-1.08 0-1.632l-.072-2.256c-.024-.456-.048-.888-.048-1.344a.747.747 0 0 0-.528-.648c-.216-.072-.552.047-.528.336z"
      fill="var(--c, black)" />
    <path d="M89.856 102.168s-2.76-29.592-.192-35.208l12.672-.144 7.152 34.824-12.6.24-7.032.288z"
      fill="var(--b, white)" />
    <path
      d="M90.434 102.024c-.096-.984-.168-1.992-.264-2.976-.192-2.448-.36-4.896-.528-7.344a300.528 300.528 0 0 1-.432-9.288c-.096-2.976-.12-5.952.024-8.904.096-1.968.192-4.128.816-6.096.048-.12-.024.096 0-.024l.048-.12c.024-.072.048-.144.096-.216l-.624.384 4.272-.048 6.84-.072 1.56-.024-.48-.36.72 3.48 1.704 8.304 2.064 10.08 1.776 8.664.6 2.88c.096.456.144.912.288 1.368v.048l.672-.624-4.272.072-6.792.12-1.56.024.48.36-.336-2.376-.816-5.688-.984-6.864-.84-5.976c-.144-.96-.24-1.944-.408-2.88v-.048c-.096-.648-1.224-.312-1.152.264l.336 2.376.816 5.688.984 6.864.84 5.976.288 1.944c.048.312.072.624.144.936v.048l.672-.624-6.192.24-.864.024a.72.72 0 0 0-.672.504c-.024.24.12.456.36.48h.12l6.192-.24.888-.024c.312 0 .72-.264.672-.624l-.36-2.376-.816-5.688-.984-6.864-.84-5.976c-.144-.96-.24-1.944-.408-2.88v-.048c-.096-.648-1.224-.312-1.152.264l.336 2.376.816 5.688.984 6.864.84 5.976c.144.96.24 1.92.408 2.88v.048c.048.216.264.384.48.36l4.272-.072 6.792-.12 1.56-.024c.288 0 .744-.288.672-.624l-.72-3.48-1.704-8.304-2.064-10.08-1.776-8.664c-.288-1.416-.552-2.832-.864-4.224v-.048c-.048-.216-.264-.384-.48-.36l-4.272.048-6.84.072-1.608.024a.692.692 0 0 0-.624.384c-.312.768-.528 1.56-.648 2.376a38.855 38.855 0 0 0-.36 3.36c-.192 2.904-.168 5.856-.12 8.76.072 3.168.216 6.312.384 9.48.144 2.592.336 5.184.528 7.752l.216 2.496c.024.384.048.792.096 1.176v.048c.096.648 1.248.288 1.2-.288z"
      fill="var(--c, black)" />
    <path
      d="M72.267 65.064s-4.44-15.744-3.84-16.128c.6-.384 11.904.48 12.288.864.384.384 4.056 14.952 4.056 14.952l-12.504.312z"
      fill="#002780" />
    <path
      d="M72.843 64.944c-.24-.84-.456-1.68-.696-2.52-.504-1.824-.984-3.672-1.464-5.496-.48-1.848-.96-3.696-1.344-5.544-.12-.6-.264-1.224-.336-1.848 0-.096-.024-.216-.024-.312v-.12c0-.096.024-.096 0 0v-.072c.024-.096-.024.072-.024.048a.61.61 0 0 1-.288.264c.024 0-.192.048-.072.024.024 0 .072 0 .096-.024.096-.024-.096 0-.072 0h.072l.36-.024h.984c.936.024 1.872.072 2.784.12l3.168.216 1.512.144.672.072h.096l.144.024.312.024c.552.072 1.104.144 1.632.264.12.024-.072-.024-.048-.024.096.048-.048-.048-.048-.048-.096-.096-.048-.096-.024 0 .048.144.12.312.168.48.072.264.168.504.24.768 0 .048.024.096.048.12.024.024.024.12 0 .024.024.096.048.168.072.264.048.192.096.384.144.552.24.888.48 1.752.72 2.64.528 1.968 1.056 3.96 1.56 5.928.312 1.248.648 2.52.96 3.768l.048.192.672-.648-4.224.096-6.744.168-1.56.024a.72.72 0 0 0-.672.504c-.024.24.144.48.384.504h.096l4.224-.096 6.744-.168 1.56-.024c.288 0 .768-.288.672-.648l-.72-2.808a530.185 530.185 0 0 0-1.536-5.88 213.852 213.852 0 0 0-1.44-5.256 5.451 5.451 0 0 0-.384-1.104c-.216-.384-.768-.408-1.152-.48-1.872-.288-3.792-.432-5.664-.552-1.776-.12-3.576-.288-5.352-.216-.504.024-1.176.072-1.272.696-.072.432.048.912.12 1.32.288 1.704.72 3.384 1.152 5.064.504 1.992 1.032 3.96 1.56 5.952.336 1.224.672 2.424 1.008 3.648l.048.192a.494.494 0 0 0 .6.36h.024c.24 0 .6-.264.504-.552z"
      fill="#002780" />
    <path d="M86.64 65.184s4.25-13.464 8.594-13.464 11.736 8.76 8.832 20.304c0 .024-13.944 6.24-17.424-6.84z"
      fill="var(--b, white)" />
    <path
      d="M87.195 65.4a46.718 46.718 0 0 1 1.608-4.32c1.008-2.448 2.16-4.992 3.864-7.056a8.35 8.35 0 0 1 1.128-1.128c.192-.144.384-.288.6-.408l.144-.072c.12-.048-.048.024.072-.024s.216-.072.312-.12c.048-.024.096-.024.144-.024.096-.024-.024 0-.024 0h.096c.096-.024.216-.024.312-.024h-.024.216c.12.024.24.024.36.048l.072.024c-.024 0-.144-.024-.024 0l.168.048c.12.024.24.072.36.12s.24.096.336.144c.096.048-.072-.048.072.024l.192.096c1.08.6 2.04 1.392 2.832 2.352a16.062 16.062 0 0 1 2.448 3.84 19.463 19.463 0 0 1 1.392 11.304 40.468 40.468 0 0 1-.336 1.656l.264-.24c-.456.192-.912.36-1.368.504-.504.168-1.008.312-1.512.432-.312.072-.6.144-.912.192l-.12.024c.12-.024 0 0-.024 0l-.24.048-.504.072c-.72.096-1.44.144-2.16.168-.336 0-.696 0-1.032-.024a9.442 9.442 0 0 1-1.152-.144 4.915 4.915 0 0 1-.576-.12c-.024 0-.144-.024-.024 0l-.144-.048-.288-.072c-.384-.12-.744-.264-1.128-.408l-.144-.072c-.168-.072.12.048-.048-.024l-.264-.12a3.82 3.82 0 0 1-.528-.312 6.86 6.86 0 0 1-.96-.672c-1.776-1.488-2.832-3.648-3.432-5.904-.144-.528-1.296-.576-1.128.072.696 2.568 1.968 5.04 4.128 6.648a11.054 11.054 0 0 0 5.952 2.064 17.422 17.422 0 0 0 5.448-.576 17.074 17.074 0 0 0 2.712-.888l.048-.024c.36-.168.384-.696.456-1.032.192-.96.336-1.92.432-2.904a20.119 20.119 0 0 0-.264-5.232c-.504-2.952-1.752-5.712-3.576-8.088-1.368-1.704-3.168-3.36-5.376-3.84a3.494 3.494 0 0 0-2.496.36c-.84.504-1.56 1.2-2.112 1.992-1.464 1.896-2.544 4.128-3.48 6.336-.672 1.536-1.248 3.12-1.776 4.704l-.072.24c-.216.576.912.96 1.08.408z"
      fill="var(--c, black)" />
    <path
      d="M83.665 58.608s-2.064-1.128-3.48-.504c-1.416.624 0 2.064 0 2.064s-1.176.672-.456 1.584c0 0-.648 2.952 5.784 3.792.864.12 7.392 8.736 11.88 7.92 3.096-.552 6.456-11.016 6.456-11.016l-8.112-1.272-1.656 3.552-5.016-3.552s-.912-3.432-2.4-4.296c-1.488-.864-3.648-.576-3.648-.576"
      fill="var(--b, white)" />
    <path
      d="M83.737 58.104c-1.056-.576-2.496-1.008-3.672-.576-.768.288-1.08.984-.864 1.776.168.504.432.96.816 1.32l-.096-.96a1.935 1.935 0 0 0-.696.696c-.336.576-.144 1.248.216 1.752l-.168-.576a2.648 2.648 0 0 0 .24 1.488c.48 1.08 1.536 1.8 2.592 2.256.936.384 1.92.648 2.928.792.192.048.384.072.576.096-.048 0-.12-.072-.048-.024.024.024.048.024.072.048.096.048-.096-.096-.024 0a.331.331 0 0 0 .096.072c.072.048.12.12.192.168.888.792 1.704 1.704 2.544 2.52a32.673 32.673 0 0 0 3.648 3.144c1.2.888 2.592 1.728 4.08 1.968.6.12 1.224.096 1.824-.096.48-.216.912-.528 1.248-.912.984-1.008 1.68-2.28 2.304-3.528a45.807 45.807 0 0 0 2.688-6.552c.024-.048.024-.096.048-.12.096-.336-.072-.864-.456-.936l-7.128-1.128-.984-.144c-.144-.048-.312.048-.36.192l-1.656 3.552.48-.144-4.392-3.12-.624-.432.36.48a13.784 13.784 0 0 0-1.104-2.856 5.186 5.186 0 0 0-1.344-1.728c-.696-.528-1.608-.744-2.448-.84a6.939 6.939 0 0 0-1.728 0c-.6.072-.192 1.2.312 1.128 1.128-.144 2.592-.048 3.504.576.216.168.408.36.552.576.192.24.336.504.48.768.288.528.504 1.104.696 1.68.096.312.168.768.384 1.032.192.192.408.36.624.48l2.568 1.824 2.016 1.44c.144.096.36.048.456-.096 0-.024.024-.024.024-.048l1.632-3.552-.36.192 7.128 1.128.984.144-.456-.936a50.394 50.394 0 0 1-2.304 5.808c-.624 1.296-1.296 2.616-2.208 3.744-.312.432-.72.792-1.176 1.08-.432.24-.936.312-1.416.24-1.44-.12-2.76-.936-3.888-1.752a31.844 31.844 0 0 1-3.72-3.24c-.84-.84-1.632-1.728-2.52-2.496a5.272 5.272 0 0 0-.432-.336 2.307 2.307 0 0 0-.696-.192 11.043 11.043 0 0 1-2.904-.768 4.135 4.135 0 0 1-1.488-.984c-.072-.072.048.072-.024-.024l-.096-.12c-.024-.048-.048-.096-.096-.12-.096-.12.048.12-.024-.024-.048-.072-.072-.168-.12-.24-.072-.12.024.096 0 .024 0-.048-.024-.072-.048-.12s-.024-.144-.048-.216c.072.192 0 .024 0-.048v-.144c-.024.168 0-.12 0 0 0-.024 0-.072.024-.096 0-.096 0-.192-.024-.288-.024-.12-.168-.264-.192-.36-.024-.096 0-.168.072-.24.096-.168.24-.312.432-.408.36-.216.12-.744-.096-.96.024.024.12.144.024.024-.048-.072-.096-.12-.144-.192-.048-.072-.048-.072-.072-.12.072.096 0 0-.024-.048l-.072-.144c-.072-.168.024.096-.024-.048 0-.024-.024-.168-.024-.072-.024-.096-.024.024 0-.072.024-.072.048-.144.12-.216.216-.192.504-.312.792-.336.888-.12 1.896.192 2.64.6.168.096.36.048.456-.096.024-.048.048-.096.048-.168a.824.824 0 0 0-.384-.768l-.048-.048z"
      fill="var(--c, black)" />
    <path
      d="M86.113 58.704c-.312 0-.648 0-.96-.024-.072 0-.144 0-.216-.024l-.12-.024c-.024 0-.12-.024-.048 0-.144-.024-.312-.048-.456-.072l-.216-.048-.096-.024-.072-.024-.072-.024-.096-.048c-.024-.024-.072-.024-.096-.048l.048.024-.072-.024c-.096-.048-.504-.24-.504 0s.36.456.528.552a5.733 5.733 0 0 0 2.088.552c.36.048.696.048 1.056.048.264 0 .096-.264 0-.384a1.158 1.158 0 0 0-.696-.408zm-6.097 1.968c.36.24.72.456 1.104.648.672.36 1.416.696 2.184.696.24 0 .456-.216.432-.456v-.096a.664.664 0 0 0-.6-.576c-.072 0-.168 0-.24-.024-.024 0-.144-.024-.072 0s-.048 0-.072-.024c-.168-.048-.312-.072-.48-.144l-.264-.096a.405.405 0 0 0-.12-.048l.048.024-.072-.024a2.736 2.736 0 0 1-.456-.24 9.073 9.073 0 0 1-1.032-.624.439.439 0 0 0-.624.12c-.024.024-.024.048-.048.096-.096.288.024.6.312.768zm-.766 1.296c.287.288.6.576.935.816a6.26 6.26 0 0 0 2.184 1.104c.24.048.648 0 .696-.312a.574.574 0 0 0-.48-.6c-.096-.024-.192-.048-.264-.072-.024 0-.12-.048-.144-.048a2.987 2.987 0 0 1-.48-.24.973.973 0 0 0-.216-.12c-.12-.072.072.048-.024 0l-.096-.072a5.331 5.331 0 0 1-.384-.288 10.165 10.165 0 0 1-.576-.48c-.048-.048-.24-.24-.072-.048l-.048-.048c-.192-.24-.528-.312-.816-.216a.392.392 0 0 0-.24.504c-.048.048-.024.072.024.12z"
      fill="var(--c, black)" />
    <path
      d="M90.84 41.64s-1.44 1.92-3.144 2.016c-1.704.096-5.04-.264-5.28 1.44-.24 1.704 2.088 2.136 3.504 1.752 0 0-.048 4.488 2.688 5.52 2.736 1.032 3.888.192 4.224 1.992 0 0 3.528-.336 3.576-.576.096-.528.792-7.248-3.408-9.048 0-.024-2.4-.912-2.16-3.096z"
      fill="var(--b, white)" />
    <path
      d="M90.265 41.472a5.83 5.83 0 0 1-1.872 1.632c-.984.504-2.136.312-3.216.36-.936.024-2.184.072-2.928.72a1.37 1.37 0 0 0-.456 1.176c.072.48.336.912.768 1.176 1.08.72 2.616.84 3.84.504l-1.08-.336a8.72 8.72 0 0 0 .672 3.408 4.185 4.185 0 0 0 1.584 1.992c.984.624 2.28.84 3.408 1.032.288.048.312.048.552.096l.12.024c-.144-.024 0 0 .024 0 .144.048-.096-.048.024.024.12.072-.072-.048.024.024.12.072.192.168.264.288.096.192.168.408.216.624.048.312.744.36.984.336a21.986 21.986 0 0 0 3.312-.456c.144-.024.384-.072.456-.216.024-.096.048-.192.048-.264.048-.432.072-.864.072-1.32.024-2.832-.696-6.192-3.48-7.56-.12-.048-.216-.096-.336-.144l-.072-.024-.048-.024c-.096-.048.048.024 0 0a3.667 3.667 0 0 1-.72-.456 2.573 2.573 0 0 1-1.008-2.328c.024-.312-1.152-.48-1.176-.24-.144 1.512.936 2.616 2.232 3.216.456.192.888.456 1.272.792a5.15 5.15 0 0 1 1.272 1.776c.576 1.32.864 2.736.864 4.176.024.504 0 1.008-.024 1.536 0 .144-.024.312-.048.48 0 .048 0 .096-.024.12-.024.072 0 .024-.024.024-.216.072-.456.12-.672.144-.384.072-.768.12-1.152.168a30.07 30.07 0 0 1-1.536.168l.984.336a1.995 1.995 0 0 0-.432-1.008c-.264-.264-.624-.432-.984-.528-.984-.288-1.896-.288-2.904-.648-1.608-.552-2.232-2.448-2.472-3.984a12.703 12.703 0 0 1-.12-1.344c0-.336-.864-.384-1.08-.336-.408.096-.84.144-1.272.072-.12-.024-.264-.048-.384-.096a1.192 1.192 0 0 1-.456-.312 1.283 1.283 0 0 1 .048-1.8l.288-.216c.792-.432 1.848-.408 2.736-.408 1.032 0 2.064.072 3.024-.408.768-.408 1.44-.96 1.944-1.656.24-.192-.864-.552-1.056-.312z"
      fill="var(--c, black)" />
    <path
      d="M97.682 50.064s2.232.936 2.784-.264c.552-1.2-.984-1.104-.984-1.104s2.088-2.304-.216-3.12c0 0 2.232-1.656.96-3.696-1.272-2.04-4.536-1.32-4.536-1.32s.48-2.784-1.968-2.784-2.112 1.776-2.112 1.776-1.56-.024-1.752.936c-.192.96.912 1.512.912 1.512s.048 2.808 2.184 2.712l1.536 3.744a2.721 2.721 0 0 0-.312 2.568c.624 1.392 3.36.84 3.504-.96z"
      fill="var(--c, black)" />
    <path
      d="M97.2 50.328c1.033.432 2.545.744 3.481-.072.456-.408.744-1.224.144-1.632a2.073 2.073 0 0 0-1.248-.264l.456.384c.36-.408.648-.888.816-1.416.12-.36.12-.768-.024-1.128-.216-.504-.696-.768-1.176-.936l.096.432c.984-.72 1.752-2.04 1.392-3.288-.528-1.776-2.424-2.328-4.08-2.304-.48 0-.96.048-1.416.144l.648.264c.144-.84.024-1.896-.624-2.496-.648-.6-1.68-.672-2.568-.528-.72.12-1.512.432-1.872 1.104-.168.312-.24.696-.192 1.056l.672-.456c-.768 0-1.848.24-2.28.936-.504.816.144 1.728.888 2.088l-.12-.144a4.08 4.08 0 0 0 .336 1.512c.432.984 1.296 1.44 2.352 1.416l-.48-.216 1.536 3.744.048-.168c-.624.84-.84 2.376-.072 3.192.84.84 2.376.624 3.288.048a2.245 2.245 0 0 0 1.08-1.608c.048-.48-1.128-.336-1.176.072a1.52 1.52 0 0 1-.504 1.032c-.048.048-.12.096-.192.144-.048.024-.096.072-.144.096-.096.048-.048.024-.024 0a.445.445 0 0 1-.168.048h-.024l-.168.024c.12-.024-.048 0-.072 0-.12 0-.264 0-.384-.048a1.334 1.334 0 0 1-.408-.216c-.384-.36-.48-1.032-.408-1.512.048-.408.192-.768.384-1.104a.363.363 0 0 0 .024-.408l-.792-1.92-.672-1.656c-.072-.192-.312-.216-.504-.216-1.2.024-1.68-1.488-1.704-2.496-.024-.072-.048-.12-.12-.144-.504-.24-1.032-.864-.768-1.464a.578.578 0 0 1 .24-.24c.024-.024.072-.048.024-.024.048-.024.096-.024.144-.048.048-.024.144-.048.024-.024l.096-.024c.048 0 .288-.048.144-.024l.168-.024h.168c.192 0 .744-.144.672-.456-.048-.36.048-.744.288-1.008a.926.926 0 0 1 .528-.264c.528-.12 1.176-.072 1.584.36.312.36.48.792.504 1.272.048.264.024.552-.024.816-.048.336.456.312.648.264.072-.024.168-.024.24-.048.072-.024.192-.024 0 0l.144-.024c.12-.024.264-.024.384-.024a3.1 3.1 0 0 1 .816.024c.312.024.624.096.912.192 1.464.504 2.232 2.16 1.392 3.504-.216.36-.504.696-.84.936-.216.168-.12.36.096.432.36.096.672.36.816.72.072.312.048.648-.096.96a3.573 3.573 0 0 1-.696 1.104c-.264.288.288.384.456.384h.144c.048 0 .072 0 .12.024.024 0-.072-.024.024 0a.216.216 0 0 0 .12.024c.048 0-.024-.024.048.024.264.192.192.696-.096.912.048-.048-.072.048-.072.048.072-.048-.096 0 .024 0 0 0-.192.024-.072.024h-.264l-.168-.024a.863.863 0 0 1-.264-.048c-.192-.048-.384-.096-.552-.168-.048-.024-.384-.144-.168-.048a1.03 1.03 0 0 0-.84.048c-.072.168-.336.432-.072.552z"
      fill="var(--c, black)" />
    <path d="M92.57 45.193s.6-1.825 1.896-1.248c1.296.575 1.2 4.871-1.2 4.392" fill="var(--b, white)" />
    <path
      d="M93.144 45.288c-.023.048.048-.12 0 0 .024-.096.072-.216.12-.288.049-.12.12-.216.193-.312a.636.636 0 0 1 .12-.144s.096-.096.023-.024l.097-.096a.73.73 0 0 1 .168-.12c-.096.048.072-.024.12-.048-.144.048.023-.024.023 0h.049-.049c.073 0 .193.024 0 0l.097.024c-.073-.024-.073-.024-.025 0l.097.024c-.12-.024-.049-.024-.025 0 .12.072-.072-.096.025 0l.072.072c-.048-.048.072.096.072.12l.072.144c.023.024.023.048.047.096-.023-.072 0-.024 0 0 .049.12.097.264.12.384l.072.36c.024.12.024.264.024.408 0 .288-.024.576-.096.864a2.36 2.36 0 0 1-.12.384c-.023.072.025-.096 0 .024-.023.024-.023.072-.047.096-.025.072-.073.12-.097.192-.024.072-.072.12-.12.192-.023.024-.144.168-.072.096l-.168.168-.048.048c-.096.072.024 0-.047.024l-.192.072c.144-.048-.073 0-.12.024-.12.024.12 0 0 0h-.12c-.12.024.143.024 0 0l-.169-.024c-.215-.048-.6.024-.647.288-.049.264.335.432.528.48a2.104 2.104 0 0 0 2.088-.72 3.26 3.26 0 0 0 .575-1.872 3.455 3.455 0 0 0-.431-1.896 1.909 1.909 0 0 0-2.304-.624 2.589 2.589 0 0 0-1.177 1.488c-.096.264.36.456.528.48.264.048.576-.024.648-.288l.096-.096zm-4.536-.984a.37.37 0 0 0-.289.408c0 .024 0 .048.025.072.12.36.575.216.575-.144.024-.168-.096-.312-.264-.336h-.047zm-.528 3.072a2.464 2.464 0 0 1-1.008 1.344c-.24.12-.504.192-.768.216h.024c-.12 0-.24 0-.36-.024-.072 0-.024.072 0 .096l.216.288c.096.12.216.216.336.336.072.048.144.144.24.168a1.757 1.757 0 0 0 1.44-.384 2.01 2.01 0 0 0 .624-.912l.072-.216c.024-.048-.048-.144-.072-.168a1.175 1.175 0 0 0-.288-.312 3.691 3.691 0 0 0-.312-.288c.024-.072-.12-.168-.144-.144z"
      fill="var(--c, black)" />
    <path
      d="M76.01 54.624a1.229 1.229 0 0 0-1.68.48c0 .024-.024.048-.024.048a2.808 2.808 0 0 0-.168.6c-.048.24-.072.456-.072.696 0 .456.192.864.552 1.152.408.288.912.456 1.416.48.336.048.672.024.984-.072.288-.12.576-.36.432-.696-.096-.264-.528-.288-.744-.24-.216.048-.504.216-.408.48-.024-.072.024-.144.096-.168-.072.048.12-.048 0 0 .096-.024.096-.024.024-.024h.096-.144c.072 0 .096 0 0 0l-.12-.024c-.096 0-.192-.024-.288-.048-.144-.024.12.024-.024 0-.048-.024-.096-.024-.144-.048-.12-.048.048.024-.048-.024l-.096-.048c-.048-.024-.048-.024 0 0l-.048-.048-.096-.096c-.072-.072.024.048-.024-.048-.024-.048-.048-.072-.072-.12-.024-.048-.024-.096-.048-.144-.024-.048 0 .024-.024-.048-.024-.096-.024-.192-.024-.288v-.264c0-.096.024-.12.024-.168v-.072c.024-.192.096-.36.144-.552 0-.024.024-.048.048-.072-.024.024-.024.024 0 0s.024-.048.048-.048c.048-.048.048-.048 0 0 .048-.024.048-.024 0-.024s-.024.024.024 0a.53.53 0 0 1-.384 0c.264.144.6.144.84-.024.144-.072.192-.264.12-.408a.246.246 0 0 0-.144-.12h-.024z"
      fill="var(--b, white)" />
  </g>
</svg>
