<svg viewBox="0 0 120 120" fill="none" xmlns="http://www.w3.org/2000/svg">
  <g id="doc">
    <path
      d="M63.549 101.781s-.192 4.44-.072 4.44c.12 0 1.896-.048 1.896-.048v-1.776l.864 1.944 5.904-.36s.192-.648-1.152-1.344a151.188 151.188 0 0 0-3.456-1.704l-.048-2.64-3.936 1.488z"
      fill="var(--c, black)" />
    <path
      d="M63.403 101.76a102.43 102.43 0 0 0-.096 2.76c-.024.48-.024.984 0 1.464 0 .072 0 .192.048.24.096.096.312.048.432.048.552-.024 1.104-.024 1.68-.048 0 0 .048 0 .048-.024v-1.776l-.288-.048.864 1.944c.024.072.192.072.24.072l5.16-.312.744-.048s.048 0 .048-.024a.825.825 0 0 0-.216-.648c-.408-.528-1.08-.816-1.656-1.128a75.37 75.37 0 0 0-2.808-1.368l.072.048-.048-2.64c0-.072-.216-.096-.264-.096l-3.936 1.512c-.072.024.168.12.24.096l3.936-1.512-.264-.096.048 2.64c0 .024.048.048.072.048.888.408 1.752.84 2.64 1.272.6.312 1.32.6 1.728 1.152a1 1 0 0 1 .192.432c0 .048-.024.168.048.12-.096.048-.336.024-.456.024l-1.032.072-2.688.168-1.728.096.24.072-.864-1.944c-.024-.048-.288-.12-.288-.048a19.609 19.609 0 0 0 0 1.68v.096c0 .024.072-.024.024 0a.909.909 0 0 1-.36 0l-1.104.024a.909.909 0 0 0-.36 0c-.12.048.192.072.192.048V105.336c0-.72.024-1.44.048-2.16.024-.504.048-.984.048-1.488-.048.072-.336.024-.336.072zm-3.98-.072s.216 4.632.096 4.632-2.112-.072-2.112-.072V104.4l-.96 2.04-6.6-.36s-.216-.672 1.272-1.416c1.488-.744 3.864-1.8 3.864-1.8l.048-2.76 4.392 1.584z"
      fill="var(--c, black)" />
    <path
      d="M59.273 101.732c.047.864.071 1.752.095 2.616.024.528.024 1.056.024 1.584-.024.12-.024.24-.024.384-.024-.024.192-.024.12-.072h-.456l-1.631-.048.12.072v-1.872c0-.12-.24-.072-.288 0l-.96 2.04.167-.072-5.76-.336-.816-.048.12.072c-.072-.24.145-.504.264-.648.505-.552 1.297-.84 1.945-1.152.936-.432 1.872-.864 2.808-1.272.024-.024.096-.048.096-.096l.047-2.76-.24.096 4.368 1.584c.12.048.36-.12.193-.192l-4.369-1.584c-.071-.024-.24 0-.24.096l-.047 2.76.096-.096c-1.08.48-2.136.96-3.217 1.464-.623.312-1.367.6-1.8 1.176a.903.903 0 0 0-.215.696.132.132 0 0 0 .12.072l5.76.336.816.048c.072 0 .12-.024.167-.072l.96-2.04h-.288v1.848c0 .048.096.072.12.072l1.536.048c.265 0 .72.144.769-.216a14.05 14.05 0 0 0 0-1.392l-.073-1.968c-.024-.384-.024-.768-.047-1.176.047-.168-.24-.096-.24.048z"
      fill="var(--c, black)" />
    <path
      d="M56.231 64.22s-4.2 36.385-3 37.321c1.2.936 7.776-.528 7.776-.528l.792-7.512.384 8.184s5.136 1.32 6.984.672c0 0 2.64-34.56 2.64-39.576 0-5.016-15.576 1.44-15.576 1.44z"
      fill="var(--b, white)" />
    <path
      d="M55.675 64.102l-.144 1.368c-.144 1.224-.264 2.448-.408 3.648l-.576 5.232a540.649 540.649 0 0 0-.624 6.192c-.216 2.136-.408 4.272-.624 6.384-.192 1.992-.36 3.96-.504 5.952-.12 1.608-.24 3.24-.288 4.848a21.198 21.198 0 0 0 0 3.024c0 .312.072.6.216.864.384.672 1.44.72 2.088.72 1.128 0 2.256-.096 3.36-.288.912-.12 1.8-.288 2.712-.48l.432-.096c.168-.048.288-.192.264-.36l.696-6.552.096-.96-1.104-.24.336 7.176.048 1.008a.74.74 0 0 0 .576.624c1.8.504 3.672.792 5.544.864a5.316 5.316 0 0 0 1.728-.192.36.36 0 0 0 .264-.36l.144-2.016c.144-1.752.264-3.504.384-5.232.192-2.424.36-4.824.528-7.248l.576-8.112c.168-2.568.36-5.136.504-7.704.12-2.04.264-4.08.36-6.144.024-.696.072-1.416.096-2.112.024-.552.096-1.176-.096-1.704-.624-1.848-3-1.896-4.584-1.752-2.328.216-4.632.864-6.864 1.56a62.672 62.672 0 0 0-4.632 1.68l-.24.096c-.648.264.024 1.2.552.984 1.08-.456 2.184-.84 3.288-1.224a42.668 42.668 0 0 1 6.648-1.848 13.65 13.65 0 0 1 2.952-.264l.312.024c.144.024-.048 0 .048 0l.168.024c.192.024.36.072.552.12.144.048-.072-.024.024 0l.12.048c.072.024.144.072.24.12s-.12-.096-.024 0c.024.024.072.048.096.072l.072.072c-.096-.12.024.024 0 0 .048.048.144.216.072.072a.523.523 0 0 0 .12.192c-.048-.12.048.048 0 0 0 .024.024.072.024.096 0 .024.024.072.024.12v.048c0-.12.024.12 0 0 .024.24.024.48 0 .72l-.072 1.824a481.48 481.48 0 0 1-.312 5.712c-.168 2.472-.312 4.944-.48 7.416-.192 2.664-.36 5.328-.576 8.016-.168 2.472-.36 4.968-.552 7.44-.144 1.92-.288 3.84-.432 5.736l-.216 2.832v.12l.264-.36a3.387 3.387 0 0 1-1.296.168 13.18 13.18 0 0 1-1.68-.12c-1.032-.12-2.064-.336-3.096-.552l-.648-.144.576.624-.384-7.152-.048-1.008c-.024-.552-1.032-.96-1.104-.24l-.696 6.576-.096.96.264-.36c-1.536.336-3.096.6-4.68.744-.528.048-1.032.072-1.56.072-.12 0-.216 0-.336-.024l-.144-.024h-.072c-.096 0-.168-.024-.264-.048l-.096-.024c-.096-.024.096.048 0 0-.024-.024-.072-.024-.096-.048-.096-.024.12.072.048.024-.072-.048.144.144.072.072 0 0 .12.168.072.072-.048-.096.048.168.024.072 0-.048-.024-.096-.024-.12 0-.024 0-.048-.024-.072-.024-.024.024.144 0 .024-.072-.888-.096-1.8-.048-2.688.048-1.512.144-3.024.264-4.536.144-1.92.288-3.816.456-5.736.192-2.112.384-4.2.6-6.312.192-2.064.408-4.104.624-6.168l.576-5.4c.144-1.32.288-2.664.456-3.984.072-.648.168-1.296.216-1.944v-.072c.144-.744-.936-1.128-1.032-.432z"
      fill="var(--c, black)" />
    <path
      d="M63.21 71.302l-.24 2.952-.576 7.104-.72 8.616-.624 7.44-.192 2.448a9.315 9.315 0 0 0-.096 1.176v.048c-.024.384 1.104.744 1.128.264l.24-2.976.6-7.104.72-8.616.624-7.44.216-2.448c.048-.384.096-.768.096-1.176v-.048c0-.384-1.128-.744-1.176-.24z"
      fill="var(--c, black)" />
    <path
      d="M87.307 31.461s.744-1.32.672-2.448c0 0 .96.336.888-.648-.072-.984-1.704-3.192-2.232-2.064 0 0-.696-1.872-1.464-.816a4.624 4.624 0 0 1 .912-1.416c.576-.528.192-1.2-.96-.576s-2.544 2.184-2.544 3.912c0 1.032.096 2.064.312 3.072l-.36 2.52s4.656.48 4.752.144c.096-.336.024-1.68.024-1.68z"
      fill="var(--b, white)" />
    <path
      d="M87.859 31.73a4.92 4.92 0 0 0 .696-2.52l-.528.12c.384.144.96.216 1.248-.144.384-.456.024-1.248-.216-1.704a4.137 4.137 0 0 0-1.344-1.536c-.48-.312-1.296-.576-1.608.096l1.056.36a2.973 2.973 0 0 0-.696-1.104 1.761 1.761 0 0 0-1.008-.504.91.91 0 0 0-.84.408l1.08.528c.168-.456.432-.888.744-1.248.312-.336.672-.72.264-1.152-1.032-1.176-2.64.024-3.408.864a5.1 5.1 0 0 0-1.104 1.824 5.95 5.95 0 0 0-.144 2.256c.048.576.12 1.152.216 1.728a.98.98 0 0 1 .024.456l-.336 2.328c-.024.144.192.288.288.36.168.12.36.168.552.192l2.448.216c.528.024 1.08.072 1.632.048.24 0 .792.048.912-.216s.048-.696.048-.984c0-.24 0-.504-.024-.744-.024-.384-1.128-.768-1.104-.384.048.48.048.984 0 1.464v.12c0 .048.024-.024.024 0s-.048 0 .024 0c-.024 0-.048.024-.072.024l-.096.024c-.072.024.072 0-.024 0h-.288c-1.056 0-2.112-.072-3.168-.192-.288-.024-.6-.048-.888-.096l.84.552.264-1.824c.048-.216.096-.456.096-.672a6.139 6.139 0 0 0-.12-.648c-.192-1.248-.408-2.664.12-3.864.456-1.008 1.368-2.088 2.448-2.472.072-.024.288-.072.312-.072l-.408-.24-.024-.024v.096c-.072.24-.264.384-.432.576-.312.36-.552.792-.72 1.248-.144.384.84.816 1.08.528.048-.072.168-.12.216-.192.048-.072.048.024.024-.024s-.192-.048-.216-.072a.182.182 0 0 1-.096-.048l.024.024c0 .024.048.048 0 .024.048.072.096.12.144.192.12.168.216.36.288.576.096.24.912.72 1.08.36.024-.072.072-.12.12-.192l.024-.024c.048-.048.096.024.024 0-.072-.024-.12-.024-.192-.048-.048-.048.096.048 0 0 .048.048.096.072.024.024a.29.29 0 0 1 .12.12c.312.288.552.648.744 1.032.144.288.384.816.144 1.128-.048.096-.168.12-.264.12s.048 0 0 0c-.024 0-.048 0-.072-.024-.096-.024.144.048.048 0-.096-.048-.528-.12-.528.12 0 .84-.24 1.656-.672 2.376-.072.264 1.008.816 1.2.456z"
      fill="var(--c, black)" />
    <path
      d="M85.049 26.76c.144.264.288.528.456.792.168.264.336.504.528.744.168.24.384.432.6.6.12.072.288.144.408.072a.422.422 0 0 0 .144-.312c.048-.36.024-.744-.024-1.104-.048-.288-.096-.552-.144-.84-.024-.12-.096-.216-.144-.336a2.175 2.175 0 0 0-.264-.384c-.048-.048-.312-.312-.264-.072.048.192.072.384.096.576v-.024.072s0 .096.024.144c0 .096.024.168.024.264.024.168.024.36.024.528 0 .072 0 .144-.024.216 0 .024 0 .048-.024.096v.072a.187.187 0 0 1-.096.096c-.024 0-.024.024-.048.024h-.048c-.024 0-.048-.024-.072-.024l-.048-.024c-.024 0 .024.024.024.024l-.024-.024-.048-.024-.024-.024-.048-.048c.024.024.072.096.024.024l-.048-.048c-.024-.024.096.12.024.048l-.048-.072c-.048-.072.024.024.048.048l-.048-.048c-.024-.048-.048-.096-.096-.144-.048-.048.096.144.048.096l-.024-.048-.048-.072c-.024-.048-.048-.096-.096-.144l-.024-.072c-.048-.072.072.144.024.048-.024-.048-.048-.072-.048-.12a1.121 1.121 0 0 1-.12-.24 2.073 2.073 0 0 0-.24-.384c-.072-.096-.144-.192-.24-.264-.216-.144-.048.216-.024.264l-.048.048z"
      fill="var(--c, black)" />
    <path
      d="M88.246 28.821l-.144-.144a1.044 1.044 0 0 1-.144-.168c-.048-.072-.048-.072-.096-.096l-.048-.048c-.072-.072.072.096.048.048a1.377 1.377 0 0 0-.192-.216c-.072-.072-.048-.072-.096-.12s-.024-.048-.048-.072c-.048-.072.072.12.024.024a.887.887 0 0 1-.12-.264c-.024-.072.048.12 0 .024 0-.024-.024-.048-.024-.072 0-.048-.024-.072-.024-.12-.048-.12-.096-.24-.192-.312a.853.853 0 0 0-.384-.264c-.096-.048-.216-.096-.312-.048s-.096.12-.096.192c.024.168.096.336.168.504.096.168.192.336.312.504.192.264.408.504.648.72l.12.12c.12.12.24.192.384.264a.48.48 0 0 0 .312.048c.216-.096 0-.408-.096-.504z"
      fill="var(--c, black)" />
    <path
      d="M60.84 22.657s-4.2.145-6.672 1.488c0 0 .456 4.56.936 4.657.48.096 6.144-1.488 6.768-1.968.624-.48.24-1.68-.936-1.68 0 0 2.064-1.08.432-1.248-.024.024 1.296-1.296-.528-1.248z"
      fill="var(--b, white)" />
    <path
      d="M60.337 22.39c-1.632.048-3.24.312-4.8.744-.552.144-1.104.36-1.632.6-.096.048-.24.072-.264.168 0 .072 0 .168.024.24a34 34 0 0 0 .288 2.184c.096.672.168 1.44.48 2.064a.523.523 0 0 0 .168.216c.288.216.624.384.984.456.168.024.336 0 .504-.048a40.404 40.404 0 0 0 4.8-1.296c.36-.12.72-.24 1.08-.384.24-.072.48-.216.624-.432.192-.384.12-.888-.216-1.176a2.733 2.733 0 0 0-.912-.552 2.638 2.638 0 0 0-1.056-.264l1.056.504a2.81 2.81 0 0 0 .96-.72.304.304 0 0 0 0-.432l-.048-.048c-.432-.312-.936-.528-1.464-.576l1.008.504c.216-.216.48-.528.456-.84-.024-.312-.36-.456-.6-.576a3.336 3.336 0 0 0-1.44-.336c-.096 0 .312.24.336.264.216.144.456.216.696.264.168 0 .312.024.48.024-.6-.408-.816-.504-.648-.288l.024.048c0 .024.024.048.024.096.024.144-.024.264-.096.384-.096.192-.216.36-.36.504-.048.048.888.48 1.008.504.12.024.144.024.216.048-.336-.432-.552-.528-.624-.288 0 0 .024.024.024.048 0 .048 0 .12-.024.168a1.027 1.027 0 0 1-.336.384 3.396 3.396 0 0 1-.696.432c-.024.024.432.288.432.288.192.12.384.192.6.24.072 0 .144.024.216.024.24 0-.552-.408-.384-.168.048.072.12.12.168.192.12.168.168.36.168.552a.692.692 0 0 1-.384.624 7.623 7.623 0 0 1-1.608.6c-1.44.48-2.928.888-4.416 1.2-.192.048-.36.048-.552.072-.432.048 1.032.672.912.432-.024-.024-.048-.048-.048-.072a1.468 1.468 0 0 1-.12-.288 12.08 12.08 0 0 1-.408-2.064c-.096-.624-.168-1.272-.24-1.896-.024-.24-.048-.24.168-.336a8.19 8.19 0 0 1 1.512-.576 19.149 19.149 0 0 1 4.92-.792c.096 0-.312-.264-.336-.264-.168-.24-.384-.312-.624-.36z"
      fill="var(--c, black)" />
    <path
      d="M59.497 24.766l1.872-.288.264-.048c.24-.048.096-.408 0-.528a1.063 1.063 0 0 0-.288-.36c-.072-.048-.192-.144-.288-.12l-1.872.288-.264.048c-.24.048-.072.408 0 .528.072.144.168.264.288.36.096.048.192.096.288.12zm-.963.987l1.416-.168.216-.024c.288-.047.552-.096.816-.192.264-.072.528-.192.792-.311.048-.024.336-.168.288-.24-.048-.073-.312-.049-.384-.049l-1.416.169-.216.024a4.495 4.495 0 0 0-.816.192c-.264.072-.528.192-.792.311-.048.024-.336.169-.288.24.048.073.312.073.384.049z"
      fill="var(--c, black)" />
    <path
      d="M55.08 64.223c-.096-.36 1.152-10.2 1.152-10.2s-14.184-2.832-16.896-13.08c-2.712-10.248 14.832-16.776 14.832-16.776s1.272 4.44 1.008 5.064c-.264.624-7.368 2.52-8.712 8.016-1.344 5.496 14.928 10.8 14.928 10.8l3.144-.096s8.544-2.784 12.864-7.2 4.488-7.92 5.136-8.088c.648-.168 5.04-.096 5.208.36.168.456-.624 9.528-5.856 13.752s-12.144 6.744-12.144 6.744 3.192 9.84 2.784 10.344"
      fill="var(--c, black)" />
    <path
      d="M55.676 64.103c-.024-.072 0-.12 0-.024 0-.096 0-.192.024-.264.024-.264.048-.528.072-.816.072-.816.168-1.632.264-2.448l.648-5.328.144-1.224c.024-.216-.168-.312-.36-.36l-.12-.024-.12-.024c-.048-.024-.288-.072-.096-.024a23.208 23.208 0 0 1-1.224-.336 32 32 0 0 1-3.936-1.416c-3.48-1.488-6.84-3.672-9.072-6.816-1.152-1.632-2.064-3.6-2.232-5.616a8.515 8.515 0 0 1 1.104-4.848c1.68-3.096 4.656-5.328 7.608-7.104a34.145 34.145 0 0 1 2.04-1.152l.456-.24.24-.12c.024 0 .168-.072.024-.024l.12-.048c.288-.144.576-.288.864-.408.696-.336 1.416-.624 2.136-.912l.096-.048-.816-.192c.408 1.344.744 2.736.984 4.128.024.168.048.336.048.504v.288c0 .024 0 .096 0 0-.048.048.096-.12.024-.024-.072.096.096-.048.024-.024-.072.024-.072.048-.096.072-.072.048-.168.096-.24.144l-.144.072-.096.048-.024.024c-.288.144-.576.264-.84.408-1.632.816-3.24 1.728-4.584 2.952a9.798 9.798 0 0 0-1.992 2.448c-.432.768-.84 1.68-.864 2.568-.048 1.344.768 2.52 1.68 3.432a18.476 18.476 0 0 0 4.104 2.976 52.483 52.483 0 0 0 8.472 3.792c.288.096.576.216.864.312.336.072.672.096 1.008.048l2.328-.072c.312-.024.6-.096.888-.192 1.464-.528 2.928-1.104 4.344-1.776a36.305 36.305 0 0 0 6.216-3.576 19.776 19.776 0 0 0 6.648-8.616l.192-.456.072-.216c.024-.072.096-.24.048-.144.072-.168.168-.336.264-.504-.072.12-.048.048 0 .024-.072.072-.12.072-.216.12s0 0 .048 0c.12 0-.144.024-.048 0h.12c.36-.024.744-.024 1.104-.024.888-.024 1.776.048 2.664.144.168.024.312.048.48.096-.144-.024.048.024.096.024s.048.024.072.024c-.096-.072.072.024 0 0 0 0-.024-.096-.048-.048v.336c0 .12 0 .216-.024.336a9.997 9.997 0 0 1-.096.84 24.843 24.843 0 0 1-1.272 5.232c-.744 2.064-1.8 4.104-3.312 5.712a18.494 18.494 0 0 1-3.024 2.448 41.848 41.848 0 0 1-3.576 2.184 50.488 50.488 0 0 1-5.52 2.616c-.288.12-.576.24-.84.336-.144.048-.432.24-.36.432.36 1.104.696 2.208 1.032 3.312.552 1.824 1.128 3.648 1.56 5.496.072.336.144.672.192 1.008.024.12.024.216.024.336 0-.12.024 0 0 .024-.072.072.048-.072 0-.024-.168.24.12.432.312.456a.83.83 0 0 0 .768-.288c.24-.312 0-1.008-.072-1.344-.168-.84-.408-1.68-.648-2.496-.504-1.824-1.08-3.648-1.632-5.448-.12-.408-.264-.84-.384-1.248l-.36.432c1.128-.408 2.232-.912 3.336-1.416a48.31 48.31 0 0 0 6.96-3.912 21.28 21.28 0 0 0 3.144-2.52 13.5 13.5 0 0 0 2.016-2.784 22.344 22.344 0 0 0 2.304-5.976 18.37 18.37 0 0 0 .6-3.96c0-.12 0-.264-.024-.384-.072-.264-.384-.36-.624-.408a11.23 11.23 0 0 0-2.688-.264 10.453 10.453 0 0 0-2.448.072c-.528.096-.792.408-1.008.888-.288.648-.528 1.32-.816 1.968a17.82 17.82 0 0 1-1.752 3 20.167 20.167 0 0 1-5.784 5.352 39.62 39.62 0 0 1-5.952 3.024c-.696.288-1.416.576-2.112.84-.288.096-.576.168-.84.288.288-.144.408-.072.168-.072l-.456.024-1.248.024-1.08.024h-.216c.072-.024.36.096.24.024-.216-.096-.48-.168-.696-.24-.504-.168-.984-.36-1.488-.552a57.514 57.514 0 0 1-4.344-1.848 31.428 31.428 0 0 1-4.632-2.616c-1.224-.84-2.448-1.824-3.168-3.144a3.038 3.038 0 0 1-.312-.768 1.331 1.331 0 0 1-.072-.408c-.024-.12-.024-.24-.024-.36.048-.888.456-1.8.936-2.568 1.008-1.68 2.592-2.88 4.248-3.864.36-.216.72-.408 1.104-.6l.288-.144.072-.024c-.072.048.072-.024.072-.024l.504-.24a8.275 8.275 0 0 0 1.296-.672c.504-.36.384-.936.312-1.488-.144-.888-.36-1.776-.576-2.664-.12-.48-.24-.936-.384-1.416-.096-.336-.576-.288-.816-.192a37.3 37.3 0 0 0-5.304 2.568c-3.12 1.776-6.24 3.984-8.304 6.984-.984 1.44-1.704 3.12-1.824 4.872-.144 2.04.504 4.032 1.464 5.808 1.968 3.6 5.424 6.12 9.048 7.872a29.507 29.507 0 0 0 4.368 1.728c.816.288 1.632.504 2.496.672l.12.024-.36-.36c-.384 2.952-.744 5.88-1.056 8.832-.024.312-.072.624-.096.96-.024.168-.024.36 0 .528.12.48 1.296.24 1.176-.24v-.096z"
      fill="var(--c, black)" />
    <path
      d="M57.573 42.406s-1.728-4.824 2.328-6.672c4.056-1.848 9.408 1.296 9.744 6.672.336 5.376-6.24 6.072-6.24 6.072l-5.832-6.072z"
      fill="var(--b, white)" />
    <path
      d="M57.906 42.548c-.024-.024-.024-.072-.024-.096-.048-.12.024.072 0 0s-.024-.12-.048-.168a11.904 11.904 0 0 1-.192-.984 5.987 5.987 0 0 1 .288-2.76c.96-2.352 3.864-3.192 6.168-2.64a6.568 6.568 0 0 1 4.92 4.872c.288 1.2.312 2.496-.216 3.648a5.219 5.219 0 0 1-1.92 2.16 8.89 8.89 0 0 1-2.328 1.056c-.456.144-.936.192-1.392.312h-.072l.264.144-5.112-5.328-.72-.744c-.12-.12-.36-.24-.408 0-.048.24.216.576.384.72l4.824 5.016.912.96c.12.168.312.264.528.264a9.936 9.936 0 0 0 2.616-.768c1.272-.552 2.424-1.44 3.072-2.688.864-1.68.6-3.792-.072-5.496-1.416-3.504-5.28-6.24-9.144-5.064-1.704.528-3.024 1.8-3.36 3.576a7.537 7.537 0 0 0 .216 3.432c.024.096.048.192.096.288.072.216.288.576.528.624.24.048.264-.192.192-.336z"
      fill="var(--c, black)" />
    <path
      d="M57.714 46.798c-1.536-1.848-.169-8.544-.169-8.544 1.08-1.704 6.745-.672 6.745-.672-.793 1.704-.505 4.536-.505 4.536.648-1.536 2.449-.888 2.377.624-.073 1.512-1.849 1.944-1.849 1.944s.504 3.192.36 3.792c-.144.6-2.928 1.464-4.416-.216 0 0-1.2.144-2.543-1.464z"
      fill="var(--b, white)" />
    <path
      d="M58.174 46.539c-.048-.048-.072-.096-.096-.144-.048-.072.024.072-.024-.048s-.12-.24-.168-.336a5.89 5.89 0 0 1-.192-.696 11.984 11.984 0 0 1-.144-1.848c.024-1.272.144-2.544.336-3.792.048-.36.12-.72.192-1.08a.468.468 0 0 0 .024-.192c.024.072-.144.216-.024.096l.096-.096c.024-.024.048-.048.072-.048-.072.048.048-.048 0 0 .072-.048.096-.072.144-.096l.144-.072c.024 0 .192-.072.096-.048.12-.048.264-.096.408-.12.24-.072.504-.12.768-.144a10.01 10.01 0 0 1 1.896-.024c.336.024.672.048.984.072h.072c.168.024-.072 0 .024 0l.216.024.384.048c.264.024.528.072.792.12l-.48-.768c-.648 1.464-.696 3.216-.552 4.8.048.48.888.744 1.128.264.096-.24.264-.432.48-.576a.452.452 0 0 1 .192-.048c.12-.024 0 0 .096 0 .024 0 .168.048.048.024l.144.072c-.12-.072.024.024.048.048.048.048.096.12.144.192.096.216.144.48.096.72a1.625 1.625 0 0 1-.816 1.08c-.096.048-.168.096-.264.144l-.144.072c-.12.048.048-.024-.024.024-.072.048-.144.048-.24.072a.418.418 0 0 0-.336.504c.096.552.168 1.08.24 1.632l.144 1.296c0 .072 0 .168.024.24.024.072 0 .096 0 .144v.288s.048-.072 0-.048l-.072.072s.096-.072.024-.024c-.048.048-.12.072-.192.12l-.096.048c-.096.048-.072.024-.096.024a3.04 3.04 0 0 1-1.128.216 2.66 2.66 0 0 1-1.224-.24c-.408-.192-.744-.72-1.2-.744-.072 0-.312-.024-.12 0-.072 0-.144-.024-.216-.048l-.12-.024c-.168-.048.12.048-.048-.024a3.63 3.63 0 0 1-1.44-1.104.666.666 0 0 0-.816-.192.493.493 0 0 0-.144.672c.024.024.024.048.048.048a5.092 5.092 0 0 0 2.016 1.536c.336.144.696.216 1.056.192l-.552-.264c1.176 1.296 3.144 1.584 4.704.864.48-.216.768-.552.768-1.104a15.348 15.348 0 0 0-.192-2.088l-.216-1.512-.336.504c.816-.216 1.656-.792 2.016-1.584.552-1.248-.192-2.832-1.632-2.904-.768-.048-1.368.456-1.68 1.152l1.128.24a10.268 10.268 0 0 1-.024-1.488c.024-.936.12-1.92.504-2.784.144-.336-.144-.696-.48-.768a16.927 16.927 0 0 0-2.472-.264c-1.296-.096-2.712-.12-3.936.408-.408.168-.912.504-1.008.96-.072.264-.096.552-.144.84a29.42 29.42 0 0 0-.408 3.816c-.048 1.368-.072 3.12.84 4.248.192.24.528.336.816.192a.493.493 0 0 0 .144-.672c.024-.048.024-.048 0-.072z"
      fill="var(--c, black)" />
    <path d="M59.446 43.822s-3.576.36-4.128-1.512c-.552-1.872 2.016-2.64 3.96-1.008" fill="var(--b, white)" />
    <path
      d="M59.154 43.321a6.243 6.243 0 0 1-2.736-.264 3.4 3.4 0 0 1-.432-.192l-.096-.048c.072.048-.048-.024-.048-.024l-.096-.072c-.024-.024-.048-.024-.048-.048.048.048.048.048 0 0l-.024-.024-.024-.024c.024.048.096.144 0 0 .024.024.096.168 0 0 .024.048.072.096 0 0 .048.12 0 0 0-.024-.024-.096-.048-.168-.048-.264-.048-.672.456-1.152 1.08-1.32.936-.264 1.968.144 2.688.72.168.144.288.048.24-.144a1.583 1.583 0 0 0-.48-.696c-.768-.624-1.8-1.08-2.808-.936-.768.12-1.44.6-1.464 1.416-.048.96.624 1.896 1.416 2.376.624.36 1.344.552 2.064.576.456.048.912.048 1.368 0 .288-.048-.24-1.056-.552-1.008zm2.709.695a.7.7 0 0 1-.048.216l.024-.096c-.048.192-.12.384-.24.552l.048-.072a1.46 1.46 0 0 1-.384.384l.072-.048c-.048.024-.12.072-.168.096-.192.096-.144.336-.048.48a.587.587 0 0 0 .264.216.348.348 0 0 0 .264.024c.312-.144.576-.384.744-.672.12-.192.192-.408.216-.624 0-.048.024-.072.024-.12 0-.096-.024-.216-.096-.288a.587.587 0 0 0-.264-.216.348.348 0 0 0-.264-.024c-.072.024-.12.096-.144.192zM59.418 40.2c.168.047.264.215.216.36 0 .023 0 .023-.024.047-.12.288-.504.144-.48-.144 0-.144.096-.24.216-.264.024-.024.048 0 .072 0zm2.212.17c.169.048.24.216.217.36 0 .024 0 .024-.024.048-.12.312-.504.144-.48-.144-.024-.12.096-.24.216-.264.024-.024.048-.024.072 0z"
      fill="var(--c, black)" />
    <path
      d="M68.467 9.911a7.004 7.004 0 0 1 1.296-3.672 3.613 3.613 0 0 1 1.08-1.008 2.44 2.44 0 0 1 .672-.312l.216-.072.072-.024h.312c-.12 0 .12 0 0 0h.192c-.192-.024 0 0 .024 0s.264.048.072 0l.24.048c.024 0 .24.072.12.024.096.024.216.072.312.096.696.24 1.392.576 2.04.96.744.432 1.44.96 2.088 1.56 1.248 1.152 2.304 2.664 2.472 4.392.216 2.52-1.632 4.536-3.528 5.928-.144.12.336.24.384.265.192.047.576.143.744.023 1.8-1.32 3.6-3.191 3.6-5.567 0-1.825-1.032-3.48-2.304-4.729a12.728 12.728 0 0 0-4.608-2.904 8.082 8.082 0 0 0-2.376-.504 3.37 3.37 0 0 0-2.256.792c-1.248 1.056-1.896 2.856-1.992 4.464-.072.264 1.128.433 1.128.24zm-7.224 11.45c-1.536 1.296-2.904 3.48-2.28 5.544.408 1.392 1.752 2.448 2.952 3.144a12.53 12.53 0 0 0 4.704 1.656c1.584.216 3.336.072 4.704-.888 1.68-1.176 2.328-3.264 2.472-5.232.024-.336.024-.696.024-1.032 0-.216-.24-.48-.384-.648-.024-.048-.384-.384-.384-.24 0 2.016-.36 4.248-1.872 5.712-1.152 1.104-2.76 1.488-4.296 1.44a11.416 11.416 0 0 1-4.608-1.2 19.659 19.659 0 0 1-.984-.528l-.432-.288c-.144-.096-.288-.192-.336-.24l-.36-.288-.096-.072c-.072-.048.048.048 0 0a1.044 1.044 0 0 1-.144-.168c-.048-.072.072.096.024.024l-.048-.072c-.12-.144.072.096-.048-.048-.048-.072.096.12.024.048-.024-.024-.024-.048-.048-.072-.048-.072.072.12.024.048-.048-.072-.048-.072 0 0-.024-.048-.048-.072-.048-.12.024.048.024.048 0 0-.048-.096-.072-.216-.096-.312a3.594 3.594 0 0 1-.096-1.008c.048-.648.24-1.296.552-1.872a8.7 8.7 0 0 1 1.728-2.232l.12-.12c.12-.096-.624-1.032-.768-.936z"
      fill="var(--a, blue)" />
    <path d="M77.207 23.352s4.968 2.592 5.784 4.2l1.992-4.008s-4.08-.336-6.84-2.04l-.936 1.848z"
      fill="var(--b, white)" />
    <path
      d="M76.984 23.709c.576.288 1.128.6 1.656.936.504.288 1.008.6 1.488.936.48.312.936.648 1.368.984.216.192.432.384.648.6l.048.048.024.024a.502.502 0 0 1 .096.144l.096.144.024.048c-.048-.12.048.072 0 0 .096.216.288.36.504.432.168.048.432.048.528-.144l1.992-4.008c.168-.36-.216-.768-.576-.792a18.411 18.411 0 0 1-2.304-.36 13.57 13.57 0 0 1-4.248-1.584c-.192-.12-.6-.216-.744.048l-.936 1.896c-.264.528.768 1.152 1.008.624l.936-1.872-.744.048c1.464.84 3.024 1.44 4.68 1.752.816.192 1.632.312 2.448.408l-.576-.792-1.992 4.008 1.032.288c-.528-1.008-1.56-1.728-2.496-2.352a33.382 33.382 0 0 0-2.952-1.8l-.648-.36c-.216-.12-.576-.216-.744.048-.168.264.168.528.384.648z"
      fill="var(--a, blue)" />
    <path
      d="M58.605 22.845l7.896-15.84s6 2.016 9.216 6.072c3.216 4.056 3.84 8.04 2.953 9.792-.889 1.752-8.209 7.08-20.065-.024z"
      fill="var(--a, blue)" />
    <path
      d="M59.01 23.282l2.663-5.352 4.248-8.544.96-1.944-.192.072a23.141 23.141 0 0 1 5.689 2.904 15.162 15.162 0 0 1 3.888 3.84c1.08 1.584 1.944 3.36 2.255 5.256.168.984.24 2.232-.36 3.12a2.647 2.647 0 0 1-.48.552c-.263.264-.552.48-.84.696-1.8 1.272-4.031 1.896-6.215 2.016-3.672.216-7.297-.936-10.537-2.616-.527-.288-1.056-.576-1.56-.888-.192-.12-.336-.024-.312.216.072.288.24.528.48.696 3.456 2.064 7.368 3.624 11.448 3.648 2.425.024 4.945-.528 6.984-1.848a6.06 6.06 0 0 0 1.632-1.392c.6-.768.697-1.872.624-2.808-.144-1.92-.864-3.792-1.8-5.472a17.376 17.376 0 0 0-4.103-4.944 24.165 24.165 0 0 0-7.032-3.936l-.145-.048c-.072-.024-.168 0-.192.072L63.45 11.93l-4.248 8.544-.96 1.944c-.168.312.576 1.2.768.864zm24.34 7.028l4.176-8.376-1.968.456-3.144 6.336.936 1.584z"
      fill="var(--a, blue)" />
    <path
      d="M83.901 30.527l3.648-7.344.528-1.056c.192-.384-.264-.816-.648-.72l-1.128.264c-.384.096-1.08.144-1.296.504-.264.48-.48.984-.744 1.488-.792 1.584-1.632 3.168-2.376 4.776-.168.36.048.624.216.912l.672 1.176a.695.695 0 0 0 .792.288.474.474 0 0 0 .312-.624c0-.024-.024-.048-.024-.072l-.936-1.608v.408l2.76-5.544.384-.792-.456.312 1.944-.456-.648-.72-3.648 7.344-.528 1.056c-.264.624.864 1.008 1.176.408z"
      fill="var(--a, blue)" />
    <path
      d="M83.135 31.607s-.96-3-.84-3.912c.12-.912 1.92-2.04 2.136-1.488.216.552-.383 1.248-.383 1.248s1.727 1.728 1.775 3.864"
      fill="var(--b, white)" />
    <path
      d="M83.637 31.702a26.116 26.116 0 0 1-.72-2.688c-.096-.456-.24-.912-.024-1.344a2.398 2.398 0 0 1 1.296-1.08c.024 0 .168-.048.12-.048h.072c-.024-.024.072 0 0 0 .072.096-.336-.24-.192-.144a.274.274 0 0 1-.168-.192c-.048-.096-.048-.096-.024 0 0 .048 0 .096-.024.144-.072.24-.192.48-.336.672-.192.216 0 .528.168.696l.072.072.072.072.024.024c.216.24.408.504.576.768.48.72.744 1.56.792 2.424a.812.812 0 0 0 .504.672c.192.096.528.048.528-.24-.024-1.608-.864-3.24-2.016-4.368l.168.696c.456-.552.768-1.464.144-2.04-.624-.576-1.464-.096-2.016.36-.552.456-.888.984-.84 1.704.072.72.216 1.44.432 2.136.144.504.288 1.008.432 1.488a.853.853 0 0 0 .6.576.315.315 0 0 0 .384-.192s0-.072-.024-.168z"
      fill="var(--c, black)" />
    <path d="M57.021 26.061s.888.192 1.176.6c0 0 2.328-.24 2.328.505 0 .744-1.08 1.584-4.752 1.296"
      fill="var(--b, white)" />
    <path
      d="M56.538 26.301a2.3 2.3 0 0 1 .768.288c.168.096.312.312.504.336h.24a4.29 4.29 0 0 1 1.464.048c.192.048.384.12.432.336a.565.565 0 0 1-.12.384c0 .024-.072.096-.024.048-.024.024-.048.048-.072.096-.024.024-.072.048-.096.096.096-.072-.048.048-.072.048l-.048.024c-.096.048.096-.048 0 0l-.168.072c.144-.072-.048.024-.072.024-.168.048-.024 0 0 0l-.12.048-.12.024c-.144.048.072 0-.048 0l-.312.048a4.785 4.785 0 0 1-.648.048c-.624.024-1.224 0-1.848-.048a1.237 1.237 0 0 0-.816.216c-.192.12-.168.264.072.264 1.032.096 2.064.072 3.096-.048a4.91 4.91 0 0 0 1.992-.672c.312-.192.552-.48.624-.84.072-.552-.648-.672-1.08-.72a8.73 8.73 0 0 0-1.584 0l.336.096c-.288-.384-.816-.576-1.272-.672-.288-.048-.576 0-.816.144-.144.024-.432.24-.192.312z"
      fill="var(--c, black)" />
    <path
      d="M67.32 18.407l-.144-1.104-.84.144a51.451 51.451 0 0 0 5.976 3.264c.192.096.6.144.696-.12.096-.264-.24-.48-.432-.552a50.215 50.215 0 0 1-5.688-3.12c-.168-.12-.912-.288-.84.144l.12 1.104c.048.456 1.2.744 1.152.24z"
      fill="var(--b, white)" />
    <path
      d="M72.645 21.17l.72-1.2a.436.436 0 0 0-.168-.6c-.048-.024-.072-.048-.12-.048a.695.695 0 0 0-.768.336l-.72 1.2a.434.434 0 0 0-.024.384c.072.12.168.216.288.24a.73.73 0 0 0 .792-.312zm-4.347-6.1l-.552-1.152a1.063 1.063 0 0 0-.288-.36.604.604 0 0 0-.384-.12.31.31 0 0 0-.288.191.53.53 0 0 0 0 .385l.552 1.152c.072.143.168.264.288.36.12.095.264.12.384.12s.24-.073.288-.193a.53.53 0 0 0 0-.383zm1.342-.145l.265-1.2c.024-.096-.096-.216-.168-.264-.264-.144-.576-.168-.84-.024l-.096.072a.482.482 0 0 0-.096.192l-.264 1.2c-.024.096.096.216.168.264.12.072.264.12.432.12a.941.941 0 0 0 .432-.096l.096-.072a.273.273 0 0 0 .072-.192z"
      fill="var(--b, white)" />
    <path d="M78.336 106.465H44.832v8.88h33.504v-8.88z" fill="var(--a, blue)" />
    <path
      d="M77.97 106.007H44.947a1.45 1.45 0 0 0-.457 0h-.047c-.048 0-.048.024-.048.048v8.88c0 .168.215.384.311.504s.313.36.48.36h33c.144.024.313.024.456 0h.049c.047 0 .047 0 .047-.048v-8.904c0-.216-.287-.48-.431-.6-.049-.024-.409-.36-.409-.192v8.88c0-.024.097-.048.049-.048H46.578c-.672 0-1.367-.024-2.04 0h-.095l.791.84V106.847c0 .024-.096.024-.047.048h31.368c.671 0 1.367.024 2.04 0h.096c.168 0-.12-.384-.145-.432-.12-.12-.384-.456-.576-.456zM57.427 17.638l-2.664.288c-.624.072 0 1.056.456 1.008l2.664-.288c.624-.072 0-1.056-.456-1.008zm-.411-3.144L55 14.35c-.192-.024.144.408.168.432.096.12.216.216.36.288a.887.887 0 0 0 .264.12l2.016.144c.192.024-.144-.408-.168-.432a1.063 1.063 0 0 0-.36-.288c-.096-.072-.168-.12-.264-.12zm1.541-1.393l-1.008-2.16a3.347 3.347 0 0 0-.504-.648c-.048-.048-.336-.288-.24-.096l1.008 2.16c.144.24.312.456.504.648.048.048.336.312.24.096zm-28.481 94.971c-.456-6.216-.912-12.72 1.512-18.624a18.24 18.24 0 0 1 2.016-3.672c.792-1.128 1.752-2.304 2.976-3 .312-.168.624-.312.96-.384.144-.024.312-.048.456-.072.192 0 .384.048.576.048-.048-.048.096 0 0 0 .048.048.216.144.288.24.216.192.408.432.576.696a5.27 5.27 0 0 1 .72 3.6 2.282 2.282 0 0 1-2.496 2.016c-.048 0-.072 0-.12-.024l-.36-.072c-.096-.024.096.048 0 0l-.144-.072a3.322 3.322 0 0 1-.816-.72c-.456-.504-.816-1.08-1.128-1.704a12.156 12.156 0 0 1 3.216-15c1.08-.864 2.352-1.632 3.696-1.944.576-.144 1.392-.264 1.968 0 .504.264.912.672 1.2 1.152.576.864 1.008 2.448.12 3.264a.755.755 0 0 1-.36.192c-.048 0-.096 0-.144.024h-.072c.528.288.672.336.48.192a2.852 2.852 0 0 1-.432-.696c-.24-.648-.264-1.368-.336-2.04-.264-2.832-.024-5.976 2.112-8.064a5.155 5.155 0 0 1 1.584-1.08c.12-.048-.288-.264-.336-.288-.144-.072-.528-.288-.72-.216a6.09 6.09 0 0 0-2.928 2.928c-.744 1.464-.936 3.144-.912 4.776.024.888.096 1.8.216 2.688.072.576.216 1.2.624 1.608.24.216.528.408.84.504.336.144.744.288 1.104.168.552-.192.816-.84.84-1.368.096-1.344-.72-2.64-1.8-3.36a5.213 5.213 0 0 0-4.512-.744 10.466 10.466 0 0 0-3.84 2.304 12.052 12.052 0 0 0-2.64 3.384 12.226 12.226 0 0 0-.912 9.096c.408 1.44 1.08 2.952 2.136 4.056.984 1.008 2.568 1.776 3.984 1.56 3.048-.48 2.256-4.992.552-6.48a4.713 4.713 0 0 0-1.992-.984 3.145 3.145 0 0 0-2.184.312c-1.344.696-2.376 1.968-3.24 3.192-3.96 5.664-4.08 12.888-3.648 19.536.048.912.12 1.8.192 2.688 0 .144.408.288.504.336.096-.072.648.12.624.048zm57.26-16.317c.672-3.312.72-6.72.144-10.032a28.86 28.86 0 0 0-1.296-4.896c-.552-1.512-1.2-3.096-2.184-4.392-.84-1.08-2.136-2.088-3.576-1.608a3.64 3.64 0 0 0-1.632 1.32c-.408.552-.96 1.248-.84 1.968.216 1.296 1.872 2.088 2.904 1.176.528-.48.792-1.152.96-1.848.216-.816.336-1.632.384-2.472.096-1.848-.288-3.72-1.392-5.256-.96-1.32-2.376-2.328-4.032-2.472-.264-.024-.12.432-.072.552a.766.766 0 0 0 .576.504c1.176.12 2.256.72 2.976 1.656.792 1.008 1.104 2.304 1.152 3.552.024.744-.048 1.488-.168 2.232-.096.648-.264 1.296-.552 1.896-.24.456-.624.912-1.176.96a1.11 1.11 0 0 1-.624-.096c-.024 0-.096-.048-.12-.072-.024-.024-.096-.072-.024-.024.072.048.024.12.048-.048.072-.312.216-.624.432-.864.168-.288.384-.552.6-.816.384-.48.912-.816 1.512-.96 1.2-.216 2.088.696 2.664 1.632a17.056 17.056 0 0 1 1.656 3.696c.48 1.392.84 2.808 1.08 4.248.528 3.216.48 6.504-.168 9.72-.048.264.168.6.36.744.192.144.36.264.408 0zM26.333 28.561a1.383 1.383 0 0 1-.864-.887 4.773 4.773 0 0 1-.288-1.633c0-.48.24-.936.648-1.175.456-.216.984-.264 1.464-.072.504.143.912.48 1.128.96.024.072.144.623.144.623s.192-.095.192-.12h-.048c-.096-.048-.192-.072-.288-.144a1.039 1.039 0 0 1-.312-1.032c.12-.407.408-.744.816-.887.648-.288 1.152.072 1.584.527.456.456.744 1.032.864 1.657.12.671 1.272.407 1.176-.216-.264-1.68-1.848-3.552-3.696-2.976-.816.215-1.464.816-1.8 1.584a1.945 1.945 0 0 0 .36 1.992c.552.623 1.8.84 2.232-.049.336-.696-.168-1.752-.672-2.232-1.296-1.2-3.648-1.08-4.584.504-.528.864-.312 1.945-.072 2.857.24.84.72 1.488 1.56 1.752.576.143 1.176-.817.456-1.033zm-9.725 4.321a2.084 2.084 0 0 0 .335 2.352c.648.696 1.608.624 2.448.552.36-.024.793-.096 1.105.096.264.216.431.528.456.864.143.936-.193 1.944.311 2.808.504.864 1.752 1.176 2.496.456a.558.558 0 0 0 .049-.768l-.024-.024a.598.598 0 0 0-.816.072c-.049.048-.073.072-.049.024.024-.048.024-.024-.047 0 .047 0-.12-.024-.12-.024a.806.806 0 0 1-.384-.24c-.313-.336-.288-.912-.264-1.344.024-.912.072-2.04-.744-2.664-.864-.672-1.848-.264-2.832-.312a.998.998 0 0 1-.84-.48 1.016 1.016 0 0 1-.096-.912.506.506 0 0 0-.168-.696s-.024 0-.024-.024a.653.653 0 0 0-.792.264zm11.256 27.263c.672-2.088 2.52-3.576 4.68-3.768.72-.048.408-1.176-.192-1.128a6.332 6.332 0 0 0-5.496 4.344c-.072.312.048.624.336.768.216.144.48.072.624-.12.024-.048.024-.072.048-.096zm-15.478-4.391c.768.648 1.752.984 2.76.888.24-.024.576-.168.528-.48a.652.652 0 0 0-.672-.48c-.096 0-.192.024-.288.024h-.216.048c-.096-.024-.192-.024-.288-.048l-.144-.024-.072-.024c.096.024.12.024.048.024s-.192-.072-.288-.096l-.144-.072-.072-.024c.072.048.096.048.048.024a3.43 3.43 0 0 1-.48-.336.739.739 0 0 0-.456-.144.545.545 0 0 0-.384.144c-.096.096-.144.216-.12.336a.673.673 0 0 0 .192.288zm89.687-5.785c.024-.432.264-.816.648-1.008a4.28 4.28 0 0 1 1.536-.6c1.128-.144 1.752 1.032 1.656 2.016-.024.504-.288.96-.696 1.272a.811.811 0 0 1-.288.144 1 1 0 0 0-.144.048l.12.024v-.024c0 .024-.024-.192 0-.12 0-.072.024-.168.048-.24a.79.79 0 0 1 .816-.456c.456.072.84.36 1.08.744.72 1.128-.528 2.448-1.536 2.856a.544.544 0 0 0-.336.696c.12.288.48.312.744.216 1.464-.576 3.168-2.496 2.28-4.152a2.593 2.593 0 0 0-1.968-1.392 2.227 2.227 0 0 0-2.016.912c-.432.624-.504 1.848.48 1.944.792.096 1.656-.528 2.088-1.176.96-1.44.48-3.696-1.248-4.272-.96-.312-2.016.096-2.88.528-.792.408-1.464 1.032-1.536 1.968-.072.768 1.08.72 1.152.072zm-14.305 4.848a2.084 2.084 0 0 0 .336 2.352c.648.696 1.608.624 2.448.552.36-.024.792-.096 1.104.096.264.216.432.528.456.864.144.936-.192 1.92.312 2.808.504.888 1.752 1.176 2.496.456a.53.53 0 0 0 .048-.744l-.024-.024a.598.598 0 0 0-.816.072c-.048.048-.072.072-.048.024.024-.048.024-.024-.048 0 .048 0-.12-.024-.12-.024a.806.806 0 0 1-.384-.24c-.312-.336-.288-.912-.264-1.344.024-.912.072-2.04-.744-2.664-.864-.672-1.848-.264-2.832-.312a.998.998 0 0 1-.84-.48 1.016 1.016 0 0 1-.096-.912.533.533 0 0 0-.144-.72c-.024 0-.024-.024-.048-.024-.288-.144-.624-.024-.792.264zm11.28-15.382a5.48 5.48 0 0 1 4.68-3.768c.72-.048.408-1.176-.192-1.128a6.332 6.332 0 0 0-5.496 4.344c-.072.312.048.624.336.768.216.144.48.072.624-.12.024-.024.024-.048.048-.096zm-2.685 35.857c.768.648 1.752.96 2.76.888.24-.024.576-.168.528-.48a.65.65 0 0 0-.672-.456c-.096 0-.192.024-.288.024h-.216.048c-.072 0-.192-.024-.288-.048-.048 0-.096-.024-.144-.024l-.072-.024c.096.024.12.024.048 0s-.192-.072-.288-.096l-.144-.072-.072-.024.024.024a2.282 2.282 0 0 1-.48-.36.602.602 0 0 0-.456-.12.545.545 0 0 0-.384.144c-.096.096-.144.216-.12.336.048.12.12.216.216.288z"
      fill="var(--a, blue)" />
  </g>
</svg>
