<?xml version="1.0" encoding="UTF-8"?>
<svg version="1.2" baseProfile="tiny-ps" xmlns="http://www.w3.org/2000/svg" viewBox="0 0 24 24" width="24" height="24">
  <title>Altery</title>
  <path d="M10.8075 5.45386C11.4653 1.83612 14.9281 -0.56272 18.5462 0.114401C22.1639 0.791521 24.5628 4.23496 23.8856 7.85309C23.2278 11.4708 19.7651 13.8697 16.147 13.1925C12.5292 12.5347 10.1497 9.05231 10.8075 5.45386" fill="#FF771C"/>
  <path d="M0.109259 16.1332C0.767101 12.5154 4.22982 10.1166 7.84795 10.7937C11.4657 11.4708 13.8645 14.9143 13.1874 18.5324C12.5296 22.1501 9.06684 24.549 5.44871 23.8719C1.83098 23.214 -0.548583 19.7316 0.109259 16.1332Z" fill="#0041D3"/>
  <path d="M3.63019 3.96423C4.63623 2.76462 6.43546 2.62927 7.63468 3.63531C8.8343 4.64135 8.96964 6.44058 7.9636 7.63981C6.95756 8.83942 5.15833 8.97477 3.95911 7.96873C2.75949 6.96269 2.62414 5.16346 3.63019 3.96423" fill="#BDCDD1"/>
  <path d="M16.089 16.3652C17.0951 15.1656 18.8943 15.0303 20.0935 16.0363C21.2932 17.0424 21.4285 18.8416 20.4225 20.0408C19.4164 21.2404 17.6172 21.3758 16.418 20.3697C15.2184 19.3637 15.083 17.5645 16.089 16.3652Z" fill="#F5D0AE"/>
</svg>
